<svg width="178" height="27" viewBox="0 0 178 27" fill="none" xmlns="http://www.w3.org/2000/svg">
<path d="M9.376 26.448C5.6 26.448 3.104 25.68 0.992 24.24V18.736C3.04 20.304 6.08 21.2 8.576 21.2C11.488 21.2 13.184 20.24 13.184 18.608C13.184 17.104 11.36 16.592 9.184 16.592H6.336V12.016H9.856C12 12.016 12.736 11.28 12.736 10.16C12.736 9.104 11.52 8.336 9.216 8.336C6.272 8.336 3.552 9.2 1.792 10.128V5.168C3.616 4.176 6.176 3.152 9.504 3.152C15.136 3.152 18.464 6 18.464 9.808C18.464 12.048 16.928 13.488 15.744 14.096C17.472 14.928 19.136 16.56 19.136 19.28C19.136 23.184 15.552 26.448 9.376 26.448ZM19.945 26L29.353 3.472H34.889L44.297 26H38.121L36.233 21.264H27.913L26.025 26H19.945ZM29.737 16.656H34.409L32.073 10.672L29.737 16.656ZM46.769 26V3.6H52.529V11.568H60.977V3.6H66.737V26H60.977V16.688H52.529V26H46.769ZM82.123 21.136C85.515 21.136 88.011 18.448 88.011 14.8C88.011 11.152 85.515 8.464 82.123 8.464C78.731 8.464 76.235 11.152 76.235 14.8C76.235 18.448 78.731 21.136 82.123 21.136ZM82.123 26.448C75.243 26.448 70.315 21.168 70.315 14.8C70.315 8.4 75.243 3.152 82.123 3.152C89.003 3.152 93.931 8.4 93.931 14.8C93.931 21.168 89.003 26.448 82.123 26.448ZM97.519 26V3.6H108.431C112.335 3.6 115.407 5.424 115.407 9.264C115.407 11.696 113.871 13.104 112.783 13.616C114.639 14.064 117.039 16.048 117.039 19.568C117.039 23.408 113.871 26 109.039 26H97.519ZM103.279 21.2H107.919C109.647 21.2 110.735 20.336 110.735 18.832C110.735 17.36 109.647 16.432 107.919 16.432H103.279V21.2ZM103.279 12.176H107.567C108.975 12.176 109.871 11.44 109.871 10.256C109.871 9.008 108.975 8.272 107.567 8.272H103.279V12.176ZM130.936 21.136C134.328 21.136 136.824 18.448 136.824 14.8C136.824 11.152 134.328 8.464 130.936 8.464C127.544 8.464 125.048 11.152 125.048 14.8C125.048 18.448 127.544 21.136 130.936 21.136ZM130.936 26.448C124.056 26.448 119.128 21.168 119.128 14.8C119.128 8.4 124.056 3.152 130.936 3.152C137.816 3.152 142.744 8.4 142.744 14.8C142.744 21.168 137.816 26.448 130.936 26.448Z" fill="#1D1E19"/>
<path d="M158.774 10.9419C160.279 8.35088 163.085 6.60876 166.298 6.60876C171.1 6.60876 174.993 10.5019 174.993 15.3044C174.993 20.1069 171.1 24 166.298 24C162.404 24 159.108 21.441 158 17.9131" stroke="#1D1E19" stroke-width="5" stroke-linecap="round" stroke-linejoin="round"/>
<path d="M166 13.0001L158.689 10.9566L160.5 2.5" stroke="#1D1E19" stroke-width="5" stroke-linecap="round" stroke-linejoin="round"/>
</svg>
