<svg width="280" height="29" viewBox="0 0 280 29" fill="none" xmlns="http://www.w3.org/2000/svg">
<path d="M2.144 24V1.6H21.536V24H15.776V6.656H7.904V24H2.144ZM25.8315 24V1.6H35.8155C40.8715 1.6 43.9755 4.544 43.9755 8.608C43.9755 12.672 40.8715 15.648 35.8155 15.648H31.5915V24H25.8315ZM31.5915 10.912H35.3995C37.0635 10.912 38.1515 10.08 38.1515 8.672C38.1515 7.264 37.0635 6.464 35.3995 6.464H31.5915V10.912ZM57.9668 19.136C61.3588 19.136 63.8548 16.448 63.8548 12.8C63.8548 9.152 61.3588 6.464 57.9668 6.464C54.5748 6.464 52.0788 9.152 52.0788 12.8C52.0788 16.448 54.5748 19.136 57.9668 19.136ZM57.9668 24.448C51.0868 24.448 46.1588 19.168 46.1588 12.8C46.1588 6.4 51.0868 1.152 57.9668 1.152C64.8468 1.152 69.7748 6.4 69.7748 12.8C69.7748 19.168 64.8468 24.448 57.9668 24.448ZM70.41 28.352V18.944H72.554C74.282 16.16 75.114 12.256 75.114 5.632V1.6H91.818V18.944H94.762V28.352H89.322V24H75.818V28.352H70.41ZM78.826 18.944H86.058V6.656H80.842C80.778 12.192 79.786 16.352 78.826 18.944ZM108.842 19.136C112.234 19.136 114.73 16.448 114.73 12.8C114.73 9.152 112.234 6.464 108.842 6.464C105.45 6.464 102.954 9.152 102.954 12.8C102.954 16.448 105.45 19.136 108.842 19.136ZM108.842 24.448C101.962 24.448 97.0338 19.168 97.0338 12.8C97.0338 6.4 101.962 1.152 108.842 1.152C115.722 1.152 120.65 6.4 120.65 12.8C120.65 19.168 115.722 24.448 108.842 24.448ZM124.249 24.192C123.449 24.192 122.425 24.096 121.785 23.744V18.464C122.265 18.688 122.873 18.88 123.481 18.88C125.721 18.88 126.137 16.768 126.201 8.352L126.265 1.6H143.001V24H137.241V6.656H131.865L131.801 9.12C131.673 14.368 131.289 18.624 130.073 20.832C128.761 23.232 126.521 24.192 124.249 24.192ZM145.124 24L154.084 12.48L146.276 1.6H153.38L159.62 10.592V1.6H165.38V10.592L171.652 1.6H178.724L170.916 12.48L179.876 24H172.388L165.38 14.848V24H159.62V14.848L152.612 24H145.124ZM181.988 24V1.6H187.748V14.24L196.996 1.6H201.988V24H196.228V11.232L186.82 24H181.988ZM211.741 24V6.656H205.021V1.6H224.253V6.656H217.501V24H211.741ZM227.3 24V1.6H233.06V8.512H237.092C242.66 8.512 246.084 11.808 246.084 16.288C246.084 20.768 242.66 24 237.092 24H227.3ZM233.06 19.072H236.74C238.884 19.072 240.26 17.984 240.26 16.16C240.26 14.304 238.884 13.184 236.74 13.184H233.06V19.072Z" fill="#1D1E19"/>
<path d="M256 13H276.963M276.963 13L266.005 23.4816M276.963 13L266.005 2.51853" stroke="#1D1E19" stroke-width="5" stroke-linecap="round" stroke-linejoin="round"/>
</svg>
