<svg width="68" height="58" viewBox="0 0 68 58" fill="none" xmlns="http://www.w3.org/2000/svg">
<path d="M8.94116 27.0251C8.94116 -3.34063 59.0588 -4.00765 59.0588 27.0251H8.94116Z" fill="#F5C86D" stroke="#1D1E19" stroke-width="4"/>
<path d="M7.35413 33.4744H60.646V37.8507C60.646 46.7696 53.4159 53.9998 44.497 53.9998H23.5032C14.5843 53.9998 7.35413 46.7696 7.35413 37.8507V33.4744Z" fill="#F5C86D" stroke="#1D1E19" stroke-width="4"/>
<rect x="4" y="28.4832" width="60" height="9.71617" rx="4.85809" fill="#895E3A" stroke="#1D1E19" stroke-width="4"/>
<path d="M61.7434 23.6252H6.34677C3.56514 23.6252 1.29111 32.429 11.6182 30.1407C12.5826 29.927 13.6091 30.2922 14.3005 30.9977C15.238 31.9542 16.7322 33.0977 18.5191 33.0977C21.5909 33.0977 23.3345 29.7186 26.4063 29.7186C29.4781 29.7186 30.849 33.0977 33.9209 33.0977C36.9927 33.0977 38.2399 29.769 41.3112 29.7186C44.4893 29.6665 45.71 33.1606 48.8879 33.0977C50.8019 33.0597 52.6617 31.7385 53.7815 30.7597C54.462 30.1648 55.4134 29.926 56.2906 30.1438C65.4612 32.4211 65.2928 23.6252 61.7434 23.6252Z" fill="#5DC27C" stroke="#1D1E19" stroke-width="4"/>
</svg>
