<svg width="279" height="596" viewBox="0 0 279 596" fill="none" xmlns="http://www.w3.org/2000/svg">
<g clip-path="url(#clip0_763_762)">
<rect width="279" height="596" fill="#F57B45"/>
<rect x="-10.6914" y="229.378" width="296.442" height="229.378" fill="#F57B45"/>
<rect x="35.8989" y="-2.3877" width="85.3388" height="85.3388" fill="#8AC636" stroke="#1D1E19" stroke-width="3"/>
<rect x="35.8989" y="162.511" width="85.3388" height="85.3388" fill="#8AC636" stroke="#1D1E19" stroke-width="3"/>
<rect x="35.8989" y="80.062" width="85.3388" height="85.3388" fill="#8AC636" stroke="#1D1E19" stroke-width="3"/>
<rect x="35.8989" y="244.961" width="85.3388" height="85.3388" fill="#8AC636" stroke="#1D1E19" stroke-width="3"/>
<rect x="-46.5513" y="-2.3877" width="85.3388" height="85.3388" fill="#8AC636" stroke="#1D1E19" stroke-width="3"/>
<rect x="-46.5508" y="162.511" width="85.3388" height="85.3388" fill="#8AC636" stroke="#1D1E19" stroke-width="3"/>
<rect x="-46.5508" y="80.062" width="85.3388" height="85.3388" fill="#8AC636" stroke="#1D1E19" stroke-width="3"/>
<rect x="-46.5508" y="244.961" width="85.3388" height="85.3388" fill="#8AC636" stroke="#1D1E19" stroke-width="3"/>
<rect x="118.349" y="-2.3877" width="85.3388" height="85.3388" fill="#8AC636" stroke="#1D1E19" stroke-width="3"/>
<rect x="118.349" y="162.511" width="85.3388" height="85.3388" fill="#8AC636" stroke="#1D1E19" stroke-width="3"/>
<rect x="118.349" y="80.062" width="85.3388" height="85.3388" fill="#8AC636" stroke="#1D1E19" stroke-width="3"/>
<rect x="118.349" y="244.961" width="85.3388" height="85.3388" fill="#8AC636" stroke="#1D1E19" stroke-width="3"/>
<rect x="200.798" y="-2.3877" width="85.3388" height="85.3388" fill="#8AC636" stroke="#1D1E19" stroke-width="3"/>
<rect x="200.798" y="162.511" width="85.3388" height="85.3388" fill="#8AC636" stroke="#1D1E19" stroke-width="3"/>
<rect x="200.798" y="80.062" width="85.3388" height="85.3388" fill="#8AC636" stroke="#1D1E19" stroke-width="3"/>
<rect x="200.798" y="244.961" width="85.3388" height="85.3388" fill="#8AC636" stroke="#1D1E19" stroke-width="3"/>
<path d="M319.419 398.474C319.519 399.643 319.523 400.869 319.419 402.138V460.18C282.984 481.924 132.657 474.637 123.724 445.488L123.724 413.699C121.263 407.788 132.93 402.29 137.241 398.474H319.419Z" fill="#F5C86D"/>
<path d="M319.419 398.474C320.987 416.888 298.834 449.436 207.381 439.975C152.433 434.291 128.086 424.175 123.724 413.699M319.419 398.474V460.18C282.984 481.924 132.657 474.637 123.724 445.488L123.724 413.699M319.419 398.474H137.241C132.93 402.29 121.263 407.788 123.724 413.699" stroke="#1D1E19" stroke-width="3"/>
<path d="M241.26 419.187C222.936 418.524 197.718 447.032 192.757 454.105L178.875 447.704L166.44 441.97L154.004 436.236C162.802 431.458 180.906 420.862 182.939 416.702C184.972 412.542 193.966 415.337 198.208 417.255L212.891 417.787C234.67 417.204 288.529 403.258 286.864 410.255C284.783 419 264.164 420.017 241.26 419.187Z" fill="#E30705"/>
<path d="M171.363 411.578C170.672 417.669 152.918 428.356 144.127 432.938L132.909 426.063L121.691 419.187C137.382 414.581 143.924 406.076 145.233 402.399L155.111 405.697L171.363 411.578Z" fill="#E30705"/>
<path d="M212.891 417.787C234.67 417.204 288.529 403.258 286.864 410.255C284.783 419 264.164 420.017 241.26 419.187C222.936 418.524 197.718 447.032 192.757 454.105L178.875 447.704M212.891 417.787L178.875 447.704M212.891 417.787L198.208 417.255M178.875 447.704L166.44 441.97M166.44 441.97L154.004 436.236C162.802 431.458 180.906 420.862 182.939 416.702C184.972 412.542 193.966 415.337 198.208 417.255M166.44 441.97L198.208 417.255M155.111 405.697L171.363 411.578C170.672 417.669 152.918 428.356 144.127 432.938L132.909 426.063M155.111 405.697C151.577 411.253 142.19 423.106 132.909 426.063M155.111 405.697L145.233 402.399C143.924 406.076 137.382 414.581 121.691 419.187L132.909 426.063" stroke="#1D1E19" stroke-width="3"/>
<path d="M134.302 411.991V385.546L300.026 390.835V411.991C271.348 437.849 177.594 422.765 134.302 411.991Z" fill="#895E3A" stroke="#1D1E19" stroke-width="3"/>
<path d="M140.179 389.072C106.329 384.37 123.724 369.091 136.653 362.039L291.211 371.441C292.779 383.783 294.972 408.7 291.211 409.64C287.45 410.58 272.798 402.98 265.941 399.062C256.735 394.361 235.5 387.073 224.217 395.536C210.112 406.114 201.885 411.403 186.605 406.114C177.651 403.014 182.492 394.948 140.179 389.072Z" fill="#F6CA45" stroke="#1D1E19" stroke-width="3"/>
<path d="M234.207 273.3C130.189 273.3 120.198 356.75 120.198 356.75C120.198 356.75 166.624 379.669 234.207 379.669C301.789 379.669 352.329 356.75 352.329 356.75C352.329 356.75 338.225 273.3 234.207 273.3Z" fill="#F5C86D" stroke="#1D1E19" stroke-width="3"/>
<circle cx="171.326" cy="351.461" r="4.11372" fill="#1D1E19"/>
<circle cx="147.819" cy="339.707" r="4.11372" fill="#1D1E19"/>
<circle cx="174.852" cy="319.726" r="4.11372" fill="#1D1E19"/>
<circle cx="197.184" cy="335.006" r="4.11372" fill="#1D1E19"/>
<circle cx="200.709" cy="296.219" r="4.11372" fill="#1D1E19"/>
<circle cx="219.515" cy="315.024" r="4.11372" fill="#1D1E19"/>
<circle cx="253.601" cy="296.219" r="4.11372" fill="#1D1E19"/>
<circle cx="243.022" cy="327.953" r="4.11372" fill="#1D1E19"/>
<circle cx="267.705" cy="332.655" r="4.11372" fill="#1D1E19"/>
<circle cx="232.444" cy="354.987" r="4.11372" fill="#1D1E19"/>
<circle cx="282.984" cy="356.162" r="4.11372" fill="#1D1E19"/>
<path d="M51.5607 149.219C51.5607 149.219 149.322 149.219 149.322 165.298C149.322 167.285 147.559 169.004 144.507 170.493L56.0629 265.92L57.1988 356.961C57.1988 356.961 99.798 356.545 99.798 374.327C99.798 389.763 51.5607 389.763 51.5607 389.763C51.5607 389.763 4.60975 389.763 4.60975 374.327C4.60975 356.6 47.0586 356.961 47.0586 356.961V265.92L-41.3857 170.493C-44.4376 169.004 -46.2002 167.285 -46.2002 165.298C-46.2002 150.506 51.5607 149.219 51.5607 149.219Z" fill="#F0E6D1"/>
<path d="M149.322 165.298C149.322 149.219 51.5607 149.219 51.5607 149.219C51.5607 149.219 -46.2002 150.506 -46.2002 165.298M149.322 165.298C149.322 180.091 51.5607 180.091 51.5607 180.091C51.5607 180.091 -46.2002 180.091 -46.2002 165.298M149.322 165.298L56.0629 265.92M-46.2002 165.298L47.0586 265.92M47.0586 370.468V356.961M47.0586 265.92L51.5607 270.777L56.0629 265.92M47.0586 265.92V356.961M56.0629 265.92L57.1988 356.961M57.3492 370.468L57.1988 356.961M47.0586 356.961C47.0586 356.961 4.60975 356.6 4.60975 374.327C4.60975 389.763 51.5607 389.763 51.5607 389.763C51.5607 389.763 99.798 389.763 99.798 374.327C99.798 356.545 57.1988 356.961 57.1988 356.961" stroke="#1D1E19" stroke-width="3"/>
<path d="M112.018 135.712L70.8555 224.469" stroke="#1D1E19" stroke-width="3"/>
<path d="M101.728 214.821C82.1754 200.929 64.4241 212.248 52.8472 214.821L79.2169 228.328L101.728 214.821Z" fill="#F57B45" stroke="#1D1E19" stroke-width="3"/>
<path d="M45.7722 210.963C21.0747 196.556 6.75355 209.248 2.68018 217.394L51.4052 269.916L105.431 212.675C95.5691 217.82 70.4697 225.37 45.7722 210.963Z" fill="#E30705" stroke="#1D1E19" stroke-width="3"/>
<path d="M166.5 543.256C166.5 562.9 155.865 580.799 138.441 593.839C121.018 606.88 96.8778 614.99 70.1498 614.99C43.4217 614.99 19.2819 606.88 1.85818 593.839C-15.5652 580.799 -26.2002 562.9 -26.2002 543.256C-26.2002 523.613 -15.5652 505.713 1.85818 492.673C19.2819 479.633 43.4217 471.522 70.1498 471.522C96.8778 471.522 121.018 479.633 138.441 492.673C155.865 505.713 166.5 523.613 166.5 543.256Z" fill="#FFE1BB" stroke="#1D1E19" stroke-width="3"/>
<path d="M-13.3268 559.042C-19.6891 554.429 -24.0771 547.765 -26.1993 542.946C-26.0882 523.424 -15.4736 505.645 1.85818 492.673C19.2819 479.633 43.4217 471.522 70.1497 471.522C96.8778 471.522 121.018 479.633 138.441 492.673C155.774 505.645 166.389 523.427 166.499 542.951C162.352 552.551 156.396 557.412 149.773 559.932C142.988 562.513 135.406 562.68 127.998 562.68C125.193 562.68 122.859 562.523 120.723 562.379C120.092 562.337 119.478 562.295 118.875 562.259C116.252 562.104 113.828 562.055 111.251 562.553C106.071 563.556 100.586 566.71 91.3221 574.739C82.4742 582.407 73.4181 583.551 65.7514 582.018C58.0081 580.469 51.6494 576.175 48.4403 572.966C48.0023 572.528 47.5384 571.92 46.9763 571.127C46.811 570.894 46.6361 570.643 46.4528 570.38C46.0405 569.789 45.5857 569.136 45.1015 568.486C43.6766 566.572 41.836 564.448 39.1917 562.768C33.8188 559.356 25.6006 558.061 11.8173 562.76C1.52118 566.27 -6.89954 563.703 -13.3268 559.042Z" fill="#66AEF4" stroke="#1D1E19" stroke-width="3"/>
<path d="M103.729 518.64C103.729 522.34 100.63 526.109 94.6539 529.043C88.7755 531.929 80.5493 533.756 71.3812 533.756C62.213 533.756 53.9868 531.929 48.1084 529.043C42.1322 526.109 39.0337 522.34 39.0337 518.64C39.0337 514.941 42.1322 511.171 48.1084 508.237C53.9868 505.352 62.213 503.524 71.3812 503.524C80.5493 503.524 88.7755 505.352 94.6539 508.237C100.63 511.171 103.729 514.941 103.729 518.64Z" fill="#F57B45" stroke="#1D1E19" stroke-width="3"/>
<rect x="64.6697" y="569.874" width="9.23113" height="1.84623" transform="rotate(-54.152 64.6697 569.874)" fill="#F0E6D1" stroke="#F6CA45" stroke-width="1.84623"/>
<rect x="54.8065" y="564.386" width="9.23113" height="1.84623" transform="rotate(-131.552 54.8065 564.386)" fill="#F0E6D1" stroke="#F6CA45" stroke-width="1.84623"/>
<rect x="63.4466" y="554.563" width="9.23113" height="1.84623" transform="rotate(-38.1506 63.4466 554.563)" fill="#F0E6D1" stroke="#F6CA45" stroke-width="1.84623"/>
<rect x="72.0776" y="542.833" width="9.23113" height="1.84623" transform="rotate(7.16806 72.0776 542.833)" fill="#F0E6D1" stroke="#F6CA45" stroke-width="1.84623"/>
<rect x="48.7554" y="540.41" width="9.23113" height="1.84623" transform="rotate(37.1728 48.7554 540.41)" fill="#F0E6D1" stroke="#F6CA45" stroke-width="1.84623"/>
<rect x="33.7196" y="553.241" width="9.23113" height="1.84623" transform="rotate(-13.1797 33.7196 553.241)" fill="#F0E6D1" stroke="#F6CA45" stroke-width="1.84623"/>
<rect x="21.7006" y="547.523" width="9.23113" height="1.84623" transform="rotate(-76.7799 21.7006 547.523)" fill="#F0E6D1" stroke="#F6CA45" stroke-width="1.84623"/>
<rect x="2.95014" y="552.241" width="9.23113" height="1.84623" transform="rotate(3.91955 2.95014 552.241)" fill="#F0E6D1" stroke="#F6CA45" stroke-width="1.84623"/>
<rect x="33.8385" y="534.093" width="9.23113" height="1.84623" transform="rotate(38.9403 33.8385 534.093)" fill="#F0E6D1" stroke="#F6CA45" stroke-width="1.84623"/>
<rect x="25.9472" y="519.586" width="9.23113" height="1.84623" transform="rotate(65.7468 25.9472 519.586)" fill="#F0E6D1" stroke="#F6CA45" stroke-width="1.84623"/>
<rect x="17.0463" y="518.109" width="9.23113" height="1.84623" transform="rotate(96.0137 17.0463 518.109)" fill="#F0E6D1" stroke="#F6CA45" stroke-width="1.84623"/>
<rect x="6.54302" y="527.513" width="9.23113" height="1.84623" transform="rotate(117.645 6.54302 527.513)" fill="#F0E6D1" stroke="#F6CA45" stroke-width="1.84623"/>
<rect x="-0.953091" y="517.746" width="9.23113" height="1.84623" transform="rotate(138.739 -0.953091 517.746)" fill="#F0E6D1" stroke="#F6CA45" stroke-width="1.84623"/>
<rect x="1.45406" y="545.107" width="9.23113" height="1.84623" transform="rotate(-161.383 1.45406 545.107)" fill="#F0E6D1" stroke="#F6CA45" stroke-width="1.84623"/>
<rect x="12.9882" y="512.815" width="9.23113" height="1.84623" transform="rotate(-161.383 12.9882 512.815)" fill="#F0E6D1" stroke="#F6CA45" stroke-width="1.84623"/>
<rect x="13.4711" y="497" width="9.23113" height="1.84623" transform="rotate(154.446 13.4711 497)" fill="#F0E6D1" stroke="#F6CA45" stroke-width="1.84623"/>
<rect x="24.295" y="495.615" width="9.23113" height="1.84623" transform="rotate(102.381 24.295 495.615)" fill="#F0E6D1" stroke="#F6CA45" stroke-width="1.84623"/>
<rect x="36.3949" y="505.174" width="9.23113" height="1.84623" transform="rotate(151.061 36.3949 505.174)" fill="#F0E6D1" stroke="#F6CA45" stroke-width="1.84623"/>
<rect x="45.5188" y="495.185" width="9.23113" height="1.84623" transform="rotate(167.992 45.5188 495.185)" fill="#F0E6D1" stroke="#F6CA45" stroke-width="1.84623"/>
<rect x="85.091" y="564.618" width="9.23113" height="1.84623" transform="rotate(-152.044 85.091 564.618)" fill="#F0E6D1" stroke="#F6CA45" stroke-width="1.84623"/>
<rect x="43.1275" y="486.468" width="9.23113" height="1.84623" transform="rotate(167.019 43.1275 486.468)" fill="#F0E6D1" stroke="#F6CA45" stroke-width="1.84623"/>
<rect x="62.5016" y="495.699" width="9.23113" height="1.84623" transform="rotate(-170.033 62.5016 495.699)" fill="#F0E6D1" stroke="#F6CA45" stroke-width="1.84623"/>
<rect x="76.0924" y="493.443" width="9.23113" height="1.84623" transform="rotate(-144.882 76.0924 493.443)" fill="#F0E6D1" stroke="#F6CA45" stroke-width="1.84623"/>
<rect x="96.7827" y="496.406" width="9.23113" height="1.84623" transform="rotate(-164.021 96.7827 496.406)" fill="#F0E6D1" stroke="#F6CA45" stroke-width="1.84623"/>
<rect x="110.321" y="507.481" width="9.23113" height="1.84623" transform="rotate(-114.767 110.321 507.481)" fill="#F0E6D1" stroke="#F6CA45" stroke-width="1.84623"/>
<rect x="54.8191" y="485.18" width="9.23113" height="1.84623" transform="rotate(-34.7095 54.8191 485.18)" fill="#F0E6D1" stroke="#F6CA45" stroke-width="1.84623"/>
<rect x="77.9733" y="482.335" width="9.23113" height="1.84623" transform="rotate(-8.7934 77.9733 482.335)" fill="#F0E6D1" stroke="#F6CA45" stroke-width="1.84623"/>
<rect x="93.9738" y="487.258" width="9.23113" height="1.84623" transform="rotate(-8.7934 93.9738 487.258)" fill="#F0E6D1" stroke="#F6CA45" stroke-width="1.84623"/>
<rect x="121.052" y="497.104" width="9.23113" height="1.84623" transform="rotate(-8.7934 121.052 497.104)" fill="#F0E6D1" stroke="#F6CA45" stroke-width="1.84623"/>
<rect x="94.2068" y="543.093" width="9.23113" height="1.84623" transform="rotate(-35.1845 94.2068 543.093)" fill="#F0E6D1" stroke="#F6CA45" stroke-width="1.84623"/>
<rect x="85.1908" y="553.348" width="9.23113" height="1.84623" transform="rotate(-9.50277 85.1908 553.348)" fill="#F0E6D1" stroke="#F6CA45" stroke-width="1.84623"/>
<rect x="109.075" y="548.581" width="9.23113" height="1.84623" transform="rotate(10.1051 109.075 548.581)" fill="#F0E6D1" stroke="#F6CA45" stroke-width="1.84623"/>
<rect x="113.133" y="530.418" width="9.23112" height="1.84623" transform="rotate(98.3342 113.133 530.418)" fill="#F0E6D1" stroke="#F6CA45" stroke-width="1.84623"/>
<rect x="114.958" y="521.772" width="9.23112" height="1.84623" transform="rotate(34.9837 114.958 521.772)" fill="#F0E6D1" stroke="#F6CA45" stroke-width="1.84623"/>
<rect x="117.587" y="515.901" width="9.23113" height="1.84623" transform="rotate(-56.2107 117.587 515.901)" fill="#F0E6D1" stroke="#F6CA45" stroke-width="1.84623"/>
<rect x="139.671" y="515.193" width="9.23112" height="1.84623" transform="rotate(-131.049 139.671 515.193)" fill="#F0E6D1" stroke="#F6CA45" stroke-width="1.84623"/>
<rect x="143.396" y="526.252" width="9.23112" height="1.84622" transform="rotate(-62.8727 143.396 526.252)" fill="#F0E6D1" stroke="#F6CA45" stroke-width="1.84623"/>
<rect x="152.745" y="540.08" width="9.23112" height="1.84623" transform="rotate(-151.451 152.745 540.08)" fill="#F0E6D1" stroke="#F6CA45" stroke-width="1.84623"/>
<rect x="126.634" y="547.422" width="9.23112" height="1.84623" transform="rotate(-128.062 126.634 547.422)" fill="#F0E6D1" stroke="#F6CA45" stroke-width="1.84623"/>
<rect x="135.602" y="530.189" width="9.23112" height="1.84623" transform="rotate(-128.062 135.602 530.189)" fill="#F0E6D1" stroke="#F6CA45" stroke-width="1.84623"/>
<rect x="135.237" y="551.621" width="9.23113" height="1.84623" transform="rotate(-58.9994 135.237 551.621)" fill="#F0E6D1" stroke="#F6CA45" stroke-width="1.84623"/>
</g>
<defs>
<clipPath id="clip0_763_762">
<rect width="279" height="596" fill="white"/>
</clipPath>
</defs>
</svg>
