<svg width="344" height="377" viewBox="0 0 344 377" fill="none" xmlns="http://www.w3.org/2000/svg">
<g clip-path="url(#clip0_645_2)">
<rect width="344" height="377" fill="#F57B45"/>
<rect x="-8.78442" y="188.466" width="243.569" height="188.466" fill="#F57B45"/>
<rect x="66.9455" y="-50.5302" width="71.124" height="71.124" fill="#C6DF79" stroke="#1D1E19" stroke-width="3.5707"/>
<rect x="66.9455" y="88.8998" width="71.124" height="71.124" fill="#C6DF79" stroke="#1D1E19" stroke-width="3.5707"/>
<rect x="66.9455" y="19.1849" width="71.124" height="71.124" fill="#C6DF79" stroke="#1D1E19" stroke-width="3.5707"/>
<rect x="66.9455" y="158.615" width="71.124" height="71.124" fill="#C6DF79" stroke="#1D1E19" stroke-width="3.5707"/>
<rect x="-2.76934" y="-50.5302" width="71.124" height="71.124" fill="#C6DF79" stroke="#1D1E19" stroke-width="3.5707"/>
<rect x="-2.76934" y="88.8998" width="71.124" height="71.124" fill="#C6DF79" stroke="#1D1E19" stroke-width="3.5707"/>
<rect x="-2.76934" y="19.1849" width="71.124" height="71.124" fill="#C6DF79" stroke="#1D1E19" stroke-width="3.5707"/>
<rect x="-2.76934" y="158.615" width="71.124" height="71.124" fill="#C6DF79" stroke="#1D1E19" stroke-width="3.5707"/>
<rect x="136.66" y="-50.5302" width="71.124" height="71.124" fill="#C6DF79" stroke="#1D1E19" stroke-width="3.5707"/>
<rect x="136.66" y="88.8998" width="71.124" height="71.124" fill="#C6DF79" stroke="#1D1E19" stroke-width="3.5707"/>
<rect x="136.66" y="19.1849" width="71.124" height="71.124" fill="#C6DF79" stroke="#1D1E19" stroke-width="3.5707"/>
<rect x="136.66" y="158.615" width="71.124" height="71.124" fill="#C6DF79" stroke="#1D1E19" stroke-width="3.5707"/>
<rect x="206.376" y="-50.5302" width="71.124" height="71.124" fill="#C6DF79" stroke="#1D1E19" stroke-width="3.5707"/>
<rect x="206.376" y="88.8998" width="71.124" height="71.124" fill="#C6DF79" stroke="#1D1E19" stroke-width="3.5707"/>
<rect x="206.376" y="19.1849" width="71.124" height="71.124" fill="#C6DF79" stroke="#1D1E19" stroke-width="3.5707"/>
<rect x="206.376" y="158.615" width="71.124" height="71.124" fill="#C6DF79" stroke="#1D1E19" stroke-width="3.5707"/>
<rect x="276.091" y="-50.5302" width="71.124" height="71.124" fill="#C6DF79" stroke="#1D1E19" stroke-width="3.5707"/>
<rect x="276.091" y="88.8998" width="71.124" height="71.124" fill="#C6DF79" stroke="#1D1E19" stroke-width="3.5707"/>
<rect x="276.091" y="19.1849" width="71.124" height="71.124" fill="#C6DF79" stroke="#1D1E19" stroke-width="3.5707"/>
<rect x="276.091" y="158.615" width="71.124" height="71.124" fill="#C6DF79" stroke="#1D1E19" stroke-width="3.5707"/>
<path d="M372.068 237.529C372.157 238.574 372.161 239.67 372.068 240.804V292.683C339.501 312.118 205.136 305.605 197.151 279.551L197.151 251.137C194.952 245.853 205.38 240.939 209.233 237.529H372.068Z" fill="#F5C86D"/>
<path d="M372.068 237.529C373.469 253.987 353.669 283.079 271.925 274.623C222.812 269.543 201.05 260.501 197.151 251.137M372.068 237.529V292.683C339.501 312.118 205.136 305.605 197.151 279.551L197.151 251.137M372.068 237.529H209.233C205.38 240.939 194.952 245.853 197.151 251.137" stroke="#1D1E19" stroke-width="3.5"/>
<path d="M302.207 256.043C285.829 255.449 263.288 280.931 258.854 287.253L246.447 281.532L235.332 276.406L224.216 271.281C232.08 267.01 248.262 257.54 250.079 253.821C251.895 250.103 259.935 252.601 263.727 254.316L276.85 254.791C296.317 254.27 344.457 241.805 342.969 248.058C341.109 255.875 322.679 256.784 302.207 256.043Z" fill="#E30705"/>
<path d="M239.732 249.241C239.115 254.685 223.245 264.237 215.388 268.333L205.361 262.188L195.334 256.043C209.359 251.925 215.206 244.323 216.377 241.037L225.205 243.984L239.732 249.241Z" fill="#E30705"/>
<path d="M276.85 254.791C296.317 254.27 344.457 241.805 342.969 248.058C341.109 255.875 322.679 256.784 302.207 256.043C285.829 255.449 263.288 280.931 258.854 287.253L246.447 281.532M276.85 254.791L246.447 281.532M276.85 254.791L263.727 254.316M246.447 281.532L235.332 276.406M235.332 276.406L224.216 271.281C232.08 267.01 248.262 257.54 250.079 253.821C251.895 250.103 259.935 252.601 263.727 254.316M235.332 276.406L263.727 254.316M225.205 243.984L239.732 249.241C239.115 254.685 223.245 264.237 215.388 268.333L205.361 262.188M225.205 243.984C222.047 248.951 213.656 259.545 205.361 262.188M225.205 243.984L216.377 241.037C215.206 244.323 209.359 251.925 195.334 256.043L205.361 262.188" stroke="#1D1E19" stroke-width="3.5"/>
<path d="M206.607 249.61V225.973L354.734 230.7V249.61C329.101 272.722 245.302 259.24 206.607 249.61Z" fill="#895E3A" stroke="#1D1E19" stroke-width="3.5"/>
<path d="M211.859 229.124C181.603 224.922 197.152 211.265 208.708 204.962L346.855 213.366C348.256 224.397 350.217 246.669 346.855 247.509C343.493 248.35 330.396 241.556 324.268 238.054C316.039 233.852 297.059 227.339 286.974 234.903C274.367 244.357 267.013 249.085 253.356 244.357C245.352 241.587 249.679 234.377 211.859 229.124Z" fill="#F6CA45" stroke="#1D1E19" stroke-width="3.5"/>
<path d="M295.904 125.645C202.93 125.645 194 200.234 194 200.234C194 200.234 235.497 220.72 295.904 220.72C356.31 220.72 401.484 200.234 401.484 200.234C401.484 200.234 388.877 125.645 295.904 125.645Z" fill="#F5C86D" stroke="#1D1E19" stroke-width="3.5"/>
<circle cx="239.699" cy="195.507" r="3.67693" fill="#1D1E19"/>
<circle cx="218.688" cy="185.001" r="3.67693" fill="#1D1E19"/>
<circle cx="242.851" cy="167.142" r="3.67693" fill="#1D1E19"/>
<circle cx="262.811" cy="180.799" r="3.67693" fill="#1D1E19"/>
<circle cx="265.963" cy="146.131" r="3.67693" fill="#1D1E19"/>
<circle cx="282.771" cy="162.94" r="3.67693" fill="#1D1E19"/>
<circle cx="313.237" cy="146.131" r="3.67693" fill="#1D1E19"/>
<circle cx="303.783" cy="174.496" r="3.67693" fill="#1D1E19"/>
<circle cx="325.844" cy="178.698" r="3.67693" fill="#1D1E19"/>
<circle cx="294.328" cy="198.658" r="3.67693" fill="#1D1E19"/>
<circle cx="339.501" cy="199.709" r="3.67693" fill="#1D1E19"/>
<path d="M124.023 70.1925C124.023 70.1925 210 70.1926 210 84.3335C210 86.0804 208.45 87.5927 205.766 88.9019L127.982 172.826L128.981 252.894C128.981 252.894 166.446 252.528 166.446 268.166C166.446 281.741 124.023 281.741 124.023 281.741C124.023 281.741 82.7313 281.741 82.7313 268.166C82.7313 252.576 120.063 252.894 120.063 252.894V172.826L42.2801 88.9019C39.5961 87.5927 38.0459 86.0803 38.0459 84.3335C38.0459 71.3238 124.023 70.1925 124.023 70.1925Z" fill="#F0E6D1"/>
<path d="M210 84.3335C210 70.1926 124.023 70.1925 124.023 70.1925C124.023 70.1925 38.0459 71.3238 38.0459 84.3335M210 84.3335C210 97.3432 124.023 97.3432 124.023 97.3432C124.023 97.3432 38.0459 97.3432 38.0459 84.3335M210 84.3335L127.982 172.826M38.0459 84.3335L120.063 172.826M120.063 264.772V252.894M120.063 172.826L124.023 177.098L127.982 172.826M120.063 172.826V252.894M127.982 172.826L128.981 252.894M129.114 264.772L128.981 252.894M120.063 252.894C120.063 252.894 82.7313 252.576 82.7313 268.166C82.7313 281.741 124.023 281.741 124.023 281.741C124.023 281.741 166.446 281.741 166.446 268.166C166.446 252.528 128.981 252.894 128.981 252.894" stroke="#1D1E19" stroke-width="3.5"/>
<path d="M177.193 58.3141L140.992 136.372" stroke="#1D1E19" stroke-width="3.5"/>
<path d="M168.143 127.887C150.947 115.67 135.336 125.625 125.154 127.887L148.345 139.766L168.143 127.887Z" fill="#B8E5F8" stroke="#1D1E19" stroke-width="3.5"/>
<path d="M118.932 124.493C97.2117 111.823 84.6168 122.985 81.0344 130.15L123.886 176.341L171.4 125.999C162.727 130.524 140.653 137.164 118.932 124.493Z" fill="#66AEF4" stroke="#1D1E19" stroke-width="3.5"/>
<path d="M136.25 326.743C136.25 343.704 127.068 359.195 111.956 370.505C96.8432 381.816 75.8846 388.864 52.6597 388.864C29.4348 388.864 8.47618 381.816 -6.63647 370.505C-21.7487 359.195 -30.9307 343.704 -30.9307 326.743C-30.9307 309.781 -21.7487 294.29 -6.63647 282.98C8.47618 271.669 29.4348 264.622 52.6597 264.622C75.8846 264.622 96.8432 271.669 111.956 282.98C127.068 294.29 136.25 309.781 136.25 326.743Z" fill="#FFE1BB" stroke="#1D1E19" stroke-width="3.5"/>
<path d="M-19.8855 340.153C-25.3198 336.213 -29.0884 330.521 -30.9293 326.381C-30.7996 309.561 -21.6411 294.21 -6.63647 282.98C8.47618 271.669 29.4348 264.622 52.6597 264.622C75.8846 264.622 96.8432 271.669 111.956 282.98C126.962 294.211 136.121 309.564 136.249 326.386C132.68 334.596 127.589 338.727 121.947 340.873C116.115 343.092 109.58 343.242 103.112 343.242C100.682 343.242 98.6658 343.106 96.8048 342.981C96.2523 342.943 95.7136 342.907 95.1818 342.876C92.8857 342.74 90.7261 342.693 88.4223 343.139C83.7833 344.037 78.9257 346.856 70.8359 353.867C63.232 360.457 55.4759 361.429 48.9103 360.115C42.2552 358.784 36.7851 355.089 34.038 352.342C33.6848 351.989 33.2988 351.486 32.8092 350.795C32.6688 350.597 32.5184 350.381 32.3598 350.154C31.9985 349.635 31.5946 349.056 31.168 348.483C29.9103 346.794 28.2673 344.893 25.8963 343.387C21.056 340.313 13.7352 339.213 1.64222 343.335C-7.18007 346.343 -14.3762 344.148 -19.8855 340.153Z" fill="#F49EB7" stroke="#1D1E19" stroke-width="3.5"/>
<path d="M81.5031 305.273C81.5031 308.238 79.0039 311.413 73.8357 313.95C68.7814 316.431 61.6763 318.015 53.7329 318.015C45.7895 318.015 38.6843 316.431 33.6301 313.95C28.4618 311.413 25.9626 308.238 25.9626 305.273C25.9626 302.308 28.4618 299.134 33.6301 296.597C38.6843 294.116 45.7895 292.532 53.7329 292.532C61.6763 292.532 68.7814 294.116 73.8357 296.597C79.0039 299.134 81.5031 302.308 81.5031 305.273Z" fill="#F57B45" stroke="#1D1E19" stroke-width="3.5"/>
<rect x="47.8797" y="349.958" width="8.05097" height="1.6102" transform="rotate(-54.152 47.8797 349.958)" fill="#F0E6D1" stroke="#B8E5F8" stroke-width="1.6102"/>
<rect x="39.2767" y="345.17" width="8.05097" height="1.6102" transform="rotate(-131.552 39.2767 345.17)" fill="#F0E6D1" stroke="#B8E5F8" stroke-width="1.6102"/>
<rect x="46.8123" y="336.604" width="8.05097" height="1.6102" transform="rotate(-38.1506 46.8123 336.604)" fill="#F0E6D1" stroke="#B8E5F8" stroke-width="1.6102"/>
<rect x="54.3402" y="326.373" width="8.05097" height="1.6102" transform="rotate(7.16806 54.3402 326.373)" fill="#F0E6D1" stroke="#B8E5F8" stroke-width="1.6102"/>
<rect x="33.9993" y="324.259" width="8.05097" height="1.6102" transform="rotate(37.1728 33.9993 324.259)" fill="#F0E6D1" stroke="#B8E5F8" stroke-width="1.6102"/>
<rect x="20.8862" y="335.45" width="8.05097" height="1.6102" transform="rotate(-13.1797 20.8862 335.45)" fill="#F0E6D1" stroke="#B8E5F8" stroke-width="1.6102"/>
<rect x="10.4032" y="330.463" width="8.05097" height="1.6102" transform="rotate(-76.7799 10.4032 330.463)" fill="#F0E6D1" stroke="#B8E5F8" stroke-width="1.6102"/>
<rect x="-5.94982" y="334.579" width="8.05097" height="1.6102" transform="rotate(3.91955 -5.94982 334.579)" fill="#F0E6D1" stroke="#B8E5F8" stroke-width="1.6102"/>
<rect x="20.9893" y="318.75" width="8.05097" height="1.6102" transform="rotate(38.9403 20.9893 318.75)" fill="#F0E6D1" stroke="#B8E5F8" stroke-width="1.6102"/>
<rect x="14.1074" y="306.098" width="8.05097" height="1.61019" transform="rotate(65.7468 14.1074 306.098)" fill="#F0E6D1" stroke="#B8E5F8" stroke-width="1.6102"/>
<rect x="6.34423" y="304.81" width="8.05097" height="1.61019" transform="rotate(96.0137 6.34423 304.81)" fill="#F0E6D1" stroke="#B8E5F8" stroke-width="1.6102"/>
<rect x="2.80508" y="300.192" width="8.05097" height="1.61019" transform="rotate(-161.383 2.80508 300.192)" fill="#F0E6D1" stroke="#B8E5F8" stroke-width="1.6102"/>
<rect x="3.22618" y="286.399" width="8.05097" height="1.61019" transform="rotate(154.446 3.22618 286.399)" fill="#F0E6D1" stroke="#B8E5F8" stroke-width="1.6102"/>
<rect x="12.6658" y="285.192" width="8.05097" height="1.61019" transform="rotate(102.381 12.6658 285.192)" fill="#F0E6D1" stroke="#B8E5F8" stroke-width="1.6102"/>
<rect x="23.2193" y="293.528" width="8.05097" height="1.61019" transform="rotate(151.061 23.2193 293.528)" fill="#F0E6D1" stroke="#B8E5F8" stroke-width="1.6102"/>
<rect x="31.1769" y="284.817" width="8.05097" height="1.61019" transform="rotate(167.992 31.1769 284.817)" fill="#F0E6D1" stroke="#B8E5F8" stroke-width="1.6102"/>
<rect x="65.6897" y="345.373" width="8.05097" height="1.61019" transform="rotate(-152.044 65.6897 345.373)" fill="#F0E6D1" stroke="#B8E5F8" stroke-width="1.6102"/>
<rect x="29.0908" y="277.214" width="8.05097" height="1.61019" transform="rotate(167.019 29.0908 277.214)" fill="#F0E6D1" stroke="#B8E5F8" stroke-width="1.6102"/>
<rect x="45.9885" y="285.264" width="8.05097" height="1.61019" transform="rotate(-170.033 45.9885 285.264)" fill="#F0E6D1" stroke="#B8E5F8" stroke-width="1.6102"/>
<rect x="57.8415" y="283.296" width="8.05097" height="1.61019" transform="rotate(-144.882 57.8415 283.296)" fill="#F0E6D1" stroke="#B8E5F8" stroke-width="1.6102"/>
<rect x="75.8864" y="285.881" width="8.05097" height="1.61019" transform="rotate(-164.021 75.8864 285.881)" fill="#F0E6D1" stroke="#B8E5F8" stroke-width="1.6102"/>
<rect x="87.6938" y="295.541" width="8.05097" height="1.61019" transform="rotate(-114.767 87.6938 295.541)" fill="#F0E6D1" stroke="#B8E5F8" stroke-width="1.6102"/>
<rect x="39.2877" y="276.09" width="8.05097" height="1.61019" transform="rotate(-34.7095 39.2877 276.09)" fill="#F0E6D1" stroke="#B8E5F8" stroke-width="1.6102"/>
<rect x="59.4822" y="273.609" width="8.05097" height="1.61019" transform="rotate(-8.7934 59.4822 273.609)" fill="#F0E6D1" stroke="#B8E5F8" stroke-width="1.6102"/>
<rect x="73.4373" y="277.903" width="8.05097" height="1.61019" transform="rotate(-8.7934 73.4373 277.903)" fill="#F0E6D1" stroke="#B8E5F8" stroke-width="1.6102"/>
<rect x="97.0532" y="286.49" width="8.05097" height="1.61019" transform="rotate(-8.7934 97.0532 286.49)" fill="#F0E6D1" stroke="#B8E5F8" stroke-width="1.6102"/>
<rect x="73.6405" y="326.6" width="8.05097" height="1.61019" transform="rotate(-35.1845 73.6405 326.6)" fill="#F0E6D1" stroke="#B8E5F8" stroke-width="1.6102"/>
<rect x="65.7768" y="335.543" width="8.05097" height="1.61019" transform="rotate(-9.50277 65.7768 335.543)" fill="#F0E6D1" stroke="#B8E5F8" stroke-width="1.6102"/>
<rect x="86.6081" y="331.387" width="8.05097" height="1.61019" transform="rotate(10.1051 86.6081 331.387)" fill="#F0E6D1" stroke="#B8E5F8" stroke-width="1.6102"/>
<rect x="90.1468" y="315.545" width="8.05097" height="1.61019" transform="rotate(98.3342 90.1468 315.545)" fill="#F0E6D1" stroke="#B8E5F8" stroke-width="1.6102"/>
<rect x="91.7381" y="308.005" width="8.05097" height="1.61019" transform="rotate(34.9837 91.7381 308.005)" fill="#F0E6D1" stroke="#B8E5F8" stroke-width="1.6102"/>
<rect x="94.0309" y="302.884" width="8.05097" height="1.61019" transform="rotate(-56.2107 94.0309 302.884)" fill="#F0E6D1" stroke="#B8E5F8" stroke-width="1.6102"/>
<rect x="113.292" y="302.267" width="8.05097" height="1.61019" transform="rotate(-131.049 113.292 302.267)" fill="#F0E6D1" stroke="#B8E5F8" stroke-width="1.6102"/>
<rect x="116.54" y="311.912" width="8.05097" height="1.61019" transform="rotate(-62.8727 116.54 311.912)" fill="#F0E6D1" stroke="#B8E5F8" stroke-width="1.6102"/>
<rect x="124.694" y="323.972" width="8.05097" height="1.61019" transform="rotate(-151.451 124.694 323.972)" fill="#F0E6D1" stroke="#B8E5F8" stroke-width="1.6102"/>
<rect x="101.922" y="330.374" width="8.05097" height="1.61019" transform="rotate(-128.062 101.922 330.374)" fill="#F0E6D1" stroke="#B8E5F8" stroke-width="1.6102"/>
<rect x="109.742" y="315.345" width="8.05097" height="1.61019" transform="rotate(-128.062 109.742 315.345)" fill="#F0E6D1" stroke="#B8E5F8" stroke-width="1.6102"/>
<rect x="109.425" y="334.038" width="8.05097" height="1.61019" transform="rotate(-58.9994 109.425 334.038)" fill="#F0E6D1" stroke="#B8E5F8" stroke-width="1.6102"/>
</g>
<defs>
<clipPath id="clip0_645_2">
<rect width="344" height="377" fill="white"/>
</clipPath>
</defs>
</svg>
