<svg width="278" height="499" viewBox="0 0 278 499" fill="none" xmlns="http://www.w3.org/2000/svg">
<g clip-path="url(#clip0_283_4948)">
<rect width="278" height="499" fill="#F57B45"/>
<rect x="-11" y="236" width="305" height="236" fill="#F57B45"/>
<rect x="40.5" y="-3.5" width="70" height="70" fill="#8AC636" stroke="#1D1E19" stroke-width="5"/>
<rect x="40.5" y="136.5" width="70" height="70" fill="#8AC636" stroke="#1D1E19" stroke-width="5"/>
<rect x="40.5" y="66.5" width="70" height="70" fill="#8AC636" stroke="#1D1E19" stroke-width="5"/>
<rect x="40.5" y="206.5" width="70" height="70" fill="#8AC636" stroke="#1D1E19" stroke-width="5"/>
<rect x="-29.5" y="-3.5" width="70" height="70" fill="#8AC636" stroke="#1D1E19" stroke-width="5"/>
<rect x="-29.5" y="136.5" width="70" height="70" fill="#8AC636" stroke="#1D1E19" stroke-width="5"/>
<rect x="-29.5" y="66.5" width="70" height="70" fill="#8AC636" stroke="#1D1E19" stroke-width="5"/>
<rect x="-29.5" y="206.5" width="70" height="70" fill="#8AC636" stroke="#1D1E19" stroke-width="5"/>
<rect x="110.5" y="-3.5" width="70" height="70" fill="#8AC636" stroke="#1D1E19" stroke-width="5"/>
<rect x="110.5" y="136.5" width="70" height="70" fill="#8AC636" stroke="#1D1E19" stroke-width="5"/>
<rect x="110.5" y="66.5" width="70" height="70" fill="#8AC636" stroke="#1D1E19" stroke-width="5"/>
<rect x="110.5" y="206.5" width="70" height="70" fill="#8AC636" stroke="#1D1E19" stroke-width="5"/>
<rect x="180.5" y="-3.5" width="70" height="70" fill="#8AC636" stroke="#1D1E19" stroke-width="5"/>
<rect x="180.5" y="136.5" width="70" height="70" fill="#8AC636" stroke="#1D1E19" stroke-width="5"/>
<rect x="180.5" y="66.5" width="70" height="70" fill="#8AC636" stroke="#1D1E19" stroke-width="5"/>
<rect x="180.5" y="206.5" width="70" height="70" fill="#8AC636" stroke="#1D1E19" stroke-width="5"/>
<rect x="250.5" y="-3.5" width="70" height="70" fill="#8AC636" stroke="#1D1E19" stroke-width="5"/>
<rect x="250.5" y="136.5" width="70" height="70" fill="#8AC636" stroke="#1D1E19" stroke-width="5"/>
<rect x="250.5" y="66.5" width="70" height="70" fill="#8AC636" stroke="#1D1E19" stroke-width="5"/>
<rect x="250.5" y="206.5" width="70" height="70" fill="#8AC636" stroke="#1D1E19" stroke-width="5"/>
<path d="M330.262 314.694C330.367 315.928 330.371 317.222 330.262 318.561V379.827C291.802 402.779 133.125 395.087 123.696 364.319L123.696 330.764C121.099 324.524 133.414 318.721 137.964 314.694H330.262Z" fill="#F5C86D"/>
<path d="M330.262 314.694C331.916 334.13 308.534 368.486 212 358.5C154 352.5 128.301 341.823 123.696 330.764M330.262 314.694V379.827C291.802 402.779 133.125 395.087 123.696 364.319L123.696 330.764M330.262 314.694H137.964C133.414 318.721 121.099 324.524 123.696 330.764" stroke="#1D1E19" stroke-width="5"/>
<path d="M247.76 336.557C228.419 335.857 201.799 365.949 196.563 373.415L181.91 366.658L168.784 360.606L155.658 354.553C164.945 349.51 184.054 338.325 186.2 333.934C188.345 329.542 197.839 332.493 202.317 334.518L217.815 335.079C240.804 334.464 297.654 319.743 295.897 327.128C293.701 336.36 271.936 337.433 247.76 336.557Z" fill="#E30705"/>
<path d="M173.981 328.526C173.252 334.955 154.511 346.235 145.232 351.071L133.391 343.814L121.549 336.557C138.113 331.695 145.018 322.717 146.4 318.836L156.826 322.317L173.981 328.526Z" fill="#E30705"/>
<path d="M217.815 335.079C240.804 334.464 297.654 319.743 295.897 327.128C293.701 336.36 271.936 337.433 247.76 336.557C228.419 335.857 201.799 365.949 196.563 373.415L181.91 366.658M217.815 335.079L181.91 366.658M217.815 335.079L202.317 334.518M181.91 366.658L168.784 360.606M168.784 360.606L155.658 354.553C164.945 349.51 184.054 338.325 186.2 333.934C188.345 329.542 197.839 332.493 202.317 334.518M168.784 360.606L202.317 334.518M156.826 322.317L173.981 328.526C173.252 334.955 154.511 346.235 145.232 351.071L133.391 343.814M156.826 322.317C153.096 328.183 143.187 340.693 133.391 343.814M156.826 322.317L146.4 318.836C145.018 322.717 138.113 331.695 121.549 336.557L133.391 343.814" stroke="#1D1E19" stroke-width="5"/>
<path d="M134.862 328.961V301.047L309.792 306.63V328.961C279.52 356.255 180.559 340.334 134.862 328.961Z" fill="#895E3A" stroke="#1D1E19" stroke-width="5"/>
<path d="M141.065 304.769C105.335 299.806 123.696 283.678 137.343 276.234L300.487 286.159C302.141 299.186 304.457 325.487 300.487 326.48C296.517 327.472 281.05 319.45 273.813 315.314C264.095 310.352 241.681 302.66 229.771 311.592C214.883 322.758 206.199 328.341 190.07 322.758C180.618 319.486 185.728 310.972 141.065 304.769Z" fill="#F6CA45" stroke="#1D1E19" stroke-width="5"/>
<path d="M240.316 182.566C130.52 182.567 119.975 270.651 119.975 270.651C119.975 270.651 168.98 294.844 240.316 294.844C311.653 294.844 365 270.651 365 270.651C365 270.651 350.112 182.566 240.316 182.566Z" fill="#F5C86D" stroke="#1D1E19" stroke-width="5"/>
<circle cx="173.942" cy="265.069" r="4.34222" fill="#1D1E19"/>
<circle cx="149.129" cy="252.662" r="4.34222" fill="#1D1E19"/>
<circle cx="177.664" cy="231.571" r="4.34222" fill="#1D1E19"/>
<circle cx="201.236" cy="247.7" r="4.34222" fill="#1D1E19"/>
<circle cx="204.958" cy="206.759" r="4.34222" fill="#1D1E19"/>
<circle cx="224.808" cy="226.609" r="4.34222" fill="#1D1E19"/>
<circle cx="260.787" cy="206.759" r="4.34222" fill="#1D1E19"/>
<circle cx="249.621" cy="240.256" r="4.34222" fill="#1D1E19"/>
<circle cx="275.674" cy="245.218" r="4.34222" fill="#1D1E19"/>
<circle cx="238.455" cy="268.79" r="4.34222" fill="#1D1E19"/>
<path d="M61.7882 107.027C61.7882 107.027 156.076 107.027 156.076 122.535C156.076 124.45 154.376 126.109 151.433 127.545L66.1304 219.582L67.226 307.389C67.226 307.389 108.312 306.988 108.312 324.138C108.312 339.025 61.7882 339.025 61.7882 339.025C61.7882 339.025 16.505 339.025 16.505 324.138C16.505 307.041 57.446 307.389 57.446 307.389V219.582L-27.8565 127.545C-30.8 126.109 -32.5 124.45 -32.5 122.535C-32.5 108.267 61.7882 107.027 61.7882 107.027Z" fill="#F0E6D1"/>
<path d="M156.076 122.535C156.076 107.027 61.7882 107.027 61.7882 107.027C61.7882 107.027 -32.5 108.267 -32.5 122.535M156.076 122.535C156.076 136.802 61.7882 136.802 61.7882 136.802C61.7882 136.802 -32.5 136.802 -32.5 122.535M156.076 122.535L66.1304 219.582M-32.5 122.535L57.446 219.582M57.446 320.416V307.389M57.446 219.582L61.7882 224.267L66.1304 219.582M57.446 219.582V307.389M66.1304 219.582L67.226 307.389M67.371 320.416L67.226 307.389M57.446 307.389C57.446 307.389 16.505 307.041 16.505 324.138C16.505 339.025 61.7882 339.025 61.7882 339.025C61.7882 339.025 108.312 339.025 108.312 324.138C108.312 306.988 67.226 307.389 67.226 307.389" stroke="#1D1E19" stroke-width="5"/>
<path d="M120.098 94L80.3975 179.604" stroke="#1D1E19" stroke-width="5"/>
<path d="M110.173 170.299C91.3153 156.9 74.1945 167.817 63.0288 170.298L88.4618 183.325L110.173 170.299Z" fill="#F57B45" stroke="#1D1E19" stroke-width="5"/>
<path d="M56.2053 166.577C32.3851 152.682 18.5727 164.923 14.644 172.78L61.6382 223.436L113.745 168.228C104.233 173.191 80.0255 180.472 56.2053 166.577Z" fill="#E30705" stroke="#1D1E19" stroke-width="5"/>
<path d="M162.603 445.367C162.603 464.785 152.092 482.558 134.717 495.562C117.341 508.567 93.2213 516.684 66.4727 516.684C39.7241 516.684 15.6043 508.567 -1.77155 495.562C-19.1468 482.558 -29.6577 464.785 -29.6577 445.367C-29.6577 425.948 -19.1468 408.175 -1.77155 395.171C15.6043 382.166 39.7241 374.049 66.4727 374.049C93.2213 374.049 117.341 382.166 134.717 395.171C152.092 408.175 162.603 425.948 162.603 445.367Z" fill="#FFE1BB" stroke="#1D1E19" stroke-width="5"/>
<path d="M-17.0897 460.479C-23.2469 456.014 -27.5389 449.566 -29.6552 444.848C-29.47 425.632 -18.9921 408.059 -1.77155 395.171C15.6043 382.166 39.7241 374.049 66.4727 374.049C93.2213 374.049 117.341 382.166 134.717 395.171C151.94 408.061 162.418 425.637 162.601 444.857C158.528 454.168 152.757 458.826 146.38 461.252C139.733 463.781 132.265 463.957 124.782 463.957C121.992 463.957 119.682 463.802 117.533 463.657C116.892 463.614 116.266 463.572 115.645 463.535C112.983 463.377 110.438 463.321 107.714 463.848C102.222 464.911 96.527 468.242 87.1668 476.354C78.5007 483.865 69.6904 484.96 62.2331 483.468C54.6479 481.951 48.4077 477.734 45.2887 474.615C44.9116 474.238 44.4855 473.685 43.9205 472.888C43.7621 472.665 43.5906 472.419 43.4087 472.158C42.9894 471.557 42.5146 470.876 42.0171 470.207C40.5473 468.234 38.6076 465.985 35.7975 464.2C30.0366 460.541 21.4102 459.3 7.3562 464.091C-2.66967 467.509 -10.8264 465.021 -17.0897 460.479Z" fill="#66AEF4" stroke="#1D1E19" stroke-width="5"/>
<path d="M99.3306 420.554C99.3306 423.698 96.6618 427.244 90.7361 430.153C84.9733 432.982 76.8367 434.803 67.7131 434.803C58.5895 434.803 50.4529 432.982 44.6902 430.153C38.7645 427.244 36.0957 423.698 36.0957 420.554C36.0957 417.41 38.7645 413.864 44.6902 410.955C50.4529 408.126 58.5895 406.305 67.7131 406.305C76.8367 406.305 84.9733 408.126 90.7361 410.955C96.6618 413.864 99.3306 417.41 99.3306 420.554Z" fill="#F57B45" stroke="#1D1E19" stroke-width="5"/>
<rect x="60.9481" y="472.197" width="9.30475" height="1.86095" transform="rotate(-54.152 60.9481 472.197)" fill="#F0E6D1" stroke="#F6CA45" stroke-width="1.86095"/>
<rect x="51.0064" y="466.664" width="9.30475" height="1.86095" transform="rotate(-131.552 51.0064 466.664)" fill="#F0E6D1" stroke="#F6CA45" stroke-width="1.86095"/>
<rect x="59.7152" y="456.763" width="9.30475" height="1.86095" transform="rotate(-38.1506 59.7152 456.763)" fill="#F0E6D1" stroke="#F6CA45" stroke-width="1.86095"/>
<rect x="68.4155" y="444.939" width="9.30475" height="1.86095" transform="rotate(7.16806 68.4155 444.939)" fill="#F0E6D1" stroke="#F6CA45" stroke-width="1.86095"/>
<rect x="44.9067" y="442.497" width="9.30475" height="1.86095" transform="rotate(37.1728 44.9067 442.497)" fill="#F0E6D1" stroke="#F6CA45" stroke-width="1.86095"/>
<rect x="29.7514" y="455.43" width="9.30475" height="1.86095" transform="rotate(-13.1797 29.7514 455.43)" fill="#F0E6D1" stroke="#F6CA45" stroke-width="1.86095"/>
<rect x="17.6362" y="449.667" width="9.30475" height="1.86095" transform="rotate(-76.7799 17.6362 449.667)" fill="#F0E6D1" stroke="#F6CA45" stroke-width="1.86095"/>
<rect x="-1.26372" y="454.423" width="9.30475" height="1.86095" transform="rotate(3.91955 -1.26372 454.423)" fill="#F0E6D1" stroke="#F6CA45" stroke-width="1.86095"/>
<rect x="29.8708" y="436.13" width="9.30475" height="1.86095" transform="rotate(38.9403 29.8708 436.13)" fill="#F0E6D1" stroke="#F6CA45" stroke-width="1.86095"/>
<rect x="21.9167" y="421.506" width="9.30475" height="1.86095" transform="rotate(65.7468 21.9167 421.506)" fill="#F0E6D1" stroke="#F6CA45" stroke-width="1.86095"/>
<rect x="12.9454" y="420.018" width="9.30475" height="1.86095" transform="rotate(96.0137 12.9454 420.018)" fill="#F0E6D1" stroke="#F6CA45" stroke-width="1.86095"/>
<rect x="2.35779" y="429.497" width="9.30475" height="1.86095" transform="rotate(117.645 2.35779 429.497)" fill="#F0E6D1" stroke="#F6CA45" stroke-width="1.86095"/>
<rect x="8.85471" y="414.681" width="9.30475" height="1.86095" transform="rotate(-161.383 8.85471 414.681)" fill="#F0E6D1" stroke="#F6CA45" stroke-width="1.86095"/>
<rect x="9.34169" y="398.74" width="9.30475" height="1.86095" transform="rotate(154.446 9.34169 398.74)" fill="#F0E6D1" stroke="#F6CA45" stroke-width="1.86095"/>
<rect x="20.251" y="397.345" width="9.30475" height="1.86095" transform="rotate(102.381 20.251 397.345)" fill="#F0E6D1" stroke="#F6CA45" stroke-width="1.86095"/>
<rect x="32.4479" y="406.98" width="9.30475" height="1.86095" transform="rotate(151.061 32.4479 406.98)" fill="#F0E6D1" stroke="#F6CA45" stroke-width="1.86095"/>
<rect x="41.6448" y="396.912" width="9.30475" height="1.86095" transform="rotate(167.992 41.6448 396.912)" fill="#F0E6D1" stroke="#F6CA45" stroke-width="1.86095"/>
<rect x="81.5323" y="466.898" width="9.30475" height="1.86095" transform="rotate(-152.044 81.5323 466.898)" fill="#F0E6D1" stroke="#F6CA45" stroke-width="1.86095"/>
<rect x="39.2339" y="388.125" width="9.30475" height="1.86095" transform="rotate(167.019 39.2339 388.125)" fill="#F0E6D1" stroke="#F6CA45" stroke-width="1.86095"/>
<rect x="58.7627" y="397.429" width="9.30475" height="1.86095" transform="rotate(-170.033 58.7627 397.429)" fill="#F0E6D1" stroke="#F6CA45" stroke-width="1.86095"/>
<rect x="72.4617" y="395.154" width="9.30475" height="1.86095" transform="rotate(-144.882 72.4617 395.154)" fill="#F0E6D1" stroke="#F6CA45" stroke-width="1.86095"/>
<rect x="93.3172" y="398.141" width="9.30475" height="1.86095" transform="rotate(-164.021 93.3172 398.141)" fill="#F0E6D1" stroke="#F6CA45" stroke-width="1.86095"/>
<rect x="106.963" y="409.306" width="9.30475" height="1.86095" transform="rotate(-114.767 106.963 409.306)" fill="#F0E6D1" stroke="#F6CA45" stroke-width="1.86095"/>
<rect x="51.0188" y="386.826" width="9.30475" height="1.86095" transform="rotate(-34.7095 51.0188 386.826)" fill="#F0E6D1" stroke="#F6CA45" stroke-width="1.86095"/>
<rect x="74.3577" y="383.958" width="9.30475" height="1.86095" transform="rotate(-8.7934 74.3577 383.958)" fill="#F0E6D1" stroke="#F6CA45" stroke-width="1.86095"/>
<rect x="90.4861" y="388.921" width="9.30475" height="1.86095" transform="rotate(-8.7934 90.4861 388.921)" fill="#F0E6D1" stroke="#F6CA45" stroke-width="1.86095"/>
<rect x="117.78" y="398.846" width="9.30475" height="1.86095" transform="rotate(-8.7934 117.78 398.846)" fill="#F0E6D1" stroke="#F6CA45" stroke-width="1.86095"/>
<rect x="90.7209" y="445.202" width="9.30475" height="1.86095" transform="rotate(-35.1845 90.7209 445.202)" fill="#F0E6D1" stroke="#F6CA45" stroke-width="1.86095"/>
<rect x="81.6328" y="455.538" width="9.30475" height="1.86095" transform="rotate(-9.50277 81.6328 455.538)" fill="#F0E6D1" stroke="#F6CA45" stroke-width="1.86095"/>
<rect x="105.708" y="450.734" width="9.30475" height="1.86095" transform="rotate(10.1051 105.708 450.734)" fill="#F0E6D1" stroke="#F6CA45" stroke-width="1.86095"/>
<rect x="109.798" y="432.425" width="9.30475" height="1.86095" transform="rotate(98.3342 109.798 432.425)" fill="#F0E6D1" stroke="#F6CA45" stroke-width="1.86095"/>
<rect x="111.637" y="423.711" width="9.30475" height="1.86095" transform="rotate(34.9837 111.637 423.711)" fill="#F0E6D1" stroke="#F6CA45" stroke-width="1.86095"/>
<rect x="114.287" y="417.792" width="9.30475" height="1.86095" transform="rotate(-56.2107 114.287 417.792)" fill="#F0E6D1" stroke="#F6CA45" stroke-width="1.86095"/>
<rect x="136.548" y="417.079" width="9.30475" height="1.86095" transform="rotate(-131.049 136.548 417.079)" fill="#F0E6D1" stroke="#F6CA45" stroke-width="1.86095"/>
<rect x="140.302" y="428.227" width="9.30475" height="1.86095" transform="rotate(-62.8727 140.302 428.227)" fill="#F0E6D1" stroke="#F6CA45" stroke-width="1.86095"/>
<rect x="149.725" y="442.165" width="9.30475" height="1.86095" transform="rotate(-151.451 149.725 442.165)" fill="#F0E6D1" stroke="#F6CA45" stroke-width="1.86095"/>
<rect x="123.407" y="449.564" width="9.30475" height="1.86095" transform="rotate(-128.062 123.407 449.564)" fill="#F0E6D1" stroke="#F6CA45" stroke-width="1.86095"/>
<rect x="132.446" y="432.194" width="9.30475" height="1.86095" transform="rotate(-128.062 132.446 432.194)" fill="#F0E6D1" stroke="#F6CA45" stroke-width="1.86095"/>
<rect x="132.079" y="453.798" width="9.30475" height="1.86095" transform="rotate(-58.9994 132.079 453.798)" fill="#F0E6D1" stroke="#F6CA45" stroke-width="1.86095"/>
</g>
<defs>
<clipPath id="clip0_283_4948">
<rect width="278" height="499" fill="white"/>
</clipPath>
</defs>
</svg>
