<svg width="262" height="395" viewBox="0 0 262 395" fill="none" xmlns="http://www.w3.org/2000/svg">
<g clip-path="url(#clip0_303_2)">
<rect width="262" height="395" fill="#5DC27C"/>
<circle cx="64.9191" cy="3.26581" r="60.3284" fill="#5DC27C" stroke="#FFE1BB" stroke-width="5.03495"/>
<circle cx="64.9198" cy="3.26597" r="47.7592" fill="#5DC27C" stroke="#FFE1BB" stroke-width="5.03495"/>
<circle cx="64.919" cy="3.26515" r="35.1901" fill="#5DC27C" stroke="#FFE1BB" stroke-width="5.03495"/>
<circle cx="64.9196" cy="3.26531" r="22.6209" fill="#5DC27C" stroke="#FFE1BB" stroke-width="5.03495"/>
<circle cx="196.895" cy="3.26581" r="60.3284" fill="#5DC27C" stroke="#FFE1BB" stroke-width="5.03495"/>
<circle cx="196.895" cy="3.26597" r="47.7592" fill="#5DC27C" stroke="#FFE1BB" stroke-width="5.03495"/>
<circle cx="196.896" cy="3.26515" r="35.1901" fill="#5DC27C" stroke="#FFE1BB" stroke-width="5.03495"/>
<circle cx="196.895" cy="3.26531" r="22.6209" fill="#5DC27C" stroke="#FFE1BB" stroke-width="5.03495"/>
<circle cx="-1.6961" cy="15.8351" r="60.3284" fill="#5DC27C" stroke="#FFE1BB" stroke-width="5.03495"/>
<circle cx="-1.69594" cy="15.8343" r="47.7592" fill="#5DC27C" stroke="#FFE1BB" stroke-width="5.03495"/>
<circle cx="-1.69676" cy="15.8345" r="35.1901" fill="#5DC27C" stroke="#FFE1BB" stroke-width="5.03495"/>
<circle cx="-1.6966" cy="15.8351" r="22.6209" fill="#5DC27C" stroke="#FFE1BB" stroke-width="5.03495"/>
<circle cx="130.28" cy="15.8351" r="60.3284" fill="#5DC27C" stroke="#FFE1BB" stroke-width="5.03495"/>
<circle cx="130.281" cy="15.8343" r="47.7592" fill="#5DC27C" stroke="#FFE1BB" stroke-width="5.03495"/>
<circle cx="130.28" cy="15.8345" r="35.1901" fill="#5DC27C" stroke="#FFE1BB" stroke-width="5.03495"/>
<circle cx="130.28" cy="15.8351" r="22.6209" fill="#5DC27C" stroke="#FFE1BB" stroke-width="5.03495"/>
<circle cx="262.257" cy="15.8351" r="60.3284" fill="#5DC27C" stroke="#FFE1BB" stroke-width="5.03495"/>
<circle cx="262.257" cy="15.8343" r="47.7592" fill="#5DC27C" stroke="#FFE1BB" stroke-width="5.03495"/>
<circle cx="262.256" cy="15.8345" r="35.1901" fill="#5DC27C" stroke="#FFE1BB" stroke-width="5.03495"/>
<circle cx="262.256" cy="15.8351" r="22.6209" fill="#5DC27C" stroke="#FFE1BB" stroke-width="5.03495"/>
<circle cx="64.9191" cy="59.8273" r="60.3284" fill="#5DC27C" stroke="#FFE1BB" stroke-width="5.03495"/>
<circle cx="64.9198" cy="59.827" r="47.7592" fill="#5DC27C" stroke="#FFE1BB" stroke-width="5.03495"/>
<circle cx="64.919" cy="59.8267" r="35.1901" fill="#5DC27C" stroke="#FFE1BB" stroke-width="5.03495"/>
<circle cx="64.9196" cy="59.8268" r="22.6209" fill="#5DC27C" stroke="#FFE1BB" stroke-width="5.03495"/>
<circle cx="196.895" cy="59.8273" r="60.3284" fill="#5DC27C" stroke="#FFE1BB" stroke-width="5.03495"/>
<circle cx="196.895" cy="59.827" r="47.7592" fill="#5DC27C" stroke="#FFE1BB" stroke-width="5.03495"/>
<circle cx="196.896" cy="59.8267" r="35.1901" fill="#5DC27C" stroke="#FFE1BB" stroke-width="5.03495"/>
<circle cx="196.895" cy="59.8268" r="22.6209" fill="#5DC27C" stroke="#FFE1BB" stroke-width="5.03495"/>
<circle cx="-1.6961" cy="72.3962" r="60.3284" fill="#5DC27C" stroke="#FFE1BB" stroke-width="5.03495"/>
<circle cx="-1.69594" cy="72.3959" r="47.7592" fill="#5DC27C" stroke="#FFE1BB" stroke-width="5.03495"/>
<circle cx="-1.69676" cy="72.396" r="35.1901" fill="#5DC27C" stroke="#FFE1BB" stroke-width="5.03495"/>
<circle cx="-1.6966" cy="72.3967" r="22.6209" fill="#5DC27C" stroke="#FFE1BB" stroke-width="5.03495"/>
<circle cx="130.28" cy="72.3962" r="60.3284" fill="#5DC27C" stroke="#FFE1BB" stroke-width="5.03495"/>
<circle cx="130.281" cy="72.3959" r="47.7592" fill="#5DC27C" stroke="#FFE1BB" stroke-width="5.03495"/>
<circle cx="130.28" cy="72.396" r="35.1901" fill="#5DC27C" stroke="#FFE1BB" stroke-width="5.03495"/>
<circle cx="130.28" cy="72.3967" r="22.6209" fill="#5DC27C" stroke="#FFE1BB" stroke-width="5.03495"/>
<circle cx="262.257" cy="72.3962" r="60.3284" fill="#5DC27C" stroke="#FFE1BB" stroke-width="5.03495"/>
<circle cx="262.257" cy="72.3959" r="47.7592" fill="#5DC27C" stroke="#FFE1BB" stroke-width="5.03495"/>
<circle cx="262.256" cy="72.396" r="35.1901" fill="#5DC27C" stroke="#FFE1BB" stroke-width="5.03495"/>
<circle cx="262.256" cy="72.3967" r="22.6209" fill="#5DC27C" stroke="#FFE1BB" stroke-width="5.03495"/>
<circle cx="64.9191" cy="116.389" r="60.3284" fill="#5DC27C" stroke="#FFE1BB" stroke-width="5.03495"/>
<circle cx="64.9198" cy="116.389" r="47.7592" fill="#5DC27C" stroke="#FFE1BB" stroke-width="5.03495"/>
<circle cx="64.919" cy="116.389" r="35.1901" fill="#5DC27C" stroke="#FFE1BB" stroke-width="5.03495"/>
<circle cx="64.9196" cy="116.389" r="22.6209" fill="#5DC27C" stroke="#FFE1BB" stroke-width="5.03495"/>
<circle cx="196.895" cy="116.389" r="60.3284" fill="#5DC27C" stroke="#FFE1BB" stroke-width="5.03495"/>
<circle cx="196.895" cy="116.389" r="47.7592" fill="#5DC27C" stroke="#FFE1BB" stroke-width="5.03495"/>
<circle cx="196.896" cy="116.389" r="35.1901" fill="#5DC27C" stroke="#FFE1BB" stroke-width="5.03495"/>
<circle cx="196.895" cy="116.389" r="22.6209" fill="#5DC27C" stroke="#FFE1BB" stroke-width="5.03495"/>
<circle cx="-1.6961" cy="128.958" r="60.3284" fill="#5DC27C" stroke="#FFE1BB" stroke-width="5.03495"/>
<circle cx="-1.69594" cy="128.958" r="47.7592" fill="#5DC27C" stroke="#FFE1BB" stroke-width="5.03495"/>
<circle cx="-1.69676" cy="128.958" r="35.1901" fill="#5DC27C" stroke="#FFE1BB" stroke-width="5.03495"/>
<circle cx="-1.6966" cy="128.957" r="22.6209" fill="#5DC27C" stroke="#FFE1BB" stroke-width="5.03495"/>
<circle cx="130.28" cy="128.958" r="60.3284" fill="#5DC27C" stroke="#FFE1BB" stroke-width="5.03495"/>
<circle cx="130.281" cy="128.958" r="47.7592" fill="#5DC27C" stroke="#FFE1BB" stroke-width="5.03495"/>
<circle cx="130.28" cy="128.958" r="35.1901" fill="#5DC27C" stroke="#FFE1BB" stroke-width="5.03495"/>
<circle cx="130.28" cy="128.957" r="22.6209" fill="#5DC27C" stroke="#FFE1BB" stroke-width="5.03495"/>
<circle cx="262.257" cy="128.958" r="60.3284" fill="#5DC27C" stroke="#FFE1BB" stroke-width="5.03495"/>
<circle cx="262.257" cy="128.958" r="47.7592" fill="#5DC27C" stroke="#FFE1BB" stroke-width="5.03495"/>
<circle cx="262.256" cy="128.958" r="35.1901" fill="#5DC27C" stroke="#FFE1BB" stroke-width="5.03495"/>
<circle cx="262.256" cy="128.957" r="22.6209" fill="#5DC27C" stroke="#FFE1BB" stroke-width="5.03495"/>
<circle cx="64.9191" cy="172.951" r="60.3284" fill="#5DC27C" stroke="#FFE1BB" stroke-width="5.03495"/>
<circle cx="64.9198" cy="172.951" r="47.7592" fill="#5DC27C" stroke="#FFE1BB" stroke-width="5.03495"/>
<circle cx="64.919" cy="172.95" r="35.1901" fill="#5DC27C" stroke="#FFE1BB" stroke-width="5.03495"/>
<circle cx="64.9196" cy="172.95" r="22.6209" fill="#5DC27C" stroke="#FFE1BB" stroke-width="5.03495"/>
<circle cx="196.895" cy="172.951" r="60.3284" fill="#5DC27C" stroke="#FFE1BB" stroke-width="5.03495"/>
<circle cx="196.895" cy="172.951" r="47.7592" fill="#5DC27C" stroke="#FFE1BB" stroke-width="5.03495"/>
<circle cx="196.896" cy="172.95" r="35.1901" fill="#5DC27C" stroke="#FFE1BB" stroke-width="5.03495"/>
<circle cx="196.895" cy="172.95" r="22.6209" fill="#5DC27C" stroke="#FFE1BB" stroke-width="5.03495"/>
<circle cx="-1.6961" cy="185.52" r="60.3284" fill="#5DC27C" stroke="#FFE1BB" stroke-width="5.03495"/>
<circle cx="-1.69594" cy="185.519" r="47.7592" fill="#5DC27C" stroke="#FFE1BB" stroke-width="5.03495"/>
<circle cx="-1.69676" cy="185.519" r="35.1901" fill="#5DC27C" stroke="#FFE1BB" stroke-width="5.03495"/>
<circle cx="-1.6966" cy="185.52" r="22.6209" fill="#5DC27C" stroke="#FFE1BB" stroke-width="5.03495"/>
<circle cx="130.28" cy="185.52" r="60.3284" fill="#5DC27C" stroke="#FFE1BB" stroke-width="5.03495"/>
<circle cx="130.281" cy="185.519" r="47.7592" fill="#5DC27C" stroke="#FFE1BB" stroke-width="5.03495"/>
<circle cx="130.28" cy="185.519" r="35.1901" fill="#5DC27C" stroke="#FFE1BB" stroke-width="5.03495"/>
<circle cx="130.28" cy="185.52" r="22.6209" fill="#5DC27C" stroke="#FFE1BB" stroke-width="5.03495"/>
<circle cx="262.257" cy="185.52" r="60.3284" fill="#5DC27C" stroke="#FFE1BB" stroke-width="5.03495"/>
<circle cx="262.257" cy="185.519" r="47.7592" fill="#5DC27C" stroke="#FFE1BB" stroke-width="5.03495"/>
<circle cx="262.256" cy="185.519" r="35.1901" fill="#5DC27C" stroke="#FFE1BB" stroke-width="5.03495"/>
<circle cx="262.256" cy="185.52" r="22.6209" fill="#5DC27C" stroke="#FFE1BB" stroke-width="5.03495"/>
<circle cx="64.9191" cy="229.511" r="60.3284" fill="#5DC27C" stroke="#FFE1BB" stroke-width="5.03495"/>
<circle cx="64.9198" cy="229.511" r="47.7592" fill="#5DC27C" stroke="#FFE1BB" stroke-width="5.03495"/>
<circle cx="64.919" cy="229.51" r="35.1901" fill="#5DC27C" stroke="#FFE1BB" stroke-width="5.03495"/>
<circle cx="64.9196" cy="229.511" r="22.6209" fill="#5DC27C" stroke="#FFE1BB" stroke-width="5.03495"/>
<circle cx="196.895" cy="229.511" r="60.3284" fill="#5DC27C" stroke="#FFE1BB" stroke-width="5.03495"/>
<circle cx="196.895" cy="229.511" r="47.7592" fill="#5DC27C" stroke="#FFE1BB" stroke-width="5.03495"/>
<circle cx="196.896" cy="229.51" r="35.1901" fill="#5DC27C" stroke="#FFE1BB" stroke-width="5.03495"/>
<circle cx="196.895" cy="229.511" r="22.6209" fill="#5DC27C" stroke="#FFE1BB" stroke-width="5.03495"/>
<circle cx="-1.6961" cy="242.08" r="60.3284" fill="#5DC27C" stroke="#FFE1BB" stroke-width="5.03495"/>
<circle cx="-1.69594" cy="242.079" r="47.7592" fill="#5DC27C" stroke="#FFE1BB" stroke-width="5.03495"/>
<circle cx="-1.69676" cy="242.08" r="35.1901" fill="#5DC27C" stroke="#FFE1BB" stroke-width="5.03495"/>
<circle cx="-1.6966" cy="242.08" r="22.6209" fill="#5DC27C" stroke="#FFE1BB" stroke-width="5.03495"/>
<circle cx="130.28" cy="242.08" r="60.3284" fill="#5DC27C" stroke="#FFE1BB" stroke-width="5.03495"/>
<circle cx="130.281" cy="242.079" r="47.7592" fill="#5DC27C" stroke="#FFE1BB" stroke-width="5.03495"/>
<circle cx="130.28" cy="242.08" r="35.1901" fill="#5DC27C" stroke="#FFE1BB" stroke-width="5.03495"/>
<circle cx="130.28" cy="242.08" r="22.6209" fill="#5DC27C" stroke="#FFE1BB" stroke-width="5.03495"/>
<circle cx="262.257" cy="242.08" r="60.3284" fill="#5DC27C" stroke="#FFE1BB" stroke-width="5.03495"/>
<circle cx="262.257" cy="242.079" r="47.7592" fill="#5DC27C" stroke="#FFE1BB" stroke-width="5.03495"/>
<circle cx="262.256" cy="242.08" r="35.1901" fill="#5DC27C" stroke="#FFE1BB" stroke-width="5.03495"/>
<circle cx="262.256" cy="242.08" r="22.6209" fill="#5DC27C" stroke="#FFE1BB" stroke-width="5.03495"/>
<circle cx="64.9191" cy="286.072" r="60.3284" fill="#5DC27C" stroke="#FFE1BB" stroke-width="5.03495"/>
<circle cx="64.9198" cy="286.072" r="47.7592" fill="#5DC27C" stroke="#FFE1BB" stroke-width="5.03495"/>
<circle cx="64.919" cy="286.072" r="35.1901" fill="#5DC27C" stroke="#FFE1BB" stroke-width="5.03495"/>
<circle cx="64.9196" cy="286.072" r="22.6209" fill="#5DC27C" stroke="#FFE1BB" stroke-width="5.03495"/>
<circle cx="196.895" cy="286.072" r="60.3284" fill="#5DC27C" stroke="#FFE1BB" stroke-width="5.03495"/>
<circle cx="196.895" cy="286.072" r="47.7592" fill="#5DC27C" stroke="#FFE1BB" stroke-width="5.03495"/>
<circle cx="196.896" cy="286.072" r="35.1901" fill="#5DC27C" stroke="#FFE1BB" stroke-width="5.03495"/>
<circle cx="196.895" cy="286.072" r="22.6209" fill="#5DC27C" stroke="#FFE1BB" stroke-width="5.03495"/>
<circle cx="-1.6961" cy="298.64" r="60.3284" fill="#5DC27C" stroke="#FFE1BB" stroke-width="5.03495"/>
<circle cx="-1.69594" cy="298.641" r="47.7592" fill="#5DC27C" stroke="#FFE1BB" stroke-width="5.03495"/>
<circle cx="-1.69676" cy="298.641" r="35.1901" fill="#5DC27C" stroke="#FFE1BB" stroke-width="5.03495"/>
<circle cx="-1.6966" cy="298.641" r="22.6209" fill="#5DC27C" stroke="#FFE1BB" stroke-width="5.03495"/>
<circle cx="130.28" cy="298.64" r="60.3284" fill="#5DC27C" stroke="#FFE1BB" stroke-width="5.03495"/>
<circle cx="130.281" cy="298.641" r="47.7592" fill="#5DC27C" stroke="#FFE1BB" stroke-width="5.03495"/>
<circle cx="130.28" cy="298.641" r="35.1901" fill="#5DC27C" stroke="#FFE1BB" stroke-width="5.03495"/>
<circle cx="130.28" cy="298.641" r="22.6209" fill="#5DC27C" stroke="#FFE1BB" stroke-width="5.03495"/>
<circle cx="262.257" cy="298.64" r="60.3284" fill="#5DC27C" stroke="#FFE1BB" stroke-width="5.03495"/>
<circle cx="262.257" cy="298.641" r="47.7592" fill="#5DC27C" stroke="#FFE1BB" stroke-width="5.03495"/>
<circle cx="262.256" cy="298.641" r="35.1901" fill="#5DC27C" stroke="#FFE1BB" stroke-width="5.03495"/>
<circle cx="262.256" cy="298.641" r="22.6209" fill="#5DC27C" stroke="#FFE1BB" stroke-width="5.03495"/>
<circle cx="64.9191" cy="342.633" r="60.3284" fill="#5DC27C" stroke="#FFE1BB" stroke-width="5.03495"/>
<circle cx="64.9198" cy="342.634" r="47.7592" fill="#5DC27C" stroke="#FFE1BB" stroke-width="5.03495"/>
<circle cx="64.919" cy="342.634" r="35.1901" fill="#5DC27C" stroke="#FFE1BB" stroke-width="5.03495"/>
<circle cx="64.9196" cy="342.633" r="22.6209" fill="#5DC27C" stroke="#FFE1BB" stroke-width="5.03495"/>
<circle cx="196.895" cy="342.633" r="60.3284" fill="#5DC27C" stroke="#FFE1BB" stroke-width="5.03495"/>
<circle cx="196.895" cy="342.634" r="47.7592" fill="#5DC27C" stroke="#FFE1BB" stroke-width="5.03495"/>
<circle cx="196.896" cy="342.634" r="35.1901" fill="#5DC27C" stroke="#FFE1BB" stroke-width="5.03495"/>
<circle cx="196.895" cy="342.633" r="22.6209" fill="#5DC27C" stroke="#FFE1BB" stroke-width="5.03495"/>
<circle cx="-1.6961" cy="355.203" r="60.3284" fill="#5DC27C" stroke="#FFE1BB" stroke-width="5.03495"/>
<circle cx="-1.69594" cy="355.203" r="47.7592" fill="#5DC27C" stroke="#FFE1BB" stroke-width="5.03495"/>
<circle cx="-1.69676" cy="355.203" r="35.1901" fill="#5DC27C" stroke="#FFE1BB" stroke-width="5.03495"/>
<circle cx="-1.6966" cy="355.202" r="22.6209" fill="#5DC27C" stroke="#FFE1BB" stroke-width="5.03495"/>
<circle cx="130.28" cy="355.203" r="60.3284" fill="#5DC27C" stroke="#FFE1BB" stroke-width="5.03495"/>
<circle cx="130.281" cy="355.203" r="47.7592" fill="#5DC27C" stroke="#FFE1BB" stroke-width="5.03495"/>
<circle cx="130.28" cy="355.203" r="35.1901" fill="#5DC27C" stroke="#FFE1BB" stroke-width="5.03495"/>
<circle cx="130.28" cy="355.202" r="22.6209" fill="#5DC27C" stroke="#FFE1BB" stroke-width="5.03495"/>
<circle cx="262.257" cy="355.203" r="60.3284" fill="#5DC27C" stroke="#FFE1BB" stroke-width="5.03495"/>
<circle cx="262.257" cy="355.203" r="47.7592" fill="#5DC27C" stroke="#FFE1BB" stroke-width="5.03495"/>
<circle cx="262.256" cy="355.203" r="35.1901" fill="#5DC27C" stroke="#FFE1BB" stroke-width="5.03495"/>
<circle cx="262.256" cy="355.202" r="22.6209" fill="#5DC27C" stroke="#FFE1BB" stroke-width="5.03495"/>
<circle cx="64.9191" cy="399.195" r="60.3284" fill="#5DC27C" stroke="#FFE1BB" stroke-width="5.03495"/>
<circle cx="64.9198" cy="399.195" r="47.7592" fill="#5DC27C" stroke="#FFE1BB" stroke-width="5.03495"/>
<circle cx="64.919" cy="399.195" r="35.1901" fill="#5DC27C" stroke="#FFE1BB" stroke-width="5.03495"/>
<circle cx="64.9196" cy="399.195" r="22.6209" fill="#5DC27C" stroke="#FFE1BB" stroke-width="5.03495"/>
<circle cx="196.895" cy="399.195" r="60.3284" fill="#5DC27C" stroke="#FFE1BB" stroke-width="5.03495"/>
<circle cx="196.895" cy="399.195" r="47.7592" fill="#5DC27C" stroke="#FFE1BB" stroke-width="5.03495"/>
<circle cx="196.896" cy="399.195" r="35.1901" fill="#5DC27C" stroke="#FFE1BB" stroke-width="5.03495"/>
<circle cx="196.895" cy="399.195" r="22.6209" fill="#5DC27C" stroke="#FFE1BB" stroke-width="5.03495"/>
<circle cx="-1.6961" cy="411.764" r="60.3284" fill="#5DC27C" stroke="#FFE1BB" stroke-width="5.03495"/>
<circle cx="-1.69594" cy="411.764" r="47.7592" fill="#5DC27C" stroke="#FFE1BB" stroke-width="5.03495"/>
<circle cx="-1.69676" cy="411.764" r="35.1901" fill="#5DC27C" stroke="#FFE1BB" stroke-width="5.03495"/>
<circle cx="-1.6966" cy="411.764" r="22.6209" fill="#5DC27C" stroke="#FFE1BB" stroke-width="5.03495"/>
<circle cx="130.28" cy="411.764" r="60.3284" fill="#5DC27C" stroke="#FFE1BB" stroke-width="5.03495"/>
<circle cx="130.281" cy="411.764" r="47.7592" fill="#5DC27C" stroke="#FFE1BB" stroke-width="5.03495"/>
<circle cx="130.28" cy="411.764" r="35.1901" fill="#5DC27C" stroke="#FFE1BB" stroke-width="5.03495"/>
<circle cx="130.28" cy="411.764" r="22.6209" fill="#5DC27C" stroke="#FFE1BB" stroke-width="5.03495"/>
<circle cx="262.257" cy="411.764" r="60.3284" fill="#5DC27C" stroke="#FFE1BB" stroke-width="5.03495"/>
<circle cx="262.257" cy="411.764" r="47.7592" fill="#5DC27C" stroke="#FFE1BB" stroke-width="5.03495"/>
<circle cx="262.256" cy="411.764" r="35.1901" fill="#5DC27C" stroke="#FFE1BB" stroke-width="5.03495"/>
<circle cx="262.256" cy="411.764" r="22.6209" fill="#5DC27C" stroke="#FFE1BB" stroke-width="5.03495"/>
</g>
<defs>
<clipPath id="clip0_303_2">
<rect width="262" height="395" fill="white"/>
</clipPath>
</defs>
</svg>
