<svg width="169" height="102" viewBox="0 0 169 102" fill="none" xmlns="http://www.w3.org/2000/svg">
<path d="M91.979 19.7359C91.979 19.7359 111.262 12.804 118.091 20.3817C122.519 25.2958 122.169 36.8221 122.169 36.8221C122.169 36.8221 140.171 39.0316 145.234 47.5854C149.795 55.2909 145.258 70.5138 145.258 70.5138L164.684 76.1498L158.86 90.0539L140.836 82.0657C140.836 82.0657 128.279 96.999 120.861 97.2733C113.271 97.5541 103.218 89.0915 103.218 89.0915C103.218 89.0915 92.5314 99.7251 84.4612 98.4028C76.8676 97.1586 69.9608 85.0616 69.9608 85.0616C69.9608 85.0616 58.5956 89.1229 52.1669 86.4311C45.2896 83.5513 40.3889 71.4051 40.3889 71.4051C40.3889 71.4051 24.5059 74.0766 19.7218 67.3898C15.8173 61.9325 19.285 50.2125 19.285 50.2125C19.285 50.2125 -2.27383 40.6303 4.30276 24.2215C10.0782 9.81165 29.0155 15.632 29.0155 15.632C29.0155 15.632 34.0473 5.86417 40.0103 3.86916C48.5605 1.00861 61.0085 13.4648 61.0085 13.4648C61.0085 13.4648 72.1047 6.74928 79.2235 8.62078C85.6136 10.3007 91.979 19.7359 91.979 19.7359Z" fill="#8AC636"/>
<path d="M140.836 82.0657L42.6891 39.9534L145.258 70.5138M140.836 82.0657C140.836 82.0657 128.279 96.999 120.861 97.2733C113.271 97.5541 103.218 89.0915 103.218 89.0915C103.218 89.0915 92.5314 99.7251 84.4612 98.4028C76.8676 97.1586 69.9608 85.0616 69.9608 85.0616C69.9608 85.0616 58.5956 89.1229 52.1669 86.4311C45.2896 83.5513 40.3889 71.4051 40.3889 71.4051C40.3889 71.4051 24.5059 74.0766 19.7218 67.3898C15.8173 61.9325 19.285 50.2125 19.285 50.2125C19.285 50.2125 -2.27383 40.6303 4.30276 24.2215C10.0782 9.81165 29.0155 15.632 29.0155 15.632C29.0155 15.632 34.0473 5.86417 40.0103 3.86916C48.5605 1.00861 61.0085 13.4648 61.0085 13.4648C61.0085 13.4648 72.1047 6.74928 79.2235 8.62078C85.6136 10.3007 91.979 19.7359 91.979 19.7359C91.979 19.7359 111.262 12.804 118.091 20.3817C122.519 25.2958 122.169 36.8221 122.169 36.8221C122.169 36.8221 140.171 39.0316 145.234 47.5854C149.795 55.2909 145.258 70.5138 145.258 70.5138M140.836 82.0657L158.86 90.0539L164.684 76.1498L145.258 70.5138" stroke="#1D1E19" stroke-width="5"/>
</svg>
