<svg width="38" height="38" viewBox="0 0 38 38" fill="none" xmlns="http://www.w3.org/2000/svg">
<mask id="path-1-outside-1_244_3" maskUnits="userSpaceOnUse" x="0" y="0" width="38" height="38" fill="black">
<rect fill="white" width="38" height="38"/>
<path d="M33 19C33 26.732 26.732 33 19 33C11.268 33 5 26.732 5 19C5 11.268 11.268 5 19 5C26.732 5 33 11.268 33 19ZM10.0184 19C10.0184 23.9604 14.0396 27.9816 19 27.9816C23.9604 27.9816 27.9816 23.9604 27.9816 19C27.9816 14.0396 23.9604 10.0184 19 10.0184C14.0396 10.0184 10.0184 14.0396 10.0184 19Z"/>
</mask>
<path d="M33 19C33 26.732 26.732 33 19 33C11.268 33 5 26.732 5 19C5 11.268 11.268 5 19 5C26.732 5 33 11.268 33 19ZM10.0184 19C10.0184 23.9604 14.0396 27.9816 19 27.9816C23.9604 27.9816 27.9816 23.9604 27.9816 19C27.9816 14.0396 23.9604 10.0184 19 10.0184C14.0396 10.0184 10.0184 14.0396 10.0184 19Z" fill="#5DC27C"/>
<path d="M33 19C33 26.732 26.732 33 19 33C11.268 33 5 26.732 5 19C5 11.268 11.268 5 19 5C26.732 5 33 11.268 33 19ZM10.0184 19C10.0184 23.9604 14.0396 27.9816 19 27.9816C23.9604 27.9816 27.9816 23.9604 27.9816 19C27.9816 14.0396 23.9604 10.0184 19 10.0184C14.0396 10.0184 10.0184 14.0396 10.0184 19Z" stroke="#1D1E19" stroke-width="10" mask="url(#path-1-outside-1_244_3)"/>
</svg>
