<svg width="34" height="34" viewBox="0 0 34 34" fill="none" xmlns="http://www.w3.org/2000/svg">
<mask id="path-1-outside-1_244_5" maskUnits="userSpaceOnUse" x="0" y="0" width="34" height="34" fill="black">
<rect fill="white" width="34" height="34"/>
<path d="M29 17C29 23.6274 23.6274 29 17 29C10.3726 29 5 23.6274 5 17C5 10.3726 10.3726 5 17 5C23.6274 5 29 10.3726 29 17ZM9.30147 17C9.30147 21.2518 12.7482 24.6985 17 24.6985C21.2518 24.6985 24.6985 21.2518 24.6985 17C24.6985 12.7482 21.2518 9.30147 17 9.30147C12.7482 9.30147 9.30147 12.7482 9.30147 17Z"/>
</mask>
<path d="M29 17C29 23.6274 23.6274 29 17 29C10.3726 29 5 23.6274 5 17C5 10.3726 10.3726 5 17 5C23.6274 5 29 10.3726 29 17ZM9.30147 17C9.30147 21.2518 12.7482 24.6985 17 24.6985C21.2518 24.6985 24.6985 21.2518 24.6985 17C24.6985 12.7482 21.2518 9.30147 17 9.30147C12.7482 9.30147 9.30147 12.7482 9.30147 17Z" fill="#C3DD7C"/>
<path d="M29 17C29 23.6274 23.6274 29 17 29C10.3726 29 5 23.6274 5 17C5 10.3726 10.3726 5 17 5C23.6274 5 29 10.3726 29 17ZM9.30147 17C9.30147 21.2518 12.7482 24.6985 17 24.6985C21.2518 24.6985 24.6985 21.2518 24.6985 17C24.6985 12.7482 21.2518 9.30147 17 9.30147C12.7482 9.30147 9.30147 12.7482 9.30147 17Z" stroke="#1D1E19" stroke-width="10" mask="url(#path-1-outside-1_244_5)"/>
</svg>
