<svg width="31" height="31" viewBox="0 0 31 31" fill="none" xmlns="http://www.w3.org/2000/svg">
<mask id="path-1-outside-1_244_4" maskUnits="userSpaceOnUse" x="0" y="0" width="31" height="31" fill="black">
<rect fill="white" width="31" height="31"/>
<path d="M26 15.5C26 21.299 21.299 26 15.5 26C9.70101 26 5 21.299 5 15.5C5 9.70101 9.70101 5 15.5 5C21.299 5 26 9.70101 26 15.5ZM8.76379 15.5C8.76379 19.2203 11.7797 22.2362 15.5 22.2362C19.2203 22.2362 22.2362 19.2203 22.2362 15.5C22.2362 11.7797 19.2203 8.76379 15.5 8.76379C11.7797 8.76379 8.76379 11.7797 8.76379 15.5Z"/>
</mask>
<path d="M26 15.5C26 21.299 21.299 26 15.5 26C9.70101 26 5 21.299 5 15.5C5 9.70101 9.70101 5 15.5 5C21.299 5 26 9.70101 26 15.5ZM8.76379 15.5C8.76379 19.2203 11.7797 22.2362 15.5 22.2362C19.2203 22.2362 22.2362 19.2203 22.2362 15.5C22.2362 11.7797 19.2203 8.76379 15.5 8.76379C11.7797 8.76379 8.76379 11.7797 8.76379 15.5Z" fill="#8AC636"/>
<path d="M26 15.5C26 21.299 21.299 26 15.5 26C9.70101 26 5 21.299 5 15.5C5 9.70101 9.70101 5 15.5 5C21.299 5 26 9.70101 26 15.5ZM8.76379 15.5C8.76379 19.2203 11.7797 22.2362 15.5 22.2362C19.2203 22.2362 22.2362 19.2203 22.2362 15.5C22.2362 11.7797 19.2203 8.76379 15.5 8.76379C11.7797 8.76379 8.76379 11.7797 8.76379 15.5Z" stroke="#1D1E19" stroke-width="10" mask="url(#path-1-outside-1_244_4)"/>
</svg>
