<svg width="856" height="192" viewBox="0 0 856 192" fill="none" xmlns="http://www.w3.org/2000/svg">
<g clip-path="url(#clip0_762_545)">
<rect width="856" height="192" fill="#F57B45"/>
<g clip-path="url(#clip1_762_545)">
<path d="M781.044 98.4926C629.056 -36.1085 529.865 42.4088 499.269 98.4926L637.666 170.073L781.044 98.4926Z" fill="#C6DF79" stroke="#1D1E19" stroke-width="3"/>
<path d="M704.197 173.394C546.587 113.62 492.865 71.1885 377.237 61.2262V173.394H704.197Z" fill="#5DC27C" stroke="#1D1E19" stroke-width="3"/>
<path d="M2.60303 124.11C61.8992 66.5499 244.62 -35.5548 473.296 94.8029C556.432 142.195 614.86 163.3 652.534 167.86H680.359C672.792 169.112 663.55 169.193 652.534 167.86H2.60303V124.11Z" fill="#C3DD7C"/>
<path d="M2.60303 124.11C61.8992 66.5499 244.62 -35.5548 473.296 94.8029C580.741 156.052 646.916 173.394 680.359 167.86H2.60303V124.11Z" stroke="#1D1E19" stroke-width="3"/>
<path d="M603.511 173.394C698.006 32.0041 816.978 53.2323 864.652 81.5202V173.394H603.511Z" fill="#8AC636" stroke="#1D1E19" stroke-width="3"/>
<path d="M417.231 -10.5765C394.433 -0.602402 405.357 20.7702 417.231 20.7702H481.349C500.347 20.7702 501.296 -12.9511 472.8 -10.5765C470.9 -19.3156 462.826 -19.2839 459.026 -18.1756C440.978 -36.2238 420.08 -22.925 417.231 -10.5765Z" fill="#F0E6D1" stroke="#1D1E19" stroke-width="3"/>
<path d="M38.3465 26.932C51.3276 32.6112 45.1075 44.7807 38.3465 44.7807H1.83783C-8.97944 44.7807 -9.52031 25.5799 6.70565 26.932C7.78739 21.956 12.3848 21.974 14.5483 22.6051C24.8248 12.3285 36.7239 19.9008 38.3465 26.932Z" fill="#F0E6D1" stroke="#1D1E19" stroke-width="3"/>
<path d="M871.577 7.69813C884.558 13.3773 878.338 25.5468 871.577 25.5468H835.068C824.251 25.5468 823.71 6.34602 839.936 7.69813C841.017 2.7221 845.615 2.74015 847.778 3.37117C858.055 -6.90538 869.954 0.666882 871.577 7.69813Z" fill="#F0E6D1" stroke="#1D1E19" stroke-width="3"/>
<path d="M-12.9736 167.067H868.489V206.76H-12.9736V167.067Z" fill="#5DC27C" stroke="#1D1E19" stroke-width="3"/>
<path d="M-16.9392 128.309C-19.8177 131.973 -20.436 137.142 -17.3676 141.888C-18.7803 142.965 -20.1169 144.582 -21.1018 146.409C-22.4617 148.933 -23.2966 152.124 -22.5917 155.308C-21.8718 158.559 -19.6038 161.543 -15.2686 163.671C-10.9823 165.775 -4.64362 167.067 4.40774 167.067H78.871C84.8671 167.067 89.1478 165.558 91.8089 163.019C94.5043 160.447 95.3272 157.016 94.7779 153.696C93.7893 147.721 88.3422 141.87 80.9259 140.942C81.8812 137.672 81.8745 134.731 81.1379 132.184C80.2614 129.152 78.386 126.798 76.1132 125.172C73.8502 123.554 71.1673 122.638 68.597 122.478C66.9654 122.377 65.3254 122.58 63.8532 123.146C63.4012 119.127 61.8456 115.933 59.5479 113.564C56.8139 110.745 53.139 109.204 49.3337 108.729C42.4811 107.872 34.735 110.441 30.6991 115.935C22.3301 108.07 13.867 107.253 7.29177 110.07C1.2632 112.653 -3.05668 118.282 -3.89412 123.736C-9.25 122.686 -14.1302 124.734 -16.9392 128.309Z" fill="#8AC636" stroke="#1D1E19" stroke-width="3"/>
<mask id="path-11-inside-1_762_545" fill="white">
<path fill-rule="evenodd" clip-rule="evenodd" d="M611.524 80.1805C610.796 73.3372 607.748 66.9102 602.837 61.9988C597.165 56.3275 589.473 53.1414 581.453 53.1414C573.433 53.1414 565.741 56.3275 560.069 61.9988C555.158 66.9102 552.11 73.3372 551.382 80.1805H551.212V83.2698C551.212 83.3073 551.212 83.3449 551.212 83.3824H551.212V122.518V122.874H551.214C551.307 130.766 554.482 138.314 560.07 143.902C565.741 149.573 573.433 152.759 581.453 152.759C589.474 152.759 597.166 149.573 602.837 143.902C608.424 138.314 611.599 130.766 611.692 122.874H611.694V122.518V80.1805H611.524Z"/>
</mask>
<path fill-rule="evenodd" clip-rule="evenodd" d="M611.524 80.1805C610.796 73.3372 607.748 66.9102 602.837 61.9988C597.165 56.3275 589.473 53.1414 581.453 53.1414C573.433 53.1414 565.741 56.3275 560.069 61.9988C555.158 66.9102 552.11 73.3372 551.382 80.1805H551.212V83.2698C551.212 83.3073 551.212 83.3449 551.212 83.3824H551.212V122.518V122.874H551.214C551.307 130.766 554.482 138.314 560.07 143.902C565.741 149.573 573.433 152.759 581.453 152.759C589.474 152.759 597.166 149.573 602.837 143.902C608.424 138.314 611.599 130.766 611.692 122.874H611.694V122.518V80.1805H611.524Z" fill="#C3DD7C"/>
<path d="M602.837 61.9988L604.958 59.8774L604.958 59.8774L602.837 61.9988ZM611.524 80.1805L608.541 80.4981L608.827 83.1805H611.524V80.1805ZM560.069 61.9988L562.191 64.1201L562.191 64.1201L560.069 61.9988ZM551.382 80.1805V83.1805H554.079L554.365 80.4981L551.382 80.1805ZM551.212 80.1805V77.1805H548.212V80.1805H551.212ZM551.212 83.2698L554.212 83.2809V83.2698H551.212ZM551.212 83.3824H548.212V86.3824H551.212V83.3824ZM551.212 83.3824H554.212V80.3824H551.212V83.3824ZM551.212 122.874H548.212V125.874H551.212V122.874ZM551.214 122.874L554.214 122.839L554.179 119.874H551.214V122.874ZM560.07 143.902L557.948 146.023L557.948 146.023L560.07 143.902ZM602.837 143.902L600.716 141.78L600.716 141.78L602.837 143.902ZM611.692 122.874V119.874H608.727L608.692 122.839L611.692 122.874ZM611.694 122.874V125.874H614.694V122.874H611.694ZM611.694 80.1805H614.694V77.1805H611.694V80.1805ZM600.715 64.1201C605.139 68.5443 607.885 74.3337 608.541 80.4981L614.507 79.863C613.707 72.3407 610.357 65.2762 604.958 59.8774L600.715 64.1201ZM581.453 56.1414C588.678 56.1414 595.607 59.0114 600.715 64.1201L604.958 59.8774C598.724 53.6435 590.269 50.1414 581.453 50.1414V56.1414ZM562.191 64.1201C567.299 59.0114 574.228 56.1414 581.453 56.1414V50.1414C572.637 50.1414 564.182 53.6435 557.948 59.8774L562.191 64.1201ZM554.365 80.4981C555.021 74.3336 557.766 68.5443 562.191 64.1201L557.948 59.8774C552.549 65.2762 549.199 72.3407 548.399 79.863L554.365 80.4981ZM551.212 83.1805H551.382V77.1805H551.212V83.1805ZM554.212 83.2698V80.1805H548.212V83.2698H554.212ZM554.212 83.3824C554.212 83.3486 554.212 83.3148 554.212 83.2809L548.212 83.2586C548.212 83.2999 548.212 83.3411 548.212 83.3824H554.212ZM551.212 80.3824H551.212V86.3824H551.212V80.3824ZM554.212 122.518V83.3824H548.212V122.518H554.212ZM554.212 122.874V122.518H548.212V122.874H554.212ZM551.214 119.874H551.212V125.874H551.214V119.874ZM548.214 122.909C548.316 131.584 551.807 139.881 557.948 146.023L562.191 141.78C557.158 136.747 554.298 129.947 554.214 122.839L548.214 122.909ZM557.948 146.023C564.182 152.257 572.637 155.759 581.453 155.759V149.759C574.228 149.759 567.3 146.889 562.191 141.78L557.948 146.023ZM581.453 155.759C590.269 155.759 598.724 152.257 604.958 146.023L600.716 141.78C595.607 146.889 588.678 149.759 581.453 149.759V155.759ZM604.958 146.023C611.1 139.881 614.59 131.584 614.692 122.909L608.692 122.839C608.609 129.947 605.749 136.747 600.716 141.78L604.958 146.023ZM611.694 119.874H611.692V125.874H611.694V119.874ZM608.694 122.518V122.874H614.694V122.518H608.694ZM608.694 80.1805V122.518H614.694V80.1805H608.694ZM611.524 83.1805H611.694V77.1805H611.524V83.1805Z" fill="#1D1E19" mask="url(#path-11-inside-1_762_545)"/>
<path d="M581.453 168.769V131.412M581.453 80.1805V96.5463V115.402M581.453 115.402L566.155 100.816M581.453 115.402V131.412M581.453 131.412L596.396 117.537" stroke="#1D1E19" stroke-width="3"/>
<mask id="path-14-inside-2_762_545" fill="white">
<path fill-rule="evenodd" clip-rule="evenodd" d="M564.001 56.6991C563.732 49.0662 560.582 41.802 555.162 36.3828C549.491 30.7115 541.799 27.5254 533.779 27.5254C525.758 27.5254 518.066 30.7115 512.395 36.3828C506.976 41.802 503.826 49.0662 503.556 56.6991H503.538V57.6638C503.538 57.698 503.538 57.7322 503.538 57.7665H503.538V122.518V122.874H503.54C503.633 130.765 506.808 138.314 512.395 143.901C518.066 149.573 525.758 152.759 533.779 152.759C541.799 152.759 549.491 149.573 555.163 143.901C560.75 138.314 563.925 130.765 564.018 122.874H564.02V122.518V56.6991H564.001Z"/>
</mask>
<path fill-rule="evenodd" clip-rule="evenodd" d="M564.001 56.6991C563.732 49.0662 560.582 41.802 555.162 36.3828C549.491 30.7115 541.799 27.5254 533.779 27.5254C525.758 27.5254 518.066 30.7115 512.395 36.3828C506.976 41.802 503.826 49.0662 503.556 56.6991H503.538V57.6638C503.538 57.698 503.538 57.7322 503.538 57.7665H503.538V122.518V122.874H503.54C503.633 130.765 506.808 138.314 512.395 143.901C518.066 149.573 525.758 152.759 533.779 152.759C541.799 152.759 549.491 149.573 555.163 143.901C560.75 138.314 563.925 130.765 564.018 122.874H564.02V122.518V56.6991H564.001Z" fill="#8AC636"/>
<path d="M555.162 36.3828L557.284 34.2615L557.284 34.2615L555.162 36.3828ZM564.001 56.6991L561.003 56.8049L561.105 59.6991H564.001V56.6991ZM512.395 36.3828L514.516 38.5041L514.516 38.5041L512.395 36.3828ZM503.556 56.6991V59.6991H506.452L506.555 56.8049L503.556 56.6991ZM503.538 56.6991V53.6991H500.538V56.6991H503.538ZM503.538 57.6638L506.538 57.6739V57.6638H503.538ZM503.538 57.7665H500.538V60.7665H503.538V57.7665ZM503.538 57.7665H506.538V54.7665H503.538V57.7665ZM503.538 122.874H500.538V125.874H503.538V122.874ZM503.54 122.874L506.54 122.838L506.505 119.874H503.54V122.874ZM512.395 143.901L510.274 146.023L510.274 146.023L512.395 143.901ZM555.163 143.901L553.041 141.78L553.041 141.78L555.163 143.901ZM564.018 122.874V119.874H561.053L561.018 122.838L564.018 122.874ZM564.02 122.874V125.874H567.02V122.874H564.02ZM564.02 56.6991H567.02V53.6991H564.02V56.6991ZM553.041 38.5041C557.923 43.3857 560.76 49.9293 561.003 56.8049L566.999 56.5933C566.703 48.2031 563.24 40.2183 557.284 34.2615L553.041 38.5041ZM533.779 30.5254C541.003 30.5254 547.932 33.3954 553.041 38.5041L557.284 34.2615C551.05 28.0276 542.595 24.5254 533.779 24.5254V30.5254ZM514.516 38.5041C519.625 33.3954 526.554 30.5254 533.779 30.5254V24.5254C524.963 24.5254 516.508 28.0276 510.274 34.2615L514.516 38.5041ZM506.555 56.8049C506.797 49.9293 509.635 43.3857 514.516 38.5041L510.274 34.2615C504.317 40.2183 500.854 48.2031 500.558 56.5933L506.555 56.8049ZM503.538 59.6991H503.556V53.6991H503.538V59.6991ZM506.538 57.6638V56.6991H500.538V57.6638H506.538ZM506.538 57.7665C506.538 57.7356 506.538 57.7048 506.538 57.6739L500.538 57.6536C500.538 57.6912 500.538 57.7288 500.538 57.7665H506.538ZM503.538 54.7665H503.538V60.7665H503.538V54.7665ZM506.538 122.518V57.7665H500.538V122.518H506.538ZM506.538 122.874V122.518H500.538V122.874H506.538ZM503.54 119.874H503.538V125.874H503.54V119.874ZM500.54 122.909C500.642 131.584 504.132 139.881 510.274 146.023L514.516 141.78C509.483 136.747 506.623 129.947 506.54 122.838L500.54 122.909ZM510.274 146.023C516.508 152.257 524.963 155.759 533.779 155.759V149.759C526.554 149.759 519.625 146.889 514.516 141.78L510.274 146.023ZM533.779 155.759C542.595 155.759 551.05 152.257 557.284 146.023L553.041 141.78C547.932 146.889 541.004 149.759 533.779 149.759V155.759ZM557.284 146.023C563.425 139.881 566.916 131.584 567.018 122.909L561.018 122.838C560.934 129.947 558.074 136.747 553.041 141.78L557.284 146.023ZM564.02 119.874H564.018V125.874H564.02V119.874ZM561.02 122.518V122.874H567.02V122.518H561.02ZM561.02 56.6991V122.518H567.02V56.6991H561.02ZM564.001 59.6991H564.02V53.6991H564.001V59.6991Z" fill="#1D1E19" mask="url(#path-14-inside-2_762_545)"/>
<path d="M533.779 168.769V131.412M533.779 58.8339V96.5462M533.779 96.5462L548.722 81.2478M533.779 96.5462V115.402M533.779 115.402L518.48 100.816M533.779 115.402V131.412M533.779 131.412L548.722 117.537" stroke="#1D1E19" stroke-width="3"/>
<path fill-rule="evenodd" clip-rule="evenodd" d="M61.6817 53.1414C61.951 45.5085 65.1011 38.2443 70.5203 32.8251C76.1916 27.1538 83.8835 23.9677 91.904 23.9677C99.9244 23.9677 107.616 27.1538 113.288 32.8251C118.707 38.2443 121.857 45.5085 122.126 53.1414H122.145V54.1272C122.145 54.1543 122.145 54.1815 122.145 54.2087H122.145V118.96V119.316H122.143C122.05 127.208 118.875 134.757 113.288 140.344C107.616 146.015 99.9243 149.201 91.9038 149.201C83.8834 149.201 76.1915 146.015 70.5202 140.344C64.9328 134.757 61.7576 127.208 61.6649 119.316H61.6628V118.96V53.1414H61.6817Z" fill="#5DC27C"/>
<path d="M70.5203 32.8251L69.4596 31.7644L69.4596 31.7644L70.5203 32.8251ZM61.6817 53.1414L63.1808 53.1943L63.1297 54.6414H61.6817V53.1414ZM113.288 32.8251L112.227 33.8857L112.227 33.8857L113.288 32.8251ZM122.126 53.1414V54.6414H120.678L120.627 53.1943L122.126 53.1414ZM122.145 53.1414V51.6414H123.645V53.1414H122.145ZM122.145 54.1272L120.645 54.1312V54.1272H122.145ZM122.145 54.2087H123.645V55.7087H122.145V54.2087ZM122.145 54.2087H120.645V52.7087H122.145V54.2087ZM122.145 119.316H123.645V120.816H122.145V119.316ZM122.143 119.316L120.643 119.298L120.66 117.816H122.143V119.316ZM113.288 140.344L114.348 141.405L114.348 141.405L113.288 140.344ZM70.5202 140.344L71.5808 139.283L71.5808 139.283L70.5202 140.344ZM61.6649 119.316V117.816H63.1473L63.1648 119.298L61.6649 119.316ZM61.6628 119.316V120.816H60.1628V119.316H61.6628ZM61.6628 53.1414H60.1628V51.6414H61.6628V53.1414ZM71.581 33.8857C66.4305 39.0361 63.4367 45.9401 63.1808 53.1943L60.1826 53.0885C60.4653 45.077 63.7716 37.4524 69.4596 31.7644L71.581 33.8857ZM91.904 25.4677C84.2813 25.4677 76.9709 28.4957 71.581 33.8857L69.4596 31.7644C75.4122 25.8118 83.4857 22.4677 91.904 22.4677V25.4677ZM112.227 33.8857C106.837 28.4957 99.5266 25.4677 91.904 25.4677V22.4677C100.322 22.4677 108.396 25.8118 114.348 31.7644L112.227 33.8857ZM120.627 53.1943C120.371 45.9401 117.377 39.0361 112.227 33.8857L114.348 31.7644C120.036 37.4524 123.343 45.077 123.625 53.0885L120.627 53.1943ZM122.145 54.6414H122.126V51.6414H122.145V54.6414ZM120.645 54.1272V53.1414H123.645V54.1272H120.645ZM120.645 54.2087C120.645 54.1829 120.645 54.157 120.645 54.1312L123.645 54.1231C123.645 54.1517 123.645 54.1802 123.645 54.2087H120.645ZM122.145 52.7087H122.145V55.7087H122.145V52.7087ZM120.645 118.96V54.2087H123.645V118.96H120.645ZM120.645 119.316V118.96H123.645V119.316H120.645ZM122.143 117.816H122.145V120.816H122.143V117.816ZM123.643 119.334C123.545 127.617 120.213 135.54 114.348 141.405L112.227 139.283C117.537 133.973 120.555 126.799 120.643 119.298L123.643 119.334ZM114.348 141.405C108.396 147.357 100.322 150.701 91.9038 150.701V147.701C99.5264 147.701 106.837 144.673 112.227 139.283L114.348 141.405ZM91.9038 150.701C83.4856 150.701 75.4121 147.357 69.4595 141.405L71.5808 139.283C76.9708 144.673 84.2812 147.701 91.9038 147.701V150.701ZM69.4595 141.405C63.595 135.54 60.2623 127.617 60.165 119.334L63.1648 119.298C63.2529 126.799 66.2706 133.973 71.5808 139.283L69.4595 141.405ZM61.6628 117.816H61.6649V120.816H61.6628V117.816ZM63.1628 118.96V119.316H60.1628V118.96H63.1628ZM63.1628 53.1414V118.96H60.1628V53.1414H63.1628ZM61.6817 54.6414H61.6628V51.6414H61.6817V54.6414Z" fill="#1D1E19"/>
<path d="M91.5478 168.769V131.412M91.5478 58.8339V96.5462M91.5478 96.5462L76.6051 81.2478M91.5478 96.5462V115.402M91.5478 115.402L106.846 100.816M91.5478 115.402V131.412M91.5478 131.412L76.6051 117.537" stroke="#1D1E19" stroke-width="3"/>
<path d="M95.3337 167.045L95.4616 167.067H95.5915H133.667H133.974L134.256 166.947C137.042 165.757 139.007 164.178 140.176 162.327C141.357 160.459 141.658 158.418 141.28 156.479C140.624 153.111 137.965 150.159 134.549 148.627C134.97 146.761 134.875 145.049 134.38 143.525C133.768 141.64 132.579 140.15 131.207 139.056C129.839 137.965 128.254 137.236 126.76 136.875C125.762 136.634 124.71 136.535 123.747 136.668C120.849 132.497 117.7 130.061 114.5 129.044C111.053 127.949 107.754 128.566 104.998 130.099C102.265 131.62 100.04 134.049 98.6043 136.683C97.4252 138.845 96.7186 141.259 96.7887 143.528C93.2196 144.566 90.636 146.252 88.9384 148.351C87.0394 150.7 86.3463 153.449 86.5146 156.078C86.8414 161.182 90.4953 166.201 95.3337 167.045Z" fill="#C3DD7C" stroke="#1D1E19" stroke-width="3"/>
<mask id="path-21-inside-3_762_545" fill="white">
<path fill-rule="evenodd" clip-rule="evenodd" d="M751.89 56.6992C752.159 49.0663 755.309 41.8021 760.728 36.3829C766.4 30.7116 774.092 27.5255 782.112 27.5255C790.132 27.5255 797.824 30.7116 803.496 36.3829C808.915 41.8021 812.065 49.0663 812.334 56.6992H812.353V57.6784C812.353 57.7078 812.353 57.7372 812.353 57.7666H812.353V122.518V122.874H812.351C812.258 130.766 809.083 138.314 803.495 143.902C797.824 149.573 790.132 152.759 782.112 152.759C774.091 152.759 766.399 149.573 760.728 143.902C755.141 138.314 751.966 130.766 751.873 122.874H751.871V122.518V56.6992H751.89Z"/>
</mask>
<path fill-rule="evenodd" clip-rule="evenodd" d="M751.89 56.6992C752.159 49.0663 755.309 41.8021 760.728 36.3829C766.4 30.7116 774.092 27.5255 782.112 27.5255C790.132 27.5255 797.824 30.7116 803.496 36.3829C808.915 41.8021 812.065 49.0663 812.334 56.6992H812.353V57.6784C812.353 57.7078 812.353 57.7372 812.353 57.7666H812.353V122.518V122.874H812.351C812.258 130.766 809.083 138.314 803.495 143.902C797.824 149.573 790.132 152.759 782.112 152.759C774.091 152.759 766.399 149.573 760.728 143.902C755.141 138.314 751.966 130.766 751.873 122.874H751.871V122.518V56.6992H751.89Z" fill="#C6DF79"/>
<path d="M760.728 36.3829L758.607 34.2616L758.607 34.2616L760.728 36.3829ZM751.89 56.6992L754.888 56.805L754.786 59.6992H751.89V56.6992ZM803.496 36.3829L801.374 38.5042L801.374 38.5042L803.496 36.3829ZM812.334 56.6992V59.6992H809.438L809.336 56.805L812.334 56.6992ZM812.353 56.6992V53.6992H815.353V56.6992H812.353ZM812.353 57.6784L809.353 57.6871V57.6784H812.353ZM812.353 57.7666H815.353V60.7666H812.353V57.7666ZM812.353 57.7666H809.353V54.7666H812.353V57.7666ZM812.353 122.874H815.353V125.874H812.353V122.874ZM812.351 122.874L809.351 122.838L809.386 119.874H812.351V122.874ZM803.495 143.902L805.617 146.023L805.617 146.023L803.495 143.902ZM760.728 143.902L762.849 141.78L762.849 141.78L760.728 143.902ZM751.873 122.874V119.874H754.838L754.873 122.838L751.873 122.874ZM751.871 122.874V125.874H748.871V122.874H751.871ZM751.871 56.6992H748.871V53.6992H751.871V56.6992ZM762.85 38.5042C757.968 43.3858 755.13 49.9294 754.888 56.805L748.892 56.5934C749.188 48.2033 752.65 40.2184 758.607 34.2616L762.85 38.5042ZM782.112 30.5255C774.887 30.5255 767.958 33.3955 762.85 38.5042L758.607 34.2616C764.841 28.0277 773.296 24.5255 782.112 24.5255V30.5255ZM801.374 38.5042C796.266 33.3955 789.337 30.5255 782.112 30.5255V24.5255C790.928 24.5255 799.383 28.0277 805.617 34.2616L801.374 38.5042ZM809.336 56.805C809.093 49.9294 806.256 43.3858 801.374 38.5042L805.617 34.2616C811.574 40.2184 815.036 48.2033 815.332 56.5934L809.336 56.805ZM812.353 59.6992H812.334V53.6992H812.353V59.6992ZM809.353 57.6784V56.6992H815.353V57.6784H809.353ZM809.353 57.7666C809.353 57.7401 809.353 57.7136 809.353 57.6871L815.353 57.6696C815.353 57.7019 815.353 57.7343 815.353 57.7666H809.353ZM812.353 54.7666H812.353V60.7666H812.353V54.7666ZM809.353 122.518V57.7666H815.353V122.518H809.353ZM809.353 122.874V122.518H815.353V122.874H809.353ZM812.351 119.874H812.353V125.874H812.351V119.874ZM815.351 122.909C815.249 131.584 811.758 139.881 805.617 146.023L801.374 141.78C806.407 136.747 809.267 129.947 809.351 122.838L815.351 122.909ZM805.617 146.023C799.383 152.257 790.928 155.759 782.112 155.759V149.759C789.337 149.759 796.265 146.889 801.374 141.78L805.617 146.023ZM782.112 155.759C773.296 155.759 764.841 152.257 758.607 146.023L762.849 141.78C767.958 146.889 774.887 149.759 782.112 149.759V155.759ZM758.607 146.023C752.465 139.881 748.975 131.584 748.873 122.909L754.873 122.838C754.956 129.947 757.816 136.747 762.849 141.78L758.607 146.023ZM751.871 119.874H751.873V125.874H751.871V119.874ZM754.871 122.518V122.874H748.871V122.518H754.871ZM754.871 56.6992V122.518H748.871V56.6992H754.871ZM751.89 59.6992H751.871V53.6992H751.89V59.6992Z" fill="#1D1E19" mask="url(#path-21-inside-3_762_545)"/>
<path d="M781.756 168.769V131.412M781.756 58.8339V96.5462M781.756 96.5462L766.813 81.2478M781.756 96.5462V115.402M781.756 115.402L797.054 100.816M781.756 115.402V131.412M781.756 131.412L766.813 117.537" stroke="#1D1E19" stroke-width="3"/>
<path d="M796.926 167.045L797.054 167.067H797.184H835.26H835.567L835.849 166.947C838.634 165.757 840.6 164.178 841.769 162.327C842.949 160.459 843.251 158.418 842.873 156.479C842.216 153.111 839.558 150.159 836.141 148.627C836.563 146.761 836.468 145.049 835.973 143.525C835.361 141.64 834.171 140.15 832.799 139.056C831.432 137.965 829.847 137.236 828.353 136.875C827.355 136.634 826.303 136.535 825.34 136.668C822.442 132.497 819.293 130.061 816.093 129.044C812.646 127.949 809.347 128.566 806.591 130.099C803.858 131.62 801.633 134.049 800.197 136.683C799.018 138.845 798.311 141.259 798.381 143.528C794.812 144.566 792.229 146.252 790.531 148.351C788.632 150.7 787.939 153.449 788.107 156.078C788.434 161.182 792.088 166.201 796.926 167.045Z" fill="#5DC27C" stroke="#1D1E19" stroke-width="3"/>
</g>
</g>
<defs>
<clipPath id="clip0_762_545">
<rect width="856" height="192" fill="white"/>
</clipPath>
<clipPath id="clip1_762_545">
<rect width="856" height="217.736" fill="white" transform="translate(0 -23.7067)"/>
</clipPath>
</defs>
</svg>
