<svg width="1203" height="306" viewBox="0 0 1203 306" fill="none" xmlns="http://www.w3.org/2000/svg">
<g clip-path="url(#clip0_271_10)">
<path d="M1097.66 171.735C884.059 -17.4296 744.659 92.9166 701.659 171.735L896.159 272.333L1097.66 171.735Z" fill="#C6DF79" stroke="#1D1E19" stroke-width="5"/>
<path d="M989.659 276.999C768.159 192.995 692.659 133.363 530.159 119.362V276.999H989.659Z" fill="#5DC27C" stroke="#1D1E19" stroke-width="5"/>
<path d="M3.65918 207.736C86.9925 126.844 343.784 -16.6517 665.159 166.55C781.996 233.153 864.108 262.813 917.056 269.221H956.159C945.526 270.981 932.537 271.095 917.056 269.221H3.65918V207.736Z" fill="#C3DD7C"/>
<path d="M3.65918 207.736C86.9925 126.844 343.784 -16.6517 665.159 166.55C816.159 252.628 909.159 277 956.159 269.221H3.65918V207.736Z" stroke="#1D1E19" stroke-width="5"/>
<path d="M848.159 277C980.959 78.2938 1148.16 108.127 1215.16 147.882V277H848.159Z" fill="#8AC636" stroke="#1D1E19" stroke-width="5"/>
<path d="M586.365 18.4525C554.325 32.4698 569.678 62.5063 586.365 62.5063H676.475C703.174 62.5063 704.509 15.1152 664.46 18.4525C661.79 6.17077 650.443 6.2153 645.103 7.77278C619.739 -17.5916 590.37 1.09811 586.365 18.4525Z" fill="#F0E6D1" stroke="#1D1E19" stroke-width="5"/>
<path d="M53.891 71.166C72.1342 79.1474 63.3927 96.2501 53.891 96.2501H2.58262C-12.6197 96.2501 -13.3798 69.2658 9.42374 71.166C10.944 64.1728 17.405 64.1982 20.4455 65.085C34.8879 50.6426 51.6106 61.2845 53.891 71.166Z" fill="#F0E6D1" stroke="#1D1E19" stroke-width="5"/>
<path d="M1224.89 44.1352C1243.13 52.1166 1234.39 69.2193 1224.89 69.2193H1173.58C1158.38 69.2193 1157.62 42.235 1180.42 44.1352C1181.94 37.1421 1188.41 37.1674 1191.45 38.0543C1205.89 23.6119 1222.61 34.2537 1224.89 44.1352Z" fill="#F0E6D1" stroke="#1D1E19" stroke-width="5"/>
<path d="M-17.8408 268.5H1220.16V323.5H-17.8408V268.5Z" fill="#5DC27C" stroke="#1D1E19" stroke-width="5"/>
<path d="M-24.1133 213.396C-28.2003 218.598 -29.1131 225.904 -24.9284 232.632C-26.8635 234.183 -28.6634 236.41 -30.0002 238.89C-31.9414 242.493 -33.1485 247.074 -32.1316 251.667C-31.09 256.372 -27.8106 260.654 -21.63 263.688C-15.531 266.681 -6.55552 268.5 6.19527 268.5H110.844C119.33 268.5 125.459 266.365 129.297 262.703C133.193 258.985 134.376 254.027 133.586 249.253C132.189 240.81 124.599 232.568 114.232 231.065C115.467 226.581 115.432 222.521 114.406 218.975C113.147 214.62 110.453 211.241 107.196 208.912C103.956 206.594 100.114 205.282 96.4294 205.053C94.2631 204.919 92.0736 205.157 90.0681 205.845C89.3547 200.349 87.1693 195.943 83.9692 192.644C80.053 188.606 74.7996 186.409 69.3817 185.732C59.7949 184.533 48.9341 188.047 43.0925 195.664C31.3372 184.798 19.4143 183.653 10.0941 187.646C1.66059 191.26 -4.44925 199.066 -5.79392 206.753C-13.307 205.426 -20.1429 208.343 -24.1133 213.396Z" fill="#8AC636" stroke="#1D1E19" stroke-width="5"/>
<mask id="path-11-inside-1_271_10" fill="white">
<path fill-rule="evenodd" clip-rule="evenodd" d="M859.42 146C858.397 136.383 854.114 127.35 847.211 120.448C839.241 112.478 828.431 108 817.159 108C805.887 108 795.077 112.478 787.107 120.448C780.205 127.35 775.922 136.383 774.898 146H774.659V150.5V205.5V206H774.662C774.792 217.091 779.255 227.7 787.107 235.552C795.077 243.522 805.887 248 817.159 248C828.431 248 839.241 243.522 847.211 235.552C855.064 227.7 859.526 217.091 859.656 206H859.659V205.5V150.5V146H859.42Z"/>
</mask>
<path fill-rule="evenodd" clip-rule="evenodd" d="M859.42 146C858.397 136.383 854.114 127.35 847.211 120.448C839.241 112.478 828.431 108 817.159 108C805.887 108 795.077 112.478 787.107 120.448C780.205 127.35 775.922 136.383 774.898 146H774.659V150.5V205.5V206H774.662C774.792 217.091 779.255 227.7 787.107 235.552C795.077 243.522 805.887 248 817.159 248C828.431 248 839.241 243.522 847.211 235.552C855.064 227.7 859.526 217.091 859.656 206H859.659V205.5V150.5V146H859.42Z" fill="#C3DD7C"/>
<path d="M847.211 120.448L850.747 116.912L850.747 116.912L847.211 120.448ZM859.42 146L854.449 146.529L854.924 151H859.42V146ZM787.107 120.448L783.572 116.912L783.572 116.912L787.107 120.448ZM774.898 146V151H779.394L779.87 146.529L774.898 146ZM774.659 146V141H769.659V146H774.659ZM774.659 206H769.659V211H774.659V206ZM774.662 206L779.662 205.941L779.604 201H774.662V206ZM787.107 235.552L783.572 239.088L783.572 239.088L787.107 235.552ZM847.211 235.552L850.747 239.088L847.211 235.552ZM859.656 206V201H854.715L854.657 205.941L859.656 206ZM859.659 206V211H864.659V206H859.659ZM859.659 146H864.659V141H859.659V146ZM843.676 123.983C849.766 130.074 853.545 138.043 854.449 146.529L864.392 145.471C863.248 134.722 858.461 124.627 850.747 116.912L843.676 123.983ZM817.159 113C827.105 113 836.643 116.951 843.676 123.983L850.747 116.912C841.839 108.004 829.757 103 817.159 103V113ZM790.643 123.983C797.675 116.951 807.214 113 817.159 113V103C804.561 103 792.48 108.004 783.572 116.912L790.643 123.983ZM779.87 146.529C780.773 138.043 784.552 130.074 790.643 123.983L783.572 116.912C775.857 124.627 771.07 134.722 769.926 145.471L779.87 146.529ZM774.659 151H774.898V141H774.659V151ZM779.659 150.5V146H769.659V150.5H779.659ZM779.659 205.5V150.5H769.659V205.5H779.659ZM779.659 206V205.5H769.659V206H779.659ZM774.662 201H774.659V211H774.662V201ZM769.662 206.059C769.808 218.455 774.795 230.311 783.572 239.088L790.643 232.017C783.714 225.088 779.777 215.727 779.662 205.941L769.662 206.059ZM783.572 239.088C792.48 247.996 804.561 253 817.159 253V243C807.214 243 797.675 239.049 790.643 232.017L783.572 239.088ZM817.159 253C829.757 253 841.839 247.996 850.747 239.088L843.676 232.017C836.643 239.049 827.105 243 817.159 243V253ZM850.747 239.088C859.523 230.311 864.51 218.455 864.656 206.059L854.657 205.941C854.542 215.727 850.604 225.088 843.676 232.017L850.747 239.088ZM859.659 201H859.656V211H859.659V201ZM854.659 205.5V206H864.659V205.5H854.659ZM854.659 150.5V205.5H864.659V150.5H854.659ZM854.659 146V150.5H864.659V146H854.659ZM859.42 151H859.659V141H859.42V151Z" fill="#1D1E19" mask="url(#path-11-inside-1_271_10)"/>
<path d="M817.159 270.5V218M817.159 146V169V195.5M817.159 195.5L795.659 175M817.159 195.5V218M817.159 218L838.159 198.5" stroke="#1D1E19" stroke-width="5"/>
<mask id="path-14-inside-2_271_10" fill="white">
<path fill-rule="evenodd" clip-rule="evenodd" d="M792.633 113C792.254 102.273 787.827 92.064 780.211 84.448C772.241 76.4777 761.431 72 750.159 72C738.887 72 728.077 76.4777 720.107 84.448C712.491 92.064 708.064 102.273 707.686 113H707.659V114.5V205.5V206H707.662C707.792 217.091 712.255 227.7 720.107 235.552C728.077 243.522 738.887 248 750.159 248C761.431 248 772.241 243.522 780.211 235.552C788.064 227.7 792.526 217.091 792.656 206H792.659V205.5V114.5V113H792.633Z"/>
</mask>
<path fill-rule="evenodd" clip-rule="evenodd" d="M792.633 113C792.254 102.273 787.827 92.064 780.211 84.448C772.241 76.4777 761.431 72 750.159 72C738.887 72 728.077 76.4777 720.107 84.448C712.491 92.064 708.064 102.273 707.686 113H707.659V114.5V205.5V206H707.662C707.792 217.091 712.255 227.7 720.107 235.552C728.077 243.522 738.887 248 750.159 248C761.431 248 772.241 243.522 780.211 235.552C788.064 227.7 792.526 217.091 792.656 206H792.659V205.5V114.5V113H792.633Z" fill="#8AC636"/>
<path d="M780.211 84.448L783.747 80.9124L783.747 80.9124L780.211 84.448ZM792.633 113L787.636 113.176L787.806 118H792.633V113ZM720.107 84.448L716.572 80.9124L716.572 80.9124L720.107 84.448ZM707.686 113V118H712.512L712.683 113.176L707.686 113ZM707.659 113V108H702.659V113H707.659ZM707.659 206H702.659V211H707.659V206ZM707.662 206L712.662 205.941L712.604 201H707.662V206ZM720.107 235.552L716.572 239.088L716.572 239.088L720.107 235.552ZM780.211 235.552L783.747 239.088L780.211 235.552ZM792.656 206V201H787.715L787.657 205.941L792.656 206ZM792.659 206V211H797.659V206H792.659ZM792.659 113H797.659V108H792.659V113ZM776.676 87.9835C783.396 94.7035 787.302 103.711 787.636 113.176L797.63 112.824C797.207 100.834 792.259 89.4245 783.747 80.9124L776.676 87.9835ZM750.159 77C760.105 77 769.643 80.9509 776.676 87.9835L783.747 80.9124C774.839 72.0045 762.757 67 750.159 67V77ZM723.643 87.9835C730.675 80.9509 740.214 77 750.159 77V67C737.561 67 725.48 72.0044 716.572 80.9124L723.643 87.9835ZM712.683 113.176C713.016 103.711 716.923 94.7035 723.643 87.9835L716.572 80.9124C708.06 89.4245 703.112 100.834 702.689 112.824L712.683 113.176ZM707.659 118H707.686V108H707.659V118ZM712.659 114.5V113H702.659V114.5H712.659ZM712.659 205.5V114.5H702.659V205.5H712.659ZM712.659 206V205.5H702.659V206H712.659ZM707.662 201H707.659V211H707.662V201ZM702.662 206.059C702.808 218.455 707.795 230.311 716.572 239.088L723.643 232.017C716.714 225.088 712.777 215.727 712.662 205.941L702.662 206.059ZM716.572 239.088C725.48 247.996 737.561 253 750.159 253V243C740.214 243 730.675 239.049 723.643 232.017L716.572 239.088ZM750.159 253C762.757 253 774.839 247.996 783.747 239.088L776.676 232.017C769.643 239.049 760.105 243 750.159 243V253ZM783.747 239.088C792.523 230.311 797.51 218.455 797.656 206.059L787.657 205.941C787.542 215.727 783.604 225.088 776.676 232.017L783.747 239.088ZM792.659 201H792.656V211H792.659V201ZM787.659 205.5V206H797.659V205.5H787.659ZM787.659 114.5V205.5H797.659V114.5H787.659ZM787.659 113V114.5H797.659V113H787.659ZM792.633 118H792.659V108H792.633V118Z" fill="#1D1E19" mask="url(#path-14-inside-2_271_10)"/>
<path d="M750.159 270.5V218M750.159 116V169M750.159 169L771.159 147.5M750.159 169V195.5M750.159 195.5L728.659 175M750.159 195.5V218M750.159 218L771.159 198.5" stroke="#1D1E19" stroke-width="5"/>
<path fill-rule="evenodd" clip-rule="evenodd" d="M86.6856 108C87.0641 97.273 91.4911 87.064 99.1071 79.448C107.077 71.4777 117.887 67 129.159 67C140.431 67 151.241 71.4777 159.211 79.448C166.827 87.064 171.254 97.273 171.633 108H171.659V109.5V200.5V201H171.656C171.526 212.091 167.064 222.7 159.211 230.552C151.241 238.522 140.431 243 129.159 243C117.887 243 107.077 238.522 99.1071 230.552C91.2548 222.7 86.7924 212.091 86.6621 201H86.6592V200.5V109.5V108H86.6856Z" fill="#5DC27C"/>
<path d="M99.1071 79.448L97.3394 77.6802L97.3394 77.6802L99.1071 79.448ZM86.6856 108L89.1841 108.088L89.099 110.5H86.6856V108ZM159.211 79.448L160.979 77.6802L160.979 77.6802L159.211 79.448ZM171.633 108V110.5H169.219L169.134 108.088L171.633 108ZM171.659 108V105.5H174.159V108H171.659ZM171.659 201H174.159V203.5H171.659V201ZM171.656 201L169.156 200.971L169.185 198.5H171.656V201ZM159.211 230.552L160.979 232.32L160.979 232.32L159.211 230.552ZM99.1071 230.552L97.3394 232.32L99.1071 230.552ZM86.6621 201V198.5H89.1329L89.1619 200.971L86.6621 201ZM86.6592 201V203.5H84.1592V201H86.6592ZM86.6592 108H84.1592V105.5H86.6592V108ZM100.875 81.2157C93.7069 88.3838 89.5403 97.9922 89.1841 108.088L84.1872 107.912C84.5879 96.5537 89.2753 85.7443 97.3394 77.6802L100.875 81.2157ZM129.159 69.5C118.551 69.5 108.376 73.7143 100.875 81.2157L97.3394 77.6802C105.779 69.2411 117.224 64.5 129.159 64.5V69.5ZM157.443 81.2157C149.942 73.7143 139.768 69.5 129.159 69.5V64.5C141.094 64.5 152.54 69.2411 160.979 77.6802L157.443 81.2157ZM169.134 108.088C168.778 97.9922 164.611 88.3838 157.443 81.2157L160.979 77.6802C169.043 85.7443 173.73 96.5537 174.131 107.912L169.134 108.088ZM171.659 110.5H171.633V105.5H171.659V110.5ZM169.159 109.5V108H174.159V109.5H169.159ZM169.159 200.5V109.5H174.159V200.5H169.159ZM169.159 201V200.5H174.159V201H169.159ZM171.656 198.5H171.659V203.5H171.656V198.5ZM174.156 201.029C174.018 212.773 169.293 224.006 160.979 232.32L157.443 228.784C164.834 221.394 169.034 211.409 169.156 200.971L174.156 201.029ZM160.979 232.32C152.54 240.759 141.094 245.5 129.159 245.5V240.5C139.768 240.5 149.942 236.286 157.443 228.784L160.979 232.32ZM129.159 245.5C117.224 245.5 105.779 240.759 97.3394 232.32L100.875 228.784C108.376 236.286 118.551 240.5 129.159 240.5V245.5ZM97.3394 232.32C89.0251 224.006 84.3003 212.773 84.1623 201.029L89.1619 200.971C89.2846 211.409 93.4845 221.394 100.875 228.784L97.3394 232.32ZM86.6592 198.5H86.6621V203.5H86.6592V198.5ZM89.1592 200.5V201H84.1592V200.5H89.1592ZM89.1592 109.5V200.5H84.1592V109.5H89.1592ZM89.1592 108V109.5H84.1592V108H89.1592ZM86.6856 110.5H86.6592V105.5H86.6856V110.5Z" fill="#1D1E19"/>
<path d="M128.659 270.5V218M128.659 116V169M128.659 169L107.659 147.5M128.659 169V195.5M128.659 195.5L150.159 175M128.659 195.5V218M128.659 218L107.659 198.5" stroke="#1D1E19" stroke-width="5"/>
<path d="M133.912 268.463L134.125 268.5H134.342H187.853H188.364L188.834 268.299C192.801 266.606 195.635 264.341 197.331 261.657C199.046 258.942 199.485 255.972 198.936 253.154C198.004 248.37 194.3 244.2 189.541 241.968C190.069 239.402 189.918 237.03 189.227 234.901C188.339 232.167 186.615 230.012 184.639 228.435C182.67 226.865 180.389 225.816 178.237 225.296C176.888 224.97 175.448 224.82 174.098 224.968C170.027 219.175 165.585 215.744 161.034 214.298C156.072 212.721 151.323 213.613 147.371 215.812C143.457 217.99 140.28 221.462 138.232 225.219C136.604 228.205 135.595 231.55 135.626 234.737C130.697 236.219 127.086 238.592 124.687 241.559C121.95 244.945 120.952 248.907 121.194 252.689C121.662 259.997 126.892 267.238 133.912 268.463Z" fill="#C3DD7C" stroke="#1D1E19" stroke-width="5"/>
<mask id="path-21-inside-3_271_10" fill="white">
<path fill-rule="evenodd" clip-rule="evenodd" d="M1056.69 113C1057.06 102.273 1061.49 92.064 1069.11 84.448C1077.08 76.4777 1087.89 72 1099.16 72C1110.43 72 1121.24 76.4777 1129.21 84.448C1136.83 92.064 1141.25 102.273 1141.63 113H1141.66V114.5V205.5V206H1141.66C1141.53 217.091 1137.06 227.7 1129.21 235.552C1121.24 243.522 1110.43 248 1099.16 248C1087.89 248 1077.08 243.522 1069.11 235.552C1061.25 227.7 1056.79 217.091 1056.66 206H1056.66V205.5V114.5V113H1056.69Z"/>
</mask>
<path fill-rule="evenodd" clip-rule="evenodd" d="M1056.69 113C1057.06 102.273 1061.49 92.064 1069.11 84.448C1077.08 76.4777 1087.89 72 1099.16 72C1110.43 72 1121.24 76.4777 1129.21 84.448C1136.83 92.064 1141.25 102.273 1141.63 113H1141.66V114.5V205.5V206H1141.66C1141.53 217.091 1137.06 227.7 1129.21 235.552C1121.24 243.522 1110.43 248 1099.16 248C1087.89 248 1077.08 243.522 1069.11 235.552C1061.25 227.7 1056.79 217.091 1056.66 206H1056.66V205.5V114.5V113H1056.69Z" fill="#C6DF79"/>
<path d="M1069.11 84.448L1065.57 80.9124L1065.57 80.9124L1069.11 84.448ZM1056.69 113L1061.68 113.176L1061.51 118H1056.69V113ZM1129.21 84.448L1132.75 80.9124L1132.75 80.9124L1129.21 84.448ZM1141.63 113V118H1136.81L1136.64 113.176L1141.63 113ZM1141.66 113V108H1146.66V113H1141.66ZM1141.66 206H1146.66V211H1141.66V206ZM1141.66 206L1136.66 205.941L1136.71 201H1141.66V206ZM1129.21 235.552L1132.75 239.088L1132.75 239.088L1129.21 235.552ZM1069.11 235.552L1065.57 239.088L1069.11 235.552ZM1056.66 206V201H1061.6L1061.66 205.941L1056.66 206ZM1056.66 206V211H1051.66V206H1056.66ZM1056.66 113H1051.66V108H1056.66V113ZM1072.64 87.9835C1065.92 94.7035 1062.02 103.711 1061.68 113.176L1051.69 112.824C1052.11 100.834 1057.06 89.4245 1065.57 80.9124L1072.64 87.9835ZM1099.16 77C1089.21 77 1079.68 80.9509 1072.64 87.9835L1065.57 80.9124C1074.48 72.0045 1086.56 67 1099.16 67V77ZM1125.68 87.9835C1118.64 80.9509 1109.1 77 1099.16 77V67C1111.76 67 1123.84 72.0044 1132.75 80.9124L1125.68 87.9835ZM1136.64 113.176C1136.3 103.711 1132.4 94.7035 1125.68 87.9835L1132.75 80.9124C1141.26 89.4245 1146.21 100.834 1146.63 112.824L1136.64 113.176ZM1141.66 118H1141.63V108H1141.66V118ZM1136.66 114.5V113H1146.66V114.5H1136.66ZM1136.66 205.5V114.5H1146.66V205.5H1136.66ZM1136.66 206V205.5H1146.66V206H1136.66ZM1141.66 201H1141.66V211H1141.66V201ZM1146.66 206.059C1146.51 218.455 1141.52 230.311 1132.75 239.088L1125.68 232.017C1132.6 225.088 1136.54 215.727 1136.66 205.941L1146.66 206.059ZM1132.75 239.088C1123.84 247.996 1111.76 253 1099.16 253V243C1109.1 243 1118.64 239.049 1125.68 232.017L1132.75 239.088ZM1099.16 253C1086.56 253 1074.48 247.996 1065.57 239.088L1072.64 232.017C1079.68 239.049 1089.21 243 1099.16 243V253ZM1065.57 239.088C1056.8 230.311 1051.81 218.455 1051.66 206.059L1061.66 205.941C1061.78 215.727 1065.71 225.088 1072.64 232.017L1065.57 239.088ZM1056.66 201H1056.66V211H1056.66V201ZM1061.66 205.5V206H1051.66V205.5H1061.66ZM1061.66 114.5V205.5H1051.66V114.5H1061.66ZM1061.66 113V114.5H1051.66V113H1061.66ZM1056.69 118H1056.66V108H1056.69V118Z" fill="#1D1E19" mask="url(#path-21-inside-3_271_10)"/>
<path d="M1098.66 270.5V218M1098.66 116V169M1098.66 169L1077.66 147.5M1098.66 169V195.5M1098.66 195.5L1120.16 175M1098.66 195.5V218M1098.66 218L1077.66 198.5" stroke="#1D1E19" stroke-width="5"/>
<path d="M1119.91 268.463L1120.13 268.5H1120.34H1173.85H1174.36L1174.83 268.299C1178.8 266.606 1181.63 264.341 1183.33 261.657C1185.05 258.942 1185.49 255.972 1184.94 253.154C1184 248.37 1180.3 244.2 1175.54 241.968C1176.07 239.402 1175.92 237.03 1175.23 234.901C1174.34 232.167 1172.62 230.012 1170.64 228.435C1168.67 226.865 1166.39 225.816 1164.24 225.296C1162.89 224.97 1161.45 224.82 1160.1 224.968C1156.03 219.175 1151.59 215.744 1147.03 214.298C1142.07 212.721 1137.32 213.613 1133.37 215.812C1129.46 217.99 1126.28 221.462 1124.23 225.219C1122.6 228.205 1121.59 231.55 1121.63 234.737C1116.7 236.219 1113.09 238.592 1110.69 241.559C1107.95 244.945 1106.95 248.907 1107.19 252.689C1107.66 259.997 1112.89 267.238 1119.91 268.463Z" fill="#5DC27C" stroke="#1D1E19" stroke-width="5"/>
</g>
<defs>
<clipPath id="clip0_271_10">
<rect width="1203" height="306" fill="white"/>
</clipPath>
</defs>
</svg>
