<svg width="1212" height="288" viewBox="0 0 1212 288" fill="none" xmlns="http://www.w3.org/2000/svg">
<g clip-path="url(#clip0_205_6)">
<path d="M1097.66 153.735C884.059 -35.4296 744.659 74.9166 701.659 153.735L896.159 254.333L1097.66 153.735Z" fill="#C6DF79" stroke="#1D1E19" stroke-width="5"/>
<path d="M989.659 258.999C768.159 174.995 692.659 115.363 530.159 101.362V258.999H989.659Z" fill="#5DC27C" stroke="#1D1E19" stroke-width="5"/>
<path d="M3.65918 189.736C86.9925 108.844 343.784 -34.6517 665.159 148.55C781.996 215.153 864.108 244.813 917.056 251.221H956.159C945.526 252.981 932.537 253.095 917.056 251.221H3.65918V189.736Z" fill="#C3DD7C" stroke="#1D1E19" stroke-width="5"/>
<path d="M848.159 259C980.959 60.2938 1148.16 90.1274 1215.16 129.882V259H848.159Z" fill="#8AC636" stroke="#1D1E19" stroke-width="5"/>
<path d="M586.365 43.4525C554.325 57.4698 569.678 87.5063 586.365 87.5063H676.475C703.174 87.5063 704.509 40.1152 664.46 43.4525C661.79 31.1708 650.443 31.2153 645.103 32.7728C619.739 7.4084 590.37 26.0981 586.365 43.4525Z" fill="#F0E6D1" stroke="#1D1E19" stroke-width="5"/>
<path d="M53.891 53.166C72.1342 61.1474 63.3927 78.2501 53.891 78.2501H2.58262C-12.6197 78.2501 -13.3798 51.2658 9.42374 53.166C10.944 46.1728 17.405 46.1982 20.4455 47.085C34.8879 32.6426 51.6106 43.2845 53.891 53.166Z" fill="#F0E6D1" stroke="#1D1E19" stroke-width="5"/>
<path d="M1224.89 26.1352C1243.13 34.1166 1234.39 51.2193 1224.89 51.2193H1173.58C1158.38 51.2193 1157.62 24.235 1180.42 26.1352C1181.94 19.1421 1188.41 19.1674 1191.45 20.0543C1205.89 5.61185 1222.61 16.2537 1224.89 26.1352Z" fill="#F0E6D1" stroke="#1D1E19" stroke-width="5"/>
<path d="M-17.8408 250.5H1220.16V305.5H-17.8408V250.5Z" fill="#5DC27C" stroke="#1D1E19" stroke-width="5"/>
<path d="M-24.1133 195.396C-28.2003 200.598 -29.1131 207.904 -24.9284 214.632C-26.8635 216.183 -28.6634 218.41 -30.0002 220.89C-31.9414 224.493 -33.1485 229.074 -32.1316 233.667C-31.09 238.372 -27.8106 242.654 -21.63 245.688C-15.531 248.681 -6.55552 250.5 6.19527 250.5H110.844C119.33 250.5 125.459 248.365 129.297 244.703C133.193 240.985 134.376 236.027 133.586 231.253C132.189 222.81 124.599 214.568 114.232 213.065C115.467 208.581 115.432 204.521 114.406 200.975C113.147 196.62 110.453 193.241 107.196 190.912C103.956 188.594 100.114 187.282 96.4294 187.053C94.2631 186.919 92.0736 187.157 90.0681 187.845C89.3547 182.349 87.1693 177.943 83.9692 174.644C80.053 170.606 74.7996 168.409 69.3817 167.732C59.7949 166.533 48.9341 170.047 43.0925 177.664C31.3372 166.798 19.4143 165.653 10.0941 169.646C1.66059 173.26 -4.44925 181.066 -5.79392 188.753C-13.307 187.426 -20.1429 190.343 -24.1133 195.396Z" fill="#8AC636" stroke="#1D1E19" stroke-width="5"/>
<mask id="path-10-inside-1_205_6" fill="white">
<path fill-rule="evenodd" clip-rule="evenodd" d="M859.42 128C858.397 118.383 854.114 109.35 847.211 102.448C839.241 94.4777 828.431 90 817.159 90C805.887 90 795.077 94.4777 787.107 102.448C780.205 109.35 775.922 118.383 774.898 128H774.659V132.5V187.5V188H774.662C774.792 199.091 779.255 209.7 787.107 217.552C795.077 225.522 805.887 230 817.159 230C828.431 230 839.241 225.522 847.211 217.552C855.064 209.7 859.526 199.091 859.656 188H859.659V187.5V132.5V128H859.42Z"/>
</mask>
<path fill-rule="evenodd" clip-rule="evenodd" d="M859.42 128C858.397 118.383 854.114 109.35 847.211 102.448C839.241 94.4777 828.431 90 817.159 90C805.887 90 795.077 94.4777 787.107 102.448C780.205 109.35 775.922 118.383 774.898 128H774.659V132.5V187.5V188H774.662C774.792 199.091 779.255 209.7 787.107 217.552C795.077 225.522 805.887 230 817.159 230C828.431 230 839.241 225.522 847.211 217.552C855.064 209.7 859.526 199.091 859.656 188H859.659V187.5V132.5V128H859.42Z" fill="#C3DD7C"/>
<path d="M847.211 102.448L850.747 98.9124L850.747 98.9124L847.211 102.448ZM859.42 128L854.449 128.529L854.924 133H859.42V128ZM787.107 102.448L790.643 105.983L790.643 105.983L787.107 102.448ZM774.898 128V133H779.394L779.87 128.529L774.898 128ZM774.659 128V123H769.659V128H774.659ZM774.659 188H769.659V193H774.659V188ZM774.662 188L779.662 187.941L779.604 183H774.662V188ZM787.107 217.552L790.643 214.017L790.643 214.017L787.107 217.552ZM847.211 217.552L850.747 221.088L850.747 221.088L847.211 217.552ZM859.656 188V183H854.715L854.657 187.941L859.656 188ZM859.659 188V193H864.659V188H859.659ZM859.659 128H864.659V123H859.659V128ZM843.676 105.983C849.766 112.074 853.545 120.043 854.449 128.529L864.392 127.471C863.248 116.722 858.461 106.627 850.747 98.9124L843.676 105.983ZM817.159 95C827.105 95 836.643 98.9509 843.676 105.983L850.747 98.9124C841.839 90.0045 829.757 85 817.159 85V95ZM790.643 105.983C797.675 98.9509 807.214 95 817.159 95V85C804.561 85 792.48 90.0044 783.572 98.9124L790.643 105.983ZM779.87 128.529C780.773 120.043 784.552 112.074 790.643 105.983L783.572 98.9124C775.857 106.627 771.07 116.722 769.926 127.471L779.87 128.529ZM774.659 133H774.898V123H774.659V133ZM779.659 132.5V128H769.659V132.5H779.659ZM779.659 187.5V132.5H769.659V187.5H779.659ZM779.659 188V187.5H769.659V188H779.659ZM774.662 183H774.659V193H774.662V183ZM769.662 188.059C769.808 200.455 774.795 212.311 783.572 221.088L790.643 214.017C783.714 207.088 779.777 197.727 779.662 187.941L769.662 188.059ZM783.572 221.088C792.48 229.996 804.561 235 817.159 235V225C807.214 225 797.675 221.049 790.643 214.017L783.572 221.088ZM817.159 235C829.757 235 841.839 229.996 850.747 221.088L843.676 214.017C836.643 221.049 827.105 225 817.159 225V235ZM850.747 221.088C859.523 212.311 864.51 200.455 864.656 188.059L854.657 187.941C854.542 197.727 850.604 207.088 843.676 214.017L850.747 221.088ZM859.659 183H859.656V193H859.659V183ZM854.659 187.5V188H864.659V187.5H854.659ZM854.659 132.5V187.5H864.659V132.5H854.659ZM854.659 128V132.5H864.659V128H854.659ZM859.42 133H859.659V123H859.42V133Z" fill="#1D1E19" mask="url(#path-10-inside-1_205_6)"/>
<path d="M817.159 252.5V200M817.159 128V151V177.5M817.159 177.5L795.659 157M817.159 177.5V200M817.159 200L838.159 180.5" stroke="#1D1E19" stroke-width="5"/>
<mask id="path-13-inside-2_205_6" fill="white">
<path fill-rule="evenodd" clip-rule="evenodd" d="M792.633 95C792.254 84.273 787.827 74.064 780.211 66.448C772.241 58.4777 761.431 54 750.159 54C738.887 54 728.077 58.4777 720.107 66.448C712.491 74.064 708.064 84.273 707.686 95H707.659V96.5V187.5V188H707.662C707.792 199.091 712.255 209.7 720.107 217.552C728.077 225.522 738.887 230 750.159 230C761.431 230 772.241 225.522 780.211 217.552C788.064 209.7 792.526 199.091 792.656 188H792.659V187.5V96.5V95H792.633Z"/>
</mask>
<path fill-rule="evenodd" clip-rule="evenodd" d="M792.633 95C792.254 84.273 787.827 74.064 780.211 66.448C772.241 58.4777 761.431 54 750.159 54C738.887 54 728.077 58.4777 720.107 66.448C712.491 74.064 708.064 84.273 707.686 95H707.659V96.5V187.5V188H707.662C707.792 199.091 712.255 209.7 720.107 217.552C728.077 225.522 738.887 230 750.159 230C761.431 230 772.241 225.522 780.211 217.552C788.064 209.7 792.526 199.091 792.656 188H792.659V187.5V96.5V95H792.633Z" fill="#8AC636"/>
<path d="M780.211 66.448L783.747 62.9124L783.747 62.9124L780.211 66.448ZM792.633 95L787.636 95.1763L787.806 100H792.633V95ZM720.107 66.448L723.643 69.9835L720.107 66.448ZM707.686 95V100H712.512L712.683 95.1763L707.686 95ZM707.659 95V90H702.659V95H707.659ZM707.659 188H702.659V193H707.659V188ZM707.662 188L712.662 187.941L712.604 183H707.662V188ZM720.107 217.552L716.572 221.088L716.572 221.088L720.107 217.552ZM780.211 217.552L783.747 221.088L780.211 217.552ZM792.656 188V183H787.715L787.657 187.941L792.656 188ZM792.659 188V193H797.659V188H792.659ZM792.659 95H797.659V90H792.659V95ZM776.676 69.9835C783.396 76.7035 787.302 85.7115 787.636 95.1763L797.63 94.8237C797.207 82.8345 792.259 71.4245 783.747 62.9124L776.676 69.9835ZM750.159 59C760.105 59 769.643 62.9509 776.676 69.9835L783.747 62.9124C774.839 54.0045 762.757 49 750.159 49V59ZM723.643 69.9835C730.675 62.9509 740.214 59 750.159 59V49C737.561 49 725.48 54.0044 716.572 62.9124L723.643 69.9835ZM712.683 95.1763C713.016 85.7115 716.923 76.7035 723.643 69.9835L716.572 62.9124C708.06 71.4245 703.112 82.8345 702.689 94.8237L712.683 95.1763ZM707.659 100H707.686V90H707.659V100ZM712.659 96.5V95H702.659V96.5H712.659ZM712.659 187.5V96.5H702.659V187.5H712.659ZM712.659 188V187.5H702.659V188H712.659ZM707.662 183H707.659V193H707.662V183ZM702.662 188.059C702.808 200.455 707.795 212.311 716.572 221.088L723.643 214.017C716.714 207.088 712.777 197.727 712.662 187.941L702.662 188.059ZM716.572 221.088C725.48 229.996 737.561 235 750.159 235V225C740.214 225 730.675 221.049 723.643 214.017L716.572 221.088ZM750.159 235C762.757 235 774.839 229.996 783.747 221.088L776.676 214.017C769.643 221.049 760.105 225 750.159 225V235ZM783.747 221.088C792.523 212.311 797.51 200.455 797.656 188.059L787.657 187.941C787.542 197.727 783.604 207.088 776.676 214.017L783.747 221.088ZM792.659 183H792.656V193H792.659V183ZM787.659 187.5V188H797.659V187.5H787.659ZM787.659 96.5V187.5H797.659V96.5H787.659ZM787.659 95V96.5H797.659V95H787.659ZM792.633 100H792.659V90H792.633V100Z" fill="#1D1E19" mask="url(#path-13-inside-2_205_6)"/>
<path d="M750.159 252.5V200M750.159 98V151M750.159 151L771.159 129.5M750.159 151V177.5M750.159 177.5L728.659 157M750.159 177.5V200M750.159 200L771.159 180.5" stroke="#1D1E19" stroke-width="5"/>
<path fill-rule="evenodd" clip-rule="evenodd" d="M86.6856 90C87.0641 79.273 91.4911 69.064 99.1071 61.448C107.077 53.4777 117.887 49 129.159 49C140.431 49 151.241 53.4777 159.211 61.448C166.827 69.064 171.254 79.273 171.633 90H171.659V91.5V182.5V183H171.656C171.526 194.091 167.064 204.7 159.211 212.552C151.241 220.522 140.431 225 129.159 225C117.887 225 107.077 220.522 99.1071 212.552C91.2548 204.7 86.7924 194.091 86.6621 183H86.6592V182.5V91.5V90H86.6856Z" fill="#5DC27C"/>
<path d="M99.1071 61.448L97.3394 59.6802L97.3394 59.6802L99.1071 61.448ZM86.6856 90L89.1841 90.0882L89.099 92.5H86.6856V90ZM159.211 61.448L157.443 63.2157L159.211 61.448ZM171.633 90V92.5H169.219L169.134 90.0882L171.633 90ZM171.659 90V87.5H174.159V90H171.659ZM171.659 183H174.159V185.5H171.659V183ZM171.656 183L169.156 182.971L169.185 180.5H171.656V183ZM159.211 212.552L160.979 214.32L160.979 214.32L159.211 212.552ZM99.1071 212.552L97.3394 214.32L99.1071 212.552ZM86.6621 183V180.5H89.1329L89.1619 182.971L86.6621 183ZM86.6592 183V185.5H84.1592V183H86.6592ZM86.6592 90H84.1592V87.5H86.6592V90ZM100.875 63.2157C93.7069 70.3838 89.5403 79.9922 89.1841 90.0882L84.1872 89.9118C84.5879 78.5537 89.2753 67.7443 97.3394 59.6802L100.875 63.2157ZM129.159 51.5C118.551 51.5 108.376 55.7143 100.875 63.2157L97.3394 59.6802C105.779 51.2411 117.224 46.5 129.159 46.5V51.5ZM157.443 63.2157C149.942 55.7143 139.768 51.5 129.159 51.5V46.5C141.094 46.5 152.54 51.2411 160.979 59.6802L157.443 63.2157ZM169.134 90.0882C168.778 79.9922 164.611 70.3838 157.443 63.2157L160.979 59.6802C169.043 67.7443 173.73 78.5537 174.131 89.9118L169.134 90.0882ZM171.659 92.5H171.633V87.5H171.659V92.5ZM169.159 91.5V90H174.159V91.5H169.159ZM169.159 182.5V91.5H174.159V182.5H169.159ZM169.159 183V182.5H174.159V183H169.159ZM171.656 180.5H171.659V185.5H171.656V180.5ZM174.156 183.029C174.018 194.773 169.293 206.006 160.979 214.32L157.443 210.784C164.834 203.394 169.034 193.409 169.156 182.971L174.156 183.029ZM160.979 214.32C152.54 222.759 141.094 227.5 129.159 227.5V222.5C139.768 222.5 149.942 218.286 157.443 210.784L160.979 214.32ZM129.159 227.5C117.224 227.5 105.779 222.759 97.3394 214.32L100.875 210.784C108.376 218.286 118.551 222.5 129.159 222.5V227.5ZM97.3394 214.32C89.0251 206.006 84.3003 194.773 84.1623 183.029L89.1619 182.971C89.2846 193.409 93.4845 203.394 100.875 210.784L97.3394 214.32ZM86.6592 180.5H86.6621V185.5H86.6592V180.5ZM89.1592 182.5V183H84.1592V182.5H89.1592ZM89.1592 91.5V182.5H84.1592V91.5H89.1592ZM89.1592 90V91.5H84.1592V90H89.1592ZM86.6856 92.5H86.6592V87.5H86.6856V92.5Z" fill="#1D1E19"/>
<path d="M128.659 252.5V200M128.659 98V151M128.659 151L107.659 129.5M128.659 151V177.5M128.659 177.5L150.159 157M128.659 177.5V200M128.659 200L107.659 180.5" stroke="#1D1E19" stroke-width="5"/>
<path d="M133.912 250.463L134.125 250.5H134.342H187.853H188.364L188.834 250.299C192.801 248.606 195.635 246.341 197.331 243.657C199.046 240.942 199.485 237.972 198.936 235.154C198.004 230.37 194.3 226.2 189.541 223.968C190.069 221.402 189.918 219.03 189.227 216.901C188.339 214.167 186.615 212.012 184.639 210.435C182.67 208.865 180.389 207.816 178.237 207.296C176.888 206.97 175.448 206.82 174.098 206.968C170.027 201.175 165.585 197.744 161.034 196.298C156.072 194.721 151.323 195.613 147.371 197.812C143.457 199.99 140.28 203.462 138.232 207.219C136.604 210.205 135.595 213.55 135.626 216.737C130.697 218.219 127.086 220.592 124.687 223.559C121.95 226.945 120.952 230.907 121.194 234.689C121.662 241.997 126.892 249.238 133.912 250.463Z" fill="#C3DD7C" stroke="#1D1E19" stroke-width="5"/>
<mask id="path-20-inside-3_205_6" fill="white">
<path fill-rule="evenodd" clip-rule="evenodd" d="M1056.69 95C1057.06 84.273 1061.49 74.064 1069.11 66.448C1077.08 58.4777 1087.89 54 1099.16 54C1110.43 54 1121.24 58.4777 1129.21 66.448C1136.83 74.064 1141.25 84.273 1141.63 95H1141.66V96.5V187.5V188H1141.66C1141.53 199.091 1137.06 209.7 1129.21 217.552C1121.24 225.522 1110.43 230 1099.16 230C1087.89 230 1077.08 225.522 1069.11 217.552C1061.25 209.7 1056.79 199.091 1056.66 188H1056.66V187.5V96.5V95H1056.69Z"/>
</mask>
<path fill-rule="evenodd" clip-rule="evenodd" d="M1056.69 95C1057.06 84.273 1061.49 74.064 1069.11 66.448C1077.08 58.4777 1087.89 54 1099.16 54C1110.43 54 1121.24 58.4777 1129.21 66.448C1136.83 74.064 1141.25 84.273 1141.63 95H1141.66V96.5V187.5V188H1141.66C1141.53 199.091 1137.06 209.7 1129.21 217.552C1121.24 225.522 1110.43 230 1099.16 230C1087.89 230 1077.08 225.522 1069.11 217.552C1061.25 209.7 1056.79 199.091 1056.66 188H1056.66V187.5V96.5V95H1056.69Z" fill="#C6DF79"/>
<path d="M1069.11 66.448L1065.57 62.9124L1065.57 62.9124L1069.11 66.448ZM1056.69 95L1061.68 95.1763L1061.51 100H1056.69V95ZM1129.21 66.448L1125.68 69.9835L1129.21 66.448ZM1141.63 95V100H1136.81L1136.64 95.1763L1141.63 95ZM1141.66 95V90H1146.66V95H1141.66ZM1141.66 188H1146.66V193H1141.66V188ZM1141.66 188L1136.66 187.941L1136.71 183H1141.66V188ZM1129.21 217.552L1132.75 221.088L1132.75 221.088L1129.21 217.552ZM1069.11 217.552L1065.57 221.088L1069.11 217.552ZM1056.66 188V183H1061.6L1061.66 187.941L1056.66 188ZM1056.66 188V193H1051.66V188H1056.66ZM1056.66 95H1051.66V90H1056.66V95ZM1072.64 69.9835C1065.92 76.7035 1062.02 85.7115 1061.68 95.1763L1051.69 94.8237C1052.11 82.8345 1057.06 71.4245 1065.57 62.9124L1072.64 69.9835ZM1099.16 59C1089.21 59 1079.68 62.9509 1072.64 69.9835L1065.57 62.9124C1074.48 54.0045 1086.56 49 1099.16 49V59ZM1125.68 69.9835C1118.64 62.9509 1109.1 59 1099.16 59V49C1111.76 49 1123.84 54.0044 1132.75 62.9124L1125.68 69.9835ZM1136.64 95.1763C1136.3 85.7115 1132.4 76.7035 1125.68 69.9835L1132.75 62.9124C1141.26 71.4245 1146.21 82.8345 1146.63 94.8237L1136.64 95.1763ZM1141.66 100H1141.63V90H1141.66V100ZM1136.66 96.5V95H1146.66V96.5H1136.66ZM1136.66 187.5V96.5H1146.66V187.5H1136.66ZM1136.66 188V187.5H1146.66V188H1136.66ZM1141.66 183H1141.66V193H1141.66V183ZM1146.66 188.059C1146.51 200.455 1141.52 212.311 1132.75 221.088L1125.68 214.017C1132.6 207.088 1136.54 197.727 1136.66 187.941L1146.66 188.059ZM1132.75 221.088C1123.84 229.996 1111.76 235 1099.16 235V225C1109.1 225 1118.64 221.049 1125.68 214.017L1132.75 221.088ZM1099.16 235C1086.56 235 1074.48 229.996 1065.57 221.088L1072.64 214.017C1079.68 221.049 1089.21 225 1099.16 225V235ZM1065.57 221.088C1056.8 212.311 1051.81 200.455 1051.66 188.059L1061.66 187.941C1061.78 197.727 1065.71 207.088 1072.64 214.017L1065.57 221.088ZM1056.66 183H1056.66V193H1056.66V183ZM1061.66 187.5V188H1051.66V187.5H1061.66ZM1061.66 96.5V187.5H1051.66V96.5H1061.66ZM1061.66 95V96.5H1051.66V95H1061.66ZM1056.69 100H1056.66V90H1056.69V100Z" fill="#1D1E19" mask="url(#path-20-inside-3_205_6)"/>
<path d="M1098.66 252.5V200M1098.66 98V151M1098.66 151L1077.66 129.5M1098.66 151V177.5M1098.66 177.5L1120.16 157M1098.66 177.5V200M1098.66 200L1077.66 180.5" stroke="#1D1E19" stroke-width="5"/>
<path d="M1119.91 250.463L1120.13 250.5H1120.34H1173.85H1174.36L1174.83 250.299C1178.8 248.606 1181.63 246.341 1183.33 243.657C1185.05 240.942 1185.49 237.972 1184.94 235.154C1184 230.37 1180.3 226.2 1175.54 223.968C1176.07 221.402 1175.92 219.03 1175.23 216.901C1174.34 214.167 1172.62 212.012 1170.64 210.435C1168.67 208.865 1166.39 207.816 1164.24 207.296C1162.89 206.97 1161.45 206.82 1160.1 206.968C1156.03 201.175 1151.59 197.744 1147.03 196.298C1142.07 194.721 1137.32 195.613 1133.37 197.812C1129.46 199.99 1126.28 203.462 1124.23 207.219C1122.6 210.205 1121.59 213.55 1121.63 216.737C1116.7 218.219 1113.09 220.592 1110.69 223.559C1107.95 226.945 1106.95 230.907 1107.19 234.689C1107.66 241.997 1112.89 249.238 1119.91 250.463Z" fill="#5DC27C" stroke="#1D1E19" stroke-width="5"/>
</g>
<defs>
<clipPath id="clip0_205_6">
<rect width="1212" height="288" fill="white"/>
</clipPath>
</defs>
</svg>
