<svg width="346" height="80" viewBox="0 0 346 80" fill="none" xmlns="http://www.w3.org/2000/svg">
<g clip-path="url(#clip0_695_383)">
<path d="M25.7205 30.308V22.9237H30.7972C33.8125 22.9237 35.3201 24.1544 35.3201 26.6158C35.3201 27.7235 35.0124 28.6157 34.3971 29.2926C33.7817 29.9695 32.7971 30.308 31.4433 30.308H25.7205ZM25.7205 50.338V41.3845H30.6126C32.4587 41.3845 33.7817 41.7844 34.5817 42.5844C35.4432 43.3228 35.8739 44.3997 35.8739 45.8151C35.8739 47.2304 35.4739 48.338 34.674 49.138C33.874 49.938 32.5202 50.338 30.6126 50.338H25.7205ZM0.521484 24.4005L6.15203 3.17059H35.8739C39.7507 3.17059 43.2583 4.12439 46.3966 6.03201C49.2272 7.75502 51.4425 10.0626 53.0425 12.9548L58.7653 23.3852C59.2576 24.2467 59.6268 25.3236 59.873 26.6158C60.1191 27.8465 60.2422 29.0465 60.2422 30.2157C60.2422 32.6771 59.7499 35.0155 58.7653 37.2308C57.8423 39.4461 56.6423 41.1691 55.1655 42.3998L59.9653 50.8918C60.6422 51.9994 61.1037 53.2917 61.3498 54.7685C61.596 56.1839 61.7191 57.7838 61.7191 59.5684C61.7191 64.7989 59.7499 69.1987 55.8116 72.7678C51.8733 76.3369 46.9196 78.1215 40.9507 78.1215H10.8595L5.78281 68.8911V33.6309L0.521484 24.4005Z" fill="#F6CA45"/>
<path d="M93.3274 50.9841C89.4507 50.9841 86.1277 49.538 83.3586 46.6458C80.651 43.6921 79.2972 40.123 79.2972 35.9385C79.2972 31.8156 80.651 28.3081 83.3586 25.4159C86.0662 22.5237 89.3891 21.0776 93.3274 21.0776C97.2042 21.0776 100.496 22.5544 103.204 25.5082C105.973 28.4004 107.358 31.8771 107.358 35.9385C107.358 40.123 105.973 43.6921 103.204 46.6458C100.496 49.538 97.2042 50.9841 93.3274 50.9841ZM98.4041 79.9675C91.8813 79.9675 85.9123 78.3061 80.4972 74.9831C75.1435 71.6602 70.9283 67.1681 67.8515 61.5067L63.0517 52.9225C60.0364 47.6919 58.5288 42.0306 58.5288 35.9385C58.5288 26.462 61.944 18.3392 68.7746 11.5703C75.6666 4.73975 83.8509 1.3245 93.3274 1.3245C100.158 1.3245 106.404 3.17058 112.065 6.86275C117.788 10.5549 122.065 15.447 124.895 21.5391L129.141 29.0157C130.249 30.9233 131.203 33.4155 132.003 36.4923C132.803 39.5076 133.203 42.3998 133.203 45.1689C133.203 54.707 129.788 62.8913 122.957 69.7218C116.127 76.5523 107.942 79.9675 98.4041 79.9675ZM93.3274 49.5072C96.8965 49.5072 99.881 48.215 102.281 45.6304C104.681 43.0459 105.881 39.8153 105.881 35.9385L105.696 33.7232V34.1847C103.481 32.5848 101.05 31.7848 98.4041 31.7848C94.8351 31.7848 91.8506 33.0463 89.4507 35.5693C87.0508 38.0923 85.8508 41.2922 85.8508 45.1689L86.0354 47.1073L85.7585 46.9227C87.9738 48.6457 90.4968 49.5072 93.3274 49.5072Z" fill="#F6CA45"/>
<path d="M127.176 24.4005L132.807 3.17059H153.852L158.652 11.8472L163.083 3.17059H186.989L192.066 12.401L175.451 43.4151L189.758 68.8911L194.835 78.1215H169.636L158.929 58.6453V78.1215H137.514L132.438 68.8911V33.6309L127.176 24.4005Z" fill="#F6CA45"/>
<path d="M213.018 36.5846V22.9237H216.526C218.31 22.9237 219.695 23.6621 220.68 25.1389C221.664 26.5543 222.156 28.1542 222.156 29.9388C222.156 31.9079 221.756 33.4463 220.956 34.554C219.972 35.9078 218.434 36.5846 216.341 36.5846H213.018ZM187.819 24.4005L193.45 3.17059H217.264C222.803 3.17059 227.572 4.61668 231.571 7.50888C234.894 9.90878 237.787 13.3548 240.248 17.8469L243.386 23.5698C244.679 25.9081 245.694 28.4619 246.432 31.231C247.232 34.0001 247.632 36.6462 247.632 39.1692C247.632 46.1843 245.325 52.1533 240.71 57.0761C236.156 61.9375 230.095 64.3682 222.526 64.3682H219.572V78.1215H198.157L193.081 68.8911V33.6309L187.819 24.4005Z" fill="#F6CA45"/>
<path d="M265.165 17.4777L269.042 3.17059H292.672L297.749 12.401L278.826 66.0296C277.411 70.091 275.257 73.1063 272.365 75.0754C269.473 77.1061 266.057 78.1215 262.119 78.1215H244.674L239.597 68.8911L245.228 47.6611H254.273L235.259 3.17059H258.242L263.319 12.401L265.165 17.4777Z" fill="#F6CA45"/>
<path d="M298.803 68.8911V33.6309L293.541 24.4005L299.172 3.17059H318.279L319.571 0.586075H339.878L344.955 9.81647L338.494 33.6309H325.294V78.1215H303.88L298.803 68.8911Z" fill="#F6CA45"/>
<path d="M415.512 0.216858L433.511 7.87809L438.588 17.1085L427.973 37.9692C425.511 35.7539 423.48 34.2463 421.881 33.4463C419.727 32.3387 417.204 31.7848 414.312 31.7848C410.804 31.7848 407.82 33.1079 405.358 35.7539C402.958 38.3384 401.758 41.4768 401.758 45.1689L401.943 47.015C404.097 48.6765 406.527 49.5072 409.235 49.5072C412.066 49.5072 414.435 49.0765 416.342 48.215C418.25 47.2919 420.342 45.6612 422.619 43.3228L434.895 60.3991L439.972 69.6295C436.711 72.7678 432.896 75.26 428.526 77.1061C424.219 79.0137 419.45 79.9675 414.219 79.9675C408.435 79.9675 402.989 78.7061 397.882 76.1831C392.774 73.7216 389.02 70.3987 386.62 66.2142L378.036 51.261C376.805 49.1072 375.882 46.7381 375.267 44.1536C374.713 41.5691 374.436 38.8307 374.436 35.9385C374.436 26.462 377.852 18.3392 384.682 11.5703C391.574 4.73975 399.758 1.3245 409.235 1.3245C409.973 1.3245 410.835 1.38604 411.819 1.50911C412.804 1.63218 413.604 1.75526 414.219 1.87833L415.512 0.216858Z" fill="#F6CA45"/>
<path d="M460.978 30.308V22.9237H466.055C469.07 22.9237 470.577 24.1544 470.577 26.6158C470.577 27.7235 470.27 28.6157 469.654 29.2926C469.039 29.9695 468.054 30.308 466.701 30.308H460.978ZM460.978 50.338V41.3845H465.87C467.716 41.3845 469.039 41.7844 469.839 42.5844C470.701 43.3228 471.131 44.3997 471.131 45.8151C471.131 47.2304 470.731 48.338 469.931 49.138C469.131 49.938 467.778 50.338 465.87 50.338H460.978ZM435.779 24.4005L441.409 3.17059H471.131C475.008 3.17059 478.516 4.12439 481.654 6.03201C484.485 7.75502 486.7 10.0626 488.3 12.9548L494.023 23.3852C494.515 24.2467 494.884 25.3236 495.13 26.6158C495.376 27.8465 495.5 29.0465 495.5 30.2157C495.5 32.6771 495.007 35.0155 494.023 37.2308C493.1 39.4461 491.9 41.1691 490.423 42.3998L495.223 50.8918C495.899 51.9994 496.361 53.2917 496.607 54.7685C496.853 56.1839 496.976 57.7838 496.976 59.5684C496.976 64.7989 495.007 69.1987 491.069 72.7678C487.131 76.3369 482.177 78.1215 476.208 78.1215H446.117L441.04 68.8911V33.6309L435.779 24.4005Z" fill="#F6CA45"/>
<path d="M497.201 33.6309L491.94 24.4005L497.571 3.17059H520.462L521.754 0.586075H541.877L546.953 9.81647L542.246 30.1234L545.476 36.0308L542.246 50.2456L545.938 56.8915L540.492 78.1215H502.278L497.201 68.8911V33.6309Z" fill="#F6CA45"/>
<path d="M552.181 68.8911V33.6309H546.551L541.474 24.4005L547.105 3.17059H567.596L568.888 0.586075H589.103L594.18 9.81647L587.718 33.6309H578.673V78.1215H557.258L552.181 68.8911Z" fill="#F6CA45"/>
<path d="M608.023 42.8613L613.1 22.9237L618.454 42.8613H608.023ZM594.454 3.17059H627.222L632.299 12.401L651.591 78.1215H628.145L623.623 69.8141H611.254L609.223 78.1215H586.332L581.255 68.8911L591.962 30.4926L588.639 24.4005L594.454 3.17059Z" fill="#F6CA45"/>
<path d="M102.062 45.5883C99.6626 48.1728 96.6781 49.465 93.109 49.465C90.2783 49.465 87.7553 48.6035 85.54 46.8805L85.8169 47.0651L85.6323 45.1267C85.6323 41.25 86.8323 38.0501 89.2322 35.5271C91.6321 33.0041 94.6166 31.7426 98.1857 31.7426C100.832 31.7426 103.262 32.5426 105.478 34.1426V33.681L105.662 35.8963C105.662 39.7731 104.462 43.0037 102.062 45.5883Z" fill="#F0E6D1"/>
<path d="M7.35621 22.9469V67.4375H35.9705C41.6318 67.4375 46.247 65.8375 49.8161 62.6377C53.4467 59.3763 55.262 55.2841 55.262 50.3612C55.262 46.6075 54.4313 43.3154 52.7698 40.4847C51.1083 37.654 48.5238 35.5926 45.0163 34.3003C47.7854 33.2542 49.9391 31.5312 51.4775 29.1313C53.0159 26.7314 53.7851 24.0238 53.7851 21.0085C53.7851 16.578 52.1852 12.7935 48.9853 9.65515C45.6008 6.33221 41.2626 4.67073 35.9705 4.67073H7.35621L2.5564 22.9469H7.35621ZM25.817 30.3313V22.9469H30.8937C33.909 22.9469 35.4166 24.1777 35.4166 26.6391C35.4166 27.7467 35.109 28.639 34.4936 29.3159C33.8782 29.9928 32.8937 30.3313 31.5399 30.3313H25.817ZM25.817 50.3612V41.4077H30.7091C32.5552 41.4077 33.8782 41.8077 34.6782 42.6077C35.5397 43.3461 35.9705 44.423 35.9705 45.8383C35.9705 47.2537 35.5705 48.3613 34.7705 49.1613C33.9705 49.9612 32.6167 50.3612 30.7091 50.3612H25.817ZM0.618014 24.4238L6.24856 3.19387H35.9705C39.8472 3.19387 43.3548 4.14768 46.4931 6.05529C49.3238 7.7783 51.5391 10.0859 53.139 12.9781L58.8619 23.4085C59.3541 24.27 59.7234 25.3468 59.9695 26.6391C60.2156 27.8698 60.3387 29.0698 60.3387 30.2389C60.3387 32.7004 59.8464 35.0388 58.8619 37.2541C57.9388 39.4694 56.7389 41.1924 55.262 42.4231L60.0618 50.9151C60.7387 52.0227 61.2002 53.315 61.4464 54.7918C61.6925 56.2071 61.8156 57.8071 61.8156 59.5916C61.8156 64.8222 59.8464 69.222 55.9081 72.7911C51.9698 76.3602 47.0162 78.1447 41.0472 78.1447H10.9561L5.87934 68.9143V33.6542L0.618014 24.4238ZM93.4239 69.2836C102.593 69.2836 110.439 66.0221 116.961 59.4993C123.484 52.9765 126.746 45.1307 126.746 35.9618C126.746 26.7929 123.484 18.9779 116.961 12.5166C110.439 6.0553 102.593 2.82465 93.4239 2.82465C84.2551 2.82465 76.4092 6.0553 69.8864 12.5166C63.3636 18.9779 60.1022 26.7929 60.1022 35.9618C60.1022 45.1307 63.3636 52.9765 69.8864 59.4993C76.4092 66.0221 84.2551 69.2836 93.4239 69.2836ZM93.4239 51.0074C89.5472 51.0074 86.2242 49.5613 83.4551 46.6691C80.7475 43.7153 79.3937 40.1462 79.3937 35.9618C79.3937 31.8389 80.7475 28.3313 83.4551 25.4391C86.1627 22.5469 89.4856 21.1009 93.4239 21.1009C97.3007 21.1009 100.593 22.5777 103.3 25.5314C106.07 28.4236 107.454 31.9004 107.454 35.9618C107.454 40.1462 106.07 43.7153 103.3 46.6691C100.593 49.5613 97.3007 51.0074 93.4239 51.0074ZM98.5007 79.9908C91.9778 79.9908 86.0088 78.3293 80.5937 75.0064C75.24 71.6835 71.0248 67.1913 67.948 61.53L63.1482 52.9457C60.133 47.7152 58.6253 42.0539 58.6253 35.9618C58.6253 26.4853 62.0406 18.3625 68.8711 11.5935C75.7631 4.76304 83.9474 1.34779 93.4239 1.34779C100.254 1.34779 106.5 3.19387 112.162 6.88603C117.885 10.5782 122.161 15.4703 124.992 21.5624L129.238 29.039C130.346 30.9466 131.299 33.4388 132.099 36.5156C132.899 39.5309 133.299 42.4231 133.299 45.1922C133.299 54.7303 129.884 62.9146 123.054 69.7451C116.223 76.5756 108.039 79.9908 98.5007 79.9908ZM93.4239 49.5305C96.993 49.5305 99.9775 48.2382 102.377 45.6537C104.777 43.0692 105.977 39.8386 105.977 35.9618L105.793 33.7465V34.208C103.577 32.6081 101.147 31.8081 98.5007 31.8081C94.9316 31.8081 91.9471 33.0696 89.5472 35.5926C87.1473 38.1156 85.9473 41.3154 85.9473 45.1922L86.1319 47.1306L85.855 46.946C88.0703 48.669 90.5933 49.5305 93.4239 49.5305ZM152.472 4.67073H134.011L129.211 22.9469H134.011V67.4375H152.472V44.0846L165.487 67.4375H187.363L168.81 34.3003L184.594 4.67073H164.102L152.656 27.1929L152.472 4.67073ZM127.273 24.4238L132.903 3.19387H153.949L158.749 11.8704L163.179 3.19387H187.086L192.163 12.4243L175.548 43.4384L189.855 68.9143L194.932 78.1447H169.733L159.025 58.6686V78.1447H137.611L132.534 68.9143V33.6542L127.273 24.4238ZM175.548 43.5307L189.855 68.9143L175.548 43.5307ZM194.654 22.9469V67.4375H213.115V53.6842H217.545C224.745 53.6842 230.468 51.4381 234.714 46.946C239.022 42.3923 241.175 36.731 241.175 29.962C241.175 22.9469 239.268 17.1318 235.452 12.5166C231.145 7.28601 225.114 4.67073 217.361 4.67073H194.654L189.854 22.9469H194.654ZM213.115 36.6079V22.9469H216.622C218.407 22.9469 219.792 23.6854 220.776 25.1622C221.761 26.5776 222.253 28.1775 222.253 29.962C222.253 31.9312 221.853 33.4696 221.053 34.5772C220.068 35.931 218.53 36.6079 216.438 36.6079H213.115ZM187.916 24.4238L193.546 3.19387H217.361C222.899 3.19387 227.668 4.63997 231.668 7.53216C234.991 9.93206 237.883 13.3781 240.345 17.8702L243.483 23.5931C244.775 25.9314 245.79 28.4852 246.529 31.2543C247.329 34.0234 247.729 36.6695 247.729 39.1924C247.729 46.2075 245.421 52.1765 240.806 57.0994C236.252 61.9608 230.191 64.3914 222.622 64.3914H219.668V78.1447H198.254L193.177 68.9143V33.6542L187.916 24.4238ZM257.344 4.67073H237.591L256.328 48.6075L255.959 49.1613H246.452L241.652 67.4375H257.159C260.913 67.4375 264.082 66.5452 266.666 64.7607C269.251 62.9761 271.189 60.1762 272.481 56.361L290.665 4.67073H270.266L264.913 24.4238H264.543L257.344 4.67073ZM265.282 17.501L269.159 3.19387H292.788L297.865 12.4243L278.943 66.0529C277.527 70.1143 275.374 73.1296 272.481 75.0987C269.589 77.1294 266.174 78.1447 262.236 78.1447H244.79L239.714 68.9143L245.344 47.6844H254.39L235.375 3.19387H258.359L263.436 12.4243L265.282 17.501ZM300.396 22.9469V67.4375H318.857V22.9469H332.426L338.056 2.08622H320.611L319.319 4.67073H300.396L295.596 22.9469H300.396ZM298.919 68.9143V33.6542L293.658 24.4238L299.289 3.19387H318.396L319.688 0.609359H339.995L345.071 9.83976L338.61 33.6542H325.411V78.1447H303.996L298.919 68.9143Z" fill="#1D1E19"/>
</g>
<defs>
<clipPath id="clip0_695_383">
<rect width="346" height="80" fill="white"/>
</clipPath>
</defs>
</svg>
