<svg width="652" height="333" viewBox="0 0 652 333" fill="none" xmlns="http://www.w3.org/2000/svg">
<path d="M47.6483 57.0365V43.0722H57.2487C62.9508 43.0722 65.8019 45.3996 65.8019 50.0544C65.8019 52.149 65.22 53.8364 64.0563 55.1164C62.8926 56.3965 61.0307 57.0365 58.4706 57.0365H47.6483ZM47.6483 94.9147V77.983H56.8996C60.3907 77.983 62.8926 78.7394 64.4054 80.2522C66.0346 81.6486 66.8492 83.6851 66.8492 86.3616C66.8492 89.038 66.0928 91.1327 64.58 92.6455C63.0672 94.1583 60.5071 94.9147 56.8996 94.9147H47.6483ZM-0.00488281 45.8651L10.6429 5.71773H66.8492C74.1805 5.71773 80.8135 7.52145 86.7483 11.1289C92.1013 14.3872 96.2906 18.7511 99.3162 24.2204L110.139 43.945C111.069 45.5742 111.768 47.6106 112.233 50.0544C112.699 52.3818 112.931 54.651 112.931 56.862C112.931 61.5167 112 65.9388 110.139 70.1281C108.393 74.3174 106.124 77.5757 103.331 79.9031L112.408 95.962C113.688 98.0567 114.561 100.5 115.026 103.293C115.492 105.97 115.724 108.995 115.724 112.37C115.724 122.261 112 130.582 104.553 137.331C97.1052 144.081 87.7375 147.455 76.4497 147.455H19.5451L9.94468 130V63.3205L-0.00488281 45.8651Z" fill="#F6CA45"/>
<path d="M175.498 96.1366C168.167 96.1366 161.883 93.4019 156.646 87.9325C151.526 82.3468 148.966 75.5974 148.966 67.6843C148.966 59.8876 151.526 53.2545 156.646 47.7852C161.766 42.3158 168.05 39.5812 175.498 39.5812C182.829 39.5812 189.055 42.374 194.175 47.9597C199.412 53.4291 202.03 60.0039 202.03 67.6843C202.03 75.5974 199.412 82.3468 194.175 87.9325C189.055 93.4019 182.829 96.1366 175.498 96.1366ZM185.098 150.946C172.763 150.946 161.475 147.804 151.235 141.521C141.111 135.237 133.14 126.742 127.321 116.036L118.244 99.8022C112.542 89.9108 109.691 79.2048 109.691 67.6843C109.691 49.7635 116.15 34.4027 129.067 21.6021C142.1 8.68514 157.577 2.22665 175.498 2.22665C188.415 2.22665 200.226 5.71773 210.932 12.6999C221.755 19.682 229.842 28.9334 235.195 40.4539L243.225 54.5928C245.319 58.2002 247.123 62.9132 248.636 68.7316C250.149 74.4337 250.905 79.9031 250.905 85.1397C250.905 103.177 244.447 118.654 231.53 131.571C218.613 144.488 203.136 150.946 185.098 150.946ZM175.498 93.3437C182.247 93.3437 187.891 90.9 192.43 86.0125C196.968 81.1249 199.237 75.0156 199.237 67.6843L198.888 63.495V64.3678C194.699 61.3422 190.102 59.8294 185.098 59.8294C178.349 59.8294 172.705 62.215 168.167 66.9861C163.628 71.7572 161.359 77.8084 161.359 85.1397L161.708 88.8053L161.185 88.4562C165.374 91.7145 170.145 93.3437 175.498 93.3437Z" fill="#F6CA45"/>
<path d="M239.509 45.8651L250.157 5.71773H289.955L299.032 22.1258L307.41 5.71773H352.62L362.22 23.1731L330.8 81.8232L357.856 130L367.457 147.455H319.803L299.555 110.625V147.455H259.059L249.458 130V63.3205L239.509 45.8651Z" fill="#F6CA45"/>
<path d="M401.842 68.9062V43.0722H408.475C411.85 43.0722 414.468 44.4687 416.33 47.2615C418.192 49.938 419.123 52.9636 419.123 56.3383C419.123 60.0621 418.367 62.9714 416.854 65.066C414.992 67.6261 412.083 68.9062 408.126 68.9062H401.842ZM354.189 45.8651L364.837 5.71773H409.872C420.345 5.71773 429.364 8.45241 436.928 13.9218C443.212 18.4602 448.681 24.9768 453.336 33.4718L459.271 44.2941C461.714 48.7161 463.634 53.5455 465.031 58.7821C466.544 64.0187 467.3 69.0226 467.3 73.7937C467.3 87.0598 462.936 98.3476 454.208 107.657C445.597 116.85 434.135 121.447 419.821 121.447H414.236V147.455H373.739L364.139 130V63.3205L354.189 45.8651Z" fill="#F6CA45"/>
<path d="M500.494 32.7736L507.825 5.71773H552.511L562.111 23.1731L526.328 124.589C523.651 132.269 519.578 137.971 514.109 141.695C508.64 145.535 502.181 147.455 494.734 147.455H461.743L452.142 130L462.79 89.8526H479.896L443.938 5.71773H487.402L497.003 23.1731L500.494 32.7736Z" fill="#F6CA45"/>
<path d="M564.105 130V63.3205L554.155 45.8651L564.803 5.71773H600.936L603.38 0.830231H641.781L651.382 18.2856L639.163 63.3205H614.202V147.455H573.706L564.105 130Z" fill="#F6CA45"/>
<path d="M140.767 182.132L174.805 196.62L184.405 214.075L164.331 253.524C159.677 249.335 155.836 246.484 152.811 244.971C148.738 242.877 143.967 241.829 138.497 241.829C131.864 241.829 126.22 244.331 121.566 249.335C117.027 254.223 114.758 260.158 114.758 267.14L115.107 270.631C119.18 273.773 123.777 275.344 128.897 275.344C134.25 275.344 138.73 274.529 142.338 272.9C145.945 271.154 149.902 268.071 154.207 263.649L177.423 295.941L187.023 313.396C180.856 319.331 173.641 324.044 165.379 327.535C157.233 331.143 148.214 332.946 138.323 332.946C127.384 332.946 117.085 330.561 107.427 325.79C97.7682 321.135 90.6697 314.851 86.1313 306.938L69.8978 278.66C67.5704 274.587 65.8248 270.107 64.6611 265.22C63.6138 260.332 63.0902 255.154 63.0902 249.684C63.0902 231.763 69.5487 216.403 82.4656 203.602C95.499 190.685 110.976 184.227 128.897 184.227C130.293 184.227 131.923 184.343 133.784 184.576C135.646 184.809 137.159 185.041 138.323 185.274L140.767 182.132Z" fill="#F6CA45"/>
<path d="M226.747 239.037V225.072H236.347C242.049 225.072 244.9 227.4 244.9 232.054C244.9 234.149 244.318 235.836 243.155 237.116C241.991 238.396 240.129 239.037 237.569 239.037H226.747ZM226.747 276.915V259.983H235.998C239.489 259.983 241.991 260.739 243.504 262.252C245.133 263.649 245.947 265.685 245.947 268.362C245.947 271.038 245.191 273.133 243.678 274.645C242.165 276.158 239.605 276.915 235.998 276.915H226.747ZM179.093 227.865L189.741 187.718H245.947C253.279 187.718 259.912 189.521 265.847 193.129C271.2 196.387 275.389 200.751 278.414 206.22L289.237 225.945C290.168 227.574 290.866 229.611 291.331 232.054C291.797 234.382 292.03 236.651 292.03 238.862C292.03 243.517 291.099 247.939 289.237 252.128C287.491 256.317 285.222 259.576 282.429 261.903L291.506 277.962C292.786 280.057 293.659 282.5 294.124 285.293C294.59 287.97 294.823 290.995 294.823 294.37C294.823 304.261 291.099 312.582 283.651 319.331C276.203 326.081 266.836 329.455 255.548 329.455H198.643L189.043 312V245.32L179.093 227.865Z" fill="#F6CA45"/>
<path d="M295.248 245.32L285.298 227.865L295.946 187.718H339.236L341.679 182.83H379.732L389.332 200.286L380.43 238.687L386.54 249.859L380.43 276.74L387.412 289.308L377.114 329.455H304.848L295.248 312V245.32Z" fill="#F6CA45"/>
<path d="M400.965 312V245.32H390.317L380.717 227.865L391.364 187.718H430.115L432.559 182.83H470.786L480.387 200.286L468.168 245.32H451.062V329.455H410.565L400.965 312Z" fill="#F6CA45"/>
<path d="M508.311 262.776L517.912 225.072L528.036 262.776H508.311ZM482.652 187.718H544.618L554.219 205.173L590.701 329.455H546.364L537.811 313.746H514.421L510.58 329.455H467.291L457.691 312L477.939 239.386L471.655 227.865L482.652 187.718Z" fill="#F6CA45"/>
<path d="M192.43 86.0126C187.891 90.9001 182.247 93.3438 175.498 93.3438C170.145 93.3438 165.374 91.7146 161.185 88.4563L161.708 88.8054L161.359 85.1398C161.359 77.8085 163.628 71.7573 168.167 66.9862C172.705 62.2151 178.349 59.8295 185.098 59.8295C190.102 59.8295 194.699 61.3423 198.888 64.3679V63.4951L199.237 67.6844C199.237 75.0157 196.968 81.1251 192.43 86.0126Z" fill="#F0E6D1"/>
<path d="M12.7673 42.7269V126.862H66.8789C77.5849 126.862 86.3126 123.836 93.062 117.785C99.9278 111.617 103.361 103.879 103.361 94.5694C103.361 87.4709 101.79 81.2451 98.6477 75.8921C95.5058 70.5392 90.6183 66.6408 83.9852 64.197C89.2218 62.2188 93.2947 58.9604 96.204 54.422C99.1132 49.8836 100.568 44.7634 100.568 39.0613C100.568 30.6827 97.5422 23.526 91.491 17.5912C85.0907 11.3073 76.8867 8.16529 66.8789 8.16529H12.7673L3.6905 42.7269H12.7673ZM47.678 56.6912V42.7269H57.2785C62.9806 42.7269 65.8316 45.0543 65.8316 49.7091C65.8316 51.8037 65.2498 53.4911 64.0861 54.7711C62.9224 56.0512 61.0605 56.6912 58.5004 56.6912H47.678ZM47.678 94.5694V77.6377H56.9294C60.4205 77.6377 62.9224 78.3941 64.4352 79.9069C66.0644 81.3033 66.8789 83.3398 66.8789 86.0163C66.8789 88.6928 66.1225 90.7874 64.6098 92.3002C63.097 93.813 60.5368 94.5694 56.9294 94.5694H47.678ZM0.0248683 45.5198L10.6726 5.37244H66.8789C74.2102 5.37244 80.8432 7.17616 86.7781 10.7836C92.1311 14.0419 96.3203 18.4058 99.3459 23.8751L110.168 43.5997C111.099 45.2289 111.797 47.2653 112.263 49.7091C112.728 52.0365 112.961 54.3057 112.961 56.5167C112.961 61.1714 112.03 65.5935 110.168 69.7828C108.423 73.9721 106.154 77.2304 103.361 79.5578L112.437 95.6167C113.718 97.7114 114.59 100.155 115.056 102.948C115.521 105.624 115.754 108.65 115.754 112.025C115.754 121.916 112.03 130.237 104.583 136.986C97.1349 143.735 87.7672 147.11 76.4794 147.11H19.5749L9.97443 129.655V62.9752L0.0248683 45.5198ZM175.528 130.353C192.867 130.353 207.704 124.185 220.039 111.85C232.374 99.5151 238.542 84.678 238.542 67.339C238.542 50 232.374 35.2211 220.039 23.0024C207.704 10.7836 192.867 4.67422 175.528 4.67422C158.189 4.67422 143.352 10.7836 131.017 23.0024C118.681 35.2211 112.514 50 112.514 67.339C112.514 84.678 118.681 99.5151 131.017 111.85C143.352 124.185 158.189 130.353 175.528 130.353ZM175.528 95.7913C168.196 95.7913 161.913 93.0566 156.676 87.5872C151.556 82.0015 148.996 75.2521 148.996 67.339C148.996 59.5423 151.556 52.9092 156.676 47.4399C161.796 41.9705 168.08 39.2359 175.528 39.2359C182.859 39.2359 189.085 42.0287 194.205 47.6144C199.442 53.0838 202.06 59.6586 202.06 67.339C202.06 75.2521 199.442 82.0015 194.205 87.5872C189.085 93.0566 182.859 95.7913 175.528 95.7913ZM185.128 150.601C172.793 150.601 161.505 147.459 151.265 141.175C141.141 134.891 133.169 126.396 127.351 115.69L118.274 99.4569C112.572 89.5655 109.721 78.8596 109.721 67.339C109.721 49.4182 116.179 34.0574 129.096 21.2568C142.13 8.33984 157.607 1.88136 175.528 1.88136C188.445 1.88136 200.256 5.37243 210.962 12.3546C221.784 19.3367 229.872 28.5881 235.225 40.1086L243.255 54.2475C245.349 57.8549 247.153 62.5679 248.666 68.3863C250.179 74.0884 250.935 79.5578 250.935 84.7944C250.935 102.832 244.476 118.309 231.559 131.226C218.643 144.143 203.165 150.601 185.128 150.601ZM175.528 92.9984C182.277 92.9984 187.921 90.5547 192.459 85.6672C196.998 80.7797 199.267 74.6703 199.267 67.339L198.918 63.1497V64.0225C194.729 60.9969 190.132 59.4841 185.128 59.4841C178.379 59.4841 172.735 61.8697 168.196 66.6408C163.658 71.4119 161.389 77.4631 161.389 84.7944L161.738 88.46L161.214 88.1109C165.404 91.3692 170.175 92.9984 175.528 92.9984ZM287.192 8.16529H252.281L243.204 42.7269H252.281V126.862H287.192V82.6997L311.804 126.862H353.173L318.088 64.197L347.936 8.16529H309.185L287.541 50.7564L287.192 8.16529ZM239.538 45.5198L250.186 5.37244H289.985L299.061 21.7805L307.44 5.37244H352.649L362.25 22.8278L330.83 81.4779L357.886 129.655L367.486 147.11H319.833L299.585 110.279V147.11H259.089L249.488 129.655V62.9752L239.538 45.5198ZM330.83 81.6524L357.886 129.655L330.83 81.6524ZM366.961 42.7269V126.862H401.872V100.853H410.251C423.866 100.853 434.688 96.6059 442.718 88.1109C450.864 79.4996 454.936 68.7936 454.936 55.993C454.936 42.7269 451.329 31.7301 444.114 23.0024C435.968 13.111 424.564 8.16529 409.902 8.16529H366.961L357.885 42.7269H366.961ZM401.872 68.5609V42.7269H408.505C411.88 42.7269 414.498 44.1234 416.36 46.9162C418.222 49.5927 419.153 52.6183 419.153 55.993C419.153 59.7168 418.397 62.6261 416.884 64.7207C415.022 67.2808 412.113 68.5609 408.156 68.5609H401.872ZM354.219 45.5198L364.867 5.37244H409.902C420.375 5.37244 429.393 8.10711 436.957 13.5765C443.241 18.1149 448.711 24.6315 453.365 33.1265L459.3 43.9488C461.744 48.3708 463.664 53.2002 465.061 58.4368C466.573 63.6734 467.33 68.6773 467.33 73.4484C467.33 86.7145 462.966 98.0023 454.238 107.312C445.627 116.505 434.165 121.102 419.851 121.102H414.265V147.11H373.769L364.168 129.655V62.9752L354.219 45.5198ZM485.512 8.16529H448.157L483.592 91.2529L482.894 92.3002H464.915L455.838 126.862H485.163C492.261 126.862 498.254 125.174 503.142 121.8C508.029 118.425 511.695 113.13 514.139 105.915L548.526 8.16529H509.949L499.825 45.5198H499.127L485.512 8.16529ZM500.524 32.4283L507.855 5.37244H552.541L562.141 22.8278L526.358 124.244C523.681 131.924 519.608 137.626 514.139 141.35C508.669 145.19 502.211 147.11 494.763 147.11H461.773L452.172 129.655L462.82 89.5073H479.926L443.968 5.37244H487.432L497.032 22.8278L500.524 32.4283ZM566.928 42.7269V126.862H601.838V42.7269H627.498L638.146 3.27779H605.155L602.711 8.16529H566.928L557.851 42.7269H566.928ZM564.135 129.655V62.9752L554.185 45.5198L564.833 5.37244H600.966L603.409 0.484935H641.811L651.412 17.9403L639.193 62.9752H614.232V147.11H573.735L564.135 129.655ZM170.994 197.671L141.669 185.278L139.574 188.071C135.385 187.14 131.836 186.674 128.927 186.674C111.588 186.674 96.7506 192.784 84.4155 205.002C72.0803 217.221 65.9128 232 65.9128 249.339C65.9128 266.678 72.0222 281.515 84.2409 293.85C96.4597 306.185 111.297 312.353 128.752 312.353C138.294 312.353 146.848 310.84 154.412 307.815C161.976 304.673 168.434 300.483 173.787 295.247L153.888 267.667C147.371 274.417 139.051 277.791 128.927 277.791C121.712 277.791 115.486 274.94 110.249 269.238C105.013 263.536 102.395 256.903 102.395 249.339C102.395 241.775 104.955 235.2 110.075 229.614C115.311 224.029 121.595 221.236 128.927 221.236C134.396 221.236 139.4 222.283 143.938 224.378C147.197 225.891 150.513 228.16 153.888 231.185L170.994 197.671ZM140.796 181.787L174.834 196.275L184.435 213.73L164.361 253.179C159.706 248.99 155.866 246.139 152.841 244.626C148.768 242.531 143.996 241.484 138.527 241.484C131.894 241.484 126.25 243.986 121.595 248.99C117.057 253.877 114.788 259.812 114.788 266.794L115.137 270.285C119.21 273.427 123.806 274.998 128.927 274.998C134.28 274.998 138.76 274.184 142.367 272.555C145.975 270.809 149.931 267.725 154.237 263.303L177.453 295.596L187.053 313.051C180.886 318.986 173.671 323.699 165.408 327.19C157.263 330.797 148.244 332.601 138.353 332.601C127.414 332.601 117.115 330.216 107.457 325.444C97.7979 320.79 90.6994 314.506 86.161 306.593L69.9275 278.315C67.6001 274.242 65.8546 269.762 64.6909 264.874C63.6436 259.987 63.1199 254.808 63.1199 249.339C63.1199 231.418 69.5784 216.057 82.4954 203.257C95.5287 190.34 111.006 183.881 128.927 183.881C130.323 183.881 131.952 183.998 133.814 184.23C135.676 184.463 137.189 184.696 138.353 184.929L140.796 181.787ZM191.866 224.727V308.862H245.977C256.683 308.862 265.411 305.836 272.16 299.785C279.026 293.617 282.459 285.879 282.459 276.569C282.459 269.471 280.888 263.245 277.746 257.892C274.604 252.539 269.717 248.641 263.083 246.197C268.32 244.219 272.393 240.96 275.302 236.422C278.211 231.884 279.666 226.763 279.666 221.061C279.666 212.683 276.64 205.526 270.589 199.591C264.189 193.307 255.985 190.165 245.977 190.165H191.866L182.789 224.727H191.866ZM226.776 238.691V224.727H236.377C242.079 224.727 244.93 227.054 244.93 231.709C244.93 233.804 244.348 235.491 243.184 236.771C242.021 238.051 240.159 238.691 237.599 238.691H226.776ZM226.776 276.569V259.638H236.028C239.519 259.638 242.021 260.394 243.533 261.907C245.163 263.303 245.977 265.34 245.977 268.016C245.977 270.693 245.221 272.787 243.708 274.3C242.195 275.813 239.635 276.569 236.028 276.569H226.776ZM179.123 227.52L189.771 187.372H245.977C253.308 187.372 259.942 189.176 265.876 192.784C271.229 196.042 275.419 200.406 278.444 205.875L289.267 225.6C290.197 227.229 290.896 229.265 291.361 231.709C291.827 234.036 292.059 236.306 292.059 238.517C292.059 243.171 291.128 247.593 289.267 251.783C287.521 255.972 285.252 259.23 282.459 261.558L291.536 277.617C292.816 279.711 293.689 282.155 294.154 284.948C294.62 287.624 294.852 290.65 294.852 294.025C294.852 303.916 291.128 312.237 283.681 318.986C276.233 325.735 266.865 329.11 255.578 329.11H198.673L189.073 311.655V244.975L179.123 227.52ZM298.071 224.727V308.862H365.448L374.176 274.3H332.981V263.129H367.019L373.478 234.851H332.981V224.727H367.019L376.271 185.278H343.455L341.011 190.165H298.071L288.994 224.727H298.071ZM295.278 244.975L285.328 227.52L295.976 187.372H339.265L341.709 182.485H379.762L389.362 199.94L380.46 238.342L386.569 249.514L380.46 276.395L387.442 288.963L377.143 329.11H304.878L295.278 311.655V244.975ZM403.787 224.727V308.862H438.698V224.727H456.503L467.15 185.278H434.334L431.891 190.165H393.489L384.412 224.727H403.787ZM400.995 311.655V244.975H390.347L380.746 227.52L391.394 187.372H430.145L432.589 182.485H470.816L480.417 199.94L468.198 244.975H451.091V329.11H410.595L400.995 311.655ZM542.554 190.165H484.776L475.35 224.727H484.776L461.386 308.862H498.741L502.581 293.152H534.699L538.888 308.862H577.464L542.554 190.165ZM508.341 262.431L517.941 224.727L528.066 262.431H508.341ZM482.682 187.372H544.648L554.249 204.828L590.73 329.11H546.394L537.841 313.4H514.45L510.61 329.11H467.321L457.72 311.655L477.969 239.04L471.685 227.52L482.682 187.372Z" fill="#1D1E19"/>
</svg>
