<svg width="280" height="79" viewBox="0 0 280 79" fill="none" xmlns="http://www.w3.org/2000/svg">
<g clip-path="url(#clip0_695_399)">
<path d="M41.8436 -0.0716858L59.9062 7.61647L65.0007 16.8793L54.3485 37.8133C51.8784 35.5902 49.8405 34.0773 48.235 33.2745C46.0737 32.163 43.5418 31.6072 40.6395 31.6072C37.1196 31.6072 34.1246 32.9349 31.6545 35.5902C29.2462 38.1838 28.042 41.3332 28.042 45.0383L28.2273 46.8909C30.3886 48.5582 32.8278 49.3918 35.5449 49.3918C38.3855 49.3918 40.763 48.9596 42.6773 48.0951C44.5916 47.1688 46.6912 45.5323 48.976 43.1857L61.2956 60.322L66.3901 69.5848C63.1173 72.7342 59.2886 75.2351 54.9042 77.0877C50.5816 79.002 45.7958 79.9592 40.5468 79.9592C34.7421 79.9592 29.2771 78.6933 24.1516 76.1614C19.0262 73.6913 15.2593 70.3567 12.851 66.1576L4.23653 51.1518C3.00148 48.9905 2.0752 46.613 1.45768 44.0194C0.901908 41.4258 0.624023 38.6778 0.624023 35.7755C0.624023 26.2656 4.05127 18.1143 10.9058 11.3216C17.822 4.4671 26.0351 1.03985 35.5449 1.03985C36.2859 1.03985 37.1505 1.1016 38.1385 1.22511C39.1265 1.34861 39.9293 1.47212 40.5468 1.59562L41.8436 -0.0716858Z" fill="#F6CA45"/>
<path d="M86.5433 30.1252V22.7149H91.6379C94.6637 22.7149 96.1767 23.9499 96.1767 26.42C96.1767 27.5316 95.8679 28.427 95.2504 29.1062C94.6329 29.7855 93.6448 30.1252 92.2863 30.1252H86.5433ZM86.5433 50.2255V41.2406H91.4526C93.3052 41.2406 94.6329 41.6419 95.4356 42.4447C96.3002 43.1857 96.7324 44.2664 96.7324 45.6867C96.7324 47.107 96.331 48.2186 95.5283 49.0213C94.7255 49.8241 93.3669 50.2255 91.4526 50.2255H86.5433ZM61.2558 24.1969L66.9061 2.89242H96.7324C100.623 2.89242 104.143 3.84958 107.292 5.7639C110.133 7.49296 112.356 9.80867 113.961 12.711L119.704 23.178C120.198 24.0426 120.569 25.1232 120.816 26.42C121.063 27.6551 121.186 28.8592 121.186 30.0325C121.186 32.5026 120.692 34.8492 119.704 37.0723C118.778 39.2954 117.574 41.0244 116.092 42.2595L120.908 50.7813C121.588 51.8928 122.051 53.1896 122.298 54.6717C122.545 56.092 122.668 57.6975 122.668 59.4883C122.668 64.7373 120.692 69.1526 116.74 72.7342C112.788 76.3158 107.817 78.1066 101.827 78.1066H71.6301L66.5356 68.8438V33.4598L61.2558 24.1969Z" fill="#F6CA45"/>
<path d="M122.894 33.4598L117.614 24.1969L123.265 2.89242H146.236L147.533 0.298828H167.726L172.821 9.56166L168.097 29.9399L171.339 35.8681L168.097 50.1329L171.802 56.8021L166.337 78.1066H127.989L122.894 68.8438V33.4598Z" fill="#F6CA45"/>
<path d="M178.994 68.8438V33.4598H173.343L168.249 24.1969L173.899 2.89242H194.463L195.759 0.298828H216.045L221.14 9.56166L214.656 33.4598H205.578V78.1066H184.088L178.994 68.8438Z" fill="#F6CA45"/>
<path d="M235.958 42.7226L241.052 22.7149L246.425 42.7226H235.958ZM222.342 2.89242H255.225L260.319 12.1553L279.678 78.1066H256.151L251.612 69.7701H239.2L237.162 78.1066H214.19L209.096 68.8438L219.841 30.3104L216.506 24.1969L222.342 2.89242Z" fill="#F6CA45"/>
<path d="M57.8684 8.3575L42.3068 1.78089L41.1953 3.26295C38.9722 2.76893 37.0887 2.52192 35.5449 2.52192C26.3439 2.52192 18.4705 5.76391 11.9247 12.2479C5.37898 18.7319 2.10611 26.5744 2.10611 35.7755C2.10611 44.9766 5.3481 52.85 11.8321 59.3957C18.3161 65.9415 26.1895 69.2143 35.4523 69.2143C40.516 69.2143 45.0548 68.4115 49.0687 66.806C53.0826 65.1387 56.5098 62.9156 59.3504 60.1367L48.7908 45.5015C45.3327 49.0831 40.9174 50.8739 35.5449 50.8739C31.7163 50.8739 28.4126 49.361 25.6337 46.3351C22.8549 43.3093 21.4654 39.7894 21.4654 35.7755C21.4654 31.7616 22.824 28.2726 25.5411 25.3085C28.3199 22.3444 31.6546 20.8623 35.5449 20.8623C38.4473 20.8623 41.1026 21.4181 43.511 22.5296C45.24 23.3324 47 24.5366 48.7908 26.1421L57.8684 8.3575ZM41.8437 -0.0716711L59.9062 7.61648L65.0008 16.8793L54.3485 37.8133C51.8784 35.5902 49.8406 34.0773 48.235 33.2745C46.0737 32.163 43.5419 31.6072 40.6395 31.6072C37.1196 31.6072 34.1246 32.9349 31.6546 35.5902C29.2462 38.1838 28.042 41.3332 28.042 45.0383L28.2273 46.8909C30.3886 48.5582 32.8278 49.3919 35.5449 49.3919C38.3855 49.3919 40.763 48.9596 42.6773 48.0951C44.5916 47.1688 46.6912 45.5323 48.9761 43.1858L61.2956 60.322L66.3902 69.5848C63.1173 72.7342 59.2887 75.2352 54.9043 77.0877C50.5816 79.0021 45.7958 79.9592 40.5469 79.9592C34.7422 79.9592 29.2771 78.6933 24.1517 76.1614C19.0262 73.6914 15.2593 70.3567 12.851 66.1576L4.23656 51.1518C3.00152 48.9905 2.07524 46.613 1.45771 44.0194C0.901943 41.4258 0.624058 38.6778 0.624058 35.7755C0.624058 26.2657 4.05131 18.1144 10.9058 11.3216C17.8221 4.46711 26.0351 1.03987 35.5449 1.03987C36.286 1.03987 37.1505 1.10162 38.1385 1.22513C39.1266 1.34863 39.9293 1.47213 40.5469 1.59564L41.8437 -0.0716711ZM68.0177 22.7149V67.3618H96.7325C102.414 67.3618 107.045 65.7562 110.627 62.5451C114.27 59.2722 116.092 55.1657 116.092 50.2255C116.092 46.4586 115.258 43.1549 113.591 40.3143C111.924 37.4737 109.33 35.405 105.81 34.1082C108.589 33.0584 110.75 31.3293 112.294 28.921C113.838 26.5127 114.61 23.7956 114.61 20.7697C114.61 16.3235 113.004 12.5258 109.793 9.37642C106.397 6.0418 102.043 4.37449 96.7325 4.37449H68.0177L63.201 22.7149H68.0177ZM86.5434 30.1252V22.7149H91.6379C94.6638 22.7149 96.1767 23.9499 96.1767 26.42C96.1767 27.5316 95.8679 28.427 95.2504 29.1063C94.6329 29.7855 93.6449 30.1252 92.2863 30.1252H86.5434ZM86.5434 50.2255V41.2406H91.4527C93.3052 41.2406 94.6329 41.642 95.4357 42.4447C96.3002 43.1858 96.7325 44.2664 96.7325 45.6867C96.7325 47.107 96.3311 48.2186 95.5283 49.0213C94.7255 49.8241 93.367 50.2255 91.4527 50.2255H86.5434ZM61.2558 24.197L66.9061 2.89244H96.7325C100.623 2.89244 104.143 3.84959 107.292 5.76391C110.133 7.49297 112.356 9.80868 113.961 12.711L119.704 23.178C120.198 24.0426 120.569 25.1232 120.816 26.42C121.063 27.6551 121.186 28.8592 121.186 30.0325C121.186 32.5026 120.692 34.8492 119.704 37.0723C118.778 39.2954 117.574 41.0244 116.092 42.2595L120.908 50.7813C121.588 51.8928 122.051 53.1896 122.298 54.6717C122.545 56.092 122.668 57.6975 122.668 59.4883C122.668 64.7373 120.692 69.1526 116.74 72.7342C112.788 76.3158 107.817 78.1066 101.827 78.1066H71.6302L66.5356 68.8438V33.4598L61.2558 24.197ZM124.376 22.7149V67.3618H160.131L164.762 49.0213H142.902V43.0931H160.964L164.392 28.0873H142.902V22.7149H160.964L165.874 1.78089H148.46L147.163 4.37449H124.376L119.56 22.7149H124.376ZM122.894 33.4598L117.614 24.197L123.265 2.89244H146.237L147.533 0.298843H167.726L172.821 9.56167L168.097 29.9399L171.339 35.8681L168.097 50.1329L171.802 56.8021L166.337 78.1066H127.989L122.894 68.8438V33.4598ZM180.476 22.7149V67.3618H199.001V22.7149H208.449L214.1 1.78089H196.686L195.389 4.37449H175.011L170.194 22.7149H180.476ZM178.994 68.8438V33.4598H173.343L168.249 24.197L173.899 2.89244H194.463L195.759 0.298843H216.045L221.14 9.56167L214.656 33.4598H205.578V78.1066H184.088L178.994 68.8438ZM254.113 4.37449H223.453L218.451 22.7149H223.453L211.041 67.3618H230.863L232.901 59.0252H249.945L252.168 67.3618H272.639L254.113 4.37449ZM235.958 42.7226L241.052 22.7149L246.425 42.7226H235.958ZM222.342 2.89244H255.225L260.319 12.1553L279.678 78.1066H256.151L251.612 69.7701H239.2L237.162 78.1066H214.19L209.096 68.8438L219.841 30.3104L216.506 24.197L222.342 2.89244Z" fill="#1D1E19"/>
</g>
<defs>
<clipPath id="clip0_695_399">
<rect width="280" height="79" fill="white"/>
</clipPath>
</defs>
</svg>
