<svg width="1820" height="288" viewBox="0 0 1820 288" fill="none" xmlns="http://www.w3.org/2000/svg">
<g clip-path="url(#clip0_208_25)">
<path d="M91.0005 116.396V96.1763H104.902C113.158 96.1763 117.286 99.5463 117.286 106.286C117.286 109.319 116.444 111.762 114.759 113.616C113.074 115.469 110.378 116.396 106.671 116.396H91.0005ZM91.0005 171.243V146.726H104.396C109.451 146.726 113.074 147.821 115.264 150.012C117.623 152.034 118.803 154.983 118.803 158.858C118.803 162.734 117.708 165.767 115.517 167.957C113.327 170.148 109.62 171.243 104.396 171.243H91.0005ZM22 100.22L37.4177 42.088H118.803C129.418 42.088 139.023 44.6997 147.616 49.9232C155.367 54.6412 161.433 60.9599 165.814 68.8794L181.485 97.44C182.833 99.799 183.844 102.748 184.518 106.286C185.192 109.656 185.529 112.942 185.529 116.143C185.529 122.883 184.181 129.286 181.485 135.352C178.957 141.418 175.671 146.136 171.627 149.506L184.77 172.759C186.624 175.792 187.888 179.331 188.562 183.375C189.236 187.25 189.573 191.631 189.573 196.518C189.573 210.84 184.181 222.888 173.397 232.661C162.613 242.434 149.049 247.32 132.704 247.32H50.3079L36.4067 222.045V125.495L22 100.22Z" fill="#F6CA45"/>
<path d="M276.123 173.012C265.508 173.012 256.409 169.052 248.827 161.133C241.413 153.045 237.706 143.272 237.706 131.814C237.706 120.524 241.413 110.92 248.827 103.001C256.241 95.081 265.339 91.1213 276.123 91.1213C286.739 91.1213 295.754 95.1653 303.168 103.253C310.75 111.173 314.541 120.693 314.541 131.814C314.541 143.272 310.75 153.045 303.168 161.133C295.754 169.052 286.739 173.012 276.123 173.012ZM290.025 252.375C272.164 252.375 255.819 247.826 240.991 238.727C226.332 229.628 214.79 217.327 206.365 201.825L193.222 178.32C184.965 163.997 180.837 148.495 180.837 131.814C180.837 105.865 190.189 83.6231 208.892 65.0881C227.764 46.3847 250.175 37.033 276.123 37.033C294.827 37.033 311.93 42.088 327.431 52.1979C343.102 62.3079 354.813 75.7036 362.564 92.385L374.19 112.858C377.223 118.081 379.835 124.905 382.025 133.33C384.216 141.587 385.311 149.506 385.311 157.089C385.311 183.206 375.959 205.617 357.256 224.32C338.552 243.024 316.142 252.375 290.025 252.375ZM276.123 168.968C285.896 168.968 294.069 165.43 300.64 158.353C307.212 151.276 310.497 142.429 310.497 131.814L309.992 125.748V127.012C303.926 122.631 297.27 120.44 290.025 120.44C280.252 120.44 272.079 123.894 265.508 130.803C258.936 137.711 255.651 146.473 255.651 157.089L256.156 162.397L255.398 161.891C261.464 166.609 268.372 168.968 276.123 168.968Z" fill="#F6CA45"/>
<path d="M368.809 100.22L384.227 42.088H441.854L454.997 65.8464L467.129 42.088H532.591L546.492 67.3629L500.997 152.287L540.173 222.045L554.074 247.32H485.074L455.755 193.99V247.32H397.117L383.216 222.045V125.495L368.809 100.22Z" fill="#F6CA45"/>
<path d="M603.864 133.583V96.1763H613.468C618.355 96.1763 622.146 98.1983 624.842 102.242C627.538 106.118 628.886 110.499 628.886 115.385C628.886 120.777 627.791 124.99 625.6 128.023C622.904 131.73 618.692 133.583 612.963 133.583H603.864ZM534.863 100.22L550.281 42.088H615.49C630.655 42.088 643.714 46.0477 654.667 53.9672C663.766 60.5387 671.685 69.9746 678.425 82.2751L687.018 97.9455C690.557 104.348 693.337 111.341 695.359 118.924C697.55 126.506 698.645 133.752 698.645 140.66C698.645 159.869 692.326 176.213 679.689 189.693C667.22 203.005 650.623 209.661 629.897 209.661H621.809V247.32H563.171L549.27 222.045V125.495L534.863 100.22Z" fill="#F6CA45"/>
<path d="M746.654 81.2641L757.269 42.088H821.973L835.874 67.3629L784.061 214.21C780.185 225.331 774.288 233.588 766.368 238.98C758.449 244.54 749.097 247.32 738.313 247.32H690.543L676.642 222.045L692.06 163.913H716.829L664.763 42.088H727.698L741.599 67.3629L746.654 81.2641Z" fill="#F6CA45"/>
<path d="M838.761 222.045V125.495L824.354 100.22L839.772 42.088H892.091L895.63 35.011H951.234L965.136 60.2859L947.443 125.495H911.3V247.32H852.662L838.761 222.045Z" fill="#F6CA45"/>
<path d="M1158.34 34L1207.62 54.9782L1221.52 80.2531L1192.46 137.374C1185.72 131.308 1180.16 127.18 1175.78 124.99C1169.88 121.957 1162.97 120.44 1155.05 120.44C1145.45 120.44 1137.27 124.063 1130.53 131.308C1123.96 138.385 1120.68 146.979 1120.68 157.089L1121.18 162.144C1127.08 166.693 1133.73 168.968 1141.15 168.968C1148.9 168.968 1155.39 167.789 1160.61 165.43C1165.83 162.902 1171.56 158.437 1177.8 152.034L1211.41 198.792L1225.31 224.067C1216.38 232.661 1205.94 239.485 1193.97 244.54C1182.18 249.763 1169.12 252.375 1154.8 252.375C1138.96 252.375 1124.05 248.921 1110.06 242.013C1096.08 235.273 1085.8 226.174 1079.23 214.716L1055.72 173.77C1052.35 167.873 1049.82 161.386 1048.14 154.309C1046.62 147.232 1045.86 139.733 1045.86 131.814C1045.86 105.865 1055.21 83.6231 1073.92 65.0881C1092.79 46.3847 1115.2 37.033 1141.15 37.033C1143.17 37.033 1145.53 37.2015 1148.23 37.5385C1150.92 37.8755 1153.11 38.2125 1154.8 38.5495L1158.34 34Z" fill="#F6CA45"/>
<path d="M1282.83 116.396V96.1763H1296.73C1304.99 96.1763 1309.12 99.5463 1309.12 106.286C1309.12 109.319 1308.28 111.762 1306.59 113.616C1304.91 115.469 1302.21 116.396 1298.5 116.396H1282.83ZM1282.83 171.243V146.726H1296.23C1301.28 146.726 1304.91 147.821 1307.1 150.012C1309.46 152.034 1310.63 154.983 1310.63 158.858C1310.63 162.734 1309.54 165.767 1307.35 167.957C1305.16 170.148 1301.45 171.243 1296.23 171.243H1282.83ZM1213.83 100.22L1229.25 42.088H1310.63C1321.25 42.088 1330.85 44.6997 1339.45 49.9232C1347.2 54.6412 1353.27 60.9599 1357.65 68.8794L1373.32 97.44C1374.66 99.799 1375.68 102.748 1376.35 106.286C1377.02 109.656 1377.36 112.942 1377.36 116.143C1377.36 122.883 1376.01 129.286 1373.32 135.352C1370.79 141.418 1367.5 146.136 1363.46 149.506L1376.6 172.759C1378.46 175.792 1379.72 179.331 1380.39 183.375C1381.07 187.25 1381.4 191.631 1381.4 196.518C1381.4 210.84 1376.01 222.888 1365.23 232.661C1354.44 242.434 1340.88 247.32 1324.54 247.32H1242.14L1228.24 222.045V125.495L1213.83 100.22Z" fill="#F6CA45"/>
<path d="M1382.02 125.495L1367.61 100.22L1383.03 42.088H1445.71L1449.25 35.011H1504.35L1518.25 60.2859L1505.36 115.891L1514.21 132.067L1505.36 170.99L1515.47 189.188L1500.56 247.32H1395.92L1382.02 222.045V125.495Z" fill="#F6CA45"/>
<path d="M1532.57 222.045V125.495H1517.15L1503.25 100.22L1518.67 42.088H1574.78L1578.32 35.011H1633.67L1647.57 60.2859L1629.88 125.495H1605.11V247.32H1546.47L1532.57 222.045Z" fill="#F6CA45"/>
<path d="M1685.48 150.77L1699.38 96.1763L1714.04 150.77H1685.48ZM1648.32 42.088H1738.05L1751.95 67.3629L1804.77 247.32H1740.57L1728.19 224.573H1694.32L1688.76 247.32H1626.08L1612.18 222.045L1641.5 116.902L1632.4 100.22L1648.32 42.088Z" fill="#F6CA45"/>
<path d="M300.04 158.237C293.468 165.314 285.296 168.853 275.523 168.853C267.772 168.853 260.864 166.494 254.798 161.776L255.556 162.281L255.051 156.973C255.051 146.358 258.336 137.596 264.908 130.687C271.479 123.779 279.652 120.325 289.424 120.325C296.67 120.325 303.326 122.515 309.392 126.896V125.632L309.897 131.698C309.897 142.314 306.611 151.16 300.04 158.237Z" fill="#F0E6D1"/>
<path d="M39.7144 95.7518V217.577H118.067C133.569 217.577 146.206 213.196 155.979 204.434C165.92 195.503 170.891 184.298 170.891 170.818C170.891 160.54 168.616 151.525 164.067 143.774C159.518 136.023 152.441 130.378 142.836 126.84C150.419 123.975 156.316 119.257 160.529 112.686C164.741 106.115 166.847 98.7005 166.847 90.4441C166.847 78.3121 162.466 67.9494 153.704 59.3559C144.437 50.257 132.558 45.7075 118.067 45.7075H39.7144L26.5715 95.7518H39.7144ZM90.2643 115.972V95.7518H104.165C112.422 95.7518 116.55 99.1218 116.55 105.862C116.55 108.895 115.708 111.338 114.023 113.191C112.338 115.045 109.642 115.972 105.935 115.972H90.2643ZM90.2643 170.818V146.302H103.66C108.715 146.302 112.338 147.397 114.528 149.587C116.887 151.609 118.067 154.558 118.067 158.434C118.067 162.309 116.971 165.342 114.781 167.533C112.59 169.723 108.883 170.818 103.66 170.818H90.2643ZM21.2637 99.7958L36.6814 41.6635H118.067C128.682 41.6635 138.287 44.2752 146.88 49.4987C154.631 54.2167 160.697 60.5354 165.078 68.4549L180.748 97.0155C182.096 99.3745 183.107 102.323 183.781 105.862C184.455 109.232 184.792 112.517 184.792 115.719C184.792 122.459 183.444 128.862 180.748 134.928C178.221 140.994 174.935 145.712 170.891 149.082L184.034 172.335C185.888 175.368 187.151 178.906 187.825 182.95C188.499 186.826 188.836 191.207 188.836 196.093C188.836 210.416 183.444 222.463 172.66 232.236C161.877 242.009 148.312 246.896 131.968 246.896H49.5716L35.6704 221.621V125.071L21.2637 99.7958ZM275.387 222.632C300.494 222.632 321.977 213.701 339.838 195.84C357.699 177.98 366.63 156.496 366.63 131.389C366.63 106.283 357.699 84.8836 339.838 67.1911C321.977 49.4987 300.494 40.6525 275.387 40.6525C250.281 40.6525 228.797 49.4987 210.936 67.1911C193.075 84.8836 184.145 106.283 184.145 131.389C184.145 156.496 193.075 177.98 210.936 195.84C228.797 213.701 250.281 222.632 275.387 222.632ZM275.387 172.588C264.772 172.588 255.673 168.628 248.09 160.708C240.676 152.62 236.969 142.847 236.969 131.389C236.969 120.1 240.676 110.495 248.09 102.576C255.504 94.6565 264.603 90.6968 275.387 90.6968C286.003 90.6968 295.017 94.7408 302.431 102.829C310.014 110.748 313.805 120.268 313.805 131.389C313.805 142.847 310.014 152.62 302.431 160.708C295.017 168.628 286.003 172.588 275.387 172.588ZM289.288 251.951C271.427 251.951 255.083 247.401 240.255 238.302C225.596 229.203 214.053 216.903 205.628 201.401L192.485 177.895C184.229 163.573 180.101 148.071 180.101 131.389C180.101 105.441 189.452 83.1986 208.156 64.6636C227.028 45.9602 249.438 36.6085 275.387 36.6085C294.091 36.6085 311.193 41.6635 326.695 51.7734C342.366 61.8834 354.076 75.2791 361.827 91.9606L373.454 112.433C376.487 117.657 379.099 124.481 381.289 132.906C383.48 141.162 384.575 149.082 384.575 156.664C384.575 182.782 375.223 205.192 356.52 223.896C337.816 242.599 315.406 251.951 289.288 251.951ZM275.387 168.544C285.16 168.544 293.332 165.005 299.904 157.928C306.475 150.851 309.761 142.005 309.761 131.389L309.256 125.323V126.587C303.19 122.206 296.534 120.016 289.288 120.016C279.515 120.016 271.343 123.47 264.772 130.378C258.2 137.287 254.914 146.049 254.914 156.664L255.42 161.972L254.662 161.467C260.728 166.185 267.636 168.544 275.387 168.544ZM437.074 45.7075H386.524L373.381 95.7518H386.524V217.577H437.074V153.631L472.711 217.577H532.613L481.81 126.84L525.03 45.7075H468.92L437.579 107.378L437.074 45.7075ZM368.073 99.7958L383.491 41.6635H441.118L454.26 65.4219L466.392 41.6635H531.854L545.756 66.9384L500.261 151.862L539.437 221.621L553.338 246.896H484.338L455.019 193.566V246.896H396.381L382.48 221.621V125.071L368.073 99.7958ZM500.261 152.115L539.437 221.621L500.261 152.115ZM552.578 95.7518V217.577H603.128V179.917H615.26C634.974 179.917 650.645 173.767 662.271 161.467C674.066 148.998 679.963 133.496 679.963 114.961C679.963 95.7518 674.74 79.8286 664.293 67.1911C652.498 52.8687 635.985 45.7075 614.754 45.7075H552.578L539.435 95.7518H552.578ZM603.128 133.159V95.7518H612.732C617.619 95.7518 621.41 97.7738 624.106 101.818C626.802 105.693 628.15 110.074 628.15 114.961C628.15 120.353 627.055 124.565 624.864 127.598C622.168 131.305 617.956 133.159 612.227 133.159H603.128ZM534.127 99.7958L549.545 41.6635H614.754C629.919 41.6635 642.978 45.6232 653.93 53.5427C663.029 60.1142 670.949 69.5501 677.689 81.8506L686.282 97.521C689.821 103.924 692.601 110.917 694.623 118.499C696.813 126.082 697.909 133.327 697.909 140.236C697.909 159.445 691.59 175.789 678.952 189.269C666.483 202.58 649.886 209.236 629.161 209.236H621.073V246.896H562.435L548.534 221.621V125.071L534.127 99.7958ZM724.236 45.7075H670.148L721.456 166.016L720.445 167.533H694.412L681.269 217.577H723.731C734.009 217.577 742.687 215.134 749.764 210.247C756.841 205.361 762.148 197.694 765.687 187.247L815.478 45.7075H759.621L744.961 99.7958H743.95L724.236 45.7075ZM745.972 80.8396L756.588 41.6635H821.292L835.193 66.9384L783.379 213.786C779.504 224.907 773.606 233.163 765.687 238.555C757.767 244.116 748.416 246.896 737.632 246.896H689.862L675.961 221.621L691.379 163.489H716.148L664.082 41.6635H727.016L740.917 66.9384L745.972 80.8396ZM842.124 95.7518V217.577H892.674V95.7518H929.828L945.245 38.6305H897.476L893.937 45.7075H842.124L828.981 95.7518H842.124ZM838.08 221.621V125.071L823.673 99.7958L839.091 41.6635H891.41L894.948 34.5865H950.553L964.454 59.8614L946.762 125.071H910.619V246.896H851.981L838.08 221.621ZM1202.38 56.5757L1159.92 38.6305L1156.89 42.6745C1150.82 41.3265 1145.68 40.6525 1141.47 40.6525C1116.36 40.6525 1094.88 49.4987 1077.02 67.1911C1059.16 84.8836 1050.23 106.283 1050.23 131.389C1050.23 156.496 1059.07 177.98 1076.76 195.84C1094.46 213.701 1115.94 222.632 1141.21 222.632C1155.03 222.632 1167.42 220.441 1178.37 216.06C1189.32 211.511 1198.67 205.445 1206.42 197.862L1177.61 157.928C1168.17 167.701 1156.13 172.588 1141.47 172.588C1131.02 172.588 1122.01 168.459 1114.42 160.203C1106.84 151.946 1103.05 142.342 1103.05 131.389C1103.05 120.437 1106.76 110.917 1114.17 102.829C1121.75 94.7408 1130.85 90.6968 1141.47 90.6968C1149.39 90.6968 1156.63 92.2133 1163.2 95.2463C1167.92 97.4368 1172.72 100.723 1177.61 105.104L1202.38 56.5757ZM1158.65 33.5755L1207.94 54.5537L1221.84 79.8286L1192.78 136.95C1186.04 130.884 1180.48 126.756 1176.09 124.565C1170.2 121.532 1163.29 120.016 1155.37 120.016C1145.76 120.016 1137.59 123.638 1130.85 130.884C1124.28 137.961 1120.99 146.554 1120.99 156.664L1121.5 161.719C1127.4 166.269 1134.05 168.544 1141.47 168.544C1149.22 168.544 1155.71 167.364 1160.93 165.005C1166.15 162.478 1171.88 158.012 1178.12 151.609L1211.73 198.368L1225.63 223.643C1216.7 232.236 1206.26 239.061 1194.29 244.116C1182.5 249.339 1169.44 251.951 1155.12 251.951C1139.28 251.951 1124.36 248.497 1110.38 241.588C1096.39 234.848 1086.12 225.749 1079.54 214.291L1056.04 173.346C1052.67 167.448 1050.14 160.961 1048.46 153.884C1046.94 146.807 1046.18 139.309 1046.18 131.389C1046.18 105.441 1055.53 83.1986 1074.24 64.6636C1093.11 45.9602 1115.52 36.6085 1141.47 36.6085C1143.49 36.6085 1145.85 36.777 1148.54 37.114C1151.24 37.451 1153.43 37.788 1155.12 38.125L1158.65 33.5755ZM1232.6 95.7518V217.577H1310.95C1326.46 217.577 1339.09 213.196 1348.87 204.434C1358.81 195.503 1363.78 184.298 1363.78 170.818C1363.78 160.54 1361.5 151.525 1356.95 143.774C1352.4 136.023 1345.33 130.378 1335.72 126.84C1343.31 123.975 1349.2 119.257 1353.42 112.686C1357.63 106.115 1359.73 98.7005 1359.73 90.4441C1359.73 78.3121 1355.35 67.9494 1346.59 59.3559C1337.32 50.257 1325.44 45.7075 1310.95 45.7075H1232.6L1219.46 95.7518H1232.6ZM1283.15 115.972V95.7518H1297.05C1305.31 95.7518 1309.44 99.1218 1309.44 105.862C1309.44 108.895 1308.59 111.338 1306.91 113.191C1305.22 115.045 1302.53 115.972 1298.82 115.972H1283.15ZM1283.15 170.818V146.302H1296.55C1301.6 146.302 1305.22 147.397 1307.42 149.587C1309.77 151.609 1310.95 154.558 1310.95 158.434C1310.95 162.309 1309.86 165.342 1307.67 167.533C1305.48 169.723 1301.77 170.818 1296.55 170.818H1283.15ZM1214.15 99.7958L1229.57 41.6635H1310.95C1321.57 41.6635 1331.17 44.2752 1339.77 49.4987C1347.52 54.2167 1353.58 60.5354 1357.96 68.4549L1373.64 97.0155C1374.98 99.3745 1375.99 102.323 1376.67 105.862C1377.34 109.232 1377.68 112.517 1377.68 115.719C1377.68 122.459 1376.33 128.862 1373.64 134.928C1371.11 140.994 1367.82 145.712 1363.78 149.082L1376.92 172.335C1378.77 175.368 1380.04 178.906 1380.71 182.95C1381.39 186.826 1381.72 191.207 1381.72 196.093C1381.72 210.416 1376.33 222.463 1365.55 232.236C1354.76 242.009 1341.2 246.896 1324.85 246.896H1242.46L1228.56 221.621V125.071L1214.15 99.7958ZM1386.38 95.7518V217.577H1483.94L1496.58 167.533H1436.93V151.357H1486.22L1495.57 110.411H1436.93V95.7518H1486.22L1499.61 38.6305H1452.1L1448.56 45.7075H1386.38L1373.24 95.7518H1386.38ZM1382.34 125.071L1367.93 99.7958L1383.35 41.6635H1446.03L1449.57 34.5865H1504.67L1518.57 59.8614L1505.68 115.466L1514.53 131.642L1505.68 170.566L1515.79 188.763L1500.88 246.896H1396.24L1382.34 221.621V125.071ZM1536.93 95.7518V217.577H1587.48V95.7518H1613.26L1628.68 38.6305H1581.16L1577.62 45.7075H1522.02L1508.88 95.7518H1536.93ZM1532.89 221.621V125.071H1517.47L1503.57 99.7958L1518.99 41.6635H1575.1L1578.63 34.5865H1633.99L1647.89 59.8614L1630.2 125.071H1605.43V246.896H1546.79L1532.89 221.621ZM1735.33 45.7075H1651.67L1638.02 95.7518H1651.67L1617.8 217.577H1671.89L1677.45 194.829H1723.96L1730.03 217.577H1785.88L1735.33 45.7075ZM1685.79 150.346L1699.7 95.7518L1714.36 150.346H1685.79ZM1648.64 41.6635H1738.37L1752.27 66.9384L1805.09 246.896H1740.89L1728.51 224.148H1694.64L1689.08 246.896H1626.4L1612.5 221.621L1641.82 116.477L1632.72 99.7958L1648.64 41.6635Z" fill="#1D1E19"/>
</g>
<defs>
<clipPath id="clip0_208_25">
<rect width="1820" height="288" fill="white"/>
</clipPath>
</defs>
</svg>
