<svg width="895" height="501" viewBox="0 0 895 501" fill="none" xmlns="http://www.w3.org/2000/svg">
<g clip-path="url(#clip0_283_5040)">
<rect width="895" height="501" fill="#5DC27C"/>
<path d="M161 162.5H877C897.711 162.5 914.5 179.289 914.5 200V502.5H123.5V200C123.5 179.289 140.289 162.5 161 162.5Z" fill="#F57B45" stroke="#1D1E19" stroke-width="5"/>
<path d="M849.5 217.5V199M849.5 217.5V236M849.5 217.5H831M849.5 217.5H868" stroke="#1D1E19" stroke-width="5"/>
<path d="M854.5 217.5C854.5 220.261 852.261 222.5 849.5 222.5C846.739 222.5 844.5 220.261 844.5 217.5C844.5 214.739 846.739 212.5 849.5 212.5C852.261 212.5 854.5 214.739 854.5 217.5Z" fill="#F57B45" stroke="#1D1E19" stroke-width="5"/>
<path d="M849.5 365.5V347M849.5 365.5V384M849.5 365.5H831M849.5 365.5H868" stroke="#1D1E19" stroke-width="5"/>
<path d="M854.5 365.5C854.5 368.261 852.261 370.5 849.5 370.5C846.739 370.5 844.5 368.261 844.5 365.5C844.5 362.739 846.739 360.5 849.5 360.5C852.261 360.5 854.5 362.739 854.5 365.5Z" fill="#F57B45" stroke="#1D1E19" stroke-width="5"/>
<path d="M792.5 291.5V273M792.5 291.5V310M792.5 291.5H774M792.5 291.5H811" stroke="#1D1E19" stroke-width="5"/>
<path d="M797.5 291.5C797.5 294.261 795.261 296.5 792.5 296.5C789.739 296.5 787.5 294.261 787.5 291.5C787.5 288.739 789.739 286.5 792.5 286.5C795.261 286.5 797.5 288.739 797.5 291.5Z" fill="#F57B45" stroke="#1D1E19" stroke-width="5"/>
<path d="M737.5 217.5V199M737.5 217.5V236M737.5 217.5H719M737.5 217.5H756" stroke="#1D1E19" stroke-width="5"/>
<path d="M742.5 217.5C742.5 220.261 740.261 222.5 737.5 222.5C734.739 222.5 732.5 220.261 732.5 217.5C732.5 214.739 734.739 212.5 737.5 212.5C740.261 212.5 742.5 214.739 742.5 217.5Z" fill="#F57B45" stroke="#1D1E19" stroke-width="5"/>
<path d="M737.5 365.5V347M737.5 365.5V384M737.5 365.5H719M737.5 365.5H756" stroke="#1D1E19" stroke-width="5"/>
<path d="M742.5 365.5C742.5 368.261 740.261 370.5 737.5 370.5C734.739 370.5 732.5 368.261 732.5 365.5C732.5 362.739 734.739 360.5 737.5 360.5C740.261 360.5 742.5 362.739 742.5 365.5Z" fill="#F57B45" stroke="#1D1E19" stroke-width="5"/>
<path d="M680.5 291.5V273M680.5 291.5V310M680.5 291.5H662M680.5 291.5H699" stroke="#1D1E19" stroke-width="5"/>
<path d="M685.5 291.5C685.5 294.261 683.261 296.5 680.5 296.5C677.739 296.5 675.5 294.261 675.5 291.5C675.5 288.739 677.739 286.5 680.5 286.5C683.261 286.5 685.5 288.739 685.5 291.5Z" fill="#F57B45" stroke="#1D1E19" stroke-width="5"/>
<path d="M509.5 217.5V199M509.5 217.5V236M509.5 217.5H491M509.5 217.5H528" stroke="#1D1E19" stroke-width="5"/>
<path d="M514.5 217.5C514.5 220.261 512.261 222.5 509.5 222.5C506.739 222.5 504.5 220.261 504.5 217.5C504.5 214.739 506.739 212.5 509.5 212.5C512.261 212.5 514.5 214.739 514.5 217.5Z" fill="#F57B45" stroke="#1D1E19" stroke-width="5"/>
<path d="M247.5 217.5V199M247.5 217.5V236M247.5 217.5H229M247.5 217.5H266" stroke="#1D1E19" stroke-width="5"/>
<path d="M252.5 217.5C252.5 220.261 250.261 222.5 247.5 222.5C244.739 222.5 242.5 220.261 242.5 217.5C242.5 214.739 244.739 212.5 247.5 212.5C250.261 212.5 252.5 214.739 252.5 217.5Z" fill="#F57B45" stroke="#1D1E19" stroke-width="5"/>
<path d="M773.029 441.189C770.78 449.737 748.099 450.749 737.039 450.187V502.615H780.34C778.84 484.245 775.279 432.642 773.029 441.189Z" fill="#FFE1BB" stroke="#1D1E19" stroke-width="5"/>
<path d="M334.648 187.834H397.13V263.812H334.648V187.834Z" fill="#FFE1BB" stroke="#1D1E19" stroke-width="5"/>
<path d="M291.659 219.075H334.397C332.148 235.271 355.579 255.815 367.576 264.063C377.136 257.69 396.368 239.769 396.818 219.075H470.094C487.07 219.075 503.148 226.698 513.893 239.84C531.018 260.786 564.96 248.677 564.96 221.622V179.711V162.028H639.753V179.711V276.997C648.674 276.997 656.79 282.159 660.571 290.239L731.416 441.617L748.848 444.014V505H534.031H199.434V311.3C199.434 260.366 240.724 219.075 291.659 219.075Z" fill="#66AEF4"/>
<path d="M334.397 219.075H291.659C240.724 219.075 199.434 260.366 199.434 311.3V505H534.031M334.397 219.075C332.148 235.271 355.579 255.815 367.576 264.063M334.397 219.075L309.092 271.936L367.576 264.063M534.031 505V419.271M534.031 505H748.848V444.014L731.416 441.617M534.031 341.105L483.982 314.112M534.031 341.105V419.271M534.031 341.105L562.727 302.161C574.386 286.338 592.871 276.997 612.526 276.997H639.753M534.031 419.271C477.984 424.145 366.226 399.926 367.576 264.063M367.576 264.063C377.136 257.69 396.368 239.769 396.818 219.075M367.576 264.063L424.935 271.936L396.818 219.075M396.818 219.075H470.094C487.07 219.075 503.148 226.698 513.893 239.84V239.84C531.018 260.786 564.96 248.677 564.96 221.622V179.711M638.424 428.831L578.897 419.271L607.699 379.907L638.424 428.831ZM638.424 428.831L731.416 441.617M731.416 441.617L660.571 290.239C656.79 282.159 648.674 276.997 639.753 276.997V276.997M564.96 179.711V162.028H639.753V179.711M564.96 179.711H639.753M639.753 179.711V276.997M276.475 372.596V460.323C276.475 473.988 287.553 485.066 301.219 485.066H388.383" stroke="#1D1E19" stroke-width="5"/>
<path d="M607.699 379.893L578.897 419.257L638.424 428.817L607.699 379.893Z" fill="#F57B45" stroke="#1D1E19" stroke-width="5"/>
<path d="M249.321 116.887C253.944 95.7793 273.281 101.1 282.372 106.398C290.227 115.646 302.196 136.265 287.23 144.767C268.523 155.395 243.543 143.271 249.321 116.887Z" fill="#FFE1BB" stroke="#1D1E19" stroke-width="5"/>
<path d="M451.17 93.8821C457.108 148.399 423.131 196.242 376.015 201.374C328.9 206.505 285.421 167.097 279.483 112.58C273.546 58.0636 307.522 10.2202 354.638 5.08886C401.754 -0.0424712 445.233 39.3653 451.17 93.8821Z" fill="#FFE1BB" stroke="#1D1E19" stroke-width="5"/>
<path d="M241.011 73.7906C248.449 81.3232 253.469 94.7523 255.791 103.826C268.631 98.5644 276.622 106.031 279.012 110.422L295.471 105.359C297.587 86.409 302.622 55.6402 331.099 68.7188C359.576 81.7973 381.865 65.8161 389.45 56.1906C428.563 62.7724 450.942 38.6153 450.195 -7.10832C449.598 -43.6872 419.632 -36.2072 404.723 -27.8948C406.976 -56.2102 368.35 -48.4633 359.689 -44.9938C336.482 -35.6981 339.7 -16.4454 287.632 -14.0116C245.977 -12.0645 248.282 16.8323 254.641 31.0373C229.528 32.1449 232.657 65.3302 241.011 73.7906Z" fill="#895E3A" stroke="#1D1E19" stroke-width="5"/>
<ellipse cx="360.174" cy="107.193" rx="8.03826" ry="12.6315" transform="rotate(-14.703 360.174 107.193)" fill="#1D1E19"/>
<ellipse cx="410.487" cy="90.7104" rx="8.03826" ry="12.6315" transform="rotate(-14.703 410.487 90.7104)" fill="#1D1E19"/>
<path d="M541.904 78.3113C514.011 78.713 476.109 125.007 458.114 147.1C455.864 154.631 464.412 157.745 469.361 152.121C475.547 145.091 470.485 147.1 476.109 147.1C478.137 147.1 480.608 148.606 485.107 143.585C489.605 138.564 498.041 140.572 500.29 142.079C502.539 143.585 509.85 142.079 510.975 138.564C512.099 135.049 521.659 131.535 530.657 135.049C539.654 138.564 541.904 132.368 539.654 127.849C537.405 123.33 543.591 118.327 548.09 119.332C552.588 120.336 569.459 121.128 569.459 115.605C569.459 110.082 567.209 102.915 574.52 102.412L541.904 78.3113Z" fill="#F6CA45" stroke="#1D1E19" stroke-width="5"/>
<path d="M510.67 120.441C511.168 121.496 511.071 123.044 509.756 124.874C508.461 126.674 506.162 128.44 503.103 129.593C500.043 130.746 497.023 130.985 494.674 130.557C492.289 130.123 490.979 129.105 490.48 128.05C489.982 126.996 490.079 125.447 491.394 123.618C492.688 121.817 494.987 120.052 498.047 118.898C501.107 117.745 504.127 117.506 506.475 117.934C508.861 118.369 510.171 119.387 510.67 120.441Z" fill="#E30705" stroke="#1D1E19" stroke-width="5"/>
<path d="M530.914 90.3147C531.413 91.3693 531.316 92.9175 530 94.747C528.706 96.5478 526.407 98.3134 523.347 99.4664C520.288 100.62 517.267 100.859 514.919 100.431C512.533 99.9961 511.223 98.9783 510.725 97.9237C510.226 96.8691 510.323 95.321 511.639 93.4914C512.933 91.6907 515.232 89.9251 518.292 88.772C521.351 87.6189 524.372 87.3797 526.72 87.8076C529.105 88.2423 530.416 89.2601 530.914 90.3147Z" fill="#E30705" stroke="#1D1E19" stroke-width="5"/>
<path d="M542.161 108.39C542.66 109.445 542.563 110.993 541.247 112.822C539.953 114.623 537.654 116.389 534.594 117.542C531.535 118.695 528.514 118.934 526.166 118.506C523.781 118.071 522.47 117.054 521.972 115.999C521.473 114.944 521.57 113.396 522.886 111.567C524.18 109.766 526.479 108 529.539 106.847C532.598 105.694 535.619 105.455 537.967 105.883C540.353 106.318 541.663 107.335 542.161 108.39Z" fill="#E30705" stroke="#1D1E19" stroke-width="5"/>
<path d="M532.344 79.3145C524.696 74.4942 529.157 70.6113 532.344 69.2723C547.527 66.2597 579.685 89.6884 581.268 102.411C582.393 111.45 575.082 114.462 564.96 100.905C555.587 88.3519 541.904 85.3397 532.344 79.3145Z" fill="#F57B45" stroke="#1D1E19" stroke-width="5"/>
<path d="M565.026 146.324V163.195H639.818V126.642C640.006 124.018 638.806 113.483 632.508 92.3387C626.209 71.1942 610.992 68.9075 604.17 70.4071C595.072 59.0694 582.767 60.1053 575.71 63.388C567.772 56.625 559.165 53.7195 554.341 58.0357C545.794 65.6836 560.527 81.8418 568.962 88.9649V118.769H542.532C530.385 130.916 552.467 142.201 565.026 146.324Z" fill="#FFE1BB"/>
<path d="M593.706 99.0872C594.014 85.515 585.355 71.6045 575.71 63.388M575.71 63.388C567.772 56.625 559.165 53.7195 554.341 58.0357C545.794 65.6836 560.527 81.8418 568.962 88.9649V118.769H542.532C530.385 130.916 552.467 142.201 565.026 146.324V163.195H639.818V126.642C640.006 124.018 638.806 113.483 632.508 92.3387C626.209 71.1942 610.992 68.9075 604.17 70.4071M575.71 63.388C582.767 60.1053 595.072 59.0694 604.17 70.4071M614.513 99.0872C612.679 85.338 608.849 76.2368 604.17 70.4071" stroke="#1D1E19" stroke-width="5"/>
<circle cx="386.696" cy="302.289" r="5.37288" fill="#66AEF4" stroke="#1D1E19" stroke-width="5"/>
<circle cx="400.192" cy="337.155" r="5.37288" fill="#66AEF4" stroke="#1D1E19" stroke-width="5"/>
<circle cx="418.187" cy="365.272" r="5.37288" fill="#66AEF4" stroke="#1D1E19" stroke-width="5"/>
<circle cx="449.679" cy="388.891" r="5.37288" fill="#66AEF4" stroke="#1D1E19" stroke-width="5"/>
<circle cx="483.42" cy="400.138" r="5.37288" fill="#66AEF4" stroke="#1D1E19" stroke-width="5"/>
<path d="M868.066 390.016V502.74H842.6H770.829C770.829 502.74 768.402 472.342 769.093 463.684C769.784 455.025 771.806 443.237 775.668 431.63C782.593 410.821 795.435 390.593 817.133 390.016H842.6H868.066Z" fill="#E30705"/>
<path d="M842.6 390.016H817.133C795.435 390.593 782.593 410.821 775.668 431.63M842.6 390.016H868.066V502.74H842.6M842.6 390.016V463.684M842.6 502.74H770.829C770.829 502.74 768.402 472.342 769.093 463.684C769.784 455.025 771.806 443.237 775.668 431.63M842.6 502.74V463.684M842.6 463.684C820.606 471.556 776.43 476.168 775.668 431.63" stroke="#1D1E19" stroke-width="5"/>
<path d="M-7 -8.5H105V22.5V69V114V136V210V259.5V309.5V360V440.5V504.5H-7V440.5V360V309.5V259.5V210V136V114V69V22.5V-8.5Z" fill="#F0E6D1"/>
<path d="M-7 440.5V504.5H105V440.5M-7 440.5H105M-7 440.5V360M105 440.5V360M-7 360H105M-7 360V309.5M105 360V309.5M105 309.5H-7M105 309.5V259.5M-7 309.5V259.5M-7 259.5H105M-7 259.5V210M105 259.5V210M105 210H-7M105 210V136M-7 210V136M-7 136H105M-7 136V114M105 136V114M105 114H-7M105 114V69M-7 114V69M-7 69H105M-7 69V22.5M105 69V22.5M105 22.5V-8.5H-7V22.5M105 22.5H-7" stroke="#1D1E19" stroke-width="5"/>
<path d="M675 162.5V52L692 69C692 69 699 63.5 720 63.5C739.5 63.5 747 69 747 69L762.5 52L761.5 70.5C781.145 63.0697 797.914 61.4605 812 63.6854C818.483 64.7094 824.397 66.5455 829.762 69C836.098 71.8992 840.167 74.1944 845 78.5C848.97 82.0366 853.942 87.4068 856.935 91.5C859.772 95.3797 862.178 99.4299 864.167 103.5C866.987 109.27 868.969 115.08 870.156 120.5C871.058 124.621 871.5 128.517 871.5 132V155.5C871.5 169.307 860.307 180.5 846.5 180.5H668C668 180.5 659.5 180.5 659.5 170.5C659.5 162.5 668 162.5 668 162.5H675Z" fill="#F5C86D"/>
<path d="M675 162.5V52L692 69C692 69 699 63.5 720 63.5C739.5 63.5 747 69 747 69L762.5 52L761.5 70.5M761.5 138.5V113.5C777.1 96.7 768 82.1667 761.5 77V70.5M799 162.5H668C668 162.5 659.5 162.5 659.5 170.5C659.5 180.5 668 180.5 668 180.5H846.5C860.307 180.5 871.5 169.307 871.5 155.5V132C871.5 128.517 871.058 124.621 870.156 120.5M761.5 70.5C781.145 63.0697 797.914 61.4605 812 63.6854M812 63.6854L808.5 96.5L829.762 69M812 63.6854C818.483 64.7094 824.397 66.5455 829.762 69M829.762 69C836.098 71.8992 840.167 74.1944 845 78.5M845 78.5L829.762 100L856.935 91.5M845 78.5C848.97 82.0366 853.942 87.4068 856.935 91.5M856.935 91.5C859.772 95.3797 862.178 99.4299 864.167 103.5M864.167 103.5L835.5 118L870.156 120.5M864.167 103.5C866.987 109.27 868.969 115.08 870.156 120.5" stroke="#1D1E19" stroke-width="5"/>
<circle cx="708.5" cy="90.5" r="5.5" fill="#1D1E19"/>
<circle cx="741.5" cy="90.5" r="5.5" fill="#1D1E19"/>
<path d="M715 105.5C716.833 108.5 721.8 112.7 727 105.5M727 105.5C729.5 108.333 735.3 112.3 738.5 105.5M727 105.5L724.5 101H729.5L727 105.5Z" stroke="#1D1E19" stroke-width="5"/>
<path d="M758.298 92.5L780 87M758.298 97.5H780M758.298 102.5L780 106M683.286 92.5L663 87M683.286 97.5H663M683.286 102.5L663 106" stroke="#1D1E19" stroke-width="5"/>
<path d="M37.9555 370.996L64.6811 504.5H221.25L191.824 359.916C189.169 346.872 177.698 337.5 164.386 337.5H65.4107C47.7394 337.5 34.4867 353.669 37.9555 370.996Z" fill="#F57B45" stroke="#1D1E19" stroke-width="5"/>
<path d="M77.25 337.5H128.483C152.695 337.5 173.427 354.847 177.699 378.679L200.25 504.5" stroke="#1D1E19" stroke-width="5"/>
<circle cx="6" cy="171" r="14.5" fill="#F5C86D" stroke="#1D1E19" stroke-width="5"/>
<circle cx="69.5" cy="46.5" r="9" fill="#F5C86D" stroke="#1D1E19" stroke-width="5"/>
<circle cx="69.5" cy="91.5" r="9" fill="#F5C86D" stroke="#1D1E19" stroke-width="5"/>
<circle cx="69.5" cy="236.5" r="9" fill="#F5C86D" stroke="#1D1E19" stroke-width="5"/>
<circle cx="69.5" cy="281.5" r="9" fill="#F5C86D" stroke="#1D1E19" stroke-width="5"/>
<circle cx="6" cy="334" r="14.5" fill="#F5C86D" stroke="#1D1E19" stroke-width="5"/>
<circle cx="6" cy="398" r="14.5" fill="#F5C86D" stroke="#1D1E19" stroke-width="5"/>
<circle cx="6" cy="470" r="14.5" fill="#F5C86D" stroke="#1D1E19" stroke-width="5"/>
<path d="M421.699 128.017L370 143.653C370 143.653 380.364 169.174 404.598 161.844C432.076 153.533 421.699 128.017 421.699 128.017Z" fill="#FFE1BB" stroke="#1D1E19" stroke-width="5"/>
<path d="M375.813 152.916C381.232 159.353 390.602 166.077 404.598 161.844C410.413 160.086 414.533 157.556 417.414 154.661C409.834 141.26 386.522 147.914 375.813 152.916Z" fill="#F49EB7" stroke="#1D1E19" stroke-width="5"/>
</g>
<defs>
<clipPath id="clip0_283_5040">
<rect width="895" height="501" fill="white"/>
</clipPath>
</defs>
</svg>
