<svg width="1049" height="241" viewBox="0 0 1049 241" fill="none" xmlns="http://www.w3.org/2000/svg">
<g clip-path="url(#clip0_362_500)">
<rect width="1049" height="241" fill="#F0E6D1"/>
<mask id="mask0_362_500" style="mask-type:alpha" maskUnits="userSpaceOnUse" x="0" y="-122" width="1049" height="645">
<path d="M1049 -121.974H0V522.149H1049V-121.974Z" fill="black"/>
</mask>
<g mask="url(#mask0_362_500)">
<path d="M880.235 342.125C1053.18 342.125 1193.37 201.928 1193.37 28.9861C1193.37 -143.956 1053.18 -284.153 880.235 -284.153C707.293 -284.153 567.095 -143.956 567.095 28.9861C567.095 201.928 707.293 342.125 880.235 342.125Z" fill="#8AC636"/>
<path d="M880.235 342.125C1053.18 342.125 1193.37 201.928 1193.37 28.9861C1193.37 -143.956 1053.18 -284.153 880.235 -284.153C707.293 -284.153 567.095 -143.956 567.095 28.9861C567.095 201.928 707.293 342.125 880.235 342.125Z" stroke="#1C1717" stroke-width="3.86106" stroke-miterlimit="10"/>
<path d="M1009.74 158.5C1081.26 86.9741 1081.26 -28.9917 1009.74 -100.517C938.212 -172.043 822.246 -172.043 750.721 -100.517C679.195 -28.9917 679.195 86.9741 750.721 158.5C822.246 230.025 938.212 230.025 1009.74 158.5Z" fill="#C3DD7C" stroke="#1C1717" stroke-width="3.86106" stroke-miterlimit="10"/>
<path d="M939.825 88.5882C972.739 55.674 972.739 2.30944 939.825 -30.6048C906.911 -63.519 853.546 -63.519 820.632 -30.6048C787.718 2.30944 787.718 55.674 820.632 88.5882C853.546 121.502 906.911 121.502 939.825 88.5882Z" fill="#8AC636"/>
<path d="M939.825 88.5882C972.739 55.674 972.739 2.30944 939.825 -30.6048C906.911 -63.519 853.546 -63.519 820.632 -30.6048C787.718 2.30944 787.718 55.674 820.632 88.5882C853.546 121.502 906.911 121.502 939.825 88.5882Z" stroke="#1C1717" stroke-width="3.86106" stroke-miterlimit="10"/>
<path d="M880.235 51.6778C892.767 51.6778 902.926 41.5185 902.926 28.9863C902.926 16.4542 892.767 6.29492 880.235 6.29492C867.703 6.29492 857.543 16.4542 857.543 28.9863C857.543 41.5185 867.703 51.6778 880.235 51.6778Z" fill="#C3DD7C" stroke="#1C1717" stroke-width="3.86106" stroke-miterlimit="10"/>
<path d="M187.798 288.753C321.931 288.753 430.666 180.018 430.666 45.8853C430.666 -88.2471 321.931 -196.983 187.798 -196.983C53.6658 -196.983 -55.0699 -88.2471 -55.0699 45.8853C-55.0699 180.018 53.6658 288.753 187.798 288.753Z" fill="#F57B45" stroke="#1C1717" stroke-width="3.86106" stroke-miterlimit="10"/>
<path d="M288.242 146.33C343.717 90.855 343.717 0.912615 288.242 -54.5622C232.768 -110.037 142.825 -110.037 87.3504 -54.5622C31.8756 0.912607 31.8756 90.855 87.3504 146.33C142.825 201.805 232.768 201.805 288.242 146.33Z" fill="#F6CA45" stroke="#1C1717" stroke-width="3.86106" stroke-miterlimit="10"/>
<path d="M252.329 56.3576C258.113 20.7203 233.912 -12.858 198.274 -18.6417C162.637 -24.4254 129.059 -0.224306 123.275 35.413C117.491 71.0502 141.692 104.629 177.33 110.412C212.967 116.196 246.545 91.9949 252.329 56.3576Z" fill="#F57B45" stroke="#1C1717" stroke-width="3.86106" stroke-miterlimit="10"/>
<path d="M205.175 48.7046C206.732 39.1098 200.217 30.0693 190.622 28.5121C181.027 26.9549 171.986 33.4707 170.429 43.0655C168.872 52.6604 175.388 61.7008 184.983 63.258C194.577 64.8152 203.618 58.2994 205.175 48.7046Z" fill="#F6CA45" stroke="#1C1717" stroke-width="3.86106" stroke-miterlimit="10"/>
<path d="M493.964 210.604L547.576 161.88L635.466 185.704L679.923 249.746C679.923 249.746 694.526 307.55 679.923 313.126C665.322 318.701 610.229 403.573 605.877 403.573C601.526 403.573 493.964 302.728 493.964 302.728L465.174 227.32L493.964 210.604Z" fill="#B8E5F8" stroke="#1C1717" stroke-width="3.86106" stroke-miterlimit="10"/>
<path d="M521.771 196.294C609.474 179.077 668.437 242.205 671.238 293.857L788.849 243.104C788.849 243.104 804.562 132.102 790.803 122.057C777.043 112.012 626.186 41.8564 626.186 41.8564L509.775 62.4693C509.775 62.4693 469.057 134.03 475.093 138.977C481.13 143.923 521.771 196.294 521.771 196.294Z" fill="#66AEF4" stroke="#1C1717" stroke-width="3.86106" stroke-miterlimit="10"/>
<path d="M601.457 -14.8963C758.963 -45.8169 864.856 67.5579 869.886 160.32L781.584 250.524C776.554 157.762 670.661 44.3877 513.154 75.3083L601.457 -14.8963Z" fill="#B8E5F8" stroke="#1C1717" stroke-width="3.86106" stroke-miterlimit="10"/>
<path d="M326.024 600.524C427.725 498.822 427.725 333.932 326.024 232.23C224.322 130.528 59.4313 130.528 -42.2702 232.23C-143.972 333.932 -143.972 498.822 -42.2703 600.524C59.4313 702.226 224.322 702.226 326.024 600.524Z" fill="#66AEF4" stroke="#1C1717" stroke-width="3.86106" stroke-miterlimit="10"/>
<path d="M249.584 524.084C309.069 464.599 309.069 368.155 249.584 308.67C190.099 249.185 93.6545 249.185 34.1694 308.67C-25.3157 368.155 -25.3157 464.599 34.1694 524.084C93.6545 583.569 190.099 583.569 249.584 524.084Z" fill="#B8E5F8" stroke="#1C1717" stroke-width="3.86106" stroke-miterlimit="10"/>
<path d="M1018.68 597.781C1113.52 502.936 1113.52 349.162 1018.68 254.317C923.831 159.472 770.057 159.472 675.212 254.317C580.367 349.162 580.367 502.936 675.212 597.781C770.057 692.626 923.831 692.626 1018.68 597.781Z" fill="#F57B45" stroke="#1C1717" stroke-width="3.86106" stroke-miterlimit="10"/>
<path d="M947.39 526.495C1002.86 471.021 1002.86 381.078 947.39 325.603C891.915 270.129 801.973 270.129 746.498 325.603C691.023 381.078 691.023 471.021 746.498 526.495C801.973 581.97 891.915 581.97 947.39 526.495Z" fill="#F6CA45" stroke="#1C1717" stroke-width="3.86106" stroke-miterlimit="10"/>
<path d="M1121.79 183.179C1255.92 183.179 1364.66 74.4429 1364.66 -59.6895C1364.66 -193.822 1255.92 -302.558 1121.79 -302.558C987.658 -302.558 878.922 -193.822 878.922 -59.6895C878.922 74.4429 987.658 183.179 1121.79 183.179Z" fill="#8AC636"/>
<path d="M1121.79 183.179C1255.92 183.179 1364.66 74.4429 1364.66 -59.6895C1364.66 -193.822 1255.92 -302.558 1121.79 -302.558C987.658 -302.558 878.922 -193.822 878.922 -59.6895C878.922 74.4429 987.658 183.179 1121.79 183.179Z" stroke="#1C1717" stroke-width="3.86106" stroke-miterlimit="10"/>
<path d="M1121.79 82.3636C1200.24 82.3636 1263.84 18.7642 1263.84 -59.6898C1263.84 -138.144 1200.24 -201.743 1121.79 -201.743C1043.34 -201.743 979.737 -138.144 979.737 -59.6898C979.737 18.7642 1043.34 82.3636 1121.79 82.3636Z" fill="#C3DD7C" stroke="#1C1717" stroke-width="3.86106" stroke-miterlimit="10"/>
<path d="M678.109 -9.45752C779.811 -111.159 779.811 -276.05 678.109 -377.751C576.408 -479.453 411.517 -479.453 309.815 -377.751C208.114 -276.05 208.114 -111.159 309.815 -9.45752C411.517 92.2441 576.408 92.2441 678.109 -9.45752Z" fill="#F57B45" stroke="#1C1717" stroke-width="3.86106" stroke-miterlimit="10"/>
<path d="M601.67 -85.8972C661.155 -145.382 661.155 -241.827 601.67 -301.312C542.185 -360.797 445.74 -360.797 386.255 -301.312C326.77 -241.827 326.77 -145.382 386.255 -85.8972C445.74 -26.4122 542.185 -26.4122 601.67 -85.8972Z" fill="#F6CA45" stroke="#1C1717" stroke-width="3.86106" stroke-miterlimit="10"/>
<path d="M589.453 543.953C399.352 257.527 368.922 16.7613 496.315 -163.414H370.888C243.494 16.7613 273.925 257.525 464.026 543.953H589.453Z" fill="#8AC636" stroke="#1C1717" stroke-width="3.86106" stroke-miterlimit="10"/>
<path d="M714.879 543.953C524.778 257.527 494.347 16.7613 621.741 -163.414H496.315C368.92 16.7613 399.352 257.525 589.452 543.953H714.879Z" fill="#C3DD7C" stroke="#1C1717" stroke-width="3.86106" stroke-miterlimit="10"/>
<path d="M859.53 90.8404L969.909 192.606C973.812 196.204 979.957 195.692 983.21 191.5L1097 44.8955C1100.16 40.8233 1099.3 34.9377 1095.1 31.9524L976.184 -52.5465C973.162 -54.6944 971.751 -58.4587 972.627 -62.0623C975.41 -73.5216 978.666 -99.5454 957.392 -117.147C929.415 -140.294 869.811 -137.964 804.338 -56.1201C738.865 25.724 775.906 77.8903 791.595 90.8112C808.853 105.024 837.848 94.505 849.71 89.222C853.014 87.7494 856.869 88.3869 859.53 90.8404Z" fill="#DD7D3C"/>
<path d="M859.53 90.8404L969.909 192.606C973.812 196.204 979.957 195.692 983.21 191.5L1097 44.8955C1100.16 40.8233 1099.3 34.9377 1095.1 31.9524L976.184 -52.5465C973.162 -54.6944 971.751 -58.4587 972.627 -62.0623C975.41 -73.5216 978.666 -99.5454 957.392 -117.147C929.415 -140.294 869.811 -137.964 804.338 -56.1201C738.865 25.724 775.906 77.8903 791.595 90.8112C808.853 105.024 837.848 94.505 849.71 89.222C853.014 87.7494 856.869 88.3869 859.53 90.8404Z" stroke="#1C1717" stroke-width="3.86106" stroke-miterlimit="10" stroke-linecap="round"/>
<path d="M861.719 72.3156C860.167 70.8853 857.877 70.598 856.02 71.601L851.304 74.1497C842.832 78.6877 815.871 89.4346 803.803 79.4954C802.188 78.1649 787.933 65.7956 784.972 41.5394C781.77 15.3082 792.86 -13.8844 817.936 -45.2295C828.027 -57.8432 838.367 -68.9055 848.667 -78.1085C894.463 -119.028 930.967 -116.788 948.312 -102.439C968.001 -86.1493 958.115 -58.7205 957.685 -57.5602L955.612 -52.1509C954.801 -50.0343 955.534 -47.6376 957.39 -46.3366L962.121 -43.0193L1074.89 37.1119C1077.18 38.7397 1077.65 41.9486 1075.93 44.1694L977.142 171.44C975.366 173.726 972.016 174.004 969.889 172.043L861.719 72.3156Z" fill="#FFCD85"/>
<path d="M861.719 72.3156C860.167 70.8853 857.877 70.598 856.02 71.601L851.304 74.1497C842.832 78.6877 815.871 89.4346 803.803 79.4954C802.188 78.1649 787.933 65.7956 784.972 41.5394C781.77 15.3082 792.86 -13.8844 817.936 -45.2295C828.027 -57.8432 838.367 -68.9055 848.667 -78.1085C894.463 -119.028 930.967 -116.788 948.312 -102.439C968.001 -86.1493 958.115 -58.7205 957.685 -57.5602L955.612 -52.1509C954.801 -50.0343 955.534 -47.6376 957.39 -46.3366L962.121 -43.0193L1074.89 37.1119C1077.18 38.7397 1077.65 41.9486 1075.93 44.1694L977.142 171.44C975.366 173.726 972.016 174.004 969.889 172.043L861.719 72.3156Z" stroke="#1C1717" stroke-width="3.86106" stroke-miterlimit="10" stroke-linecap="round"/>
<path d="M818.89 29.6881C820.641 11.5315 851.096 13.884 842.873 29.5684C834.651 45.2527 817.716 41.8544 818.89 29.6881Z" fill="#DD7D3C"/>
<path d="M904.603 3.13538C914.115 -1.65752 919.769 10.8951 910.715 15.2782C901.661 19.6614 895.091 7.92828 904.603 3.13538Z" fill="#DD7D3C"/>
<path d="M947.987 68.1455C944.967 58.798 971.169 50.2117 970.295 67.6702C969.422 85.1299 951.006 77.4937 947.987 68.1455Z" fill="#DD7D3C"/>
<path d="M906.701 60.5611C906.224 55.0105 918.057 58.7527 915.261 64.9568C912.466 71.1608 907.292 67.4443 906.701 60.5611Z" fill="#DD7D3C"/>
<path d="M999.264 17.9408C1006.49 17.7281 1011.65 33.8775 1000.93 31.2181C990.218 28.5576 992.041 18.1536 999.264 17.9408Z" fill="#DD7D3C"/>
<path d="M563.661 159.381C545.671 188.495 513.906 214.694 473.045 217.49C413.645 221.555 361.376 191.35 357.825 141.774C354.366 93.4115 371.641 45.0165 405.32 27.7335C406.18 27.2773 407.043 26.8616 407.915 26.4618C443.313 10.349 485.03 23.3326 493.95 63.9251C533.238 46.7383 586.523 75.1542 579.184 119.875C577.131 132.367 571.815 146.173 563.661 159.381Z" fill="#E30705"/>
<path d="M493.947 63.9285C533.232 46.7422 586.518 75.1519 579.179 119.881C572.607 159.938 532.436 213.432 473.043 217.494C413.65 221.556 361.373 191.352 357.825 141.771C354.277 92.1893 372.529 42.5662 407.917 26.46C443.306 10.3525 485.035 23.3355 493.947 63.9285Z" stroke="#1C1717" stroke-width="3.86106" stroke-miterlimit="10" stroke-linecap="round"/>
<path d="M478.326 59.1622C472.642 58.1399 466.673 59.1873 461.554 61.8452C457.557 63.9203 458.825 69.9383 463.321 70.1888L475.359 70.8592C477.203 70.962 479.113 71.0818 480.75 71.9366C482.318 72.7563 483.475 74.1647 484.702 75.439C489.471 80.3974 495.912 83.7188 502.717 84.7309C504.933 85.061 507.427 85.0938 508.902 82.9836C510.114 81.2502 509.939 78.9078 508.815 77.1171C506.843 73.9771 503.189 72.9327 499.764 72.0239C503.213 69.9454 507.479 72.3355 511.198 73.8799C515.186 75.5346 521.541 74.8971 521.185 70.0528C521.042 68.0956 519.679 66.4326 517.899 65.6051L500.659 57.5852C509.972 38.8532 525.981 21.7723 525.468 0.860015C525.44 -0.273514 525.35 -1.44667 524.807 -2.44222C524.152 -3.64103 522.938 -4.40944 521.775 -5.12664C516.394 -8.43947 511.654 -6.42032 506.589 -7.11115C504.13 -7.44569 502.016 -5.46786 502.286 -3.00034C504.596 18.17 500.505 33.3805 492.059 54.3673C486.266 49.3874 480.474 44.4079 474.681 39.428C473.317 38.2562 471.873 37.0368 469.688 37.5727C466.72 38.3006 465.103 41.4814 465.781 44.4612C466.872 49.2551 471.544 51.5732 475.8 53.4785L478.326 59.1622Z" fill="#5DC27C"/>
<path d="M478.326 59.1622C472.642 58.1399 466.673 59.1873 461.554 61.8452C457.557 63.9203 458.825 69.9383 463.321 70.1888L475.359 70.8592C477.203 70.962 479.113 71.0818 480.75 71.9366C482.318 72.7563 483.475 74.1647 484.702 75.439C489.471 80.3974 495.912 83.7188 502.717 84.7309C504.933 85.061 507.427 85.0938 508.902 82.9836C510.114 81.2502 509.939 78.9078 508.815 77.1171C506.843 73.9771 503.189 72.9327 499.764 72.0239C503.213 69.9454 507.479 72.3355 511.198 73.8799C515.186 75.5346 521.541 74.8971 521.185 70.0528C521.042 68.0956 519.679 66.4326 517.899 65.6051L500.659 57.5852C509.972 38.8532 525.981 21.7723 525.468 0.860015C525.44 -0.273514 525.35 -1.44667 524.807 -2.44222C524.152 -3.64103 522.938 -4.40944 521.775 -5.12664C516.394 -8.43947 511.654 -6.42032 506.589 -7.11115C504.13 -7.44569 502.016 -5.46786 502.286 -3.00034C504.596 18.17 500.505 33.3805 492.059 54.3673C486.266 49.3874 480.474 44.4079 474.681 39.428C473.317 38.2562 471.873 37.0368 469.688 37.5727C466.72 38.3006 465.103 41.4814 465.781 44.4612C466.872 49.2551 471.544 51.5732 475.8 53.4785L478.326 59.1622Z" stroke="#1C1717" stroke-width="3.86106" stroke-miterlimit="10" stroke-linecap="round"/>
<path d="M895.042 162.112C904.132 187.727 904.568 220.426 885.989 247.125C858.978 285.937 814.287 303.298 781.816 280.852C750.141 258.954 728.753 224.197 734.79 194.745C734.936 193.986 735.107 193.245 735.292 192.506C742.909 162.571 771.688 143.185 801.265 157.838C810.15 124.96 854.238 106.083 878.29 132.858C885.005 140.341 890.915 150.496 895.042 162.112Z" fill="#E30705"/>
<path d="M801.263 157.843C810.147 124.967 854.231 106.085 878.288 132.865C899.832 156.85 912.996 208.322 885.989 247.13C858.98 285.936 814.286 303.302 781.811 280.852C749.337 258.402 727.675 222.43 735.29 192.504C742.906 162.577 771.691 143.184 801.263 157.843Z" stroke="#1C1717" stroke-width="3.86106" stroke-miterlimit="10" stroke-linecap="round"/>
<path d="M790.547 165.149C787.088 168.162 784.77 172.38 783.871 176.871C783.17 180.379 787.527 182.585 789.918 179.924L796.317 172.801C797.298 171.709 798.321 170.587 799.664 169.998C800.95 169.434 802.398 169.417 803.798 169.291C809.24 168.802 814.498 166.464 818.509 162.752C819.814 161.543 821.074 160.016 820.5 158.052C820.029 156.44 818.491 155.384 816.823 155.19C813.898 154.85 811.434 156.595 809.17 158.264C809.597 155.094 813.199 153.64 816.004 152.104C819.011 150.457 821.775 146.204 818.599 144.016C817.315 143.132 815.608 143.15 814.211 143.84L800.673 150.532C793.7 135.452 791.079 117.044 777.87 106.967C777.155 106.421 776.383 105.893 775.497 105.736C774.429 105.545 773.348 105.915 772.327 106.28C767.6 107.966 766.495 111.905 763.549 114.699C762.119 116.056 762.294 118.349 763.956 119.409C778.217 128.502 785.604 138.597 794.405 154.26C788.441 155.371 782.477 156.485 776.513 157.597C775.108 157.859 773.636 158.147 772.881 159.767C771.856 161.967 773.022 164.55 775.206 165.611C778.717 167.319 782.476 165.578 785.771 163.889L790.547 165.149Z" fill="#5DC27C"/>
<path d="M790.547 165.149C787.088 168.162 784.77 172.38 783.871 176.871C783.17 180.379 787.527 182.585 789.918 179.924L796.317 172.801C797.298 171.709 798.321 170.587 799.664 169.998C800.95 169.434 802.398 169.417 803.798 169.291C809.24 168.802 814.498 166.464 818.509 162.752C819.814 161.543 821.074 160.016 820.5 158.052C820.029 156.44 818.491 155.384 816.823 155.19C813.898 154.85 811.434 156.595 809.17 158.264C809.597 155.094 813.199 153.64 816.004 152.104C819.011 150.457 821.775 146.204 818.599 144.016C817.315 143.132 815.608 143.15 814.211 143.84L800.673 150.532C793.7 135.452 791.079 117.044 777.87 106.967C777.155 106.421 776.383 105.893 775.497 105.736C774.429 105.545 773.348 105.915 772.327 106.28C767.6 107.966 766.495 111.905 763.549 114.699C762.119 116.056 762.294 118.349 763.956 119.409C778.217 128.502 785.604 138.597 794.405 154.26C788.441 155.371 782.477 156.485 776.513 157.597C775.108 157.859 773.636 158.147 772.881 159.767C771.856 161.967 773.022 164.55 775.206 165.611C778.717 167.319 782.476 165.578 785.771 163.889L790.547 165.149Z" stroke="#1C1717" stroke-width="3.86106" stroke-miterlimit="10" stroke-linecap="round"/>
<path d="M463.291 373.476C462.151 378.625 458.326 382.706 454.604 386.423C450.423 390.571 445.857 394.809 440.102 396.039C431.435 397.899 422.55 392.478 413.801 393.877C406.511 395.051 399.685 400.88 392.583 398.865C387.996 397.55 384.645 393.166 379.94 392.37C377.041 391.876 374.11 392.828 371.17 392.848C365.693 392.89 360.783 389.691 356.249 386.622C350.069 382.438 343.89 378.254 337.711 374.07C331.859 370.101 325.565 365.517 323.945 358.661C323.24 355.715 323.485 352.596 322.647 349.689C320.676 342.848 313.525 339.172 308.192 334.441C302.871 329.712 299.439 320.352 305.134 316.076C296.351 315.427 289.01 306.711 289.838 297.946C285.625 297.77 281.186 297.531 277.616 295.273C274.045 293.015 271.844 288.026 274.065 284.438C268.708 285.062 268.552 281.061 263.749 278.585C258.959 276.11 255.821 269.666 258.712 265.1C250.888 265.067 247.401 252.363 254.092 248.332C245.147 244.121 239.872 233.316 242.034 223.667C236.765 216.187 232.647 209.202 239.602 203.257C236.116 202.431 239.297 197.442 241.058 194.299C243.837 189.32 240.602 183.318 238.928 177.853C237.266 172.402 239.457 164.219 245.135 164.87C242.483 159.977 244.655 153.486 248.967 149.947C253.265 146.419 259.119 145.368 264.684 145.477L266.509 144.721L273.974 141.598C291.392 136.813 311.233 142.395 323.642 155.53C325.939 157.967 328.138 160.73 331.277 161.908C334.889 163.265 339.6 162.497 342.035 165.479C345.101 169.237 341.79 175.856 345.198 179.314C348.229 182.409 353.68 180.126 357.671 181.819C362.432 183.825 363.147 190.303 366.634 194.119C370.539 198.404 378.372 200.106 378.549 205.908C378.608 207.713 377.805 209.596 378.486 211.271C379.769 214.38 384.361 213.638 387.443 214.992C392.122 217.041 392.654 223.669 396.438 227.113C399.421 229.802 403.793 230.06 407.577 231.383C416.667 234.573 422.337 245.304 419.862 254.609C429.465 256.21 435.572 268.357 431.144 277.021C437.348 278.464 441.105 286.305 438.35 292.05C437.608 293.604 436.477 295.026 436.3 296.742C435.943 300.198 439.406 302.614 441.741 305.184C444.091 307.743 444.556 313.135 441.105 313.593C445.257 315.484 447.403 320.765 445.964 325.042C445.88 325.356 445.757 325.667 445.61 325.962C452.501 327.399 455.643 337.428 450.806 342.543C454.685 342.194 457.96 345.935 458.545 349.787C459.143 353.64 457.788 357.485 456.452 361.151C461.66 361.961 464.417 368.34 463.291 373.476Z" fill="#F2A551"/>
<path d="M273.972 141.595C291.39 136.814 311.236 142.401 323.639 155.531C325.94 157.967 328.141 160.736 331.278 161.913C334.889 163.268 339.599 162.492 342.038 165.479C345.108 169.241 341.796 175.85 345.195 179.317C348.232 182.416 353.679 180.126 357.675 181.817C362.432 183.832 363.148 190.306 366.631 194.122C370.538 198.404 378.37 200.109 378.553 205.902C378.609 207.708 377.804 209.595 378.493 211.265C379.776 214.374 384.358 213.64 387.439 214.989C392.13 217.042 392.653 223.67 396.444 227.11C399.417 229.807 403.792 230.055 407.579 231.384C416.661 234.574 422.339 245.301 419.867 254.606C429.466 256.206 435.577 268.353 431.142 277.014C437.348 278.47 441.106 286.303 438.356 292.055C437.615 293.603 436.484 295.032 436.305 296.74C435.943 300.193 439.409 302.618 441.749 305.184C444.088 307.749 444.555 313.135 441.113 313.589C445.559 315.617 447.717 321.552 445.613 325.961C452.502 327.403 455.642 337.425 450.807 342.541C454.686 342.201 457.955 345.938 458.548 349.786C459.138 353.635 457.784 357.487 456.45 361.145C461.656 361.964 464.422 368.335 463.286 373.481C462.15 378.627 458.332 382.702 454.598 386.42C450.428 390.573 445.852 394.809 440.097 396.043C431.434 397.903 422.546 392.474 413.799 393.88C406.508 395.052 399.681 400.882 392.58 398.858C387.993 397.551 384.643 393.162 379.941 392.362C377.047 391.869 374.111 392.832 371.176 392.851C365.699 392.887 360.789 389.696 356.253 386.625C350.07 382.437 343.887 378.25 337.705 374.062C331.86 370.104 325.568 365.52 323.94 358.652C323.243 355.712 323.49 352.595 322.65 349.691C320.67 342.847 313.522 339.173 308.195 334.443C302.868 329.713 299.442 320.358 305.132 316.072C296.351 315.421 289.004 306.713 289.839 297.948C285.621 297.769 281.184 297.527 277.614 295.273C274.044 293.019 271.836 288.02 274.062 284.433C268.7 285.063 268.545 281.055 263.748 278.578C258.951 276.103 255.816 269.661 258.703 265.1C250.892 265.063 247.398 252.358 254.093 248.332C245.149 244.119 239.864 233.319 242.025 223.671C236.769 216.181 232.645 209.199 239.603 203.256C236.109 202.424 239.296 197.438 241.05 194.303C243.838 189.32 240.597 183.319 238.93 177.859C237.262 172.398 239.457 164.216 245.129 164.871C242.478 159.977 244.657 153.485 248.96 149.953C253.262 146.42 259.119 145.365 264.684 145.476L273.972 141.595Z" stroke="#1C1717" stroke-width="3.86106" stroke-miterlimit="10" stroke-linecap="round"/>
<path d="M341.136 214.006C344.547 211.1 346.611 206.675 346.646 202.195" stroke="#1C1717" stroke-width="3.86106" stroke-miterlimit="10" stroke-linecap="round"/>
<path d="M263.172 208.85C267.532 207.927 271.703 206.118 275.357 203.567" stroke="#1C1717" stroke-width="3.86106" stroke-miterlimit="10" stroke-linecap="round"/>
<path d="M295.589 168.51C297.618 166.487 298.993 163.817 299.458 160.989" stroke="#1C1717" stroke-width="3.86106" stroke-miterlimit="10" stroke-linecap="round"/>
<path d="M289.117 231.747C292.242 231.538 295.084 229.08 295.74 226.017" stroke="#1C1717" stroke-width="3.86106" stroke-miterlimit="10" stroke-linecap="round"/>
<path d="M317.857 185.297C320.077 184.45 321.794 182.397 322.234 180.062" stroke="#1C1717" stroke-width="3.86106" stroke-miterlimit="10" stroke-linecap="round"/>
<path d="M255.887 173.126C257.711 171.59 259.535 170.053 261.359 168.517" stroke="#1C1717" stroke-width="3.86106" stroke-miterlimit="10" stroke-linecap="round"/>
<path d="M252.623 156.148C245.131 164.871 251.417 164.749 262.531 157.172C267.527 153.767 272.69 151.261 276.861 149.534C281.352 147.674 278.88 140.744 274.266 142.272C272.872 142.734 271.374 143.548 269.787 144.837L251.155 100.042L224.408 119.802L258.258 150.185L252.623 156.148Z" fill="#5DC27C"/>
<path d="M252.623 156.148C245.131 164.871 251.417 164.749 262.531 157.172C267.527 153.767 272.69 151.261 276.861 149.534C281.352 147.674 278.88 140.744 274.266 142.272C272.872 142.734 271.374 143.548 269.787 144.837L251.155 100.042L224.408 119.802L258.258 150.185L252.623 156.148Z" stroke="#1C1717" stroke-width="3.86106" stroke-miterlimit="10" stroke-linecap="round"/>
<path d="M216.584 131.884C212.838 143.12 207.909 153.764 202.478 163.442C197.574 172.181 192.259 180.135 187.047 187.02C175.953 201.666 165.296 211.525 159.916 213.983C149.517 218.745 144.305 205.914 122.232 203.7C121.512 203.623 120.778 203.558 120.019 203.507C96.0673 201.937 83.4416 203.069 56.4143 195.154C54.0075 194.446 51.6909 193.725 49.4644 192.979C26.5812 185.424 12.3467 176.351 -0.00864015 173.468C-3.27767 172.696 -7.47335 170.173 -11.9393 166.775C-25.9807 156.106 -42.7891 136.878 -42.7891 136.878L-61.0391 57.5718C-61.0391 57.5718 -44.8098 -9.18587 -39.3657 -11.554H-39.3528C-33.7929 -13.935 47.4566 -17.3198 47.4566 -17.3198L79.3618 10.8273L122.425 48.8072L191.448 109.709L216.584 131.884Z" fill="#FFCD85"/>
<path d="M127.11 184.755C127.11 191.627 125.347 198.088 122.233 203.7C121.512 203.622 120.778 203.558 120.019 203.507C96.0675 201.936 83.4418 203.069 56.4144 195.154C54.0077 194.446 51.6911 193.725 49.4645 192.979C48.8854 190.328 48.5894 187.573 48.5894 184.755C48.5894 163.068 66.1572 145.488 87.8434 145.488C109.53 145.488 127.11 163.068 127.11 184.755Z" fill="#DD7D3C"/>
<path d="M216.584 131.884C212.839 143.12 207.909 153.763 202.478 163.442C200.445 163.918 198.334 164.175 196.159 164.175C180.998 164.175 168.72 151.884 168.72 136.736C168.72 130.558 170.766 124.857 174.19 120.275C178.308 114.805 184.421 110.919 191.448 109.709C192.98 109.438 194.55 109.297 196.159 109.297C204.666 109.297 212.26 113.171 217.292 119.233C218.888 123.454 219.081 128.242 216.584 131.884Z" fill="#DD7D3C"/>
<path d="M216.584 131.884C212.838 143.12 207.909 153.764 202.478 163.442C187.162 190.74 167.831 210.367 159.916 213.983C149.517 218.745 144.305 205.914 122.232 203.7C121.512 203.623 120.778 203.558 120.019 203.507C96.0673 201.937 83.4416 203.069 56.4143 195.154C54.0075 194.446 51.6909 193.725 49.4644 192.979C26.5812 185.424 12.3467 176.351 -0.00864015 173.468C-13.5738 170.289 -42.7891 136.878 -42.7891 136.878L-61.0391 57.5718C-61.0391 57.5718 -44.8098 -9.18587 -39.3657 -11.554H-39.3528C-33.7929 -13.935 47.4566 -17.3198 47.4566 -17.3198L79.3618 10.8273L122.425 48.8072L191.448 109.709L216.584 131.884Z" stroke="#1C1717" stroke-width="3.86106" stroke-miterlimit="10" stroke-linecap="round"/>
<path d="M216.584 131.884C212.813 137.444 204.551 137.959 198.347 135.398C192.144 132.837 187.202 127.997 181.603 124.329C179.222 122.772 176.738 121.421 174.19 120.275C155.992 111.961 134.074 112.682 114.961 105.693C109.376 103.647 104.06 100.944 98.539 98.7178C78.0754 90.4294 55.411 88.7177 34.9345 80.455C21.9614 75.2168 10.3525 67.5848 -0.458491 58.7173C-12.7109 48.6528 -23.9337 37.031 -34.912 25.5765L-39.3522 -11.554L-42.0292 -33.8837C-44.4874 -38.221 -40.4333 -43.2661 -36.7138 -46.5866C-30.8579 -51.8248 -24.9891 -57.0758 -19.1203 -62.314C-5.55509 -74.4506 8.30611 -86.7802 24.9215 -94.2063C41.5498 -101.632 61.6788 -103.511 77.5863 -94.6696C99.234 -82.636 108.14 -54.283 130.277 -43.1503C141.204 -37.6547 156.828 -34.1926 157.935 -22.0046C158.064 -20.6017 157.961 -19.1989 157.793 -17.796C157.587 -15.9427 157.291 -14.0894 157.317 -12.2232C157.497 -1.70827 167.472 5.43468 174.164 13.5429C176.983 16.9535 179.248 20.6472 181.114 24.5469C192.8 48.9745 188.81 81.549 205.786 103.441C209.145 107.766 213.251 111.549 215.941 116.311C216.468 117.238 216.919 118.216 217.292 119.233C217.794 120.571 218.154 121.948 218.335 123.338C218.747 126.363 218.296 129.387 216.584 131.884Z" fill="#FFE783"/>
<path d="M181.114 24.547C179.968 24.7015 178.81 24.7787 177.626 24.7787C163.327 24.7787 151.718 13.1698 151.718 -1.12901C151.718 -7.47401 154.009 -13.2913 157.793 -17.7959C157.587 -15.9426 157.291 -14.0893 157.317 -12.2231C157.497 -1.70817 167.471 5.43479 174.164 13.543C176.982 16.9536 179.248 20.6474 181.114 24.547Z" fill="#DD7D3C"/>
<path d="M216.584 131.884C212.813 137.444 204.551 137.959 198.347 135.398C192.144 132.837 187.202 127.997 181.603 124.329C179.222 122.772 176.738 121.421 174.19 120.275C155.992 111.961 134.074 112.682 114.961 105.693C109.376 103.647 104.06 100.944 98.539 98.7178C78.0754 90.4294 55.411 88.7177 34.9345 80.455C7.25075 69.2837 -14.2682 47.1212 -34.912 25.5765L-39.3522 -11.554L-42.0292 -33.8837C-44.4874 -38.221 -40.4333 -43.2661 -36.7138 -46.5866C-30.8579 -51.8248 -24.9891 -57.0758 -19.1203 -62.314C-5.55509 -74.4506 8.30611 -86.7802 24.9215 -94.2063C41.5498 -101.632 61.6788 -103.511 77.5863 -94.6696C99.234 -82.636 108.14 -54.283 130.277 -43.1503C141.204 -37.6547 156.828 -34.1926 157.935 -22.0046C158.064 -20.6017 157.961 -19.1989 157.793 -17.796C157.587 -15.9427 157.291 -14.0894 157.317 -12.2232C157.497 -1.70827 167.472 5.43468 174.164 13.5429C176.983 16.9535 179.248 20.6472 181.114 24.5469C192.8 48.9745 188.81 81.549 205.786 103.441C209.145 107.766 213.251 111.549 215.941 116.311C216.468 117.238 216.919 118.216 217.292 119.233C218.888 123.454 219.081 128.242 216.584 131.884Z" stroke="#1C1717" stroke-width="3.86106" stroke-miterlimit="10" stroke-linecap="round"/>
<path d="M91.1694 73.0897C108.981 73.0897 123.421 58.6503 123.421 40.8383C123.421 23.0264 108.981 8.58691 91.1694 8.58691C73.3574 8.58691 58.918 23.0264 58.918 40.8383C58.918 58.6503 73.3574 73.0897 91.1694 73.0897Z" fill="#DD7D3C"/>
<path d="M599.314 169.831C583.37 161.415 577.263 141.674 585.669 125.721C589.521 118.421 595.739 113.191 602.885 110.471C611.35 107.23 621.125 107.522 629.778 112.075C638.287 116.561 643.994 124.276 646.183 132.914C648.103 140.473 647.344 148.741 643.424 156.185C635.018 172.138 615.277 178.244 599.314 169.831Z" fill="#E30705"/>
<path d="M618.548 173.364C636.445 171.164 649.171 154.872 646.971 136.975C644.771 119.077 628.479 106.352 610.582 108.552C592.684 110.751 579.959 127.043 582.159 144.941C584.359 162.838 600.651 175.563 618.548 173.364Z" stroke="#1C1717" stroke-width="3.86106" stroke-miterlimit="10" stroke-linecap="round"/>
<path d="M663.593 218.418C654.003 221.31 643.333 220.589 633.778 215.553C614.513 205.388 607.127 181.525 617.292 162.26C626.004 145.726 644.802 137.943 662.129 142.491C665.006 143.235 667.836 144.322 670.576 145.766C689.849 155.922 697.235 179.785 687.07 199.05C681.95 208.768 673.332 215.466 663.593 218.418Z" fill="#E30705"/>
<path d="M663.859 218.329C684.67 211.887 696.319 189.794 689.877 168.982C683.435 148.171 661.341 136.522 640.53 142.964C619.719 149.407 608.07 171.5 614.512 192.311C620.954 213.123 643.048 224.771 663.859 218.329Z" stroke="#1C1717" stroke-width="3.86106" stroke-miterlimit="10" stroke-linecap="round"/>
<path d="M680.664 163.772C684.264 171.173 674.637 165.771 673.591 159.218C672.545 152.664 678.92 162.028 678.92 162.028C678.92 162.028 698.868 116.023 695.331 78.1424L697.289 79.1741C697.289 79.1741 697.38 132.069 680.664 163.772Z" stroke="#1C1717" stroke-width="3.86106" stroke-miterlimit="10" stroke-linecap="round"/>
<path d="M626.788 115.509C619.952 110.924 623.978 121.203 630.327 123.142C636.674 125.079 628.276 117.476 628.276 117.476C628.276 117.476 659.398 70.85 696.431 79.5629L695.678 77.4828C695.678 77.4828 667.643 63.542 626.788 115.509Z" stroke="#1C1717" stroke-width="3.86106" stroke-miterlimit="10" stroke-linecap="round"/>
<path d="M688.662 81.6955C685.128 85.9882 679.828 89.9248 671.944 92.5929C643.874 102.1 624.541 86.4427 624.461 86.3778C628.154 76.231 639.782 67.0706 653.236 61.2979C667.643 55.1057 684.148 52.8037 695.249 57.3219C695.249 57.3219 697.753 70.6579 688.662 81.6955Z" fill="#5DC27C"/>
<path d="M695.255 57.3173C673.782 48.5791 632.115 65.3589 624.465 86.3762C624.465 86.3762 643.807 102.119 671.946 92.5906C700.084 83.0637 695.255 57.3173 695.255 57.3173Z" stroke="#1C1717" stroke-width="3.86106" stroke-miterlimit="10" stroke-linecap="round"/>
<path d="M740.424 135.026C740.424 135.026 719.932 147.551 693.719 120.376C667.514 93.1908 692.783 56.7456 692.783 56.7456C692.783 56.7456 700.007 58.4647 708.703 63.5991C715.995 67.9096 724.316 74.6294 730.284 84.7778C735.355 93.4184 738.018 102.922 739.376 111.318C741.52 124.545 740.424 135.026 740.424 135.026Z" fill="#5DC27C"/>
<path d="M692.791 56.743C692.791 56.743 667.513 93.1892 693.722 120.373C719.932 147.555 740.421 135.025 740.421 135.025C740.421 135.025 743.363 107.039 730.287 84.784C717.209 62.5297 692.791 56.743 692.791 56.743Z" stroke="#1C1717" stroke-width="3.86106" stroke-miterlimit="10" stroke-linecap="round"/>
<path d="M266.875 84.316C251.952 82.5927 241.251 69.106 242.963 54.1792C243.752 47.3477 247.002 41.4094 251.73 37.1391C257.326 32.0669 265.005 29.3436 273.1 30.2677C281.061 31.1827 287.822 35.4518 292.13 41.4995C295.903 46.7904 297.808 53.4404 297.011 60.4045C295.298 75.3313 281.81 86.0316 266.875 84.316Z" fill="#E30705"/>
<path d="M286.909 78.5913C298.676 69.2512 300.645 52.1398 291.304 40.3719C281.964 28.604 264.853 26.6358 253.085 35.9759C241.317 45.316 239.349 62.4275 248.689 74.1954C258.029 85.9633 275.141 87.9314 286.909 78.5913Z" stroke="#1C1717" stroke-width="3.86106" stroke-miterlimit="10" stroke-linecap="round"/>
<path d="M331.459 102.648C324.885 107.788 316.38 110.45 307.44 109.423C289.411 107.343 276.472 91.0401 278.552 73.0115C280.327 57.5429 292.575 45.8233 307.404 44.1257C309.864 43.8348 312.389 43.8245 314.953 44.1193C332.985 46.1888 345.924 62.4914 343.844 80.52C342.803 89.6128 338.132 97.4147 331.459 102.648Z" fill="#E30705"/>
<path d="M315.015 109.412C333.042 107.301 345.945 90.9756 343.834 72.948C341.723 54.9205 325.398 42.0175 307.37 44.1284C289.343 46.2394 276.44 62.5649 278.551 80.5925C280.662 98.6201 296.987 111.523 315.015 109.412Z" stroke="#1C1717" stroke-width="3.86106" stroke-miterlimit="10" stroke-linecap="round"/>
<path d="M328.222 55.0567C333.252 59.717 324.145 58.4287 321.355 53.6551C318.565 48.8816 326.342 54.2291 326.342 54.2291C326.342 54.2291 327.947 12.4808 313.767 -15.8696L315.598 -15.6586C315.598 -15.6586 331.634 25.3909 328.222 55.0567Z" stroke="#1C1717" stroke-width="3.86106" stroke-miterlimit="10" stroke-linecap="round"/>
<path d="M271.814 33.8381C265.122 32.3413 271.351 39.1085 276.866 38.6979C282.381 38.2873 273.563 34.9166 273.563 34.9166C273.563 34.9166 283.659 -10.6876 315.049 -15.0982L313.837 -16.4869C313.837 -16.4869 287.857 -18.8511 271.814 33.8381Z" stroke="#1C1717" stroke-width="3.86106" stroke-miterlimit="10" stroke-linecap="round"/>
<path d="M365.955 -5.30612C365.955 -5.30612 353.822 10.6066 325.263 -2.58536C296.707 -15.7876 305.33 -51.7173 305.33 -51.7173C305.33 -51.7173 311.458 -52.5629 319.761 -51.1999C326.725 -50.0532 335.216 -47.3466 342.913 -41.2667C349.459 -36.0865 354.396 -29.5098 357.984 -23.4003C363.643 -13.776 365.955 -5.30612 365.955 -5.30612Z" fill="#5DC27C"/>
<path d="M305.335 -51.7216C305.335 -51.7216 296.705 -15.7881 325.264 -2.58842C353.823 10.61 365.953 -5.30532 365.953 -5.30532C365.953 -5.30532 359.791 -27.9272 342.918 -41.262C326.044 -54.5981 305.335 -51.7216 305.335 -51.7216Z" stroke="#1C1717" stroke-width="3.86106" stroke-miterlimit="10" stroke-linecap="round"/>
</g>
</g>
<defs>
<clipPath id="clip0_362_500">
<rect width="1049" height="241" fill="white"/>
</clipPath>
</defs>
</svg>
