<svg width="587" height="499" viewBox="0 0 587 499" fill="none" xmlns="http://www.w3.org/2000/svg">
<g clip-path="url(#clip0_283_5112)">
<path d="M446.912 85.3495C399.103 106.266 422.012 151.086 446.912 151.086H581.373C621.213 151.086 623.205 80.3697 563.445 85.3495C559.461 67.0229 542.529 67.0894 534.561 69.4134C496.713 31.5651 452.889 59.4536 446.912 85.3495Z" fill="#F0E6D1" stroke="#1D1E19" stroke-width="5"/>
<path d="M61.3856 413.852C86.4166 424.803 74.4226 448.269 61.3856 448.269H-9.01289C-29.8715 448.269 -30.9144 411.245 0.373581 413.852C2.45947 404.257 11.3245 404.292 15.4962 405.508C35.3121 385.693 58.2568 400.294 61.3856 413.852Z" fill="#F0E6D1" stroke="#1D1E19" stroke-width="5"/>
<mask id="path-3-inside-1_283_5112" fill="white">
<path fill-rule="evenodd" clip-rule="evenodd" d="M549.948 336.889C549.543 325.408 544.805 314.481 536.653 306.33C528.123 297.799 516.553 293.006 504.488 293.006C492.424 293.006 480.854 297.799 472.323 306.33C464.172 314.481 459.433 325.408 459.028 336.889H459V338.495V435.893V436.428H459.003C459.143 448.299 463.919 459.654 472.323 468.058C480.854 476.589 492.424 481.381 504.488 481.381C516.553 481.381 528.123 476.589 536.653 468.058C545.058 459.654 549.834 448.299 549.973 436.428H549.977V435.893V338.495V336.889H549.948Z"/>
</mask>
<path fill-rule="evenodd" clip-rule="evenodd" d="M549.948 336.889C549.543 325.408 544.805 314.481 536.653 306.33C528.123 297.799 516.553 293.006 504.488 293.006C492.424 293.006 480.854 297.799 472.323 306.33C464.172 314.481 459.433 325.408 459.028 336.889H459V338.495V435.893V436.428H459.003C459.143 448.299 463.919 459.654 472.323 468.058C480.854 476.589 492.424 481.381 504.488 481.381C516.553 481.381 528.123 476.589 536.653 468.058C545.058 459.654 549.834 448.299 549.973 436.428H549.977V435.893V338.495V336.889H549.948Z" fill="#8AC636"/>
<path d="M536.653 306.33L533.118 309.865L533.118 309.865L536.653 306.33ZM549.948 336.889L544.951 337.065L545.122 341.889H549.948V336.889ZM472.323 306.33L468.788 302.794L468.788 302.794L472.323 306.33ZM459.028 336.889V341.889H463.855L464.025 337.065L459.028 336.889ZM459 336.889V331.889H454V336.889H459ZM459 436.428H454V441.428H459V436.428ZM459.003 436.428L464.003 436.369L463.945 431.428H459.003V436.428ZM472.323 468.058L475.859 464.523L475.859 464.523L472.323 468.058ZM536.653 468.058L533.118 464.523L533.118 464.523L536.653 468.058ZM549.973 436.428V431.428H545.032L544.974 436.369L549.973 436.428ZM549.977 436.428V441.428H554.977V436.428H549.977ZM549.977 336.889H554.977V331.889H549.977V336.889ZM533.118 309.865C540.373 317.121 544.591 326.846 544.951 337.065L554.945 336.713C554.496 323.969 549.236 311.842 540.189 302.794L533.118 309.865ZM504.488 298.006C515.226 298.006 525.525 302.272 533.118 309.865L540.189 302.794C530.721 293.326 517.879 288.006 504.488 288.006V298.006ZM475.859 309.865C483.452 302.272 493.75 298.006 504.488 298.006V288.006C491.098 288.006 478.256 293.326 468.788 302.794L475.859 309.865ZM464.025 337.065C464.386 326.846 468.603 317.121 475.859 309.865L468.788 302.794C459.74 311.842 454.481 323.969 454.031 336.713L464.025 337.065ZM459 341.889H459.028V331.889H459V341.889ZM464 338.495V336.889H454V338.495H464ZM464 435.893V338.495H454V435.893H464ZM464 436.428V435.893H454V436.428H464ZM459.003 431.428H459V441.428H459.003V431.428ZM454.003 436.487C454.158 449.663 459.459 462.265 468.788 471.594L475.859 464.523C468.378 457.042 464.127 446.935 464.003 436.369L454.003 436.487ZM468.788 471.594C478.256 481.062 491.098 486.381 504.488 486.381V476.381C493.75 476.381 483.452 472.116 475.859 464.523L468.788 471.594ZM504.488 486.381C517.879 486.381 530.721 481.062 540.189 471.594L533.118 464.523C525.525 472.116 515.226 476.381 504.488 476.381V486.381ZM540.189 471.594C549.517 462.265 554.818 449.663 554.973 436.487L544.974 436.369C544.85 446.935 540.598 457.042 533.118 464.523L540.189 471.594ZM549.977 431.428H549.973V441.428H549.977V431.428ZM544.977 435.893V436.428H554.977V435.893H544.977ZM544.977 338.495V435.893H554.977V338.495H544.977ZM544.977 336.889V338.495H554.977V336.889H544.977ZM549.948 341.889H549.977V331.889H549.948V341.889Z" fill="#1D1E19" mask="url(#path-3-inside-1_283_5112)"/>
<path d="M504.488 505.463V449.272M504.488 340.1V396.827M504.488 396.827L526.965 373.815M504.488 396.827V425.19M504.488 425.19L481.477 403.249M504.488 425.19V449.272M504.488 449.272L526.965 428.401" stroke="#1D1E19" stroke-width="5"/>
<path d="M528.871 502.11L529.084 502.147H529.301H586.574H587.085L587.556 501.946C591.778 500.144 594.779 497.74 596.57 494.904C598.381 492.039 598.844 488.905 598.264 485.931C597.271 480.833 593.292 476.38 588.18 474.026C588.773 471.255 588.62 468.7 587.878 466.416C586.94 463.528 585.119 461.249 583.025 459.578C580.939 457.914 578.521 456.803 576.241 456.252C574.774 455.898 573.215 455.741 571.768 455.917C567.411 449.686 562.664 446.018 557.816 444.477C552.558 442.806 547.527 443.75 543.332 446.084C539.176 448.397 535.798 452.087 533.619 456.083C531.863 459.302 530.79 462.904 530.853 466.316C525.54 467.892 521.666 470.429 519.104 473.598C516.205 477.184 515.148 481.38 515.404 485.389C515.901 493.15 521.456 500.816 528.871 502.11Z" fill="#5DC27C" stroke="#1D1E19" stroke-width="5"/>
</g>
<defs>
<clipPath id="clip0_283_5112">
<rect width="587" height="499" fill="white"/>
</clipPath>
</defs>
</svg>
