<svg width="708" height="345" viewBox="0 0 708 345" fill="none" xmlns="http://www.w3.org/2000/svg">
<g clip-path="url(#clip0_653_382)">
<rect width="708" height="345" fill="#F6CA45"/>
<path d="M560.973 11.168C530.184 24.638 544.937 53.5017 560.973 53.5017H647.565C673.221 53.5017 674.504 7.96103 636.019 11.168C633.453 -0.634199 622.549 -0.591404 617.418 0.905267C593.044 -23.4688 564.821 -5.50879 560.973 11.168Z" fill="#F0E6D1" stroke="#1D1E19" stroke-width="3.5"/>
<path d="M551.908 84.8953C569.439 92.5651 561.039 109 551.908 109H502.603C487.994 109 487.264 83.0693 509.177 84.8953C510.638 78.1752 516.847 78.1996 519.768 79.0518C533.647 65.1733 549.717 75.3996 551.908 84.8953Z" fill="#F0E6D1" stroke="#1D1E19" stroke-width="3.5"/>
<mask id="path-3-inside-1_653_382" fill="white">
<path fill-rule="evenodd" clip-rule="evenodd" d="M556.249 217.08C557.315 207.062 561.777 197.654 568.966 190.464C577.268 182.162 588.528 177.498 600.269 177.498C612.01 177.498 623.27 182.162 631.572 190.464C638.762 197.654 643.223 207.062 644.289 217.08H644.538V279.057V279.577H644.535C644.399 291.13 639.751 302.18 631.572 310.36C623.27 318.662 612.01 323.326 600.269 323.326C588.528 323.326 577.268 318.662 568.966 310.36C560.787 302.18 556.139 291.13 556.003 279.577H556V279.057L556 221.767C556 221.752 556 221.737 556 221.722V217.08H556.249Z"/>
</mask>
<path fill-rule="evenodd" clip-rule="evenodd" d="M556.249 217.08C557.315 207.062 561.777 197.654 568.966 190.464C577.268 182.162 588.528 177.498 600.269 177.498C612.01 177.498 623.27 182.162 631.572 190.464C638.762 197.654 643.223 207.062 644.289 217.08H644.538V279.057V279.577H644.535C644.399 291.13 639.751 302.18 631.572 310.36C623.27 318.662 612.01 323.326 600.269 323.326C588.528 323.326 577.268 318.662 568.966 310.36C560.787 302.18 556.139 291.13 556.003 279.577H556V279.057L556 221.767C556 221.752 556 221.737 556 221.722V217.08H556.249Z" fill="#C3DD7C"/>
<path d="M568.966 190.464L566.491 187.989L566.491 187.989L568.966 190.464ZM556.249 217.08L559.729 217.45L559.396 220.58H556.249V217.08ZM631.572 190.464L634.047 187.989L631.572 190.464ZM644.289 217.08V220.58H641.142L640.809 217.45L644.289 217.08ZM644.538 217.08V213.58H648.038V217.08H644.538ZM644.538 279.577H648.038V283.077H644.538V279.577ZM644.535 279.577L641.035 279.536L641.076 276.077H644.535V279.577ZM631.572 310.36L629.097 307.885L629.097 307.885L631.572 310.36ZM568.966 310.36L571.441 307.885L571.441 307.885L568.966 310.36ZM556.003 279.577V276.077H559.462L559.503 279.536L556.003 279.577ZM556 279.577V283.077H552.5V279.577H556ZM556 279.057L559.5 279.057V279.057H556ZM556 221.767L552.5 221.767V221.767H556ZM556 221.722L559.5 221.722L559.5 221.726L556 221.722ZM556 217.08H552.5V213.58H556V217.08ZM571.441 192.939C564.82 199.56 560.711 208.225 559.729 217.45L552.769 216.709C553.919 205.899 558.733 195.747 566.491 187.989L571.441 192.939ZM600.269 180.998C589.457 180.998 579.087 185.293 571.441 192.939L566.491 187.989C575.45 179.031 587.6 173.998 600.269 173.998V180.998ZM629.097 192.939C621.451 185.293 611.082 180.998 600.269 180.998V173.998C612.938 173.998 625.088 179.031 634.047 187.989L629.097 192.939ZM640.809 217.45C639.827 208.225 635.718 199.56 629.097 192.939L634.047 187.989C641.805 195.747 646.619 205.899 647.77 216.709L640.809 217.45ZM644.538 220.58H644.289V213.58H644.538V220.58ZM641.038 279.057V217.08H648.038V279.057H641.038ZM641.038 279.577V279.057H648.038V279.577H641.038ZM644.535 276.077H644.538V283.077H644.535V276.077ZM648.035 279.618C647.888 292.084 642.873 304.008 634.047 312.834L629.097 307.885C636.63 300.352 640.91 290.175 641.035 279.536L648.035 279.618ZM634.047 312.834C625.088 321.793 612.938 326.826 600.269 326.826V319.826C611.082 319.826 621.451 315.53 629.097 307.885L634.047 312.834ZM600.269 326.826C587.6 326.826 575.45 321.793 566.491 312.834L571.441 307.885C579.087 315.53 589.457 319.826 600.269 319.826V326.826ZM566.491 312.834C557.665 304.008 552.65 292.084 552.503 279.618L559.503 279.536C559.628 290.175 563.908 300.352 571.441 307.885L566.491 312.834ZM556 276.077H556.003V283.077H556V276.077ZM559.5 279.057V279.577H552.5V279.057H559.5ZM559.5 221.767L559.5 279.057L552.5 279.057L552.5 221.767L559.5 221.767ZM559.5 221.726C559.5 221.739 559.5 221.753 559.5 221.767H552.5C552.5 221.751 552.5 221.735 552.5 221.718L559.5 221.726ZM559.5 217.08V221.722H552.5V217.08H559.5ZM556.249 220.58H556V213.58H556.249V220.58Z" fill="#1D1E19" mask="url(#path-3-inside-1_653_382)"/>
<path d="M600.269 346.762V292.076M600.269 217.08V241.037V268.64M600.269 268.64L622.664 247.287M600.269 268.64V292.076M600.269 292.076L578.395 271.765" stroke="#1D1E19" stroke-width="3.5"/>
<mask id="path-6-inside-2_653_382" fill="white">
<path fill-rule="evenodd" clip-rule="evenodd" d="M625.816 182.706C626.211 171.533 630.822 160.899 638.755 152.966C647.057 144.664 658.317 140 670.058 140C681.799 140 693.059 144.664 701.361 152.966C709.294 160.899 713.905 171.533 714.299 182.706H714.327V279.056V279.577H714.324C714.188 291.13 709.54 302.18 701.361 310.359C693.059 318.661 681.799 323.325 670.058 323.325C658.317 323.325 647.057 318.661 638.755 310.359C630.576 302.18 625.928 291.13 625.792 279.577H625.789V279.056L625.789 184.269C625.789 184.254 625.789 184.239 625.789 184.224V182.706H625.816Z"/>
</mask>
<path fill-rule="evenodd" clip-rule="evenodd" d="M625.816 182.706C626.211 171.533 630.822 160.899 638.755 152.966C647.057 144.664 658.317 140 670.058 140C681.799 140 693.059 144.664 701.361 152.966C709.294 160.899 713.905 171.533 714.299 182.706H714.327V279.056V279.577H714.324C714.188 291.13 709.54 302.18 701.361 310.359C693.059 318.661 681.799 323.325 670.058 323.325C658.317 323.325 647.057 318.661 638.755 310.359C630.576 302.18 625.928 291.13 625.792 279.577H625.789V279.056L625.789 184.269C625.789 184.254 625.789 184.239 625.789 184.224V182.706H625.816Z" fill="#8AC636"/>
<path d="M638.755 152.966L636.28 150.491L636.28 150.491L638.755 152.966ZM625.816 182.706L629.314 182.83L629.195 186.206H625.816V182.706ZM701.361 152.966L703.835 150.491L703.835 150.491L701.361 152.966ZM714.299 182.706V186.206H710.92L710.801 182.83L714.299 182.706ZM714.327 182.706V179.206H717.827V182.706H714.327ZM714.327 279.577H717.827V283.077H714.327V279.577ZM714.324 279.577L710.824 279.536L710.864 276.077H714.324V279.577ZM701.361 310.359L698.886 307.884L698.886 307.884L701.361 310.359ZM638.755 310.359L636.28 312.834L638.755 310.359ZM625.792 279.577V276.077H629.251L629.292 279.536L625.792 279.577ZM625.789 279.577V283.077H622.289V279.577H625.789ZM625.789 279.056L629.289 279.056V279.056H625.789ZM625.789 184.269L622.289 184.269V184.269H625.789ZM625.789 184.224L629.289 184.224L629.289 184.227L625.789 184.224ZM625.789 182.706H622.289V179.206H625.789V182.706ZM641.23 155.441C633.924 162.747 629.677 172.54 629.314 182.83L622.318 182.583C622.744 170.526 627.72 159.051 636.28 150.491L641.23 155.441ZM670.058 143.5C659.245 143.5 648.875 147.795 641.23 155.441L636.28 150.491C645.238 141.533 657.389 136.5 670.058 136.5V143.5ZM698.886 155.441C691.24 147.795 680.87 143.5 670.058 143.5V136.5C682.727 136.5 694.877 141.533 703.835 150.491L698.886 155.441ZM710.801 182.83C710.438 172.54 706.191 162.747 698.886 155.441L703.835 150.491C712.396 159.051 717.371 170.526 717.797 182.583L710.801 182.83ZM714.327 186.206H714.299V179.206H714.327V186.206ZM710.827 279.056V182.706H717.827V279.056H710.827ZM710.827 279.577V279.056H717.827V279.577H710.827ZM714.324 276.077H714.327V283.077H714.324V276.077ZM717.823 279.618C717.677 292.084 712.661 304.008 703.835 312.834L698.886 307.884C706.418 300.352 710.699 290.175 710.824 279.536L717.823 279.618ZM703.835 312.834C694.877 321.792 682.727 326.825 670.058 326.825V319.825C680.87 319.825 691.24 315.53 698.886 307.884L703.835 312.834ZM670.058 326.825C657.389 326.825 645.238 321.792 636.28 312.834L641.23 307.884C648.875 315.53 659.245 319.825 670.058 319.825V326.825ZM636.28 312.834C627.454 304.008 622.439 292.084 622.292 279.618L629.292 279.536C629.417 290.175 633.697 300.352 641.23 307.884L636.28 312.834ZM625.789 276.077H625.792V283.077H625.789V276.077ZM629.289 279.056V279.577H622.289V279.056H629.289ZM629.289 184.269L629.289 279.056L622.289 279.056L622.289 184.269L629.289 184.269ZM629.289 184.227C629.289 184.241 629.289 184.255 629.289 184.269H622.289C622.289 184.253 622.289 184.237 622.289 184.22L629.289 184.227ZM629.289 182.706V184.224H622.289V182.706H629.289ZM625.816 186.206H625.789V179.206H625.816V186.206Z" fill="#1D1E19" mask="url(#path-6-inside-2_653_382)"/>
<path d="M670.058 346.762V292.077M670.058 185.831V241.037M670.058 241.037L648.184 218.642M670.058 241.037V268.64M670.058 268.64L692.453 247.287M670.058 268.64V292.077M670.058 292.077L648.184 271.765" stroke="#1D1E19" stroke-width="3.5"/>
</g>
<defs>
<clipPath id="clip0_653_382">
<rect width="708" height="345" fill="white"/>
</clipPath>
</defs>
</svg>
