<svg width="895" height="472" viewBox="0 0 895 472" fill="none" xmlns="http://www.w3.org/2000/svg">
<g clip-path="url(#clip0_254_264)">
<rect width="895" height="472" fill="#5DC27C"/>
<path d="M161 162.5H877C897.711 162.5 914.5 179.289 914.5 200V479.5H123.5V200C123.5 179.289 140.289 162.5 161 162.5Z" fill="#F57B45" stroke="#1D1E19" stroke-width="5"/>
<path d="M849.5 217.5V199M849.5 217.5V236M849.5 217.5H831M849.5 217.5H868" stroke="#1D1E19" stroke-width="5"/>
<path d="M854.5 217.5C854.5 220.261 852.261 222.5 849.5 222.5C846.739 222.5 844.5 220.261 844.5 217.5C844.5 214.739 846.739 212.5 849.5 212.5C852.261 212.5 854.5 214.739 854.5 217.5Z" fill="#F57B45" stroke="#1D1E19" stroke-width="5"/>
<path d="M849.5 365.5V347M849.5 365.5V384M849.5 365.5H831M849.5 365.5H868" stroke="#1D1E19" stroke-width="5"/>
<path d="M854.5 365.5C854.5 368.261 852.261 370.5 849.5 370.5C846.739 370.5 844.5 368.261 844.5 365.5C844.5 362.739 846.739 360.5 849.5 360.5C852.261 360.5 854.5 362.739 854.5 365.5Z" fill="#F57B45" stroke="#1D1E19" stroke-width="5"/>
<path d="M792.5 291.5V273M792.5 291.5V310M792.5 291.5H774M792.5 291.5H811" stroke="#1D1E19" stroke-width="5"/>
<path d="M797.5 291.5C797.5 294.261 795.261 296.5 792.5 296.5C789.739 296.5 787.5 294.261 787.5 291.5C787.5 288.739 789.739 286.5 792.5 286.5C795.261 286.5 797.5 288.739 797.5 291.5Z" fill="#F57B45" stroke="#1D1E19" stroke-width="5"/>
<path d="M737.5 217.5V199M737.5 217.5V236M737.5 217.5H719M737.5 217.5H756" stroke="#1D1E19" stroke-width="5"/>
<path d="M742.5 217.5C742.5 220.261 740.261 222.5 737.5 222.5C734.739 222.5 732.5 220.261 732.5 217.5C732.5 214.739 734.739 212.5 737.5 212.5C740.261 212.5 742.5 214.739 742.5 217.5Z" fill="#F57B45" stroke="#1D1E19" stroke-width="5"/>
<path d="M737.5 365.5V347M737.5 365.5V384M737.5 365.5H719M737.5 365.5H756" stroke="#1D1E19" stroke-width="5"/>
<path d="M742.5 365.5C742.5 368.261 740.261 370.5 737.5 370.5C734.739 370.5 732.5 368.261 732.5 365.5C732.5 362.739 734.739 360.5 737.5 360.5C740.261 360.5 742.5 362.739 742.5 365.5Z" fill="#F57B45" stroke="#1D1E19" stroke-width="5"/>
<path d="M680.5 291.5V273M680.5 291.5V310M680.5 291.5H662M680.5 291.5H699" stroke="#1D1E19" stroke-width="5"/>
<path d="M685.5 291.5C685.5 294.261 683.261 296.5 680.5 296.5C677.739 296.5 675.5 294.261 675.5 291.5C675.5 288.739 677.739 286.5 680.5 286.5C683.261 286.5 685.5 288.739 685.5 291.5Z" fill="#F57B45" stroke="#1D1E19" stroke-width="5"/>
<path d="M509.5 217.5V199M509.5 217.5V236M509.5 217.5H491M509.5 217.5H528" stroke="#1D1E19" stroke-width="5"/>
<path d="M514.5 217.5C514.5 220.261 512.261 222.5 509.5 222.5C506.739 222.5 504.5 220.261 504.5 217.5C504.5 214.739 506.739 212.5 509.5 212.5C512.261 212.5 514.5 214.739 514.5 217.5Z" fill="#F57B45" stroke="#1D1E19" stroke-width="5"/>
<path d="M247.5 217.5V199M247.5 217.5V236M247.5 217.5H229M247.5 217.5H266" stroke="#1D1E19" stroke-width="5"/>
<path d="M252.5 217.5C252.5 220.261 250.261 222.5 247.5 222.5C244.739 222.5 242.5 220.261 242.5 217.5C242.5 214.739 244.739 212.5 247.5 212.5C250.261 212.5 252.5 214.739 252.5 217.5Z" fill="#F57B45" stroke="#1D1E19" stroke-width="5"/>
<path d="M773.029 441.195C770.78 449.743 748.099 450.755 737.039 450.192V485.62H780.34C778.84 467.25 775.279 432.647 773.029 441.195Z" fill="#FFE1BB" stroke="#1D1E19" stroke-width="5.62349"/>
<path d="M334.96 188.146H396.818V263.5H334.96V188.146Z" fill="#FFE1BB" stroke="#1D1E19" stroke-width="5.62349"/>
<path d="M291.659 219.075H334.397C332.148 235.271 355.579 255.815 367.576 264.063C377.136 257.69 396.368 239.769 396.818 219.075H470.094C487.07 219.075 503.148 226.698 513.893 239.84C531.018 260.786 564.96 248.677 564.96 221.622V179.711V162.028H639.753V179.711V276.997C648.674 276.997 656.79 282.159 660.571 290.239L731.416 441.617L748.848 444.014V498H534.031H199.434V311.3C199.434 260.366 240.724 219.075 291.659 219.075Z" fill="#66AEF4"/>
<path d="M334.397 219.075H291.659C240.724 219.075 199.434 260.366 199.434 311.3V498H534.031M334.397 219.075C332.148 235.271 355.579 255.815 367.576 264.063M334.397 219.075L309.092 271.936L367.576 264.063M534.031 498V419.271M534.031 498H748.848V444.014L731.416 441.617M534.031 341.105L483.982 314.112M534.031 341.105V419.271M534.031 341.105L562.727 302.161C574.386 286.338 592.871 276.997 612.526 276.997H639.753M534.031 419.271C477.984 424.145 366.226 399.926 367.576 264.063M367.576 264.063C377.136 257.69 396.368 239.769 396.818 219.075M367.576 264.063L424.935 271.936L396.818 219.075M396.818 219.075H470.094C487.07 219.075 503.148 226.698 513.893 239.84V239.84C531.018 260.786 564.96 248.677 564.96 221.622V179.711M638.424 428.831L578.897 419.271L607.699 379.907L638.424 428.831ZM638.424 428.831L731.416 441.617M731.416 441.617L660.571 290.239C656.79 282.159 648.674 276.997 639.753 276.997V276.997M564.96 179.711V162.028H639.753V179.711M564.96 179.711H639.753M639.753 179.711V276.997M276.475 372.596V460.323C276.475 473.988 287.553 485.066 301.219 485.066H388.383" stroke="#1D1E19" stroke-width="5.62349"/>
<path d="M607.699 379.898L578.897 419.263L638.423 428.823L607.699 379.898Z" fill="#F57B45" stroke="#1D1E19" stroke-width="5.62349"/>
<path d="M249.321 116.887C253.944 95.779 273.281 101.1 282.372 106.398C290.227 115.645 302.196 136.265 287.23 144.767C268.523 155.395 243.543 143.271 249.321 116.887Z" fill="#FFE1BB" stroke="#1D1E19" stroke-width="5.62349"/>
<path d="M450.86 93.9156C456.783 148.301 422.889 195.955 375.981 201.064C329.074 206.172 285.716 166.931 279.793 112.546C273.87 58.1616 307.764 10.5072 354.672 5.39852C401.579 0.289836 444.937 39.5308 450.86 93.9156Z" fill="#FFE1BB" stroke="#1D1E19" stroke-width="5.62349"/>
<path d="M241.011 73.7904C248.448 81.323 253.469 94.7521 255.791 103.826C268.63 98.5642 276.621 106.031 279.012 110.422L295.47 105.358C297.587 86.4087 302.622 55.64 331.099 68.7185C359.576 81.7971 381.865 65.8158 389.449 56.1904C428.562 62.7722 450.942 38.6151 450.195 -7.10856C449.598 -43.6875 419.632 -36.2074 404.723 -27.895C406.975 -56.2104 368.35 -48.4636 359.688 -44.994C336.482 -35.6984 339.7 -16.4456 287.632 -14.0118C245.977 -12.0648 248.281 16.832 254.64 31.0371C229.528 32.1447 232.657 65.3299 241.011 73.7904Z" fill="#895E3A" stroke="#1D1E19" stroke-width="5.62349"/>
<ellipse cx="360.174" cy="107.192" rx="8.03826" ry="12.6315" transform="rotate(-14.703 360.174 107.192)" fill="#1D1E19"/>
<ellipse cx="410.487" cy="90.71" rx="8.03826" ry="12.6315" transform="rotate(-14.703 410.487 90.71)" fill="#1D1E19"/>
<path d="M541.904 78.311C514.011 78.7127 476.109 125.007 458.114 147.1C455.864 154.631 464.412 157.744 469.361 152.121C475.547 145.091 470.485 147.1 476.109 147.1C478.137 147.1 480.608 148.606 485.107 143.585C489.605 138.564 498.041 140.572 500.29 142.079C502.539 143.585 509.85 142.079 510.975 138.564C512.099 135.049 521.659 131.534 530.657 135.049C539.654 138.564 541.904 132.368 539.654 127.849C537.405 123.33 543.591 118.327 548.09 119.331C552.588 120.336 569.459 121.128 569.459 115.605C569.459 110.082 567.209 102.914 574.52 102.412L541.904 78.311Z" fill="#F6CA45" stroke="#1D1E19" stroke-width="5.62349"/>
<path d="M510.378 120.551C510.814 121.476 510.767 122.914 509.487 124.694C508.23 126.442 505.982 128.176 502.969 129.311C499.956 130.447 496.997 130.676 494.718 130.261C492.396 129.838 491.208 128.865 490.772 127.94C490.335 127.016 490.382 125.578 491.662 123.797C492.919 122.05 495.167 120.316 498.18 119.181C501.193 118.045 504.152 117.816 506.431 118.231C508.753 118.654 509.941 119.627 510.378 120.551Z" fill="#E30705" stroke="#1D1E19" stroke-width="5.62349"/>
<path d="M530.622 90.4244C531.059 91.3486 531.011 92.7872 529.732 94.5675C528.475 96.3154 526.227 98.0489 523.214 99.1844C520.201 100.32 517.242 100.549 514.962 100.134C512.641 99.7107 511.453 98.7377 511.016 97.8135C510.579 96.8894 510.627 95.4507 511.907 93.6705C513.163 91.9226 515.412 90.1891 518.425 89.0536C521.438 87.9181 524.397 87.6889 526.676 88.1042C528.997 88.5273 530.185 89.5003 530.622 90.4244Z" fill="#E30705" stroke="#1D1E19" stroke-width="5.62349"/>
<path d="M541.869 108.5C542.306 109.424 542.258 110.863 540.978 112.643C539.722 114.391 537.474 116.125 534.461 117.26C531.448 118.396 528.488 118.625 526.209 118.209C523.888 117.786 522.7 116.813 522.263 115.889C521.826 114.965 521.874 113.526 523.154 111.746C524.41 109.998 526.659 108.265 529.671 107.129C532.684 105.994 535.644 105.765 537.923 106.18C540.244 106.603 541.432 107.576 541.869 108.5Z" fill="#E30705" stroke="#1D1E19" stroke-width="5.62349"/>
<path d="M532.344 79.3142C524.696 74.494 529.157 70.611 532.344 69.2721C547.527 66.2594 579.685 89.6881 581.268 102.411C582.393 111.45 575.082 114.461 564.96 100.905C555.587 88.3516 541.904 85.3395 532.344 79.3142Z" fill="#F57B45" stroke="#1D1E19" stroke-width="5.62349"/>
<path d="M565.026 146.324V163.195H639.818V126.642C640.006 124.018 638.806 113.483 632.508 92.3385C626.209 71.194 610.992 68.9072 604.17 70.4069C595.072 59.0692 582.767 60.105 575.71 63.3878C567.772 56.6247 559.165 53.7193 554.341 58.0355C545.794 65.6834 560.527 81.8416 568.962 88.9646V118.769H542.532C530.385 130.916 552.467 142.2 565.026 146.324Z" fill="#FFE1BB"/>
<path d="M593.706 99.0869C594.014 85.5148 585.355 71.6043 575.71 63.3878M575.71 63.3878C567.772 56.6247 559.165 53.7193 554.341 58.0355C545.794 65.6834 560.527 81.8416 568.962 88.9646V118.769H542.532C530.385 130.916 552.467 142.2 565.026 146.324V163.195H639.818V126.642C640.006 124.018 638.806 113.483 632.508 92.3385C626.209 71.194 610.992 68.9072 604.17 70.4069M575.71 63.3878C582.767 60.105 595.072 59.0692 604.17 70.4069M614.513 99.0869C612.679 85.3377 608.849 76.2366 604.17 70.4069" stroke="#1D1E19" stroke-width="5.62349"/>
<circle cx="386.696" cy="302.294" r="5.06114" fill="#66AEF4" stroke="#1D1E19" stroke-width="5.62349"/>
<circle cx="400.192" cy="337.16" r="5.06114" fill="#66AEF4" stroke="#1D1E19" stroke-width="5.62349"/>
<circle cx="418.187" cy="365.278" r="5.06114" fill="#66AEF4" stroke="#1D1E19" stroke-width="5.62349"/>
<circle cx="449.679" cy="388.896" r="5.06114" fill="#66AEF4" stroke="#1D1E19" stroke-width="5.62349"/>
<circle cx="483.42" cy="400.143" r="5.06114" fill="#66AEF4" stroke="#1D1E19" stroke-width="5.62349"/>
<path d="M868.066 390.021V486.745H842.6H770.829C770.829 486.745 768.402 472.347 769.093 463.689C769.784 455.03 771.806 443.242 775.668 431.635C782.593 410.826 795.435 390.599 817.133 390.021H842.6H868.066Z" fill="#E30705"/>
<path d="M842.6 390.021H817.133C795.435 390.599 782.593 410.826 775.668 431.635M842.6 390.021H868.066V486.745H842.6M842.6 390.021V463.689M842.6 486.745H770.829C770.829 486.745 768.402 472.347 769.093 463.689C769.784 455.03 771.806 443.242 775.668 431.635M842.6 486.745V463.689M842.6 463.689C820.606 471.562 776.43 476.173 775.668 431.635" stroke="#1D1E19" stroke-width="5.62349"/>
<path d="M-7 -3.5H105V22.5V69V114V136V210V259.5V309.5V360V447.5V482.5H-7V447.5V360V309.5V259.5V210V136V114V69V22.5V-3.5Z" fill="#F0E6D1"/>
<path d="M-7 447.5V482.5H105V447.5M-7 447.5H105M-7 447.5V360M105 447.5V360M-7 360H105M-7 360V309.5M105 360V309.5M105 309.5H-7M105 309.5V259.5M-7 309.5V259.5M-7 259.5H105M-7 259.5V210M105 259.5V210M105 210H-7M105 210V136M-7 210V136M-7 136H105M-7 136V114M105 136V114M105 114H-7M105 114V69M-7 114V69M-7 69H105M-7 69V22.5M105 69V22.5M105 22.5V-3.5H-7V22.5M105 22.5H-7" stroke="#1D1E19" stroke-width="5"/>
<path d="M675 162.5V52L692 69C692 69 699 63.5 720 63.5C739.5 63.5 747 69 747 69L762.5 52L761.5 70.5C781.145 63.0697 797.914 61.4605 812 63.6854C818.483 64.7094 824.397 66.5455 829.762 69C836.098 71.8992 840.167 74.1944 845 78.5C848.97 82.0366 853.942 87.4068 856.935 91.5C859.772 95.3797 862.178 99.4299 864.167 103.5C866.987 109.27 868.969 115.08 870.156 120.5C871.058 124.621 871.5 128.517 871.5 132V155.5C871.5 169.307 860.307 180.5 846.5 180.5H668C668 180.5 659.5 180.5 659.5 170.5C659.5 162.5 668 162.5 668 162.5H675Z" fill="#F5C86D"/>
<path d="M675 162.5V52L692 69C692 69 699 63.5 720 63.5C739.5 63.5 747 69 747 69L762.5 52L761.5 70.5M761.5 138.5V113.5C777.1 96.7 768 82.1667 761.5 77V70.5M799 162.5H668C668 162.5 659.5 162.5 659.5 170.5C659.5 180.5 668 180.5 668 180.5H846.5C860.307 180.5 871.5 169.307 871.5 155.5V132C871.5 128.517 871.058 124.621 870.156 120.5M761.5 70.5C781.145 63.0697 797.914 61.4605 812 63.6854M812 63.6854L808.5 96.5L829.762 69M812 63.6854C818.483 64.7094 824.397 66.5455 829.762 69M829.762 69C836.098 71.8992 840.167 74.1944 845 78.5M845 78.5L829.762 100L856.935 91.5M845 78.5C848.97 82.0366 853.942 87.4068 856.935 91.5M856.935 91.5C859.772 95.3797 862.178 99.4299 864.167 103.5M864.167 103.5L835.5 118L870.156 120.5M864.167 103.5C866.987 109.27 868.969 115.08 870.156 120.5" stroke="#1D1E19" stroke-width="5"/>
<circle cx="708.5" cy="90.5" r="5.5" fill="#1D1E19"/>
<circle cx="741.5" cy="90.5" r="5.5" fill="#1D1E19"/>
<path d="M715 105.5C716.833 108.5 721.8 112.7 727 105.5M727 105.5C729.5 108.333 735.3 112.3 738.5 105.5M727 105.5L724.5 101H729.5L727 105.5Z" stroke="#1D1E19" stroke-width="5"/>
<path d="M758.298 92.5L780 87M758.298 97.5H780M758.298 102.5L780 106M683.286 92.5L663 87M683.286 97.5H663M683.286 102.5L663 106" stroke="#1D1E19" stroke-width="5"/>
<path d="M38.1383 371.288L61 479.5H201.5L175.751 359.62C172.98 346.716 161.574 337.5 148.375 337.5H65.5335C47.7406 337.5 34.4604 353.879 38.1383 371.288Z" fill="#F57B45" stroke="#1D1E19" stroke-width="5"/>
<path d="M71 337H113.603C137.614 337 158.235 354.068 162.722 377.656L182 479" stroke="#1D1E19" stroke-width="5"/>
<circle cx="6" cy="171" r="14.5" fill="#F5C86D" stroke="#1D1E19" stroke-width="5"/>
<circle cx="69.5" cy="46.5" r="9" fill="#F5C86D" stroke="#1D1E19" stroke-width="5"/>
<circle cx="69.5" cy="91.5" r="9" fill="#F5C86D" stroke="#1D1E19" stroke-width="5"/>
<circle cx="69.5" cy="236.5" r="9" fill="#F5C86D" stroke="#1D1E19" stroke-width="5"/>
<circle cx="69.5" cy="281.5" r="9" fill="#F5C86D" stroke="#1D1E19" stroke-width="5"/>
<circle cx="6" cy="334" r="14.5" fill="#F5C86D" stroke="#1D1E19" stroke-width="5"/>
<circle cx="6" cy="405" r="14.5" fill="#F5C86D" stroke="#1D1E19" stroke-width="5"/>
<path d="M421.699 128.017L370 143.653C370 143.653 380.364 169.174 404.598 161.844C432.076 153.533 421.699 128.017 421.699 128.017Z" fill="#FFE1BB" stroke="#1D1E19" stroke-width="5"/>
<path d="M375.813 152.916C381.232 159.353 390.602 166.077 404.598 161.844C410.413 160.086 414.533 157.556 417.414 154.661C409.834 141.26 386.522 147.914 375.813 152.916Z" fill="#F49EB7" stroke="#1D1E19" stroke-width="5"/>
</g>
<defs>
<clipPath id="clip0_254_264">
<rect width="895" height="472" fill="white"/>
</clipPath>
</defs>
</svg>
