<svg width="433" height="680" viewBox="0 0 433 680" fill="none" xmlns="http://www.w3.org/2000/svg">
<g clip-path="url(#clip0_362_364)">
<rect width="433" height="680" fill="#F0E6D1"/>
<g clip-path="url(#clip1_362_364)">
<path d="M930.5 -18H-166V713H930.5V-18Z" fill="#73DBE4" stroke="#1D1E19" stroke-width="5"/>
<path d="M930.5 -18H-166V713H930.5V-18Z" fill="#5DC27C" stroke="#1D1E19" stroke-width="5"/>
<path d="M930.5 428.085H-166V713H930.5V428.085Z" fill="#C3DD7C" stroke="#1D1E19" stroke-width="5"/>
<path d="M930.5 515.4H-166V712.999H930.5V515.4Z" fill="#8AC636" stroke="#1D1E19" stroke-width="5"/>
<path d="M930.5 565.783H-166V713H930.5V565.783Z" fill="#5DC27C" stroke="#1D1E19" stroke-width="5"/>
<path d="M930.5 589.461H-166V597.012H930.5V589.461Z" fill="#8AC636" stroke="#1D1E19" stroke-width="5"/>
<path d="M930.5 650.134H-166V657.686H930.5V650.134Z" fill="#8AC636" stroke="#1D1E19" stroke-width="5"/>
<path d="M145.549 515.4H139.701V565.782H145.549V515.4Z" fill="#894F48" stroke="#1D1E19" stroke-width="5"/>
<path d="M238.142 515.4H232.294V565.782H238.142V515.4Z" fill="#894F48" stroke="#1D1E19" stroke-width="5"/>
<path d="M330.735 515.4H324.887V565.782H330.735V515.4Z" fill="#894F48" stroke="#1D1E19" stroke-width="5"/>
<path d="M423.329 515.4H417.481V565.782H423.329V515.4Z" fill="#894F48" stroke="#1D1E19" stroke-width="5"/>
<path d="M3.12599 112.849H-30.8655C-35.6901 112.849 -39.6375 116.797 -39.6375 121.621V132.952C-39.6375 137.776 -35.6901 141.724 -30.8655 141.724H3.12599C7.95059 141.724 11.898 137.776 11.898 132.952V121.621C11.898 116.797 7.95059 112.849 3.12599 112.849Z" fill="#C3DD7C" stroke="#1D1E19" stroke-width="5"/>
<path d="M64.1027 112.849H30.1112C25.2866 112.849 21.3392 116.797 21.3392 121.621V132.952C21.3392 137.776 25.2866 141.724 30.1112 141.724H64.1027C68.9273 141.724 72.8747 137.776 72.8747 132.952V121.621C72.8747 116.797 68.9273 112.849 64.1027 112.849Z" fill="#C3DD7C" stroke="#1D1E19" stroke-width="5"/>
<path d="M28.894 146.475H-5.09751C-9.92211 146.475 -13.8695 150.422 -13.8695 155.247V166.577C-13.8695 171.402 -9.92211 175.349 -5.09751 175.349H28.894C33.7186 175.349 37.666 171.402 37.666 166.577V155.247C37.666 150.422 33.7186 146.475 28.894 146.475Z" fill="#C3DD7C" stroke="#1D1E19" stroke-width="5"/>
<path d="M149.59 222.283H115.599C110.774 222.283 106.827 226.23 106.827 231.055V242.385C106.827 247.21 110.774 251.157 115.599 251.157H149.59C154.415 251.157 158.362 247.21 158.362 242.385V231.055C158.362 226.23 154.415 222.283 149.59 222.283Z" fill="#C3DD7C" stroke="#1D1E19" stroke-width="5"/>
<path d="M210.568 222.283H176.576C171.752 222.283 167.804 226.23 167.804 231.055V242.385C167.804 247.21 171.752 251.157 176.576 251.157H210.568C215.392 251.157 219.34 247.21 219.34 242.385V231.055C219.34 226.23 215.392 222.283 210.568 222.283Z" fill="#C3DD7C" stroke="#1D1E19" stroke-width="5"/>
<path d="M175.358 255.909H141.366C136.542 255.909 132.594 259.857 132.594 264.681V276.012C132.594 280.836 136.542 284.784 141.366 284.784H175.358C180.183 284.784 184.13 280.836 184.13 276.012V264.681C184.13 259.857 180.183 255.909 175.358 255.909Z" fill="#C3DD7C" stroke="#1D1E19" stroke-width="5"/>
<path d="M0.14993 325.789H-6.57965V384.57H0.14993V325.789Z" fill="#E30705" stroke="#1D1E19" stroke-width="5"/>
<path d="M0.14993 382.458H-6.57965V441.238H0.14993V382.458Z" fill="#E30705" stroke="#1D1E19" stroke-width="5"/>
<path d="M123.081 384.568H129.811V325.787H123.081V384.568Z" fill="#E30705" stroke="#1D1E19" stroke-width="5"/>
<path d="M137.419 457.232H144.147V398.452H137.419V457.232Z" fill="#E30705" stroke="#1D1E19" stroke-width="5"/>
<path d="M123.081 441.238H129.811V382.459H123.081V441.238Z" fill="#E30705" stroke="#1D1E19" stroke-width="5"/>
<path d="M145.171 332.811H-19.4545V346.074H145.171V332.811Z" fill="#E30705" stroke="#1D1E19" stroke-width="5"/>
<path d="M145.171 352.489H-19.4545V365.752H145.171V352.489Z" fill="#E30705" stroke="#1D1E19" stroke-width="5"/>
<path d="M64.2607 392H151.25L144.82 381H64.2607H61.2393H-19.3204L-25.75 392H61.2393H64.2607Z" fill="#E30705" stroke="#1D1E19" stroke-width="5"/>
<path d="M151.783 391H64.2698H61.2302H-26.2831L-32.75 403H61.2302H64.2698H158.25L151.783 391Z" fill="#E30705" stroke="#1D1E19" stroke-width="5"/>
<path d="M185.186 428.086C185.186 428.086 167.154 181.319 280.216 181.319C393.277 181.319 372.809 428.086 372.809 428.086H185.186Z" fill="#F5C86D" stroke="#1D1E19" stroke-width="5"/>
<path d="M185.186 428.086H372.809C372.809 428.086 375.164 399.655 373.86 362.098H184.787C183.11 399.655 185.186 428.086 185.186 428.086Z" fill="#BFACAF" stroke="#1D1E19" stroke-width="5"/>
<path d="M374.209 377.524C374.155 372.601 374.046 367.446 373.86 362.098H184.787C184.549 367.446 184.388 372.601 184.284 377.524H374.209Z" fill="#E8D1D4" stroke="#1D1E19" stroke-width="5"/>
<path d="M-82.7669 18.5498H930.5V38.0427H-83.742C-88.8546 38.0427 -93.0009 33.8979 -93.0009 28.7838C-93.0009 23.1317 -88.4204 18.5498 -82.7669 18.5498Z" fill="#F6CA45" stroke="#1D1E19" stroke-width="5"/>
<path d="M397.057 105.539C394.373 105.539 392.178 103.343 392.178 100.66V27.0835C392.178 24.4008 394.373 22.2048 397.057 22.2048C399.74 22.2048 401.934 24.3993 401.934 27.0835V100.66C401.934 103.343 399.74 105.539 397.057 105.539Z" fill="#F6CA45" stroke="#1D1E19" stroke-width="5"/>
<path d="M584.32 171.81H337.113C335.198 171.81 333.631 170.243 333.631 168.328V98.0567C333.631 96.14 335.198 94.5742 337.113 94.5742H584.32C586.235 94.5742 587.803 96.1415 587.803 98.0567V168.328C587.803 170.243 586.234 171.81 584.32 171.81Z" fill="#F6CA45" stroke="#1D1E19" stroke-width="5"/>
<path d="M57.8332 105.539C55.1504 105.539 52.9545 103.343 52.9545 100.66V27.0833C52.9545 24.4005 55.1504 22.2046 57.8332 22.2046C60.5174 22.2046 62.7119 24.3991 62.7119 27.0833V100.66C62.7119 103.343 60.5174 105.539 57.8332 105.539Z" fill="#F6CA45" stroke="#1D1E19" stroke-width="5"/>
<path d="M19.2166 133.193C19.2166 111.865 36.5062 94.5742 57.8338 94.5742C79.1629 94.5742 96.4526 111.864 96.4526 133.193C96.4526 154.521 79.1629 171.812 57.8338 171.812C36.5062 171.81 19.2166 154.521 19.2166 133.193Z" fill="#F0E6D1" stroke="#1D1E19" stroke-width="5"/>
<path d="M54.5059 133.193C54.5059 131.355 55.9957 129.865 57.832 129.865C59.6697 129.865 61.1595 131.355 61.1595 133.193C61.1595 135.03 59.6683 136.52 57.832 136.52C55.9957 136.519 54.5059 135.029 54.5059 133.193Z" fill="#536C80" stroke="#1D1E19" stroke-width="3"/>
<path d="M57.8335 110.656C57.3993 110.656 57.044 110.3 57.044 109.866V103.404C57.044 102.97 57.3993 102.615 57.8335 102.615C58.2677 102.615 58.623 102.97 58.623 103.404V109.866C58.623 110.3 58.2677 110.656 57.8335 110.656Z" fill="#536C80" stroke="#1D1E19" stroke-width="3"/>
<path d="M57.8335 162.679C57.3993 162.679 57.044 162.324 57.044 161.89V155.426C57.044 154.992 57.3993 154.638 57.8335 154.638C58.2677 154.638 58.623 154.993 58.623 155.426V161.89C58.623 162.322 58.2677 162.679 57.8335 162.679Z" fill="#536C80" stroke="#1D1E19" stroke-width="3"/>
<path d="M79.8259 132.646C79.8259 132.212 80.1811 131.856 80.6153 131.856H87.0774C87.5116 131.856 87.8669 132.212 87.8669 132.646C87.8669 133.08 87.5116 133.435 87.0774 133.435H80.6153C80.1811 133.435 79.8259 133.08 79.8259 132.646Z" fill="#536C80" stroke="#1D1E19" stroke-width="3"/>
<path d="M27.803 132.646C27.803 132.212 28.1568 131.856 28.591 131.856H35.0545C35.4887 131.856 35.844 132.212 35.844 132.646C35.844 133.08 35.4887 133.435 35.0545 133.435H28.591C28.1568 133.435 27.803 133.08 27.803 132.646Z" fill="#536C80" stroke="#1D1E19" stroke-width="3"/>
<path d="M69.881 114.248C69.517 114.009 69.4146 113.518 69.6529 113.155L73.1924 107.749C73.4307 107.386 73.922 107.283 74.286 107.521C74.6486 107.759 74.7509 108.25 74.5126 108.613L70.9731 114.019C70.7348 114.383 70.2436 114.486 69.881 114.248Z" fill="#536C80" stroke="#1D1E19" stroke-width="3"/>
<path d="M41.3834 157.771C41.0193 157.533 40.917 157.042 41.1553 156.678L44.6963 151.271C44.9331 150.909 45.4244 150.805 45.7884 151.043C46.151 151.282 46.2533 151.773 46.015 152.135L42.4755 157.542C42.2372 157.907 41.746 158.01 41.3834 157.771Z" fill="#536C80" stroke="#1D1E19" stroke-width="3"/>
<path d="M45.7868 114.248C46.1494 114.009 46.2518 113.518 46.0135 113.155L42.474 107.749C42.2357 107.386 41.7444 107.283 41.3819 107.521C41.0178 107.759 40.9155 108.25 41.1538 108.613L44.6947 114.019C44.9316 114.383 45.4228 114.486 45.7868 114.248Z" fill="#536C80" stroke="#1D1E19" stroke-width="3"/>
<path d="M74.286 157.771C74.6486 157.533 74.7509 157.042 74.5126 156.678L70.9731 151.271C70.7348 150.909 70.2436 150.805 69.881 151.043C69.517 151.282 69.4146 151.773 69.6529 152.135L73.1924 157.542C73.4307 157.907 73.922 158.01 74.286 157.771Z" fill="#536C80" stroke="#1D1E19" stroke-width="3"/>
<path d="M77.2531 142.966C77.4563 142.583 77.9373 142.435 78.3204 142.638L84.0251 145.67C84.4096 145.875 84.5558 146.355 84.3526 146.738C84.1479 147.121 83.6683 147.268 83.2853 147.064L77.5791 144.031C77.1961 143.83 77.0484 143.349 77.2531 142.966Z" fill="#536C80" stroke="#1D1E19" stroke-width="3"/>
<path d="M31.3131 118.554C31.5178 118.171 31.9973 118.023 32.3803 118.226L38.0865 121.258C38.4696 121.463 38.6158 121.942 38.414 122.326C38.2093 122.709 37.7298 122.856 37.3467 122.652L31.6406 119.619C31.2575 119.418 31.1084 118.938 31.3131 118.554Z" fill="#536C80" stroke="#1D1E19" stroke-width="3"/>
<path d="M77.7429 123.308C77.9271 123.702 78.3993 123.873 78.7926 123.687L84.6435 120.943C85.0368 120.759 85.2079 120.286 85.0237 119.893C84.8395 119.5 84.3672 119.33 83.9725 119.514L78.123 122.259C77.7283 122.443 77.5587 122.915 77.7429 123.308Z" fill="#536C80" stroke="#1D1E19" stroke-width="3"/>
<path d="M30.6452 145.401C30.8294 145.794 31.3017 145.965 31.6949 145.781L37.5459 143.037C37.9377 142.852 38.1102 142.38 37.926 141.987C37.7403 141.594 37.2695 141.423 36.8748 141.607L31.0239 144.352C30.6306 144.535 30.461 145.009 30.6452 145.401Z" fill="#536C80" stroke="#1D1E19" stroke-width="3"/>
<path d="M56.2498 133H59.2498L57.7865 117L56.2498 133Z" fill="#536C80" stroke="#1D1E19" stroke-width="3"/>
<path d="M57.2498 132V135L70.2498 133.537L57.2498 132Z" fill="#536C80" stroke="#1D1E19" stroke-width="3"/>
<path d="M367.577 135.267L387.801 155.489V144.685H448.943V125.846H387.801V115.042L367.577 135.267Z" fill="#F0E6D1" stroke="#1D1E19" stroke-width="5"/>
<path d="M790.75 650.134H163.451C163.451 650.134 90.7854 643.713 55.019 565.783C55.019 565.783 107.372 391.201 269.613 280.698C278.405 274.71 288.816 271.536 299.452 271.536H790.75V650.134Z" fill="#F57B45" stroke="#1D1E19" stroke-width="5"/>
<path d="M790.75 650.133V329.178H431.23C424.019 329.178 416.884 330.784 410.444 334.026C303.395 387.905 163.451 650.133 163.451 650.133H790.75Z" fill="#F57B45" stroke="#1D1E19" stroke-width="5"/>
<path d="M79.9943 518.6C79.9943 518.6 100.098 573.379 190.985 583.979C190.985 583.979 254.095 457.155 363.745 355.179C363.745 355.179 319.641 316.487 247.029 304.703C247.029 304.703 154.679 366.309 79.9943 518.6Z" fill="#66AEF4" stroke="#1D1E19" stroke-width="5"/>
<path d="M289.842 586.815C289.842 586.815 374.709 439.781 462.916 375.853H790.749V586.815H289.842Z" fill="#66AEF4" stroke="#1D1E19" stroke-width="5"/>
<path d="M174.461 630.196H790.75V619.432H180.575C178.334 623.344 176.294 626.942 174.461 630.196Z" fill="#F6CA45" stroke="#1D1E19" stroke-width="5"/>
<path d="M102.306 476.517C94.7693 489.7 87.297 503.712 79.9943 518.6C79.9943 518.6 100.098 573.379 190.985 583.979C190.985 583.979 201.362 563.128 221.006 531.541C175.986 478.928 129.071 473.859 102.306 476.517Z" fill="#B8E5F8" stroke="#1D1E19" stroke-width="5"/>
<path d="M289.843 586.815C289.843 586.815 612.488 506.883 790.75 525.145V586.815C790.75 586.815 286.848 586.815 289.843 586.815Z" fill="#B8E5F8" stroke="#1D1E19" stroke-width="5"/>
<path d="M170.779 636.77C170.779 636.77 137.626 626.337 140.789 610.173C142.982 598.964 187.089 608.259 187.089 608.259L170.779 636.77Z" fill="#F6CA45" stroke="#1D1E19" stroke-width="5"/>
<path d="M58.1183 556.557C58.1183 556.557 72.807 577.643 79.9942 570.542C88.8627 561.782 68.038 531.269 68.038 531.269C68.038 531.269 60.7908 547.229 58.1183 556.557Z" fill="#F6CA45" stroke="#1D1E19" stroke-width="5"/>
</g>
</g>
<defs>
<clipPath id="clip0_362_364">
<rect width="433" height="680" fill="white"/>
</clipPath>
<clipPath id="clip1_362_364">
<rect width="433" height="680" fill="white"/>
</clipPath>
</defs>
</svg>
