<svg width="223" height="335" viewBox="0 0 223 335" fill="none" xmlns="http://www.w3.org/2000/svg">
<g clip-path="url(#clip0_645_94)">
<rect width="223" height="335" fill="#66AEF4"/>
<path d="M-6.41737 -10.4174H230.417V255.417H-6.41737V-10.4174Z" fill="#B8E5F8" stroke="black" stroke-width="3.16527"/>
<path d="M21.6175 176.494L27.2479 158.29L20.7853 88.2328L17.4989 52.5329L22.9934 48.058C40.6819 54.2052 80.1984 59.4 130.209 51.1544C131.775 50.935 135.999 58.2651 137.516 58.0326C149.663 56.1709 160.152 53.9268 167.866 51.876C153.456 64.3591 143.313 81.2673 136.337 98.4217C126.75 122.002 123.149 146.048 122.684 159.705L127.201 179.679L151.662 287.844C137.07 293.76 121.874 297.36 106.794 299.257C86.8493 301.765 67.1058 301.293 49.2257 299.26C23.195 296.299 1.11353 290.03 -11.8902 284.828L21.6175 176.494Z" fill="#5DC27C"/>
<path d="M27.2479 158.29L21.6175 176.494M27.2479 158.29C34.9623 161.586 42.7873 163.872 50.4955 165.371M27.2479 158.29L20.7852 88.2328L17.4989 52.5329L22.9934 48.058C40.6819 54.2052 80.1984 59.4 130.209 51.1544M122.684 159.705L127.201 179.679M122.684 159.705C118.134 161.541 111.476 163.564 103.383 165.123M122.684 159.705C123.149 146.048 126.75 122.002 136.337 98.4217M21.6175 176.494L-11.8902 284.828C1.11353 290.03 23.195 296.299 49.2257 299.26M21.6175 176.494C31.06 177.269 50.3209 183.539 51.8244 202.409M51.8244 202.409L49.2257 299.26M51.8244 202.409C59.9629 188.012 81.8639 167.988 104.36 203.073M49.2257 299.26C67.1058 301.293 86.8493 301.765 106.794 299.257M104.36 203.073L106.794 299.257M104.36 203.073C105.89 195.902 112.601 181.183 127.201 179.679M106.794 299.257C121.874 297.36 137.07 293.76 151.662 287.844L127.201 179.679M50.4955 165.371L40.8178 57.771M50.4955 165.371C58.5361 166.934 66.4497 167.639 73.9781 167.737M73.9781 167.737L76.2876 61.9175M73.9781 167.737C84.8401 167.879 94.9002 166.757 103.383 165.123M103.383 165.123L110.671 61.1276M130.209 51.1544C131.775 50.935 135.999 58.2651 137.516 58.0326C149.663 56.1709 160.152 53.9268 167.866 51.876C153.456 64.3591 143.313 81.2673 136.337 98.4217M130.209 51.1544L136.337 98.4217" stroke="#1D1E19" stroke-width="3.16527"/>
<path d="M-11.8901 284.828L21.6177 176.494C31.0602 177.269 50.321 183.539 51.8246 202.409C59.963 188.012 81.8641 167.988 104.36 203.073C105.891 195.902 112.601 181.184 127.201 179.68L151.662 287.844C137.07 293.761 121.875 297.361 106.794 299.257C86.8494 301.765 67.106 301.293 49.2259 299.26C23.1952 296.3 1.11369 290.03 -11.8901 284.828Z" fill="#8AC636"/>
<path d="M51.8246 202.409C50.321 183.539 31.0602 177.269 21.6177 176.494L-11.8901 284.828C1.11369 290.03 23.1952 296.3 49.2259 299.26M51.8246 202.409L49.2259 299.26M51.8246 202.409C59.963 188.012 81.8641 167.988 104.36 203.073M49.2259 299.26C67.106 301.293 86.8494 301.765 106.794 299.257M104.36 203.073L106.794 299.257M104.36 203.073C105.891 195.902 112.601 181.184 127.201 179.68L151.662 287.844C137.07 293.761 121.875 297.361 106.794 299.257" stroke="#1D1E19" stroke-width="3.16527"/>
<path d="M103.384 165.123C111.477 163.565 118.135 161.541 122.684 159.705C123.149 146.048 126.75 122.002 136.338 98.4219L130.209 51.1546L110.672 61.1278L103.384 165.123Z" fill="#8AC636" stroke="#1D1E19" stroke-width="3.16527"/>
<path d="M40.8179 57.771L50.4956 165.371C58.5362 166.934 66.4498 167.639 73.9782 167.737L76.2877 61.9174L40.8179 57.771Z" fill="#8AC636" stroke="#1D1E19" stroke-width="3.16527"/>
<path d="M139.985 57.5237C120.447 12.619 29.7338 23.3585 18.0993 50.6466C25.5752 53.7283 33.6098 56.0737 41.9669 57.8063C53.5493 60.2076 65.7512 61.432 77.9438 61.8084C89.7594 62.1731 101.566 61.7415 112.792 60.813C120.644 60.1635 132.898 58.557 139.985 57.5237Z" fill="#F57B45" stroke="#1D1E19" stroke-width="3.16527"/>
<path d="M4.48293 62.6051L18.1977 63.9975L21.1655 96.1696C-10.6211 79.6425 -7.09994 148.519 -7.62774 166.794C-7.9257 177.111 -12.9702 180.774 -17.6443 181.615C-20.6541 182.156 -22.7192 179.216 -22.4372 176.171L-13.2716 77.2176C-12.4419 68.2596 -4.46747 61.6964 4.48293 62.6051Z" fill="#F57B45" stroke="#1D1E19" stroke-width="3.16527"/>
<path d="M87.6208 35.6136L77.6285 35.6136L73.0673 21.6994C72.0869 18.7086 74.3152 15.6333 77.4625 15.6334L87.8336 15.6334C90.9868 15.6335 93.2156 18.7195 92.2243 21.7128L87.6208 35.6136Z" fill="#E30705" stroke="#1D1E19" stroke-width="3.16527"/>
<path d="M216.63 252.34C215.84 275.232 184.503 288.492 169.565 289.118C172.032 285.548 174.131 281.604 175.896 277.484C186.597 274.231 207.698 264.649 206.497 252.34C204.996 236.953 188.945 239.707 183.46 246.023C183.728 242.696 183.803 239.626 183.709 236.953C183.664 235.676 183.58 234.489 183.46 233.408C195.267 228.085 217.38 230.573 216.63 252.34Z" fill="#F0E6D1" stroke="#1D1E19" stroke-width="3.16527"/>
<path d="M132.191 324.395C61.1742 324.395 72.5203 299.626 91.2845 293.973H165.759C189.609 293.973 202.744 324.395 132.191 324.395Z" fill="#F57B45" stroke="#1D1E19" stroke-width="3.16527"/>
<path d="M126.186 213.684C150.58 213.685 171.971 218.939 181.357 226.822C181.899 227.277 182.361 228.177 182.731 229.447C183.043 230.519 183.289 231.854 183.46 233.408C183.46 234.583 183.458 235.898 183.439 237.328C183.308 247.518 182.375 263.607 175.896 277.484C172.698 284.333 167.115 292.454 165.759 293.972C161.934 298.253 157.405 301.677 152.085 303.755V309.76C136.698 313.137 122.437 313.513 108.927 309.76V303.755C104.18 302.362 97.4884 299.194 91.2846 293.972C82.447 286.534 74.5997 274.927 74.7761 258.346C74.8705 249.474 74.7589 242.498 75.17 236.953C75.3822 234.091 75.7336 231.611 76.3244 229.447C81.9025 221.19 101.793 213.684 126.186 213.684Z" fill="#F0E6D1"/>
<path d="M108.927 303.755V309.76C122.437 313.513 136.698 313.137 152.085 309.76V303.755M108.927 303.755C116.309 305.882 135.275 308.86 152.085 303.755M108.927 303.755C104.18 302.362 97.4884 299.194 91.2846 293.972C82.447 286.534 74.5997 274.927 74.7761 258.346C74.8705 249.474 74.7589 242.498 75.17 236.953M152.085 303.755C157.405 301.677 161.934 298.253 165.759 293.972C167.115 292.454 172.698 284.333 175.896 277.484C183.285 261.659 183.46 242.957 183.46 233.408C183.289 231.854 183.043 230.519 182.731 229.447M75.17 236.953C101.793 247.836 136.8 253.465 183.439 237.328M75.17 236.953C75.3822 234.091 75.7336 231.611 76.3244 229.447M76.3244 229.447C81.9025 221.19 101.793 213.684 126.186 213.684C150.58 213.685 171.971 218.939 181.357 226.822C181.899 227.277 182.361 228.177 182.731 229.447M76.3244 229.447C78.5166 230.869 81.0114 232.198 83.7789 233.408C103.09 241.851 135.681 244.548 171.421 233.408C175.161 232.242 178.934 230.925 182.731 229.447" stroke="#1D1E19" stroke-width="3.16527"/>
<path d="M128.528 224.943C94.8374 224.943 86.3316 229.003 84.5305 232.453C104.39 240.904 135.591 243.812 172.347 232.662C172.15 230.465 155.544 224.943 128.528 224.943Z" fill="#895E3A" stroke="#1D1E19" stroke-width="3.16527"/>
<path d="M119.431 277.483C104.044 280.486 104.044 261.721 121.307 268.101C115.303 251.589 129.563 253.465 130.689 264.724C139.321 252.715 149.829 262.847 139.321 269.602C150.955 271.104 147.577 280.486 135.943 276.733C146.827 289.117 131.815 290.618 128.536 281.236C124.408 299.25 113.802 284.989 119.431 277.483Z" fill="#F6CA45" stroke="#1D1E19" stroke-width="3.16527"/>
<path d="M152.085 309.76V303.755C135.275 308.86 116.309 305.882 108.927 303.755V309.76C122.437 313.513 136.698 313.138 152.085 309.76Z" fill="#F6CA45" stroke="#1D1E19" stroke-width="3.16527"/>
</g>
<defs>
<clipPath id="clip0_645_94">
<rect width="223" height="335" fill="white"/>
</clipPath>
</defs>
</svg>
