<svg width="895" height="495" viewBox="0 0 895 495" fill="none" xmlns="http://www.w3.org/2000/svg">
<g clip-path="url(#clip0_283_5186)">
<path d="M804.365 80.4525C772.325 94.4698 787.678 124.506 804.365 124.506H894.475C921.174 124.506 922.509 77.1152 882.46 80.4525C879.79 68.1708 868.443 68.2153 863.103 69.7728C837.739 44.4084 808.37 63.0981 804.365 80.4525Z" fill="#F0E6D1" stroke="#1D1E19" stroke-width="5"/>
<path d="M793.891 156.135C812.134 164.117 803.393 181.219 793.891 181.219H742.583C727.38 181.219 726.62 154.235 749.424 156.135C750.944 149.142 757.405 149.167 760.446 150.054C774.888 135.612 791.611 146.254 793.891 156.135Z" fill="#F0E6D1" stroke="#1D1E19" stroke-width="5"/>
<mask id="path-3-inside-1_283_5186" fill="white">
<path fill-rule="evenodd" clip-rule="evenodd" d="M691.898 372C692.922 362.383 697.205 353.35 704.107 346.448C712.077 338.478 722.887 334 734.159 334C745.431 334 756.241 338.478 764.211 346.448C771.114 353.35 775.397 362.383 776.42 372H776.659V376.5V431.5V432H776.656C776.526 443.091 772.064 453.7 764.211 461.552C756.241 469.522 745.431 474 734.159 474C722.887 474 712.077 469.522 704.107 461.552C696.255 453.7 691.792 443.091 691.662 432H691.659V431.5V376.5V372H691.898Z"/>
</mask>
<path fill-rule="evenodd" clip-rule="evenodd" d="M691.898 372C692.922 362.383 697.205 353.35 704.107 346.448C712.077 338.478 722.887 334 734.159 334C745.431 334 756.241 338.478 764.211 346.448C771.114 353.35 775.397 362.383 776.42 372H776.659V376.5V431.5V432H776.656C776.526 443.091 772.064 453.7 764.211 461.552C756.241 469.522 745.431 474 734.159 474C722.887 474 712.077 469.522 704.107 461.552C696.255 453.7 691.792 443.091 691.662 432H691.659V431.5V376.5V372H691.898Z" fill="#C3DD7C"/>
<path d="M704.107 346.448L700.572 342.912L700.572 342.912L704.107 346.448ZM691.898 372L696.87 372.529L696.394 377H691.898V372ZM764.211 346.448L760.676 349.983L760.676 349.983L764.211 346.448ZM776.42 372V377H771.924L771.449 372.529L776.42 372ZM776.659 372V367H781.659V372H776.659ZM776.659 432H781.659V437H776.659V432ZM776.656 432L771.657 431.941L771.715 427H776.656V432ZM764.211 461.552L760.676 458.017L760.676 458.017L764.211 461.552ZM704.107 461.552L700.572 465.088L700.572 465.088L704.107 461.552ZM691.662 432V427H696.604L696.662 431.941L691.662 432ZM691.659 432V437H686.659V432H691.659ZM691.659 372H686.659V367H691.659V372ZM707.643 349.983C701.552 356.074 697.773 364.043 696.87 372.529L686.926 371.471C688.07 360.722 692.857 350.627 700.572 342.912L707.643 349.983ZM734.159 339C724.214 339 714.675 342.951 707.643 349.983L700.572 342.912C709.48 334.004 721.561 329 734.159 329V339ZM760.676 349.983C753.643 342.951 744.105 339 734.159 339V329C746.757 329 758.839 334.004 767.747 342.912L760.676 349.983ZM771.449 372.529C770.545 364.043 766.766 356.074 760.676 349.983L767.747 342.912C775.461 350.627 780.248 360.722 781.392 371.471L771.449 372.529ZM776.659 377H776.42V367H776.659V377ZM771.659 376.5V372H781.659V376.5H771.659ZM771.659 431.5V376.5H781.659V431.5H771.659ZM771.659 432V431.5H781.659V432H771.659ZM776.656 427H776.659V437H776.656V427ZM781.656 432.059C781.51 444.455 776.523 456.311 767.747 465.088L760.676 458.017C767.604 451.088 771.542 441.727 771.657 431.941L781.656 432.059ZM767.747 465.088C758.839 473.996 746.757 479 734.159 479V469C744.105 469 753.643 465.049 760.676 458.017L767.747 465.088ZM734.159 479C721.561 479 709.48 473.996 700.572 465.088L707.643 458.017C714.675 465.049 724.214 469 734.159 469V479ZM700.572 465.088C691.795 456.311 686.808 444.455 686.662 432.059L696.662 431.941C696.777 441.727 700.714 451.088 707.643 458.017L700.572 465.088ZM691.659 427H691.662V437H691.659V427ZM696.659 431.5V432H686.659V431.5H696.659ZM696.659 376.5V431.5H686.659V376.5H696.659ZM696.659 372V376.5H686.659V372H696.659ZM691.898 377H691.659V367H691.898V377Z" fill="#1D1E19" mask="url(#path-3-inside-1_283_5186)"/>
<path d="M734.159 496.5V444M734.159 372V395V421.5M734.159 421.5L755.659 401M734.159 421.5V444M734.159 444L713.159 424.5" stroke="#1D1E19" stroke-width="5"/>
<mask id="path-6-inside-2_283_5186" fill="white">
<path fill-rule="evenodd" clip-rule="evenodd" d="M758.686 339C759.064 328.273 763.491 318.064 771.107 310.448C779.077 302.478 789.887 298 801.159 298C812.431 298 823.241 302.478 831.211 310.448C838.827 318.064 843.254 328.273 843.633 339H843.659V340.5V431.5V432H843.656C843.526 443.091 839.064 453.7 831.211 461.552C823.241 469.522 812.431 474 801.159 474C789.887 474 779.077 469.522 771.107 461.552C763.255 453.7 758.792 443.091 758.662 432H758.659V431.5V340.5V339H758.686Z"/>
</mask>
<path fill-rule="evenodd" clip-rule="evenodd" d="M758.686 339C759.064 328.273 763.491 318.064 771.107 310.448C779.077 302.478 789.887 298 801.159 298C812.431 298 823.241 302.478 831.211 310.448C838.827 318.064 843.254 328.273 843.633 339H843.659V340.5V431.5V432H843.656C843.526 443.091 839.064 453.7 831.211 461.552C823.241 469.522 812.431 474 801.159 474C789.887 474 779.077 469.522 771.107 461.552C763.255 453.7 758.792 443.091 758.662 432H758.659V431.5V340.5V339H758.686Z" fill="#8AC636"/>
<path d="M771.107 310.448L767.572 306.912L767.572 306.912L771.107 310.448ZM758.686 339L763.683 339.176L763.512 344H758.686V339ZM831.211 310.448L827.676 313.983L831.211 310.448ZM843.633 339V344H838.806L838.636 339.176L843.633 339ZM843.659 339V334H848.659V339H843.659ZM843.659 432H848.659V437H843.659V432ZM843.656 432L838.657 431.941L838.715 427H843.656V432ZM831.211 461.552L834.747 465.088L834.747 465.088L831.211 461.552ZM771.107 461.552L767.572 465.088L771.107 461.552ZM758.662 432V427H763.604L763.662 431.941L758.662 432ZM758.659 432V437H753.659V432H758.659ZM758.659 339H753.659V334H758.659V339ZM774.643 313.983C767.923 320.704 764.016 329.711 763.683 339.176L753.689 338.824C754.112 326.834 759.06 315.425 767.572 306.912L774.643 313.983ZM801.159 303C791.214 303 781.675 306.951 774.643 313.983L767.572 306.912C776.48 298.004 788.561 293 801.159 293V303ZM827.676 313.983C820.643 306.951 811.105 303 801.159 303V293C813.757 293 825.839 298.004 834.747 306.912L827.676 313.983ZM838.636 339.176C838.302 329.711 834.396 320.703 827.676 313.983L834.747 306.912C843.259 315.425 848.207 326.834 848.63 338.824L838.636 339.176ZM843.659 344H843.633V334H843.659V344ZM838.659 340.5V339H848.659V340.5H838.659ZM838.659 431.5V340.5H848.659V431.5H838.659ZM838.659 432V431.5H848.659V432H838.659ZM843.656 427H843.659V437H843.656V427ZM848.656 432.059C848.51 444.455 843.523 456.311 834.747 465.088L827.676 458.017C834.604 451.088 838.542 441.727 838.657 431.941L848.656 432.059ZM834.747 465.088C825.839 473.996 813.757 479 801.159 479V469C811.105 469 820.643 465.049 827.676 458.017L834.747 465.088ZM801.159 479C788.561 479 776.48 473.996 767.572 465.088L774.643 458.017C781.675 465.049 791.214 469 801.159 469V479ZM767.572 465.088C758.795 456.311 753.808 444.455 753.662 432.059L763.662 431.941C763.777 441.727 767.714 451.088 774.643 458.017L767.572 465.088ZM758.659 427H758.662V437H758.659V427ZM763.659 431.5V432H753.659V431.5H763.659ZM763.659 340.5V431.5H753.659V340.5H763.659ZM763.659 339V340.5H753.659V339H763.659ZM758.686 344H758.659V334H758.686V344Z" fill="#1D1E19" mask="url(#path-6-inside-2_283_5186)"/>
<path d="M801.159 496.5V444M801.159 342V395M801.159 395L780.159 373.5M801.159 395V421.5M801.159 421.5L822.659 401M801.159 421.5V444M801.159 444L780.159 424.5" stroke="#1D1E19" stroke-width="5"/>
</g>
<defs>
<clipPath id="clip0_283_5186">
<rect width="895" height="495" fill="white"/>
</clipPath>
</defs>
</svg>
