<svg width="587" height="495" viewBox="0 0 587 495" fill="none" xmlns="http://www.w3.org/2000/svg">
<g clip-path="url(#clip0_283_5139)">
<rect width="587" height="495" fill="#66AEF4"/>
<rect x="97.5205" y="177.722" width="433.959" height="265.745" fill="#F49EB7" stroke="#1D1E19" stroke-width="5"/>
<rect x="81.5" y="150.692" width="466" height="27.0408" fill="#C6DF79" stroke="#1D1E19" stroke-width="5"/>
<rect x="129.561" y="208.161" width="115.153" height="235.306" fill="#C6DF79" stroke="#1D1E19" stroke-width="5"/>
<circle cx="315.301" cy="129.167" r="61.5816" fill="#FFE1BB" stroke="#1D1E19" stroke-width="5"/>
<rect x="280.153" y="321.906" width="75.102" height="59.0816" fill="#F0E6D1" stroke="#1D1E19" stroke-width="5"/>
<rect x="352.245" y="321.906" width="75.102" height="59.0816" fill="#F0E6D1" stroke="#1D1E19" stroke-width="5"/>
<rect x="280.153" y="265.835" width="75.102" height="59.0816" fill="#F0E6D1" stroke="#1D1E19" stroke-width="5"/>
<rect x="352.245" y="265.835" width="75.102" height="59.0816" fill="#F0E6D1" stroke="#1D1E19" stroke-width="5"/>
<rect x="280.153" y="209.764" width="75.102" height="59.0816" fill="#F0E6D1" stroke="#1D1E19" stroke-width="5"/>
<rect x="352.245" y="209.764" width="75.102" height="59.0816" fill="#F0E6D1" stroke="#1D1E19" stroke-width="5"/>
<rect x="424.337" y="321.906" width="75.102" height="59.0816" fill="#F0E6D1" stroke="#1D1E19" stroke-width="5"/>
<rect x="424.337" y="265.835" width="75.102" height="59.0816" fill="#F0E6D1" stroke="#1D1E19" stroke-width="5"/>
<rect x="424.337" y="209.764" width="75.102" height="59.0816" fill="#F0E6D1" stroke="#1D1E19" stroke-width="5"/>
<circle cx="228" cy="324" r="7.5" fill="#1D1E19"/>
<path d="M277.412 126.538C277.412 80.9891 352.588 79.9885 352.588 126.538H277.412Z" fill="#F5C86D" stroke="#1D1E19" stroke-width="5"/>
<path d="M277.531 138.712H352.469V142.776C352.469 154.774 342.743 164.5 330.746 164.5H299.255C287.257 164.5 277.531 154.774 277.531 142.776V138.712Z" fill="#F5C86D" stroke="#1D1E19" stroke-width="5"/>
<rect x="272.5" y="131.226" width="85" height="9.57426" rx="4.78713" fill="#895E3A" stroke="#1D1E19" stroke-width="5"/>
<path d="M356.615 121.438H273.52C269.348 121.438 265.937 134.644 281.427 131.211C282.874 130.891 284.414 131.438 285.451 132.497C286.857 133.931 289.098 135.647 291.779 135.647C296.386 135.647 299.002 130.578 303.609 130.578C308.217 130.578 310.274 135.647 314.881 135.647C319.489 135.647 321.36 130.654 325.967 130.578C330.734 130.5 332.565 135.741 337.332 135.647C340.203 135.59 342.993 133.608 344.672 132.14C345.693 131.247 347.12 130.889 348.436 131.216C362.192 134.632 361.939 121.438 356.615 121.438Z" fill="#5DC27C" stroke="#1D1E19" stroke-width="5"/>
<path d="M537.089 56.4013C503.199 71.2283 519.438 103 537.089 103H632.405C660.646 103 662.058 52.8713 619.696 56.4013C616.872 43.4101 604.869 43.4572 599.221 45.1047C572.391 18.2751 541.325 38.0444 537.089 56.4013Z" fill="#F0E6D1" stroke="#1D1E19" stroke-width="5"/>
<path d="M542.164 84.6829C573.668 98.4658 558.572 128 542.164 128H453.561C427.309 128 425.996 81.4015 465.375 84.6829C468 72.6066 479.158 72.6504 484.408 74.1818C509.348 49.2416 538.226 67.6188 542.164 84.6829Z" fill="#F0E6D1" stroke="#1D1E19" stroke-width="5"/>
<path d="M63 499.5V-20.5H615.5V46H224.5C199.095 46 178.5 66.5949 178.5 92V329C178.5 353.853 198.647 374 223.5 374H615.5V499.5H63Z" fill="#5DC27C"/>
<path d="M741.999 25H206.999C179.384 25 156.999 47.3858 156.999 75V345C156.999 372.614 179.384 395 206.999 395H741.999C747.522 395 751.999 390.523 751.999 385C751.999 379.477 747.522 375 741.999 375H227.5C199.886 375 177.5 352.614 177.5 325V95C177.5 67.3858 199.886 45 227.5 45H741.999C747.522 45 751.999 40.5228 751.999 35C751.999 29.4772 747.522 25 741.999 25Z" fill="#F57B45"/>
<path d="M751.999 25H206.999C179.384 25 156.999 47.3858 156.999 75V345C156.999 372.614 179.384 395 206.999 395H751.999" stroke="#1D1E19" stroke-width="5"/>
<path d="M109.5 -4.5H124.5V501.5H109.5V-4.5Z" fill="#F57B45" stroke="#1D1E19" stroke-width="5"/>
<rect x="179.378" y="47.3779" width="521.244" height="325.244" rx="37.6221" stroke="#1D1E19" stroke-width="4.75588"/>
<path d="M-215.5 -55.5H19.6381C55.4603 -55.5 84.5 -26.4603 84.5 9.36189V626.5H-215.5V-55.5Z" fill="#F57B45" stroke="#1D1E19" stroke-width="5"/>
<rect x="-137.5" y="27.5" width="172" height="317" rx="22.5" fill="#F0E6D1" stroke="#1D1E19" stroke-width="5"/>
<path d="M710.5 504.5H139.533C140.858 454.017 182.197 413.5 233 413.5H710.5V504.5Z" fill="#F6CA45" stroke="#1D1E19" stroke-width="5"/>
<rect x="440.703" y="369.234" width="78.1725" height="213.78" rx="39.0862" transform="rotate(15.6368 440.703 369.234)" fill="#F49EB7" stroke="#1D1E19" stroke-width="5"/>
<rect x="435.592" y="378.884" width="203.285" height="223.705" rx="28.1302" fill="#F49EB7" stroke="#1D1E19" stroke-width="5"/>
<circle cx="504.353" cy="303.644" r="69.5316" transform="rotate(12.8954 504.353 303.644)" fill="#FFE1BB" stroke="#1D1E19" stroke-width="5"/>
<path d="M510.688 302.093C497.795 296.084 506.982 268.545 503.768 258.466C499.465 264.276 490.986 278.303 491.289 281.43L437.92 262.71C437.876 255.48 443.599 242.351 454.533 234.662L503.768 258.466L610.68 286.765C629.933 309.519 604.785 412.718 592.022 442.497L481.026 410.078C474.259 372.855 526.805 309.605 510.688 302.093Z" fill="#F57B45"/>
<path d="M503.768 258.466C506.982 268.545 497.795 296.084 510.688 302.093C526.805 309.605 474.259 372.855 481.026 410.078L592.022 442.497C604.785 412.718 629.933 309.519 610.68 286.765L503.768 258.466ZM503.768 258.466C499.465 264.276 490.986 278.303 491.289 281.43L437.92 262.71C437.876 255.48 443.599 242.351 454.533 234.662L503.768 258.466Z" stroke="#1D1E19" stroke-width="5"/>
<path d="M627.859 300.774C570.653 305.748 476.747 267.167 437.003 242.854C429.651 238.356 430.176 228.343 437.406 223.651L437.864 223.354C441.646 220.9 446.435 220.571 450.479 222.564C454.414 224.503 458.856 226.768 459.874 227.595C466.255 210.853 484 182.5 506 184.5C521.831 185.939 563.805 200.284 586.829 207.307C598.896 212.104 619.479 232.756 605.277 276.981C606.673 276.974 616.725 277.601 617.904 277.476L627.859 300.774Z" fill="#F6CA45"/>
<path d="M459.874 227.595C458.856 226.768 454.414 224.503 450.479 222.564C446.435 220.571 441.646 220.9 437.864 223.354L437.406 223.651C430.176 228.343 429.651 238.356 437.003 242.854C476.747 267.167 570.653 305.748 627.859 300.774L617.904 277.476C616.725 277.601 606.673 276.974 605.277 276.981M459.874 227.595C466.255 210.853 484 182.5 506 184.5C521.831 185.939 563.805 200.284 586.829 207.307C598.896 212.104 619.479 232.756 605.277 276.981M459.874 227.595C483 241.5 572.403 277.146 605.277 276.981" stroke="#1D1E19" stroke-width="5"/>
<ellipse cx="462.803" cy="294.515" rx="7.14704" ry="11.2311" transform="rotate(17.2059 462.803 294.515)" fill="#1D1E19"/>
<circle cx="309.5" cy="102.5" r="2.5" fill="#1D1E19"/>
<circle cx="321.5" cy="110.5" r="2.5" fill="#1D1E19"/>
<circle cx="295.5" cy="111.5" r="2.5" fill="#1D1E19"/>
<circle cx="336.5" cy="113.5" r="2.5" fill="#1D1E19"/>
</g>
<defs>
<clipPath id="clip0_283_5139">
<rect width="587" height="495" fill="white"/>
</clipPath>
</defs>
</svg>
