<svg width="344" height="377" viewBox="0 0 344 377" fill="none" xmlns="http://www.w3.org/2000/svg">
<g clip-path="url(#clip0_668_445)">
<rect width="344" height="377" fill="#F6CA45"/>
<path d="M257.568 61.0998C226.367 74.75 241.317 104 257.568 104H345.318C371.318 104 372.618 57.8499 333.618 61.0998C331.018 49.1397 319.968 49.183 314.768 50.6997C290.068 25.9995 261.468 44.1998 257.568 61.0998Z" fill="#F0E6D1" stroke="#1D1E19" stroke-width="3.5"/>
<path d="M100.101 293.818C122.194 303.484 111.608 324.197 100.101 324.197H37.9629C19.5519 324.197 18.6313 291.517 46.2479 293.818C48.089 285.349 55.9138 285.38 59.596 286.454C77.0867 268.963 97.339 281.851 100.101 293.818Z" fill="#F0E6D1" stroke="#1D1E19" stroke-width="3.5"/>
<mask id="path-3-inside-1_668_445" fill="white">
<path fill-rule="evenodd" clip-rule="evenodd" d="M287.631 262.02C287.927 253.643 291.384 245.67 297.332 239.722C303.557 233.497 311.999 230 320.802 230C329.605 230 338.047 233.497 344.272 239.722C350.22 245.67 353.677 253.643 353.973 262.02H353.994V263.192V334.261V334.651H353.991C353.89 343.313 350.405 351.598 344.272 357.731C338.047 363.956 329.605 367.453 320.802 367.453C311.999 367.453 303.557 363.956 297.332 357.731C291.199 351.598 287.714 343.313 287.613 334.651H287.61V334.261V263.192V262.02H287.631Z"/>
</mask>
<path fill-rule="evenodd" clip-rule="evenodd" d="M287.631 262.02C287.927 253.643 291.384 245.67 297.332 239.722C303.557 233.497 311.999 230 320.802 230C329.605 230 338.047 233.497 344.272 239.722C350.22 245.67 353.677 253.643 353.973 262.02H353.994V263.192V334.261V334.651H353.991C353.89 343.313 350.405 351.598 344.272 357.731C338.047 363.956 329.605 367.453 320.802 367.453C311.999 367.453 303.557 363.956 297.332 357.731C291.199 351.598 287.714 343.313 287.613 334.651H287.61V334.261V263.192V262.02H287.631Z" fill="#8AC636"/>
<path d="M297.332 239.722L295.258 237.648L295.258 237.648L297.332 239.722ZM287.631 262.02L290.562 262.124L290.462 264.953H287.631V262.02ZM344.272 239.722L342.198 241.795L342.198 241.795L344.272 239.722ZM353.973 262.02V264.953H351.142L351.042 262.124L353.973 262.02ZM353.994 262.02V259.088H356.926V262.02H353.994ZM353.994 334.651H356.926V337.584H353.994V334.651ZM353.991 334.651L351.059 334.617L351.093 331.719H353.991V334.651ZM344.272 357.731L342.198 355.657L342.198 355.657L344.272 357.731ZM297.332 357.731L295.258 359.805L297.332 357.731ZM287.613 334.651V331.719H290.511L290.545 334.617L287.613 334.651ZM287.61 334.651V337.584H284.678V334.651H287.61ZM287.61 262.02H284.678V259.088H287.61V262.02ZM299.406 241.795C293.983 247.218 290.831 254.486 290.562 262.124L284.7 261.917C285.022 252.799 288.785 244.122 295.258 237.648L299.406 241.795ZM320.802 232.933C312.777 232.933 305.08 236.121 299.406 241.795L295.258 237.648C302.033 230.873 311.221 227.067 320.802 227.067V232.933ZM342.198 241.795C336.524 236.121 328.827 232.933 320.802 232.933V227.067C330.383 227.067 339.571 230.873 346.346 237.648L342.198 241.795ZM351.042 262.124C350.773 254.486 347.621 247.218 342.198 241.795L346.346 237.648C352.819 244.122 356.582 252.799 356.904 261.917L351.042 262.124ZM353.994 264.953H353.973V259.088H353.994V264.953ZM351.061 263.192V262.02H356.926V263.192H351.061ZM351.061 334.261V263.192H356.926V334.261H351.061ZM351.061 334.651V334.261H356.926V334.651H351.061ZM353.991 331.719H353.994V337.584H353.991V331.719ZM356.924 334.686C356.813 344.113 353.02 353.13 346.346 359.805L342.198 355.657C347.789 350.067 350.966 342.514 351.059 334.617L356.924 334.686ZM346.346 359.805C339.571 366.579 330.383 370.385 320.802 370.385V364.52C328.827 364.52 336.524 361.332 342.198 355.657L346.346 359.805ZM320.802 370.385C311.221 370.385 302.033 366.579 295.258 359.805L299.406 355.657C305.08 361.332 312.777 364.52 320.802 364.52V370.385ZM295.258 359.805C288.584 353.13 284.791 344.113 284.68 334.686L290.545 334.617C290.638 342.514 293.815 350.067 299.406 355.657L295.258 359.805ZM287.61 331.719H287.613V337.584H287.61V331.719ZM290.543 334.261V334.651H284.678V334.261H290.543ZM290.543 263.192V334.261H284.678V263.192H290.543ZM290.543 262.02V263.192H284.678V262.02H290.543ZM287.631 264.953H287.61V259.088H287.631V264.953Z" fill="#1D1E19" mask="url(#path-3-inside-1_668_445)"/>
<path d="M320.802 385.025V344.023M320.802 264.363V305.755M320.802 305.755L304.402 288.964M320.802 305.755V326.451M320.802 326.451L337.593 310.441M320.802 326.451V344.023M320.802 344.023L304.402 328.794" stroke="#1D1E19" stroke-width="2.93251"/>
<path d="M302.948 382.225L302.823 382.247H302.696H260.905H260.605L260.33 382.129C257.296 380.834 255.173 379.121 253.914 377.129C252.644 375.119 252.32 372.926 252.727 370.841C253.442 367.167 256.376 363.935 260.147 362.292C259.653 360.217 259.749 358.322 260.294 356.643C260.953 354.614 262.235 353.007 263.719 351.823C265.197 350.643 266.913 349.854 268.529 349.464C269.65 349.193 270.822 349.092 271.877 349.256C275.06 344.645 278.51 341.974 281.997 340.865C285.726 339.681 289.296 340.347 292.284 342.01C295.25 343.66 297.669 346.3 299.231 349.164C300.539 351.563 301.307 354.236 301.197 356.726C305.157 357.853 308.002 359.702 309.858 361.999C311.911 364.538 312.661 367.509 312.479 370.354C312.124 375.894 308.157 381.316 302.948 382.225Z" fill="#5DC27C" stroke="#1D1E19" stroke-width="2.93251"/>
</g>
<defs>
<clipPath id="clip0_668_445">
<rect width="344" height="377" fill="white"/>
</clipPath>
</defs>
</svg>
