<svg width="432" height="680" viewBox="0 0 432 680" fill="none" xmlns="http://www.w3.org/2000/svg">
<g clip-path="url(#clip0_283_5213)">
<rect width="432" height="680" fill="#F57B45"/>
<rect width="713.478" height="713.478" transform="translate(-158.695 42.5347) rotate(1.24172)" fill="#F57B45"/>
<path d="M291.16 111.549L117.08 107.776C106.202 107.54 97.1922 116.167 96.9564 127.045L96.9024 129.537C96.6666 140.415 105.294 149.425 116.172 149.661L290.252 153.434C301.13 153.67 310.14 145.042 310.376 134.164L310.43 131.672C310.666 120.794 302.038 111.785 291.16 111.549Z" fill="#1D1E19"/>
<path d="M290.287 151.829L119.069 148.118C118.17 148.098 117.272 148.081 116.373 148.059C111.813 147.95 107.425 146.241 104.118 143.068C101.787 140.833 100.057 138.014 99.1838 134.9C98.466 132.342 98.4872 129.792 98.5595 127.165C98.7374 120.701 102.251 114.742 107.942 111.607C110.896 109.98 114.15 109.318 117.5 109.39L187.011 110.897C197.026 111.114 207.041 111.331 217.056 111.548L285.892 113.04C288.895 113.105 292.12 112.937 295.046 113.665C301.4 115.245 306.543 120.24 308.223 126.584C308.883 129.072 308.841 131.56 308.771 134.107C308.682 137.346 307.784 140.485 306.078 143.246C302.713 148.692 296.665 151.92 290.287 151.829C288.222 151.799 288.148 155.009 290.218 155.039C297.309 155.14 304.012 151.758 308.121 145.972C311.706 140.925 312.614 134.384 311.833 128.337C310.951 121.506 306.499 115.29 300.333 112.225C297.291 110.713 294.032 110.005 290.649 109.932L127.088 106.387C123.899 106.318 120.711 106.246 117.522 106.179C113.724 106.1 109.994 106.875 106.627 108.667C100.418 111.974 96.2403 118.266 95.4689 125.235C94.7875 131.392 95.7592 137.618 99.5173 142.679C103.425 147.942 109.607 151.083 116.146 151.266C118.497 151.331 120.85 151.368 123.202 151.419L290.218 155.039C292.283 155.083 292.356 151.874 290.287 151.829Z" fill="#1D1E19"/>
<path d="M80.3028 296.485L54.2353 167.162C51.6813 154.492 61.0669 142.543 73.9817 142.022L318.694 132.163C327.338 131.815 335.311 136.802 338.782 144.726L380.216 239.342" stroke="#1D1E19" stroke-width="5"/>
<mask id="path-4-inside-1_283_5213" fill="white">
<path d="M160.296 614.904L242.446 703.386L371.865 631.595C385.652 624.119 396.06 611.657 400.96 596.759L464.029 404.987C471.331 388.075 488.152 377.275 506.569 377.674C518.591 377.934 529.112 369.038 530.231 357.065C531.476 343.74 521.173 332.387 508.031 332.103L54.0458 322.262C42.6818 322.016 31.4325 324.576 21.2947 329.717L-137.194 410.083"/>
</mask>
<path d="M160.296 614.904L242.446 703.386L371.865 631.595C385.652 624.119 396.06 611.657 400.96 596.759L464.029 404.987C471.331 388.075 488.152 377.275 506.569 377.674C518.591 377.934 529.112 369.038 530.231 357.065C531.476 343.74 521.173 332.387 508.031 332.103L54.0458 322.262C42.6818 322.016 31.4325 324.576 21.2947 329.717L-137.194 410.083" fill="#66AEF4"/>
<path d="M242.446 703.386L238.782 706.788L241.447 709.658L244.872 707.758L242.446 703.386ZM371.865 631.595L369.482 627.2L369.461 627.211L369.44 627.223L371.865 631.595ZM400.96 596.759L396.21 595.197L396.21 595.197L400.96 596.759ZM464.029 404.987L459.438 403.005L459.349 403.211L459.279 403.425L464.029 404.987ZM530.231 357.065L535.209 357.53L535.209 357.53L530.231 357.065ZM21.2947 329.717L23.556 334.177L23.556 334.177L21.2947 329.717ZM156.631 618.306L238.782 706.788L246.11 699.984L163.96 611.502L156.631 618.306ZM244.872 707.758L374.291 635.968L369.44 627.223L240.021 699.014L244.872 707.758ZM374.249 635.991C389.157 627.906 400.411 614.431 405.71 598.321L396.21 595.197C391.709 608.883 382.147 620.332 369.482 627.2L374.249 635.991ZM405.71 598.321L468.779 406.549L459.279 403.425L396.21 595.197L405.71 598.321ZM468.619 406.969C475.115 391.925 490.078 382.318 506.46 382.673L506.677 372.675C486.227 372.232 467.547 384.225 459.438 403.005L468.619 406.969ZM506.46 382.673C520.958 382.987 533.833 372.257 535.209 357.53L525.253 356.6C524.391 365.818 516.223 372.882 506.677 372.675L506.46 382.673ZM535.209 357.53C536.726 341.295 524.163 327.451 508.139 327.104L507.923 337.101C518.184 337.324 526.226 346.185 525.253 356.6L535.209 357.53ZM508.139 327.104L54.1541 317.263L53.9374 327.261L507.923 337.101L508.139 327.104ZM54.1541 317.263C41.9679 316.999 29.9047 319.745 19.0334 325.258L23.556 334.177C32.9603 329.408 43.3957 327.033 53.9374 327.261L54.1541 317.263ZM19.0334 325.258L-139.455 405.623L-134.933 414.542L23.556 334.177L19.0334 325.258Z" fill="#1D1E19" mask="url(#path-4-inside-1_283_5213)"/>
<mask id="path-6-inside-2_283_5213" fill="white">
<path d="M518.277 374.843L358.93 458.42L348.182 419.896L475.89 352.687"/>
</mask>
<path d="M518.277 374.843L358.93 458.42L348.182 419.896L475.89 352.687" fill="#66AEF4"/>
<path d="M358.93 458.42L354.114 459.764L355.776 465.721L361.253 462.848L358.93 458.42ZM348.182 419.896L345.853 415.471L342.281 417.351L343.366 421.24L348.182 419.896ZM515.955 370.415L356.608 453.993L361.253 462.848L520.6 379.271L515.955 370.415ZM363.746 457.077L352.998 418.552L343.366 421.24L354.114 459.764L363.746 457.077ZM350.51 424.321L478.218 357.112L473.561 348.262L345.853 415.471L350.51 424.321Z" fill="#1D1E19" mask="url(#path-6-inside-2_283_5213)"/>
<path d="M-125.539 409.797L345.756 420.013C357.152 420.26 366.15 429.854 365.587 441.316C365.047 452.302 355.535 460.826 344.402 460.585C324.968 460.164 307.218 471.561 299.512 489.406L207.568 702.355L-0.18884 697.851L-82.8201 481.119C-89.7447 462.956 -106.985 450.801 -126.418 450.38L-126.893 450.369C-138.289 450.122 -147.287 440.528 -146.724 429.066C-146.184 418.08 -136.672 409.556 -125.539 409.797Z" fill="#66AEF4" stroke="#1D1E19" stroke-width="5"/>
<mask id="path-9-inside-3_283_5213" fill="white">
<path d="M-128.694 405.773L-134.596 408.917C-142.75 412.117 -148.769 419.732 -149.222 428.943C-149.855 441.815 -139.748 452.591 -126.948 452.868L-126.474 452.878C-108.057 453.278 -91.7195 464.797 -85.1573 482.009L-24.2191 677.785C-20.0919 691.044 -7.9535 700.183 5.93024 700.484L231.415 705.372C247.064 705.711 260.705 694.785 263.791 679.44L301.806 490.397C309.108 473.485 325.93 462.685 344.346 463.084C349.766 463.201 354.859 461.457 358.93 458.422L366.772 454.308"/>
</mask>
<path d="M-128.694 405.773L-134.596 408.917C-142.75 412.117 -148.769 419.732 -149.222 428.943C-149.855 441.815 -139.748 452.591 -126.948 452.868L-126.474 452.878C-108.057 453.278 -91.7195 464.797 -85.1573 482.009L-24.2191 677.785C-20.0919 691.044 -7.9535 700.183 5.93024 700.484L231.415 705.372C247.064 705.711 260.705 694.785 263.791 679.44L301.806 490.397C309.108 473.485 325.93 462.685 344.346 463.084C349.766 463.201 354.859 461.457 358.93 458.422L366.772 454.308" fill="#66AEF4"/>
<path d="M-134.596 408.917L-132.769 413.571L-132.501 413.466L-132.246 413.33L-134.596 408.917ZM-149.222 428.943L-144.228 429.188L-144.228 429.188L-149.222 428.943ZM-85.1573 482.009L-80.3832 480.523L-80.4296 480.374L-80.4853 480.228L-85.1573 482.009ZM-24.2191 677.785L-19.445 676.299L-19.445 676.299L-24.2191 677.785ZM263.791 679.44L258.889 678.454L258.889 678.454L263.791 679.44ZM301.806 490.397L297.216 488.415L297.008 488.896L296.905 489.411L301.806 490.397ZM358.93 458.422L356.607 453.994L356.257 454.177L355.941 454.413L358.93 458.422ZM-131.045 401.36L-136.947 404.504L-132.246 413.33L-126.343 410.186L-131.045 401.36ZM-136.423 404.263C-146.268 408.127 -153.66 417.376 -154.216 428.697L-144.228 429.188C-143.879 422.087 -139.231 416.108 -132.769 413.571L-136.423 404.263ZM-154.216 428.697C-154.987 444.389 -142.663 457.529 -127.056 457.867L-126.84 447.869C-136.833 447.653 -144.722 439.241 -144.228 429.188L-154.216 428.697ZM-127.056 457.867L-126.582 457.877L-126.365 447.88L-126.84 447.869L-127.056 457.867ZM-126.582 457.877C-110.2 458.232 -95.6667 468.479 -89.8292 483.79L-80.4853 480.228C-87.7724 461.114 -105.915 448.323 -126.365 447.88L-126.582 457.877ZM-89.9313 483.495L-28.9932 679.271L-19.445 676.299L-80.3832 480.523L-89.9313 483.495ZM-28.9932 679.271C-24.2273 694.582 -10.2104 705.135 5.82189 705.483L6.03859 695.485C-5.6966 695.231 -15.9565 687.506 -19.445 676.299L-28.9932 679.271ZM5.82189 705.483L231.307 710.37L231.523 700.373L6.03859 695.485L5.82189 705.483ZM231.307 710.37C249.377 710.762 265.129 698.145 268.692 680.425L258.889 678.454C256.28 691.424 244.75 700.659 231.523 700.373L231.307 710.37ZM268.692 680.425L306.708 491.382L296.905 489.411L258.889 678.454L268.692 680.425ZM306.397 492.379C312.892 477.335 327.856 467.727 344.238 468.083L344.455 458.085C324.004 457.642 305.324 469.635 297.216 488.415L306.397 492.379ZM344.238 468.083C350.808 468.225 356.984 466.109 361.918 462.43L355.941 454.413C352.734 456.805 348.723 458.177 344.455 458.085L344.238 468.083ZM361.253 462.85L369.095 458.735L364.449 449.88L356.607 453.994L361.253 462.85Z" fill="#1D1E19" mask="url(#path-9-inside-3_283_5213)"/>
<mask id="path-11-inside-4_283_5213" fill="white">
<path d="M337.041 422.201L467 352.496L51.4485 343.489L-73.1928 413.309L336.814 422.197"/>
</mask>
<path d="M337.041 422.201L467 352.496L51.4485 343.489L-73.1928 413.309L336.814 422.197" fill="#F0E6D1"/>
<path d="M467 352.496L469.363 356.902L486.129 347.91L467.108 347.497L467 352.496ZM51.4485 343.489L51.5568 338.49L50.1941 338.461L49.0049 339.127L51.4485 343.489ZM-73.1928 413.309L-75.6364 408.947L-91.6379 417.911L-73.3011 418.308L-73.1928 413.309ZM339.404 426.608L469.363 356.902L464.637 348.09L334.677 417.795L339.404 426.608ZM467.108 347.497L51.5568 338.49L51.3401 348.488L466.892 357.495L467.108 347.497ZM49.0049 339.127L-75.6364 408.947L-70.7492 417.672L53.892 347.851L49.0049 339.127ZM-73.3011 418.308L336.706 427.195L336.923 417.198L-73.0844 408.311L-73.3011 418.308Z" fill="#1D1E19" mask="url(#path-11-inside-4_283_5213)"/>
<path d="M65.0096 384.064L14.6357 410.334L336.92 417.319L337.146 417.324L389.671 391.101L65.0096 384.064Z" fill="#1D1E19"/>
<path d="M147.12 459.227L337.217 463.347C339.784 463.403 342.355 463.535 344.923 463.515C345.035 463.514 345.148 463.519 345.26 463.522C347.325 463.567 347.441 458.384 345.372 458.339L155.275 454.219C152.708 454.163 150.138 454.031 147.569 454.052C147.457 454.053 147.344 454.047 147.232 454.045C145.167 454 145.051 459.182 147.12 459.227Z" fill="#1D1E19"/>
<mask id="path-15-inside-5_283_5213" fill="white">
<path d="M141.981 324.731L136.315 269.369C135.118 257.676 134.07 245.156 139.531 234.812C144.993 224.468 159.719 218.524 168.268 226.347C176.543 233.92 176.224 250.771 187.082 253.105C195.223 254.854 201.602 246.3 209.09 242.572C219.486 237.397 233.641 243.332 237.513 254.489C239.779 261.018 239.179 269.116 244.187 273.767C250.148 279.302 259.488 276.095 267.522 276.538C281.033 277.283 291.846 289.676 295.146 303.131C298.447 316.586 295.764 330.795 292.187 344.184C285.668 368.575 275.639 395.419 261.592 416.355C260.761 417.593 259.826 418.869 258.468 419.434C257.602 419.794 256.645 419.829 255.711 419.859C237.099 420.451 214.568 419.021 195.956 419.614"/>
</mask>
<path d="M141.981 324.731L136.315 269.369C135.118 257.676 134.07 245.156 139.531 234.812C144.993 224.468 159.719 218.524 168.268 226.347C176.543 233.92 176.224 250.771 187.082 253.105C195.223 254.854 201.602 246.3 209.09 242.572C219.486 237.397 233.641 243.332 237.513 254.489C239.779 261.018 239.179 269.116 244.187 273.767C250.148 279.302 259.488 276.095 267.522 276.538C281.033 277.283 291.846 289.676 295.146 303.131C298.447 316.586 295.764 330.795 292.187 344.184C285.668 368.575 275.639 395.419 261.592 416.355C260.761 417.593 259.826 418.869 258.468 419.434C257.602 419.794 256.645 419.829 255.711 419.859C237.099 420.451 214.568 419.021 195.956 419.614" fill="#5DC27C"/>
<path d="M136.315 269.369L131.341 269.878L131.341 269.878L136.315 269.369ZM139.531 234.812L135.11 232.477L135.11 232.477L139.531 234.812ZM168.268 226.347L164.893 230.036L164.893 230.036L168.268 226.347ZM187.082 253.105L188.133 248.216L188.133 248.216L187.082 253.105ZM209.09 242.572L206.862 238.096L206.862 238.096L209.09 242.572ZM237.513 254.489L242.237 252.85L242.237 252.85L237.513 254.489ZM244.187 273.767L240.784 277.43L240.784 277.43L244.187 273.767ZM267.522 276.538L267.797 271.546L267.797 271.546L267.522 276.538ZM292.187 344.184L287.356 342.893L287.356 342.893L292.187 344.184ZM261.592 416.355L265.744 419.14L265.744 419.14L261.592 416.355ZM258.468 419.434L260.389 424.05L260.389 424.05L258.468 419.434ZM255.711 419.859L255.87 424.856L255.87 424.856L255.711 419.859ZM146.955 324.222L141.289 268.86L131.341 269.878L137.007 325.24L146.955 324.222ZM141.289 268.86C140.065 256.899 139.311 245.939 143.953 237.146L135.11 232.477C128.829 244.373 130.172 258.454 131.341 269.878L141.289 268.86ZM143.953 237.146C146.045 233.184 150.031 229.933 154.315 228.513C158.561 227.105 162.322 227.683 164.893 230.036L171.644 222.659C165.665 217.187 157.789 216.826 151.168 219.021C144.586 221.203 138.479 226.095 135.11 232.477L143.953 237.146ZM164.893 230.036C166.291 231.316 167.492 233.147 168.675 235.581C169.91 238.12 170.822 240.622 172.103 243.643C174.34 248.917 177.817 256.228 186.032 257.993L188.133 248.216C185.489 247.648 183.696 245.366 181.31 239.738C180.279 237.308 179.041 234.032 177.669 231.209C176.245 228.28 174.383 225.165 171.644 222.659L164.893 230.036ZM186.032 257.993C192.201 259.319 197.335 256.587 201.121 254.042C202.998 252.78 204.98 251.247 206.586 250.074C208.315 248.812 209.839 247.785 211.318 247.048L206.862 238.096C204.597 239.224 202.516 240.664 200.688 241.999C198.738 243.423 197.212 244.619 195.541 245.743C192.23 247.969 190.104 248.64 188.133 248.216L186.032 257.993ZM211.318 247.048C215.003 245.214 219.598 245.25 223.815 247.018C228.028 248.784 231.386 252.085 232.79 256.129L242.237 252.85C239.768 245.737 234.113 240.492 227.681 237.795C221.253 235.1 213.573 234.756 206.862 238.096L211.318 247.048ZM232.79 256.129C233.238 257.42 233.572 258.871 233.9 260.557C234.202 262.109 234.545 264.134 234.941 265.915C235.751 269.568 237.12 274.028 240.784 277.43L247.589 270.103C246.246 268.855 245.411 266.941 244.703 263.749C244.339 262.109 244.095 260.594 243.716 258.646C243.363 256.832 242.922 254.824 242.237 252.85L232.79 256.129ZM240.784 277.43C245.204 281.535 250.67 282.121 255.144 282.062C257.378 282.032 259.704 281.827 261.686 281.684C263.769 281.533 265.583 281.439 267.247 281.531L267.797 271.546C265.444 271.416 263.078 271.557 260.964 271.71C258.749 271.87 256.861 272.038 255.01 272.063C251.315 272.112 249.13 271.534 247.589 270.103L240.784 277.43ZM267.247 281.531C277.79 282.112 287.304 292.147 290.29 304.322L300.002 301.94C296.388 287.205 284.275 272.454 267.797 271.546L267.247 281.531ZM290.29 304.322C293.268 316.46 290.908 329.601 287.356 342.893L297.017 345.475C300.621 331.99 303.627 316.713 300.002 301.94L290.29 304.322ZM287.356 342.893C280.909 367.018 271.058 393.274 257.44 413.569L265.744 419.14C280.221 397.564 290.428 370.132 297.017 345.475L287.356 342.893ZM257.44 413.569C257.042 414.163 256.787 414.505 256.571 414.737C256.371 414.951 256.363 414.894 256.546 414.818L260.389 424.05C263.32 422.83 264.996 420.257 265.744 419.14L257.44 413.569ZM256.547 414.818C256.661 414.77 256.679 414.786 256.501 414.808C256.298 414.833 256.048 414.845 255.552 414.861L255.87 424.856C256.651 424.831 258.539 424.82 260.389 424.05L256.547 414.818ZM255.552 414.861C246.401 415.153 236.253 414.947 225.935 414.737C215.681 414.528 205.258 414.315 195.797 414.616L196.115 424.611C205.266 424.32 215.415 424.525 225.732 424.735C235.986 424.944 246.409 425.157 255.87 424.856L255.552 414.861Z" fill="#1D1E19" mask="url(#path-15-inside-5_283_5213)"/>
<path d="M235.887 414.859L357.866 212.674C373.54 185.905 403.185 170.505 434.099 173.071L455.41 174.841C463.703 175.529 468.58 184.483 464.66 191.823L331.08 417.954L235.887 414.859Z" fill="#F5C86D" stroke="#1D1E19" stroke-width="5"/>
<path d="M325.062 403.381L416.474 230.649C428.403 208.107 454.214 196.663 478.929 202.957L483.985 204.244C491.57 206.176 495.401 214.647 491.842 221.619L410.681 380.612L324.634 423.133" fill="#FFE1BB"/>
<path d="M325.062 403.381L416.474 230.649C428.403 208.107 454.214 196.663 478.929 202.957L483.985 204.244C491.57 206.176 495.401 214.647 491.842 221.619L410.681 380.612L324.634 423.133" stroke="#1D1E19" stroke-width="5"/>
<mask id="path-20-inside-6_283_5213" fill="white">
<path d="M294.015 433.112L294.378 416.342C294.641 404.206 304.693 394.581 316.829 394.844C328.965 395.107 338.59 405.159 338.327 417.295L337.963 434.065"/>
</mask>
<path d="M294.015 433.112L294.378 416.342C294.641 404.206 304.693 394.581 316.829 394.844C328.965 395.107 338.59 405.159 338.327 417.295L337.963 434.065" fill="#66AEF4"/>
<path d="M299.014 433.22L299.377 416.45L289.379 416.234L289.016 433.004L299.014 433.22ZM299.377 416.45C299.58 407.075 307.345 399.64 316.72 399.843L316.937 389.845C302.04 389.522 289.702 401.337 289.379 416.234L299.377 416.45ZM316.72 399.843C326.096 400.046 333.531 407.811 333.328 417.186L343.326 417.403C343.649 402.506 331.834 390.168 316.937 389.845L316.72 399.843ZM333.328 417.186L332.965 433.956L342.962 434.173L343.326 417.403L333.328 417.186Z" fill="#1D1E19" mask="url(#path-20-inside-6_283_5213)"/>
<mask id="path-22-inside-7_283_5213" fill="white">
<path d="M104.807 417.476C84.7595 403.395 51.8375 360.838 44.5986 337.037C42.3853 329.76 41.3486 320.661 46.8731 315.554C49.4627 313.159 53.4322 311.665 54.0875 308.153C54.7043 304.849 51.9421 302.048 49.9216 299.401C43.2231 290.625 43.8944 276.813 51.4112 268.749C58.928 260.685 72.3464 259.38 81.1898 265.855C85.4181 257.32 81.933 245.059 89.1141 238.945C94.537 234.328 102.79 236.424 108.924 239.969C115.057 243.514 120.9 248.399 127.923 248.933C144.469 250.191 158.11 227.005 173.569 233.175C187.72 238.823 186.134 263.385 200.103 269.488C207.493 272.717 215.813 269.146 223.615 267.165C231.417 265.184 241.755 266.155 244.6 273.862C246.998 280.362 242.388 287.315 242.144 294.263C241.708 306.683 254.991 316.082 255.063 328.509C255.123 339.045 248.492 351.303 245.053 360.984C240.108 374.904 235.046 388.781 229.867 402.611C227.557 408.78 225.024 415.229 220.021 419.392L104.066 417.46"/>
</mask>
<path d="M104.807 417.476C84.7595 403.395 51.8375 360.838 44.5986 337.037C42.3853 329.76 41.3486 320.661 46.8731 315.554C49.4627 313.159 53.4322 311.665 54.0875 308.153C54.7043 304.849 51.9421 302.048 49.9216 299.401C43.2231 290.625 43.8944 276.813 51.4112 268.749C58.928 260.685 72.3464 259.38 81.1898 265.855C85.4181 257.32 81.933 245.059 89.1141 238.945C94.537 234.328 102.79 236.424 108.924 239.969C115.057 243.514 120.9 248.399 127.923 248.933C144.469 250.191 158.11 227.005 173.569 233.175C187.72 238.823 186.134 263.385 200.103 269.488C207.493 272.717 215.813 269.146 223.615 267.165C231.417 265.184 241.755 266.155 244.6 273.862C246.998 280.362 242.388 287.315 242.144 294.263C241.708 306.683 254.991 316.082 255.063 328.509C255.123 339.045 248.492 351.303 245.053 360.984C240.108 374.904 235.046 388.781 229.867 402.611C227.557 408.78 225.024 415.229 220.021 419.392L104.066 417.46" fill="#8AC636"/>
<path d="M44.5986 337.037L39.815 338.492L39.815 338.492L44.5986 337.037ZM46.8731 315.554L50.2674 319.225L50.2674 319.225L46.8731 315.554ZM54.0875 308.153L49.1724 307.236L49.1724 307.236L54.0875 308.153ZM49.9216 299.401L53.8961 296.367L53.8961 296.367L49.9216 299.401ZM81.1898 265.855L78.2362 269.889L83.0315 273.4L85.67 268.074L81.1898 265.855ZM89.1141 238.945L92.3555 242.752L92.3555 242.752L89.1141 238.945ZM108.924 239.969L111.426 235.64L111.426 235.64L108.924 239.969ZM127.923 248.933L127.544 253.919L127.544 253.919L127.923 248.933ZM173.569 233.175L171.716 237.819L171.716 237.819L173.569 233.175ZM200.103 269.488L202.105 264.906L202.105 264.906L200.103 269.488ZM223.615 267.165L222.384 262.318L222.384 262.318L223.615 267.165ZM244.6 273.862L249.29 272.131L249.29 272.131L244.6 273.862ZM242.144 294.263L237.147 294.087L237.147 294.087L242.144 294.263ZM255.063 328.509L260.062 328.48L260.062 328.48L255.063 328.509ZM245.053 360.984L249.765 362.658L249.765 362.658L245.053 360.984ZM229.867 402.611L225.185 400.858L225.185 400.858L229.867 402.611ZM220.021 419.392L219.938 424.391L221.793 424.422L223.219 423.235L220.021 419.392ZM107.681 413.384C98.29 406.788 85.4186 393.114 73.8858 377.883C62.3284 362.619 52.7354 346.607 49.3823 335.582L39.815 338.492C43.7008 351.268 54.1882 368.434 65.9133 383.92C77.6631 399.437 91.2764 414.082 101.933 421.567L107.681 413.384ZM49.3823 335.582C48.3609 332.224 47.7068 328.73 47.8301 325.684C47.9523 322.663 48.8025 320.579 50.2674 319.225L43.4787 311.882C39.4191 315.636 38.0255 320.655 37.8383 325.279C37.6521 329.879 38.623 334.573 39.815 338.492L49.3823 335.582ZM50.2674 319.225C50.664 318.858 51.174 318.472 51.9011 317.954C52.5466 317.494 53.4822 316.85 54.3179 316.186C56.0063 314.843 58.3385 312.629 59.0027 309.071L49.1724 307.236C49.1719 307.239 49.1712 307.291 49.0516 307.45C48.9034 307.647 48.6257 307.936 48.0934 308.359C47.5311 308.806 46.9479 309.205 46.1002 309.808C45.3342 310.354 44.377 311.052 43.4787 311.882L50.2674 319.225ZM59.0027 309.071C59.63 305.709 58.4458 302.9 57.2816 300.959C56.2261 299.199 54.6071 297.299 53.8961 296.367L45.9471 302.434C46.4075 303.038 47.2055 304.027 47.5636 304.488C48.0547 305.12 48.4265 305.637 48.7055 306.102C48.9827 306.564 49.1006 306.867 49.1479 307.045C49.1867 307.191 49.1734 307.231 49.1724 307.236L59.0027 309.071ZM53.8961 296.367C48.6736 289.525 49.2176 278.435 55.0687 272.158L47.7537 265.34C38.5712 275.191 37.7727 291.725 45.9472 302.434L53.8961 296.367ZM55.0687 272.158C60.8742 265.93 71.4554 264.925 78.2362 269.889L84.1434 261.82C73.2374 253.836 56.9818 255.439 47.7537 265.34L55.0687 272.158ZM85.67 268.074C88.2883 262.79 88.531 256.307 89.0128 252.055C89.5714 247.126 90.4012 244.416 92.3555 242.752L85.8727 235.138C80.6458 239.588 79.6276 246.066 79.0764 250.929C78.4485 256.471 78.3196 260.385 76.7095 263.635L85.67 268.074ZM92.3555 242.752C93.7155 241.594 95.6126 241.078 98.2 241.366C100.833 241.658 103.765 242.762 106.422 244.298L111.426 235.64C107.949 233.63 103.688 231.914 99.3049 231.427C94.8766 230.934 89.9356 231.679 85.8727 235.138L92.3555 242.752ZM106.422 244.298C107.845 245.12 109.26 246.026 110.813 247.011C112.327 247.973 113.962 249.004 115.655 249.947C119.031 251.83 122.988 253.573 127.544 253.919L128.302 243.948C125.834 243.76 123.359 242.793 120.525 241.213C119.112 240.425 117.697 239.537 116.172 238.569C114.685 237.624 113.069 236.59 111.426 235.64L106.422 244.298ZM127.544 253.919C132.92 254.327 137.806 252.726 142.076 250.617C146.275 248.543 150.357 245.717 153.899 243.391C157.627 240.942 160.826 238.994 163.88 237.936C166.775 236.932 169.245 236.833 171.716 237.819L175.423 228.531C170.163 226.432 165.132 226.918 160.605 228.487C156.235 230.001 152.092 232.614 148.409 235.033C144.539 237.575 141.143 239.924 137.647 241.651C134.223 243.343 131.199 244.168 128.302 243.948L127.544 253.919ZM171.716 237.819C173.978 238.722 175.809 240.433 177.519 243.084C179.284 245.82 180.684 249.167 182.278 253.057C183.796 256.761 185.509 261.007 187.818 264.689C190.176 268.451 193.378 272.006 198.101 274.07L202.105 264.906C199.844 263.918 198.006 262.115 196.29 259.378C194.525 256.562 193.131 253.17 191.531 249.265C190.006 245.545 188.276 241.311 185.922 237.663C183.513 233.929 180.235 230.452 175.423 228.531L171.716 237.819ZM198.101 274.07C203.103 276.255 208.179 276.018 212.615 275.196C216.738 274.433 221.571 272.842 224.845 272.011L222.384 262.318C217.857 263.468 214.629 264.653 210.794 265.364C207.272 266.016 204.494 265.95 202.105 264.906L198.101 274.07ZM224.845 272.011C228.146 271.173 231.83 271.015 234.777 271.737C237.661 272.443 239.242 273.788 239.909 275.593L249.29 272.131C247.112 266.23 242.102 263.235 237.155 262.024C232.271 260.828 226.886 261.176 222.384 262.318L224.845 272.011ZM239.909 275.593C240.538 277.298 240.374 279.344 239.522 282.644C238.789 285.481 237.295 289.888 237.147 294.087L247.141 294.438C247.238 291.689 248.17 289.146 249.204 285.145C250.118 281.606 251.06 276.926 249.29 272.131L239.909 275.593ZM237.147 294.087C236.869 302.02 240.996 308.744 244.126 313.957C247.58 319.711 250.036 323.949 250.063 328.538L260.062 328.48C260.017 320.641 255.796 313.967 252.7 308.81C249.279 303.112 246.983 298.926 247.141 294.438L237.147 294.087ZM250.063 328.538C250.088 332.861 248.718 337.855 246.684 343.324C245.681 346.02 244.568 348.702 243.455 351.399C242.358 354.057 241.25 356.753 240.342 359.311L249.765 362.658C250.576 360.375 251.587 357.908 252.698 355.215C253.793 352.562 254.98 349.706 256.057 346.81C258.182 341.096 260.098 334.693 260.062 328.48L250.063 328.538ZM240.342 359.311C235.406 373.204 230.354 387.054 225.185 400.858L234.55 404.364C239.738 390.508 244.81 376.605 249.765 362.658L240.342 359.311ZM225.185 400.858C222.797 407.235 220.645 412.368 216.823 415.548L223.219 423.235C229.403 418.089 232.318 410.324 234.55 404.364L225.185 400.858ZM220.104 414.392L104.149 412.46L103.982 422.459L219.938 424.391L220.104 414.392Z" fill="#1D1E19" mask="url(#path-22-inside-7_283_5213)"/>
<path d="M322.314 414.723C322.244 417.958 319.565 420.524 316.33 420.453C313.095 420.383 310.53 417.704 310.6 414.469C310.67 411.235 313.349 408.669 316.584 408.739C319.819 408.809 322.384 411.488 322.314 414.723Z" fill="#F0E6D1" stroke="#1D1E19" stroke-width="5"/>
<path d="M316.672 415.17L305.498 175.179C304.988 164.212 296.118 155.488 285.144 155.159L56.1507 148.29C47.6049 148.033 39.7564 152.982 36.3037 160.803L-35.1831 322.743" stroke="#1D1E19" stroke-width="5"/>
<path d="M246.379 124.983L79.1885 121.359C68.5057 121.128 59.658 129.6 59.4264 140.283L59.3571 143.482C59.1255 154.165 67.5979 163.013 78.2806 163.244L245.472 166.868C256.154 167.1 265.002 158.627 265.234 147.945L265.303 144.745C265.534 134.062 257.062 125.215 246.379 124.983Z" fill="#F0E6D1" stroke="#1D1E19" stroke-width="5"/>
<path d="M131.636 245.614L131.641 245.638L131.646 245.662C134.964 260.816 143.514 274.245 155.744 283.476L168.366 293.003C174.775 297.841 179.275 304.894 181.022 312.875L181.024 312.883L181.026 312.891L204.52 417.048L106.496 415.133L88.8344 333.989C87.1173 326.1 88.2045 317.841 91.8964 310.698L99.5468 295.895L97.3819 294.776L99.5468 295.895C106.572 282.302 108.629 266.599 105.353 251.608L96.1542 205.295L122.423 199.245L131.636 245.614Z" fill="#E30705" stroke="#1D1E19" stroke-width="5"/>
<path d="M124.369 185.847L88.0715 193.998C85.6061 194.552 84.0562 196.999 84.6099 199.465L87.1003 210.554C87.6539 213.02 90.1014 214.57 92.5668 214.016L128.864 205.865C131.33 205.311 132.88 202.864 132.326 200.398L129.836 189.308C129.282 186.843 126.835 185.293 124.369 185.847Z" fill="#F0E6D1" stroke="#1D1E19" stroke-width="5"/>
<path d="M170.515 327.442C167.773 327.383 165.326 325.461 164.714 322.664C163.431 316.808 160.221 311.432 155.674 307.526L143.249 296.849C140.702 294.661 140.412 290.823 142.6 288.277C144.788 285.731 148.625 285.44 151.172 287.628L163.598 298.305C170.132 303.919 174.746 311.646 176.589 320.063C177.308 323.342 175.232 326.583 171.952 327.302C171.47 327.407 170.988 327.453 170.515 327.442Z" fill="#F0E6D1" stroke="#1D1E19" stroke-width="5"/>
<path d="M134.868 357.957L189.043 349.376L203.507 417.054L144.522 415.908L134.868 357.957Z" fill="#F0E6D1" stroke="#1D1E19" stroke-width="5"/>
<path d="M87.7045 357.402L68.7988 333.77M86.1287 303.837C84.9033 298.76 81.087 287.347 75.6256 282.306M188.534 318.541L195.886 293.859M203.764 375.783C204.814 362.304 209.225 332.195 218.468 319.592M272.034 373.158L287.264 380.51M366.562 238.718L376.54 244.494M413.826 187.777C414.352 190.228 416.662 194.814 421.704 193.554M400.698 277.579C404.199 277.404 411.831 278.734 414.352 285.456M362.361 362.129L370.238 368.956" stroke="#1D1E19" stroke-width="5"/>
<path d="M109.426 498.495L109.426 498.495C118.115 498.683 125.007 505.88 124.818 514.569L121.904 649.034C121.715 657.724 114.519 664.615 105.829 664.427C97.1401 664.238 90.2488 657.042 90.4372 648.352L93.3518 513.887C93.5401 505.198 100.737 498.306 109.426 498.495Z" fill="#F0E6D1" stroke="#1D1E19" stroke-width="5"/>
<path d="M-20.2087 499.941L-20.2087 499.941C-11.9054 497.374 -3.0927 502.023 -0.524946 510.326L39.2112 638.82C41.779 647.123 37.1294 655.936 28.8262 658.503C20.5229 661.071 11.7102 656.422 9.1424 648.118L-30.5938 519.625C-33.1615 511.322 -28.512 502.509 -20.2087 499.941Z" fill="#F0E6D1" stroke="#1D1E19" stroke-width="5"/>
<path d="M185.444 645.623L216.455 514.75C218.459 506.293 226.939 501.062 235.396 503.066C243.853 505.07 249.085 513.55 247.081 522.007L216.07 652.88C214.066 661.337 205.586 666.569 197.129 664.565L197.129 664.565C188.671 662.561 183.44 654.08 185.444 645.623Z" fill="#F0E6D1" stroke="#1D1E19" stroke-width="5"/>
<path d="M324.416 268.119L311.747 289.118C320.98 289.561 345.022 291.675 369.827 301.745C355.525 272.231 329.742 268.565 324.416 268.119Z" fill="#1D1E19"/>
<path d="M323.047 267.278L311.977 285.627L310.378 288.277C309.738 289.34 310.499 290.664 311.712 290.722C325.772 291.404 339.81 293.835 353.325 297.746C358.762 299.319 364.12 301.16 369.367 303.284C370.761 303.848 371.789 302.111 371.23 300.965C366.482 291.217 359.585 282.573 350.66 276.347C344.757 272.229 338.019 269.2 331.002 267.579C328.849 267.081 326.654 266.7 324.45 266.514C322.39 266.339 322.328 269.55 324.381 269.723C325.087 269.783 325.792 269.867 326.494 269.967C326.677 269.993 327.271 270.089 326.758 270.005C327.025 270.049 327.291 270.092 327.556 270.139C328.097 270.235 328.635 270.34 329.172 270.454C332.031 271.06 334.839 271.908 337.564 272.966C340.963 274.286 344.271 275.985 347.468 278.065C351.313 280.566 354.813 283.548 357.927 286.916C362.212 291.551 365.664 296.859 368.424 302.525L370.287 300.207C354.244 293.715 337.14 289.819 319.932 288.12C317.221 287.853 314.503 287.645 311.781 287.513L313.115 289.958L324.185 271.609L325.784 268.959C326.853 267.186 324.115 265.508 323.047 267.278Z" fill="#1D1E19"/>
<path d="M414.181 219.103C404.818 199.779 390.533 191.538 380.289 188.024C373.162 193.16 366.841 199.491 361.64 206.844C373.08 207.803 393.361 210.65 414.181 219.103Z" fill="#1D1E19"/>
<path d="M415.584 218.322C411.025 208.964 404.499 200.635 396.077 194.464C392.913 192.146 389.507 190.166 385.931 188.554C384.341 187.837 382.719 187.122 381.055 186.59C380.326 186.357 379.762 186.433 379.141 186.886C378.5 187.354 377.863 187.827 377.233 188.31C376.069 189.204 374.93 190.129 373.816 191.085C368.704 195.474 364.172 200.512 360.271 206.003C359.519 207.062 360.48 208.353 361.605 208.448C374.665 209.55 387.637 212.011 400.172 215.844C404.756 217.245 409.278 218.842 413.721 220.64C414.525 220.965 415.488 220.337 415.719 219.562C415.987 218.665 415.448 217.89 414.641 217.563C400.519 211.849 385.608 208.197 370.52 206.198C367.579 205.808 364.63 205.487 361.674 205.238L363.008 207.683C367.985 200.676 374.103 194.466 381.069 189.426L379.829 189.561C390.232 193.147 399.41 199.99 406.13 208.878C408.718 212.299 410.901 216.029 412.778 219.882C413.683 221.74 416.489 220.178 415.584 218.322Z" fill="#1D1E19"/>
<path d="M405.184 251.981C414.159 253.194 426.26 255.656 438.618 260.674C431.607 246.206 421.037 239.76 413.172 236.887L405.184 251.981Z" fill="#1D1E19"/>
<path d="M405.15 253.585C416.438 255.12 427.59 257.94 438.158 262.212C439.552 262.775 440.581 261.04 440.022 259.893C435.542 250.714 428.569 242.783 419.491 237.96C417.602 236.957 415.639 236.085 413.632 235.348C413.006 235.118 412.119 235.451 411.804 236.046L404.824 249.235L403.816 251.14C402.852 252.961 405.585 254.649 406.553 252.82L413.532 239.631L414.54 237.726L412.712 238.425C420.401 241.25 427.275 246.492 432.253 253.18C434.176 255.763 435.804 258.563 437.215 261.453L439.078 259.135C428.23 254.75 416.802 251.951 405.219 250.375C404.359 250.258 403.597 251.148 403.58 251.945C403.559 252.895 404.287 253.468 405.15 253.585Z" fill="#1D1E19"/>
<path d="M395.833 341.072C388.881 326.725 378.429 320.268 370.586 317.359L362.622 332.408C371.573 333.632 383.578 336.097 395.833 341.072Z" fill="#1D1E19"/>
<path d="M397.236 340.293C392.782 331.168 385.869 323.279 376.866 318.447C374.991 317.44 373.039 316.566 371.045 315.822C370.42 315.589 369.53 315.927 369.217 316.52L362.258 329.67L361.253 331.569C360.642 332.724 361.36 333.845 362.586 334.014C373.798 335.556 384.873 338.367 395.372 342.611C396.176 342.936 397.139 342.308 397.371 341.533C397.638 340.636 397.099 339.861 396.293 339.534C385.513 335.177 374.162 332.387 362.656 330.804L363.989 333.249L370.948 320.099L371.953 318.2L370.125 318.898C377.732 321.736 384.555 326.963 389.483 333.6C391.397 336.179 393.022 338.969 394.429 341.853C395.335 343.71 398.141 342.149 397.236 340.293Z" fill="#1D1E19"/>
</g>
<defs>
<clipPath id="clip0_283_5213">
<rect width="432" height="680" fill="white"/>
</clipPath>
</defs>
</svg>
