<svg width="856" height="192" viewBox="0 0 856 192" fill="none" xmlns="http://www.w3.org/2000/svg">
<g clip-path="url(#clip0_762_646)">
<rect width="856" height="192" fill="#F6CA45"/>
<path d="M465.092 12.7926C432.047 27.2497 447.881 58.2288 465.092 58.2288H558.03C585.567 58.2288 586.943 9.35063 545.638 12.7926C542.884 0.125477 531.181 0.17141 525.674 1.77777C499.513 -24.3826 469.223 -5.10636 465.092 12.7926Z" fill="#F0E6D1" stroke="#1D1E19" stroke-width="3"/>
<path d="M689.376 72.6027C714.102 83.4202 702.254 106.6 689.376 106.6H619.836C599.232 106.6 598.201 70.0273 629.108 72.6027C631.168 63.1246 639.925 63.159 644.046 64.3609C663.62 44.7866 686.285 59.2099 689.376 72.6027Z" fill="#F0E6D1" stroke="#1D1E19" stroke-width="3"/>
<mask id="path-3-inside-1_762_646" fill="white">
<path fill-rule="evenodd" clip-rule="evenodd" d="M817.304 60.1198C816.971 50.6696 813.071 41.6758 806.361 34.9664C799.34 27.9447 789.816 24 779.886 24C769.956 24 760.433 27.9447 753.411 34.9663C746.702 41.6758 742.802 50.6696 742.468 60.1198H742.445V141.61V142.051H742.447C742.562 151.821 746.493 161.168 753.411 168.085C760.433 175.107 769.956 179.052 779.886 179.052C789.816 179.052 799.34 175.107 806.361 168.085C813.279 161.168 817.21 151.821 817.325 142.051H817.328V141.61V61.4415H817.328C817.328 61.4175 817.328 61.3936 817.328 61.3697V60.1198H817.304Z"/>
</mask>
<path fill-rule="evenodd" clip-rule="evenodd" d="M817.304 60.1198C816.971 50.6696 813.071 41.6758 806.361 34.9664C799.34 27.9447 789.816 24 779.886 24C769.956 24 760.433 27.9447 753.411 34.9663C746.702 41.6758 742.802 50.6696 742.468 60.1198H742.445V141.61V142.051H742.447C742.562 151.821 746.493 161.168 753.411 168.085C760.433 175.107 769.956 179.052 779.886 179.052C789.816 179.052 799.34 175.107 806.361 168.085C813.279 161.168 817.21 151.821 817.325 142.051H817.328V141.61V61.4415H817.328C817.328 61.4175 817.328 61.3936 817.328 61.3697V60.1198H817.304Z" fill="#8AC636"/>
<path d="M806.361 34.9664L808.483 32.845L808.483 32.845L806.361 34.9664ZM817.304 60.1198L814.306 60.2256L814.408 63.1198H817.304V60.1198ZM753.411 34.9663L751.29 32.845L753.411 34.9663ZM742.468 60.1198V63.1198H745.364L745.466 60.2256L742.468 60.1198ZM742.445 60.1198V57.1198H739.445V60.1198H742.445ZM742.445 142.051H739.445V145.051H742.445V142.051ZM742.447 142.051L745.447 142.015L745.412 139.051H742.447V142.051ZM753.411 168.085L751.29 170.207L751.29 170.207L753.411 168.085ZM806.361 168.085L808.483 170.207L808.483 170.207L806.361 168.085ZM817.325 142.051V139.051H814.36L814.325 142.015L817.325 142.051ZM817.328 142.051V145.051H820.328V142.051H817.328ZM817.328 61.4415V58.4415H814.328V61.4415H817.328ZM817.328 61.4415V64.4415H820.328V61.4415H817.328ZM817.328 61.3697L814.328 61.3697L814.328 61.3755L817.328 61.3697ZM817.328 60.1198H820.328V57.1198H817.328V60.1198ZM804.24 37.0877C810.412 43.2595 814 51.5327 814.306 60.2256L820.303 60.014C819.942 49.8065 815.73 40.0922 808.483 32.845L804.24 37.0877ZM779.886 27C789.021 27 797.781 30.6286 804.24 37.0877L808.483 32.845C800.898 25.2608 790.612 21 779.886 21V27ZM755.532 37.0877C761.992 30.6286 770.752 27 779.886 27V21C769.161 21 758.874 25.2608 751.29 32.845L755.532 37.0877ZM745.466 60.2256C745.773 51.5327 749.361 43.2595 755.532 37.0877L751.29 32.845C744.043 40.0921 739.83 49.8065 739.47 60.014L745.466 60.2256ZM742.445 63.1198H742.468V57.1198H742.445V63.1198ZM745.445 141.61V60.1198H739.445V141.61H745.445ZM745.445 142.051V141.61H739.445V142.051H745.445ZM742.447 139.051H742.445V145.051H742.447V139.051ZM739.448 142.086C739.572 152.64 743.818 162.735 751.29 170.207L755.532 165.964C749.169 159.601 745.553 151.003 745.447 142.015L739.448 142.086ZM751.29 170.207C758.874 177.791 769.16 182.052 779.886 182.052V176.052C770.752 176.052 761.991 172.423 755.532 165.964L751.29 170.207ZM779.886 182.052C790.612 182.052 800.898 177.791 808.483 170.207L804.24 165.964C797.781 172.423 789.021 176.052 779.886 176.052V182.052ZM808.483 170.207C815.955 162.735 820.201 152.64 820.325 142.086L814.325 142.015C814.22 151.003 810.604 159.601 804.24 165.964L808.483 170.207ZM817.328 139.051H817.325V145.051H817.328V139.051ZM814.328 141.61V142.051H820.328V141.61H814.328ZM814.328 61.4415V141.61H820.328V61.4415H814.328ZM817.328 58.4415H817.328V64.4415H817.328V58.4415ZM814.328 61.3755C814.328 61.3975 814.328 61.4195 814.328 61.4415H820.328C820.328 61.4156 820.328 61.3898 820.328 61.364L814.328 61.3755ZM814.328 60.1198V61.3697H820.328V60.1198H814.328ZM817.304 63.1198H817.328V57.1198H817.304V63.1198Z" fill="#1D1E19" mask="url(#path-3-inside-1_762_646)"/>
<path d="M779.886 198.874V152.623M779.886 62.7631V109.455M779.886 109.455L798.387 90.5138M779.886 109.455V132.801M779.886 132.801L760.945 114.741M779.886 132.801V152.623M779.886 152.623L798.387 135.444" stroke="#1D1E19" stroke-width="3"/>
<path d="M800.052 195.564L800.18 195.586H800.31H847.451H847.758L848.04 195.466C851.441 194.014 853.809 192.099 855.208 189.884C856.618 187.652 856.977 185.219 856.526 182.903C855.722 178.78 852.399 175.141 848.126 173.321C848.712 170.956 848.611 168.804 847.994 166.906C847.261 164.651 845.837 162.862 844.182 161.542C842.532 160.225 840.617 159.345 838.815 158.91C837.528 158.599 836.19 158.49 835.003 158.693C831.41 153.461 827.524 150.451 823.612 149.207C819.453 147.885 815.47 148.627 812.13 150.486C808.813 152.332 806.103 155.286 804.353 158.495C802.865 161.224 802.008 164.259 802.161 167.066C797.657 168.328 794.439 170.412 792.35 172.996C790.061 175.827 789.225 179.14 789.428 182.315C789.825 188.512 794.262 194.554 800.052 195.564Z" fill="#5DC27C" stroke="#1D1E19" stroke-width="3"/>
</g>
<defs>
<clipPath id="clip0_762_646">
<rect width="856" height="192" fill="white"/>
</clipPath>
</defs>
</svg>
