<svg width="708" height="398" viewBox="0 0 708 398" fill="none" xmlns="http://www.w3.org/2000/svg">
<g clip-path="url(#clip0_658_409)">
<rect width="708" height="398" fill="#F6CA45"/>
<mask id="path-1-inside-1_658_409" fill="white">
<path fill-rule="evenodd" clip-rule="evenodd" d="M582.799 253.518C583.161 243.267 587.391 233.512 594.669 226.234C602.286 218.617 612.616 214.338 623.387 214.338C634.158 214.338 644.488 218.617 652.105 226.234C659.383 233.512 663.613 243.267 663.975 253.518H664V254.951V341.911V342.389H663.997C663.873 352.987 659.608 363.125 652.105 370.629C644.488 378.245 634.158 382.524 623.387 382.524C612.616 382.524 602.286 378.245 594.669 370.629C587.166 363.125 582.901 352.987 582.777 342.389H582.774V341.911V254.951V253.518H582.799Z"/>
</mask>
<path fill-rule="evenodd" clip-rule="evenodd" d="M582.799 253.518C583.161 243.267 587.391 233.512 594.669 226.234C602.286 218.617 612.616 214.338 623.387 214.338C634.158 214.338 644.488 218.617 652.105 226.234C659.383 233.512 663.613 243.267 663.975 253.518H664V254.951V341.911V342.389H663.997C663.873 352.987 659.608 363.125 652.105 370.629C644.488 378.245 634.158 382.524 623.387 382.524C612.616 382.524 602.286 378.245 594.669 370.629C587.166 363.125 582.901 352.987 582.777 342.389H582.774V341.911V254.951V253.518H582.799Z" fill="#8AC636"/>
<path d="M594.669 226.234L592.194 223.759L592.194 223.759L594.669 226.234ZM582.799 253.518L586.297 253.641L586.178 257.018H582.799V253.518ZM652.105 226.234L649.63 228.709L649.63 228.709L652.105 226.234ZM663.975 253.518V257.018H660.596L660.477 253.641L663.975 253.518ZM664 253.518V250.018H667.5V253.518H664ZM664 342.389H667.5V345.889H664V342.389ZM663.997 342.389L660.497 342.347L660.538 338.889H663.997V342.389ZM652.105 370.629L654.58 373.103L654.58 373.103L652.105 370.629ZM594.669 370.629L597.144 368.154L597.144 368.154L594.669 370.629ZM582.777 342.389V338.889H586.236L586.277 342.347L582.777 342.389ZM582.774 342.389V345.889H579.274V342.389H582.774ZM582.774 253.518H579.274V250.018H582.774V253.518ZM597.144 228.709C590.494 235.359 586.628 244.274 586.297 253.641L579.302 253.394C579.694 242.26 584.289 231.664 592.194 223.759L597.144 228.709ZM623.387 217.838C613.544 217.838 604.104 221.748 597.144 228.709L592.194 223.759C600.467 215.486 611.688 210.838 623.387 210.838V217.838ZM649.63 228.709C642.67 221.748 633.23 217.838 623.387 217.838V210.838C635.087 210.838 646.307 215.486 654.58 223.759L649.63 228.709ZM660.477 253.641C660.146 244.274 656.281 235.359 649.63 228.709L654.58 223.759C662.485 231.664 667.08 242.26 667.473 253.394L660.477 253.641ZM664 257.018H663.975V250.018H664V257.018ZM660.5 254.951V253.518H667.5V254.951H660.5ZM660.5 341.911V254.951H667.5V341.911H660.5ZM660.5 342.389V341.911H667.5V342.389H660.5ZM663.997 338.889H664V345.889H663.997V338.889ZM667.497 342.43C667.362 353.942 662.73 364.953 654.58 373.103L649.63 368.154C656.487 361.297 660.384 352.033 660.497 342.347L667.497 342.43ZM654.58 373.103C646.307 381.376 635.087 386.024 623.387 386.024V379.024C633.23 379.024 642.67 375.114 649.63 368.154L654.58 373.103ZM623.387 386.024C611.688 386.024 600.467 381.376 592.194 373.103L597.144 368.154C604.104 375.114 613.544 379.024 623.387 379.024V386.024ZM592.194 373.103C584.044 364.953 579.412 353.942 579.277 342.43L586.277 342.347C586.39 352.033 590.287 361.297 597.144 368.154L592.194 373.103ZM582.774 338.889H582.777V345.889H582.774V338.889ZM586.274 341.911V342.389H579.274V341.911H586.274ZM586.274 254.951V341.911H579.274V254.951H586.274ZM586.274 253.518V254.951H579.274V253.518H586.274ZM582.799 257.018H582.774V250.018H582.799V257.018Z" fill="#1D1E19" mask="url(#path-1-inside-1_658_409)"/>
<path d="M623.387 404.025V353.856M623.387 256.385V307.032M623.387 307.032L603.319 286.486M623.387 307.032V332.355M623.387 332.355L643.932 312.765M623.387 332.355V353.856M623.387 353.856L603.319 335.222" stroke="#1D1E19" stroke-width="3.5"/>
<path d="M601.534 400.556L601.384 400.582H601.233H550.098H549.74L549.411 400.441C545.705 398.859 543.115 396.768 541.581 394.34C540.033 391.891 539.639 389.219 540.134 386.678C541.009 382.189 544.602 378.236 549.222 376.236C548.609 373.69 548.725 371.366 549.392 369.311C550.196 366.839 551.758 364.878 553.568 363.434C555.372 361.995 557.466 361.032 559.437 360.556C560.814 360.223 562.254 360.101 563.544 360.307C567.439 354.656 571.659 351.388 575.92 350.034C580.468 348.589 584.824 349.401 588.471 351.431C592.092 353.446 595.047 356.669 596.955 360.167C598.559 363.109 599.495 366.385 599.353 369.432C604.208 370.808 607.692 373.07 609.962 375.878C612.466 378.976 613.381 382.599 613.159 386.071C612.726 392.835 607.883 399.448 601.534 400.556Z" fill="#5DC27C" stroke="#1D1E19" stroke-width="3.5"/>
<mask id="path-5-inside-2_658_409" fill="white">
<path fill-rule="evenodd" clip-rule="evenodd" d="M640.216 286.32C641.14 277.634 645.009 269.476 651.243 263.242C658.441 256.044 668.204 252 678.384 252C688.564 252 698.327 256.044 705.525 263.242C711.759 269.476 715.628 277.634 716.552 286.32H716.768V340.057V340.508H716.765C716.648 350.525 712.617 360.107 705.525 367.199C698.327 374.397 688.564 378.441 678.384 378.441C668.204 378.441 658.441 374.397 651.243 367.199C644.151 360.107 640.12 350.525 640.003 340.508H640V340.057L640 290.384C640 290.372 640 290.361 640 290.35V286.32H640.216Z"/>
</mask>
<path fill-rule="evenodd" clip-rule="evenodd" d="M640.216 286.32C641.14 277.634 645.009 269.476 651.243 263.242C658.441 256.044 668.204 252 678.384 252C688.564 252 698.327 256.044 705.525 263.242C711.759 269.476 715.628 277.634 716.552 286.32H716.768V340.057V340.508H716.765C716.648 350.525 712.617 360.107 705.525 367.199C698.327 374.397 688.564 378.441 678.384 378.441C668.204 378.441 658.441 374.397 651.243 367.199C644.151 360.107 640.12 350.525 640.003 340.508H640V340.057L640 290.384C640 290.372 640 290.361 640 290.35V286.32H640.216Z" fill="#C3DD7C"/>
<path d="M651.243 263.242L648.768 260.767L648.768 260.767L651.243 263.242ZM640.216 286.32L643.696 286.69L643.363 289.82H640.216V286.32ZM705.525 263.242L708 260.767L708 260.767L705.525 263.242ZM716.552 286.32V289.82H713.405L713.072 286.69L716.552 286.32ZM716.768 286.32V282.82H720.268V286.32H716.768ZM716.768 340.508H720.268V344.008H716.768V340.508ZM716.765 340.508L713.265 340.467L713.306 337.008H716.765V340.508ZM705.525 367.199L708 369.674L708 369.674L705.525 367.199ZM651.243 367.199L653.717 364.724L653.717 364.724L651.243 367.199ZM640.003 340.508V337.008H643.462L643.503 340.467L640.003 340.508ZM640 340.508V344.008H636.5V340.508H640ZM640 340.057L643.5 340.057V340.057H640ZM640 290.384L636.5 290.384V290.384H640ZM640 286.32H636.5V282.82H640V286.32ZM653.717 265.717C648.052 271.383 644.536 278.796 643.696 286.69L636.735 285.949C637.744 276.471 641.965 267.57 648.768 260.767L653.717 265.717ZM678.384 255.5C669.132 255.5 660.259 259.175 653.717 265.717L648.768 260.767C656.622 252.913 667.276 248.5 678.384 248.5V255.5ZM703.051 265.717C696.509 259.175 687.636 255.5 678.384 255.5V248.5C689.492 248.5 700.146 252.913 708 260.767L703.051 265.717ZM713.072 286.69C712.231 278.796 708.716 271.383 703.051 265.717L708 260.767C714.803 267.57 719.024 276.471 720.032 285.949L713.072 286.69ZM716.768 289.82H716.552V282.82H716.768V289.82ZM713.268 340.057V286.32H720.268V340.057H713.268ZM713.268 340.508V340.057H720.268V340.508H713.268ZM716.765 337.008H716.768V344.008H716.765V337.008ZM720.265 340.55C720.137 351.48 715.739 361.935 708 369.674L703.051 364.724C709.496 358.279 713.159 349.571 713.265 340.467L720.265 340.55ZM708 369.674C700.146 377.529 689.492 381.941 678.384 381.941V374.941C687.636 374.941 696.509 371.266 703.051 364.724L708 369.674ZM678.384 381.941C667.276 381.941 656.622 377.529 648.768 369.674L653.717 364.724C660.259 371.266 669.132 374.941 678.384 374.941V381.941ZM648.768 369.674C641.029 361.935 636.631 351.48 636.503 340.55L643.503 340.467C643.609 349.571 647.272 358.279 653.717 364.724L648.768 369.674ZM640 337.008H640.003V344.008H640V337.008ZM643.5 340.057V340.508H636.5V340.057H643.5ZM643.5 290.384L643.5 340.057L636.5 340.057L636.5 290.384L643.5 290.384ZM643.5 290.35C643.5 290.357 643.5 290.364 643.5 290.369C643.5 290.375 643.5 290.379 643.5 290.384H636.5C636.5 290.377 636.5 290.37 636.5 290.364C636.5 290.358 636.5 290.354 636.5 290.35H643.5ZM643.5 286.32V290.35H636.5V286.32H643.5ZM640.216 289.82H640V282.82H640.216V289.82Z" fill="#1D1E19" mask="url(#path-5-inside-2_658_409)"/>
<path d="M678.384 398.761V351.346M678.384 286.319V307.092V331.025M678.384 331.025L697.802 312.511M678.384 331.025V351.346M678.384 351.346L659.418 333.735" stroke="#1D1E19" stroke-width="3.5"/>
</g>
<defs>
<clipPath id="clip0_658_409">
<rect width="708" height="398" fill="white"/>
</clipPath>
</defs>
</svg>
