<svg width="567" height="297" viewBox="0 0 567 297" fill="none" xmlns="http://www.w3.org/2000/svg">
<rect width="567" height="297" fill="#F6CA45"/>
<mask id="path-1-inside-1_769_1053" fill="white">
<path fill-rule="evenodd" clip-rule="evenodd" d="M448.672 219.614C449.308 213.642 451.968 208.033 456.254 203.746C461.204 198.797 467.917 196.016 474.917 196.016C481.917 196.016 488.63 198.797 493.579 203.746C497.866 208.033 500.526 213.642 501.161 219.614H501.31V222.409V256.564V256.875H501.308C501.227 263.762 498.456 270.35 493.579 275.226C488.63 280.176 481.917 282.957 474.917 282.957C467.917 282.957 461.204 280.176 456.254 275.226C451.378 270.35 448.607 263.762 448.526 256.875H448.524V256.564V222.409V219.614H448.672Z"/>
</mask>
<path fill-rule="evenodd" clip-rule="evenodd" d="M448.672 219.614C449.308 213.642 451.968 208.033 456.254 203.746C461.204 198.797 467.917 196.016 474.917 196.016C481.917 196.016 488.63 198.797 493.579 203.746C497.866 208.033 500.526 213.642 501.161 219.614H501.31V222.409V256.564V256.875H501.308C501.227 263.762 498.456 270.35 493.579 275.226C488.63 280.176 481.917 282.957 474.917 282.957C467.917 282.957 461.204 280.176 456.254 275.226C451.378 270.35 448.607 263.762 448.526 256.875H448.524V256.564V222.409V219.614H448.672Z" fill="#C3DD7C"/>
<path d="M456.254 203.746L458.376 205.867L458.376 205.867L456.254 203.746ZM448.672 219.614L451.655 219.932L451.37 222.614H448.672V219.614ZM493.579 203.746L495.701 201.625L495.701 201.625L493.579 203.746ZM501.161 219.614V222.614H498.464L498.178 219.932L501.161 219.614ZM501.31 219.614V216.614H504.31V219.614H501.31ZM501.31 256.875H504.31V259.875H501.31V256.875ZM501.308 256.875L498.308 256.839L498.343 253.875H501.308V256.875ZM493.579 275.226L491.458 273.105L491.458 273.105L493.579 275.226ZM456.254 275.226L454.133 277.348L456.254 275.226ZM448.526 256.875V253.875H451.491L451.526 256.839L448.526 256.875ZM448.524 256.875V259.875H445.524V256.875H448.524ZM448.524 219.614H445.524V216.614H448.524V219.614ZM458.376 205.867C454.576 209.667 452.219 214.638 451.655 219.932L445.689 219.297C446.397 212.645 449.359 206.399 454.133 201.625L458.376 205.867ZM474.917 199.016C468.713 199.016 462.763 201.48 458.376 205.867L454.133 201.625C459.645 196.113 467.121 193.016 474.917 193.016V199.016ZM491.458 205.867C487.071 201.48 481.121 199.016 474.917 199.016V193.016C482.712 193.016 490.188 196.113 495.701 201.625L491.458 205.867ZM498.178 219.932C497.615 214.638 495.257 209.667 491.458 205.867L495.701 201.625C500.474 206.399 503.436 212.645 504.144 219.297L498.178 219.932ZM501.31 222.614H501.161V216.614H501.31V222.614ZM498.31 222.409V219.614H504.31V222.409H498.31ZM498.31 256.564V222.409H504.31V256.564H498.31ZM498.31 256.875V256.564H504.31V256.875H498.31ZM501.308 253.875H501.31V259.875H501.308V253.875ZM504.308 256.91C504.217 264.58 501.131 271.917 495.701 277.348L491.458 273.105C495.78 268.783 498.236 262.944 498.308 256.839L504.308 256.91ZM495.701 277.348C490.188 282.86 482.712 285.957 474.917 285.957V279.957C481.121 279.957 487.071 277.492 491.458 273.105L495.701 277.348ZM474.917 285.957C467.121 285.957 459.645 282.86 454.133 277.348L458.376 273.105C462.763 277.492 468.713 279.957 474.917 279.957V285.957ZM454.133 277.348C448.702 271.917 445.616 264.58 445.526 256.91L451.526 256.839C451.597 262.944 454.054 268.783 458.376 273.105L454.133 277.348ZM448.524 253.875H448.526V259.875H448.524V253.875ZM451.524 256.564V256.875H445.524V256.564H451.524ZM451.524 222.409V256.564H445.524V222.409H451.524ZM451.524 219.614V222.409H445.524V219.614H451.524ZM448.672 222.614H448.524V216.614H448.672V222.614Z" fill="#1D1E19" mask="url(#path-1-inside-1_769_1053)"/>
<path d="M474.917 296.929V264.327M474.917 219.614V233.897V250.354M474.917 250.354L488.269 237.623M474.917 250.354V264.327M474.917 264.327L461.876 252.217" stroke="#1D1E19" stroke-width="3"/>
<mask id="path-4-inside-2_769_1053" fill="white">
<path fill-rule="evenodd" clip-rule="evenodd" d="M490.148 199.121C490.383 192.46 493.132 186.119 497.862 181.39C502.811 176.44 509.524 173.659 516.524 173.659C523.524 173.659 530.237 176.44 535.187 181.39C539.916 186.119 542.665 192.46 542.9 199.121H542.917V256.564V256.875H542.915C542.834 263.762 540.063 270.35 535.187 275.227C530.237 280.176 523.524 282.957 516.524 282.957C509.524 282.957 502.811 280.176 497.862 275.227C492.985 270.35 490.214 263.762 490.133 256.875H490.132V256.564V200.052H490.131C490.131 200.017 490.131 199.981 490.132 199.946V199.121H490.148Z"/>
</mask>
<path fill-rule="evenodd" clip-rule="evenodd" d="M490.148 199.121C490.383 192.46 493.132 186.119 497.862 181.39C502.811 176.44 509.524 173.659 516.524 173.659C523.524 173.659 530.237 176.44 535.187 181.39C539.916 186.119 542.665 192.46 542.9 199.121H542.917V256.564V256.875H542.915C542.834 263.762 540.063 270.35 535.187 275.227C530.237 280.176 523.524 282.957 516.524 282.957C509.524 282.957 502.811 280.176 497.862 275.227C492.985 270.35 490.214 263.762 490.133 256.875H490.132V256.564V200.052H490.131C490.131 200.017 490.131 199.981 490.132 199.946V199.121H490.148Z" fill="#8AC636"/>
<path d="M497.862 181.39L499.983 183.511L499.983 183.511L497.862 181.39ZM490.148 199.121L493.146 199.227L493.044 202.121H490.148V199.121ZM535.187 181.39L537.308 179.268L537.308 179.268L535.187 181.39ZM542.9 199.121V202.121H540.004L539.902 199.227L542.9 199.121ZM542.917 199.121V196.121H545.917V199.121H542.917ZM542.917 256.875H545.917V259.875H542.917V256.875ZM542.915 256.875L539.915 256.84L539.95 253.875H542.915V256.875ZM535.187 275.227L533.065 273.105L533.065 273.105L535.187 275.227ZM497.862 275.227L499.983 273.105L499.983 273.105L497.862 275.227ZM490.133 256.875V253.875H493.098L493.133 256.84L490.133 256.875ZM490.132 256.875V259.875H487.132V256.875H490.132ZM490.132 200.052V197.052H493.132V200.052H490.132ZM490.131 200.052V203.052H487.131V200.052H490.131ZM490.132 199.946H493.132L493.131 199.958L490.132 199.946ZM490.132 199.121H487.132V196.121H490.132V199.121ZM499.983 183.511C495.791 187.703 493.354 193.323 493.146 199.227L487.15 199.016C487.411 191.596 490.473 184.536 495.74 179.268L499.983 183.511ZM516.524 176.659C510.32 176.659 504.37 179.124 499.983 183.511L495.74 179.268C501.252 173.756 508.729 170.659 516.524 170.659V176.659ZM533.065 183.511C528.678 179.124 522.728 176.659 516.524 176.659V170.659C524.319 170.659 531.796 173.756 537.308 179.268L533.065 183.511ZM539.902 199.227C539.694 193.323 537.257 187.703 533.065 183.511L537.308 179.268C542.575 184.536 545.637 191.596 545.899 199.016L539.902 199.227ZM542.917 202.121H542.9V196.121H542.917V202.121ZM539.917 256.564V199.121H545.917V256.564H539.917ZM539.917 256.875V256.564H545.917V256.875H539.917ZM542.915 253.875H542.917V259.875H542.915V253.875ZM545.915 256.91C545.825 264.58 542.739 271.917 537.308 277.348L533.065 273.105C537.387 268.783 539.844 262.944 539.915 256.84L545.915 256.91ZM537.308 277.348C531.796 282.86 524.32 285.957 516.524 285.957V279.957C522.728 279.957 528.678 277.492 533.065 273.105L537.308 277.348ZM516.524 285.957C508.729 285.957 501.253 282.86 495.74 277.348L499.983 273.105C504.37 277.492 510.32 279.957 516.524 279.957V285.957ZM495.74 277.348C490.31 271.917 487.224 264.58 487.134 256.91L493.133 256.84C493.205 262.944 495.661 268.783 499.983 273.105L495.74 277.348ZM490.132 253.875H490.133V259.875H490.132V253.875ZM493.132 256.564V256.875H487.132V256.564H493.132ZM493.132 200.052V256.564H487.132V200.052H493.132ZM490.131 197.052H490.132V203.052H490.131V197.052ZM493.131 199.958C493.131 199.989 493.131 200.021 493.131 200.052H487.131C487.131 200.013 487.131 199.973 487.132 199.934L493.131 199.958ZM493.132 199.121V199.946H487.132V199.121H493.132ZM490.148 202.121H490.132V196.121H490.148V202.121Z" fill="#1D1E19" mask="url(#path-4-inside-2_769_1053)"/>
<path d="M516.524 296.929V264.326M516.524 200.984V233.897M516.524 233.897L503.483 220.546M516.524 233.897V250.354M516.524 250.354L529.875 237.623M516.524 250.354V264.326M516.524 264.326L503.483 252.217" stroke="#1D1E19" stroke-width="3"/>
</svg>
