<svg width="278" height="495" viewBox="0 0 278 495" fill="none" xmlns="http://www.w3.org/2000/svg">
<g clip-path="url(#clip0_283_5122)">
<rect width="278" height="495" fill="#66AEF4"/>
<path d="M-7.5 -3.5H294.5V360.5H-7.5V-3.5Z" fill="#B8E5F8" stroke="#1D1E19" stroke-width="5"/>
<path d="M29.7241 259.415L37.3824 234.655L28.5921 139.365L24.1221 90.807L31.5955 84.7204C55.655 93.0816 109.404 100.147 177.427 88.932C179.557 88.6335 185.303 98.6038 187.366 98.2875C203.888 95.7553 218.155 92.7029 228.648 89.9134C209.047 106.893 195.25 129.891 185.763 153.224C172.722 185.297 167.824 218.004 167.192 236.579L173.336 263.748L206.607 410.871C186.759 418.918 166.091 423.815 145.579 426.394C118.451 429.805 91.5961 429.163 67.276 426.398C31.8697 422.372 1.83513 413.844 -15.8522 406.768L29.7241 259.415Z" fill="#5DC27C"/>
<path d="M37.3824 234.655L29.7241 259.415M37.3824 234.655C47.8753 239.137 58.5186 242.248 69.0031 244.286M37.3824 234.655L28.5921 139.365L24.1221 90.807L31.5955 84.7204C55.655 93.0816 109.404 100.147 177.427 88.932M167.192 236.579L173.336 263.748M167.192 236.579C161.004 239.076 151.948 241.829 140.94 243.949M167.192 236.579C167.824 218.004 172.722 185.297 185.763 153.224M29.7241 259.415L-15.8522 406.768C1.83513 413.844 31.8697 422.372 67.276 426.398M29.7241 259.415C42.5675 260.47 68.7656 268.997 70.8107 294.665M70.8107 294.665L67.276 426.398M70.8107 294.665C81.8804 275.082 111.67 247.846 142.268 295.567M67.276 426.398C91.5961 429.163 118.451 429.805 145.579 426.394M142.268 295.567L145.579 426.394M142.268 295.567C144.35 285.813 153.477 265.794 173.336 263.748M145.579 426.394C166.091 423.815 186.759 418.918 206.607 410.871L173.336 263.748M69.0031 244.286L55.8398 97.9318M69.0031 244.286C79.9398 246.412 90.7036 247.371 100.944 247.505M100.944 247.505L104.085 103.572M100.944 247.505C115.718 247.697 129.401 246.171 140.94 243.949M140.94 243.949L150.853 102.497M177.427 88.932C179.557 88.6335 185.303 98.6038 187.366 98.2875C203.888 95.7553 218.155 92.7029 228.648 89.9134C209.047 106.893 195.25 129.891 185.763 153.224M177.427 88.932L185.763 153.224" stroke="#1D1E19" stroke-width="5"/>
<path d="M-15.8525 406.768L29.7238 259.415C42.5672 260.47 68.7652 268.997 70.8103 294.664C81.8801 275.082 111.669 247.846 142.268 295.567C144.349 285.813 153.477 265.794 173.336 263.748L206.607 410.87C186.759 418.918 166.09 423.814 145.578 426.394C118.45 429.805 91.5957 429.163 67.2756 426.398C31.8694 422.371 1.8348 413.844 -15.8525 406.768Z" fill="#8AC636"/>
<path d="M70.8103 294.664C68.7652 268.997 42.5672 260.47 29.7238 259.415L-15.8525 406.768C1.8348 413.844 31.8694 422.371 67.2756 426.398M70.8103 294.664L67.2756 426.398M70.8103 294.664C81.8801 275.082 111.669 247.846 142.268 295.567M67.2756 426.398C91.5957 429.163 118.45 429.805 145.578 426.394M142.268 295.567L145.578 426.394M142.268 295.567C144.349 285.813 153.477 265.794 173.336 263.748L206.607 410.87C186.759 418.918 166.091 423.814 145.578 426.394" stroke="#1D1E19" stroke-width="5"/>
<path d="M140.94 243.949C151.948 241.829 161.003 239.076 167.191 236.579C167.824 218.003 172.722 185.297 185.763 153.224L177.426 88.9319L150.852 102.497L140.94 243.949Z" fill="#8AC636" stroke="#1D1E19" stroke-width="5"/>
<path d="M55.8396 97.9317L69.0028 244.286C79.9395 246.412 90.7033 247.371 100.943 247.505L104.085 103.572L55.8396 97.9317Z" fill="#8AC636" stroke="#1D1E19" stroke-width="5"/>
<path d="M190.725 97.5951C164.149 36.517 40.7633 51.1245 24.9384 88.241C35.1069 92.4327 46.0354 95.6228 57.4025 97.9795C73.1566 101.246 89.7533 102.911 106.337 103.423C122.408 103.919 138.468 103.332 153.737 102.069C164.417 101.186 181.084 99.0005 190.725 97.5951Z" fill="#F57B45" stroke="#1D1E19" stroke-width="5"/>
<path d="M6.41796 104.506L25.0724 106.4L29.1092 150.16C-14.1261 127.68 -9.33673 221.364 -10.0546 246.222C-10.4599 260.255 -17.3213 265.236 -23.6788 266.38C-27.7728 267.116 -30.5817 263.118 -30.198 258.976L-17.7313 124.382C-16.6027 112.198 -5.75613 103.27 6.41796 104.506Z" fill="#F57B45" stroke="#1D1E19" stroke-width="5"/>
<path d="M119.5 67.7934L105.909 67.7934L99.7047 48.8677C98.3712 44.7998 101.402 40.6169 105.683 40.6169L119.789 40.617C124.078 40.617 127.11 44.8145 125.762 48.886L119.5 67.7934Z" fill="#E30705" stroke="#1D1E19" stroke-width="5"/>
<path d="M294.974 362.578C293.9 393.716 251.276 411.752 230.958 412.603C234.314 407.747 237.168 402.382 239.569 396.779C254.124 392.355 282.825 379.321 281.192 362.578C279.15 341.65 257.318 345.396 249.858 353.987C250.223 349.462 250.324 345.286 250.196 341.65C250.134 339.912 250.02 338.298 249.858 336.828C265.917 329.587 295.995 332.972 294.974 362.578Z" fill="#F0E6D1" stroke="#1D1E19" stroke-width="5"/>
<path d="M180.122 460.585C83.5273 460.585 98.96 426.895 124.483 419.206H225.781C258.221 419.206 276.087 460.585 180.122 460.585Z" fill="#F57B45" stroke="#1D1E19" stroke-width="5"/>
<path d="M171.955 310C205.134 310.001 234.231 317.147 246.997 327.869C247.734 328.488 248.363 329.713 248.866 331.44C249.29 332.898 249.624 334.714 249.858 336.827C249.858 349.817 249.619 375.254 239.569 396.778C235.219 406.094 227.625 417.141 225.781 419.205C220.578 425.029 214.418 429.686 207.181 432.512V440.679C186.253 445.273 166.856 445.784 148.479 440.679V432.512C142.023 430.617 132.921 426.308 124.483 419.205C112.462 409.088 101.788 393.301 102.028 370.747C102.157 358.681 102.005 349.192 102.564 341.649C102.853 337.757 103.331 334.383 104.134 331.44C111.722 320.209 138.775 309.999 171.955 310Z" fill="#F0E6D1"/>
<path d="M148.479 432.512V440.679C166.856 445.784 186.253 445.273 207.181 440.679V432.512M148.479 432.512C158.52 435.405 184.317 439.455 207.181 432.512M148.479 432.512C142.023 430.617 132.921 426.308 124.483 419.205C112.462 409.088 101.788 393.301 102.028 370.747C102.157 358.681 102.005 349.192 102.564 341.649M207.181 432.512C214.418 429.686 220.578 425.029 225.781 419.205C227.625 417.141 235.219 406.094 239.569 396.778C249.619 375.254 249.858 349.817 249.858 336.827C249.624 334.714 249.29 332.898 248.866 331.44M102.564 341.649C138.775 356.452 186.392 364.109 249.829 342.16M102.564 341.649C102.853 337.757 103.331 334.383 104.134 331.44M104.134 331.44C111.722 320.209 138.775 309.999 171.955 310C205.134 310.001 234.231 317.147 246.997 327.869C247.734 328.488 248.363 329.713 248.866 331.44M104.134 331.44C107.116 333.375 110.509 335.181 114.274 336.827C140.54 348.311 184.869 351.981 233.483 336.827C238.569 335.242 243.702 333.45 248.866 331.44" stroke="#1D1E19" stroke-width="5"/>
<path d="M175.14 325.313C129.316 325.313 117.746 330.837 115.296 335.53C142.309 347.023 184.747 350.98 234.742 335.814C234.473 332.825 211.888 325.313 175.14 325.313Z" fill="#895E3A" stroke="#1D1E19" stroke-width="5.10452"/>
<path d="M162.767 396.778C141.838 400.862 141.838 375.339 165.319 384.017C157.152 361.557 176.549 364.109 178.08 379.423C189.821 363.088 204.113 376.871 189.821 386.059C205.645 388.1 201.05 400.862 185.226 395.757C200.03 412.602 179.612 414.644 175.151 401.883C169.536 426.384 155.11 406.987 162.767 396.778Z" fill="#F6CA45" stroke="#1D1E19" stroke-width="5"/>
<path d="M207.181 440.68V432.512C184.317 439.456 158.52 435.405 148.479 432.512V440.68C166.856 445.784 186.253 445.274 207.181 440.68Z" fill="#F6CA45" stroke="#1D1E19" stroke-width="5"/>
</g>
<defs>
<clipPath id="clip0_283_5122">
<rect width="278" height="495" fill="white"/>
</clipPath>
</defs>
</svg>
