<svg width="587" height="467" viewBox="0 0 587 467" fill="none" xmlns="http://www.w3.org/2000/svg">
<g clip-path="url(#clip0_256_349)">
<path d="M483.482 102.493C446.687 118.591 464.318 153.086 483.482 153.086H586.968C617.63 153.086 619.163 98.6603 573.17 102.493C570.104 88.3882 557.072 88.4393 550.94 90.228C521.81 61.0986 488.082 82.5625 483.482 102.493Z" fill="#F0E6D1" stroke="#1D1E19" stroke-width="5"/>
<path d="M57.8245 403.311C82.1045 413.934 70.4704 436.696 57.8245 436.696H-10.462C-30.6948 436.696 -31.7064 400.782 -1.35709 403.311C0.666214 394.004 9.26525 394.038 13.3119 395.218C32.5332 375.997 54.7896 390.16 57.8245 403.311Z" fill="#F0E6D1" stroke="#1D1E19" stroke-width="5"/>
<mask id="path-3-inside-1_256_349" fill="white">
<path fill-rule="evenodd" clip-rule="evenodd" d="M552.974 313.963C552.595 303.236 548.168 293.027 540.552 285.411C532.582 277.441 521.772 272.963 510.5 272.963C499.228 272.963 488.418 277.441 480.448 285.411C472.832 293.027 468.405 303.236 468.026 313.963H468V315.463V406.463V406.963H468.003C468.133 418.054 472.596 428.663 480.448 436.515C488.418 444.486 499.228 448.963 510.5 448.963C521.772 448.963 532.582 444.486 540.552 436.515C548.404 428.663 552.867 418.054 552.997 406.963H553V406.463V315.463V313.963H552.974Z"/>
</mask>
<path fill-rule="evenodd" clip-rule="evenodd" d="M552.974 313.963C552.595 303.236 548.168 293.027 540.552 285.411C532.582 277.441 521.772 272.963 510.5 272.963C499.228 272.963 488.418 277.441 480.448 285.411C472.832 293.027 468.405 303.236 468.026 313.963H468V315.463V406.463V406.963H468.003C468.133 418.054 472.596 428.663 480.448 436.515C488.418 444.486 499.228 448.963 510.5 448.963C521.772 448.963 532.582 444.486 540.552 436.515C548.404 428.663 552.867 418.054 552.997 406.963H553V406.463V315.463V313.963H552.974Z" fill="#8AC636"/>
<path d="M540.552 285.411L544.088 281.876L544.088 281.876L540.552 285.411ZM552.974 313.963L547.977 314.14L548.147 318.963H552.974V313.963ZM480.448 285.411L483.983 288.947L480.448 285.411ZM468.026 313.963V318.963H472.853L473.023 314.14L468.026 313.963ZM468 313.963V308.963H463V313.963H468ZM468 406.963H463V411.963H468V406.963ZM468.003 406.963L473.003 406.905L472.945 401.963H468.003V406.963ZM480.448 436.515L476.912 440.051L476.912 440.051L480.448 436.515ZM540.552 436.515L544.088 440.051L540.552 436.515ZM552.997 406.963V401.963H548.055L547.997 406.905L552.997 406.963ZM553 406.963V411.963H558V406.963H553ZM553 313.963H558V308.963H553V313.963ZM537.017 288.947C543.737 295.667 547.643 304.675 547.977 314.14L557.97 313.787C557.547 301.798 552.6 290.388 544.088 281.876L537.017 288.947ZM510.5 277.963C520.446 277.963 529.984 281.914 537.017 288.947L544.088 281.876C535.18 272.968 523.098 267.963 510.5 267.963V277.963ZM483.983 288.947C491.016 281.914 500.554 277.963 510.5 277.963V267.963C497.902 267.963 485.82 272.968 476.912 281.876L483.983 288.947ZM473.023 314.14C473.357 304.675 477.263 295.667 483.983 288.947L476.912 281.876C468.4 290.388 463.453 301.798 463.03 313.787L473.023 314.14ZM468 318.963H468.026V308.963H468V318.963ZM473 315.463V313.963H463V315.463H473ZM473 406.463V315.463H463V406.463H473ZM473 406.963V406.463H463V406.963H473ZM468.003 401.963H468V411.963H468.003V401.963ZM463.003 407.022C463.149 419.418 468.136 431.275 476.912 440.051L483.984 432.98C477.055 426.051 473.118 416.691 473.003 406.905L463.003 407.022ZM476.912 440.051C485.82 448.959 497.902 453.963 510.5 453.963V443.963C500.554 443.963 491.016 440.013 483.983 432.98L476.912 440.051ZM510.5 453.963C523.098 453.963 535.18 448.959 544.088 440.051L537.017 432.98C529.984 440.013 520.446 443.963 510.5 443.963V453.963ZM544.088 440.051C552.864 431.275 557.851 419.418 557.997 407.022L547.997 406.905C547.882 416.691 543.945 426.051 537.017 432.98L544.088 440.051ZM553 401.963H552.997V411.963H553V401.963ZM548 406.463V406.963H558V406.463H548ZM548 315.463V406.463H558V315.463H548ZM548 313.963V315.463H558V313.963H548ZM552.974 318.963H553V308.963H552.974V318.963Z" fill="#1D1E19" mask="url(#path-3-inside-1_256_349)"/>
<path d="M510.5 471.463V418.963M510.5 316.963V369.963M510.5 369.963L531.5 348.463M510.5 369.963V396.463M510.5 396.463L489 375.963M510.5 396.463V418.963M510.5 418.963L531.5 399.463" stroke="#1D1E19" stroke-width="5"/>
<path d="M533.253 469.426L533.466 469.463H533.683H587.193H587.705L588.175 469.263C592.142 467.569 594.975 465.304 596.672 462.62C598.387 459.905 598.826 456.935 598.277 454.117C597.344 449.333 593.641 445.163 588.881 442.932C589.409 440.366 589.259 437.993 588.568 435.864C587.68 433.131 585.956 430.976 583.979 429.399C582.011 427.828 579.73 426.779 577.578 426.259C576.229 425.934 574.789 425.783 573.438 425.932C569.368 420.138 564.926 416.708 560.375 415.261C555.412 413.684 550.664 414.576 546.712 416.776C542.798 418.953 539.621 422.425 537.573 426.182C535.944 429.169 534.935 432.514 534.967 435.7C530.038 437.182 526.427 439.555 524.028 442.523C521.291 445.908 520.293 449.87 520.535 453.653C521.003 460.96 526.233 468.201 533.253 469.426Z" fill="#5DC27C" stroke="#1D1E19" stroke-width="5"/>
</g>
<defs>
<clipPath id="clip0_256_349">
<rect width="587" height="467" fill="white"/>
</clipPath>
</defs>
</svg>
