<svg width="887" height="1052" viewBox="0 0 887 1052" fill="none" xmlns="http://www.w3.org/2000/svg">
<path d="M4 186.299L60.1473 186.3V64H825V436.753H763.5V129.5H591.5V186.284H708.265V616H762V493H825V989H703.5V922.319H761.708V681.677H708.226V865.5H645V497.5H591.5V620.796H357.197V676.796H591.5V865.5H474.5V922.319H650V989H60.1473V800H123.5V922.319H410.5V800H528V743.281H240.259V800H357.197V865.5H177V676.796H293.734V493H357.197V554.277H528V497.5H410.5V431.885H645V253H529V129.5H474.5V308.807H591.5L591.803 375.267H357.5L357.197 436.753H293.734V308.807H410.5V253H240.259V620.796H123.5V743.281H60.1473V554.277H177V186.284H410.5V129.5H123.5V497.5H60.1473V253H4" stroke="#1D1E19" stroke-width="5"/>
</svg>
