<svg width="587" height="606" viewBox="0 0 587 606" fill="none" xmlns="http://www.w3.org/2000/svg">
<g clip-path="url(#clip0_204_4)">
<path d="M888 394.5C888 451.637 879.007 508.419 861.35 562.76L343.5 394.5H888Z" fill="#B8E5F8" stroke="#1D1E19" stroke-width="5"/>
<path d="M784.01 714.549C750.425 760.774 709.774 801.425 663.549 835.01L343.5 394.5L784.01 714.549Z" fill="#B8E5F8" stroke="#1D1E19" stroke-width="5"/>
<path d="M511.76 912.35C457.419 930.007 400.637 939 343.5 939L343.5 394.5L511.76 912.35Z" fill="#B8E5F8" stroke="#1D1E19" stroke-width="5"/>
<path d="M175.24 912.35C120.899 894.694 69.676 868.594 23.4509 835.01L343.5 394.5L175.24 912.35Z" fill="#B8E5F8" stroke="#1D1E19" stroke-width="5"/>
<path d="M-97.0098 714.549C-130.594 668.324 -156.694 617.101 -174.35 562.76L343.5 394.5L-97.0098 714.549Z" fill="#B8E5F8" stroke="#1D1E19" stroke-width="5"/>
<path d="M-201 394.5C-201 337.362 -192.007 280.581 -174.35 226.24L343.5 394.5L-201 394.5Z" fill="#B8E5F8" stroke="#1D1E19" stroke-width="5"/>
<path d="M-97.0097 74.4509C-63.4252 28.2257 -22.7742 -12.4253 23.451 -46.0098L343.5 394.5L-97.0097 74.4509Z" fill="#B8E5F8" stroke="#1D1E19" stroke-width="5"/>
<path d="M175.24 -123.35C229.581 -141.007 286.363 -150 343.5 -150V394.5L175.24 -123.35Z" fill="#B8E5F8" stroke="#1D1E19" stroke-width="5"/>
<path d="M511.76 -123.35C566.101 -105.694 617.324 -79.5942 663.549 -46.0097L343.5 394.5L511.76 -123.35Z" fill="#B8E5F8" stroke="#1D1E19" stroke-width="5"/>
<path d="M784.01 74.4511C817.594 120.676 843.694 171.9 861.35 226.241L343.5 394.5L784.01 74.4511Z" fill="#B8E5F8" stroke="#1D1E19" stroke-width="5"/>
<path d="M489.22 53.4513C496.26 49.6963 489.22 34.678 478.895 39.8408L213.724 196.127C207.623 200.351 213.724 207.86 217.948 205.044L489.22 53.4513Z" fill="#895E3A" stroke="#1D1E19" stroke-width="4.69328"/>
<path d="M138.163 423.282C143.795 343.496 405.68 261.363 480.772 312.051C499.862 400.187 469.916 469.061 419.759 508.541L423.045 522.31C387.376 557.228 326.336 561.264 300.275 558.917L297.265 545.017C236.523 539.697 175.709 508.541 138.163 423.282Z" fill="#F57B45"/>
<path d="M138.163 423.282C196.829 476.315 480.772 381.981 480.772 312.051M138.163 423.282C143.795 343.496 405.68 261.363 480.772 312.051M138.163 423.282C175.709 508.541 236.523 539.697 297.265 545.017M480.772 312.051C499.862 400.187 469.916 469.061 419.759 508.541M297.265 545.017L300.275 558.917C326.336 561.264 387.376 557.228 423.045 522.31L419.759 508.541M297.265 545.017C341.404 548.884 385.34 535.633 419.759 508.541" stroke="#1D1E19" stroke-width="4.69328"/>
<mask id="path-14-inside-1_204_4" fill="white">
<path d="M286.215 455.344C287.369 445.861 286.644 436.243 284.081 427.04C281.519 417.837 277.168 409.229 271.279 401.707C265.389 394.186 258.076 387.898 249.756 383.202C241.437 378.507 232.274 375.496 222.791 374.342C213.308 373.188 203.69 373.913 194.487 376.476C185.284 379.038 176.676 383.389 169.154 389.278C161.632 395.168 155.344 402.481 150.649 410.801C145.954 419.12 142.943 428.283 141.789 437.766L214.002 446.555L286.215 455.344Z"/>
</mask>
<path d="M286.215 455.344C287.369 445.861 286.644 436.243 284.081 427.04C281.519 417.837 277.168 409.229 271.279 401.707C265.389 394.186 258.076 387.898 249.756 383.202C241.437 378.507 232.274 375.496 222.791 374.342C213.308 373.188 203.69 373.913 194.487 376.476C185.284 379.038 176.676 383.389 169.154 389.278C161.632 395.168 155.344 402.481 150.649 410.801C145.954 419.12 142.943 428.283 141.789 437.766L214.002 446.555L286.215 455.344Z" fill="#FFE1BB" stroke="#1D1E19" stroke-width="9.38656" mask="url(#path-14-inside-1_204_4)"/>
<mask id="path-15-inside-2_204_4" fill="white">
<path d="M276.897 454.21C277.902 445.951 277.271 437.574 275.039 429.559C272.807 421.543 269.018 414.046 263.888 407.495C258.759 400.943 252.389 395.467 245.143 391.377C237.897 387.288 229.916 384.665 221.657 383.66C213.397 382.655 205.02 383.286 197.005 385.518C188.989 387.75 181.492 391.539 174.941 396.669C168.39 401.799 162.913 408.168 158.824 415.414C154.734 422.66 152.112 430.641 151.107 438.901L214.002 446.555L276.897 454.21Z"/>
</mask>
<path d="M276.897 454.21C277.902 445.951 277.271 437.574 275.039 429.559C272.807 421.543 269.018 414.046 263.888 407.495C258.759 400.943 252.389 395.467 245.143 391.377C237.897 387.288 229.916 384.665 221.657 383.66C213.397 382.655 205.02 383.286 197.005 385.518C188.989 387.75 181.492 391.539 174.941 396.669C168.39 401.799 162.913 408.168 158.824 415.414C154.734 422.66 152.112 430.641 151.107 438.901L214.002 446.555L276.897 454.21Z" fill="#FFE1BB" stroke="#1D1E19" stroke-width="9.38656" mask="url(#path-15-inside-2_204_4)"/>
<mask id="path-16-inside-3_204_4" fill="white">
<path d="M267.579 453.077C268.435 446.041 267.898 438.906 265.996 432.078C264.095 425.25 260.867 418.863 256.498 413.283C252.128 407.702 246.702 403.037 240.529 399.553C234.357 396.069 227.558 393.836 220.523 392.979C213.487 392.123 206.351 392.661 199.523 394.562C192.695 396.464 186.308 399.691 180.728 404.061C175.147 408.43 170.482 413.856 166.998 420.029C163.515 426.202 161.281 433 160.424 440.036L214.002 446.557L267.579 453.077Z"/>
</mask>
<path d="M267.579 453.077C268.435 446.041 267.898 438.906 265.996 432.078C264.095 425.25 260.867 418.863 256.498 413.283C252.128 407.702 246.702 403.037 240.529 399.553C234.357 396.069 227.558 393.836 220.523 392.979C213.487 392.123 206.351 392.661 199.523 394.562C192.695 396.464 186.308 399.691 180.728 404.061C175.147 408.43 170.482 413.856 166.998 420.029C163.515 426.202 161.281 433 160.424 440.036L214.002 446.557L267.579 453.077Z" fill="#FFE1BB" stroke="#1D1E19" stroke-width="9.38656" mask="url(#path-16-inside-3_204_4)"/>
<mask id="path-17-inside-4_204_4" fill="white">
<path d="M258.261 451.943C258.969 446.13 258.524 440.236 256.954 434.595C255.383 428.955 252.717 423.679 249.107 419.069C245.497 414.459 241.015 410.605 235.916 407.727C230.817 404.849 225.201 403.004 219.388 402.296C213.576 401.589 207.681 402.033 202.041 403.604C196.4 405.175 191.125 407.841 186.514 411.451C181.904 415.06 178.05 419.543 175.173 424.642C172.295 429.741 170.45 435.357 169.742 441.169L214.002 446.556L258.261 451.943Z"/>
</mask>
<path d="M258.261 451.943C258.969 446.13 258.524 440.236 256.954 434.595C255.383 428.955 252.717 423.679 249.107 419.069C245.497 414.459 241.015 410.605 235.916 407.727C230.817 404.849 225.201 403.004 219.388 402.296C213.576 401.589 207.681 402.033 202.041 403.604C196.4 405.175 191.125 407.841 186.514 411.451C181.904 415.06 178.05 419.543 175.173 424.642C172.295 429.741 170.45 435.357 169.742 441.169L214.002 446.556L258.261 451.943Z" fill="#FFE1BB" stroke="#1D1E19" stroke-width="9.38656" mask="url(#path-17-inside-4_204_4)"/>
<mask id="path-18-inside-5_204_4" fill="white">
<path d="M248.944 450.808C249.502 446.22 249.151 441.566 247.911 437.113C246.671 432.66 244.566 428.495 241.716 424.855C238.867 421.216 235.328 418.173 231.302 415.901C227.277 413.629 222.843 412.172 218.255 411.614C213.666 411.056 209.012 411.406 204.559 412.646C200.106 413.886 195.941 415.991 192.301 418.841C188.662 421.691 185.619 425.23 183.347 429.255C181.075 433.281 179.619 437.714 179.06 442.303L214.002 446.556L248.944 450.808Z"/>
</mask>
<path d="M248.944 450.808C249.502 446.22 249.151 441.566 247.911 437.113C246.671 432.66 244.566 428.495 241.716 424.855C238.867 421.216 235.328 418.173 231.302 415.901C227.277 413.629 222.843 412.172 218.255 411.614C213.666 411.056 209.012 411.406 204.559 412.646C200.106 413.886 195.941 415.991 192.301 418.841C188.662 421.691 185.619 425.23 183.347 429.255C181.075 433.281 179.619 437.714 179.06 442.303L214.002 446.556L248.944 450.808Z" fill="#FFE1BB" stroke="#1D1E19" stroke-width="9.38656" mask="url(#path-18-inside-5_204_4)"/>
<mask id="path-19-inside-6_204_4" fill="white">
<path d="M239.626 449.675C240.035 446.31 239.778 442.897 238.869 439.631C237.959 436.366 236.416 433.311 234.326 430.642C232.236 427.973 229.641 425.742 226.689 424.076C223.737 422.41 220.485 421.342 217.12 420.932C213.755 420.523 210.343 420.78 207.077 421.689C203.812 422.599 200.757 424.142 198.088 426.232C195.419 428.322 193.188 430.917 191.522 433.869C189.856 436.821 188.787 440.072 188.378 443.437L214.002 446.556L239.626 449.675Z"/>
</mask>
<path d="M239.626 449.675C240.035 446.31 239.778 442.897 238.869 439.631C237.959 436.366 236.416 433.311 234.326 430.642C232.236 427.973 229.641 425.742 226.689 424.076C223.737 422.41 220.485 421.342 217.12 420.932C213.755 420.523 210.343 420.78 207.077 421.689C203.812 422.599 200.757 424.142 198.088 426.232C195.419 428.322 193.188 430.917 191.522 433.869C189.856 436.821 188.787 440.072 188.378 443.437L214.002 446.556L239.626 449.675Z" fill="#FFE1BB" stroke="#1D1E19" stroke-width="9.38656" mask="url(#path-19-inside-6_204_4)"/>
<mask id="path-20-inside-7_204_4" fill="white">
<path d="M334.012 364.466C330.749 355.487 325.75 347.239 319.3 340.192C312.849 333.146 305.074 327.438 296.419 323.396C287.763 319.354 278.395 317.057 268.852 316.635C259.308 316.213 249.774 317.675 240.796 320.938C231.817 324.2 223.569 329.2 216.522 335.65C209.475 342.1 203.768 349.875 199.726 358.531C195.684 367.187 193.386 376.554 192.965 386.098C192.543 395.642 194.005 405.175 197.267 414.154L265.639 389.31L334.012 364.466Z"/>
</mask>
<path d="M334.012 364.466C330.749 355.487 325.75 347.239 319.3 340.192C312.849 333.146 305.074 327.438 296.419 323.396C287.763 319.354 278.395 317.057 268.852 316.635C259.308 316.213 249.774 317.675 240.796 320.938C231.817 324.2 223.569 329.2 216.522 335.65C209.475 342.1 203.768 349.875 199.726 358.531C195.684 367.187 193.386 376.554 192.965 386.098C192.543 395.642 194.005 405.175 197.267 414.154L265.639 389.31L334.012 364.466Z" fill="#FFE1BB" stroke="#1D1E19" stroke-width="9.38656" mask="url(#path-20-inside-7_204_4)"/>
<mask id="path-21-inside-8_204_4" fill="white">
<path d="M325.189 367.671C322.348 359.851 317.994 352.667 312.376 346.53C306.758 340.392 299.986 335.421 292.447 331.901C284.908 328.381 276.749 326.38 268.437 326.012C260.125 325.645 251.821 326.918 244.001 329.76C236.181 332.601 228.997 336.955 222.86 342.573C216.722 348.191 211.751 354.963 208.231 362.502C204.71 370.041 202.709 378.2 202.342 386.512C201.975 394.824 203.248 403.128 206.09 410.948L265.639 389.31L325.189 367.671Z"/>
</mask>
<path d="M325.189 367.671C322.348 359.851 317.994 352.667 312.376 346.53C306.758 340.392 299.986 335.421 292.447 331.901C284.908 328.381 276.749 326.38 268.437 326.012C260.125 325.645 251.821 326.918 244.001 329.76C236.181 332.601 228.997 336.955 222.86 342.573C216.722 348.191 211.751 354.963 208.231 362.502C204.71 370.041 202.709 378.2 202.342 386.512C201.975 394.824 203.248 403.128 206.09 410.948L265.639 389.31L325.189 367.671Z" fill="#FFE1BB" stroke="#1D1E19" stroke-width="9.38656" mask="url(#path-21-inside-8_204_4)"/>
<mask id="path-22-inside-9_204_4" fill="white">
<path d="M316.367 370.877C313.946 364.216 310.237 358.096 305.452 352.868C300.666 347.639 294.898 343.405 288.475 340.406C282.053 337.407 275.103 335.703 268.023 335.39C260.942 335.077 253.868 336.162 247.207 338.582C240.545 341.003 234.426 344.712 229.197 349.497C223.969 354.283 219.735 360.052 216.736 366.474C213.737 372.896 212.032 379.846 211.719 386.927C211.406 394.007 212.491 401.081 214.912 407.742L265.639 389.31L316.367 370.877Z"/>
</mask>
<path d="M316.367 370.877C313.946 364.216 310.237 358.096 305.452 352.868C300.666 347.639 294.898 343.405 288.475 340.406C282.053 337.407 275.103 335.703 268.023 335.39C260.942 335.077 253.868 336.162 247.207 338.582C240.545 341.003 234.426 344.712 229.197 349.497C223.969 354.283 219.735 360.052 216.736 366.474C213.737 372.896 212.032 379.846 211.719 386.927C211.406 394.007 212.491 401.081 214.912 407.742L265.639 389.31L316.367 370.877Z" fill="#FFE1BB" stroke="#1D1E19" stroke-width="9.38656" mask="url(#path-22-inside-9_204_4)"/>
<mask id="path-23-inside-10_204_4" fill="white">
<path d="M307.545 374.082C305.545 368.579 302.481 363.524 298.528 359.205C294.575 354.886 289.809 351.388 284.504 348.91C279.199 346.433 273.458 345.025 267.608 344.766C261.759 344.508 255.916 345.404 250.413 347.403C244.909 349.403 239.854 352.467 235.535 356.42C231.216 360.374 227.718 365.139 225.241 370.444C222.763 375.75 221.355 381.491 221.097 387.34C220.838 393.19 221.734 399.033 223.734 404.536L265.639 389.309L307.545 374.082Z"/>
</mask>
<path d="M307.545 374.082C305.545 368.579 302.481 363.524 298.528 359.205C294.575 354.886 289.809 351.388 284.504 348.91C279.199 346.433 273.458 345.025 267.608 344.766C261.759 344.508 255.916 345.404 250.413 347.403C244.909 349.403 239.854 352.467 235.535 356.42C231.216 360.374 227.718 365.139 225.241 370.444C222.763 375.75 221.355 381.491 221.097 387.34C220.838 393.19 221.734 399.033 223.734 404.536L265.639 389.309L307.545 374.082Z" fill="#FFE1BB" stroke="#1D1E19" stroke-width="9.38656" mask="url(#path-23-inside-10_204_4)"/>
<mask id="path-24-inside-11_204_4" fill="white">
<path d="M298.723 377.288C297.144 372.944 294.725 368.953 291.604 365.543C288.483 362.133 284.721 359.372 280.533 357.416C276.344 355.46 271.812 354.348 267.194 354.144C262.576 353.94 257.963 354.648 253.618 356.226C249.274 357.805 245.283 360.224 241.873 363.345C238.463 366.466 235.702 370.228 233.746 374.416C231.79 378.605 230.678 383.137 230.474 387.755C230.27 392.373 230.978 396.986 232.556 401.331L265.64 389.31L298.723 377.288Z"/>
</mask>
<path d="M298.723 377.288C297.144 372.944 294.725 368.953 291.604 365.543C288.483 362.133 284.721 359.372 280.533 357.416C276.344 355.46 271.812 354.348 267.194 354.144C262.576 353.94 257.963 354.648 253.618 356.226C249.274 357.805 245.283 360.224 241.873 363.345C238.463 366.466 235.702 370.228 233.746 374.416C231.79 378.605 230.678 383.137 230.474 387.755C230.27 392.373 230.978 396.986 232.556 401.331L265.64 389.31L298.723 377.288Z" fill="#FFE1BB" stroke="#1D1E19" stroke-width="9.38656" mask="url(#path-24-inside-11_204_4)"/>
<mask id="path-25-inside-12_204_4" fill="white">
<path d="M289.9 380.494C288.743 377.308 286.969 374.381 284.68 371.88C282.391 369.38 279.632 367.355 276.561 365.921C273.49 364.486 270.166 363.671 266.779 363.521C263.393 363.372 260.01 363.891 256.824 365.048C253.638 366.206 250.711 367.98 248.211 370.269C245.71 372.557 243.685 375.316 242.251 378.388C240.816 381.459 240.001 384.783 239.852 388.169C239.702 391.556 240.221 394.939 241.378 398.125L265.639 389.309L289.9 380.494Z"/>
</mask>
<path d="M289.9 380.494C288.743 377.308 286.969 374.381 284.68 371.88C282.391 369.38 279.632 367.355 276.561 365.921C273.49 364.486 270.166 363.671 266.779 363.521C263.393 363.372 260.01 363.891 256.824 365.048C253.638 366.206 250.711 367.98 248.211 370.269C245.71 372.557 243.685 375.316 242.251 378.388C240.816 381.459 240.001 384.783 239.852 388.169C239.702 391.556 240.221 394.939 241.378 398.125L265.639 389.309L289.9 380.494Z" fill="#FFE1BB" stroke="#1D1E19" stroke-width="9.38656" mask="url(#path-25-inside-12_204_4)"/>
<mask id="path-26-inside-13_204_4" fill="white">
<path d="M444.763 362.552C444.906 353 443.165 343.514 439.642 334.634C436.118 325.755 430.88 317.656 424.226 310.801C417.572 303.946 409.634 298.469 400.863 294.682C392.093 290.895 382.662 288.872 373.11 288.73C363.558 288.588 354.072 290.328 345.192 293.852C336.313 297.376 328.214 302.614 321.359 309.268C314.504 315.921 309.027 323.86 305.24 332.63C301.453 341.401 299.43 350.831 299.288 360.383L372.026 361.468L444.763 362.552Z"/>
</mask>
<path d="M444.763 362.552C444.906 353 443.165 343.514 439.642 334.634C436.118 325.755 430.88 317.656 424.226 310.801C417.572 303.946 409.634 298.469 400.863 294.682C392.093 290.895 382.662 288.872 373.11 288.73C363.558 288.588 354.072 290.328 345.192 293.852C336.313 297.376 328.214 302.614 321.359 309.268C314.504 315.921 309.027 323.86 305.24 332.63C301.453 341.401 299.43 350.831 299.288 360.383L372.026 361.468L444.763 362.552Z" fill="#FFE1BB" stroke="#1D1E19" stroke-width="9.38656" mask="url(#path-26-inside-13_204_4)"/>
<mask id="path-27-inside-14_204_4" fill="white">
<path d="M435.378 362.412C435.502 354.093 433.986 345.83 430.917 338.097C427.848 330.363 423.285 323.309 417.49 317.339C411.695 311.368 404.781 306.598 397.142 303.299C389.503 300.001 381.29 298.24 372.97 298.115C364.651 297.991 356.388 299.507 348.655 302.576C340.921 305.646 333.867 310.208 327.897 316.003C321.926 321.798 317.156 328.712 313.857 336.351C310.559 343.99 308.797 352.204 308.673 360.523L372.026 361.468L435.378 362.412Z"/>
</mask>
<path d="M435.378 362.412C435.502 354.093 433.986 345.83 430.917 338.097C427.848 330.363 423.285 323.309 417.49 317.339C411.695 311.368 404.781 306.598 397.142 303.299C389.503 300.001 381.29 298.24 372.97 298.115C364.651 297.991 356.388 299.507 348.655 302.576C340.921 305.646 333.867 310.208 327.897 316.003C321.926 321.798 317.156 328.712 313.857 336.351C310.559 343.99 308.797 352.204 308.673 360.523L372.026 361.468L435.378 362.412Z" fill="#FFE1BB" stroke="#1D1E19" stroke-width="9.38656" mask="url(#path-27-inside-14_204_4)"/>
<mask id="path-28-inside-15_204_4" fill="white">
<path d="M425.992 362.272C426.098 355.185 424.807 348.147 422.192 341.559C419.578 334.971 415.691 328.962 410.755 323.876C405.818 318.79 399.928 314.727 393.421 311.917C386.914 309.107 379.917 307.607 372.83 307.501C365.743 307.395 358.705 308.687 352.117 311.301C345.529 313.915 339.52 317.802 334.434 322.738C329.348 327.675 325.285 333.565 322.475 340.072C319.665 346.579 318.165 353.576 318.059 360.663L372.026 361.468L425.992 362.272Z"/>
</mask>
<path d="M425.992 362.272C426.098 355.185 424.807 348.147 422.192 341.559C419.578 334.971 415.691 328.962 410.755 323.876C405.818 318.79 399.928 314.727 393.421 311.917C386.914 309.107 379.917 307.607 372.83 307.501C365.743 307.395 358.705 308.687 352.117 311.301C345.529 313.915 339.52 317.802 334.434 322.738C329.348 327.675 325.285 333.565 322.475 340.072C319.665 346.579 318.165 353.576 318.059 360.663L372.026 361.468L425.992 362.272Z" fill="#FFE1BB" stroke="#1D1E19" stroke-width="9.38656" mask="url(#path-28-inside-15_204_4)"/>
<mask id="path-29-inside-16_204_4" fill="white">
<path d="M416.607 362.132C416.694 356.278 415.628 350.463 413.468 345.021C411.308 339.579 408.097 334.615 404.019 330.414C399.941 326.212 395.076 322.855 389.7 320.534C384.325 318.213 378.545 316.974 372.69 316.886C366.836 316.799 361.022 317.866 355.579 320.026C350.137 322.185 345.174 325.396 340.972 329.474C336.771 333.552 333.414 338.418 331.092 343.793C328.771 349.168 327.532 354.948 327.445 360.803L372.026 361.468L416.607 362.132Z"/>
</mask>
<path d="M416.607 362.132C416.694 356.278 415.628 350.463 413.468 345.021C411.308 339.579 408.097 334.615 404.019 330.414C399.941 326.212 395.076 322.855 389.7 320.534C384.325 318.213 378.545 316.974 372.69 316.886C366.836 316.799 361.022 317.866 355.579 320.026C350.137 322.185 345.174 325.396 340.972 329.474C336.771 333.552 333.414 338.418 331.092 343.793C328.771 349.168 327.532 354.948 327.445 360.803L372.026 361.468L416.607 362.132Z" fill="#FFE1BB" stroke="#1D1E19" stroke-width="9.38656" mask="url(#path-29-inside-16_204_4)"/>
<mask id="path-30-inside-17_204_4" fill="white">
<path d="M407.221 361.993C407.29 357.371 406.448 352.781 404.743 348.484C403.038 344.188 400.503 340.269 397.284 336.952C394.064 333.635 390.223 330.985 385.979 329.152C381.736 327.32 377.172 326.341 372.55 326.272C367.929 326.203 363.338 327.046 359.042 328.751C354.745 330.456 350.827 332.99 347.51 336.21C344.193 339.429 341.542 343.271 339.71 347.514C337.878 351.758 336.899 356.321 336.83 360.943L372.026 361.468L407.221 361.993Z"/>
</mask>
<path d="M407.221 361.993C407.29 357.371 406.448 352.781 404.743 348.484C403.038 344.188 400.503 340.269 397.284 336.952C394.064 333.635 390.223 330.985 385.979 329.152C381.736 327.32 377.172 326.341 372.55 326.272C367.929 326.203 363.338 327.046 359.042 328.751C354.745 330.456 350.827 332.99 347.51 336.21C344.193 339.429 341.542 343.271 339.71 347.514C337.878 351.758 336.899 356.321 336.83 360.943L372.026 361.468L407.221 361.993Z" fill="#FFE1BB" stroke="#1D1E19" stroke-width="9.38656" mask="url(#path-30-inside-17_204_4)"/>
<mask id="path-31-inside-18_204_4" fill="white">
<path d="M397.836 361.853C397.886 358.463 397.269 355.097 396.018 351.946C394.768 348.796 392.909 345.922 390.548 343.49C388.187 341.057 385.37 339.114 382.258 337.77C379.146 336.426 375.8 335.708 372.411 335.658C369.021 335.607 365.655 336.225 362.504 337.475C359.353 338.726 356.48 340.584 354.047 342.945C351.615 345.306 349.671 348.123 348.328 351.235C346.984 354.347 346.266 357.694 346.216 361.083L372.026 361.468L397.836 361.853Z"/>
</mask>
<path d="M397.836 361.853C397.886 358.463 397.269 355.097 396.018 351.946C394.768 348.796 392.909 345.922 390.548 343.49C388.187 341.057 385.37 339.114 382.258 337.77C379.146 336.426 375.8 335.708 372.411 335.658C369.021 335.607 365.655 336.225 362.504 337.475C359.353 338.726 356.48 340.584 354.047 342.945C351.615 345.306 349.671 348.123 348.328 351.235C346.984 354.347 346.266 357.694 346.216 361.083L372.026 361.468L397.836 361.853Z" fill="#FFE1BB" stroke="#1D1E19" stroke-width="9.38656" mask="url(#path-31-inside-18_204_4)"/>
<mask id="path-32-inside-19_204_4" fill="white">
<path d="M485.42 392.012C487.348 382.655 487.414 373.011 485.614 363.628C483.815 354.246 480.185 345.311 474.933 337.331C469.68 329.352 462.907 322.485 455 317.123C447.094 311.762 438.208 308.01 428.852 306.082C419.495 304.154 409.851 304.087 400.469 305.887C391.086 307.686 382.151 311.316 374.171 316.569C366.192 321.822 359.325 328.595 353.963 336.501C348.602 344.408 344.85 353.293 342.922 362.649L414.171 377.331L485.42 392.012Z"/>
</mask>
<path d="M485.42 392.012C487.348 382.655 487.414 373.011 485.614 363.628C483.815 354.246 480.185 345.311 474.933 337.331C469.68 329.352 462.907 322.485 455 317.123C447.094 311.762 438.208 308.01 428.852 306.082C419.495 304.154 409.851 304.087 400.469 305.887C391.086 307.686 382.151 311.316 374.171 316.569C366.192 321.822 359.325 328.595 353.963 336.501C348.602 344.408 344.85 353.293 342.922 362.649L414.171 377.331L485.42 392.012Z" fill="#FFE1BB" stroke="#1D1E19" stroke-width="9.38656" mask="url(#path-32-inside-19_204_4)"/>
<mask id="path-33-inside-20_204_4" fill="white">
<path d="M476.226 390.118C477.905 381.968 477.963 373.568 476.396 365.397C474.829 357.225 471.667 349.442 467.092 342.492C462.517 335.543 456.618 329.562 449.732 324.892C442.845 320.222 435.107 316.954 426.957 315.275C418.808 313.596 410.408 313.538 402.236 315.106C394.065 316.673 386.282 319.834 379.332 324.409C372.383 328.984 366.402 334.883 361.732 341.77C357.062 348.656 353.794 356.395 352.115 364.544L414.171 377.331L476.226 390.118Z"/>
</mask>
<path d="M476.226 390.118C477.905 381.968 477.963 373.568 476.396 365.397C474.829 357.225 471.667 349.442 467.092 342.492C462.517 335.543 456.618 329.562 449.732 324.892C442.845 320.222 435.107 316.954 426.957 315.275C418.808 313.596 410.408 313.538 402.236 315.106C394.065 316.673 386.282 319.834 379.332 324.409C372.383 328.984 366.402 334.883 361.732 341.77C357.062 348.656 353.794 356.395 352.115 364.544L414.171 377.331L476.226 390.118Z" fill="#FFE1BB" stroke="#1D1E19" stroke-width="9.38656" mask="url(#path-33-inside-20_204_4)"/>
<mask id="path-34-inside-21_204_4" fill="white">
<path d="M467.033 388.223C468.463 381.281 468.512 374.125 467.177 367.164C465.842 360.203 463.149 353.574 459.252 347.653C455.355 341.733 450.33 336.639 444.463 332.66C438.597 328.682 432.005 325.899 425.063 324.468C418.121 323.038 410.965 322.989 404.005 324.324C397.044 325.659 390.414 328.352 384.494 332.249C378.573 336.146 373.479 341.171 369.501 347.038C365.523 352.904 362.739 359.496 361.308 366.438L414.171 377.33L467.033 388.223Z"/>
</mask>
<path d="M467.033 388.223C468.463 381.281 468.512 374.125 467.177 367.164C465.842 360.203 463.149 353.574 459.252 347.653C455.355 341.733 450.33 336.639 444.463 332.66C438.597 328.682 432.005 325.899 425.063 324.468C418.121 323.038 410.965 322.989 404.005 324.324C397.044 325.659 390.414 328.352 384.494 332.249C378.573 336.146 373.479 341.171 369.501 347.038C365.523 352.904 362.739 359.496 361.308 366.438L414.171 377.33L467.033 388.223Z" fill="#FFE1BB" stroke="#1D1E19" stroke-width="9.38656" mask="url(#path-34-inside-21_204_4)"/>
<mask id="path-35-inside-22_204_4" fill="white">
<path d="M457.839 386.329C459.021 380.594 459.062 374.683 457.959 368.932C456.856 363.182 454.631 357.705 451.412 352.815C448.192 347.924 444.041 343.716 439.195 340.429C434.349 337.143 428.903 334.843 423.169 333.662C417.434 332.48 411.523 332.44 405.773 333.542C400.022 334.645 394.545 336.87 389.655 340.089C384.764 343.309 380.556 347.46 377.269 352.306C373.983 357.152 371.684 362.598 370.502 368.332L414.171 377.33L457.839 386.329Z"/>
</mask>
<path d="M457.839 386.329C459.021 380.594 459.062 374.683 457.959 368.932C456.856 363.182 454.631 357.705 451.412 352.815C448.192 347.924 444.041 343.716 439.195 340.429C434.349 337.143 428.903 334.843 423.169 333.662C417.434 332.48 411.523 332.44 405.773 333.542C400.022 334.645 394.545 336.87 389.655 340.089C384.764 343.309 380.556 347.46 377.269 352.306C373.983 357.152 371.684 362.598 370.502 368.332L414.171 377.33L457.839 386.329Z" fill="#FFE1BB" stroke="#1D1E19" stroke-width="9.38656" mask="url(#path-35-inside-22_204_4)"/>
<mask id="path-36-inside-23_204_4" fill="white">
<path d="M448.646 384.434C449.579 379.907 449.611 375.24 448.74 370.7C447.869 366.16 446.113 361.837 443.571 357.976C441.03 354.115 437.753 350.792 433.927 348.198C430.101 345.603 425.802 343.788 421.274 342.855C416.747 341.922 412.08 341.89 407.541 342.761C403.001 343.631 398.677 345.388 394.816 347.929C390.955 350.471 387.632 353.748 385.038 357.574C382.444 361.4 380.628 365.699 379.695 370.226L414.171 377.33L448.646 384.434Z"/>
</mask>
<path d="M448.646 384.434C449.579 379.907 449.611 375.24 448.74 370.7C447.869 366.16 446.113 361.837 443.571 357.976C441.03 354.115 437.753 350.792 433.927 348.198C430.101 345.603 425.802 343.788 421.274 342.855C416.747 341.922 412.08 341.89 407.541 342.761C403.001 343.631 398.677 345.388 394.816 347.929C390.955 350.471 387.632 353.748 385.038 357.574C382.444 361.4 380.628 365.699 379.695 370.226L414.171 377.33L448.646 384.434Z" fill="#FFE1BB" stroke="#1D1E19" stroke-width="9.38656" mask="url(#path-36-inside-23_204_4)"/>
<mask id="path-37-inside-24_204_4" fill="white">
<path d="M439.453 382.54C440.137 379.22 440.16 375.798 439.522 372.469C438.883 369.14 437.595 365.969 435.731 363.137C433.867 360.306 431.464 357.869 428.659 355.967C425.853 354.064 422.7 352.733 419.38 352.049C416.06 351.365 412.638 351.341 409.309 351.98C405.979 352.618 402.809 353.906 399.977 355.77C397.146 357.634 394.709 360.037 392.807 362.843C390.904 365.648 389.573 368.801 388.889 372.121L414.171 377.331L439.453 382.54Z"/>
</mask>
<path d="M439.453 382.54C440.137 379.22 440.16 375.798 439.522 372.469C438.883 369.14 437.595 365.969 435.731 363.137C433.867 360.306 431.464 357.869 428.659 355.967C425.853 354.064 422.7 352.733 419.38 352.049C416.06 351.365 412.638 351.341 409.309 351.98C405.979 352.618 402.809 353.906 399.977 355.77C397.146 357.634 394.709 360.037 392.807 362.843C390.904 365.648 389.573 368.801 388.889 372.121L414.171 377.331L439.453 382.54Z" fill="#FFE1BB" stroke="#1D1E19" stroke-width="9.38656" mask="url(#path-37-inside-24_204_4)"/>
<path d="M282.246 375.879L184.157 355.698C184.157 355.698 178.525 409.961 222.642 417.18C266.759 424.399 282.246 375.879 282.246 375.879Z" fill="#F0E6D1" stroke="#1D1E19" stroke-width="4.69328"/>
<path d="M275.942 374.699L190.431 357.106C190.431 357.106 185.522 404.41 223.981 410.703C262.44 416.997 275.942 374.699 275.942 374.699Z" fill="#8AC636" stroke="#1D1E19" stroke-width="4.69328"/>
<path d="M190.258 374.001L231.09 366.961M231.09 366.961L200.114 398.406M231.09 366.961L223.111 408.732M231.09 366.961L247.985 406.854M231.09 366.961L267.697 389.958" stroke="#1D1E19" stroke-width="4.69328"/>
<path d="M237.256 166.842C236.133 148.307 249.785 121.841 249.785 121.841C257.398 104.841 266.484 115.341 263.526 121.841C271.947 103.341 280.154 115.841 277.266 121.841C285.688 104.341 293.031 116.341 290.199 121.841C297.408 107.841 305.087 115.841 302.323 121.841C302.323 121.841 288.672 148.307 289.795 166.842C291.159 189.364 313.116 192.913 315.256 215.343C317.233 236.073 299.402 245.785 302.323 266.344C305.083 285.771 322.501 288.147 326.168 307.344C330.455 329.792 309.61 342.862 315.256 364.845C319.626 381.861 339.504 399.346 339.504 399.346H327.38H314.447H300.707H286.966C286.966 399.346 267.088 381.861 262.717 364.845C257.071 342.862 277.917 329.792 273.629 307.344C269.962 288.147 252.545 285.771 249.785 266.344C246.864 245.785 264.695 236.073 262.717 215.343C260.578 192.913 238.621 189.364 237.256 166.842Z" fill="#FFE1BB"/>
<path d="M263.526 121.841C263.526 121.841 249.874 148.307 250.997 166.842C252.362 189.364 274.319 192.913 276.458 215.343C278.436 236.073 260.605 245.785 263.526 266.344C266.286 285.771 283.703 288.147 287.37 307.344C291.658 329.792 270.812 342.862 276.458 364.845C280.829 381.861 300.707 399.346 300.707 399.346M263.526 121.841C271.947 103.341 280.154 115.841 277.266 121.841M263.526 121.841C266.484 115.341 257.398 104.841 249.785 121.841C249.785 121.841 236.133 148.307 237.256 166.842C238.621 189.364 260.578 192.913 262.717 215.343C264.695 236.073 246.864 245.785 249.785 266.344C252.545 285.771 269.962 288.147 273.629 307.344C277.917 329.792 257.071 342.862 262.717 364.845C267.088 381.861 286.966 399.346 286.966 399.346H339.504C339.504 399.346 319.626 381.861 315.256 364.845C309.61 342.862 330.455 329.792 326.168 307.344C322.501 288.147 305.083 285.771 302.323 266.344C299.402 245.785 317.233 236.073 315.256 215.343C313.116 192.913 291.159 189.364 289.795 166.842C288.672 148.307 302.323 121.841 302.323 121.841C305.087 115.841 297.408 107.841 290.199 121.841M277.266 121.841C277.266 121.841 263.615 148.307 264.738 166.842C266.102 189.364 288.059 192.913 290.199 215.343C292.176 236.073 274.345 245.785 277.266 266.344C280.027 285.771 297.444 288.147 301.111 307.344C305.399 329.792 284.553 342.862 290.199 364.845C294.569 381.861 314.447 399.346 314.447 399.346M277.266 121.841C285.688 104.341 293.031 116.341 290.199 121.841M290.199 121.841C290.199 121.841 276.548 148.307 277.671 166.842C279.035 189.364 300.992 192.913 303.131 215.343C305.109 236.073 287.278 245.785 290.199 266.344C292.959 285.771 310.376 288.147 314.043 307.344C318.331 329.792 297.485 342.862 303.131 364.845C307.502 381.861 327.38 399.346 327.38 399.346" stroke="#1D1E19" stroke-width="4.69328"/>
<path d="M512.684 96.5528C520.069 93.5324 514.592 77.8766 503.795 81.9637L224.119 210.502C217.621 214.084 222.927 222.174 227.416 219.802L512.684 96.5528Z" fill="#895E3A" stroke="#1D1E19" stroke-width="4.69328"/>
<mask id="path-44-inside-25_204_4" fill="white">
<path d="M401.761 407.343C399.137 398.157 394.729 389.578 388.79 382.096C382.851 374.614 375.496 368.374 367.145 363.734C358.794 359.094 349.612 356.145 340.121 355.054C330.63 353.963 321.018 354.752 311.832 357.375C302.646 359.999 294.068 364.407 286.585 370.346C279.103 376.286 272.863 383.64 268.224 391.991C263.584 400.342 260.634 409.525 259.543 419.015C258.452 428.506 259.241 438.118 261.865 447.304L331.813 427.324L401.761 407.343Z"/>
</mask>
<path d="M401.761 407.343C399.137 398.157 394.729 389.578 388.79 382.096C382.851 374.614 375.496 368.374 367.145 363.734C358.794 359.094 349.612 356.145 340.121 355.054C330.63 353.963 321.018 354.752 311.832 357.375C302.646 359.999 294.068 364.407 286.585 370.346C279.103 376.286 272.863 383.64 268.224 391.991C263.584 400.342 260.634 409.525 259.543 419.015C258.452 428.506 259.241 438.118 261.865 447.304L331.813 427.324L401.761 407.343Z" fill="#FFE1BB" stroke="#1D1E19" stroke-width="9.38656" mask="url(#path-44-inside-25_204_4)"/>
<mask id="path-45-inside-26_204_4" fill="white">
<path d="M392.735 409.921C390.45 401.921 386.611 394.449 381.438 387.932C376.265 381.415 369.859 375.98 362.586 371.939C355.313 367.898 347.315 365.329 339.049 364.379C330.783 363.428 322.411 364.116 314.41 366.401C306.41 368.686 298.938 372.525 292.421 377.698C285.904 382.871 280.47 389.277 276.429 396.55C272.387 403.823 269.818 411.821 268.868 420.087C267.918 428.353 268.605 436.725 270.89 444.726L331.813 427.323L392.735 409.921Z"/>
</mask>
<path d="M392.735 409.921C390.45 401.921 386.611 394.449 381.438 387.932C376.265 381.415 369.859 375.98 362.586 371.939C355.313 367.898 347.315 365.329 339.049 364.379C330.783 363.428 322.411 364.116 314.41 366.401C306.41 368.686 298.938 372.525 292.421 377.698C285.904 382.871 280.47 389.277 276.429 396.55C272.387 403.823 269.818 411.821 268.868 420.087C267.918 428.353 268.605 436.725 270.89 444.726L331.813 427.323L392.735 409.921Z" fill="#FFE1BB" stroke="#1D1E19" stroke-width="9.38656" mask="url(#path-45-inside-26_204_4)"/>
<mask id="path-46-inside-27_204_4" fill="white">
<path d="M383.71 412.499C381.763 405.684 378.493 399.319 374.086 393.767C369.68 388.216 364.223 383.587 358.027 380.144C351.831 376.702 345.018 374.513 337.977 373.704C330.936 372.894 323.804 373.479 316.988 375.426C310.173 377.373 303.808 380.643 298.257 385.05C292.705 389.456 288.076 394.913 284.634 401.109C281.191 407.304 279.003 414.118 278.193 421.159C277.384 428.2 277.969 435.332 279.916 442.147L331.813 427.323L383.71 412.499Z"/>
</mask>
<path d="M383.71 412.499C381.763 405.684 378.493 399.319 374.086 393.767C369.68 388.216 364.223 383.587 358.027 380.144C351.831 376.702 345.018 374.513 337.977 373.704C330.936 372.894 323.804 373.479 316.988 375.426C310.173 377.373 303.808 380.643 298.257 385.05C292.705 389.456 288.076 394.913 284.634 401.109C281.191 407.304 279.003 414.118 278.193 421.159C277.384 428.2 277.969 435.332 279.916 442.147L331.813 427.323L383.71 412.499Z" fill="#FFE1BB" stroke="#1D1E19" stroke-width="9.38656" mask="url(#path-46-inside-27_204_4)"/>
<mask id="path-47-inside-28_204_4" fill="white">
<path d="M374.684 415.077C373.076 409.447 370.375 404.189 366.734 399.603C363.094 395.017 358.586 391.193 353.468 388.349C348.35 385.505 342.722 383.697 336.905 383.029C331.088 382.36 325.196 382.843 319.567 384.452C313.937 386.06 308.679 388.761 304.093 392.401C299.507 396.042 295.682 400.55 292.839 405.668C289.995 410.786 288.187 416.414 287.518 422.231C286.85 428.048 287.333 433.939 288.941 439.569L331.813 427.323L374.684 415.077Z"/>
</mask>
<path d="M374.684 415.077C373.076 409.447 370.375 404.189 366.734 399.603C363.094 395.017 358.586 391.193 353.468 388.349C348.35 385.505 342.722 383.697 336.905 383.029C331.088 382.36 325.196 382.843 319.567 384.452C313.937 386.06 308.679 388.761 304.093 392.401C299.507 396.042 295.682 400.55 292.839 405.668C289.995 410.786 288.187 416.414 287.518 422.231C286.85 428.048 287.333 433.939 288.941 439.569L331.813 427.323L374.684 415.077Z" fill="#FFE1BB" stroke="#1D1E19" stroke-width="9.38656" mask="url(#path-47-inside-28_204_4)"/>
<mask id="path-48-inside-29_204_4" fill="white">
<path d="M365.659 417.655C364.389 413.21 362.256 409.059 359.382 405.439C356.508 401.818 352.95 398.799 348.909 396.554C344.868 394.309 340.425 392.882 335.833 392.354C331.241 391.826 326.589 392.207 322.145 393.477C317.7 394.747 313.549 396.879 309.928 399.753C306.308 402.627 303.289 406.186 301.044 410.227C298.799 414.267 297.371 418.71 296.843 423.303C296.315 427.895 296.697 432.546 297.967 436.991L331.813 427.323L365.659 417.655Z"/>
</mask>
<path d="M365.659 417.655C364.389 413.21 362.256 409.059 359.382 405.439C356.508 401.818 352.95 398.799 348.909 396.554C344.868 394.309 340.425 392.882 335.833 392.354C331.241 391.826 326.589 392.207 322.145 393.477C317.7 394.747 313.549 396.879 309.928 399.753C306.308 402.627 303.289 406.186 301.044 410.227C298.799 414.267 297.371 418.71 296.843 423.303C296.315 427.895 296.697 432.546 297.967 436.991L331.813 427.323L365.659 417.655Z" fill="#FFE1BB" stroke="#1D1E19" stroke-width="9.38656" mask="url(#path-48-inside-29_204_4)"/>
<mask id="path-49-inside-30_204_4" fill="white">
<path d="M356.633 420.233C355.702 416.974 354.138 413.93 352.03 411.275C349.923 408.62 347.313 406.406 344.35 404.759C341.387 403.113 338.128 402.066 334.761 401.679C331.393 401.292 327.982 401.572 324.723 402.503C321.463 403.434 318.419 404.998 315.764 407.105C313.109 409.213 310.895 411.823 309.249 414.786C307.602 417.749 306.556 421.007 306.169 424.375C305.781 427.743 306.061 431.154 306.992 434.413L331.813 427.323L356.633 420.233Z"/>
</mask>
<path d="M356.633 420.233C355.702 416.974 354.138 413.93 352.03 411.275C349.923 408.62 347.313 406.406 344.35 404.759C341.387 403.113 338.128 402.066 334.761 401.679C331.393 401.292 327.982 401.572 324.723 402.503C321.463 403.434 318.419 404.998 315.764 407.105C313.109 409.213 310.895 411.823 309.249 414.786C307.602 417.749 306.556 421.007 306.169 424.375C305.781 427.743 306.061 431.154 306.992 434.413L331.813 427.323L356.633 420.233Z" fill="#FFE1BB" stroke="#1D1E19" stroke-width="9.38656" mask="url(#path-49-inside-30_204_4)"/>
<path d="M432.02 362.659C432.02 362.659 440.949 379.695 434.783 387.02C430.784 391.77 420.022 392.93 420.022 392.93C420.022 392.93 420.287 409.952 412.986 415.761C406.409 420.994 391.67 418.736 391.67 418.736L388.932 437.524L375.254 433.9L380.36 416.113C380.36 416.113 364.858 406.361 363.648 399.499C362.409 392.479 368.983 382.041 368.983 382.041C368.983 382.041 357.719 373.475 357.909 365.801C358.088 358.58 368.446 350.6 368.446 350.6C368.446 350.6 363.206 340.556 364.881 334.232C366.673 327.467 377.335 321.346 377.335 321.346C377.335 321.346 372.805 306.923 378.406 301.613C382.978 297.28 394.321 298.995 394.321 298.995C394.321 298.995 400.454 277.716 416.557 281.717C430.699 285.231 427.727 303.588 427.727 303.588C427.727 303.588 437.457 307.008 440.08 312.296C443.84 319.877 433.862 333.055 433.862 333.055C433.862 333.055 441.535 342.507 440.712 349.367C439.973 355.525 432.02 362.659 432.02 362.659Z" fill="#5DC27C"/>
<path d="M380.36 416.113L406.874 319.434L391.67 418.736M380.36 416.113C380.36 416.113 364.858 406.361 363.648 399.499C362.409 392.479 368.983 382.041 368.983 382.041C368.983 382.041 357.719 373.475 357.909 365.801C358.088 358.58 368.446 350.6 368.446 350.6C368.446 350.6 363.206 340.556 364.881 334.232C366.673 327.467 377.335 321.346 377.335 321.346C377.335 321.346 372.805 306.923 378.406 301.613C382.978 297.28 394.321 298.995 394.321 298.995C394.321 298.995 400.454 277.716 416.557 281.717C430.699 285.231 427.727 303.588 427.727 303.588C427.727 303.588 437.457 307.008 440.08 312.296C443.84 319.877 433.862 333.055 433.862 333.055C433.862 333.055 441.535 342.507 440.712 349.367C439.973 355.525 432.02 362.659 432.02 362.659C432.02 362.659 440.949 379.695 434.783 387.02C430.784 391.77 420.022 392.93 420.022 392.93C420.022 392.93 420.287 409.952 412.986 415.761C406.409 420.994 391.67 418.736 391.67 418.736M380.36 416.113L375.254 433.9L388.932 437.524L391.67 418.736" stroke="#1D1E19" stroke-width="4.69328"/>
<path d="M138.163 423.282C196.829 476.315 480.772 381.981 480.772 312.051C499.862 400.187 469.916 469.061 419.759 508.541L423.045 522.31C387.376 557.228 326.336 561.264 300.275 558.917L297.265 545.018C236.523 539.697 175.709 508.541 138.163 423.282Z" fill="#F57B45"/>
<path d="M297.265 545.017C236.523 539.697 175.709 508.541 138.163 423.282C196.829 476.315 480.772 381.981 480.772 312.051C499.862 400.187 469.916 469.061 419.759 508.541M297.265 545.017L300.275 558.917C326.336 561.264 387.376 557.228 423.045 522.31L419.759 508.541M297.265 545.017C341.404 548.884 385.34 535.633 419.759 508.541" stroke="#1D1E19" stroke-width="4.69328"/>
</g>
<defs>
<clipPath id="clip0_204_4">
<rect width="587" height="606" fill="white"/>
</clipPath>
</defs>
</svg>
