<svg width="423" height="374" viewBox="0 0 423 374" fill="none" xmlns="http://www.w3.org/2000/svg">
<g clip-path="url(#clip0_729_31)">
<rect width="423" height="374" fill="#66AEF4"/>
<path d="M532.951 229.161C532.951 262.432 527.714 295.495 517.433 327.137L215.893 229.161H532.951Z" fill="#B8E5F8" stroke="#1D1E19" stroke-width="3.5"/>
<path d="M472.398 415.523C452.842 442.44 429.171 466.11 402.255 485.666L215.893 229.161L472.398 415.523Z" fill="#B8E5F8" stroke="#1D1E19" stroke-width="3.5"/>
<path d="M313.869 530.701C282.227 540.982 249.163 546.219 215.893 546.219L215.893 229.161L313.869 530.701Z" fill="#B8E5F8" stroke="#1D1E19" stroke-width="3.5"/>
<path d="M117.916 530.701C86.274 520.42 56.4471 505.222 29.5305 485.666L215.893 229.161L117.916 530.701Z" fill="#B8E5F8" stroke="#1D1E19" stroke-width="3.5"/>
<path d="M-40.6128 415.523C-60.1688 388.606 -75.3664 358.78 -85.6476 327.137L215.893 229.161L-40.6128 415.523Z" fill="#B8E5F8" stroke="#1D1E19" stroke-width="3.5"/>
<path d="M-101.166 229.161C-101.166 195.89 -95.9288 162.827 -85.6476 131.184L215.893 229.161L-101.166 229.161Z" fill="#B8E5F8" stroke="#1D1E19" stroke-width="3.5"/>
<path d="M-40.6128 42.7987C-21.0567 15.8821 2.61403 -7.78865 29.5306 -27.3447L215.893 229.161L-40.6128 42.7987Z" fill="#B8E5F8" stroke="#1D1E19" stroke-width="3.5"/>
<path d="M117.916 -72.3794C149.559 -82.6606 182.622 -87.8974 215.893 -87.8974L215.893 229.161L117.916 -72.3794Z" fill="#B8E5F8" stroke="#1D1E19" stroke-width="3.5"/>
<path d="M313.869 -72.3794C345.511 -62.0982 375.338 -46.9006 402.255 -27.3446L215.893 229.161L313.869 -72.3794Z" fill="#B8E5F8" stroke="#1D1E19" stroke-width="3.5"/>
<path d="M472.398 42.7988C491.954 69.7154 507.152 99.5423 517.433 131.185L215.893 229.161L472.398 42.7988Z" fill="#B8E5F8" stroke="#1D1E19" stroke-width="3.5"/>
<path d="M327.635 19.8108C332.34 17.3012 327.635 7.26375 320.734 10.7143L143.508 115.167C139.431 117.99 143.508 123.009 146.331 121.127L327.635 19.8108Z" fill="#895E3A" stroke="#1D1E19" stroke-width="3.5"/>
<path d="M93.0068 266.985C96.7709 213.661 271.801 158.768 321.988 192.644C334.747 251.55 314.733 297.582 281.211 323.968L283.406 333.17C259.567 356.507 218.772 359.205 201.354 357.637L199.342 348.347C158.746 344.791 118.101 323.968 93.0068 266.985Z" fill="#F57B45"/>
<path d="M93.0068 266.985C132.216 302.43 321.988 239.382 321.988 192.644M93.0068 266.985C96.7709 213.661 271.801 158.768 321.988 192.644M93.0068 266.985C118.101 323.968 158.746 344.791 199.342 348.347M321.988 192.644C334.747 251.55 314.733 297.582 281.211 323.968M199.342 348.347L201.354 357.637C218.772 359.205 259.567 356.507 283.406 333.17L281.211 323.968M199.342 348.347C228.842 350.931 258.207 342.075 281.211 323.968" stroke="#1D1E19" stroke-width="3.5"/>
<mask id="path-14-inside-1_729_31" fill="white">
<path d="M191.957 288.414C192.729 282.076 192.244 275.648 190.531 269.498C188.818 263.347 185.911 257.594 181.975 252.567C178.039 247.54 173.151 243.337 167.59 240.199C162.03 237.061 155.906 235.049 149.568 234.277C143.23 233.506 136.802 233.99 130.651 235.703C124.5 237.416 118.747 240.323 113.72 244.26C108.693 248.196 104.491 253.084 101.352 258.644C98.2143 264.204 96.2021 270.328 95.4307 276.666L143.694 282.54L191.957 288.414Z"/>
</mask>
<path d="M191.957 288.414C192.729 282.076 192.244 275.648 190.531 269.498C188.818 263.347 185.911 257.594 181.975 252.567C178.039 247.54 173.151 243.337 167.59 240.199C162.03 237.061 155.906 235.049 149.568 234.277C143.23 233.506 136.802 233.99 130.651 235.703C124.5 237.416 118.747 240.323 113.72 244.26C108.693 248.196 104.491 253.084 101.352 258.644C98.2143 264.204 96.2021 270.328 95.4307 276.666L143.694 282.54L191.957 288.414Z" fill="#FFE1BB" stroke="#1D1E19" stroke-width="7" mask="url(#path-14-inside-1_729_31)"/>
<mask id="path-15-inside-2_729_31" fill="white">
<path d="M185.729 287.656C186.401 282.136 185.979 276.538 184.487 271.181C182.995 265.823 180.463 260.813 177.034 256.434C173.606 252.056 169.349 248.395 164.506 245.662C159.663 242.929 154.329 241.176 148.809 240.505C143.289 239.833 137.69 240.255 132.333 241.747C126.976 243.238 121.965 245.771 117.587 249.199C113.209 252.627 109.548 256.884 106.815 261.727C104.082 266.57 102.329 271.904 101.657 277.424L143.693 282.54L185.729 287.656Z"/>
</mask>
<path d="M185.729 287.656C186.401 282.136 185.979 276.538 184.487 271.181C182.995 265.823 180.463 260.813 177.034 256.434C173.606 252.056 169.349 248.395 164.506 245.662C159.663 242.929 154.329 241.176 148.809 240.505C143.289 239.833 137.69 240.255 132.333 241.747C126.976 243.238 121.965 245.771 117.587 249.199C113.209 252.627 109.548 256.884 106.815 261.727C104.082 266.57 102.329 271.904 101.657 277.424L143.693 282.54L185.729 287.656Z" fill="#FFE1BB" stroke="#1D1E19" stroke-width="7" mask="url(#path-15-inside-2_729_31)"/>
<mask id="path-16-inside-3_729_31" fill="white">
<path d="M179.501 286.899C180.073 282.196 179.714 277.427 178.443 272.864C177.172 268.3 175.015 264.032 172.095 260.302C169.174 256.572 165.548 253.454 161.422 251.126C157.297 248.798 152.753 247.305 148.051 246.733C143.348 246.16 138.579 246.52 134.016 247.791C129.452 249.061 125.184 251.218 121.454 254.139C117.724 257.059 114.606 260.686 112.278 264.811C109.95 268.937 108.457 273.48 107.885 278.183L143.693 282.541L179.501 286.899Z"/>
</mask>
<path d="M179.501 286.899C180.073 282.196 179.714 277.427 178.443 272.864C177.172 268.3 175.015 264.032 172.095 260.302C169.174 256.572 165.548 253.454 161.422 251.126C157.297 248.798 152.753 247.305 148.051 246.733C143.348 246.16 138.579 246.52 134.016 247.791C129.452 249.061 125.184 251.218 121.454 254.139C117.724 257.059 114.606 260.686 112.278 264.811C109.95 268.937 108.457 273.48 107.885 278.183L143.693 282.541L179.501 286.899Z" fill="#FFE1BB" stroke="#1D1E19" stroke-width="7" mask="url(#path-16-inside-3_729_31)"/>
<mask id="path-17-inside-4_729_31" fill="white">
<path d="M173.274 286.141C173.746 282.256 173.449 278.317 172.4 274.547C171.35 270.777 169.568 267.251 167.155 264.17C164.743 261.088 161.747 258.513 158.339 256.589C154.931 254.666 151.178 253.433 147.293 252.96C143.408 252.487 139.469 252.784 135.699 253.834C131.929 254.884 128.403 256.666 125.322 259.078C122.241 261.491 119.665 264.486 117.742 267.894C115.818 271.302 114.585 275.056 114.112 278.94L143.693 282.541L173.274 286.141Z"/>
</mask>
<path d="M173.274 286.141C173.746 282.256 173.449 278.317 172.4 274.547C171.35 270.777 169.568 267.251 167.155 264.17C164.743 261.088 161.747 258.513 158.339 256.589C154.931 254.666 151.178 253.433 147.293 252.96C143.408 252.487 139.469 252.784 135.699 253.834C131.929 254.884 128.403 256.666 125.322 259.078C122.241 261.491 119.665 264.486 117.742 267.894C115.818 271.302 114.585 275.056 114.112 278.94L143.693 282.541L173.274 286.141Z" fill="#FFE1BB" stroke="#1D1E19" stroke-width="7" mask="url(#path-17-inside-4_729_31)"/>
<mask id="path-18-inside-5_729_31" fill="white">
<path d="M167.047 285.383C167.42 282.316 167.186 279.206 166.357 276.23C165.528 273.253 164.122 270.47 162.217 268.037C160.312 265.605 157.947 263.571 155.257 262.053C152.566 260.534 149.603 259.561 146.536 259.187C143.469 258.814 140.359 259.049 137.383 259.877C134.407 260.706 131.623 262.113 129.191 264.018C126.758 265.922 124.725 268.287 123.206 270.978C121.688 273.668 120.714 276.632 120.341 279.698L143.694 282.541L167.047 285.383Z"/>
</mask>
<path d="M167.047 285.383C167.42 282.316 167.186 279.206 166.357 276.23C165.528 273.253 164.122 270.47 162.217 268.037C160.312 265.605 157.947 263.571 155.257 262.053C152.566 260.534 149.603 259.561 146.536 259.187C143.469 258.814 140.359 259.049 137.383 259.877C134.407 260.706 131.623 262.113 129.191 264.018C126.758 265.922 124.725 268.287 123.206 270.978C121.688 273.668 120.714 276.632 120.341 279.698L143.694 282.541L167.047 285.383Z" fill="#FFE1BB" stroke="#1D1E19" stroke-width="7" mask="url(#path-18-inside-5_729_31)"/>
<mask id="path-19-inside-6_729_31" fill="white">
<path d="M160.819 284.625C161.093 282.376 160.921 280.095 160.313 277.913C159.706 275.73 158.674 273.689 157.277 271.905C155.88 270.121 154.146 268.63 152.173 267.516C150.2 266.403 148.027 265.689 145.778 265.415C143.529 265.141 141.248 265.313 139.066 265.921C136.883 266.529 134.842 267.56 133.058 268.957C131.274 270.354 129.783 272.088 128.669 274.061C127.556 276.034 126.842 278.207 126.568 280.456L143.694 282.541L160.819 284.625Z"/>
</mask>
<path d="M160.819 284.625C161.093 282.376 160.921 280.095 160.313 277.913C159.706 275.73 158.674 273.689 157.277 271.905C155.88 270.121 154.146 268.63 152.173 267.516C150.2 266.403 148.027 265.689 145.778 265.415C143.529 265.141 141.248 265.313 139.066 265.921C136.883 266.529 134.842 267.56 133.058 268.957C131.274 270.354 129.783 272.088 128.669 274.061C127.556 276.034 126.842 278.207 126.568 280.456L143.694 282.541L160.819 284.625Z" fill="#FFE1BB" stroke="#1D1E19" stroke-width="7" mask="url(#path-19-inside-6_729_31)"/>
<mask id="path-20-inside-7_729_31" fill="white">
<path d="M223.902 227.677C221.721 221.676 218.38 216.163 214.069 211.454C209.758 206.744 204.562 202.93 198.777 200.228C192.992 197.527 186.731 195.991 180.353 195.709C173.974 195.427 167.602 196.405 161.601 198.585C155.601 200.766 150.088 204.107 145.378 208.418C140.669 212.729 136.854 217.925 134.153 223.71C131.451 229.495 129.916 235.756 129.634 242.135C129.352 248.513 130.329 254.885 132.51 260.886L178.206 244.281L223.902 227.677Z"/>
</mask>
<path d="M223.902 227.677C221.721 221.676 218.38 216.163 214.069 211.454C209.758 206.744 204.562 202.93 198.777 200.228C192.992 197.527 186.731 195.991 180.353 195.709C173.974 195.427 167.602 196.405 161.601 198.585C155.601 200.766 150.088 204.107 145.378 208.418C140.669 212.729 136.854 217.925 134.153 223.71C131.451 229.495 129.916 235.756 129.634 242.135C129.352 248.513 130.329 254.885 132.51 260.886L178.206 244.281L223.902 227.677Z" fill="#FFE1BB" stroke="#1D1E19" stroke-width="7" mask="url(#path-20-inside-7_729_31)"/>
<mask id="path-21-inside-8_729_31" fill="white">
<path d="M218.006 229.82C216.107 224.593 213.197 219.792 209.442 215.69C205.687 211.588 201.161 208.265 196.123 205.913C191.084 203.56 185.631 202.222 180.076 201.977C174.52 201.731 168.971 202.582 163.744 204.482C158.518 206.381 153.716 209.291 149.614 213.045C145.512 216.8 142.19 221.326 139.837 226.365C137.484 231.403 136.147 236.856 135.901 242.412C135.656 247.967 136.507 253.517 138.406 258.743L178.206 244.281L218.006 229.82Z"/>
</mask>
<path d="M218.006 229.82C216.107 224.593 213.197 219.792 209.442 215.69C205.687 211.588 201.161 208.265 196.123 205.913C191.084 203.56 185.631 202.222 180.076 201.977C174.52 201.731 168.971 202.582 163.744 204.482C158.518 206.381 153.716 209.291 149.614 213.045C145.512 216.8 142.19 221.326 139.837 226.365C137.484 231.403 136.147 236.856 135.901 242.412C135.656 247.967 136.507 253.517 138.406 258.743L178.206 244.281L218.006 229.82Z" fill="#FFE1BB" stroke="#1D1E19" stroke-width="7" mask="url(#path-21-inside-8_729_31)"/>
<mask id="path-22-inside-9_729_31" fill="white">
<path d="M212.109 231.961C210.491 227.509 208.012 223.419 204.814 219.925C201.615 216.431 197.76 213.601 193.468 211.596C189.176 209.592 184.531 208.453 179.798 208.244C175.066 208.034 170.338 208.759 165.886 210.377C161.434 211.995 157.344 214.474 153.849 217.672C150.355 220.871 147.525 224.726 145.521 229.018C143.517 233.311 142.377 237.956 142.168 242.688C141.959 247.42 142.684 252.148 144.302 256.6L178.205 244.281L212.109 231.961Z"/>
</mask>
<path d="M212.109 231.961C210.491 227.509 208.012 223.419 204.814 219.925C201.615 216.431 197.76 213.601 193.468 211.596C189.176 209.592 184.531 208.453 179.798 208.244C175.066 208.034 170.338 208.759 165.886 210.377C161.434 211.995 157.344 214.474 153.849 217.672C150.355 220.871 147.525 224.726 145.521 229.018C143.517 233.311 142.377 237.956 142.168 242.688C141.959 247.42 142.684 252.148 144.302 256.6L178.205 244.281L212.109 231.961Z" fill="#FFE1BB" stroke="#1D1E19" stroke-width="7" mask="url(#path-22-inside-9_729_31)"/>
<mask id="path-23-inside-10_729_31" fill="white">
<path d="M206.213 234.103C204.877 230.425 202.829 227.047 200.187 224.16C197.544 221.273 194.359 218.936 190.814 217.28C187.268 215.624 183.431 214.683 179.521 214.51C175.612 214.337 171.707 214.936 168.029 216.273C164.351 217.609 160.972 219.657 158.086 222.299C155.199 224.941 152.861 228.126 151.205 231.672C149.55 235.218 148.609 239.055 148.436 242.964C148.263 246.874 148.862 250.779 150.198 254.457L178.206 244.28L206.213 234.103Z"/>
</mask>
<path d="M206.213 234.103C204.877 230.425 202.829 227.047 200.187 224.16C197.544 221.273 194.359 218.936 190.814 217.28C187.268 215.624 183.431 214.683 179.521 214.51C175.612 214.337 171.707 214.936 168.029 216.273C164.351 217.609 160.972 219.657 158.086 222.299C155.199 224.941 152.861 228.126 151.205 231.672C149.55 235.218 148.609 239.055 148.436 242.964C148.263 246.874 148.862 250.779 150.198 254.457L178.206 244.28L206.213 234.103Z" fill="#FFE1BB" stroke="#1D1E19" stroke-width="7" mask="url(#path-23-inside-10_729_31)"/>
<mask id="path-24-inside-11_729_31" fill="white">
<path d="M200.316 236.247C199.261 233.343 197.645 230.675 195.559 228.397C193.473 226.118 190.958 224.272 188.159 222.965C185.36 221.658 182.331 220.915 179.244 220.778C176.158 220.642 173.075 221.115 170.171 222.17C167.267 223.225 164.6 224.842 162.321 226.928C160.042 229.013 158.197 231.528 156.889 234.327C155.582 237.126 154.839 240.156 154.703 243.242C154.566 246.328 155.039 249.412 156.094 252.315L178.205 244.281L200.316 236.247Z"/>
</mask>
<path d="M200.316 236.247C199.261 233.343 197.645 230.675 195.559 228.397C193.473 226.118 190.958 224.272 188.159 222.965C185.36 221.658 182.331 220.915 179.244 220.778C176.158 220.642 173.075 221.115 170.171 222.17C167.267 223.225 164.6 224.842 162.321 226.928C160.042 229.013 158.197 231.528 156.889 234.327C155.582 237.126 154.839 240.156 154.703 243.242C154.566 246.328 155.039 249.412 156.094 252.315L178.205 244.281L200.316 236.247Z" fill="#FFE1BB" stroke="#1D1E19" stroke-width="7" mask="url(#path-24-inside-11_729_31)"/>
<mask id="path-25-inside-12_729_31" fill="white">
<path d="M194.42 238.389C193.647 236.259 192.461 234.303 190.932 232.632C189.402 230.961 187.558 229.607 185.505 228.649C183.452 227.69 181.231 227.145 178.968 227.045C176.704 226.945 174.443 227.292 172.314 228.066C170.185 228.839 168.228 230.025 166.557 231.555C164.886 233.084 163.533 234.928 162.574 236.981C161.615 239.034 161.071 241.255 160.971 243.519C160.87 245.782 161.217 248.043 161.991 250.172L178.206 244.28L194.42 238.389Z"/>
</mask>
<path d="M194.42 238.389C193.647 236.259 192.461 234.303 190.932 232.632C189.402 230.961 187.558 229.607 185.505 228.649C183.452 227.69 181.231 227.145 178.968 227.045C176.704 226.945 174.443 227.292 172.314 228.066C170.185 228.839 168.228 230.025 166.557 231.555C164.886 233.084 163.533 234.928 162.574 236.981C161.615 239.034 161.071 241.255 160.971 243.519C160.87 245.782 161.217 248.043 161.991 250.172L178.206 244.28L194.42 238.389Z" fill="#FFE1BB" stroke="#1D1E19" stroke-width="7" mask="url(#path-25-inside-12_729_31)"/>
<mask id="path-26-inside-13_729_31" fill="white">
<path d="M297.923 226.398C298.018 220.014 296.855 213.673 294.5 207.739C292.145 201.804 288.644 196.392 284.197 191.81C279.75 187.229 274.444 183.568 268.582 181.037C262.721 178.506 256.418 177.154 250.034 177.059C243.65 176.964 237.309 178.127 231.375 180.482C225.44 182.837 220.028 186.338 215.446 190.785C210.865 195.232 207.204 200.538 204.673 206.399C202.142 212.261 200.79 218.564 200.695 224.948L249.309 225.673L297.923 226.398Z"/>
</mask>
<path d="M297.923 226.398C298.018 220.014 296.855 213.673 294.5 207.739C292.145 201.804 288.644 196.392 284.197 191.81C279.75 187.229 274.444 183.568 268.582 181.037C262.721 178.506 256.418 177.154 250.034 177.059C243.65 176.964 237.309 178.127 231.375 180.482C225.44 182.837 220.028 186.338 215.446 190.785C210.865 195.232 207.204 200.538 204.673 206.399C202.142 212.261 200.79 218.564 200.695 224.948L249.309 225.673L297.923 226.398Z" fill="#FFE1BB" stroke="#1D1E19" stroke-width="7" mask="url(#path-26-inside-13_729_31)"/>
<mask id="path-27-inside-14_729_31" fill="white">
<path d="M291.65 226.304C291.733 220.744 290.72 215.222 288.669 210.053C286.617 204.884 283.568 200.17 279.695 196.179C275.822 192.189 271.201 189.001 266.096 186.796C260.99 184.592 255.501 183.415 249.94 183.332C244.38 183.249 238.858 184.262 233.689 186.313C228.52 188.364 223.806 191.414 219.816 195.287C215.825 199.16 212.637 203.781 210.432 208.886C208.228 213.992 207.051 219.481 206.968 225.041L249.309 225.673L291.65 226.304Z"/>
</mask>
<path d="M291.65 226.304C291.733 220.744 290.72 215.222 288.669 210.053C286.617 204.884 283.568 200.17 279.695 196.179C275.822 192.189 271.201 189.001 266.096 186.796C260.99 184.592 255.501 183.415 249.94 183.332C244.38 183.249 238.858 184.262 233.689 186.313C228.52 188.364 223.806 191.414 219.816 195.287C215.825 199.16 212.637 203.781 210.432 208.886C208.228 213.992 207.051 219.481 206.968 225.041L249.309 225.673L291.65 226.304Z" fill="#FFE1BB" stroke="#1D1E19" stroke-width="7" mask="url(#path-27-inside-14_729_31)"/>
<mask id="path-28-inside-15_729_31" fill="white">
<path d="M285.377 226.211C285.448 221.474 284.585 216.77 282.838 212.367C281.09 207.964 278.493 203.948 275.193 200.549C271.894 197.15 267.958 194.434 263.609 192.556C259.26 190.678 254.583 189.675 249.847 189.604C245.11 189.534 240.406 190.397 236.003 192.144C231.6 193.892 227.584 196.489 224.185 199.788C220.786 203.088 218.07 207.024 216.192 211.373C214.314 215.722 213.311 220.398 213.241 225.135L249.309 225.673L285.377 226.211Z"/>
</mask>
<path d="M285.377 226.211C285.448 221.474 284.585 216.77 282.838 212.367C281.09 207.964 278.493 203.948 275.193 200.549C271.894 197.15 267.958 194.434 263.609 192.556C259.26 190.678 254.583 189.675 249.847 189.604C245.11 189.534 240.406 190.397 236.003 192.144C231.6 193.892 227.584 196.489 224.185 199.788C220.786 203.088 218.07 207.024 216.192 211.373C214.314 215.722 213.311 220.398 213.241 225.135L249.309 225.673L285.377 226.211Z" fill="#FFE1BB" stroke="#1D1E19" stroke-width="7" mask="url(#path-28-inside-15_729_31)"/>
<mask id="path-29-inside-16_729_31" fill="white">
<path d="M279.104 226.117C279.162 222.204 278.449 218.318 277.006 214.681C275.563 211.044 273.417 207.726 270.691 204.918C267.966 202.11 264.714 199.866 261.121 198.315C257.529 196.764 253.665 195.935 249.753 195.877C245.84 195.819 241.954 196.532 238.317 197.975C234.679 199.419 231.362 201.564 228.554 204.29C225.746 207.015 223.502 210.267 221.951 213.86C220.4 217.453 219.571 221.316 219.513 225.228L249.308 225.673L279.104 226.117Z"/>
</mask>
<path d="M279.104 226.117C279.162 222.204 278.449 218.318 277.006 214.681C275.563 211.044 273.417 207.726 270.691 204.918C267.966 202.11 264.714 199.866 261.121 198.315C257.529 196.764 253.665 195.935 249.753 195.877C245.84 195.819 241.954 196.532 238.317 197.975C234.679 199.419 231.362 201.564 228.554 204.29C225.746 207.015 223.502 210.267 221.951 213.86C220.4 217.453 219.571 221.316 219.513 225.228L249.308 225.673L279.104 226.117Z" fill="#FFE1BB" stroke="#1D1E19" stroke-width="7" mask="url(#path-29-inside-16_729_31)"/>
<mask id="path-30-inside-17_729_31" fill="white">
<path d="M272.832 226.023C272.878 222.934 272.315 219.866 271.175 216.995C270.036 214.123 268.342 211.504 266.19 209.287C264.038 207.071 261.471 205.299 258.635 204.074C255.798 202.85 252.749 202.196 249.66 202.15C246.571 202.104 243.503 202.666 240.631 203.806C237.76 204.946 235.141 206.64 232.924 208.791C230.707 210.943 228.935 213.51 227.711 216.347C226.486 219.183 225.832 222.233 225.786 225.322L249.309 225.673L272.832 226.023Z"/>
</mask>
<path d="M272.832 226.023C272.878 222.934 272.315 219.866 271.175 216.995C270.036 214.123 268.342 211.504 266.19 209.287C264.038 207.071 261.471 205.299 258.635 204.074C255.798 202.85 252.749 202.196 249.66 202.15C246.571 202.104 243.503 202.666 240.631 203.806C237.76 204.946 235.141 206.64 232.924 208.791C230.707 210.943 228.935 213.51 227.711 216.347C226.486 219.183 225.832 222.233 225.786 225.322L249.309 225.673L272.832 226.023Z" fill="#FFE1BB" stroke="#1D1E19" stroke-width="7" mask="url(#path-30-inside-17_729_31)"/>
<mask id="path-31-inside-18_729_31" fill="white">
<path d="M266.558 225.93C266.592 223.664 266.179 221.415 265.344 219.309C264.508 217.203 263.266 215.282 261.688 213.657C260.11 212.031 258.227 210.732 256.147 209.834C254.067 208.936 251.831 208.456 249.566 208.422C247.3 208.389 245.05 208.801 242.945 209.637C240.839 210.473 238.918 211.715 237.293 213.293C235.667 214.871 234.368 216.754 233.47 218.834C232.572 220.913 232.092 223.15 232.058 225.415L249.308 225.672L266.558 225.93Z"/>
</mask>
<path d="M266.558 225.93C266.592 223.664 266.179 221.415 265.344 219.309C264.508 217.203 263.266 215.282 261.688 213.657C260.11 212.031 258.227 210.732 256.147 209.834C254.067 208.936 251.831 208.456 249.566 208.422C247.3 208.389 245.05 208.801 242.945 209.637C240.839 210.473 238.918 211.715 237.293 213.293C235.667 214.871 234.368 216.754 233.47 218.834C232.572 220.913 232.092 223.15 232.058 225.415L249.308 225.672L266.558 225.93Z" fill="#FFE1BB" stroke="#1D1E19" stroke-width="7" mask="url(#path-31-inside-18_729_31)"/>
<mask id="path-32-inside-19_729_31" fill="white">
<path d="M325.095 246.086C326.383 239.832 326.427 233.386 325.225 227.116C324.022 220.845 321.596 214.873 318.086 209.54C314.575 204.207 310.048 199.618 304.764 196.034C299.48 192.451 293.541 189.943 287.288 188.655C281.034 187.366 274.589 187.322 268.318 188.525C262.048 189.727 256.075 192.153 250.742 195.664C245.409 199.174 240.82 203.701 237.237 208.985C233.653 214.27 231.145 220.208 229.857 226.462L277.476 236.274L325.095 246.086Z"/>
</mask>
<path d="M325.095 246.086C326.383 239.832 326.427 233.386 325.225 227.116C324.022 220.845 321.596 214.873 318.086 209.54C314.575 204.207 310.048 199.618 304.764 196.034C299.48 192.451 293.541 189.943 287.288 188.655C281.034 187.366 274.589 187.322 268.318 188.525C262.048 189.727 256.075 192.153 250.742 195.664C245.409 199.174 240.82 203.701 237.237 208.985C233.653 214.27 231.145 220.208 229.857 226.462L277.476 236.274L325.095 246.086Z" fill="#FFE1BB" stroke="#1D1E19" stroke-width="7" mask="url(#path-32-inside-19_729_31)"/>
<mask id="path-33-inside-20_729_31" fill="white">
<path d="M318.95 244.82C320.072 239.374 320.111 233.759 319.063 228.298C318.016 222.837 315.903 217.635 312.845 212.99C309.788 208.345 305.845 204.348 301.243 201.227C296.64 198.106 291.468 195.922 286.021 194.8C280.575 193.677 274.961 193.639 269.499 194.686C264.038 195.734 258.836 197.847 254.191 200.904C249.547 203.962 245.549 207.905 242.428 212.507C239.307 217.109 237.123 222.282 236.001 227.728L277.475 236.274L318.95 244.82Z"/>
</mask>
<path d="M318.95 244.82C320.072 239.374 320.111 233.759 319.063 228.298C318.016 222.837 315.903 217.635 312.845 212.99C309.788 208.345 305.845 204.348 301.243 201.227C296.64 198.106 291.468 195.922 286.021 194.8C280.575 193.677 274.961 193.639 269.499 194.686C264.038 195.734 258.836 197.847 254.191 200.904C249.547 203.962 245.549 207.905 242.428 212.507C239.307 217.109 237.123 222.282 236.001 227.728L277.475 236.274L318.95 244.82Z" fill="#FFE1BB" stroke="#1D1E19" stroke-width="7" mask="url(#path-33-inside-20_729_31)"/>
<mask id="path-34-inside-21_729_31" fill="white">
<path d="M312.806 243.554C313.762 238.914 313.795 234.132 312.903 229.479C312.01 224.827 310.211 220.396 307.606 216.439C305.001 212.483 301.643 209.078 297.722 206.419C293.801 203.76 289.396 201.9 284.756 200.944C280.116 199.988 275.334 199.955 270.682 200.847C266.029 201.739 261.598 203.539 257.641 206.144C253.685 208.749 250.28 212.107 247.621 216.028C244.962 219.948 243.102 224.354 242.146 228.994L277.476 236.274L312.806 243.554Z"/>
</mask>
<path d="M312.806 243.554C313.762 238.914 313.795 234.132 312.903 229.479C312.01 224.827 310.211 220.396 307.606 216.439C305.001 212.483 301.643 209.078 297.722 206.419C293.801 203.76 289.396 201.9 284.756 200.944C280.116 199.988 275.334 199.955 270.682 200.847C266.029 201.739 261.598 203.539 257.641 206.144C253.685 208.749 250.28 212.107 247.621 216.028C244.962 219.948 243.102 224.354 242.146 228.994L277.476 236.274L312.806 243.554Z" fill="#FFE1BB" stroke="#1D1E19" stroke-width="7" mask="url(#path-34-inside-21_729_31)"/>
<mask id="path-35-inside-22_729_31" fill="white">
<path d="M306.661 242.288C307.451 238.455 307.478 234.504 306.741 230.661C306.004 226.818 304.517 223.157 302.365 219.889C300.213 216.62 297.439 213.807 294.2 211.611C290.961 209.415 287.322 207.878 283.489 207.088C279.656 206.298 275.706 206.271 271.862 207.008C268.019 207.745 264.359 209.232 261.09 211.384C257.822 213.536 255.009 216.31 252.812 219.549C250.616 222.788 249.079 226.427 248.289 230.26L277.475 236.274L306.661 242.288Z"/>
</mask>
<path d="M306.661 242.288C307.451 238.455 307.478 234.504 306.741 230.661C306.004 226.818 304.517 223.157 302.365 219.889C300.213 216.62 297.439 213.807 294.2 211.611C290.961 209.415 287.322 207.878 283.489 207.088C279.656 206.298 275.706 206.271 271.862 207.008C268.019 207.745 264.359 209.232 261.09 211.384C257.822 213.536 255.009 216.31 252.812 219.549C250.616 222.788 249.079 226.427 248.289 230.26L277.475 236.274L306.661 242.288Z" fill="#FFE1BB" stroke="#1D1E19" stroke-width="7" mask="url(#path-35-inside-22_729_31)"/>
<mask id="path-36-inside-23_729_31" fill="white">
<path d="M300.517 241.021C301.14 237.996 301.162 234.876 300.58 231.842C299.998 228.808 298.824 225.918 297.125 223.338C295.426 220.758 293.236 218.537 290.679 216.803C288.122 215.069 285.249 213.856 282.223 213.232C279.197 212.609 276.078 212.587 273.044 213.169C270.01 213.751 267.12 214.925 264.54 216.624C261.959 218.322 259.739 220.513 258.005 223.07C256.271 225.626 255.057 228.5 254.434 231.526L277.475 236.274L300.517 241.021Z"/>
</mask>
<path d="M300.517 241.021C301.14 237.996 301.162 234.876 300.58 231.842C299.998 228.808 298.824 225.918 297.125 223.338C295.426 220.758 293.236 218.537 290.679 216.803C288.122 215.069 285.249 213.856 282.223 213.232C279.197 212.609 276.078 212.587 273.044 213.169C270.01 213.751 267.12 214.925 264.54 216.624C261.959 218.322 259.739 220.513 258.005 223.07C256.271 225.626 255.057 228.5 254.434 231.526L277.475 236.274L300.517 241.021Z" fill="#FFE1BB" stroke="#1D1E19" stroke-width="7" mask="url(#path-36-inside-23_729_31)"/>
<mask id="path-37-inside-24_729_31" fill="white">
<path d="M294.373 239.756C294.831 237.537 294.846 235.25 294.42 233.025C293.993 230.799 293.132 228.68 291.886 226.788C290.641 224.896 289.034 223.267 287.159 221.996C285.284 220.724 283.177 219.834 280.958 219.377C278.739 218.92 276.452 218.904 274.227 219.331C272.002 219.758 269.883 220.618 267.99 221.864C266.098 223.11 264.469 224.716 263.198 226.591C261.926 228.466 261.037 230.573 260.579 232.792L277.476 236.274L294.373 239.756Z"/>
</mask>
<path d="M294.373 239.756C294.831 237.537 294.846 235.25 294.42 233.025C293.993 230.799 293.132 228.68 291.886 226.788C290.641 224.896 289.034 223.267 287.159 221.996C285.284 220.724 283.177 219.834 280.958 219.377C278.739 218.92 276.452 218.904 274.227 219.331C272.002 219.758 269.883 220.618 267.99 221.864C266.098 223.11 264.469 224.716 263.198 226.591C261.926 228.466 261.037 230.573 260.579 232.792L277.476 236.274L294.373 239.756Z" fill="#FFE1BB" stroke="#1D1E19" stroke-width="7" mask="url(#path-37-inside-24_729_31)"/>
<path d="M189.304 235.304L123.747 221.817C123.747 221.817 119.982 258.083 149.468 262.908C178.953 267.733 189.304 235.304 189.304 235.304Z" fill="#F0E6D1" stroke="#1D1E19" stroke-width="3.5"/>
<path d="M185.09 234.515L127.94 222.757C127.94 222.757 124.659 254.372 150.363 258.578C176.067 262.785 185.09 234.515 185.09 234.515Z" fill="#8AC636" stroke="#1D1E19" stroke-width="3.5"/>
<path d="M127.825 234.049L155.114 229.344M155.114 229.344L134.412 250.36M155.114 229.344L149.782 257.261M155.114 229.344L166.407 256.006M155.114 229.344L179.581 244.714" stroke="#1D1E19" stroke-width="3.5"/>
<path d="M159.235 95.5947C158.485 83.2068 167.609 65.5187 167.609 65.5187C172.697 54.1566 178.77 61.1743 176.792 65.5187C182.421 53.1541 187.906 61.5085 185.976 65.5187C191.604 53.8225 196.512 61.8428 194.619 65.5187C199.437 56.1618 204.569 61.5086 202.722 65.5187C202.722 65.5187 193.599 83.2068 194.349 95.5947C195.261 110.647 209.936 113.019 211.366 128.01C212.687 141.865 200.77 148.356 202.722 162.096C204.567 175.081 216.208 176.669 218.659 189.499C221.524 204.502 207.592 213.237 211.366 227.929C214.287 239.302 227.572 250.987 227.572 250.987H219.469H210.826H201.642H192.458C192.458 250.987 179.173 239.302 176.252 227.929C172.478 213.237 186.411 204.502 183.545 189.499C181.094 176.669 169.453 175.081 167.609 162.096C165.656 148.356 177.574 141.865 176.252 128.01C174.822 113.019 160.147 110.647 159.235 95.5947Z" fill="#FFE1BB"/>
<path d="M176.792 65.5187C176.792 65.5187 167.668 83.2068 168.419 95.5947C169.331 110.647 184.006 113.019 185.436 128.01C186.757 141.865 174.84 148.356 176.792 162.096C178.637 175.081 190.278 176.669 192.728 189.499C195.594 204.502 181.662 213.237 185.436 227.929C188.357 239.302 201.642 250.987 201.642 250.987M176.792 65.5187C182.421 53.1541 187.906 61.5085 185.976 65.5187M176.792 65.5187C178.77 61.1743 172.697 54.1566 167.609 65.5187C167.609 65.5187 158.485 83.2068 159.235 95.5947C160.147 110.647 174.822 113.019 176.252 128.01C177.574 141.865 165.656 148.356 167.609 162.096C169.453 175.081 181.094 176.669 183.545 189.499C186.411 204.502 172.478 213.237 176.252 227.929C179.173 239.302 192.458 250.987 192.458 250.987H227.572C227.572 250.987 214.287 239.302 211.366 227.929C207.592 213.237 221.524 204.502 218.659 189.499C216.208 176.669 204.567 175.081 202.722 162.096C200.77 148.356 212.687 141.865 211.366 128.01C209.936 113.019 195.261 110.647 194.349 95.5947C193.599 83.2068 202.722 65.5187 202.722 65.5187C204.569 61.5086 199.437 56.1618 194.619 65.5187M185.976 65.5187C185.976 65.5187 176.852 83.2068 177.603 95.5947C178.514 110.647 193.189 113.019 194.619 128.01C195.941 141.865 184.024 148.356 185.976 162.096C187.821 175.081 199.461 176.669 201.912 189.499C204.778 204.502 190.846 213.237 194.619 227.929C197.54 239.302 210.826 250.987 210.826 250.987M185.976 65.5187C191.604 53.8225 196.512 61.8428 194.619 65.5187M194.619 65.5187C194.619 65.5187 185.495 83.2068 186.246 95.5947C187.158 110.647 201.833 113.019 203.263 128.01C204.584 141.865 192.667 148.356 194.619 162.096C196.464 175.081 208.105 176.669 210.555 189.499C213.421 204.502 199.489 213.237 203.263 227.929C206.184 239.302 219.469 250.987 219.469 250.987" stroke="#1D1E19" stroke-width="3.5"/>
<path d="M343.316 48.618C348.252 46.5994 344.591 36.1358 337.375 38.8675L150.455 124.775C146.112 127.169 149.659 132.576 152.658 130.991L343.316 48.618Z" fill="#895E3A" stroke="#1D1E19" stroke-width="3.5"/>
<mask id="path-44-inside-25_729_31" fill="white">
<path d="M269.181 256.333C267.427 250.194 264.482 244.46 260.512 239.459C256.543 234.458 251.627 230.288 246.046 227.187C240.465 224.086 234.327 222.115 227.984 221.386C221.641 220.656 215.217 221.184 209.078 222.937C202.938 224.691 197.205 227.637 192.204 231.606C187.203 235.576 183.033 240.491 179.932 246.073C176.831 251.654 174.86 257.791 174.13 264.134C173.401 270.477 173.928 276.901 175.682 283.041L222.432 269.687L269.181 256.333Z"/>
</mask>
<path d="M269.181 256.333C267.427 250.194 264.482 244.46 260.512 239.459C256.543 234.458 251.627 230.288 246.046 227.187C240.465 224.086 234.327 222.115 227.984 221.386C221.641 220.656 215.217 221.184 209.078 222.937C202.938 224.691 197.205 227.637 192.204 231.606C187.203 235.576 183.033 240.491 179.932 246.073C176.831 251.654 174.86 257.791 174.13 264.134C173.401 270.477 173.928 276.901 175.682 283.041L222.432 269.687L269.181 256.333Z" fill="#FFE1BB" stroke="#1D1E19" stroke-width="7" mask="url(#path-44-inside-25_729_31)"/>
<mask id="path-45-inside-26_729_31" fill="white">
<path d="M263.148 258.055C261.621 252.708 259.055 247.715 255.598 243.359C252.141 239.003 247.859 235.372 242.998 232.671C238.137 229.97 232.792 228.253 227.267 227.617C221.743 226.982 216.147 227.442 210.8 228.969C205.453 230.496 200.459 233.062 196.104 236.519C191.748 239.977 188.116 244.258 185.415 249.119C182.714 253.98 180.997 259.325 180.362 264.85C179.727 270.374 180.186 275.97 181.714 281.317L222.431 269.686L263.148 258.055Z"/>
</mask>
<path d="M263.148 258.055C261.621 252.708 259.055 247.715 255.598 243.359C252.141 239.003 247.859 235.372 242.998 232.671C238.137 229.97 232.792 228.253 227.267 227.617C221.743 226.982 216.147 227.442 210.8 228.969C205.453 230.496 200.459 233.062 196.104 236.519C191.748 239.977 188.116 244.258 185.415 249.119C182.714 253.98 180.997 259.325 180.362 264.85C179.727 270.374 180.186 275.97 181.714 281.317L222.431 269.686L263.148 258.055Z" fill="#FFE1BB" stroke="#1D1E19" stroke-width="7" mask="url(#path-45-inside-26_729_31)"/>
<mask id="path-46-inside-27_729_31" fill="white">
<path d="M257.116 259.778C255.815 255.223 253.63 250.969 250.685 247.259C247.739 243.549 244.092 240.455 239.951 238.154C235.811 235.853 231.257 234.391 226.551 233.85C221.845 233.309 217.078 233.7 212.523 235.001C207.969 236.302 203.715 238.488 200.004 241.433C196.294 244.378 193.2 248.025 190.899 252.166C188.599 256.307 187.136 260.86 186.595 265.566C186.054 270.272 186.445 275.039 187.746 279.594L222.431 269.686L257.116 259.778Z"/>
</mask>
<path d="M257.116 259.778C255.815 255.223 253.63 250.969 250.685 247.259C247.739 243.549 244.092 240.455 239.951 238.154C235.811 235.853 231.257 234.391 226.551 233.85C221.845 233.309 217.078 233.7 212.523 235.001C207.969 236.302 203.715 238.488 200.004 241.433C196.294 244.378 193.2 248.025 190.899 252.166C188.599 256.307 187.136 260.86 186.595 265.566C186.054 270.272 186.445 275.039 187.746 279.594L222.431 269.686L257.116 259.778Z" fill="#FFE1BB" stroke="#1D1E19" stroke-width="7" mask="url(#path-46-inside-27_729_31)"/>
<mask id="path-47-inside-28_729_31" fill="white">
<path d="M251.084 261.502C250.009 257.739 248.203 254.225 245.771 251.16C243.338 248.095 240.325 245.539 236.904 243.638C233.483 241.738 229.722 240.529 225.834 240.083C221.947 239.636 218.009 239.959 214.246 241.034C210.483 242.108 206.969 243.914 203.904 246.347C200.839 248.78 198.283 251.793 196.383 255.213C194.482 258.634 193.274 262.395 192.827 266.283C192.38 270.171 192.703 274.108 193.778 277.871L222.431 269.686L251.084 261.502Z"/>
</mask>
<path d="M251.084 261.502C250.009 257.739 248.203 254.225 245.771 251.16C243.338 248.095 240.325 245.539 236.904 243.638C233.483 241.738 229.722 240.529 225.834 240.083C221.947 239.636 218.009 239.959 214.246 241.034C210.483 242.108 206.969 243.914 203.904 246.347C200.839 248.78 198.283 251.793 196.383 255.213C194.482 258.634 193.274 262.395 192.827 266.283C192.38 270.171 192.703 274.108 193.778 277.871L222.431 269.686L251.084 261.502Z" fill="#FFE1BB" stroke="#1D1E19" stroke-width="7" mask="url(#path-47-inside-28_729_31)"/>
<mask id="path-48-inside-29_729_31" fill="white">
<path d="M245.052 263.225C244.204 260.254 242.778 257.48 240.857 255.06C238.937 252.64 236.558 250.623 233.858 249.122C231.157 247.622 228.187 246.668 225.118 246.315C222.049 245.962 218.94 246.217 215.97 247.066C212.999 247.914 210.225 249.339 207.805 251.26C205.385 253.181 203.368 255.56 201.867 258.26C200.367 260.961 199.413 263.93 199.06 266.999C198.707 270.069 198.962 273.177 199.811 276.148L222.431 269.686L245.052 263.225Z"/>
</mask>
<path d="M245.052 263.225C244.204 260.254 242.778 257.48 240.857 255.06C238.937 252.64 236.558 250.623 233.858 249.122C231.157 247.622 228.187 246.668 225.118 246.315C222.049 245.962 218.94 246.217 215.97 247.066C212.999 247.914 210.225 249.339 207.805 251.26C205.385 253.181 203.368 255.56 201.867 258.26C200.367 260.961 199.413 263.93 199.06 266.999C198.707 270.069 198.962 273.177 199.811 276.148L222.431 269.686L245.052 263.225Z" fill="#FFE1BB" stroke="#1D1E19" stroke-width="7" mask="url(#path-48-inside-29_729_31)"/>
<mask id="path-49-inside-30_729_31" fill="white">
<path d="M239.02 264.947C238.397 262.769 237.352 260.734 235.943 258.96C234.535 257.185 232.791 255.706 230.81 254.605C228.83 253.505 226.652 252.805 224.401 252.547C222.151 252.288 219.871 252.475 217.693 253.097C215.514 253.719 213.48 254.765 211.705 256.173C209.931 257.582 208.451 259.326 207.351 261.306C206.25 263.287 205.551 265.465 205.292 267.715C205.033 269.966 205.22 272.246 205.842 274.424L222.431 269.686L239.02 264.947Z"/>
</mask>
<path d="M239.02 264.947C238.397 262.769 237.352 260.734 235.943 258.96C234.535 257.185 232.791 255.706 230.81 254.605C228.83 253.505 226.652 252.805 224.401 252.547C222.151 252.288 219.871 252.475 217.693 253.097C215.514 253.719 213.48 254.765 211.705 256.173C209.931 257.582 208.451 259.326 207.351 261.306C206.25 263.287 205.551 265.465 205.292 267.715C205.033 269.966 205.22 272.246 205.842 274.424L222.431 269.686L239.02 264.947Z" fill="#FFE1BB" stroke="#1D1E19" stroke-width="7" mask="url(#path-49-inside-30_729_31)"/>
<path d="M289.405 226.469C289.405 226.469 295.373 237.855 291.251 242.751C288.579 245.925 281.386 246.7 281.386 246.7C281.386 246.7 281.563 258.077 276.683 261.959C272.288 265.457 262.437 263.948 262.437 263.948L260.607 276.504L251.466 274.082L254.878 262.194C254.878 262.194 244.518 255.677 243.709 251.091C242.881 246.399 247.274 239.423 247.274 239.423C247.274 239.423 239.746 233.697 239.873 228.569C239.993 223.743 246.916 218.41 246.916 218.41C246.916 218.41 243.413 211.697 244.533 207.47C245.73 202.949 252.856 198.858 252.856 198.858C252.856 198.858 249.829 189.218 253.572 185.669C256.628 182.773 264.209 183.919 264.209 183.919C264.209 183.919 268.308 169.697 279.07 172.372C288.522 174.72 286.535 186.989 286.535 186.989C286.535 186.989 293.038 189.275 294.791 192.809C297.305 197.876 290.636 206.683 290.636 206.683C290.636 206.683 295.764 213.001 295.214 217.585C294.72 221.701 289.405 226.469 289.405 226.469Z" fill="#5DC27C"/>
<path d="M254.878 262.194L272.599 197.58L262.437 263.948M254.878 262.194C254.878 262.194 244.518 255.677 243.709 251.091C242.881 246.399 247.274 239.423 247.274 239.423C247.274 239.423 239.746 233.697 239.873 228.569C239.993 223.743 246.916 218.41 246.916 218.41C246.916 218.41 243.413 211.697 244.533 207.47C245.73 202.949 252.856 198.858 252.856 198.858C252.856 198.858 249.829 189.218 253.572 185.669C256.628 182.773 264.209 183.919 264.209 183.919C264.209 183.919 268.308 169.697 279.07 172.372C288.522 174.72 286.535 186.989 286.535 186.989C286.535 186.989 293.038 189.275 294.791 192.809C297.305 197.876 290.636 206.683 290.636 206.683C290.636 206.683 295.764 213.001 295.214 217.585C294.72 221.701 289.405 226.469 289.405 226.469C289.405 226.469 295.373 237.855 291.251 242.751C288.579 245.925 281.386 246.7 281.386 246.7C281.386 246.7 281.563 258.077 276.683 261.959C272.288 265.457 262.437 263.948 262.437 263.948M254.878 262.194L251.466 274.082L260.607 276.504L262.437 263.948" stroke="#1D1E19" stroke-width="3.5"/>
<path d="M93.0068 266.985C132.216 302.43 321.988 239.382 321.988 192.645C334.747 251.55 314.733 297.582 281.211 323.968L283.406 333.17C259.567 356.508 218.772 359.205 201.354 357.637L199.342 348.347C158.746 344.791 118.101 323.968 93.0068 266.985Z" fill="#F57B45"/>
<path d="M199.342 348.347C158.746 344.791 118.101 323.968 93.0068 266.985C132.216 302.43 321.988 239.382 321.988 192.645C334.747 251.55 314.733 297.582 281.211 323.968M199.342 348.347L201.354 357.637C218.772 359.205 259.567 356.508 283.406 333.17L281.211 323.968M199.342 348.347C228.842 350.931 258.207 342.075 281.211 323.968" stroke="#1D1E19" stroke-width="3.5"/>
</g>
<defs>
<clipPath id="clip0_729_31">
<rect width="423" height="374" fill="white"/>
</clipPath>
</defs>
</svg>
