<svg width="587" height="643" viewBox="0 0 587 643" fill="none" xmlns="http://www.w3.org/2000/svg">
<g clip-path="url(#clip0_271_130)">
<path d="M888 394.5C888 451.637 879.007 508.419 861.35 562.76L343.5 394.5H888Z" fill="#B8E5F8" stroke="#1D1E19" stroke-width="5"/>
<path d="M784.01 714.549C750.425 760.774 709.774 801.425 663.549 835.01L343.5 394.5L784.01 714.549Z" fill="#B8E5F8" stroke="#1D1E19" stroke-width="5"/>
<path d="M511.76 912.35C457.419 930.007 400.637 939 343.5 939L343.5 394.5L511.76 912.35Z" fill="#B8E5F8" stroke="#1D1E19" stroke-width="5"/>
<path d="M175.24 912.35C120.899 894.694 69.676 868.594 23.4509 835.01L343.5 394.5L175.24 912.35Z" fill="#B8E5F8" stroke="#1D1E19" stroke-width="5"/>
<path d="M-97.0098 714.549C-130.594 668.324 -156.694 617.101 -174.35 562.76L343.5 394.5L-97.0098 714.549Z" fill="#B8E5F8" stroke="#1D1E19" stroke-width="5"/>
<path d="M-201 394.5C-201 337.362 -192.007 280.581 -174.35 226.24L343.5 394.5L-201 394.5Z" fill="#B8E5F8" stroke="#1D1E19" stroke-width="5"/>
<path d="M-97.0097 74.4509C-63.4252 28.2257 -22.7742 -12.4253 23.451 -46.0098L343.5 394.5L-97.0097 74.4509Z" fill="#B8E5F8" stroke="#1D1E19" stroke-width="5"/>
<path d="M175.24 -123.35C229.581 -141.007 286.363 -150 343.5 -150L343.5 394.5L175.24 -123.35Z" fill="#B8E5F8" stroke="#1D1E19" stroke-width="5"/>
<path d="M511.76 -123.35C566.101 -105.694 617.324 -79.5942 663.549 -46.0097L343.5 394.5L511.76 -123.35Z" fill="#B8E5F8" stroke="#1D1E19" stroke-width="5"/>
<path d="M784.01 74.4511C817.594 120.676 843.694 171.9 861.35 226.241L343.5 394.5L784.01 74.4511Z" fill="#B8E5F8" stroke="#1D1E19" stroke-width="5"/>
<path d="M497.643 55.0867C504.988 51.1692 497.643 35.5007 486.871 40.887L210.223 203.938C203.857 208.345 210.223 216.179 214.629 213.242L497.643 55.0867Z" fill="#895E3A" stroke="#1D1E19" stroke-width="5"/>
<path d="M131.39 440.926C137.265 357.686 410.487 271.999 488.829 324.88C508.746 416.831 477.504 488.687 425.176 529.876L428.603 544.241C391.39 580.67 327.709 584.881 300.519 582.433L297.379 567.931C234.008 562.381 170.561 529.876 131.39 440.926Z" fill="#F57B45"/>
<path d="M131.39 440.926C192.595 496.255 488.829 397.837 488.829 324.88M131.39 440.926C137.265 357.686 410.487 271.999 488.829 324.88M131.39 440.926C170.561 529.876 234.008 562.381 297.379 567.931M488.829 324.88C508.746 416.831 477.504 488.687 425.176 529.876M297.379 567.931L300.519 582.433C327.709 584.881 391.39 580.67 428.603 544.241L425.176 529.876M297.379 567.931C343.429 571.965 389.267 558.141 425.176 529.876" stroke="#1D1E19" stroke-width="5"/>
<mask id="path-14-inside-1_271_130" fill="white">
<path d="M285.851 474.376C287.055 464.483 286.298 454.449 283.625 444.847C280.951 435.246 276.413 426.265 270.268 418.418C264.124 410.571 256.494 404.01 247.814 399.112C239.134 394.213 229.575 391.072 219.681 389.868C209.787 388.664 199.754 389.42 190.152 392.094C180.551 394.768 171.57 399.306 163.723 405.451C155.876 411.595 149.315 419.225 144.417 427.905C139.518 436.584 136.377 446.144 135.173 456.038L210.512 465.207L285.851 474.376Z"/>
</mask>
<path d="M285.851 474.376C287.055 464.483 286.298 454.449 283.625 444.847C280.951 435.246 276.413 426.265 270.268 418.418C264.124 410.571 256.494 404.01 247.814 399.112C239.134 394.213 229.575 391.072 219.681 389.868C209.787 388.664 199.754 389.42 190.152 392.094C180.551 394.768 171.57 399.306 163.723 405.451C155.876 411.595 149.315 419.225 144.417 427.905C139.518 436.584 136.377 446.144 135.173 456.038L210.512 465.207L285.851 474.376Z" fill="#FFE1BB" stroke="#1D1E19" stroke-width="10" mask="url(#path-14-inside-1_271_130)"/>
<mask id="path-15-inside-2_271_130" fill="white">
<path d="M276.129 473.194C277.178 464.576 276.519 455.837 274.19 447.475C271.862 439.112 267.909 431.29 262.557 424.456C257.206 417.621 250.56 411.907 243 407.641C235.441 403.374 227.115 400.638 218.498 399.59C209.881 398.541 201.141 399.2 192.779 401.528C184.416 403.857 176.595 407.81 169.76 413.162C162.925 418.513 157.211 425.159 152.945 432.718C148.678 440.278 145.942 448.604 144.894 457.221L210.511 465.207L276.129 473.194Z"/>
</mask>
<path d="M276.129 473.194C277.178 464.576 276.519 455.837 274.19 447.475C271.862 439.112 267.909 431.29 262.557 424.456C257.206 417.621 250.56 411.907 243 407.641C235.441 403.374 227.115 400.638 218.498 399.59C209.881 398.541 201.141 399.2 192.779 401.528C184.416 403.857 176.595 407.81 169.76 413.162C162.925 418.513 157.211 425.159 152.945 432.718C148.678 440.278 145.942 448.604 144.894 457.221L210.511 465.207L276.129 473.194Z" fill="#FFE1BB" stroke="#1D1E19" stroke-width="10" mask="url(#path-15-inside-2_271_130)"/>
<mask id="path-16-inside-3_271_130" fill="white">
<path d="M266.408 472.011C267.301 464.67 266.74 457.226 264.757 450.102C262.773 442.979 259.406 436.316 254.847 430.494C250.288 424.671 244.627 419.804 238.187 416.17C231.748 412.535 224.655 410.205 217.315 409.311C209.974 408.418 202.53 408.979 195.406 410.963C188.282 412.946 181.619 416.314 175.797 420.873C169.975 425.431 165.108 431.092 161.473 437.532C157.839 443.972 155.508 451.064 154.615 458.405L210.512 465.208L266.408 472.011Z"/>
</mask>
<path d="M266.408 472.011C267.301 464.67 266.74 457.226 264.757 450.102C262.773 442.979 259.406 436.316 254.847 430.494C250.288 424.671 244.627 419.804 238.187 416.17C231.748 412.535 224.655 410.205 217.315 409.311C209.974 408.418 202.53 408.979 195.406 410.963C188.282 412.946 181.619 416.314 175.797 420.873C169.975 425.431 165.108 431.092 161.473 437.532C157.839 443.972 155.508 451.064 154.615 458.405L210.512 465.208L266.408 472.011Z" fill="#FFE1BB" stroke="#1D1E19" stroke-width="10" mask="url(#path-16-inside-3_271_130)"/>
<mask id="path-17-inside-4_271_130" fill="white">
<path d="M256.687 470.827C257.425 464.763 256.961 458.614 255.323 452.729C253.684 446.844 250.902 441.34 247.136 436.53C243.37 431.721 238.694 427.7 233.374 424.698C228.054 421.695 222.195 419.77 216.131 419.032C210.068 418.294 203.918 418.758 198.033 420.396C192.148 422.035 186.644 424.817 181.834 428.583C177.025 432.349 173.004 437.025 170.002 442.345C166.999 447.665 165.074 453.524 164.336 459.588L210.512 465.207L256.687 470.827Z"/>
</mask>
<path d="M256.687 470.827C257.425 464.763 256.961 458.614 255.323 452.729C253.684 446.844 250.902 441.34 247.136 436.53C243.37 431.721 238.694 427.7 233.374 424.698C228.054 421.695 222.195 419.77 216.131 419.032C210.068 418.294 203.918 418.758 198.033 420.396C192.148 422.035 186.644 424.817 181.834 428.583C177.025 432.349 173.004 437.025 170.002 442.345C166.999 447.665 165.074 453.524 164.336 459.588L210.512 465.207L256.687 470.827Z" fill="#FFE1BB" stroke="#1D1E19" stroke-width="10" mask="url(#path-17-inside-4_271_130)"/>
<mask id="path-18-inside-5_271_130" fill="white">
<path d="M246.965 469.644C247.548 464.857 247.182 460.002 245.888 455.356C244.595 450.71 242.399 446.365 239.425 442.568C236.452 438.771 232.761 435.596 228.561 433.226C224.361 430.856 219.735 429.336 214.948 428.753C210.161 428.171 205.306 428.536 200.66 429.83C196.014 431.124 191.668 433.32 187.871 436.293C184.074 439.266 180.9 442.958 178.53 447.158C176.159 451.358 174.64 455.983 174.057 460.771L210.511 465.207L246.965 469.644Z"/>
</mask>
<path d="M246.965 469.644C247.548 464.857 247.182 460.002 245.888 455.356C244.595 450.71 242.399 446.365 239.425 442.568C236.452 438.771 232.761 435.596 228.561 433.226C224.361 430.856 219.735 429.336 214.948 428.753C210.161 428.171 205.306 428.536 200.66 429.83C196.014 431.124 191.668 433.32 187.871 436.293C184.074 439.266 180.9 442.958 178.53 447.158C176.159 451.358 174.64 455.983 174.057 460.771L210.511 465.207L246.965 469.644Z" fill="#FFE1BB" stroke="#1D1E19" stroke-width="10" mask="url(#path-18-inside-5_271_130)"/>
<mask id="path-19-inside-6_271_130" fill="white">
<path d="M237.245 468.461C237.673 464.951 237.404 461.39 236.456 457.983C235.507 454.576 233.896 451.39 231.716 448.605C229.536 445.821 226.828 443.493 223.749 441.755C220.669 440.016 217.276 438.902 213.766 438.475C210.255 438.047 206.695 438.316 203.288 439.264C199.881 440.213 196.694 441.824 193.91 444.004C191.125 446.184 188.797 448.892 187.059 451.971C185.321 455.051 184.206 458.443 183.779 461.954L210.512 465.208L237.245 468.461Z"/>
</mask>
<path d="M237.245 468.461C237.673 464.951 237.404 461.39 236.456 457.983C235.507 454.576 233.896 451.39 231.716 448.605C229.536 445.821 226.828 443.493 223.749 441.755C220.669 440.016 217.276 438.902 213.766 438.475C210.255 438.047 206.695 438.316 203.288 439.264C199.881 440.213 196.694 441.824 193.91 444.004C191.125 446.184 188.797 448.892 187.059 451.971C185.321 455.051 184.206 458.443 183.779 461.954L210.512 465.208L237.245 468.461Z" fill="#FFE1BB" stroke="#1D1E19" stroke-width="10" mask="url(#path-19-inside-6_271_130)"/>
<mask id="path-20-inside-7_271_130" fill="white">
<path d="M335.716 379.564C332.313 370.197 327.097 361.592 320.368 354.24C313.638 346.888 305.527 340.934 296.496 336.717C287.466 332.5 277.693 330.103 267.736 329.663C257.779 329.223 247.833 330.748 238.465 334.152C229.098 337.556 220.493 342.771 213.141 349.501C205.789 356.23 199.835 364.342 195.618 373.372C191.401 382.403 189.004 392.176 188.564 402.133C188.124 412.089 189.649 422.036 193.053 431.403L264.385 405.484L335.716 379.564Z"/>
</mask>
<path d="M335.716 379.564C332.313 370.197 327.097 361.592 320.368 354.24C313.638 346.888 305.527 340.934 296.496 336.717C287.466 332.5 277.693 330.103 267.736 329.663C257.779 329.223 247.833 330.748 238.465 334.152C229.098 337.556 220.493 342.771 213.141 349.501C205.789 356.23 199.835 364.342 195.618 373.372C191.401 382.403 189.004 392.176 188.564 402.133C188.124 412.089 189.649 422.036 193.053 431.403L264.385 405.484L335.716 379.564Z" fill="#FFE1BB" stroke="#1D1E19" stroke-width="10" mask="url(#path-20-inside-7_271_130)"/>
<mask id="path-21-inside-8_271_130" fill="white">
<path d="M326.512 382.909C323.548 374.75 319.005 367.255 313.144 360.852C307.283 354.449 300.218 349.263 292.353 345.59C284.487 341.917 275.975 339.829 267.303 339.446C258.631 339.063 249.968 340.391 241.81 343.356C233.651 346.32 226.156 350.863 219.753 356.724C213.35 362.585 208.164 369.65 204.491 377.515C200.818 385.381 198.73 393.892 198.347 402.565C197.964 411.237 199.292 419.9 202.257 428.058L264.385 405.483L326.512 382.909Z"/>
</mask>
<path d="M326.512 382.909C323.548 374.75 319.005 367.255 313.144 360.852C307.283 354.449 300.218 349.263 292.353 345.59C284.487 341.917 275.975 339.829 267.303 339.446C258.631 339.063 249.968 340.391 241.81 343.356C233.651 346.32 226.156 350.863 219.753 356.724C213.35 362.585 208.164 369.65 204.491 377.515C200.818 385.381 198.73 393.892 198.347 402.565C197.964 411.237 199.292 419.9 202.257 428.058L264.385 405.483L326.512 382.909Z" fill="#FFE1BB" stroke="#1D1E19" stroke-width="10" mask="url(#path-21-inside-8_271_130)"/>
<mask id="path-22-inside-9_271_130" fill="white">
<path d="M317.308 386.253C314.783 379.303 310.913 372.919 305.92 367.464C300.927 362.009 294.909 357.592 288.209 354.463C281.509 351.334 274.258 349.556 266.871 349.229C259.483 348.903 252.104 350.035 245.154 352.56C238.204 355.085 231.819 358.955 226.365 363.948C220.91 368.941 216.493 374.959 213.364 381.659C210.235 388.359 208.457 395.61 208.13 402.997C207.804 410.385 208.936 417.764 211.461 424.714L264.384 405.484L317.308 386.253Z"/>
</mask>
<path d="M317.308 386.253C314.783 379.303 310.913 372.919 305.92 367.464C300.927 362.009 294.909 357.592 288.209 354.463C281.509 351.334 274.258 349.556 266.871 349.229C259.483 348.903 252.104 350.035 245.154 352.56C238.204 355.085 231.819 358.955 226.365 363.948C220.91 368.941 216.493 374.959 213.364 381.659C210.235 388.359 208.457 395.61 208.13 402.997C207.804 410.385 208.936 417.764 211.461 424.714L264.384 405.484L317.308 386.253Z" fill="#FFE1BB" stroke="#1D1E19" stroke-width="10" mask="url(#path-22-inside-9_271_130)"/>
<mask id="path-23-inside-10_271_130" fill="white">
<path d="M308.104 389.597C306.017 383.855 302.821 378.581 298.696 374.075C294.572 369.569 289.6 365.92 284.065 363.335C278.531 360.751 272.541 359.282 266.438 359.012C260.336 358.742 254.24 359.677 248.498 361.763C242.757 363.849 237.483 367.046 232.977 371.17C228.471 375.295 224.821 380.267 222.237 385.801C219.652 391.336 218.183 397.326 217.913 403.429C217.644 409.531 218.579 415.627 220.665 421.369L264.384 405.483L308.104 389.597Z"/>
</mask>
<path d="M308.104 389.597C306.017 383.855 302.821 378.581 298.696 374.075C294.572 369.569 289.6 365.92 284.065 363.335C278.531 360.751 272.541 359.282 266.438 359.012C260.336 358.742 254.24 359.677 248.498 361.763C242.757 363.849 237.483 367.046 232.977 371.17C228.471 375.295 224.821 380.267 222.237 385.801C219.652 391.336 218.183 397.326 217.913 403.429C217.644 409.531 218.579 415.627 220.665 421.369L264.384 405.483L308.104 389.597Z" fill="#FFE1BB" stroke="#1D1E19" stroke-width="10" mask="url(#path-23-inside-10_271_130)"/>
<mask id="path-24-inside-11_271_130" fill="white">
<path d="M298.9 392.942C297.253 388.409 294.729 384.245 291.473 380.688C288.217 377.131 284.292 374.25 279.922 372.209C275.553 370.169 270.824 369.009 266.006 368.796C261.188 368.583 256.376 369.321 251.843 370.968C247.31 372.615 243.147 375.139 239.589 378.395C236.032 381.651 233.151 385.576 231.11 389.946C229.07 394.315 227.91 399.044 227.697 403.862C227.484 408.68 228.222 413.492 229.869 418.025L264.385 405.484L298.9 392.942Z"/>
</mask>
<path d="M298.9 392.942C297.253 388.409 294.729 384.245 291.473 380.688C288.217 377.131 284.292 374.25 279.922 372.209C275.553 370.169 270.824 369.009 266.006 368.796C261.188 368.583 256.376 369.321 251.843 370.968C247.31 372.615 243.147 375.139 239.589 378.395C236.032 381.651 233.151 385.576 231.11 389.946C229.07 394.315 227.91 399.044 227.697 403.862C227.484 408.68 228.222 413.492 229.869 418.025L264.385 405.484L298.9 392.942Z" fill="#FFE1BB" stroke="#1D1E19" stroke-width="10" mask="url(#path-24-inside-11_271_130)"/>
<mask id="path-25-inside-12_271_130" fill="white">
<path d="M289.696 396.286C288.488 392.962 286.637 389.909 284.249 387.3C281.861 384.691 278.983 382.578 275.779 381.082C272.574 379.586 269.107 378.735 265.573 378.579C262.04 378.423 258.511 378.964 255.187 380.172C251.863 381.38 248.81 383.23 246.201 385.618C243.592 388.006 241.48 390.884 239.983 394.089C238.487 397.293 237.636 400.761 237.48 404.294C237.324 407.827 237.865 411.356 239.073 414.68L264.384 405.483L289.696 396.286Z"/>
</mask>
<path d="M289.696 396.286C288.488 392.962 286.637 389.909 284.249 387.3C281.861 384.691 278.983 382.578 275.779 381.082C272.574 379.586 269.107 378.735 265.573 378.579C262.04 378.423 258.511 378.964 255.187 380.172C251.863 381.38 248.81 383.23 246.201 385.618C243.592 388.006 241.48 390.884 239.983 394.089C238.487 397.293 237.636 400.761 237.48 404.294C237.324 407.827 237.865 411.356 239.073 414.68L264.384 405.483L289.696 396.286Z" fill="#FFE1BB" stroke="#1D1E19" stroke-width="10" mask="url(#path-25-inside-12_271_130)"/>
<mask id="path-26-inside-13_271_130" fill="white">
<path d="M451.262 377.567C451.411 367.602 449.595 357.705 445.919 348.441C442.242 339.177 436.777 330.728 429.836 323.576C422.894 316.425 414.612 310.71 405.462 306.759C396.312 302.808 386.473 300.698 376.507 300.55C366.542 300.401 356.645 302.217 347.381 305.893C338.117 309.57 329.668 315.035 322.516 321.976C315.365 328.918 309.65 337.2 305.699 346.35C301.748 355.5 299.638 365.339 299.49 375.305L375.376 376.436L451.262 377.567Z"/>
</mask>
<path d="M451.262 377.567C451.411 367.602 449.595 357.705 445.919 348.441C442.242 339.177 436.777 330.728 429.836 323.576C422.894 316.425 414.612 310.71 405.462 306.759C396.312 302.808 386.473 300.698 376.507 300.55C366.542 300.401 356.645 302.217 347.381 305.893C338.117 309.57 329.668 315.035 322.516 321.976C315.365 328.918 309.65 337.2 305.699 346.35C301.748 355.5 299.638 365.339 299.49 375.305L375.376 376.436L451.262 377.567Z" fill="#FFE1BB" stroke="#1D1E19" stroke-width="10" mask="url(#path-26-inside-13_271_130)"/>
<mask id="path-27-inside-14_271_130" fill="white">
<path d="M441.471 377.421C441.6 368.742 440.019 360.122 436.817 352.053C433.615 343.985 428.855 336.626 422.809 330.397C416.763 324.168 409.549 319.191 401.58 315.75C393.61 312.309 385.041 310.471 376.362 310.341C367.682 310.212 359.062 311.793 350.993 314.995C342.925 318.197 335.566 322.957 329.337 329.003C323.108 335.049 318.131 342.263 314.69 350.232C311.249 358.202 309.411 366.771 309.282 375.451L375.376 376.436L441.471 377.421Z"/>
</mask>
<path d="M441.471 377.421C441.6 368.742 440.019 360.122 436.817 352.053C433.615 343.985 428.855 336.626 422.809 330.397C416.763 324.168 409.549 319.191 401.58 315.75C393.61 312.309 385.041 310.471 376.362 310.341C367.682 310.212 359.062 311.793 350.993 314.995C342.925 318.197 335.566 322.957 329.337 329.003C323.108 335.049 318.131 342.263 314.69 350.232C311.249 358.202 309.411 366.771 309.282 375.451L375.376 376.436L441.471 377.421Z" fill="#FFE1BB" stroke="#1D1E19" stroke-width="10" mask="url(#path-27-inside-14_271_130)"/>
<mask id="path-28-inside-15_271_130" fill="white">
<path d="M431.679 377.275C431.789 369.882 430.442 362.539 427.714 355.665C424.986 348.792 420.932 342.524 415.782 337.217C410.631 331.911 404.486 327.672 397.698 324.74C390.909 321.809 383.609 320.243 376.215 320.133C368.822 320.023 361.478 321.37 354.605 324.098C347.732 326.825 341.464 330.88 336.157 336.03C330.851 341.181 326.611 347.325 323.68 354.114C320.749 360.903 319.183 368.203 319.073 375.596L375.376 376.436L431.679 377.275Z"/>
</mask>
<path d="M431.679 377.275C431.789 369.882 430.442 362.539 427.714 355.665C424.986 348.792 420.932 342.524 415.782 337.217C410.631 331.911 404.486 327.672 397.698 324.74C390.909 321.809 383.609 320.243 376.215 320.133C368.822 320.023 361.478 321.37 354.605 324.098C347.732 326.825 341.464 330.88 336.157 336.03C330.851 341.181 326.611 347.325 323.68 354.114C320.749 360.903 319.183 368.203 319.073 375.596L375.376 376.436L431.679 377.275Z" fill="#FFE1BB" stroke="#1D1E19" stroke-width="10" mask="url(#path-28-inside-15_271_130)"/>
<mask id="path-29-inside-16_271_130" fill="white">
<path d="M421.887 377.129C421.978 371.021 420.865 364.955 418.612 359.278C416.359 353.6 413.009 348.421 408.755 344.038C404.5 339.655 399.424 336.152 393.816 333.731C388.208 331.309 382.177 330.016 376.07 329.925C369.962 329.834 363.896 330.947 358.218 333.2C352.54 335.453 347.362 338.803 342.978 343.057C338.595 347.312 335.092 352.388 332.671 357.996C330.249 363.604 328.956 369.635 328.865 375.742L375.376 376.436L421.887 377.129Z"/>
</mask>
<path d="M421.887 377.129C421.978 371.021 420.865 364.955 418.612 359.278C416.359 353.6 413.009 348.421 408.755 344.038C404.5 339.655 399.424 336.152 393.816 333.731C388.208 331.309 382.177 330.016 376.07 329.925C369.962 329.834 363.896 330.947 358.218 333.2C352.54 335.453 347.362 338.803 342.978 343.057C338.595 347.312 335.092 352.388 332.671 357.996C330.249 363.604 328.956 369.635 328.865 375.742L375.376 376.436L421.887 377.129Z" fill="#FFE1BB" stroke="#1D1E19" stroke-width="10" mask="url(#path-29-inside-16_271_130)"/>
<mask id="path-30-inside-17_271_130" fill="white">
<path d="M412.095 376.984C412.167 372.162 411.289 367.373 409.51 362.89C407.731 358.408 405.087 354.319 401.728 350.859C398.369 347.398 394.361 344.633 389.934 342.722C385.506 340.81 380.746 339.789 375.924 339.717C371.102 339.645 366.313 340.524 361.83 342.302C357.348 344.081 353.26 346.726 349.799 350.085C346.339 353.443 343.573 357.451 341.662 361.878C339.75 366.306 338.729 371.067 338.657 375.889L375.376 376.436L412.095 376.984Z"/>
</mask>
<path d="M412.095 376.984C412.167 372.162 411.289 367.373 409.51 362.89C407.731 358.408 405.087 354.319 401.728 350.859C398.369 347.398 394.361 344.633 389.934 342.722C385.506 340.81 380.746 339.789 375.924 339.717C371.102 339.645 366.313 340.524 361.83 342.302C357.348 344.081 353.26 346.726 349.799 350.085C346.339 353.443 343.573 357.451 341.662 361.878C339.75 366.306 338.729 371.067 338.657 375.889L375.376 376.436L412.095 376.984Z" fill="#FFE1BB" stroke="#1D1E19" stroke-width="10" mask="url(#path-30-inside-17_271_130)"/>
<mask id="path-31-inside-18_271_130" fill="white">
<path d="M402.304 376.838C402.357 373.301 401.712 369.789 400.408 366.502C399.103 363.215 397.164 360.217 394.701 357.679C392.238 355.142 389.299 353.114 386.052 351.712C382.805 350.31 379.314 349.561 375.778 349.509C372.242 349.456 368.73 350.1 365.443 351.405C362.156 352.709 359.158 354.648 356.62 357.112C354.082 359.575 352.054 362.514 350.652 365.76C349.251 369.007 348.502 372.498 348.449 376.035L375.377 376.436L402.304 376.838Z"/>
</mask>
<path d="M402.304 376.838C402.357 373.301 401.712 369.789 400.408 366.502C399.103 363.215 397.164 360.217 394.701 357.679C392.238 355.142 389.299 353.114 386.052 351.712C382.805 350.31 379.314 349.561 375.778 349.509C372.242 349.456 368.73 350.1 365.443 351.405C362.156 352.709 359.158 354.648 356.62 357.112C354.082 359.575 352.054 362.514 350.652 365.76C349.251 369.007 348.502 372.498 348.449 376.035L375.377 376.436L402.304 376.838Z" fill="#FFE1BB" stroke="#1D1E19" stroke-width="10" mask="url(#path-31-inside-18_271_130)"/>
<mask id="path-32-inside-19_271_130" fill="white">
<path d="M493.679 408.303C495.69 398.541 495.759 388.479 493.882 378.691C492.005 368.902 488.218 359.58 482.738 351.255C477.257 342.93 470.191 335.766 461.942 330.172C453.694 324.578 444.424 320.664 434.662 318.653C424.901 316.641 414.839 316.572 405.05 318.449C395.262 320.327 385.939 324.114 377.615 329.594C369.29 335.074 362.126 342.14 356.532 350.389C350.938 358.638 347.024 367.908 345.012 377.669L419.346 392.986L493.679 408.303Z"/>
</mask>
<path d="M493.679 408.303C495.69 398.541 495.759 388.479 493.882 378.691C492.005 368.902 488.218 359.58 482.738 351.255C477.257 342.93 470.191 335.766 461.942 330.172C453.694 324.578 444.424 320.664 434.662 318.653C424.901 316.641 414.839 316.572 405.05 318.449C395.262 320.327 385.939 324.114 377.615 329.594C369.29 335.074 362.126 342.14 356.532 350.389C350.938 358.638 347.024 367.908 345.012 377.669L419.346 392.986L493.679 408.303Z" fill="#FFE1BB" stroke="#1D1E19" stroke-width="10" mask="url(#path-32-inside-19_271_130)"/>
<mask id="path-33-inside-20_271_130" fill="white">
<path d="M484.087 406.326C485.839 397.824 485.899 389.06 484.264 380.535C482.629 372.01 479.331 363.89 474.558 356.639C469.785 349.389 463.63 343.149 456.446 338.277C449.261 333.405 441.188 329.996 432.686 328.244C424.184 326.492 415.42 326.432 406.895 328.067C398.369 329.702 390.25 333 382.999 337.773C375.748 342.546 369.509 348.701 364.637 355.885C359.765 363.069 356.355 371.143 354.603 379.645L419.345 392.985L484.087 406.326Z"/>
</mask>
<path d="M484.087 406.326C485.839 397.824 485.899 389.06 484.264 380.535C482.629 372.01 479.331 363.89 474.558 356.639C469.785 349.389 463.63 343.149 456.446 338.277C449.261 333.405 441.188 329.996 432.686 328.244C424.184 326.492 415.42 326.432 406.895 328.067C398.369 329.702 390.25 333 382.999 337.773C375.748 342.546 369.509 348.701 364.637 355.885C359.765 363.069 356.355 371.143 354.603 379.645L419.345 392.985L484.087 406.326Z" fill="#FFE1BB" stroke="#1D1E19" stroke-width="10" mask="url(#path-33-inside-20_271_130)"/>
<mask id="path-34-inside-21_271_130" fill="white">
<path d="M474.496 404.349C475.988 397.107 476.039 389.641 474.647 382.379C473.254 375.117 470.444 368.2 466.378 362.024C462.312 355.847 457.07 350.532 450.95 346.382C444.83 342.232 437.952 339.327 430.709 337.835C423.467 336.343 416.002 336.291 408.739 337.684C401.477 339.077 394.56 341.887 388.384 345.953C382.207 350.019 376.892 355.261 372.742 361.381C368.592 367.501 365.687 374.379 364.195 381.621L419.345 392.985L474.496 404.349Z"/>
</mask>
<path d="M474.496 404.349C475.988 397.107 476.039 389.641 474.647 382.379C473.254 375.117 470.444 368.2 466.378 362.024C462.312 355.847 457.07 350.532 450.95 346.382C444.83 342.232 437.952 339.327 430.709 337.835C423.467 336.343 416.002 336.291 408.739 337.684C401.477 339.077 394.56 341.887 388.384 345.953C382.207 350.019 376.892 355.261 372.742 361.381C368.592 367.501 365.687 374.379 364.195 381.621L419.345 392.985L474.496 404.349Z" fill="#FFE1BB" stroke="#1D1E19" stroke-width="10" mask="url(#path-34-inside-21_271_130)"/>
<mask id="path-35-inside-22_271_130" fill="white">
<path d="M464.904 402.373C466.137 396.391 466.179 390.223 465.029 384.224C463.878 378.225 461.557 372.511 458.198 367.409C454.84 362.306 450.509 357.916 445.453 354.487C440.397 351.059 434.716 348.66 428.733 347.427C422.75 346.194 416.583 346.152 410.584 347.302C404.584 348.453 398.87 350.774 393.768 354.133C388.666 357.491 384.275 361.822 380.847 366.878C377.418 371.934 375.019 377.615 373.786 383.598L419.345 392.986L464.904 402.373Z"/>
</mask>
<path d="M464.904 402.373C466.137 396.391 466.179 390.223 465.029 384.224C463.878 378.225 461.557 372.511 458.198 367.409C454.84 362.306 450.509 357.916 445.453 354.487C440.397 351.059 434.716 348.66 428.733 347.427C422.75 346.194 416.583 346.152 410.584 347.302C404.584 348.453 398.87 350.774 393.768 354.133C388.666 357.491 384.275 361.822 380.847 366.878C377.418 371.934 375.019 377.615 373.786 383.598L419.345 392.986L464.904 402.373Z" fill="#FFE1BB" stroke="#1D1E19" stroke-width="10" mask="url(#path-35-inside-22_271_130)"/>
<mask id="path-36-inside-23_271_130" fill="white">
<path d="M455.313 400.397C456.286 395.673 456.32 390.805 455.411 386.068C454.503 381.332 452.671 376.821 450.019 372.793C447.367 368.765 443.948 365.299 439.957 362.592C435.965 359.885 431.48 357.991 426.757 357.018C422.033 356.044 417.165 356.011 412.428 356.919C407.692 357.828 403.181 359.66 399.153 362.312C395.125 364.964 391.659 368.383 388.952 372.374C386.245 376.365 384.351 380.851 383.378 385.574L419.345 392.985L455.313 400.397Z"/>
</mask>
<path d="M455.313 400.397C456.286 395.673 456.32 390.805 455.411 386.068C454.503 381.332 452.671 376.821 450.019 372.793C447.367 368.765 443.948 365.299 439.957 362.592C435.965 359.885 431.48 357.991 426.757 357.018C422.033 356.044 417.165 356.011 412.428 356.919C407.692 357.828 403.181 359.66 399.153 362.312C395.125 364.964 391.659 368.383 388.952 372.374C386.245 376.365 384.351 380.851 383.378 385.574L419.345 392.985L455.313 400.397Z" fill="#FFE1BB" stroke="#1D1E19" stroke-width="10" mask="url(#path-36-inside-23_271_130)"/>
<mask id="path-37-inside-24_271_130" fill="white">
<path d="M445.722 398.421C446.436 394.957 446.46 391.387 445.794 387.913C445.128 384.44 443.784 381.132 441.84 378.178C439.895 375.224 437.388 372.682 434.461 370.697C431.534 368.712 428.244 367.323 424.781 366.61C421.317 365.896 417.746 365.871 414.273 366.537C410.8 367.204 407.492 368.547 404.538 370.492C401.584 372.436 399.042 374.944 397.057 377.871C395.072 380.798 393.683 384.087 392.969 387.551L419.346 392.986L445.722 398.421Z"/>
</mask>
<path d="M445.722 398.421C446.436 394.957 446.46 391.387 445.794 387.913C445.128 384.44 443.784 381.132 441.84 378.178C439.895 375.224 437.388 372.682 434.461 370.697C431.534 368.712 428.244 367.323 424.781 366.61C421.317 365.896 417.746 365.871 414.273 366.537C410.8 367.204 407.492 368.547 404.538 370.492C401.584 372.436 399.042 374.944 397.057 377.871C395.072 380.798 393.683 384.087 392.969 387.551L419.346 392.986L445.722 398.421Z" fill="#FFE1BB" stroke="#1D1E19" stroke-width="10" mask="url(#path-37-inside-24_271_130)"/>
<path d="M281.71 391.471L179.374 370.417C179.374 370.417 173.499 427.028 219.525 434.56C265.552 442.092 281.71 391.471 281.71 391.471Z" fill="#F0E6D1" stroke="#1D1E19" stroke-width="5"/>
<path d="M275.133 390.24L185.921 371.885C185.921 371.885 180.799 421.237 220.923 427.803C261.047 434.369 275.133 390.24 275.133 390.24Z" fill="#8AC636" stroke="#1D1E19" stroke-width="5"/>
<path d="M185.74 389.512L228.339 382.167M228.339 382.167L196.023 414.973M228.339 382.167L220.015 425.746M228.339 382.167L245.966 423.787M228.339 382.167L266.531 406.16" stroke="#1D1E19" stroke-width="5"/>
<path d="M234.773 173.386C233.602 154.048 247.844 126.437 247.844 126.437C255.786 108.701 265.266 119.655 262.179 126.437C270.965 107.136 279.527 120.177 276.515 126.437C285.301 108.179 292.962 120.699 290.007 126.437C297.528 111.831 305.539 120.177 302.656 126.437C302.656 126.437 288.414 154.048 289.586 173.386C291.009 196.882 313.917 200.586 316.149 223.986C318.212 245.614 299.609 255.745 302.656 277.194C305.536 297.463 323.707 299.942 327.533 319.97C332.006 343.389 310.258 357.025 316.149 379.96C320.708 397.713 341.447 415.954 341.447 415.954H328.798H315.306H300.97H286.634C286.634 415.954 265.896 397.713 261.336 379.96C255.446 357.025 277.194 343.389 272.72 319.97C268.895 299.942 250.724 297.463 247.844 277.194C244.796 255.745 263.399 245.614 261.336 223.986C259.104 200.586 236.197 196.882 234.773 173.386Z" fill="#FFE1BB"/>
<path d="M262.179 126.437C262.179 126.437 247.937 154.048 249.109 173.386C250.532 196.882 273.44 200.586 275.672 223.986C277.735 245.614 259.132 255.745 262.179 277.194C265.059 297.463 283.23 299.942 287.056 319.97C291.529 343.389 269.781 357.025 275.672 379.96C280.231 397.713 300.97 415.954 300.97 415.954M262.179 126.437C270.965 107.136 279.527 120.177 276.515 126.437M262.179 126.437C265.266 119.655 255.786 108.701 247.844 126.437C247.844 126.437 233.602 154.048 234.773 173.386C236.197 196.882 259.104 200.586 261.336 223.986C263.399 245.614 244.796 255.745 247.844 277.194C250.724 297.463 268.895 299.942 272.72 319.97C277.194 343.389 255.446 357.025 261.336 379.96C265.896 397.713 286.634 415.954 286.634 415.954H341.447C341.447 415.954 320.708 397.713 316.149 379.96C310.258 357.025 332.006 343.389 327.533 319.97C323.707 299.942 305.536 297.463 302.656 277.194C299.609 255.745 318.212 245.614 316.149 223.986C313.917 200.586 291.009 196.882 289.586 173.386C288.414 154.048 302.656 126.437 302.656 126.437C305.539 120.177 297.528 111.831 290.007 126.437M276.515 126.437C276.515 126.437 262.273 154.048 263.444 173.386C264.868 196.882 287.775 200.586 290.007 223.986C292.07 245.614 273.468 255.745 276.515 277.194C279.395 297.463 297.566 299.942 301.392 319.97C305.865 343.389 284.117 357.025 290.007 379.96C294.567 397.713 315.306 415.954 315.306 415.954M276.515 126.437C285.301 108.179 292.962 120.699 290.007 126.437M290.007 126.437C290.007 126.437 275.765 154.048 276.937 173.386C278.36 196.882 301.268 200.586 303.5 223.986C305.563 245.614 286.96 255.745 290.007 277.194C292.887 297.463 311.058 299.942 314.884 319.97C319.357 343.389 297.609 357.025 303.5 379.96C308.059 397.713 328.798 415.954 328.798 415.954" stroke="#1D1E19" stroke-width="5"/>
<path d="M522.123 100.054C529.828 96.9029 524.113 80.5694 512.849 84.8334L221.067 218.936C214.287 222.673 219.824 231.113 224.506 228.638L522.123 100.054Z" fill="#895E3A" stroke="#1D1E19" stroke-width="5"/>
<mask id="path-44-inside-25_271_130" fill="white">
<path d="M406.398 424.298C403.661 414.714 399.063 405.764 392.866 397.958C386.67 390.151 378.996 383.642 370.284 378.801C361.572 373.96 351.992 370.883 342.09 369.745C332.189 368.606 322.16 369.43 312.577 372.167C302.994 374.904 294.043 379.503 286.237 385.699C278.431 391.896 271.921 399.569 267.081 408.281C262.24 416.993 259.163 426.574 258.024 436.475C256.886 446.376 257.709 456.405 260.446 465.988L333.422 445.143L406.398 424.298Z"/>
</mask>
<path d="M406.398 424.298C403.661 414.714 399.063 405.764 392.866 397.958C386.67 390.151 378.996 383.642 370.284 378.801C361.572 373.96 351.992 370.883 342.09 369.745C332.189 368.606 322.16 369.43 312.577 372.167C302.994 374.904 294.043 379.503 286.237 385.699C278.431 391.896 271.921 399.569 267.081 408.281C262.24 416.993 259.163 426.574 258.024 436.475C256.886 446.376 257.709 456.405 260.446 465.988L333.422 445.143L406.398 424.298Z" fill="#FFE1BB" stroke="#1D1E19" stroke-width="10" mask="url(#path-44-inside-25_271_130)"/>
<mask id="path-45-inside-26_271_130" fill="white">
<path d="M396.982 426.987C394.598 418.64 390.593 410.845 385.196 404.046C379.799 397.247 373.116 391.577 365.528 387.361C357.94 383.145 349.596 380.465 340.972 379.473C332.348 378.482 323.613 379.199 315.267 381.583C306.92 383.967 299.124 387.972 292.325 393.369C285.526 398.766 279.857 405.449 275.641 413.037C271.425 420.625 268.744 428.969 267.753 437.593C266.762 446.217 267.478 454.951 269.863 463.298L333.422 445.143L396.982 426.987Z"/>
</mask>
<path d="M396.982 426.987C394.598 418.64 390.593 410.845 385.196 404.046C379.799 397.247 373.116 391.577 365.528 387.361C357.94 383.145 349.596 380.465 340.972 379.473C332.348 378.482 323.613 379.199 315.267 381.583C306.92 383.967 299.124 387.972 292.325 393.369C285.526 398.766 279.857 405.449 275.641 413.037C271.425 420.625 268.744 428.969 267.753 437.593C266.762 446.217 267.478 454.951 269.863 463.298L333.422 445.143L396.982 426.987Z" fill="#FFE1BB" stroke="#1D1E19" stroke-width="10" mask="url(#path-45-inside-26_271_130)"/>
<mask id="path-46-inside-27_271_130" fill="white">
<path d="M387.566 429.677C385.535 422.566 382.124 415.926 377.526 410.134C372.929 404.342 367.236 399.513 360.772 395.921C354.308 392.33 347.2 390.047 339.854 389.202C332.508 388.357 325.067 388.968 317.957 390.999C310.847 393.03 304.206 396.442 298.414 401.039C292.623 405.637 287.793 411.33 284.202 417.793C280.61 424.257 278.327 431.365 277.482 438.711C276.638 446.058 277.248 453.498 279.279 460.609L333.423 445.143L387.566 429.677Z"/>
</mask>
<path d="M387.566 429.677C385.535 422.566 382.124 415.926 377.526 410.134C372.929 404.342 367.236 399.513 360.772 395.921C354.308 392.33 347.2 390.047 339.854 389.202C332.508 388.357 325.067 388.968 317.957 390.999C310.847 393.03 304.206 396.442 298.414 401.039C292.623 405.637 287.793 411.33 284.202 417.793C280.61 424.257 278.327 431.365 277.482 438.711C276.638 446.058 277.248 453.498 279.279 460.609L333.423 445.143L387.566 429.677Z" fill="#FFE1BB" stroke="#1D1E19" stroke-width="10" mask="url(#path-46-inside-27_271_130)"/>
<mask id="path-47-inside-28_271_130" fill="white">
<path d="M378.15 432.367C376.472 426.493 373.653 421.007 369.856 416.223C366.058 411.438 361.355 407.449 356.015 404.482C350.675 401.515 344.804 399.629 338.735 398.931C332.666 398.233 326.52 398.738 320.646 400.416C314.772 402.093 309.287 404.912 304.502 408.71C299.718 412.507 295.728 417.21 292.761 422.55C289.794 427.89 287.908 433.762 287.211 439.83C286.513 445.899 287.017 452.045 288.695 457.919L333.422 445.143L378.15 432.367Z"/>
</mask>
<path d="M378.15 432.367C376.472 426.493 373.653 421.007 369.856 416.223C366.058 411.438 361.355 407.449 356.015 404.482C350.675 401.515 344.804 399.629 338.735 398.931C332.666 398.233 326.52 398.738 320.646 400.416C314.772 402.093 309.287 404.912 304.502 408.71C299.718 412.507 295.728 417.21 292.761 422.55C289.794 427.89 287.908 433.762 287.211 439.83C286.513 445.899 287.017 452.045 288.695 457.919L333.422 445.143L378.15 432.367Z" fill="#FFE1BB" stroke="#1D1E19" stroke-width="10" mask="url(#path-47-inside-28_271_130)"/>
<mask id="path-48-inside-29_271_130" fill="white">
<path d="M368.733 435.055C367.409 430.418 365.184 426.088 362.185 422.31C359.187 418.533 355.474 415.383 351.259 413.041C347.043 410.699 342.408 409.21 337.617 408.659C332.826 408.108 327.973 408.506 323.336 409.831C318.699 411.156 314.368 413.381 310.591 416.379C306.813 419.377 303.664 423.09 301.321 427.306C298.979 431.521 297.49 436.157 296.939 440.948C296.389 445.739 296.787 450.591 298.111 455.228L333.422 445.142L368.733 435.055Z"/>
</mask>
<path d="M368.733 435.055C367.409 430.418 365.184 426.088 362.185 422.31C359.187 418.533 355.474 415.383 351.259 413.041C347.043 410.699 342.408 409.21 337.617 408.659C332.826 408.108 327.973 408.506 323.336 409.831C318.699 411.156 314.368 413.381 310.591 416.379C306.813 419.377 303.664 423.09 301.321 427.306C298.979 431.521 297.49 436.157 296.939 440.948C296.389 445.739 296.787 450.591 298.111 455.228L333.422 445.142L368.733 435.055Z" fill="#FFE1BB" stroke="#1D1E19" stroke-width="10" mask="url(#path-48-inside-29_271_130)"/>
<mask id="path-49-inside-30_271_130" fill="white">
<path d="M359.317 437.746C358.346 434.345 356.714 431.169 354.515 428.399C352.317 425.629 349.594 423.32 346.502 421.602C343.411 419.884 340.011 418.792 336.498 418.388C332.985 417.984 329.426 418.276 326.026 419.248C322.625 420.219 319.449 421.851 316.679 424.05C313.909 426.248 311.599 428.971 309.882 432.062C308.164 435.154 307.072 438.553 306.668 442.067C306.264 445.58 306.556 449.139 307.528 452.539L333.422 445.142L359.317 437.746Z"/>
</mask>
<path d="M359.317 437.746C358.346 434.345 356.714 431.169 354.515 428.399C352.317 425.629 349.594 423.32 346.502 421.602C343.411 419.884 340.011 418.792 336.498 418.388C332.985 417.984 329.426 418.276 326.026 419.248C322.625 420.219 319.449 421.851 316.679 424.05C313.909 426.248 311.599 428.971 309.882 432.062C308.164 435.154 307.072 438.553 306.668 442.067C306.264 445.58 306.556 449.139 307.528 452.539L333.422 445.142L359.317 437.746Z" fill="#FFE1BB" stroke="#1D1E19" stroke-width="10" mask="url(#path-49-inside-30_271_130)"/>
<path d="M437.968 377.679C437.968 377.679 447.283 395.453 440.85 403.095C436.678 408.051 425.45 409.26 425.45 409.26C425.45 409.26 425.726 427.019 418.109 433.08C411.247 438.539 395.871 436.184 395.871 436.184L393.014 455.785L378.744 452.004L384.071 433.447C384.071 433.447 367.898 423.273 366.635 416.114C365.343 408.79 372.201 397.9 372.201 397.9C372.201 397.9 360.45 388.963 360.649 380.957C360.835 373.424 371.642 365.099 371.642 365.099C371.642 365.099 366.175 354.62 367.922 348.022C369.791 340.964 380.915 334.578 380.915 334.578C380.915 334.578 376.189 319.53 382.033 313.991C386.802 309.47 398.637 311.259 398.637 311.259C398.637 311.259 405.035 289.059 421.835 293.233C436.589 296.899 433.488 316.051 433.488 316.051C433.488 316.051 443.639 319.62 446.376 325.136C450.299 333.045 439.889 346.794 439.889 346.794C439.889 346.794 447.895 356.655 447.036 363.812C446.265 370.236 437.968 377.679 437.968 377.679Z" fill="#5DC27C"/>
<path d="M384.071 433.447L411.733 332.583L395.871 436.184M384.071 433.447C384.071 433.447 367.898 423.273 366.635 416.114C365.343 408.79 372.201 397.9 372.201 397.9C372.201 397.9 360.45 388.963 360.649 380.957C360.835 373.424 371.642 365.099 371.642 365.099C371.642 365.099 366.175 354.62 367.922 348.022C369.791 340.964 380.915 334.578 380.915 334.578C380.915 334.578 376.189 319.53 382.033 313.991C386.802 309.47 398.637 311.259 398.637 311.259C398.637 311.259 405.035 289.059 421.835 293.233C436.589 296.899 433.488 316.051 433.488 316.051C433.488 316.051 443.639 319.62 446.376 325.136C450.299 333.045 439.889 346.794 439.889 346.794C439.889 346.794 447.895 356.655 447.036 363.812C446.265 370.236 437.968 377.679 437.968 377.679C437.968 377.679 447.283 395.453 440.85 403.095C436.678 408.051 425.45 409.26 425.45 409.26C425.45 409.26 425.726 427.019 418.109 433.08C411.247 438.539 395.871 436.184 395.871 436.184M384.071 433.447L378.744 452.004L393.014 455.785L395.871 436.184" stroke="#1D1E19" stroke-width="5"/>
<path d="M131.39 440.925C192.595 496.255 488.829 397.837 488.829 324.88C508.746 416.831 477.504 488.687 425.176 529.876L428.603 544.24C391.39 580.67 327.709 584.881 300.519 582.432L297.379 567.931C234.008 562.38 170.561 529.876 131.39 440.925Z" fill="#F57B45"/>
<path d="M297.379 567.931C234.008 562.38 170.561 529.876 131.39 440.925C192.595 496.255 488.829 397.837 488.829 324.88C508.746 416.831 477.504 488.687 425.176 529.876M297.379 567.931L300.519 582.432C327.709 584.881 391.39 580.67 428.603 544.24L425.176 529.876M297.379 567.931C343.429 571.964 389.267 558.141 425.176 529.876" stroke="#1D1E19" stroke-width="5"/>
</g>
<defs>
<clipPath id="clip0_271_130">
<rect width="587" height="643" fill="white"/>
</clipPath>
</defs>
</svg>
