<svg width="58" height="58" viewBox="0 0 58 58" fill="none" xmlns="http://www.w3.org/2000/svg">
<path d="M39.5194 35.2808C39.5194 35.2808 40.2344 42.1245 37.2162 43.7439C35.2588 44.7941 31.5282 43.7563 31.5282 43.7563C31.5282 43.7563 29.365 49.4495 26.17 50.4149C23.2917 51.2846 17.6021 46.5028 17.6021 46.5028C17.6021 46.5028 11.4153 40.9259 11.9203 38.4852C12.437 35.9876 16.0023 33.3873 16.0023 33.3873C16.0023 33.3873 13.3912 29.0504 14.4691 26.5248C15.4834 24.1482 19.9817 22.8655 19.9817 22.8655C19.9817 22.8655 19.5682 18.8339 20.9612 16.9532C22.4514 14.9414 26.8049 14.3167 26.8049 14.3167C26.8049 14.3167 27.2067 8.92329 29.7706 7.89911C31.8631 7.06323 35.407 9.13327 35.407 9.13327C35.407 9.13327 40.2594 2.87102 45.0832 6.33063C49.3193 9.36879 45.9037 15.0777 45.9037 15.0777C45.9037 15.0777 48.6856 17.5013 48.8583 19.6057C49.1059 22.6231 44.0464 25.6841 44.0464 25.6841C44.0464 25.6841 45.347 29.8407 44.1662 32.012C43.1063 33.9612 39.5194 35.2808 39.5194 35.2808Z" fill="#8AC636"/>
<path d="M17.6021 46.5028C17.6021 46.5028 11.4153 40.9259 11.9203 38.4852C12.437 35.9876 16.0023 33.3873 16.0023 33.3873C16.0023 33.3873 13.3912 29.0504 14.4691 26.5248C15.4834 24.1482 19.9817 22.8655 19.9817 22.8655C19.9817 22.8655 19.5682 18.8339 20.9612 16.9532C22.4514 14.9414 26.8049 14.3167 26.8049 14.3167C26.8049 14.3167 27.2067 8.92329 29.7706 7.89911C31.8631 7.06323 35.407 9.13327 35.407 9.13327C35.407 9.13327 40.2594 2.87102 45.0832 6.33063C49.3193 9.36879 45.9037 15.0777 45.9037 15.0777C45.9037 15.0777 48.6856 17.5013 48.8583 19.6057C49.1059 22.6231 44.0464 25.6841 44.0464 25.6841C44.0464 25.6841 45.347 29.8407 44.1662 32.012C43.1063 33.9612 39.5194 35.2808 39.5194 35.2808C39.5194 35.2808 40.2344 42.1245 37.2162 43.7439C35.2588 44.7941 31.5282 43.7563 31.5282 43.7563C31.5282 43.7563 29.365 49.4495 26.17 50.4149C23.2917 51.2846 17.6021 46.5028 17.6021 46.5028ZM17.6021 46.5028L11.6432 54.4059M17.6021 46.5028L22.3028 39.7276M37.9336 16.7727L27.0034 32.9523M27.0034 32.9523L27.3301 20.7809M27.0034 32.9523L22.3028 39.7276M22.3028 39.7276L31 37.5" stroke="#1D1E19" stroke-width="4"/>
</svg>
