<svg width="895" height="1030" viewBox="0 0 895 1030" fill="none" xmlns="http://www.w3.org/2000/svg">
<g clip-path="url(#clip0_395_8202)">
<path d="M811.004 482.625V598.34C811.004 601.218 808.67 603.552 805.791 603.552H755.753C752.874 603.552 750.54 605.886 750.54 608.764V612.934C750.54 615.813 752.874 618.147 755.753 618.147H808.919C817.555 618.147 824.556 611.146 824.556 602.51V482.625C824.556 479.747 822.222 477.413 819.344 477.413H816.216C813.337 477.413 811.004 479.747 811.004 482.625Z" fill="#F0E6D1" stroke="#1D1E19" stroke-width="5"/>
<rect x="75.4346" y="750.955" width="683.031" height="360.1" fill="#66AEF4" stroke="#1D1E19" stroke-width="5"/>
<rect x="169.257" y="819.343" width="495.386" height="140.946" fill="#5DC27C" stroke="#1D1E19" stroke-width="5"/>
<rect x="263.079" y="871.466" width="307.741" height="36.6988" rx="18.3494" fill="#F6CA45" stroke="#1D1E19" stroke-width="5"/>
<path d="M312.703 889.816L521.197 889.816" stroke="#1D1E19" stroke-width="5"/>
<mask id="path-6-inside-1_395_8202" fill="white">
<path d="M479.498 112.548C479.498 104.334 477.88 96.2008 474.736 88.6121C471.593 81.0234 466.986 74.1281 461.178 68.32C455.37 62.5118 448.474 57.9045 440.886 54.7612C433.297 51.6179 425.163 50 416.949 50C408.735 50 400.602 51.6179 393.013 54.7612C385.424 57.9046 378.529 62.5118 372.721 68.32C366.913 74.1281 362.306 81.0234 359.162 88.6121C356.019 96.2008 354.401 104.334 354.401 112.548L416.949 112.548H479.498Z"/>
</mask>
<path d="M479.498 112.548C479.498 104.334 477.88 96.2008 474.736 88.6121C471.593 81.0234 466.986 74.1281 461.178 68.32C455.37 62.5118 448.474 57.9045 440.886 54.7612C433.297 51.6179 425.163 50 416.949 50C408.735 50 400.602 51.6179 393.013 54.7612C385.424 57.9046 378.529 62.5118 372.721 68.32C366.913 74.1281 362.306 81.0234 359.162 88.6121C356.019 96.2008 354.401 104.334 354.401 112.548L416.949 112.548H479.498Z" fill="#F6CA45" stroke="#1D1E19" stroke-width="10" mask="url(#path-6-inside-1_395_8202)"/>
<path d="M104.209 109.836H729.691C745.583 109.836 758.466 122.719 758.466 138.61V326.882H75.4346V138.61C75.4346 122.719 88.3172 109.836 104.209 109.836Z" fill="#66AEF4" stroke="#1D1E19" stroke-width="5"/>
<rect x="127.558" y="161.959" width="578.784" height="112.799" rx="13.1371" fill="#F0E6D1" stroke="#1D1E19" stroke-width="5"/>
<path d="M240.791 181.777H211.116L205.891 201.297H221.073V226.042C221.073 227.357 220.515 228.573 219.397 229.69C218.346 230.741 217.097 231.267 215.651 231.267C214.074 231.267 212.562 230.741 211.116 229.69L205.891 247.633C207.6 248.619 209.571 249.407 211.806 249.999C214.041 250.525 216.275 250.787 218.51 250.787C225.608 250.787 231.162 248.881 235.171 245.069C238.917 241.52 240.791 236.92 240.791 231.267V181.777ZM209.933 180.199H242.368L247.79 190.058V241.126C247.79 247.041 245.753 251.97 241.678 255.914C237.34 260.12 231.425 262.223 223.932 262.223C221.435 262.223 218.97 261.895 216.538 261.238C214.172 260.646 211.806 259.627 209.44 258.181L204.018 248.323L210.229 227.127C211.477 228.047 212.529 228.704 213.383 229.098C214.304 229.493 215.059 229.69 215.651 229.69C216.703 229.69 217.59 229.361 218.313 228.704C219.102 227.981 219.496 227.094 219.496 226.042V212.733H209.243L203.821 202.874L209.933 180.199ZM293.76 181.777H261.128L255.804 201.297H261.128L247.917 248.816H269.015L271.184 239.943H289.324L291.69 248.816H313.477L293.76 181.777ZM274.437 222.592L279.859 201.297L285.577 222.592H274.437ZM259.945 180.199H294.943L300.365 190.058L320.97 260.252H295.929L291.098 251.379H277.888L275.719 260.252H251.269L245.847 250.393L257.283 209.381L253.734 202.874L259.945 180.199ZM369.599 186.016L353.037 179.016L351.854 180.594C349.488 180.068 347.483 179.805 345.84 179.805C336.047 179.805 327.667 183.256 320.7 190.157C313.734 197.058 310.25 205.405 310.25 215.198C310.25 224.991 313.701 233.37 320.602 240.337C327.503 247.304 335.883 250.787 345.741 250.787C351.131 250.787 355.962 249.933 360.234 248.224C364.506 246.45 368.153 244.084 371.177 241.126L359.938 225.549C356.257 229.361 351.558 231.267 345.84 231.267C341.765 231.267 338.249 229.657 335.291 226.437C332.334 223.216 330.855 219.47 330.855 215.198C330.855 210.926 332.301 207.212 335.193 204.057C338.15 200.903 341.699 199.325 345.84 199.325C348.929 199.325 351.755 199.917 354.318 201.1C356.159 201.954 358.032 203.236 359.938 204.945L369.599 186.016ZM352.544 177.045L371.768 185.227L377.191 195.086L365.853 217.367C363.224 215 361.055 213.39 359.346 212.536C357.046 211.353 354.351 210.761 351.262 210.761C347.516 210.761 344.328 212.174 341.699 215C339.136 217.761 337.855 221.113 337.855 225.056L338.052 227.028C340.352 228.803 342.948 229.69 345.84 229.69C348.863 229.69 351.394 229.23 353.431 228.31C355.469 227.324 357.703 225.582 360.135 223.085L373.247 241.323L378.669 251.182C375.186 254.534 371.111 257.196 366.445 259.167C361.844 261.205 356.75 262.223 351.164 262.223C344.986 262.223 339.169 260.876 333.714 258.181C328.259 255.552 324.25 252.003 321.686 247.534L312.518 231.563C311.203 229.263 310.217 226.732 309.56 223.972C308.969 221.211 308.673 218.287 308.673 215.198C308.673 205.076 312.321 196.4 319.616 189.171C326.977 181.875 335.718 178.228 345.84 178.228C346.629 178.228 347.549 178.293 348.6 178.425C349.652 178.556 350.506 178.688 351.164 178.819L352.544 177.045ZM401.105 181.777H381.387L376.261 201.297H381.387V248.816H401.105V223.873L415.006 248.816H438.371L418.555 213.423L435.413 181.777H413.527L401.302 205.832L401.105 181.777ZM374.191 202.874L380.204 180.199H402.682L407.809 189.467L412.541 180.199H438.075L443.497 190.058L425.751 223.183L441.032 250.393L446.455 260.252H419.54L408.104 239.45V260.252H385.232L379.81 250.393V212.733L374.191 202.874ZM425.751 223.282L441.032 250.393L425.751 223.282ZM446.158 201.297V248.816H465.875V234.126H470.608C478.297 234.126 484.41 231.727 488.945 226.929C493.545 222.066 495.846 216.019 495.846 208.789C495.846 201.297 493.808 195.086 489.733 190.157C485.133 184.57 478.692 181.777 470.41 181.777H446.158L441.032 201.297H446.158ZM465.875 215.888V201.297H469.622C471.528 201.297 473.007 202.086 474.058 203.663C475.11 205.175 475.636 206.883 475.636 208.789C475.636 210.893 475.208 212.536 474.354 213.719C473.302 215.165 471.659 215.888 469.425 215.888H465.875ZM438.961 202.874L444.975 180.199H470.41C476.326 180.199 481.419 181.744 485.691 184.833C489.241 187.396 492.33 191.077 494.959 195.875L498.31 201.987C499.691 204.485 500.775 207.212 501.564 210.17C502.418 213.127 502.845 215.953 502.845 218.648C502.845 226.141 500.381 232.516 495.451 237.774C490.588 242.966 484.114 245.562 476.03 245.562H472.875V260.252H450.003L444.581 250.393V212.733L438.961 202.874ZM539.043 250.787C548.836 250.787 557.216 247.304 564.183 240.337C571.149 233.37 574.633 224.991 574.633 215.198C574.633 205.405 571.149 197.058 564.183 190.157C557.216 183.256 548.836 179.805 539.043 179.805C529.25 179.805 520.87 183.256 513.903 190.157C506.937 197.058 503.453 205.405 503.453 215.198C503.453 224.991 506.937 233.37 513.903 240.337C520.87 247.304 529.25 250.787 539.043 250.787ZM539.043 231.267C534.902 231.267 531.353 229.723 528.396 226.634C525.504 223.479 524.058 219.667 524.058 215.198C524.058 210.794 525.504 207.048 528.396 203.959C531.287 200.87 534.837 199.325 539.043 199.325C543.184 199.325 546.7 200.903 549.592 204.057C552.549 207.146 554.028 210.86 554.028 215.198C554.028 219.667 552.549 223.479 549.592 226.634C546.7 229.723 543.184 231.267 539.043 231.267ZM544.465 262.223C537.498 262.223 531.123 260.449 525.339 256.9C519.621 253.351 515.119 248.553 511.833 242.506L506.707 233.338C503.486 227.751 501.876 221.704 501.876 215.198C501.876 205.076 505.523 196.4 512.819 189.171C520.18 181.875 528.921 178.228 539.043 178.228C546.338 178.228 553.009 180.199 559.056 184.143C565.168 188.086 569.736 193.311 572.76 199.818L577.295 207.804C578.478 209.841 579.496 212.503 580.351 215.789C581.205 219.01 581.632 222.099 581.632 225.056C581.632 235.244 577.985 243.985 570.689 251.28C563.394 258.576 554.652 262.223 544.465 262.223ZM539.043 229.69C542.855 229.69 546.043 228.31 548.606 225.549C551.169 222.789 552.451 219.338 552.451 215.198L552.254 212.832V213.324C549.887 211.616 547.291 210.761 544.465 210.761C540.653 210.761 537.466 212.109 534.902 214.803C532.339 217.498 531.057 220.916 531.057 225.056L531.255 227.127L530.959 226.929C533.325 228.77 536.02 229.69 539.043 229.69ZM587.223 201.297V248.816H606.941V201.297H616.996L623.01 179.016H604.476L603.096 181.777H581.407L576.28 201.297H587.223ZM585.646 250.393V212.733H579.632L574.21 202.874L580.224 180.199H602.11L603.49 177.439H625.081L630.503 187.298L623.602 212.733H613.94V260.252H591.068L585.646 250.393Z" fill="#1D1E19"/>
<circle cx="101.081" cy="301.235" r="13.1371" fill="#F6CA45" stroke="#1D1E19" stroke-width="5"/>
<circle cx="158.416" cy="301.235" r="13.1371" fill="#F6CA45" stroke="#1D1E19" stroke-width="5"/>
<circle cx="215.752" cy="301.235" r="13.1371" fill="#F6CA45" stroke="#1D1E19" stroke-width="5"/>
<circle cx="273.089" cy="301.235" r="13.1371" fill="#F6CA45" stroke="#1D1E19" stroke-width="5"/>
<circle cx="330.424" cy="301.235" r="13.1371" fill="#F6CA45" stroke="#1D1E19" stroke-width="5"/>
<circle cx="387.76" cy="301.235" r="13.1371" fill="#F6CA45" stroke="#1D1E19" stroke-width="5"/>
<circle cx="445.096" cy="301.235" r="13.1371" fill="#F6CA45" stroke="#1D1E19" stroke-width="5"/>
<circle cx="502.432" cy="301.235" r="13.1371" fill="#F6CA45" stroke="#1D1E19" stroke-width="5"/>
<circle cx="559.768" cy="301.235" r="13.1371" fill="#F6CA45" stroke="#1D1E19" stroke-width="5"/>
<circle cx="617.104" cy="301.235" r="13.1371" fill="#F6CA45" stroke="#1D1E19" stroke-width="5"/>
<circle cx="674.44" cy="301.235" r="13.1371" fill="#F6CA45" stroke="#1D1E19" stroke-width="5"/>
<circle cx="158.416" cy="135.483" r="13.1371" fill="#F6CA45" stroke="#1D1E19" stroke-width="5"/>
<circle cx="215.752" cy="135.483" r="13.1371" fill="#F6CA45" stroke="#1D1E19" stroke-width="5"/>
<circle cx="273.089" cy="135.483" r="13.1371" fill="#F6CA45" stroke="#1D1E19" stroke-width="5"/>
<circle cx="330.424" cy="135.483" r="13.1371" fill="#F6CA45" stroke="#1D1E19" stroke-width="5"/>
<circle cx="387.76" cy="135.483" r="13.1371" fill="#F6CA45" stroke="#1D1E19" stroke-width="5"/>
<circle cx="445.096" cy="135.483" r="13.1371" fill="#F6CA45" stroke="#1D1E19" stroke-width="5"/>
<circle cx="502.432" cy="135.483" r="13.1371" fill="#F6CA45" stroke="#1D1E19" stroke-width="5"/>
<circle cx="559.768" cy="135.483" r="13.1371" fill="#F6CA45" stroke="#1D1E19" stroke-width="5"/>
<circle cx="617.104" cy="135.483" r="13.1371" fill="#F6CA45" stroke="#1D1E19" stroke-width="5"/>
<circle cx="674.44" cy="135.483" r="13.1371" fill="#F6CA45" stroke="#1D1E19" stroke-width="5"/>
<circle cx="101.081" cy="135.483" r="13.1371" fill="#F6CA45" stroke="#1D1E19" stroke-width="5"/>
<circle cx="101.081" cy="190.734" r="13.1371" fill="#F6CA45" stroke="#1D1E19" stroke-width="5"/>
<circle cx="101.081" cy="245.985" r="13.1371" fill="#F6CA45" stroke="#1D1E19" stroke-width="5"/>
<circle cx="732.818" cy="301.235" r="13.1371" fill="#F6CA45" stroke="#1D1E19" stroke-width="5"/>
<circle cx="732.818" cy="135.483" r="13.1371" fill="#F6CA45" stroke="#1D1E19" stroke-width="5"/>
<circle cx="732.818" cy="190.526" r="13.1371" fill="#F6CA45" stroke="#1D1E19" stroke-width="5"/>
<circle cx="732.818" cy="245.57" r="13.1371" fill="#F6CA45" stroke="#1D1E19" stroke-width="5"/>
<mask id="path-38-inside-2_395_8202" fill="white">
<path fill-rule="evenodd" clip-rule="evenodd" d="M760.966 324.17H72.9346V753.668H760.966V324.17ZM182.394 407.568C173.758 407.568 166.757 414.569 166.757 423.205V654.634C166.757 663.27 173.758 670.271 182.394 670.271H651.506C660.142 670.271 667.143 663.27 667.143 654.634V423.205C667.143 414.569 660.142 407.568 651.506 407.568H182.394Z"/>
</mask>
<path fill-rule="evenodd" clip-rule="evenodd" d="M760.966 324.17H72.9346V753.668H760.966V324.17ZM182.394 407.568C173.758 407.568 166.757 414.569 166.757 423.205V654.634C166.757 663.27 173.758 670.271 182.394 670.271H651.506C660.142 670.271 667.143 663.27 667.143 654.634V423.205C667.143 414.569 660.142 407.568 651.506 407.568H182.394Z" fill="#66AEF4"/>
<path d="M72.9346 324.17V319.17H67.9346V324.17H72.9346ZM760.966 324.17H765.966V319.17H760.966V324.17ZM72.9346 753.668H67.9346V758.668H72.9346V753.668ZM760.966 753.668V758.668H765.966V753.668H760.966ZM72.9346 329.17H760.966V319.17H72.9346V329.17ZM77.9346 753.668V324.17H67.9346V753.668H77.9346ZM760.966 748.668H72.9346V758.668H760.966V748.668ZM755.966 324.17V753.668H765.966V324.17H755.966ZM171.757 423.205C171.757 417.33 176.519 412.568 182.394 412.568V402.568C170.996 402.568 161.757 411.807 161.757 423.205H171.757ZM171.757 654.634V423.205H161.757V654.634H171.757ZM182.394 665.271C176.519 665.271 171.757 660.508 171.757 654.634H161.757C161.757 666.031 170.996 675.271 182.394 675.271V665.271ZM651.506 665.271H182.394V675.271H651.506V665.271ZM662.143 654.634C662.143 660.508 657.381 665.271 651.506 665.271V675.271C662.904 675.271 672.143 666.031 672.143 654.634H662.143ZM662.143 423.205V654.634H672.143V423.205H662.143ZM651.506 412.568C657.381 412.568 662.143 417.33 662.143 423.205H672.143C672.143 411.807 662.904 402.568 651.506 402.568V412.568ZM182.394 412.568H651.506V402.568H182.394V412.568Z" fill="#1D1E19" mask="url(#path-38-inside-2_395_8202)"/>
<path d="M164.257 557.808V518.987L203.078 538.398L164.257 557.808Z" fill="#F49EB7" stroke="#1D1E19" stroke-width="5"/>
<path d="M669.643 557.808V518.987L630.822 538.398L669.643 557.808Z" fill="#F49EB7" stroke="#1D1E19" stroke-width="5"/>
<mask id="path-42-inside-3_395_8202" fill="white">
<path fill-rule="evenodd" clip-rule="evenodd" d="M125.058 376.294C113.543 376.294 104.208 385.628 104.208 397.143V680.695C104.208 692.21 113.543 701.545 125.058 701.545H708.842C720.357 701.545 729.691 692.21 729.691 680.695V397.143C729.691 385.628 720.357 376.294 708.842 376.294H125.058ZM182.394 407.568C173.758 407.568 166.757 414.569 166.757 423.205V654.634C166.757 663.27 173.758 670.271 182.394 670.271H651.506C660.142 670.271 667.143 663.27 667.143 654.634V423.205C667.143 414.569 660.142 407.568 651.506 407.568H182.394Z"/>
</mask>
<path fill-rule="evenodd" clip-rule="evenodd" d="M125.058 376.294C113.543 376.294 104.208 385.628 104.208 397.143V680.695C104.208 692.21 113.543 701.545 125.058 701.545H708.842C720.357 701.545 729.691 692.21 729.691 680.695V397.143C729.691 385.628 720.357 376.294 708.842 376.294H125.058ZM182.394 407.568C173.758 407.568 166.757 414.569 166.757 423.205V654.634C166.757 663.27 173.758 670.271 182.394 670.271H651.506C660.142 670.271 667.143 663.27 667.143 654.634V423.205C667.143 414.569 660.142 407.568 651.506 407.568H182.394Z" fill="#F49EB7"/>
<path d="M109.208 397.143C109.208 388.39 116.305 381.294 125.058 381.294V371.294C110.782 371.294 99.2085 382.867 99.2085 397.143H109.208ZM109.208 680.695V397.143H99.2085V680.695H109.208ZM125.058 696.545C116.305 696.545 109.208 689.449 109.208 680.695H99.2085C99.2085 694.971 110.782 706.545 125.058 706.545V696.545ZM708.842 696.545H125.058V706.545H708.842V696.545ZM724.691 680.695C724.691 689.449 717.595 696.545 708.842 696.545V706.545C723.118 706.545 734.691 694.971 734.691 680.695H724.691ZM724.691 397.143V680.695H734.691V397.143H724.691ZM708.842 381.294C717.595 381.294 724.691 388.39 724.691 397.143H734.691C734.691 382.867 723.118 371.294 708.842 371.294V381.294ZM125.058 381.294H708.842V371.294H125.058V381.294ZM171.757 423.205C171.757 417.33 176.519 412.568 182.394 412.568V402.568C170.996 402.568 161.757 411.807 161.757 423.205H171.757ZM171.757 654.634V423.205H161.757V654.634H171.757ZM182.394 665.271C176.519 665.271 171.757 660.508 171.757 654.634H161.757C161.757 666.031 170.996 675.271 182.394 675.271V665.271ZM651.506 665.271H182.394V675.271H651.506V665.271ZM662.143 654.634C662.143 660.508 657.381 665.271 651.506 665.271V675.271C662.904 675.271 672.143 666.031 672.143 654.634H662.143ZM662.143 423.205V654.634H672.143V423.205H662.143ZM651.506 412.568C657.381 412.568 662.143 417.33 662.143 423.205H672.143C672.143 411.807 662.904 402.568 651.506 402.568V412.568ZM182.394 412.568H651.506V402.568H182.394V412.568Z" fill="#1D1E19" mask="url(#path-42-inside-3_395_8202)"/>
<rect x="758.253" y="762.423" width="23.1467" height="140.946" fill="#F49EB7" stroke="#1D1E19" stroke-width="5"/>
<path d="M783.9 759.923L760.965 748.455V759.923H783.9Z" fill="#1D1E19"/>
<rect x="52.5" y="762.423" width="23.1467" height="140.946" fill="#F49EB7" stroke="#1D1E19" stroke-width="5"/>
<path d="M50.0002 759.923L72.9346 748.455V759.923H50.0002Z" fill="#1D1E19"/>
</g>
<defs>
<clipPath id="clip0_395_8202">
<rect width="895" height="1030" fill="white"/>
</clipPath>
</defs>
</svg>
