<svg width="58" height="58" viewBox="0 0 58 58" fill="none" xmlns="http://www.w3.org/2000/svg">
<path d="M33.5344 12.443L33.5344 7.24894L25.1277 7.24893L24.8781 12.4945C24.8817 16.4961 23.486 19.471 20.942 22.543L18.0632 26.0193C16.5731 27.8188 15.7542 30.0947 15.7535 32.4387L15.7535 48.7019C15.7535 51.5443 18.0577 53.8486 20.9002 53.8486L37.5781 53.8486C40.4205 53.8486 42.7248 51.5443 42.7248 48.7019L42.7248 32.1689C42.7226 29.7964 41.8824 27.5134 40.3583 25.7388L37.5673 22.489C34.97 19.4649 33.5381 16.486 33.5344 12.443Z" fill="#F6CA45" stroke="#1D1E19" stroke-width="4"/>
<path d="M32.8282 4.52438L25.7469 4.5688C24.4061 4.57721 22.8824 5.59609 22.8934 7.35437L22.9054 9.26128C22.9164 11.0196 24.4528 12.0192 25.7936 12.0108L32.8749 11.9664C34.2157 11.958 35.7394 10.9391 35.7284 9.18085L35.7164 7.27394C35.7054 5.51566 34.169 4.51597 32.8282 4.52438Z" fill="#5DC27C" stroke="#1D1E19" stroke-width="4"/>
</svg>
