<svg width="147" height="26" viewBox="0 0 147 26" fill="none" xmlns="http://www.w3.org/2000/svg">
<path d="M2.144 24V1.6H7.904V10.144L15.168 1.6H22.08L13.408 11.904L23.68 24H16.672L7.904 14.048V24H2.144ZM25.6753 24V1.6H35.6593C40.7153 1.6 43.8193 4.544 43.8193 8.608C43.8193 12.672 40.7153 15.648 35.6593 15.648H31.4353V24H25.6753ZM31.4353 10.912H35.2433C36.9073 10.912 37.9953 10.08 37.9953 8.672C37.9953 7.264 36.9073 6.464 35.2433 6.464H31.4353V10.912ZM50.9945 24.448C49.5865 24.448 48.1465 24.224 46.9945 23.584V18.656C47.9545 19.168 49.0425 19.36 49.9385 19.36C51.5385 19.36 52.3705 18.784 53.3305 16.992L44.9145 1.6H51.2825L56.1785 11.328L60.4665 1.6H66.5785L58.3545 19.072C56.1465 23.776 52.7865 24.448 50.9945 24.448ZM74.1473 24V6.656H67.4273V1.6H86.6593V6.656H79.9073V24H74.1473ZM99.2168 19.136C102.609 19.136 105.105 16.448 105.105 12.8C105.105 9.152 102.609 6.464 99.2168 6.464C95.8248 6.464 93.3288 9.152 93.3288 12.8C93.3288 16.448 95.8248 19.136 99.2168 19.136ZM99.2168 24.448C92.3368 24.448 87.4088 19.168 87.4088 12.8C87.4088 6.4 92.3368 1.152 99.2168 1.152C106.097 1.152 111.025 6.4 111.025 12.8C111.025 19.168 106.097 24.448 99.2168 24.448Z" fill="#1D1E19"/>
<path d="M133.132 3.60513C133.407 2.9884 133.545 2.68003 133.736 2.58507C133.902 2.50257 134.098 2.50257 134.264 2.58507C134.455 2.68003 134.593 2.9884 134.868 3.60513L137.057 8.51748C137.139 8.6998 137.179 8.79096 137.242 8.86077C137.298 8.92254 137.366 8.97194 137.442 9.00576C137.528 9.044 137.627 9.05447 137.825 9.07542L143.174 9.63994C143.845 9.7108 144.181 9.74624 144.331 9.89893C144.46 10.0316 144.521 10.2173 144.494 10.4009C144.463 10.6123 144.212 10.8382 143.71 11.2903L139.715 14.8908C139.567 15.0244 139.492 15.0913 139.445 15.1726C139.404 15.2447 139.378 15.3246 139.369 15.4073C139.359 15.5007 139.38 15.5983 139.421 15.7936L140.537 21.0548C140.678 21.7154 140.748 22.0456 140.649 22.2349C140.563 22.3995 140.405 22.5142 140.222 22.5452C140.011 22.5808 139.718 22.4122 139.134 22.0748L134.475 19.3877C134.302 19.2879 134.215 19.2382 134.123 19.2186C134.042 19.2014 133.958 19.2014 133.877 19.2186C133.785 19.2382 133.698 19.2879 133.525 19.3877L128.867 22.0748C128.282 22.4122 127.989 22.5808 127.778 22.5452C127.595 22.5142 127.438 22.3995 127.351 22.2349C127.252 22.0456 127.323 21.7154 127.463 21.0548L128.579 15.7936C128.62 15.5983 128.641 15.5007 128.631 15.4073C128.622 15.3246 128.596 15.2447 128.555 15.1726C128.508 15.0913 128.433 15.0244 128.285 14.8908L124.29 11.2903C123.788 10.8382 123.538 10.6123 123.506 10.4009C123.479 10.2173 123.54 10.0316 123.669 9.89893C123.819 9.74624 124.155 9.7108 124.826 9.63994L130.175 9.07542C130.373 9.05447 130.473 9.044 130.558 9.00576C130.634 8.97194 130.702 8.92254 130.758 8.86077C130.821 8.79096 130.861 8.6998 130.943 8.51748L133.132 3.60513Z" stroke="#1D1E19" stroke-width="5" stroke-linecap="round" stroke-linejoin="round"/>
</svg>
