<svg width="26" height="26" viewBox="0 0 26 26" fill="none" xmlns="http://www.w3.org/2000/svg">
<path d="M12.1324 3.60513C12.4072 2.9884 12.5447 2.68003 12.7362 2.58507C12.9024 2.50257 13.0976 2.50257 13.2639 2.58507C13.4553 2.68003 13.5928 2.9884 13.8677 3.60513L16.0573 8.51748C16.1386 8.6998 16.1793 8.79096 16.2422 8.86077C16.2978 8.92254 16.3658 8.97194 16.4417 9.00576C16.5275 9.044 16.6268 9.05447 16.8253 9.07542L22.1739 9.63994C22.8454 9.7108 23.1811 9.74624 23.3306 9.89893C23.4604 10.0316 23.5207 10.2173 23.4936 10.4009C23.4625 10.6123 23.2117 10.8382 22.7102 11.2903L18.7148 14.8908C18.5666 15.0244 18.4924 15.0913 18.4455 15.1726C18.4039 15.2447 18.3779 15.3246 18.3693 15.4073C18.3594 15.5007 18.3801 15.5983 18.4215 15.7936L19.5375 21.0548C19.6776 21.7154 19.7476 22.0456 19.6486 22.2349C19.5625 22.3995 19.4046 22.5142 19.2216 22.5452C19.0109 22.5808 18.7185 22.4122 18.1335 22.0748L13.4746 19.3877C13.3017 19.2879 13.2153 19.2382 13.1234 19.2186C13.042 19.2014 12.958 19.2014 12.8766 19.2186C12.7847 19.2382 12.6983 19.2879 12.5254 19.3877L7.8665 22.0748C7.28159 22.4122 6.98914 22.5808 6.77848 22.5452C6.59548 22.5142 6.4375 22.3995 6.35148 22.2349C6.25246 22.0456 6.32251 21.7154 6.46262 21.0548L7.57852 15.7936C7.61994 15.5983 7.64065 15.5007 7.63082 15.4073C7.62211 15.3246 7.59615 15.2447 7.55459 15.1726C7.50762 15.0913 7.43348 15.0244 7.2852 14.8908L3.28992 11.2903C2.78834 10.8382 2.53754 10.6123 2.50636 10.4009C2.47928 10.2173 2.53962 10.0316 2.66945 9.89893C2.81893 9.74624 3.15467 9.7108 3.82617 9.63994L9.17474 9.07542C9.37325 9.05447 9.4725 9.044 9.55833 9.00576C9.63426 8.97194 9.70226 8.92254 9.7579 8.86077C9.82078 8.79096 9.86141 8.6998 9.94269 8.51748L12.1324 3.60513Z" stroke="#1D1E19" stroke-width="5" stroke-linecap="round" stroke-linejoin="round"/>
</svg>
