<svg width="212" height="138" viewBox="0 0 212 138" fill="none" xmlns="http://www.w3.org/2000/svg">
<path d="M12.2193 57.3889C3.88882 47.3568 11.3929 39.6237 16.1863 37.0112L187.259 41.7138C188.085 42.7588 191.523 45.4758 198.664 47.9838C205.804 50.4918 202.322 57.3089 200.338 60.6181C207.082 65.2162 203.777 73.168 201.297 75.7806C208.438 81.6326 204.273 88.3476 201.297 90.4376C206.058 101.724 199.988 104.588 196.021 104.414C196.021 111.995 186.74 112.813 182.112 108.632C179.234 116.719 172.152 116.49 168.681 113.181C166.565 120.715 160.722 120.36 154.772 117.225C151.557 124.792 142.631 123.747 139.16 120.612C135.106 129.446 124.615 129.146 120.813 124.792C115.44 131.882 104.089 126.981 101.531 122.279C101.531 126.322 97.0515 129.538 91.467 129.446C86.7067 136.552 77.2523 133.452 73.6159 130.491C69.649 138.015 60.7235 133.278 57.2524 130.491C51.6987 135.089 43.0789 131.479 41.0954 128.344C31.9715 136.704 25.2671 128.344 24.3078 122.279C9.72413 124.348 11.2439 112.741 14.7149 105.6C4.79724 100.897 6.26906 91.0033 12.2195 87.1716C3.29359 80.379 7.92188 74.8056 10.7317 72.5415C4.38465 67.5254 9.07886 60.3497 12.2193 57.3889Z" fill="#F0E6D1"/>
<path d="M99.8967 93.3936C106.64 95.4837 104.855 106.456 102.376 110.114C105.847 113.249 104.888 120.612 101.531 122.279M101.531 122.279C101.531 126.322 97.0515 129.538 91.467 129.446C86.7067 136.552 77.2523 133.452 73.6159 130.491C69.649 138.015 60.7235 133.278 57.2524 130.491C51.6987 135.089 43.0789 131.479 41.0954 128.344C31.9715 136.704 25.2671 128.344 24.3078 122.279C9.72413 124.348 11.2439 112.741 14.7149 105.6C4.79724 100.897 6.26906 91.0033 12.2195 87.1716C3.29359 80.379 7.92188 74.8056 10.7317 72.5415C4.38465 67.5254 9.07886 60.3497 12.2193 57.3889C3.88882 47.3568 11.3929 39.6237 16.1863 37.0112L187.259 41.7138C188.085 42.7588 191.523 45.4758 198.664 47.9838C205.804 50.4918 202.322 57.3089 200.338 60.6181C207.082 65.2162 203.777 73.168 201.297 75.7806C208.438 81.6326 204.273 88.3476 201.297 90.4376C206.058 101.724 199.988 104.588 196.021 104.414C196.021 111.995 186.74 112.813 182.112 108.633C179.234 116.719 172.152 116.49 168.681 113.181C166.565 120.715 160.722 120.36 154.772 117.225C151.557 124.792 142.631 123.747 139.16 120.612C135.106 129.446 124.615 129.146 120.813 124.792C115.44 131.882 104.089 126.981 101.531 122.279ZM123.292 69.4064C127.094 68.3614 133.706 68.6749 129.739 78.289M151.557 95.5316C154.367 95.7058 159.788 94.2776 158.995 87.1716M164.945 71.4965C167.424 68.8839 173.276 65.4354 176.846 72.5415M188.251 73.5865C189.904 72.1931 192.317 68.4659 188.747 64.7039C190.565 62.7881 192.813 58.3294 187.259 55.8214M183.292 98.1441C185.11 96.925 187.953 93.2326 184.78 88.2166M111.392 120.612C113.706 119.567 118.036 116.118 116.846 110.684C118.003 109.988 120.119 107.758 119.326 104.414" stroke="#1D1E19" stroke-width="5"/>
<path d="M151.375 4.62049C136.552 3.39763 96.9025 1.68563 56.882 4.62049C31.0248 6.5167 19.2442 15.6616 14.644 24.5355C12.1243 29.3962 11.759 34.1755 12.4147 37.6377C12.4147 60.1734 95.2854 55.4563 117.014 53.36C132.165 51.8982 174.114 48.4686 189.273 48.6433C196.294 48.6433 204.463 42.061 202.136 31.8726C201.616 29.5959 200.572 27.1391 198.874 24.5355C189.576 10.2804 163.334 5.31922 151.375 4.62049Z" fill="#E30705"/>
<path d="M14.644 24.5355C12.1243 29.3962 11.759 34.1755 12.4147 37.6377C12.4147 60.1734 95.2854 55.4563 117.014 53.36C132.165 51.8982 174.114 48.4686 189.273 48.6433C196.294 48.6433 204.463 42.061 202.136 31.8726M14.644 24.5355C19.2442 15.6616 31.0248 6.5167 56.882 4.62049C96.9025 1.68563 136.552 3.39763 151.375 4.62049C163.334 5.31922 189.576 10.2804 198.874 24.5355C200.572 27.1391 201.616 29.5959 202.136 31.8726M14.644 24.5355C17.9434 30.3004 28.8877 41.935 46.2704 42.3543M52.3341 43.4025L64.9669 43.9265M70.5253 43.9265H78.1049M118.024 43.9265L127.12 43.4025M137.64 41.7821L153.81 40.2098M202.136 31.8726C198.185 35.3665 186.554 40.105 172.001 39.6858" stroke="#1D1E19" stroke-width="5"/>
</svg>
