<svg width="212" height="132" viewBox="0 0 212 132" fill="none" xmlns="http://www.w3.org/2000/svg">
<path d="M9.84667 63.2156C-1.77222 49.3928 9.6905 42.6459 16.8742 41.0003C73.7193 37.0509 189.846 30.1395 199.591 34.0889C209.336 38.0383 205.213 45.6079 201.933 48.8991C208.305 52.8485 205.213 58.1143 202.87 60.2536C211.491 65.3878 206.462 71.608 202.87 74.0764C210.366 80.3954 205.994 84.9372 202.87 86.4182C205.494 96.2917 197.717 95.4689 193.5 93.8233C192.376 105.671 183.662 103.039 179.445 100.241C177.946 109.325 171.637 108.633 168.669 107.152L134 119.001C128.753 126.11 121.819 122.95 119.008 120.482C112.262 133.12 104.016 127.51 100.736 123.125C96.2484 131.997 84.9127 127.935 78.7167 123.937C70.0963 133.021 60.7574 127.722 57.1656 123.937C50.0443 131.441 43.8913 125.418 41.7049 121.469C28.212 131.737 24.8732 123.785 22.7301 117.382C5.86399 122.516 6.87948 106.988 9.84667 99.2537C-0.273122 93.7246 5.0054 85.1018 8.90963 81.4815C0.289166 74.7675 5.94246 66.5068 9.84667 63.2156Z" fill="#F0E6D1"/>
<path d="M104.484 96.2917C111.98 106.955 106.358 112.912 102.61 114.558C102.468 118.24 101.791 121.04 100.736 123.125M99.7994 72.1017C101.83 69.3042 104.672 62.327 99.7994 56.7979M100.736 123.125C96.2484 131.997 84.9127 127.935 78.7167 123.937C70.0963 133.021 60.7574 127.722 57.1656 123.937C50.0443 131.441 43.8913 125.418 41.7049 121.469C28.212 131.737 24.8732 123.785 22.7301 117.382C5.86399 122.516 6.87948 106.988 9.84667 99.2537C-0.273122 93.7246 5.0054 85.1018 8.90963 81.4815C0.289166 74.7675 5.94246 66.5068 9.84667 63.2156C-1.77222 49.3928 9.6905 42.6459 16.8742 41.0003C73.7193 37.0509 189.846 30.1395 199.591 34.0889C209.336 38.0383 205.213 45.6079 201.933 48.8991C208.305 52.8485 205.213 58.1143 202.87 60.2536C211.491 65.3878 206.462 71.608 202.87 74.0764C210.366 80.3954 205.994 84.9372 202.87 86.4182C205.494 96.2917 197.717 95.4689 193.5 93.8233C192.376 105.671 183.662 103.039 179.445 100.241C177.946 109.325 171.637 108.633 168.669 107.152L134 119.001C128.753 126.11 121.819 122.95 119.008 120.482C112.262 133.12 104.016 127.51 100.736 123.125ZM178.508 80.4941C181.007 80.4941 185.629 79.0131 184.13 73.089M177.571 47.9117C178.508 45.4434 179.258 40.2104 174.76 39.0256M193.5 52.8485C194.749 50.7092 195.936 45.1472 190.689 43.9623M112.917 88.3929C115.572 88.3929 120.414 89.8739 118.54 95.798C121.663 97.279 125.755 101.426 117.134 106.165" stroke="#1D1E19" stroke-width="5"/>
<path d="M112.304 5.43967C87.2842 9.82594 53.025 15.2113 35.6146 15.8228C25.4306 16.1805 20.3691 19.4004 18.006 23.7216C15.4037 28.4802 16.0737 34.5743 16.7787 39.6526C17.1406 42.2596 18.9895 44.4646 21.5166 45.2003C47.7185 52.8286 67.9328 55.9614 82.4652 56.7911C96.1998 57.5753 104.859 56.3023 108.701 54.823C134.313 48.8989 187.316 36.6558 194.438 35.0761C203.339 33.1014 203.339 29.6457 203.339 19.7722C203.339 16.0632 202.513 13.3339 201.102 11.3798C199.509 9.17235 197.171 7.95412 194.438 7.4304L150.324 3.64284C137.627 2.55276 124.855 3.2392 112.304 5.43967Z" fill="#F6CA45"/>
<path d="M18.006 23.7216C15.4037 28.4802 16.0737 34.5743 16.7787 39.6526C17.1406 42.2596 18.9895 44.4646 21.5166 45.2003C47.7185 52.8286 67.9328 55.9614 82.4652 56.7911M18.006 23.7216C20.3691 19.4004 25.4306 16.1805 35.6146 15.8228C53.025 15.2113 87.2842 9.82594 112.304 5.43967C124.855 3.2392 137.627 2.55276 150.324 3.64284L194.437 7.4304C197.171 7.95412 199.509 9.17235 201.102 11.3798M18.006 23.7216C21.0508 26.0833 32.0808 28.9519 44.5164 31.1267M62.3195 33.5951C59.5085 33.1014 53.8864 32.6077 48.2644 31.6204M68.4101 34.0887L76.3746 35.0761M82.4652 56.7911C96.1998 57.5753 104.859 56.3023 108.701 54.823C134.313 48.8989 187.316 36.6558 194.437 35.0761C203.339 33.1014 203.339 29.6457 203.339 19.7722C203.339 16.0632 202.513 13.3339 201.102 11.3798M82.4652 56.7911L81.9967 39.0255M87.1502 36.0634L95.1148 35.0761M104.016 33.1014L156.957 22.7343M183.193 15.8228L201.102 11.3798" stroke="#1D1E19" stroke-width="5"/>
<path d="M65.5986 12.8606L122.288 25.2025C127.441 26.1898 133.532 26.6835 133.532 32.1139V119.494L169.138 106.658V22.2404C169.138 18.7847 164.453 14.6002 156.957 13.848C145.977 12.7461 120.726 7.75935 109.169 5.94922L65.5986 12.8606Z" fill="#1D1E19" stroke="#1D1E19" stroke-width="5"/>
</svg>
