<svg width="212" height="141" viewBox="0 0 212 141" fill="none" xmlns="http://www.w3.org/2000/svg">
<path d="M7.76706 59.6776C4.72155 55.6662 7.76706 51.3205 9.67051 49.6491L158.14 39.1191L182.884 55.1648C186.691 57.9728 184.471 61.6833 182.884 63.1876C187.453 65.9956 184.788 70.709 182.884 72.7147C187.833 75.9238 184.629 80.4032 182.409 82.2418C186.596 86.2532 184.153 90.2646 182.409 91.7689C186.977 96.9837 182.091 99.2903 179.078 99.7917C177.935 105.809 173.843 105.976 171.94 105.307C170.798 108.918 165.753 109.152 163.374 108.817C161.09 117.643 155.76 116.172 153.381 114.333C151.097 118.746 147.036 117.843 145.291 116.84C135.824 128.909 115.122 128.661 105.954 127.028C104.28 129.325 100.831 130.653 98.9059 129.639C97.9436 133.889 91.9948 134.223 90.0914 132.384C88.1879 136.396 82.9534 135.059 80.5741 133.889C77.5286 139.505 69.1534 137.566 65.3465 135.894C56.21 139.505 48.2155 135.393 45.3603 132.886C37.3659 136.496 28.658 132.478 26.7334 128.228C14.2231 126.231 14.2233 121.968 14.2235 118.136L14.2235 118.088C5.84836 113.274 7.66718 105.87 9.41194 101.357C3.70143 96.1424 5.38776 89.0054 7.76714 87.6683C0.534042 83.2557 4.91188 75.7233 7.76706 73.2161C1.67613 68.8036 5.22917 62.3519 7.76706 59.6776Z" fill="#F0E6D1"/>
<path d="M105.161 100.233C109.348 101.436 108.513 107.526 107.085 109.866C109.75 113.476 107.857 117.32 105.954 118.992C108.14 121.756 107.529 124.868 105.954 127.028M172.415 69.7062C173.843 70.709 176.222 74.0184 174.319 79.2333M173.526 84.7857C174.954 91.7689 170.671 97.8228 165.912 97.8228M105.954 127.028C104.28 129.325 100.831 130.653 98.9059 129.639C97.9436 133.889 91.9948 134.223 90.0914 132.384C88.1879 136.396 82.9534 135.059 80.5741 133.889C77.5286 139.505 69.1534 137.566 65.3465 135.894C56.21 139.505 48.2155 135.393 45.3603 132.886C37.3659 136.496 28.658 132.478 26.7334 128.228C14.1707 126.222 14.2235 121.932 14.2235 118.088C5.84836 113.274 7.66718 105.87 9.41194 101.357C3.70143 96.1424 5.38776 89.0054 7.76714 87.6683C0.534042 83.2557 4.91188 75.7233 7.76706 73.2161C1.67613 68.8036 5.22917 62.3519 7.76706 59.6776C4.72155 55.6662 7.76706 51.3205 9.67051 49.6491L158.14 39.1191L182.884 55.1648C186.691 57.9728 184.471 61.6833 182.884 63.1876C187.453 65.9956 184.788 70.709 182.884 72.7147C187.833 75.9238 184.629 80.4032 182.409 82.2418C186.596 86.2532 184.153 90.2646 182.409 91.7689C186.977 96.9837 182.091 99.2903 179.078 99.7917C177.935 105.809 173.843 105.976 171.94 105.307C170.798 108.918 165.753 109.152 163.374 108.817C161.09 117.643 155.76 116.172 153.381 114.333C151.097 118.746 147.036 117.843 145.291 116.84C135.824 128.909 115.122 128.661 105.954 127.028Z" stroke="#1D1E19" stroke-width="5"/>
<path d="M203.823 67.7005C146.719 28.5892 86.2842 95.9512 21.0919 58.6748C4.65012 49.2735 4.0621 36.4022 11.3364 27.8425C21.7993 15.5308 50.7907 6.43755 69.0744 4.40955C132.364 -0.604712 128.637 18.0592 166.706 22.0706C197.161 25.2798 207.651 41.6628 208.127 48.1813C202.834 45.0805 195.136 45.0805 193.211 45.6377C201.967 50.4514 204.14 62.8533 203.823 67.7005Z" fill="#F57B45"/>
<path d="M11.3364 27.8425C21.7993 15.5308 50.7907 6.43755 69.0744 4.40955C132.364 -0.604713 128.637 18.0592 166.706 22.0706C197.161 25.2798 207.651 41.6628 208.127 48.1813C202.834 45.0805 195.136 45.0805 193.211 45.6377C201.967 50.4514 204.14 62.8533 203.823 67.7005C146.719 28.5892 86.2842 95.9512 21.0919 58.6748C4.65012 49.2735 4.0621 36.4022 11.3364 27.8425ZM11.3364 27.8425C10.9108 33.3582 12.8111 48.646 23.4704 52.6574M29.1808 55.1646C30.9256 56.3346 34.9863 58.6748 37.2704 58.6748M43.9325 59.6774C45.3601 60.346 48.8815 61.5828 51.5463 61.1817M84.5397 60.717C86.4431 61.2184 92.6294 60.2156 96.2773 59.6774M99.1325 58.6748C118.167 55.6662 144.529 46.7408 171.939 47.142M178.76 48.1813L186.85 51.6913" stroke="#1D1E19" stroke-width="5"/>
<path d="M123.561 12.5151C112.243 -0.659621 72.4428 2.88907 62.8198 5.42409C123.128 13.4705 118.802 78.2018 114.519 126.84C122.514 130.049 139.106 122.494 146.402 118.316C154.492 44.6063 137.561 28.8128 123.561 12.5151Z" fill="#1D1E19" stroke="#1D1E19" stroke-width="5"/>
</svg>
