<svg width="482" height="159" viewBox="0 0 482 159" fill="none" xmlns="http://www.w3.org/2000/svg">
<path d="M95.5151 13.326L98.9591 0.615967H119.951L124.461 8.81596L107.651 56.458C106.394 60.066 104.48 62.7446 101.911 64.494C99.3418 66.298 96.3078 67.2 92.8091 67.2H77.3111L72.8011 59L77.8031 40.14H85.8391L68.9471 0.615967H89.3651L93.8751 8.81596L95.5151 13.326Z" fill="#F6CA45"/>
<path d="M143.11 24.724V18.164H147.62C150.298 18.164 151.638 19.2573 151.638 21.444C151.638 22.428 151.364 23.2206 150.818 23.822C150.271 24.4233 149.396 24.724 148.194 24.724H143.11ZM143.11 42.518V34.564H147.456C149.096 34.564 150.271 34.9193 150.982 35.63C151.747 36.286 152.13 37.2426 152.13 38.5C152.13 39.7573 151.774 40.7413 151.064 41.452C150.353 42.1626 149.15 42.518 147.456 42.518H143.11ZM120.724 19.476L125.726 0.615967H152.13C155.574 0.615967 158.69 1.4633 161.478 3.15796C163.992 4.68863 165.96 6.73863 167.382 9.30797L172.466 18.574C172.903 19.3393 173.231 20.296 173.45 21.444C173.668 22.5373 173.778 23.6033 173.778 24.642C173.778 26.8286 173.34 28.906 172.466 30.874C171.646 32.842 170.58 34.3726 169.268 35.466L173.532 43.01C174.133 43.994 174.543 45.142 174.762 46.454C174.98 47.7113 175.09 49.1326 175.09 50.718C175.09 55.3646 173.34 59.2733 169.842 62.444C166.343 65.6146 161.942 67.2 156.64 67.2H129.908L125.398 59V27.676L120.724 19.476Z" fill="#F6CA45"/>
<path d="M193.084 41.452V29.234H195.544C197.02 29.234 198.277 29.8353 199.316 31.038C200.409 32.186 200.956 33.5526 200.956 35.138C200.956 36.942 200.436 38.4453 199.398 39.648C198.359 40.8506 197.074 41.452 195.544 41.452H193.084ZM170.698 19.476L175.7 0.615967H194.396L198.906 8.81596V11.768C202.678 12.1506 206.122 13.49 209.238 15.786C212.408 18.082 214.896 21.034 216.7 24.642L221.374 33.17V27.676H221.046L216.536 19.476L221.702 0.615967H240.398L244.908 8.81596V67.2H225.884L221.374 59V54.818C219.515 58.5353 216.836 61.5146 213.338 63.756C209.894 66.052 206.094 67.2 201.94 67.2H179.882L175.372 59V27.676L170.698 19.476Z" fill="#F6CA45"/>
<path d="M251.292 73.35L246.782 65.15C247.055 64.822 247.684 64.002 248.668 62.69C249.324 61.8153 249.734 61.2413 249.898 60.968L246.208 54.654C245.333 53.1233 244.896 51.4286 244.896 49.57C244.896 46.8366 245.853 44.486 247.766 42.518C249.734 40.4953 252.085 39.484 254.818 39.484C256.95 39.484 258.891 40.1673 260.64 41.534C262.171 42.7366 263.483 44.3493 264.576 46.372L268.266 53.26C269.031 54.6813 269.414 56.1846 269.414 57.77C269.414 62.198 267.883 65.8333 264.822 68.676C261.487 71.792 256.977 73.35 251.292 73.35Z" fill="#F6CA45"/>
<path d="M315.089 24.724V18.164H319.599C322.277 18.164 323.617 19.2573 323.617 21.444C323.617 22.428 323.343 23.2206 322.797 23.822C322.25 24.4233 321.375 24.724 320.173 24.724H315.089ZM315.089 42.518V34.564H319.435C321.075 34.564 322.25 34.9193 322.961 35.63C323.726 36.286 324.109 37.2426 324.109 38.5C324.109 39.7573 323.753 40.7413 323.043 41.452C322.332 42.1626 321.129 42.518 319.435 42.518H315.089ZM292.703 19.476L297.705 0.615967H324.109C327.553 0.615967 330.669 1.4633 333.457 3.15796C335.971 4.68863 337.939 6.73863 339.361 9.30797L344.445 18.574C344.882 19.3393 345.21 20.296 345.429 21.444C345.647 22.5373 345.757 23.6033 345.757 24.642C345.757 26.8286 345.319 28.906 344.445 30.874C343.625 32.842 342.559 34.3726 341.247 35.466L345.511 43.01C346.112 43.994 346.522 45.142 346.741 46.454C346.959 47.7113 347.069 49.1326 347.069 50.718C347.069 55.3646 345.319 59.2733 341.821 62.444C338.322 65.6146 333.921 67.2 328.619 67.2H301.887L297.377 59V27.676L292.703 19.476Z" fill="#F6CA45"/>
<path d="M365.063 41.452V29.234H367.523C368.999 29.234 370.256 29.8353 371.295 31.038C372.388 32.186 372.935 33.5526 372.935 35.138C372.935 36.942 372.415 38.4453 371.377 39.648C370.338 40.8506 369.053 41.452 367.523 41.452H365.063ZM342.677 19.476L347.679 0.615967H366.375L370.885 8.81596V11.768C374.657 12.1506 378.101 13.49 381.217 15.786C384.387 18.082 386.875 21.034 388.679 24.642L393.353 33.17V27.676H393.025L388.515 19.476L393.681 0.615967H412.377L416.887 8.81596V67.2H397.863L393.353 59V54.818C391.494 58.5353 388.815 61.5146 385.317 63.756C381.873 66.052 378.073 67.2 373.919 67.2H351.861L347.351 59V27.676L342.677 19.476Z" fill="#F6CA45"/>
<path d="M0.161621 109.476L5.16362 90.616H53.3796L57.8896 98.816V157.2H38.8656L34.3556 149V117.676H28.3696V157.2H9.34562L4.83562 149V117.676L0.161621 109.476Z" fill="#F6CA45"/>
<path d="M78.7413 120.3V108.164H81.8573C83.4427 108.164 84.6727 108.82 85.5473 110.132C86.422 111.389 86.8593 112.811 86.8593 114.396C86.8593 116.145 86.504 117.512 85.7933 118.496C84.9187 119.699 83.552 120.3 81.6933 120.3H78.7413ZM56.3553 109.476L61.3573 90.616H82.5133C87.4333 90.616 91.67 91.9006 95.2233 94.47C98.1753 96.602 100.745 99.6633 102.931 103.654L105.719 108.738C106.867 110.815 107.769 113.084 108.425 115.544C109.136 118.004 109.491 120.355 109.491 122.596C109.491 128.828 107.441 134.131 103.341 138.504C99.296 142.823 93.9113 144.982 87.1873 144.982H84.5633V157.2H65.5393L61.0293 149V117.676L56.3553 109.476Z" fill="#F6CA45"/>
<path d="M139.599 133.092C136.155 133.092 133.203 131.807 130.743 129.238C128.337 126.614 127.135 123.443 127.135 119.726C127.135 116.063 128.337 112.947 130.743 110.378C133.148 107.809 136.1 106.524 139.599 106.524C143.043 106.524 145.967 107.836 148.373 110.46C150.833 113.029 152.063 116.118 152.063 119.726C152.063 123.443 150.833 126.614 148.373 129.238C145.967 131.807 143.043 133.092 139.599 133.092ZM144.109 158.84C138.314 158.84 133.011 157.364 128.201 154.412C123.445 151.46 119.7 147.469 116.967 142.44L112.703 134.814C110.024 130.167 108.685 125.138 108.685 119.726C108.685 111.307 111.719 104.091 117.787 98.078C123.909 92.01 131.18 88.976 139.599 88.976C145.667 88.976 151.215 90.616 156.245 93.896C161.329 97.176 165.128 101.522 167.643 106.934L171.415 113.576C172.399 115.271 173.246 117.485 173.957 120.218C174.667 122.897 175.023 125.466 175.023 127.926C175.023 136.399 171.989 143.67 165.921 149.738C159.853 155.806 152.582 158.84 144.109 158.84ZM139.599 131.78C142.769 131.78 145.421 130.632 147.553 128.336C149.685 126.04 150.751 123.17 150.751 119.726L150.587 117.758V118.168C148.619 116.747 146.459 116.036 144.109 116.036C140.938 116.036 138.287 117.157 136.155 119.398C134.023 121.639 132.957 124.482 132.957 127.926L133.121 129.648L132.875 129.484C134.843 131.015 137.084 131.78 139.599 131.78Z" fill="#F6CA45"/>
<path d="M174.261 117.676L169.751 109.476L174.917 90.616H193.613L198.123 98.816V107.18L207.471 90.616H224.117L228.627 98.816V157.2H209.603L205.093 149V146.048L198.861 157.2H179.099L174.589 149V117.676H174.261Z" fill="#F6CA45"/>
<path d="M231.82 149V117.676L227.146 109.476L232.148 90.616H249.122L250.27 88.32H268.31L272.82 96.52L267.08 117.676H255.354V157.2H236.33L231.82 149Z" fill="#F6CA45"/>
<path d="M291.032 120.3V108.164H294.148C295.733 108.164 296.963 108.82 297.838 110.132C298.712 111.389 299.15 112.811 299.15 114.396C299.15 116.145 298.794 117.512 298.084 118.496C297.209 119.699 295.842 120.3 293.984 120.3H291.032ZM268.646 109.476L273.648 90.616H294.804C299.724 90.616 303.96 91.9006 307.514 94.47C310.466 96.602 313.035 99.6633 315.222 103.654L318.01 108.738C319.158 110.815 320.06 113.084 320.716 115.544C321.426 118.004 321.782 120.355 321.782 122.596C321.782 128.828 319.732 134.131 315.632 138.504C311.586 142.823 306.202 144.982 299.478 144.982H296.854V157.2H277.83L273.32 149V117.676L268.646 109.476Z" fill="#F6CA45"/>
<path d="M338.195 125.876L342.705 108.164L347.461 125.876H338.195ZM326.141 90.616H355.251L359.761 98.816L376.899 157.2H356.071L352.053 149.82H341.065L339.261 157.2H318.925L314.415 149L323.927 114.888L320.975 109.476L326.141 90.616Z" fill="#F6CA45"/>
<path d="M385.777 90.616H409.065L413.575 98.816L431.943 157.2H412.181L407.671 149L403.161 134.322L396.437 157.2H376.839L372.329 149L383.399 114.478L380.611 109.476L385.777 90.616Z" fill="#F6CA45"/>
<path d="M427.036 117.676L422.526 109.476L427.692 90.616H446.388L450.898 98.816V107.18L460.246 90.616H476.892L481.402 98.816V157.2H462.378L457.868 149V146.048L451.636 157.2H431.874L427.364 149V117.676H427.036Z" fill="#F6CA45"/>
<path d="M88.463 1.928H70.915L87.561 40.96L87.233 41.452H78.787L74.523 57.688H88.299C91.6337 57.688 94.449 56.8953 96.745 55.31C99.041 53.7247 100.763 51.2373 101.911 47.848L118.065 1.928H99.943L95.187 19.476H94.859L88.463 1.928ZM95.515 13.326L98.959 0.615999H119.951L124.461 8.816L107.651 56.458C106.394 60.066 104.48 62.7447 101.911 64.494C99.3417 66.298 96.3077 67.2 92.809 67.2H77.311L72.801 59L77.803 40.14H85.839L68.947 0.615999H89.365L93.875 8.816L95.515 13.326ZM126.71 18.164V57.688H152.13C157.159 57.688 161.259 56.2667 164.43 53.424C167.655 50.5267 169.268 46.8913 169.268 42.518C169.268 39.1833 168.53 36.2587 167.054 33.744C165.578 31.2293 163.282 29.398 160.166 28.25C162.626 27.3207 164.539 25.79 165.906 23.658C167.272 21.526 167.956 19.1207 167.956 16.442C167.956 12.506 166.534 9.144 163.692 6.356C160.685 3.404 156.831 1.928 152.13 1.928H126.71L122.446 18.164H126.71ZM143.11 24.724V18.164H147.62C150.298 18.164 151.638 19.2573 151.638 21.444C151.638 22.428 151.364 23.2207 150.818 23.822C150.271 24.4233 149.396 24.724 148.194 24.724H143.11ZM143.11 42.518V34.564H147.456C149.096 34.564 150.271 34.9193 150.982 35.63C151.747 36.286 152.13 37.2427 152.13 38.5C152.13 39.7573 151.774 40.7413 151.064 41.452C150.353 42.1627 149.15 42.518 147.456 42.518H143.11ZM120.724 19.476L125.726 0.615999H152.13C155.574 0.615999 158.69 1.46333 161.478 3.158C163.992 4.68866 165.96 6.73866 167.382 9.308L172.466 18.574C172.903 19.3393 173.231 20.296 173.45 21.444C173.668 22.5373 173.778 23.6033 173.778 24.642C173.778 26.8287 173.34 28.906 172.466 30.874C171.646 32.842 170.58 34.3727 169.268 35.466L173.532 43.01C174.133 43.994 174.543 45.142 174.762 46.454C174.98 47.7113 175.09 49.1327 175.09 50.718C175.09 55.3647 173.34 59.2733 169.842 62.444C166.343 65.6147 161.942 67.2 156.64 67.2H129.908L125.398 59V27.676L120.724 19.476ZM193.084 1.928H176.684L172.42 18.164H176.684V57.688H197.43C203.115 57.688 207.98 55.5833 212.026 51.374C216.071 47.1647 218.094 42.0807 218.094 36.122C218.094 29.726 216.044 24.2867 211.944 19.804C207.898 15.2667 202.978 12.998 197.184 12.998H193.084V1.928ZM193.084 41.452V29.234H195.544C197.02 29.234 198.277 29.8353 199.316 31.038C200.409 32.186 200.956 33.5527 200.956 35.138C200.956 36.942 200.436 38.4453 199.398 39.648C198.359 40.8507 197.074 41.452 195.544 41.452H193.084ZM239.086 1.928H222.686L218.258 18.164H222.686V57.688H239.086V1.928ZM170.698 19.476L175.7 0.615999H194.396L198.906 8.816V11.768C202.678 12.1507 206.122 13.49 209.238 15.786C212.408 18.082 214.896 21.034 216.7 24.642L221.374 33.17V27.676H221.046L216.536 19.476L221.702 0.615999H240.398L244.908 8.816V67.2H225.884L221.374 59V54.818C219.515 58.5353 216.836 61.5147 213.338 63.756C209.894 66.052 206.094 67.2 201.94 67.2H179.882L175.372 59V27.676L170.698 19.476ZM198.578 11.768L198.168 11.686L198.578 11.768ZM252.44 57.688C252.167 58.8907 251.811 59.9293 251.374 60.804C250.991 61.7333 250.363 62.7447 249.488 63.838C253.041 63.838 256.267 62.3893 259.164 59.492C262.116 56.6493 263.592 53.342 263.592 49.57C263.592 47.1647 262.745 45.1147 261.05 43.42C259.41 41.6707 257.333 40.796 254.818 40.796C252.358 40.796 250.308 41.6433 248.668 43.338C247.028 45.0327 246.208 47.11 246.208 49.57C246.208 51.8113 246.837 53.67 248.094 55.146C249.187 56.4033 250.636 57.2507 252.44 57.688ZM251.292 73.35L246.782 65.15C247.055 64.822 247.684 64.002 248.668 62.69C249.324 61.8153 249.734 61.2413 249.898 60.968L246.208 54.654C245.333 53.1233 244.896 51.4287 244.896 49.57C244.896 46.8367 245.853 44.486 247.766 42.518C249.734 40.4953 252.085 39.484 254.818 39.484C256.95 39.484 258.891 40.1673 260.64 41.534C262.171 42.7367 263.483 44.3493 264.576 46.372L268.266 53.26C269.031 54.6813 269.414 56.1847 269.414 57.77C269.414 62.198 267.883 65.8333 264.822 68.676C261.487 71.792 256.977 73.35 251.292 73.35ZM298.689 18.164V57.688H324.109C329.138 57.688 333.238 56.2667 336.409 53.424C339.634 50.5267 341.247 46.8913 341.247 42.518C341.247 39.1833 340.509 36.2587 339.033 33.744C337.557 31.2293 335.261 29.398 332.145 28.25C334.605 27.3207 336.518 25.79 337.885 23.658C339.251 21.526 339.935 19.1207 339.935 16.442C339.935 12.506 338.513 9.144 335.671 6.356C332.664 3.404 328.81 1.928 324.109 1.928H298.689L294.425 18.164H298.689ZM315.089 24.724V18.164H319.599C322.277 18.164 323.617 19.2573 323.617 21.444C323.617 22.428 323.343 23.2207 322.797 23.822C322.25 24.4233 321.375 24.724 320.173 24.724H315.089ZM315.089 42.518V34.564H319.435C321.075 34.564 322.25 34.9193 322.961 35.63C323.726 36.286 324.109 37.2427 324.109 38.5C324.109 39.7573 323.753 40.7413 323.043 41.452C322.332 42.1627 321.129 42.518 319.435 42.518H315.089ZM292.703 19.476L297.705 0.615999H324.109C327.553 0.615999 330.669 1.46333 333.457 3.158C335.971 4.68866 337.939 6.73866 339.361 9.308L344.445 18.574C344.882 19.3393 345.21 20.296 345.429 21.444C345.647 22.5373 345.757 23.6033 345.757 24.642C345.757 26.8287 345.319 28.906 344.445 30.874C343.625 32.842 342.559 34.3727 341.247 35.466L345.511 43.01C346.112 43.994 346.522 45.142 346.741 46.454C346.959 47.7113 347.069 49.1327 347.069 50.718C347.069 55.3647 345.319 59.2733 341.821 62.444C338.322 65.6147 333.921 67.2 328.619 67.2H301.887L297.377 59V27.676L292.703 19.476ZM365.063 1.928H348.663L344.399 18.164H348.663V57.688H369.409C375.094 57.688 379.959 55.5833 384.005 51.374C388.05 47.1647 390.073 42.0807 390.073 36.122C390.073 29.726 388.023 24.2867 383.923 19.804C379.877 15.2667 374.957 12.998 369.163 12.998H365.063V1.928ZM365.063 41.452V29.234H367.523C368.999 29.234 370.256 29.8353 371.295 31.038C372.388 32.186 372.935 33.5527 372.935 35.138C372.935 36.942 372.415 38.4453 371.377 39.648C370.338 40.8507 369.053 41.452 367.523 41.452H365.063ZM411.065 1.928H394.665L390.237 18.164H394.665V57.688H411.065V1.928ZM342.677 19.476L347.679 0.615999H366.375L370.885 8.816V11.768C374.657 12.1507 378.101 13.49 381.217 15.786C384.387 18.082 386.875 21.034 388.679 24.642L393.353 33.17V27.676H393.025L388.515 19.476L393.681 0.615999H412.377L416.887 8.816V67.2H397.863L393.353 59V54.818C391.494 58.5353 388.815 61.5147 385.317 63.756C381.873 66.052 378.073 67.2 373.919 67.2H351.861L347.351 59V27.676L342.677 19.476ZM370.557 11.768L370.147 11.686L370.557 11.768ZM52.0675 91.928H6.14753L1.88353 108.164H6.14753V147.688H22.5475V108.164H35.6675V147.688H52.0675V91.928ZM0.161525 109.476L5.16353 90.616H53.3795L57.8895 98.816V157.2H38.8655L34.3555 149V117.676H28.3695V157.2H9.34553L4.83553 149V117.676L0.161525 109.476ZM62.3412 108.164V147.688H78.7412V135.47H82.6772C89.0732 135.47 94.1572 133.475 97.9292 129.484C101.756 125.439 103.669 120.409 103.669 114.396C103.669 108.164 101.975 102.998 98.5852 98.898C94.7586 94.2513 89.4012 91.928 82.5132 91.928H62.3412L58.0772 108.164H62.3412ZM78.7412 120.3V108.164H81.8572C83.4426 108.164 84.6726 108.82 85.5472 110.132C86.4219 111.389 86.8592 112.811 86.8592 114.396C86.8592 116.145 86.5039 117.512 85.7932 118.496C84.9186 119.699 83.5519 120.3 81.6932 120.3H78.7412ZM56.3552 109.476L61.3572 90.616H82.5132C87.4332 90.616 91.6699 91.9007 95.2232 94.47C98.1752 96.602 100.745 99.6633 102.931 103.654L105.719 108.738C106.867 110.815 107.769 113.084 108.425 115.544C109.136 118.004 109.491 120.355 109.491 122.596C109.491 128.828 107.441 134.131 103.341 138.504C99.2959 142.823 93.9112 144.982 87.1872 144.982H84.5632V157.2H65.5392L61.0292 149V117.676L56.3552 109.476ZM139.599 149.328C147.744 149.328 154.714 146.431 160.509 140.636C166.303 134.841 169.201 127.871 169.201 119.726C169.201 111.581 166.303 104.638 160.509 98.898C154.714 93.158 147.744 90.288 139.599 90.288C131.453 90.288 124.483 93.158 118.689 98.898C112.894 104.638 109.997 111.581 109.997 119.726C109.997 127.871 112.894 134.841 118.689 140.636C124.483 146.431 131.453 149.328 139.599 149.328ZM139.599 133.092C136.155 133.092 133.203 131.807 130.743 129.238C128.337 126.614 127.135 123.443 127.135 119.726C127.135 116.063 128.337 112.947 130.743 110.378C133.148 107.809 136.1 106.524 139.599 106.524C143.043 106.524 145.967 107.836 148.373 110.46C150.833 113.029 152.063 116.118 152.063 119.726C152.063 123.443 150.833 126.614 148.373 129.238C145.967 131.807 143.043 133.092 139.599 133.092ZM144.109 158.84C138.314 158.84 133.011 157.364 128.201 154.412C123.445 151.46 119.7 147.469 116.967 142.44L112.703 134.814C110.024 130.167 108.685 125.138 108.685 119.726C108.685 111.307 111.719 104.091 117.787 98.078C123.909 92.01 131.18 88.976 139.599 88.976C145.667 88.976 151.215 90.616 156.245 93.896C161.329 97.176 165.128 101.522 167.643 106.934L171.415 113.576C172.399 115.271 173.246 117.485 173.957 120.218C174.667 122.897 175.023 125.466 175.023 127.926C175.023 136.399 171.989 143.67 165.921 149.738C159.853 155.806 152.582 158.84 144.109 158.84ZM139.599 131.78C142.769 131.78 145.421 130.632 147.553 128.336C149.685 126.04 150.751 123.17 150.751 119.726L150.587 117.758V118.168C148.619 116.747 146.459 116.036 144.109 116.036C140.938 116.036 138.287 117.157 136.155 119.398C134.023 121.639 132.957 124.482 132.957 127.926L133.121 129.648L132.875 129.484C134.843 131.015 137.084 131.78 139.599 131.78ZM192.301 91.928H175.901L171.473 108.164H175.901V147.688H193.613L206.241 125.138L206.405 147.688H222.805V91.928H208.209L192.465 119.726L192.301 91.928ZM174.261 117.676L169.751 109.476L174.917 90.616H193.613L198.123 98.816V107.18L207.471 90.616H224.117L228.627 98.816V157.2H209.603L205.093 149V146.048L198.861 157.2H179.099L174.589 149V117.676H174.261ZM233.132 108.164V147.688H249.532V108.164H261.586L266.588 89.632H251.09L249.942 91.928H233.132L228.868 108.164H233.132ZM231.82 149V117.676L227.146 109.476L232.148 90.616H249.122L250.27 88.32H268.31L272.82 96.52L267.08 117.676H255.354V157.2H236.33L231.82 149ZM274.632 108.164V147.688H291.032V135.47H294.968C301.364 135.47 306.448 133.475 310.22 129.484C314.046 125.439 315.96 120.409 315.96 114.396C315.96 108.164 314.265 102.998 310.876 98.898C307.049 94.2513 301.692 91.928 294.804 91.928H274.632L270.368 108.164H274.632ZM291.032 120.3V108.164H294.148C295.733 108.164 296.963 108.82 297.838 110.132C298.712 111.389 299.15 112.811 299.15 114.396C299.15 116.145 298.794 117.512 298.084 118.496C297.209 119.699 295.842 120.3 293.984 120.3H291.032ZM268.646 109.476L273.648 90.616H294.804C299.724 90.616 303.96 91.9007 307.514 94.47C310.466 96.602 313.035 99.6633 315.222 103.654L318.01 108.738C319.158 110.815 320.06 113.084 320.716 115.544C321.426 118.004 321.782 120.355 321.782 122.596C321.782 128.828 319.732 134.131 315.632 138.504C311.586 142.823 306.202 144.982 299.478 144.982H296.854V157.2H277.83L273.32 149V117.676L268.646 109.476ZM354.267 91.928H327.125L322.697 108.164H327.125L316.137 147.688H333.685L335.489 140.308H350.577L352.545 147.688H370.667L354.267 91.928ZM338.195 125.876L342.705 108.164L347.461 125.876H338.195ZM326.141 90.616H355.251L359.761 98.816L376.899 157.2H356.071L352.053 149.82H341.065L339.261 157.2H318.925L314.415 149L323.927 114.888L320.975 109.476L326.141 90.616ZM408.081 91.928H386.761L382.333 108.164H386.761L374.133 147.688H390.943L399.553 118.578L408.655 147.688H425.629L408.081 91.928ZM385.777 90.616H409.065L413.575 98.816L431.943 157.2H412.181L407.671 149L403.161 134.322L396.437 157.2H376.839L372.329 149L383.399 114.478L380.611 109.476L385.777 90.616ZM445.076 91.928H428.676L424.248 108.164H428.676V147.688H446.388L459.016 125.138L459.18 147.688H475.58V91.928H460.984L445.24 119.726L445.076 91.928ZM427.036 117.676L422.526 109.476L427.692 90.616H446.388L450.898 98.816V107.18L460.246 90.616H476.892L481.402 98.816V157.2H462.378L457.868 149V146.048L451.636 157.2H431.874L427.364 149V117.676H427.036Z" fill="#1D1E19"/>
<path d="M147.553 128.336C145.421 130.632 142.77 131.78 139.599 131.78C137.084 131.78 134.843 131.015 132.875 129.484L133.121 129.648L132.957 127.926C132.957 124.482 134.023 121.639 136.155 119.398C138.287 117.157 140.938 116.036 144.109 116.036C146.46 116.036 148.619 116.747 150.587 118.168V117.758L150.751 119.726C150.751 123.17 149.685 126.04 147.553 128.336Z" fill="#FFE1BB"/>
</svg>
