<svg width="464" height="75" viewBox="0 0 464 75" fill="none" xmlns="http://www.w3.org/2000/svg">
<path d="M14.9042 3.34388H39.8962L44.7362 12.1439L64.4482 74.7999H43.2402L38.4002 65.9999L33.5602 50.2479L26.3442 74.7999H5.31217L0.472168 65.9999L12.3522 28.9519L9.36017 23.5839L14.9042 3.34388Z" fill="#5DC27C"/>
<path d="M84.1739 41.1839L89.0139 22.1759L94.1179 41.1839H84.1739ZM71.2379 3.34388H102.478L107.318 12.1439L125.71 74.7999H103.358L99.0459 66.8799H87.2539L85.3179 74.7999H63.4939L58.6539 65.9999L68.8619 29.3919L65.6939 23.5839L71.2379 3.34388Z" fill="#5DC27C"/>
<path d="M140.517 48.3119V39.9519H143.069C144.008 39.9519 144.771 40.3626 145.357 41.1839C146.003 41.9465 146.325 42.8852 146.325 43.9999C146.325 45.2319 146.032 46.2585 145.445 47.0799C144.859 47.9012 144.096 48.3119 143.157 48.3119H140.517ZM116.581 23.5839L121.861 3.34388H144.213L145.445 0.879883H164.805L169.645 9.67988L163.661 32.3839H160.229C161.285 33.3812 162.195 34.5546 162.957 35.9039L168.589 46.0239C170.173 48.8399 170.965 52.0666 170.965 55.7039C170.965 60.9252 169.117 65.4132 165.421 69.1679C161.725 72.9226 157.267 74.7999 152.045 74.7999H126.349L121.509 65.9999V32.3839L116.581 23.5839Z" fill="#5DC27C"/>
<path d="M169.893 32.3839L165.053 23.5839L170.597 3.34388H190.661L195.501 12.1439V21.1199L205.533 3.34388H223.397L228.237 12.1439V74.7999H207.821L202.981 65.9999V62.8319L196.293 74.7999H175.085L170.245 65.9999V32.3839H169.893Z" fill="#5DC27C"/>
<path d="M250.672 35.1999V22.1759H254.016C255.717 22.1759 257.037 22.8799 257.976 24.2879C258.915 25.6372 259.384 27.1625 259.384 28.8639C259.384 30.7412 259.003 32.2079 258.24 33.2639C257.301 34.5545 255.835 35.1999 253.84 35.1999H250.672ZM226.648 23.5839L232.016 3.34388H254.72C260 3.34388 264.547 4.72255 268.36 7.47988C271.528 9.76788 274.285 13.0532 276.632 17.3359L279.624 22.7919C280.856 25.0212 281.824 27.4559 282.528 30.0959C283.291 32.7359 283.672 35.2585 283.672 37.6639C283.672 44.3519 281.472 50.0425 277.072 54.7359C272.731 59.3705 266.952 61.6879 259.736 61.6879H256.92V74.7999H236.504L231.664 65.9999V32.3839L226.648 23.5839Z" fill="#5DC27C"/>
<path d="M282.454 32.3839L277.614 23.5839L283.158 3.34388H303.222L308.062 12.1439V21.1199L318.094 3.34388H335.958L340.798 12.1439V74.7999H320.382L315.542 65.9999V62.8319L308.854 74.7999H287.646L282.806 65.9999V32.3839H282.454Z" fill="#5DC27C"/>
<path d="M339.209 23.5839L344.665 3.34388H364.729L369.569 12.1439V23.5839H375.905V3.34388H396.321L401.161 12.1439V74.7999H380.745L375.905 65.9999V52.7119H369.569V74.7999H349.153L344.313 65.9999V32.3839L339.209 23.5839Z" fill="#5DC27C"/>
<path d="M409.618 65.9999V32.3839H404.25L399.41 23.5839L404.778 3.34388H424.314L425.546 0.879883H444.818L449.658 9.67988L443.498 32.3839H434.874V74.7999H414.458L409.618 65.9999Z" fill="#5DC27C"/>
<path d="M38.84 4.752H15.96L11.208 22.176H15.96L2.408 64.592H20.448L29.688 33.352L39.456 64.592H57.672L38.84 4.752ZM14.904 3.344H39.896L44.736 12.144L64.448 74.8H43.24L38.4 66L33.56 50.248L26.344 74.8H5.312L0.472 66L12.352 28.952L9.36 23.584L14.904 3.344ZM101.422 4.752H72.2938L67.5418 22.176H72.2938L60.5018 64.592H79.3338L81.2698 56.672H97.4618L99.5738 64.592H119.022L101.422 4.752ZM84.1738 41.184L89.0138 22.176L94.1178 41.184H84.1738ZM71.2378 3.344H102.478L107.318 12.144L125.71 74.8H103.358L99.0458 66.88H87.2538L85.3178 74.8H63.4938L58.6537 66L68.8618 29.392L65.6938 23.584L71.2378 3.344ZM122.917 22.176V64.592H147.205C152.074 64.592 156.21 62.8613 159.613 59.4C163.016 55.9387 164.717 51.7733 164.717 46.904C164.717 41.7413 162.986 37.312 159.525 33.616C156.064 29.92 151.869 28.072 146.941 28.072H140.517V22.176H157.765L162.957 2.288H146.325L145.093 4.752H122.917L118.429 22.176H122.917ZM140.517 48.312V39.952H143.069C144.008 39.952 144.77 40.3627 145.357 41.184C146.002 41.9467 146.325 42.8853 146.325 44C146.325 45.232 146.032 46.2587 145.445 47.08C144.858 47.9013 144.096 48.312 143.157 48.312H140.517ZM116.581 23.584L121.861 3.344H144.213L145.445 0.879999H164.805L169.645 9.68L163.661 32.384H160.229C161.285 33.3813 162.194 34.5547 162.957 35.904L168.589 46.024C170.173 48.84 170.965 52.0667 170.965 55.704C170.965 60.9253 169.117 65.4133 165.421 69.168C161.725 72.9227 157.266 74.8 152.045 74.8H126.349L121.509 66V32.384L116.581 23.584ZM189.253 4.752H171.653L166.901 22.176H171.653V64.592H190.661L204.213 40.392L204.389 64.592H221.989V4.752H206.325L189.429 34.584L189.253 4.752ZM169.893 32.384L165.053 23.584L170.597 3.344H190.661L195.501 12.144V21.12L205.533 3.344H223.397L228.237 12.144V74.8H207.821L202.981 66V62.832L196.293 74.8H175.085L170.245 66V32.384H169.893ZM233.072 22.176V64.592H250.672V51.48H254.896C261.76 51.48 267.216 49.3387 271.264 45.056C275.37 40.7147 277.424 35.3173 277.424 28.864C277.424 22.176 275.605 16.632 271.968 12.232C267.861 7.24533 262.112 4.752 254.72 4.752H233.072L228.496 22.176H233.072ZM250.672 35.2V22.176H254.016C255.717 22.176 257.037 22.88 257.976 24.288C258.914 25.6373 259.384 27.1627 259.384 28.864C259.384 30.7413 259.002 32.208 258.24 33.264C257.301 34.5547 255.834 35.2 253.84 35.2H250.672ZM226.648 23.584L232.016 3.344H254.72C260 3.344 264.546 4.72267 268.36 7.48C271.528 9.768 274.285 13.0533 276.632 17.336L279.624 22.792C280.856 25.0213 281.824 27.456 282.528 30.096C283.29 32.736 283.672 35.2587 283.672 37.664C283.672 44.352 281.472 50.0427 277.072 54.736C272.73 59.3707 266.952 61.688 259.736 61.688H256.92V74.8H236.504L231.664 66V32.384L226.648 23.584ZM301.814 4.752H284.214L279.462 22.176H284.214V64.592H303.222L316.774 40.392L316.95 64.592H334.55V4.752H318.886L301.99 34.584L301.814 4.752ZM282.454 32.384L277.614 23.584L283.158 3.344H303.222L308.062 12.144V21.12L318.094 3.344H335.958L340.798 12.144V74.8H320.382L315.542 66V62.832L308.854 74.8H287.646L282.806 66V32.384H282.454ZM363.321 4.752H345.721L341.057 22.176H345.721V64.592H363.321V42.504H377.313V64.592H394.913V4.752H377.313V24.992H363.321V4.752ZM339.209 23.584L344.665 3.344H364.729L369.569 12.144V23.584H375.905V3.344H396.321L401.161 12.144V74.8H380.745L375.905 66V52.712H369.569V74.8H349.153L344.313 66V32.384L339.209 23.584ZM411.026 22.176V64.592H428.626V22.176H437.602L442.97 2.288H426.426L425.194 4.752H405.834L401.258 22.176H411.026ZM409.618 66V32.384H404.25L399.41 23.584L404.778 3.344H424.314L425.546 0.879999H444.818L449.658 9.68L443.498 32.384H434.874V74.8H414.458L409.618 66Z" fill="#1D1E19"/>
</svg>
