<svg width="2223" height="241" viewBox="0 0 2223 241" fill="none" xmlns="http://www.w3.org/2000/svg">
<rect width="2223" height="241" fill="#F57B45"/>
<path d="M45.44 65.5841L50.896 45.3441H70.96L75.8 54.1441V65.5841H82.136V45.3441H102.552L107.392 54.1441V116.8H86.976L82.136 108V94.7121H75.8V116.8H55.384L50.544 108V74.3841L45.44 65.5841Z" fill="#66AEF4"/>
<path d="M141.809 72.0961C143.862 72.8588 145.74 74.0028 147.441 75.5281C149.201 77.0534 150.668 78.8721 151.841 80.9841L156.329 89.0801C156.857 90.0188 157.268 91.1334 157.561 92.4241C157.913 93.6561 158.089 94.8881 158.089 96.1201C158.089 102.573 155.654 107.971 150.785 112.312C146.15 116.477 140.694 118.56 134.417 118.56C127.26 118.56 119.956 116.419 112.505 112.136L107.665 103.336L112.329 83.3601C115.38 85.6481 117.99 87.2614 120.161 88.2001C122.332 89.0801 124.678 89.5201 127.201 89.5201C124.092 88.7574 121.452 87.6721 119.281 86.2641C116.758 84.6214 114.793 82.5094 113.385 79.9281L108.985 71.8321C108.164 70.4241 107.606 69.2508 107.313 68.3121C106.785 66.7281 106.521 64.8214 106.521 62.5921C106.521 57.5468 108.604 53.1174 112.769 49.3041C116.934 45.4908 121.745 43.5841 127.201 43.5841C128.492 43.5841 130.105 43.7308 132.041 44.0241C132.393 44.0241 132.833 44.1121 133.361 44.2881L134.065 42.7041L151.049 46.7521L155.889 55.5521L150.169 75.0001C147.001 73.4748 144.214 72.5068 141.809 72.0961Z" fill="#66AEF4"/>
<path d="M157.39 74.3841L152.374 65.5841L157.742 45.3441H179.566L180.798 42.8801H199.982L204.822 51.6801L200.334 71.0401L203.414 76.6721L200.334 90.2241L203.854 96.5601L198.662 116.8H162.23L157.39 108V74.3841Z" fill="#66AEF4"/>
<path d="M247.493 83.1841L252.333 64.1761L257.437 83.1841H247.493ZM234.557 45.3441H265.797L270.637 54.1441L289.029 116.8H266.677L262.365 108.88H250.573L248.637 116.8H226.813L221.973 108L232.181 71.3921L229.013 65.5841L234.557 45.3441Z" fill="#66AEF4"/>
<path d="M284.652 74.3841L279.812 65.5841L285.356 45.3441H311.756C316.039 45.3441 320.087 46.6641 323.9 49.3041C327.42 51.7681 330.295 55.0241 332.524 59.0721L336.044 65.4961C337.276 67.7841 338.186 69.9254 338.772 71.9201C339.418 73.9148 339.74 76.0854 339.74 78.4321C339.74 81.9521 338.714 85.6188 336.66 89.4321C334.666 93.2454 332.436 95.8561 329.972 97.2641L336.396 108L341.236 116.8H317.212L312.372 108L310.348 104.216V116.8H289.844L285.004 108V74.3841H284.652ZM304.1 74.7361V64.1761H309.644C311.052 64.1761 312.314 64.7041 313.428 65.7601C314.543 66.8161 315.1 68.1068 315.1 69.6321C315.1 71.0401 314.572 72.2428 313.516 73.2401C312.46 74.2374 311.17 74.7361 309.644 74.7361H304.1Z" fill="#66AEF4"/>
<path d="M343.906 108V74.3841H338.538L333.698 65.5841L339.066 45.3441H358.602L359.834 42.8801H379.106L383.946 51.6801L377.786 74.3841H369.162V116.8H348.746L343.906 108Z" fill="#66AEF4"/>
<path d="M424.799 83.1841L429.639 64.1761L434.743 83.1841H424.799ZM411.863 45.3441H443.103L447.943 54.1441L466.335 116.8H443.983L439.671 108.88H427.879L425.943 116.8H404.119L399.279 108L409.487 71.3921L406.319 65.5841L411.863 45.3441Z" fill="#66AEF4"/>
<path d="M457.118 65.5841L462.486 45.3441H483.078L495.222 66.4641V45.3441H515.638L520.478 54.1441V116.8H502.086L487.39 91.5441V116.8H466.974L462.134 108V74.3841L457.118 65.5841Z" fill="#66AEF4"/>
<path d="M542.718 89.1681V64.1761H545.446C548.145 64.1761 550.462 65.3788 552.398 67.7841C554.334 70.1894 555.302 73.1228 555.302 76.5841C555.302 79.8694 554.364 82.8028 552.486 85.3841C550.668 87.9068 548.468 89.1681 545.886 89.1681H542.718ZM518.694 65.5841L524.062 45.3441H547.998C552.633 45.3441 556.974 46.6641 561.022 49.3041C565.07 51.8854 568.326 55.3761 570.79 59.7761L577.302 72.2721C578.124 73.7974 578.769 75.7628 579.238 78.1681C579.708 80.5148 579.942 82.8908 579.942 85.2961C579.942 93.8614 577.273 101.253 571.934 107.472C566.596 113.691 560.172 116.8 552.662 116.8H528.55L523.71 108V74.3841L518.694 65.5841ZM548.966 74.3841V86.8801C550.374 86.0001 551.548 84.6214 552.486 82.7441C553.425 80.8081 553.894 78.7548 553.894 76.5841V75.3521C552.78 74.7068 551.577 74.3841 550.286 74.3841H548.966Z" fill="#66AEF4"/>
<path d="M69.464 168.168V143.176H72.192C74.8907 143.176 77.208 144.379 79.144 146.784C81.08 149.189 82.048 152.123 82.048 155.584C82.048 158.869 81.1093 161.803 79.232 164.384C77.4133 166.907 75.2133 168.168 72.632 168.168H69.464ZM45.44 144.584L50.808 124.344H74.744C79.3787 124.344 83.72 125.664 87.768 128.304C91.816 130.885 95.072 134.376 97.536 138.776L104.048 151.272C104.869 152.797 105.515 154.763 105.984 157.168C106.453 159.515 106.688 161.891 106.688 164.296C106.688 172.861 104.019 180.253 98.68 186.472C93.3413 192.691 86.9173 195.8 79.408 195.8H55.296L50.456 187V153.384L45.44 144.584ZM75.712 153.384V165.88C77.12 165 78.2933 163.621 79.232 161.744C80.1707 159.808 80.64 157.755 80.64 155.584V154.352C79.5253 153.707 78.3227 153.384 77.032 153.384H75.712Z" fill="#66AEF4"/>
<path d="M105.975 153.384L100.959 144.584L106.327 124.344H128.151L129.383 121.88H148.567L153.407 130.68L148.919 150.04L151.999 155.672L148.919 169.224L152.439 175.56L147.247 195.8H110.815L105.975 187V153.384Z" fill="#66AEF4"/>
<path d="M185.231 151.096C187.285 151.859 189.162 153.003 190.863 154.528C192.623 156.053 194.09 157.872 195.263 159.984L199.751 168.08C200.279 169.019 200.69 170.133 200.983 171.424C201.335 172.656 201.511 173.888 201.511 175.12C201.511 181.573 199.077 186.971 194.207 191.312C189.573 195.477 184.117 197.56 177.839 197.56C170.682 197.56 163.378 195.419 155.927 191.136L151.087 182.336L155.751 162.36C158.802 164.648 161.413 166.261 163.583 167.2C165.754 168.08 168.101 168.52 170.623 168.52C167.514 167.757 164.874 166.672 162.703 165.264C160.181 163.621 158.215 161.509 156.807 158.928L152.407 150.832C151.586 149.424 151.029 148.251 150.735 147.312C150.207 145.728 149.943 143.821 149.943 141.592C149.943 136.547 152.026 132.117 156.191 128.304C160.357 124.491 165.167 122.584 170.623 122.584C171.914 122.584 173.527 122.731 175.463 123.024C175.815 123.024 176.255 123.112 176.783 123.288L177.487 121.704L194.471 125.752L199.311 134.552L193.591 154C190.423 152.475 187.637 151.507 185.231 151.096Z" fill="#66AEF4"/>
<path d="M200.636 153.384L195.796 144.584L201.34 124.344H221.404L226.244 133.144V195.8H205.828L200.988 187V153.384H200.636Z" fill="#66AEF4"/>
<path d="M258.074 168.52L259.218 168.344L256.754 164.032L260.626 151.888C257.927 152.475 255.698 153.941 253.938 156.288C252.237 158.576 251.386 161.333 251.386 164.56L251.562 166.408C253.557 167.816 255.727 168.52 258.074 168.52ZM282.714 131.736L287.554 140.536L279.81 149.16H290.194L295.034 157.96C295.269 158.84 295.445 159.867 295.562 161.04C295.679 162.155 295.738 163.328 295.738 164.56C295.738 173.595 292.453 181.339 285.882 187.792C279.37 194.304 271.597 197.56 262.562 197.56C256.637 197.56 251.181 196.064 246.194 193.072C241.207 190.139 237.335 186.12 234.578 181.016L230.002 172.656C228.477 170.075 227.303 167.405 226.482 164.648C225.719 161.832 225.338 158.869 225.338 155.76C225.338 146.667 228.565 138.864 235.018 132.352C241.471 125.84 249.157 122.584 258.074 122.584C259.951 122.584 261.506 122.643 262.738 122.76C263.97 122.819 265.202 123.024 266.434 123.376L268.37 121.528L282.714 131.736Z" fill="#66AEF4"/>
<path d="M289.582 144.584L294.95 124.344H315.542L327.686 145.464V124.344H348.102L352.942 133.144V195.8H334.55L319.854 170.544V195.8H299.438L294.598 187V153.384L289.582 144.584Z" fill="#66AEF4"/>
<path d="M411.46 151.096C413.514 151.859 415.391 153.003 417.092 154.528C418.852 156.053 420.319 157.872 421.492 159.984L425.98 168.08C426.508 169.019 426.919 170.133 427.212 171.424C427.564 172.656 427.74 173.888 427.74 175.12C427.74 181.573 425.306 186.971 420.436 191.312C415.802 195.477 410.346 197.56 404.068 197.56C396.911 197.56 389.607 195.419 382.156 191.136L377.316 182.336L381.98 162.36C385.031 164.648 387.642 166.261 389.812 167.2C391.983 168.08 394.33 168.52 396.852 168.52C393.743 167.757 391.103 166.672 388.932 165.264C386.41 163.621 384.444 161.509 383.036 158.928L378.636 150.832C377.815 149.424 377.258 148.251 376.964 147.312C376.436 145.728 376.172 143.821 376.172 141.592C376.172 136.547 378.255 132.117 382.42 128.304C386.586 124.491 391.396 122.584 396.852 122.584C398.143 122.584 399.756 122.731 401.692 123.024C402.044 123.024 402.484 123.112 403.012 123.288L403.716 121.704L420.7 125.752L425.54 134.552L419.82 154C416.652 152.475 413.866 151.507 411.46 151.096Z" fill="#66AEF4"/>
<path d="M462.065 121.528L479.225 128.832L484.065 137.632L473.945 157.52C471.598 155.408 469.662 153.971 468.137 153.208C466.084 152.152 463.678 151.624 460.921 151.624C457.577 151.624 454.732 152.885 452.385 155.408C450.097 157.872 448.953 160.864 448.953 164.384L449.129 166.144C451.182 167.728 453.5 168.52 456.081 168.52C458.78 168.52 461.038 168.109 462.857 167.288C464.676 166.408 466.67 164.853 468.841 162.624L480.545 178.904L485.385 187.704C482.276 190.696 478.638 193.072 474.473 194.832C470.366 196.651 465.82 197.56 460.833 197.56C455.318 197.56 450.126 196.357 445.257 193.952C440.388 191.605 436.809 188.437 434.521 184.448L426.337 170.192C425.164 168.139 424.284 165.88 423.697 163.416C423.169 160.952 422.905 158.341 422.905 155.584C422.905 146.549 426.161 138.805 432.673 132.352C439.244 125.84 447.046 122.584 456.081 122.584C456.785 122.584 457.606 122.643 458.545 122.76C459.484 122.877 460.246 122.995 460.833 123.112L462.065 121.528Z" fill="#66AEF4"/>
<path d="M511.043 169.928C507.347 169.928 504.179 168.549 501.539 165.792C498.958 162.976 497.667 159.573 497.667 155.584C497.667 151.653 498.958 148.309 501.539 145.552C504.121 142.795 507.289 141.416 511.043 141.416C514.739 141.416 517.878 142.824 520.459 145.64C523.099 148.397 524.419 151.712 524.419 155.584C524.419 159.573 523.099 162.976 520.459 165.792C517.878 168.549 514.739 169.928 511.043 169.928ZM515.883 197.56C509.665 197.56 503.974 195.976 498.811 192.808C493.707 189.64 489.689 185.357 486.755 179.96L482.179 171.776C479.305 166.789 477.867 161.392 477.867 155.584C477.867 146.549 481.123 138.805 487.635 132.352C494.206 125.84 502.009 122.584 511.043 122.584C517.555 122.584 523.51 124.344 528.907 127.864C534.363 131.384 538.441 136.048 541.139 141.856L545.187 148.984C546.243 150.803 547.153 153.179 547.915 156.112C548.678 158.987 549.059 161.744 549.059 164.384C549.059 173.477 545.803 181.28 539.291 187.792C532.779 194.304 524.977 197.56 515.883 197.56ZM511.043 168.52C514.446 168.52 517.291 167.288 519.579 164.824C521.867 162.36 523.011 159.28 523.011 155.584L522.835 153.472V153.912C520.723 152.387 518.406 151.624 515.883 151.624C512.481 151.624 509.635 152.827 507.347 155.232C505.059 157.637 503.915 160.688 503.915 164.384L504.091 166.232L503.827 166.056C505.939 167.699 508.345 168.52 511.043 168.52Z" fill="#66AEF4"/>
<path d="M580.89 169.928C577.194 169.928 574.026 168.549 571.386 165.792C568.804 162.976 567.514 159.573 567.514 155.584C567.514 151.653 568.804 148.309 571.386 145.552C573.967 142.795 577.135 141.416 580.89 141.416C584.586 141.416 587.724 142.824 590.306 145.64C592.946 148.397 594.266 151.712 594.266 155.584C594.266 159.573 592.946 162.976 590.306 165.792C587.724 168.549 584.586 169.928 580.89 169.928ZM585.73 197.56C579.511 197.56 573.82 195.976 568.658 192.808C563.554 189.64 559.535 185.357 556.602 179.96L552.026 171.776C549.151 166.789 547.714 161.392 547.714 155.584C547.714 146.549 550.97 138.805 557.482 132.352C564.052 125.84 571.855 122.584 580.89 122.584C587.402 122.584 593.356 124.344 598.754 127.864C604.21 131.384 608.287 136.048 610.986 141.856L615.034 148.984C616.09 150.803 616.999 153.179 617.762 156.112C618.524 158.987 618.906 161.744 618.906 164.384C618.906 173.477 615.65 181.28 609.138 187.792C602.626 194.304 594.823 197.56 585.73 197.56ZM580.89 168.52C584.292 168.52 587.138 167.288 589.426 164.824C591.714 162.36 592.858 159.28 592.858 155.584L592.682 153.472V153.912C590.57 152.387 588.252 151.624 585.73 151.624C582.327 151.624 579.482 152.827 577.194 155.232C574.906 157.637 573.762 160.688 573.762 164.384L573.938 166.232L573.674 166.056C575.786 167.699 578.191 168.52 580.89 168.52Z" fill="#66AEF4"/>
<path d="M613.16 144.584L618.528 124.344H638.592L643.432 133.144V166.76H651.704L656.544 175.56L650.384 195.8H623.016L618.176 187V153.384L613.16 144.584Z" fill="#66AEF4"/>
<path d="M69.552 46.752H51.952L47.288 64.176H51.952V106.592H69.552V84.504H83.544V106.592H101.144V46.752H83.544V66.992H69.552V46.752ZM45.44 65.584L50.896 45.344H70.96L75.8 54.144V65.584H82.136V45.344H102.552L107.392 54.144V116.8H86.976L82.136 108V94.712H75.8V116.8H55.384L50.544 108V74.384L45.44 65.584ZM149.289 47.808L134.857 44.376L134.153 45.96C133.332 45.7253 132.217 45.52 130.809 45.344C129.401 45.1093 128.198 44.992 127.201 44.992C122.038 44.992 117.521 46.752 113.649 50.272C109.836 53.7333 107.929 57.84 107.929 62.592C107.929 67.9893 110.129 72.184 114.529 75.176C115.996 76.1733 120.073 77.992 126.761 80.632C131.22 82.392 133.449 84.416 133.449 86.704C133.449 88.112 132.804 89.168 131.513 89.872C130.281 90.576 128.844 90.928 127.201 90.928C124.62 90.928 122.214 90.5173 119.985 89.696C117.756 88.816 115.497 87.5253 113.209 85.824L109.249 102.632C115.878 106.445 122.654 108.352 129.577 108.352C135.502 108.352 140.636 106.416 144.977 102.544C149.553 98.496 151.841 93.4213 151.841 87.32C151.841 82.8613 149.729 79.136 145.505 76.144C143.921 75.0293 139.961 73.0347 133.625 70.16C129.342 68.224 127.201 66.376 127.201 64.616C127.201 63.736 127.582 63.0027 128.345 62.416C129.166 61.7707 130.134 61.448 131.249 61.448C136.06 61.448 140.46 62.3573 144.449 64.176L149.289 47.808ZM141.809 72.096C143.862 72.8587 145.74 74.0027 147.441 75.528C149.201 77.0533 150.668 78.872 151.841 80.984L156.329 89.08C156.857 90.0187 157.268 91.1333 157.561 92.424C157.913 93.656 158.089 94.888 158.089 96.12C158.089 102.573 155.654 107.971 150.785 112.312C146.15 116.477 140.694 118.56 134.417 118.56C127.26 118.56 119.956 116.419 112.505 112.136L107.665 103.336L112.329 83.36C115.38 85.648 117.99 87.2613 120.161 88.2C122.332 89.08 124.678 89.52 127.201 89.52C124.092 88.7573 121.452 87.672 119.281 86.264C116.758 84.6213 114.793 82.5093 113.385 79.928L108.985 71.832C108.164 70.424 107.606 69.2507 107.313 68.312C106.785 66.728 106.521 64.8213 106.521 62.592C106.521 57.5467 108.604 53.1173 112.769 49.304C116.934 45.4907 121.745 43.584 127.201 43.584C128.492 43.584 130.105 43.7307 132.041 44.024C132.393 44.024 132.833 44.112 133.361 44.288L134.065 42.704L151.049 46.752L155.889 55.552L150.169 75C147.001 73.4747 144.214 72.5067 141.809 72.096ZM158.798 64.176V106.592H192.766L197.166 89.168H176.398V83.536H193.558L196.814 69.28H176.398V64.176H193.558L198.222 44.288H181.678L180.446 46.752H158.798L154.222 64.176H158.798ZM157.39 74.384L152.374 65.584L157.742 45.344H179.566L180.798 42.88H199.982L204.822 51.68L200.334 71.04L203.414 76.672L200.334 90.224L203.854 96.56L198.662 116.8H162.23L157.39 108V74.384ZM264.741 46.752H235.613L230.861 64.176H235.613L223.821 106.592H242.653L244.589 98.672H260.781L262.893 106.592H282.341L264.741 46.752ZM247.493 83.184L252.333 64.176L257.437 83.184H247.493ZM234.557 45.344H265.797L270.637 54.144L289.029 116.8H266.677L262.365 108.88H250.573L248.637 116.8H226.813L221.973 108L232.181 71.392L229.013 65.584L234.557 45.344ZM284.652 74.384L279.812 65.584L285.356 45.344H311.756C316.039 45.344 320.087 46.664 323.9 49.304C327.42 51.768 330.295 55.024 332.524 59.072L336.044 65.496C337.276 67.784 338.186 69.9253 338.772 71.92C339.418 73.9147 339.74 76.0853 339.74 78.432C339.74 81.952 338.714 85.6187 336.66 89.432C334.666 93.2453 332.436 95.856 329.972 97.264L336.396 108L341.236 116.8H317.212L312.372 108L310.348 104.216V116.8H289.844L285.004 108V74.384H284.652ZM286.412 64.176V106.592H304.1V90.224H304.452L313.252 106.592H333.932L322.932 88.112C325.748 86.5867 328.212 84.0053 330.324 80.368C332.436 76.7307 333.492 73.152 333.492 69.632C333.492 63.296 331.38 57.8987 327.156 53.44C322.932 48.9813 317.799 46.752 311.756 46.752H286.412L281.66 64.176H286.412ZM304.1 74.736V64.176H309.644C311.052 64.176 312.314 64.704 313.428 65.76C314.543 66.816 315.1 68.1067 315.1 69.632C315.1 71.04 314.572 72.2427 313.516 73.24C312.46 74.2373 311.17 74.736 309.644 74.736H304.1ZM345.314 64.176V106.592H362.914V64.176H371.89L377.258 44.288H360.714L359.482 46.752H340.122L335.546 64.176H345.314ZM343.906 108V74.384H338.538L333.698 65.584L339.066 45.344H358.602L359.834 42.88H379.106L383.946 51.68L377.786 74.384H369.162V116.8H348.746L343.906 108ZM442.047 46.752H412.919L408.167 64.176H412.919L401.127 106.592H419.959L421.895 98.672H438.087L440.199 106.592H459.647L442.047 46.752ZM424.799 83.184L429.639 64.176L434.743 83.184H424.799ZM411.863 45.344H443.103L447.943 54.144L466.335 116.8H443.983L439.671 108.88H427.879L425.943 116.8H404.119L399.279 108L409.487 71.392L406.319 65.584L411.863 45.344ZM482.286 46.752H463.542L458.966 64.176H463.542V106.592H481.142V77.904L498.038 106.592H514.23V46.752H496.63V71.392L482.286 46.752ZM457.118 65.584L462.486 45.344H483.078L495.222 66.464V45.344H515.638L520.478 54.144V116.8H502.086L487.39 91.544V116.8H466.974L462.134 108V74.384L457.118 65.584ZM525.118 64.176V106.592H547.822C554.98 106.592 561.081 103.659 566.126 97.792C571.172 91.9253 573.694 84.8267 573.694 76.496C573.694 68.224 571.172 61.2133 566.126 55.464C561.14 49.656 555.097 46.752 547.998 46.752H525.118L520.542 64.176H525.118ZM542.718 89.168V64.176H545.446C548.145 64.176 550.462 65.3787 552.398 67.784C554.334 70.1893 555.302 73.1227 555.302 76.584C555.302 79.8693 554.364 82.8027 552.486 85.384C550.668 87.9067 548.468 89.168 545.886 89.168H542.718ZM518.694 65.584L524.062 45.344H547.998C552.633 45.344 556.974 46.664 561.022 49.304C565.07 51.8853 568.326 55.376 570.79 59.776L577.302 72.272C578.124 73.7973 578.769 75.7627 579.238 78.168C579.708 80.5147 579.942 82.8907 579.942 85.296C579.942 93.8613 577.273 101.253 571.934 107.472C566.596 113.691 560.172 116.8 552.662 116.8H528.55L523.71 108V74.384L518.694 65.584ZM548.966 74.384V86.88C550.374 86 551.548 84.6213 552.486 82.744C553.425 80.808 553.894 78.7547 553.894 76.584V75.352C552.78 74.7067 551.577 74.384 550.286 74.384H548.966ZM51.864 143.176V185.592H74.568C81.7253 185.592 87.8267 182.659 92.872 176.792C97.9173 170.925 100.44 163.827 100.44 155.496C100.44 147.224 97.9173 140.213 92.872 134.464C87.8853 128.656 81.8427 125.752 74.744 125.752H51.864L47.288 143.176H51.864ZM69.464 168.168V143.176H72.192C74.8907 143.176 77.208 144.379 79.144 146.784C81.08 149.189 82.048 152.123 82.048 155.584C82.048 158.869 81.1093 161.803 79.232 164.384C77.4133 166.907 75.2133 168.168 72.632 168.168H69.464ZM45.44 144.584L50.808 124.344H74.744C79.3787 124.344 83.72 125.664 87.768 128.304C91.816 130.885 95.072 134.376 97.536 138.776L104.048 151.272C104.869 152.797 105.515 154.763 105.984 157.168C106.453 159.515 106.688 161.891 106.688 164.296C106.688 172.861 104.019 180.253 98.68 186.472C93.3413 192.691 86.9173 195.8 79.408 195.8H55.296L50.456 187V153.384L45.44 144.584ZM75.712 153.384V165.88C77.12 165 78.2933 163.621 79.232 161.744C80.1707 159.808 80.64 157.755 80.64 155.584V154.352C79.5253 153.707 78.3227 153.384 77.032 153.384H75.712ZM107.383 143.176V185.592H141.351L145.751 168.168H124.983V162.536H142.143L145.399 148.28H124.983V143.176H142.143L146.807 123.288H130.263L129.031 125.752H107.383L102.807 143.176H107.383ZM105.975 153.384L100.959 144.584L106.327 124.344H128.151L129.383 121.88H148.567L153.407 130.68L148.919 150.04L151.999 155.672L148.919 169.224L152.439 175.56L147.247 195.8H110.815L105.975 187V153.384ZM192.711 126.808L178.279 123.376L177.575 124.96C176.754 124.725 175.639 124.52 174.231 124.344C172.823 124.109 171.621 123.992 170.623 123.992C165.461 123.992 160.943 125.752 157.071 129.272C153.258 132.733 151.351 136.84 151.351 141.592C151.351 146.989 153.551 151.184 157.951 154.176C159.418 155.173 163.495 156.992 170.183 159.632C174.642 161.392 176.871 163.416 176.871 165.704C176.871 167.112 176.226 168.168 174.935 168.872C173.703 169.576 172.266 169.928 170.623 169.928C168.042 169.928 165.637 169.517 163.407 168.696C161.178 167.816 158.919 166.525 156.631 164.824L152.671 181.632C159.301 185.445 166.077 187.352 172.999 187.352C178.925 187.352 184.058 185.416 188.399 181.544C192.975 177.496 195.263 172.421 195.263 166.32C195.263 161.861 193.151 158.136 188.927 155.144C187.343 154.029 183.383 152.035 177.047 149.16C172.765 147.224 170.623 145.376 170.623 143.616C170.623 142.736 171.005 142.003 171.767 141.416C172.589 140.771 173.557 140.448 174.671 140.448C179.482 140.448 183.882 141.357 187.871 143.176L192.711 126.808ZM185.231 151.096C187.285 151.859 189.162 153.003 190.863 154.528C192.623 156.053 194.09 157.872 195.263 159.984L199.751 168.08C200.279 169.019 200.69 170.133 200.983 171.424C201.335 172.656 201.511 173.888 201.511 175.12C201.511 181.573 199.077 186.971 194.207 191.312C189.573 195.477 184.117 197.56 177.839 197.56C170.682 197.56 163.378 195.419 155.927 191.136L151.087 182.336L155.751 162.36C158.802 164.648 161.413 166.261 163.583 167.2C165.754 168.08 168.101 168.52 170.623 168.52C167.514 167.757 164.874 166.672 162.703 165.264C160.181 163.621 158.215 161.509 156.807 158.928L152.407 150.832C151.586 149.424 151.029 148.251 150.735 147.312C150.207 145.728 149.943 143.821 149.943 141.592C149.943 136.547 152.026 132.117 156.191 128.304C160.357 124.491 165.167 122.584 170.623 122.584C171.914 122.584 173.527 122.731 175.463 123.024C175.815 123.024 176.255 123.112 176.783 123.288L177.487 121.704L194.471 125.752L199.311 134.552L193.591 154C190.423 152.475 187.637 151.507 185.231 151.096ZM219.996 125.752H202.396L197.644 143.176H202.396V185.592H219.996V125.752ZM200.636 153.384L195.796 144.584L201.34 124.344H221.404L226.244 133.144V195.8H205.828L200.988 187V153.384H200.636ZM289.138 150.568H262.562L258.602 162.624H268.458C267.813 164.853 266.493 166.643 264.498 167.992C262.562 169.283 260.421 169.928 258.074 169.928C254.554 169.928 251.503 168.549 248.922 165.792C246.399 162.976 245.138 159.632 245.138 155.76C245.138 151.829 246.399 148.456 248.922 145.64C251.445 142.824 254.495 141.416 258.074 141.416C260.303 141.416 262.122 141.739 263.53 142.384C264.997 143.029 266.493 144.173 268.018 145.816L280.602 132L268.458 123.376L266.786 124.96C265.495 124.608 264.058 124.373 262.474 124.256C260.949 124.08 259.482 123.992 258.074 123.992C249.509 123.992 242.146 127.101 235.986 133.32C229.826 139.539 226.746 147.019 226.746 155.76C226.746 164.501 229.767 171.952 235.81 178.112C241.853 184.272 249.157 187.352 257.722 187.352C266.463 187.352 273.943 184.272 280.162 178.112C286.381 171.952 289.49 164.501 289.49 155.76V154.176C289.49 152.416 289.373 151.213 289.138 150.568ZM258.074 168.52L259.218 168.344L256.754 164.032L260.626 151.888C257.927 152.475 255.698 153.941 253.938 156.288C252.237 158.576 251.386 161.333 251.386 164.56L251.562 166.408C253.557 167.816 255.727 168.52 258.074 168.52ZM282.714 131.736L287.554 140.536L279.81 149.16H290.194L295.034 157.96C295.269 158.84 295.445 159.867 295.562 161.04C295.679 162.155 295.738 163.328 295.738 164.56C295.738 173.595 292.453 181.339 285.882 187.792C279.37 194.304 271.597 197.56 262.562 197.56C256.637 197.56 251.181 196.064 246.194 193.072C241.207 190.139 237.335 186.12 234.578 181.016L230.002 172.656C228.477 170.075 227.303 167.405 226.482 164.648C225.719 161.832 225.338 158.869 225.338 155.76C225.338 146.667 228.565 138.864 235.018 132.352C241.471 125.84 249.157 122.584 258.074 122.584C259.951 122.584 261.506 122.643 262.738 122.76C263.97 122.819 265.202 123.024 266.434 123.376L268.37 121.528L282.714 131.736ZM314.75 125.752H296.006L291.43 143.176H296.006V185.592H313.606V156.904L330.502 185.592H346.694V125.752H329.094V150.392L314.75 125.752ZM289.582 144.584L294.95 124.344H315.542L327.686 145.464V124.344H348.102L352.942 133.144V195.8H334.55L319.854 170.544V195.8H299.438L294.598 187V153.384L289.582 144.584ZM418.94 126.808L404.508 123.376L403.804 124.96C402.983 124.725 401.868 124.52 400.46 124.344C399.052 124.109 397.85 123.992 396.852 123.992C391.69 123.992 387.172 125.752 383.3 129.272C379.487 132.733 377.58 136.84 377.58 141.592C377.58 146.989 379.78 151.184 384.18 154.176C385.647 155.173 389.724 156.992 396.412 159.632C400.871 161.392 403.1 163.416 403.1 165.704C403.1 167.112 402.455 168.168 401.164 168.872C399.932 169.576 398.495 169.928 396.852 169.928C394.271 169.928 391.866 169.517 389.636 168.696C387.407 167.816 385.148 166.525 382.86 164.824L378.9 181.632C385.53 185.445 392.306 187.352 399.228 187.352C405.154 187.352 410.287 185.416 414.628 181.544C419.204 177.496 421.492 172.421 421.492 166.32C421.492 161.861 419.38 158.136 415.156 155.144C413.572 154.029 409.612 152.035 403.276 149.16C398.994 147.224 396.852 145.376 396.852 143.616C396.852 142.736 397.234 142.003 397.996 141.416C398.818 140.771 399.786 140.448 400.9 140.448C405.711 140.448 410.111 141.357 414.1 143.176L418.94 126.808ZM411.46 151.096C413.514 151.859 415.391 153.003 417.092 154.528C418.852 156.053 420.319 157.872 421.492 159.984L425.98 168.08C426.508 169.019 426.919 170.133 427.212 171.424C427.564 172.656 427.74 173.888 427.74 175.12C427.74 181.573 425.306 186.971 420.436 191.312C415.802 195.477 410.346 197.56 404.068 197.56C396.911 197.56 389.607 195.419 382.156 191.136L377.316 182.336L381.98 162.36C385.031 164.648 387.642 166.261 389.812 167.2C391.983 168.08 394.33 168.52 396.852 168.52C393.743 167.757 391.103 166.672 388.932 165.264C386.41 163.621 384.444 161.509 383.036 158.928L378.636 150.832C377.815 149.424 377.258 148.251 376.964 147.312C376.436 145.728 376.172 143.821 376.172 141.592C376.172 136.547 378.255 132.117 382.42 128.304C386.586 124.491 391.396 122.584 396.852 122.584C398.143 122.584 399.756 122.731 401.692 123.024C402.044 123.024 402.484 123.112 403.012 123.288L403.716 121.704L420.7 125.752L425.54 134.552L419.82 154C416.652 152.475 413.866 151.507 411.46 151.096ZM477.289 129.536L462.505 123.288L461.449 124.696C459.337 124.227 457.548 123.992 456.081 123.992C447.34 123.992 439.86 127.072 433.641 133.232C427.422 139.392 424.313 146.843 424.313 155.584C424.313 164.325 427.393 171.805 433.553 178.024C439.713 184.243 447.193 187.352 455.993 187.352C460.804 187.352 465.116 186.589 468.929 185.064C472.742 183.48 475.998 181.368 478.697 178.728L468.665 164.824C465.38 168.227 461.185 169.928 456.081 169.928C452.444 169.928 449.305 168.491 446.665 165.616C444.025 162.741 442.705 159.397 442.705 155.584C442.705 151.771 443.996 148.456 446.577 145.64C449.217 142.824 452.385 141.416 456.081 141.416C458.838 141.416 461.361 141.944 463.649 143C465.292 143.763 466.964 144.907 468.665 146.432L477.289 129.536ZM462.065 121.528L479.225 128.832L484.065 137.632L473.945 157.52C471.598 155.408 469.662 153.971 468.137 153.208C466.084 152.152 463.678 151.624 460.921 151.624C457.577 151.624 454.732 152.885 452.385 155.408C450.097 157.872 448.953 160.864 448.953 164.384L449.129 166.144C451.182 167.728 453.5 168.52 456.081 168.52C458.78 168.52 461.038 168.109 462.857 167.288C464.676 166.408 466.67 164.853 468.841 162.624L480.545 178.904L485.385 187.704C482.276 190.696 478.638 193.072 474.473 194.832C470.366 196.651 465.82 197.56 460.833 197.56C455.318 197.56 450.126 196.357 445.257 193.952C440.388 191.605 436.809 188.437 434.521 184.448L426.337 170.192C425.164 168.139 424.284 165.88 423.697 163.416C423.169 160.952 422.905 158.341 422.905 155.584C422.905 146.549 426.161 138.805 432.673 132.352C439.244 125.84 447.046 122.584 456.081 122.584C456.785 122.584 457.606 122.643 458.545 122.76C459.484 122.877 460.246 122.995 460.833 123.112L462.065 121.528ZM511.043 187.352C519.785 187.352 527.265 184.243 533.483 178.024C539.702 171.805 542.811 164.325 542.811 155.584C542.811 146.843 539.702 139.392 533.483 133.232C527.265 127.072 519.785 123.992 511.043 123.992C502.302 123.992 494.822 127.072 488.603 133.232C482.385 139.392 479.275 146.843 479.275 155.584C479.275 164.325 482.385 171.805 488.603 178.024C494.822 184.243 502.302 187.352 511.043 187.352ZM511.043 169.928C507.347 169.928 504.179 168.549 501.539 165.792C498.958 162.976 497.667 159.573 497.667 155.584C497.667 151.653 498.958 148.309 501.539 145.552C504.121 142.795 507.289 141.416 511.043 141.416C514.739 141.416 517.878 142.824 520.459 145.64C523.099 148.397 524.419 151.712 524.419 155.584C524.419 159.573 523.099 162.976 520.459 165.792C517.878 168.549 514.739 169.928 511.043 169.928ZM515.883 197.56C509.665 197.56 503.974 195.976 498.811 192.808C493.707 189.64 489.689 185.357 486.755 179.96L482.179 171.776C479.305 166.789 477.867 161.392 477.867 155.584C477.867 146.549 481.123 138.805 487.635 132.352C494.206 125.84 502.009 122.584 511.043 122.584C517.555 122.584 523.51 124.344 528.907 127.864C534.363 131.384 538.441 136.048 541.139 141.856L545.187 148.984C546.243 150.803 547.153 153.179 547.915 156.112C548.678 158.987 549.059 161.744 549.059 164.384C549.059 173.477 545.803 181.28 539.291 187.792C532.779 194.304 524.977 197.56 515.883 197.56ZM511.043 168.52C514.446 168.52 517.291 167.288 519.579 164.824C521.867 162.36 523.011 159.28 523.011 155.584L522.835 153.472V153.912C520.723 152.387 518.406 151.624 515.883 151.624C512.481 151.624 509.635 152.827 507.347 155.232C505.059 157.637 503.915 160.688 503.915 164.384L504.091 166.232L503.827 166.056C505.939 167.699 508.345 168.52 511.043 168.52ZM580.89 187.352C589.631 187.352 597.111 184.243 603.33 178.024C609.548 171.805 612.658 164.325 612.658 155.584C612.658 146.843 609.548 139.392 603.33 133.232C597.111 127.072 589.631 123.992 580.89 123.992C572.148 123.992 564.668 127.072 558.45 133.232C552.231 139.392 549.122 146.843 549.122 155.584C549.122 164.325 552.231 171.805 558.45 178.024C564.668 184.243 572.148 187.352 580.89 187.352ZM580.89 169.928C577.194 169.928 574.026 168.549 571.386 165.792C568.804 162.976 567.514 159.573 567.514 155.584C567.514 151.653 568.804 148.309 571.386 145.552C573.967 142.795 577.135 141.416 580.89 141.416C584.586 141.416 587.724 142.824 590.306 145.64C592.946 148.397 594.266 151.712 594.266 155.584C594.266 159.573 592.946 162.976 590.306 165.792C587.724 168.549 584.586 169.928 580.89 169.928ZM585.73 197.56C579.511 197.56 573.82 195.976 568.658 192.808C563.554 189.64 559.535 185.357 556.602 179.96L552.026 171.776C549.151 166.789 547.714 161.392 547.714 155.584C547.714 146.549 550.97 138.805 557.482 132.352C564.052 125.84 571.855 122.584 580.89 122.584C587.402 122.584 593.356 124.344 598.754 127.864C604.21 131.384 608.287 136.048 610.986 141.856L615.034 148.984C616.09 150.803 616.999 153.179 617.762 156.112C618.524 158.987 618.906 161.744 618.906 164.384C618.906 173.477 615.65 181.28 609.138 187.792C602.626 194.304 594.823 197.56 585.73 197.56ZM580.89 168.52C584.292 168.52 587.138 167.288 589.426 164.824C591.714 162.36 592.858 159.28 592.858 155.584L592.682 153.472V153.912C590.57 152.387 588.252 151.624 585.73 151.624C582.327 151.624 579.482 152.827 577.194 155.232C574.906 157.637 573.762 160.688 573.762 164.384L573.938 166.232L573.674 166.056C575.786 167.699 578.191 168.52 580.89 168.52ZM637.184 125.752H619.584L615.008 143.176H619.584V185.592H644.488L649.768 168.168H637.184V125.752ZM613.16 144.584L618.528 124.344H638.592L643.432 133.144V166.76H651.704L656.544 175.56L650.384 195.8H623.016L618.176 187V153.384L613.16 144.584Z" fill="#1D1E19"/>
<path d="M589.426 164.824C587.138 167.288 584.292 168.52 580.89 168.52C578.191 168.52 575.786 167.699 573.674 166.056L573.938 166.232L573.762 164.384C573.762 160.688 574.906 157.637 577.194 155.232C579.482 152.827 582.327 151.624 585.73 151.624C588.253 151.624 590.57 152.387 592.682 153.912V153.472L592.858 155.584C592.858 159.28 591.714 162.36 589.426 164.824Z" fill="#F57B45"/>
<path d="M519.579 164.824C517.291 167.288 514.446 168.52 511.043 168.52C508.344 168.52 505.939 167.699 503.827 166.056L504.091 166.232L503.915 164.384C503.915 160.688 505.059 157.637 507.347 155.232C509.635 152.827 512.48 151.624 515.883 151.624C518.406 151.624 520.723 152.387 522.835 153.912V153.472L523.011 155.584C523.011 159.28 521.867 162.36 519.579 164.824Z" fill="#F57B45"/>
<path d="M75.7119 165.88V153.384H77.0319C78.3226 153.384 79.5252 153.707 80.6399 154.352V155.584C80.6399 157.755 80.1706 159.808 79.2319 161.744C78.2932 163.622 77.1199 165 75.7119 165.88Z" fill="#F57B45"/>
<path d="M548.966 86.8803V74.3843H550.286C551.577 74.3843 552.78 74.7069 553.894 75.3523V76.5843C553.894 78.7549 553.425 80.8083 552.486 82.7443C551.548 84.6216 550.374 86.0003 548.966 86.8803Z" fill="#F57B45"/>
<path d="M827.36 42.5278L844.52 49.8318L849.36 58.6318L839.24 78.5198C836.893 76.4078 834.957 74.9705 833.432 74.2078C831.379 73.1518 828.973 72.6238 826.216 72.6238C822.872 72.6238 820.027 73.8852 817.68 76.4078C815.392 78.8718 814.248 81.8638 814.248 85.3838L814.424 87.1438C816.477 88.7278 818.795 89.5198 821.376 89.5198C824.075 89.5198 826.333 89.1092 828.152 88.2878C829.971 87.4078 831.965 85.8532 834.136 83.6238L845.84 99.9038L850.68 108.704C847.571 111.696 843.933 114.072 839.768 115.832C835.661 117.65 831.115 118.56 826.128 118.56C820.613 118.56 815.421 117.357 810.552 114.952C805.683 112.605 802.104 109.437 799.816 105.448L791.632 91.1918C790.459 89.1385 789.579 86.8798 788.992 84.4158C788.464 81.9518 788.2 79.3412 788.2 76.5838C788.2 67.5492 791.456 59.8052 797.968 53.3518C804.539 46.8398 812.341 43.5838 821.376 43.5838C822.08 43.5838 822.901 43.6425 823.84 43.7598C824.779 43.8772 825.541 43.9945 826.128 44.1118L827.36 42.5278Z" fill="#5DC27C"/>
<path d="M876.338 90.9278C872.642 90.9278 869.474 89.5492 866.834 86.7918C864.253 83.9758 862.962 80.5732 862.962 76.5838C862.962 72.6532 864.253 69.3092 866.834 66.5518C869.416 63.7945 872.584 62.4158 876.338 62.4158C880.034 62.4158 883.173 63.8238 885.754 66.6398C888.394 69.3972 889.714 72.7118 889.714 76.5838C889.714 80.5732 888.394 83.9758 885.754 86.7918C883.173 89.5492 880.034 90.9278 876.338 90.9278ZM881.178 118.56C874.96 118.56 869.269 116.976 864.106 113.808C859.002 110.64 854.984 106.357 852.05 100.96L847.474 92.7758C844.6 87.7892 843.162 82.3918 843.162 76.5838C843.162 67.5492 846.418 59.8052 852.93 53.3518C859.501 46.8398 867.304 43.5838 876.338 43.5838C882.85 43.5838 888.805 45.3438 894.202 48.8638C899.658 52.3838 903.736 57.0478 906.434 62.8558L910.482 69.9838C911.538 71.8025 912.448 74.1785 913.21 77.1118C913.973 79.9865 914.354 82.7438 914.354 85.3838C914.354 94.4772 911.098 102.28 904.586 108.792C898.074 115.304 890.272 118.56 881.178 118.56ZM876.338 89.5198C879.741 89.5198 882.586 88.2878 884.874 85.8238C887.162 83.3598 888.306 80.2798 888.306 76.5838L888.13 74.4718V74.9118C886.018 73.3865 883.701 72.6238 881.178 72.6238C877.776 72.6238 874.93 73.8265 872.642 76.2318C870.354 78.6372 869.21 81.6878 869.21 85.3838L869.386 87.2318L869.122 87.0558C871.234 88.6985 873.64 89.5198 876.338 89.5198Z" fill="#5DC27C"/>
<path d="M939.233 64.1758V77.1998H936.769C935.126 77.1998 933.718 76.6132 932.545 75.4398C931.43 74.2078 930.873 72.7412 930.873 71.0398C930.873 69.2798 931.459 67.6958 932.633 66.2878C933.806 64.8798 935.185 64.1758 936.769 64.1758H939.233ZM956.833 77.1998V64.1758H959.297C960.881 64.1758 962.259 64.8798 963.433 66.2878C964.606 67.6372 965.193 69.2212 965.193 71.0398C965.193 72.6825 964.606 74.1198 963.433 75.3518C962.259 76.5838 960.881 77.1998 959.297 77.1998H956.833ZM963.081 116.8H942.665L937.825 108V104.744C934.774 104.744 931.489 103.512 927.969 101.048C924.449 98.5838 921.779 95.7385 919.961 92.5118L914.241 82.3038C913.478 80.8958 912.833 79.1358 912.305 77.0238C911.777 74.8532 911.513 72.8585 911.513 71.0398C911.513 64.0585 913.771 58.0452 918.289 52.9998C922.865 47.8958 928.291 45.3438 934.569 45.3438H940.641L942.049 48.1598L942.753 45.3438H961.497C964.958 45.3438 968.595 46.5172 972.409 48.8638C976.222 51.2105 979.067 54.0558 980.945 57.3998L986.489 67.5198C987.251 69.0452 987.926 71.0398 988.513 73.5038C989.099 75.9678 989.393 78.0798 989.393 79.8398C989.393 86.3518 987.075 92.1598 982.441 97.2638C977.865 102.309 972.497 104.832 966.337 104.832H963.081V116.8Z" fill="#5DC27C"/>
<path d="M988.175 74.3838L983.335 65.5838L988.879 45.3438H1008.94L1013.78 54.1438V63.1198L1023.82 45.3438H1041.68L1046.52 54.1438V116.8H1026.1L1021.26 108V104.832L1014.58 116.8H993.367L988.527 108V74.3838H988.175Z" fill="#5DC27C"/>
<path d="M1076.08 64.1758V74.5598H1070.54C1069.07 74.5598 1067.78 74.0905 1066.67 73.1518C1065.61 72.1545 1065.08 70.9812 1065.08 69.6318C1065.08 68.1065 1065.61 66.8158 1066.67 65.7598C1067.72 64.7038 1069.01 64.1758 1070.54 64.1758H1076.08ZM1099.93 54.1438V116.8H1079.51L1076.43 111.256L1073.88 116.8H1049.42L1044.58 108L1054.08 90.9278L1048.19 80.1918C1046.43 76.5545 1045.55 73.0345 1045.55 69.6318C1045.55 63.0025 1047.78 57.3118 1052.23 52.5598C1056.75 47.7492 1062.15 45.3438 1068.43 45.3438H1095.09L1099.93 54.1438Z" fill="#5DC27C"/>
<path d="M811.08 162.184L815.92 143.176L821.024 162.184H811.08ZM798.144 124.344H829.384L834.224 133.144L852.616 195.8H830.264L825.952 187.88H814.16L812.224 195.8H790.4L785.56 187L795.768 150.392L792.6 144.584L798.144 124.344Z" fill="#5DC27C"/>
<path d="M843.399 144.584L848.855 124.344H868.919L873.759 133.144V144.584H880.095V124.344H900.511L905.351 133.144V195.8H884.935L880.095 187V173.712H873.759V195.8H853.343L848.503 187V153.384L843.399 144.584Z" fill="#5DC27C"/>
<path d="M903.688 144.584L909.056 124.344H960.8L965.64 133.144V195.8H945.224L940.384 187V153.384H933.96V195.8H913.544L908.704 187V153.384L903.688 144.584Z" fill="#5DC27C"/>
<path d="M968.922 153.384L964.082 144.584L969.626 124.344H989.69L994.53 133.144V142.12L1004.56 124.344H1022.43L1027.27 133.144V195.8H1006.85L1002.01 187V183.832L995.322 195.8H974.114L969.274 187V153.384H968.922Z" fill="#5DC27C"/>
<path d="M1040.02 124.344H1065.01L1069.85 133.144L1089.56 195.8H1068.36L1063.52 187L1058.68 171.248L1051.46 195.8H1030.43L1025.59 187L1037.47 149.952L1034.48 144.584L1040.02 124.344Z" fill="#5DC27C"/>
<path d="M1110.79 169.928C1107.09 169.928 1103.92 168.549 1101.28 165.792C1098.7 162.976 1097.41 159.573 1097.41 155.584C1097.41 151.653 1098.7 148.309 1101.28 145.552C1103.86 142.795 1107.03 141.416 1110.79 141.416C1114.48 141.416 1117.62 142.824 1120.2 145.64C1122.84 148.397 1124.16 151.712 1124.16 155.584C1124.16 159.573 1122.84 162.976 1120.2 165.792C1117.62 168.549 1114.48 169.928 1110.79 169.928ZM1115.63 197.56C1109.41 197.56 1103.72 195.976 1098.55 192.808C1093.45 189.64 1089.43 185.357 1086.5 179.96L1081.92 171.776C1079.05 166.789 1077.61 161.392 1077.61 155.584C1077.61 146.549 1080.87 138.805 1087.38 132.352C1093.95 125.84 1101.75 122.584 1110.79 122.584C1117.3 122.584 1123.25 124.344 1128.65 127.864C1134.11 131.384 1138.18 136.048 1140.88 141.856L1144.93 148.984C1145.99 150.802 1146.9 153.178 1147.66 156.112C1148.42 158.986 1148.8 161.744 1148.8 164.384C1148.8 173.477 1145.55 181.28 1139.03 187.792C1132.52 194.304 1124.72 197.56 1115.63 197.56ZM1110.79 168.52C1114.19 168.52 1117.03 167.288 1119.32 164.824C1121.61 162.36 1122.75 159.28 1122.75 155.584L1122.58 153.472V153.912C1120.47 152.387 1118.15 151.624 1115.63 151.624C1112.22 151.624 1109.38 152.827 1107.09 155.232C1104.8 157.637 1103.66 160.688 1103.66 164.384L1103.83 166.232L1103.57 166.056C1105.68 167.698 1108.09 168.52 1110.79 168.52Z" fill="#5DC27C"/>
<path d="M1148.07 187V153.384L1143.06 144.584L1148.42 124.344H1166.64L1167.87 121.88H1187.23L1192.07 130.68L1185.91 153.384H1173.33V195.8H1152.91L1148.07 187Z" fill="#5DC27C"/>
<path d="M1218.13 169.928C1214.43 169.928 1211.26 168.549 1208.62 165.792C1206.04 162.976 1204.75 159.573 1204.75 155.584C1204.75 151.653 1206.04 148.309 1208.62 145.552C1211.21 142.795 1214.37 141.416 1218.13 141.416C1221.82 141.416 1224.96 142.824 1227.54 145.64C1230.18 148.397 1231.5 151.712 1231.5 155.584C1231.5 159.573 1230.18 162.976 1227.54 165.792C1224.96 168.549 1221.82 169.928 1218.13 169.928ZM1222.97 197.56C1216.75 197.56 1211.06 195.976 1205.9 192.808C1200.79 189.64 1196.77 185.357 1193.84 179.96L1189.26 171.776C1186.39 166.789 1184.95 161.392 1184.95 155.584C1184.95 146.549 1188.21 138.805 1194.72 132.352C1201.29 125.84 1209.09 122.584 1218.13 122.584C1224.64 122.584 1230.6 124.344 1235.99 127.864C1241.45 131.384 1245.53 136.048 1248.22 141.856L1252.27 148.984C1253.33 150.802 1254.24 153.178 1255 156.112C1255.76 158.986 1256.14 161.744 1256.14 164.384C1256.14 173.477 1252.89 181.28 1246.38 187.792C1239.86 194.304 1232.06 197.56 1222.97 197.56ZM1218.13 168.52C1221.53 168.52 1224.38 167.288 1226.66 164.824C1228.95 162.36 1230.1 159.28 1230.1 155.584L1229.92 153.472V153.912C1227.81 152.387 1225.49 151.624 1222.97 151.624C1219.57 151.624 1216.72 152.827 1214.43 155.232C1212.14 157.637 1211 160.688 1211 164.384L1211.18 166.232L1210.91 166.056C1213.02 167.698 1215.43 168.52 1218.13 168.52Z" fill="#5DC27C"/>
<path d="M1274.42 150.216V143.176H1279.26C1282.14 143.176 1283.58 144.349 1283.58 146.696C1283.58 147.752 1283.28 148.602 1282.7 149.248C1282.11 149.893 1281.17 150.216 1279.88 150.216H1274.42ZM1274.42 169.312V160.776H1279.09C1280.85 160.776 1282.11 161.157 1282.87 161.92C1283.69 162.624 1284.1 163.65 1284.1 165C1284.1 166.349 1283.72 167.405 1282.96 168.168C1282.2 168.93 1280.91 169.312 1279.09 169.312H1274.42ZM1250.4 144.584L1255.77 124.344H1284.1C1287.8 124.344 1291.14 125.253 1294.14 127.072C1296.83 128.714 1298.95 130.914 1300.47 133.672L1305.93 143.616C1306.4 144.437 1306.75 145.464 1306.98 146.696C1307.22 147.869 1307.34 149.013 1307.34 150.128C1307.34 152.474 1306.87 154.704 1305.93 156.816C1305.05 158.928 1303.9 160.571 1302.5 161.744L1307.07 169.84C1307.72 170.896 1308.16 172.128 1308.39 173.536C1308.63 174.885 1308.74 176.41 1308.74 178.112C1308.74 183.098 1306.87 187.293 1303.11 190.696C1299.36 194.098 1294.63 195.8 1288.94 195.8H1260.26L1255.42 187V153.384L1250.4 144.584Z" fill="#5DC27C"/>
<path d="M1331.22 162.184L1336.06 143.176L1341.17 162.184H1331.22ZM1318.29 124.344H1349.53L1354.37 133.144L1372.76 195.8H1350.41L1346.09 187.88H1334.3L1332.37 195.8H1310.54L1305.7 187L1315.91 150.392L1312.74 144.584L1318.29 124.344Z" fill="#5DC27C"/>
<path d="M842.584 50.536L827.8 44.288L826.744 45.696C824.632 45.2267 822.843 44.992 821.376 44.992C812.635 44.992 805.155 48.072 798.936 54.232C792.717 60.392 789.608 67.8427 789.608 76.584C789.608 85.3253 792.688 92.8053 798.848 99.024C805.008 105.243 812.488 108.352 821.288 108.352C826.099 108.352 830.411 107.589 834.224 106.064C838.037 104.48 841.293 102.368 843.992 99.728L833.96 85.824C830.675 89.2267 826.48 90.928 821.376 90.928C817.739 90.928 814.6 89.4907 811.96 86.616C809.32 83.7413 808 80.3973 808 76.584C808 72.7707 809.291 69.456 811.872 66.64C814.512 63.824 817.68 62.416 821.376 62.416C824.133 62.416 826.656 62.944 828.944 64C830.587 64.7627 832.259 65.9067 833.96 67.432L842.584 50.536ZM827.36 42.528L844.52 49.832L849.36 58.632L839.24 78.52C836.893 76.408 834.957 74.9707 833.432 74.208C831.379 73.152 828.973 72.624 826.216 72.624C822.872 72.624 820.027 73.8853 817.68 76.408C815.392 78.872 814.248 81.864 814.248 85.384L814.424 87.144C816.477 88.728 818.795 89.52 821.376 89.52C824.075 89.52 826.333 89.1093 828.152 88.288C829.971 87.408 831.965 85.8533 834.136 83.624L845.84 99.904L850.68 108.704C847.571 111.696 843.933 114.072 839.768 115.832C835.661 117.651 831.115 118.56 826.128 118.56C820.613 118.56 815.421 117.357 810.552 114.952C805.683 112.605 802.104 109.437 799.816 105.448L791.632 91.192C790.459 89.1387 789.579 86.88 788.992 84.416C788.464 81.952 788.2 79.3413 788.2 76.584C788.2 67.5493 791.456 59.8053 797.968 53.352C804.539 46.84 812.341 43.584 821.376 43.584C822.08 43.584 822.901 43.6427 823.84 43.76C824.779 43.8773 825.541 43.9947 826.128 44.112L827.36 42.528ZM876.338 108.352C885.08 108.352 892.56 105.243 898.778 99.024C904.997 92.8053 908.106 85.3253 908.106 76.584C908.106 67.8427 904.997 60.392 898.778 54.232C892.56 48.072 885.08 44.992 876.338 44.992C867.597 44.992 860.117 48.072 853.898 54.232C847.68 60.392 844.57 67.8427 844.57 76.584C844.57 85.3253 847.68 92.8053 853.898 99.024C860.117 105.243 867.597 108.352 876.338 108.352ZM876.338 90.928C872.642 90.928 869.474 89.5493 866.834 86.792C864.253 83.976 862.962 80.5733 862.962 76.584C862.962 72.6533 864.253 69.3093 866.834 66.552C869.416 63.7947 872.584 62.416 876.338 62.416C880.034 62.416 883.173 63.824 885.754 66.64C888.394 69.3973 889.714 72.712 889.714 76.584C889.714 80.5733 888.394 83.976 885.754 86.792C883.173 89.5493 880.034 90.928 876.338 90.928ZM881.178 118.56C874.96 118.56 869.269 116.976 864.106 113.808C859.002 110.64 854.984 106.357 852.05 100.96L847.474 92.776C844.6 87.7893 843.162 82.392 843.162 76.584C843.162 67.5493 846.418 59.8053 852.93 53.352C859.501 46.84 867.304 43.584 876.338 43.584C882.85 43.584 888.805 45.344 894.202 48.864C899.658 52.384 903.736 57.048 906.434 62.856L910.482 69.984C911.538 71.8027 912.448 74.1787 913.21 77.112C913.973 79.9867 914.354 82.744 914.354 85.384C914.354 94.4773 911.098 102.28 904.586 108.792C898.074 115.304 890.272 118.56 881.178 118.56ZM876.338 89.52C879.741 89.52 882.586 88.288 884.874 85.824C887.162 83.36 888.306 80.28 888.306 76.584L888.13 74.472V74.912C886.018 73.3867 883.701 72.624 881.178 72.624C877.776 72.624 874.93 73.8267 872.642 76.232C870.354 78.6373 869.21 81.688 869.21 85.384L869.386 87.232L869.122 87.056C871.234 88.6987 873.64 89.52 876.338 89.52ZM939.233 106.592H956.833V94.624H961.497C967.305 94.624 972.35 92.2773 976.633 87.584C980.974 82.832 983.145 77.3173 983.145 71.04C983.145 64.352 981.033 58.632 976.809 53.88C972.585 49.128 967.481 46.752 961.497 46.752H943.809L939.585 63.032H939.233V46.752H934.569C928.585 46.752 923.481 49.128 919.257 53.88C915.033 58.632 912.921 64.352 912.921 71.04C912.921 77.2587 915.062 82.744 919.345 87.496C923.627 92.248 928.673 94.624 934.481 94.624H939.233V106.592ZM939.233 64.176V77.2H936.769C935.126 77.2 933.718 76.6133 932.545 75.44C931.43 74.208 930.873 72.7413 930.873 71.04C930.873 69.28 931.459 67.696 932.633 66.288C933.806 64.88 935.185 64.176 936.769 64.176H939.233ZM956.833 77.2V64.176H959.297C960.881 64.176 962.259 64.88 963.433 66.288C964.606 67.6373 965.193 69.2213 965.193 71.04C965.193 72.6827 964.606 74.12 963.433 75.352C962.259 76.584 960.881 77.2 959.297 77.2H956.833ZM963.081 116.8H942.665L937.825 108V104.744C934.774 104.744 931.489 103.512 927.969 101.048C924.449 98.584 921.779 95.7387 919.961 92.512L914.241 82.304C913.478 80.896 912.833 79.136 912.305 77.024C911.777 74.8533 911.513 72.8587 911.513 71.04C911.513 64.0587 913.771 58.0453 918.289 53C922.865 47.896 928.291 45.344 934.569 45.344H940.641L942.049 48.16L942.753 45.344H961.497C964.958 45.344 968.595 46.5173 972.409 48.864C976.222 51.2107 979.067 54.056 980.945 57.4L986.489 67.52C987.251 69.0453 987.926 71.04 988.513 73.504C989.099 75.968 989.393 78.08 989.393 79.84C989.393 86.352 987.075 92.16 982.441 97.264C977.865 102.309 972.497 104.832 966.337 104.832H963.081V116.8ZM1007.54 46.752H989.935L985.183 64.176H989.935V106.592H1008.94L1022.5 82.392L1022.67 106.592H1040.27V46.752H1024.61L1007.71 76.584L1007.54 46.752ZM988.175 74.384L983.335 65.584L988.879 45.344H1008.94L1013.78 54.144V63.12L1023.82 45.344H1041.68L1046.52 54.144V116.8H1026.1L1021.26 108V104.832L1014.58 116.8H993.367L988.527 108V74.384H988.175ZM1093.68 106.592V46.752H1068.43C1062.44 46.752 1057.37 48.9813 1053.2 53.44C1049.04 57.8987 1046.95 63.296 1046.95 69.632C1046.95 73.0347 1047.92 76.5547 1049.86 80.192C1051.79 83.8293 1054.26 86.4693 1057.25 88.112L1046.95 106.592H1068.16L1075.73 90.224H1076.08V106.592H1093.68ZM1076.08 64.176V74.56H1070.54C1069.07 74.56 1067.78 74.0907 1066.67 73.152C1065.61 72.1547 1065.08 70.9813 1065.08 69.632C1065.08 68.1067 1065.61 66.816 1066.67 65.76C1067.72 64.704 1069.01 64.176 1070.54 64.176H1076.08ZM1099.93 54.144V116.8H1079.51L1076.43 111.256L1073.88 116.8H1049.42L1044.58 108L1054.08 90.928L1048.19 80.192C1046.43 76.5547 1045.55 73.0347 1045.55 69.632C1045.55 63.0027 1047.78 57.312 1052.23 52.56C1056.75 47.7493 1062.15 45.344 1068.43 45.344H1095.09L1099.93 54.144ZM828.328 125.752H799.2L794.448 143.176H799.2L787.408 185.592H806.24L808.176 177.672H824.368L826.48 185.592H845.928L828.328 125.752ZM811.08 162.184L815.92 143.176L821.024 162.184H811.08ZM798.144 124.344H829.384L834.224 133.144L852.616 195.8H830.264L825.952 187.88H814.16L812.224 195.8H790.4L785.56 187L795.768 150.392L792.6 144.584L798.144 124.344ZM867.511 125.752H849.911L845.247 143.176H849.911V185.592H867.511V163.504H881.503V185.592H899.103V125.752H881.503V145.992H867.511V125.752ZM843.399 144.584L848.855 124.344H868.919L873.759 133.144V144.584H880.095V124.344H900.511L905.351 133.144V195.8H884.935L880.095 187V173.712H873.759V195.8H853.343L848.503 187V153.384L843.399 144.584ZM959.392 125.752H910.112L905.536 143.176H910.112V185.592H927.712V143.176H941.792V185.592H959.392V125.752ZM903.688 144.584L909.056 124.344H960.8L965.64 133.144V195.8H945.224L940.384 187V153.384H933.96V195.8H913.544L908.704 187V153.384L903.688 144.584ZM988.282 125.752H970.682L965.93 143.176H970.682V185.592H989.69L1003.24 161.392L1003.42 185.592H1021.02V125.752H1005.35L988.458 155.584L988.282 125.752ZM968.922 153.384L964.082 144.584L969.626 124.344H989.69L994.53 133.144V142.12L1004.56 124.344H1022.43L1027.27 133.144V195.8H1006.85L1002.01 187V183.832L995.322 195.8H974.114L969.274 187V153.384H968.922ZM1063.96 125.752H1041.08L1036.32 143.176H1041.08L1027.52 185.592H1045.56L1054.8 154.352L1064.57 185.592H1082.79L1063.96 125.752ZM1040.02 124.344H1065.01L1069.85 133.144L1089.56 195.8H1068.36L1063.52 187L1058.68 171.248L1051.46 195.8H1030.43L1025.59 187L1037.47 149.952L1034.48 144.584L1040.02 124.344ZM1110.79 187.352C1119.53 187.352 1127.01 184.243 1133.23 178.024C1139.44 171.805 1142.55 164.325 1142.55 155.584C1142.55 146.843 1139.44 139.392 1133.23 133.232C1127.01 127.072 1119.53 123.992 1110.79 123.992C1102.04 123.992 1094.56 127.072 1088.35 133.232C1082.13 139.392 1079.02 146.843 1079.02 155.584C1079.02 164.325 1082.13 171.805 1088.35 178.024C1094.56 184.243 1102.04 187.352 1110.79 187.352ZM1110.79 169.928C1107.09 169.928 1103.92 168.549 1101.28 165.792C1098.7 162.976 1097.41 159.573 1097.41 155.584C1097.41 151.653 1098.7 148.309 1101.28 145.552C1103.86 142.795 1107.03 141.416 1110.79 141.416C1114.48 141.416 1117.62 142.824 1120.2 145.64C1122.84 148.397 1124.16 151.712 1124.16 155.584C1124.16 159.573 1122.84 162.976 1120.2 165.792C1117.62 168.549 1114.48 169.928 1110.79 169.928ZM1115.63 197.56C1109.41 197.56 1103.72 195.976 1098.55 192.808C1093.45 189.64 1089.43 185.357 1086.5 179.96L1081.92 171.776C1079.05 166.789 1077.61 161.392 1077.61 155.584C1077.61 146.549 1080.87 138.805 1087.38 132.352C1093.95 125.84 1101.75 122.584 1110.79 122.584C1117.3 122.584 1123.25 124.344 1128.65 127.864C1134.11 131.384 1138.18 136.048 1140.88 141.856L1144.93 148.984C1145.99 150.803 1146.9 153.179 1147.66 156.112C1148.42 158.987 1148.8 161.744 1148.8 164.384C1148.8 173.477 1145.55 181.28 1139.03 187.792C1132.52 194.304 1124.72 197.56 1115.63 197.56ZM1110.79 168.52C1114.19 168.52 1117.03 167.288 1119.32 164.824C1121.61 162.36 1122.75 159.28 1122.75 155.584L1122.58 153.472V153.912C1120.47 152.387 1118.15 151.624 1115.63 151.624C1112.22 151.624 1109.38 152.827 1107.09 155.232C1104.8 157.637 1103.66 160.688 1103.66 164.384L1103.83 166.232L1103.57 166.056C1105.68 167.699 1108.09 168.52 1110.79 168.52ZM1149.48 143.176V185.592H1167.08V143.176H1180.02L1185.38 123.288H1168.75L1167.52 125.752H1149.48L1144.9 143.176H1149.48ZM1148.07 187V153.384L1143.06 144.584L1148.42 124.344H1166.64L1167.87 121.88H1187.23L1192.07 130.68L1185.91 153.384H1173.33V195.8H1152.91L1148.07 187ZM1218.13 187.352C1226.87 187.352 1234.35 184.243 1240.57 178.024C1246.79 171.805 1249.9 164.325 1249.9 155.584C1249.9 146.843 1246.79 139.392 1240.57 133.232C1234.35 127.072 1226.87 123.992 1218.13 123.992C1209.39 123.992 1201.91 127.072 1195.69 133.232C1189.47 139.392 1186.36 146.843 1186.36 155.584C1186.36 164.325 1189.47 171.805 1195.69 178.024C1201.91 184.243 1209.39 187.352 1218.13 187.352ZM1218.13 169.928C1214.43 169.928 1211.26 168.549 1208.62 165.792C1206.04 162.976 1204.75 159.573 1204.75 155.584C1204.75 151.653 1206.04 148.309 1208.62 145.552C1211.21 142.795 1214.37 141.416 1218.13 141.416C1221.82 141.416 1224.96 142.824 1227.54 145.64C1230.18 148.397 1231.5 151.712 1231.5 155.584C1231.5 159.573 1230.18 162.976 1227.54 165.792C1224.96 168.549 1221.82 169.928 1218.13 169.928ZM1222.97 197.56C1216.75 197.56 1211.06 195.976 1205.9 192.808C1200.79 189.64 1196.77 185.357 1193.84 179.96L1189.26 171.776C1186.39 166.789 1184.95 161.392 1184.95 155.584C1184.95 146.549 1188.21 138.805 1194.72 132.352C1201.29 125.84 1209.09 122.584 1218.13 122.584C1224.64 122.584 1230.6 124.344 1235.99 127.864C1241.45 131.384 1245.53 136.048 1248.22 141.856L1252.27 148.984C1253.33 150.803 1254.24 153.179 1255 156.112C1255.76 158.987 1256.14 161.744 1256.14 164.384C1256.14 173.477 1252.89 181.28 1246.38 187.792C1239.86 194.304 1232.06 197.56 1222.97 197.56ZM1218.13 168.52C1221.53 168.52 1224.38 167.288 1226.66 164.824C1228.95 162.36 1230.1 159.28 1230.1 155.584L1229.92 153.472V153.912C1227.81 152.387 1225.49 151.624 1222.97 151.624C1219.57 151.624 1216.72 152.827 1214.43 155.232C1212.14 157.637 1211 160.688 1211 164.384L1211.18 166.232L1210.91 166.056C1213.02 167.699 1215.43 168.52 1218.13 168.52ZM1256.82 143.176V185.592H1284.1C1289.5 185.592 1293.9 184.067 1297.3 181.016C1300.76 177.907 1302.5 174.005 1302.5 169.312C1302.5 165.733 1301.7 162.595 1300.12 159.896C1298.54 157.197 1296.07 155.232 1292.73 154C1295.37 153.003 1297.42 151.36 1298.89 149.072C1300.35 146.784 1301.09 144.203 1301.09 141.328C1301.09 137.104 1299.56 133.496 1296.51 130.504C1293.28 127.336 1289.15 125.752 1284.1 125.752H1256.82L1252.25 143.176H1256.82ZM1274.42 150.216V143.176H1279.26C1282.14 143.176 1283.58 144.349 1283.58 146.696C1283.58 147.752 1283.28 148.603 1282.7 149.248C1282.11 149.893 1281.17 150.216 1279.88 150.216H1274.42ZM1274.42 169.312V160.776H1279.09C1280.85 160.776 1282.11 161.157 1282.87 161.92C1283.69 162.624 1284.1 163.651 1284.1 165C1284.1 166.349 1283.72 167.405 1282.96 168.168C1282.2 168.931 1280.91 169.312 1279.09 169.312H1274.42ZM1250.4 144.584L1255.77 124.344H1284.1C1287.8 124.344 1291.14 125.253 1294.14 127.072C1296.83 128.715 1298.95 130.915 1300.47 133.672L1305.93 143.616C1306.4 144.437 1306.75 145.464 1306.98 146.696C1307.22 147.869 1307.34 149.013 1307.34 150.128C1307.34 152.475 1306.87 154.704 1305.93 156.816C1305.05 158.928 1303.9 160.571 1302.5 161.744L1307.07 169.84C1307.72 170.896 1308.16 172.128 1308.39 173.536C1308.63 174.885 1308.74 176.411 1308.74 178.112C1308.74 183.099 1306.87 187.293 1303.11 190.696C1299.36 194.099 1294.63 195.8 1288.94 195.8H1260.26L1255.42 187V153.384L1250.4 144.584ZM1348.47 125.752H1319.34L1314.59 143.176H1319.34L1307.55 185.592H1326.38L1328.32 177.672H1344.51L1346.62 185.592H1366.07L1348.47 125.752ZM1331.22 162.184L1336.06 143.176L1341.17 162.184H1331.22ZM1318.29 124.344H1349.53L1354.37 133.144L1372.76 195.8H1350.41L1346.09 187.88H1334.3L1332.37 195.8H1310.54L1305.7 187L1315.91 150.392L1312.74 144.584L1318.29 124.344Z" fill="#1D1E19"/>
<path d="M884.874 85.824C882.586 88.288 879.741 89.52 876.338 89.52C873.64 89.52 871.234 88.6987 869.122 87.056L869.386 87.232L869.21 85.384C869.21 81.688 870.354 78.6374 872.642 76.232C874.93 73.8267 877.776 72.624 881.178 72.624C883.701 72.624 886.018 73.3867 888.13 74.912V74.472L888.306 76.584C888.306 80.28 887.162 83.36 884.874 85.824Z" fill="#F57B45"/>
<path d="M1119.32 164.824C1117.03 167.288 1114.19 168.52 1110.79 168.52C1108.09 168.52 1105.68 167.699 1103.57 166.056L1103.83 166.232L1103.66 164.384C1103.66 160.688 1104.8 157.637 1107.09 155.232C1109.38 152.827 1112.22 151.624 1115.63 151.624C1118.15 151.624 1120.47 152.387 1122.58 153.912V153.472L1122.75 155.584C1122.75 159.28 1121.61 162.36 1119.32 164.824Z" fill="#F57B45"/>
<path d="M1226.66 164.824C1224.38 167.288 1221.53 168.52 1218.13 168.52C1215.43 168.52 1213.02 167.699 1210.91 166.056L1211.18 166.232L1211 164.384C1211 160.688 1212.14 157.637 1214.43 155.232C1216.72 152.827 1219.57 151.624 1222.97 151.624C1225.49 151.624 1227.81 152.387 1229.92 153.912V153.472L1230.1 155.584C1230.1 159.28 1228.95 162.36 1226.66 164.824Z" fill="#F57B45"/>
<path d="M1527.44 65.584L1532.9 45.344H1553.22L1562.55 57.312L1571.88 45.344H1592.91L1597.75 54.144V116.8H1577.34L1572.5 108V91.72L1569.06 96.56H1566.34L1557.8 84.856V116.8H1537.38L1532.54 108V74.384L1527.44 65.584Z" fill="#F6CA45"/>
<path d="M1630.03 90.928C1626.34 90.928 1623.17 89.5493 1620.53 86.792C1617.95 83.976 1616.66 80.5733 1616.66 76.584C1616.66 72.6533 1617.95 69.3093 1620.53 66.552C1623.11 63.7947 1626.28 62.416 1630.03 62.416C1633.73 62.416 1636.87 63.824 1639.45 66.64C1642.09 69.3973 1643.41 72.712 1643.41 76.584C1643.41 80.5733 1642.09 83.976 1639.45 86.792C1636.87 89.5493 1633.73 90.928 1630.03 90.928ZM1634.87 118.56C1628.65 118.56 1622.96 116.976 1617.8 113.808C1612.7 110.64 1608.68 106.357 1605.74 100.96L1601.17 92.776C1598.29 87.7893 1596.86 82.392 1596.86 76.584C1596.86 67.5493 1600.11 59.8053 1606.62 53.352C1613.2 46.84 1621 43.584 1630.03 43.584C1636.54 43.584 1642.5 45.344 1647.9 48.864C1653.35 52.384 1657.43 57.048 1660.13 62.856L1664.18 69.984C1665.23 71.8027 1666.14 74.1787 1666.9 77.112C1667.67 79.9867 1668.05 82.744 1668.05 85.384C1668.05 94.4773 1664.79 102.28 1658.28 108.792C1651.77 115.304 1643.97 118.56 1634.87 118.56ZM1630.03 89.52C1633.44 89.52 1636.28 88.288 1638.57 85.824C1640.86 83.36 1642 80.28 1642 76.584L1641.82 74.472V74.912C1639.71 73.3867 1637.4 72.624 1634.87 72.624C1631.47 72.624 1628.62 73.8267 1626.34 76.232C1624.05 78.6373 1622.9 81.688 1622.9 85.384L1623.08 87.232L1622.82 87.056C1624.93 88.6987 1627.33 89.52 1630.03 89.52Z" fill="#F6CA45"/>
<path d="M1700.06 89.168H1691.61L1695.66 74.032L1700.06 89.168ZM1667.14 116.8L1662.3 108L1667.76 87.76H1672.34L1677.97 70.952L1675.06 65.584L1680.7 45.344H1705.69L1710.53 54.144L1721.18 87.76H1726.02L1730.86 96.56L1725.4 116.8H1667.14Z" fill="#F6CA45"/>
<path d="M1750.82 58.984L1754.51 45.344H1777.04L1781.88 54.144L1763.84 105.272C1762.49 109.144 1760.44 112.019 1757.68 113.896C1754.92 115.832 1751.67 116.8 1747.91 116.8H1731.28L1726.44 108L1731.81 87.76H1740.43L1722.3 45.344H1744.22L1749.06 54.144L1750.82 58.984Z" fill="#F6CA45"/>
<path d="M1783.41 45.344H1808.4L1813.24 54.144L1832.96 116.8H1811.75L1806.91 108L1802.07 92.248L1794.85 116.8H1773.82L1768.98 108L1780.86 70.952L1777.87 65.584L1783.41 45.344Z" fill="#F6CA45"/>
<path d="M1847.75 89.168V76.144H1850.31C1851.89 76.144 1853.27 76.76 1854.44 77.992C1855.62 79.224 1856.2 80.6907 1856.2 82.392C1856.2 84.0933 1855.62 85.648 1854.44 87.056C1853.27 88.464 1851.89 89.168 1850.31 89.168H1847.75ZM1823.64 65.584L1829.1 45.344H1849.16L1854 54.144V57.4C1857.82 57.752 1861.37 59.072 1864.65 61.36C1867.99 63.648 1870.63 66.552 1872.57 70.072L1877.85 79.752C1879.85 83.5653 1880.84 87.7307 1880.84 92.248C1880.84 98.8773 1878.53 104.627 1873.89 109.496C1869.26 114.365 1863.68 116.8 1857.17 116.8H1833.59L1828.75 108V74.384L1823.64 65.584Z" fill="#F6CA45"/>
<path d="M1929.01 118.56C1925.55 118.56 1922.27 118.091 1919.16 117.152C1916.11 116.272 1912.73 114.864 1909.04 112.928L1904.2 104.128L1909.65 84.856L1908.42 83.272L1911.33 73.856L1907.19 66.464L1912.56 44.816C1914.85 44.2293 1916.61 43.8773 1917.84 43.76C1919.07 43.6427 1920.74 43.584 1922.85 43.584C1926.55 43.584 1930.16 44.5227 1933.68 46.4C1937.26 48.2187 1939.95 50.7413 1941.77 53.968L1946.79 63.032C1948.08 65.32 1948.73 67.9013 1948.73 70.776C1948.73 73.0053 1948.29 75.1467 1947.41 77.2C1946.53 79.1947 1945.38 80.9253 1943.97 82.392L1948.64 90.928C1949.4 92.336 1949.96 93.8027 1950.31 95.328C1950.72 96.7947 1950.93 98.4373 1950.93 100.256C1950.93 105.184 1948.75 109.467 1944.41 113.104C1940.07 116.741 1934.94 118.56 1929.01 118.56Z" fill="#F6CA45"/>
<path d="M1551.46 169.312V160.952H1554.02C1554.95 160.952 1555.72 161.363 1556.3 162.184C1556.95 162.947 1557.27 163.885 1557.27 165C1557.27 166.232 1556.98 167.259 1556.39 168.08C1555.81 168.901 1555.04 169.312 1554.1 169.312H1551.46ZM1527.53 144.584L1532.81 124.344H1555.16L1556.39 121.88H1575.75L1580.59 130.68L1574.61 153.384H1571.18C1572.23 154.381 1573.14 155.555 1573.9 156.904L1579.54 167.024C1581.12 169.84 1581.91 173.067 1581.91 176.704C1581.91 181.925 1580.06 186.413 1576.37 190.168C1572.67 193.923 1568.21 195.8 1562.99 195.8H1537.3L1532.46 187V153.384L1527.53 144.584Z" fill="#F6CA45"/>
<path d="M1576.88 144.584L1582.25 124.344H1633.99L1638.83 133.144V195.8H1618.42L1613.58 187V153.384H1607.15V195.8H1586.74L1581.9 187V153.384L1576.88 144.584Z" fill="#F6CA45"/>
<path d="M1683.12 195.8H1645.02L1640.18 187V185.064L1654.43 159.192L1644.49 162.536L1639.65 153.736C1639.06 152.211 1638.56 150.539 1638.15 148.72C1637.8 146.901 1637.63 145.405 1637.63 144.232C1637.63 138.365 1639.74 133.291 1643.96 129.008C1648.19 124.725 1653.26 122.584 1659.19 122.584C1663.41 122.584 1667.34 123.493 1670.98 125.312C1674.61 127.131 1677.31 129.653 1679.07 132.88L1684.44 142.824C1685.73 145.229 1686.38 147.693 1686.38 150.216C1686.38 152.328 1686.23 154.293 1685.94 156.112C1685.64 157.931 1685.23 159.339 1684.71 160.336L1681.27 166.76H1683.65L1688.49 175.56L1683.12 195.8Z" fill="#F6CA45"/>
<path d="M1737.36 156.112V158.752H1738.59L1743.43 167.552L1738.06 186.648H1737.36V195.8H1716.59L1711.75 187V186.648H1692.12L1687.28 177.848V156.024L1705.76 124.344H1728.38L1733.22 133.144L1724.42 149.072L1732.52 147.312L1737.36 156.112Z" fill="#F6CA45"/>
<path d="M1774.78 168.168H1766.34L1770.38 153.032L1774.78 168.168ZM1741.87 195.8L1737.03 187L1742.49 166.76H1747.06L1752.7 149.952L1749.79 144.584L1755.42 124.344H1780.42L1785.26 133.144L1795.9 166.76H1800.74L1805.58 175.56L1800.13 195.8H1741.87Z" fill="#F6CA45"/>
<path d="M1827.66 197.56C1824.19 197.56 1820.91 197.091 1817.8 196.152C1814.75 195.272 1811.38 193.864 1807.68 191.928L1802.84 183.128L1808.3 163.856L1807.06 162.272L1809.97 152.856L1805.83 145.464L1811.2 123.816C1813.49 123.229 1815.25 122.877 1816.48 122.76C1817.71 122.643 1819.38 122.584 1821.5 122.584C1825.19 122.584 1828.8 123.523 1832.32 125.4C1835.9 127.219 1838.6 129.741 1840.42 132.968L1845.43 142.032C1846.72 144.32 1847.37 146.901 1847.37 149.776C1847.37 152.005 1846.93 154.147 1846.05 156.2C1845.17 158.195 1844.02 159.925 1842.62 161.392L1847.28 169.928C1848.04 171.336 1848.6 172.803 1848.95 174.328C1849.36 175.795 1849.57 177.437 1849.57 179.256C1849.57 184.184 1847.4 188.467 1843.06 192.104C1838.71 195.741 1833.58 197.56 1827.66 197.56Z" fill="#F6CA45"/>
<path d="M1870.71 169.928C1868.54 169.928 1866.93 168.667 1865.87 166.144C1864.82 163.563 1864.29 160.131 1864.29 155.848C1864.29 151.565 1864.82 148.104 1865.87 145.464C1866.93 142.765 1868.54 141.416 1870.71 141.416C1872.88 141.416 1874.5 142.765 1875.55 145.464C1876.61 148.104 1877.14 151.565 1877.14 155.848C1877.14 160.189 1876.64 163.621 1875.64 166.144C1874.64 168.667 1873 169.928 1870.71 169.928ZM1875.55 197.56C1871.15 197.56 1867.28 196.445 1863.94 194.216C1860.89 192.221 1858.31 189.347 1856.19 185.592L1850.21 174.944C1848.74 172.011 1847.63 168.96 1846.87 165.792C1846.16 162.565 1845.81 159.251 1845.81 155.848C1845.81 147.517 1847.78 140.184 1851.71 133.848C1856.34 126.339 1862.68 122.584 1870.71 122.584C1875.23 122.584 1879.22 123.699 1882.68 125.928C1885.79 127.923 1888.4 130.768 1890.51 134.464L1896.15 145.288C1897.55 148.104 1898.61 151.243 1899.31 154.704C1900.08 158.107 1900.46 161.421 1900.46 164.648C1900.46 173.037 1898.4 180.4 1894.3 186.736C1889.6 193.952 1883.36 197.56 1875.55 197.56ZM1870.54 164.648L1870.71 168.52C1872.47 168.52 1873.74 167.435 1874.5 165.264C1875.32 163.093 1875.73 159.955 1875.73 155.848L1875.55 151.536C1873.91 151.536 1872.65 152.709 1871.77 155.056C1870.95 157.403 1870.54 160.6 1870.54 164.648Z" fill="#F6CA45"/>
<path d="M1921.43 153.12C1919.96 153.12 1918.67 152.563 1917.56 151.448C1916.44 150.333 1915.89 148.984 1915.89 147.4C1915.89 145.816 1916.41 144.437 1917.47 143.264C1918.58 142.032 1919.9 141.416 1921.43 141.416C1922.9 141.416 1924.19 142.003 1925.3 143.176C1926.42 144.349 1926.97 145.757 1926.97 147.4C1926.97 148.984 1926.42 150.333 1925.3 151.448C1924.19 152.563 1922.9 153.12 1921.43 153.12ZM1933.4 195.8H1909.99L1905.15 187L1911.49 175.208C1910.49 174.445 1909.7 173.771 1909.11 173.184C1908.29 172.304 1907.64 171.483 1907.17 170.72L1900.75 159.632C1898.7 156.053 1897.67 151.976 1897.67 147.4C1897.67 140.653 1899.99 134.845 1904.62 129.976C1909.31 125.048 1914.92 122.584 1921.43 122.584C1925.77 122.584 1929.97 123.728 1934.01 126.016C1938.12 128.245 1941.08 131.149 1942.9 134.728L1948.97 146.784C1949.5 147.84 1949.97 149.277 1950.38 151.096C1950.79 152.915 1951 154.616 1951 156.2C1951 157.784 1950.59 159.925 1949.77 162.624C1949 165.264 1948.09 167.552 1947.04 169.488L1933.4 195.8Z" fill="#F6CA45"/>
<path d="M1552.52 46.752H1533.95L1529.29 64.176H1533.95V106.592H1551.55V72.008L1562.2 86.352H1563.52L1573.73 72.008L1573.9 106.592H1591.5V46.752H1572.58L1562.55 59.6L1552.52 46.752ZM1527.44 65.584L1532.9 45.344H1553.22L1562.55 57.312L1571.88 45.344H1592.91L1597.75 54.144V116.8H1577.34L1572.5 108V91.72L1569.06 96.56H1566.34L1557.8 84.856V116.8H1537.38L1532.54 108V74.384L1527.44 65.584ZM1630.03 108.352C1638.77 108.352 1646.25 105.243 1652.47 99.024C1658.69 92.8053 1661.8 85.3253 1661.8 76.584C1661.8 67.8427 1658.69 60.392 1652.47 54.232C1646.25 48.072 1638.77 44.992 1630.03 44.992C1621.29 44.992 1613.81 48.072 1607.59 54.232C1601.37 60.392 1598.26 67.8427 1598.26 76.584C1598.26 85.3253 1601.37 92.8053 1607.59 99.024C1613.81 105.243 1621.29 108.352 1630.03 108.352ZM1630.03 90.928C1626.34 90.928 1623.17 89.5493 1620.53 86.792C1617.95 83.976 1616.66 80.5733 1616.66 76.584C1616.66 72.6533 1617.95 69.3093 1620.53 66.552C1623.11 63.7947 1626.28 62.416 1630.03 62.416C1633.73 62.416 1636.87 63.824 1639.45 66.64C1642.09 69.3973 1643.41 72.712 1643.41 76.584C1643.41 80.5733 1642.09 83.976 1639.45 86.792C1636.87 89.5493 1633.73 90.928 1630.03 90.928ZM1634.87 118.56C1628.65 118.56 1622.96 116.976 1617.8 113.808C1612.7 110.64 1608.68 106.357 1605.74 100.96L1601.17 92.776C1598.29 87.7893 1596.86 82.392 1596.86 76.584C1596.86 67.5493 1600.11 59.8053 1606.62 53.352C1613.2 46.84 1621 43.584 1630.03 43.584C1636.54 43.584 1642.5 45.344 1647.9 48.864C1653.35 52.384 1657.43 57.048 1660.13 62.856L1664.18 69.984C1665.23 71.8027 1666.14 74.1787 1666.9 77.112C1667.67 79.9867 1668.05 82.744 1668.05 85.384C1668.05 94.4773 1664.79 102.28 1658.28 108.792C1651.77 115.304 1643.97 118.56 1634.87 118.56ZM1630.03 89.52C1633.44 89.52 1636.28 88.288 1638.57 85.824C1640.86 83.36 1642 80.28 1642 76.584L1641.82 74.472V74.912C1639.71 73.3867 1637.4 72.624 1634.87 72.624C1631.47 72.624 1628.62 73.8267 1626.34 76.232C1624.05 78.6373 1622.9 81.688 1622.9 85.384L1623.08 87.232L1622.82 87.056C1624.93 88.6987 1627.33 89.52 1630.03 89.52ZM1704.63 46.752H1681.75L1676.91 64.176H1681.75L1673.39 89.168H1668.82L1664.15 106.592H1719.5L1724.17 89.168H1718.1L1704.63 46.752ZM1700.06 89.168H1691.61L1695.66 74.032L1700.06 89.168ZM1667.14 116.8L1662.3 108L1667.76 87.76H1672.34L1677.97 70.952L1675.06 65.584L1680.7 45.344H1705.69L1710.53 54.144L1721.18 87.76H1726.02L1730.86 96.56L1725.4 116.8H1667.14ZM1743.25 46.752H1724.42L1742.28 88.64L1741.93 89.168H1732.86L1728.29 106.592H1743.07C1746.65 106.592 1749.67 105.741 1752.14 104.04C1754.6 102.339 1756.45 99.6693 1757.68 96.032L1775.02 46.752H1755.57L1750.46 65.584H1750.11L1743.25 46.752ZM1750.82 58.984L1754.51 45.344H1777.04L1781.88 54.144L1763.84 105.272C1762.49 109.144 1760.44 112.019 1757.68 113.896C1754.92 115.832 1751.67 116.8 1747.91 116.8H1731.28L1726.44 108L1731.81 87.76H1740.43L1722.3 45.344H1744.22L1749.06 54.144L1750.82 58.984ZM1807.35 46.752H1784.47L1779.72 64.176H1784.47L1770.92 106.592H1788.96L1798.2 75.352L1807.96 106.592H1826.18L1807.35 46.752ZM1783.41 45.344H1808.4L1813.24 54.144L1832.96 116.8H1811.75L1806.91 108L1802.07 92.248L1794.85 116.8H1773.82L1768.98 108L1780.86 70.952L1777.87 65.584L1783.41 45.344ZM1847.75 46.752H1830.15L1825.49 64.176H1830.15V106.592H1852.33C1858.49 106.592 1863.74 104.333 1868.08 99.816C1872.42 95.2987 1874.59 89.8427 1874.59 83.448C1874.59 76.5253 1872.42 70.688 1868.08 65.936C1863.74 61.1253 1858.43 58.72 1852.15 58.72H1847.75V46.752ZM1847.75 89.168V76.144H1850.31C1851.89 76.144 1853.27 76.76 1854.44 77.992C1855.62 79.224 1856.2 80.6907 1856.2 82.392C1856.2 84.0933 1855.62 85.648 1854.44 87.056C1853.27 88.464 1851.89 89.168 1850.31 89.168H1847.75ZM1823.64 65.584L1829.1 45.344H1849.16L1854 54.144V57.4C1857.82 57.752 1861.37 59.072 1864.65 61.36C1867.99 63.648 1870.63 66.552 1872.57 70.072L1877.85 79.752C1879.85 83.5653 1880.84 87.7307 1880.84 92.248C1880.84 98.8773 1878.53 104.627 1873.89 109.496C1869.26 114.365 1863.68 116.8 1857.17 116.8H1833.59L1828.75 108V74.384L1823.64 65.584ZM1914.14 69.456L1910.27 81.864H1921.18C1922.53 81.864 1923.67 82.4213 1924.61 83.536C1925.61 84.592 1926.11 85.6773 1926.11 86.792C1926.11 87.848 1925.64 88.816 1924.7 89.696C1923.82 90.5173 1922.71 90.928 1921.36 90.928C1919.19 90.928 1917.34 90.6347 1915.81 90.048C1914.29 89.4613 1912.5 88.4933 1910.45 87.144L1905.87 103.424C1908.92 105.008 1911.91 106.24 1914.85 107.12C1917.78 107.941 1920.89 108.352 1924.17 108.352C1929.81 108.352 1934.62 106.709 1938.61 103.424C1942.65 100.08 1944.68 96.0907 1944.68 91.456C1944.68 87.9947 1943.65 84.68 1941.6 81.512C1939.54 78.344 1937.14 76.2613 1934.38 75.264C1936.67 74.2667 1938.58 72.5067 1940.1 69.984C1941.63 67.4027 1942.39 64.7333 1942.39 61.976C1942.39 56.8133 1940.28 52.6187 1936.05 49.392C1932.24 46.4587 1927.84 44.992 1922.85 44.992C1920.39 44.992 1918.75 45.0507 1917.93 45.168C1917.16 45.2267 1915.75 45.4907 1913.7 45.96L1909.21 64.176C1910.39 63.7067 1911.97 63.296 1913.97 62.944C1915.96 62.592 1917.9 62.416 1919.77 62.416C1920.95 62.416 1921.97 62.7973 1922.85 63.56C1923.73 64.3227 1924.17 65.1733 1924.17 66.112C1924.17 67.0507 1923.79 67.8427 1923.03 68.488C1922.27 69.1333 1921.3 69.456 1920.13 69.456H1914.14ZM1929.01 118.56C1925.55 118.56 1922.27 118.091 1919.16 117.152C1916.11 116.272 1912.73 114.864 1909.04 112.928L1904.2 104.128L1909.65 84.856L1908.42 83.272L1911.33 73.856L1907.19 66.464L1912.56 44.816C1914.85 44.2293 1916.61 43.8773 1917.84 43.76C1919.07 43.6427 1920.74 43.584 1922.85 43.584C1926.55 43.584 1930.16 44.5227 1933.68 46.4C1937.26 48.2187 1939.95 50.7413 1941.77 53.968L1946.79 63.032C1948.08 65.32 1948.73 67.9013 1948.73 70.776C1948.73 73.0053 1948.29 75.1467 1947.41 77.2C1946.53 79.1947 1945.38 80.9253 1943.97 82.392L1948.64 90.928C1949.4 92.336 1949.96 93.8027 1950.31 95.328C1950.72 96.7947 1950.93 98.4373 1950.93 100.256C1950.93 105.184 1948.75 109.467 1944.41 113.104C1940.07 116.741 1934.94 118.56 1929.01 118.56ZM1533.86 143.176V185.592H1558.15C1563.02 185.592 1567.16 183.861 1570.56 180.4C1573.96 176.939 1575.66 172.773 1575.66 167.904C1575.66 162.741 1573.93 158.312 1570.47 154.616C1567.01 150.92 1562.82 149.072 1557.89 149.072H1551.46V143.176H1568.71L1573.9 123.288H1557.27L1556.04 125.752H1533.86L1529.38 143.176H1533.86ZM1551.46 169.312V160.952H1554.02C1554.95 160.952 1555.72 161.363 1556.3 162.184C1556.95 162.947 1557.27 163.885 1557.27 165C1557.27 166.232 1556.98 167.259 1556.39 168.08C1555.81 168.901 1555.04 169.312 1554.1 169.312H1551.46ZM1527.53 144.584L1532.81 124.344H1555.16L1556.39 121.88H1575.75L1580.59 130.68L1574.61 153.384H1571.18C1572.23 154.381 1573.14 155.555 1573.9 156.904L1579.54 167.024C1581.12 169.84 1581.91 173.067 1581.91 176.704C1581.91 181.925 1580.06 186.413 1576.37 190.168C1572.67 193.923 1568.21 195.8 1562.99 195.8H1537.3L1532.46 187V153.384L1527.53 144.584ZM1632.58 125.752H1583.3L1578.73 143.176H1583.3V185.592H1600.9V143.176H1614.98V185.592H1632.58V125.752ZM1576.88 144.584L1582.25 124.344H1633.99L1638.83 133.144V195.8H1618.42L1613.58 187V153.384H1607.15V195.8H1586.74L1581.9 187V153.384L1576.88 144.584ZM1677.23 185.592L1681.8 168.168H1669.31L1678.63 150.832C1679.04 150.069 1679.4 148.808 1679.69 147.048C1679.98 145.288 1680.13 143.411 1680.13 141.416C1680.13 136.371 1678.05 132.205 1673.88 128.92C1669.77 125.635 1664.88 123.992 1659.19 123.992C1653.61 123.992 1648.86 125.957 1644.93 129.888C1641 133.819 1639.03 138.6 1639.03 144.232C1639.03 146.989 1639.5 149.571 1640.44 151.976L1655.67 146.872C1655.43 146.461 1655.31 145.904 1655.31 145.2C1655.31 144.203 1655.67 143.323 1656.37 142.56C1657.07 141.797 1657.98 141.416 1659.1 141.416C1660.09 141.416 1660.95 141.797 1661.65 142.56C1662.35 143.323 1662.71 144.203 1662.71 145.2C1662.71 146.432 1662.35 147.693 1661.65 148.984L1641.59 185.416L1677.23 185.592ZM1683.12 195.8H1645.02L1640.18 187V185.064L1654.43 159.192L1644.49 162.536L1639.65 153.736C1639.06 152.211 1638.56 150.539 1638.15 148.72C1637.8 146.901 1637.63 145.405 1637.63 144.232C1637.63 138.365 1639.74 133.291 1643.96 129.008C1648.19 124.725 1653.26 122.584 1659.19 122.584C1663.41 122.584 1667.34 123.493 1670.98 125.312C1674.61 127.131 1677.31 129.653 1679.07 132.88L1684.44 142.824C1685.73 145.229 1686.38 147.693 1686.38 150.216C1686.38 152.328 1686.23 154.293 1685.94 156.112C1685.64 157.931 1685.23 159.339 1684.71 160.336L1681.27 166.76H1683.65L1688.49 175.56L1683.12 195.8ZM1713.16 176.44V185.592H1731.11V176.44H1732.16L1736.74 160.16H1731.11V149.072L1713.16 153.032V160.16H1707L1726 125.752H1706.56L1688.69 156.376V176.44H1713.16ZM1737.36 156.112V158.752H1738.59L1743.43 167.552L1738.06 186.648H1737.36V195.8H1716.59L1711.75 187V186.648H1692.12L1687.28 177.848V156.024L1705.76 124.344H1728.38L1733.22 133.144L1724.42 149.072L1732.52 147.312L1737.36 156.112ZM1779.36 125.752H1756.48L1751.64 143.176H1756.48L1748.12 168.168H1743.54L1738.88 185.592H1794.23L1798.9 168.168H1792.82L1779.36 125.752ZM1774.78 168.168H1766.34L1770.38 153.032L1774.78 168.168ZM1741.87 195.8L1737.03 187L1742.49 166.76H1747.06L1752.7 149.952L1749.79 144.584L1755.42 124.344H1780.42L1785.26 133.144L1795.9 166.76H1800.74L1805.58 175.56L1800.13 195.8H1741.87ZM1812.78 148.456L1808.91 160.864H1819.82C1821.17 160.864 1822.32 161.421 1823.26 162.536C1824.25 163.592 1824.75 164.677 1824.75 165.792C1824.75 166.848 1824.28 167.816 1823.34 168.696C1822.46 169.517 1821.35 169.928 1820 169.928C1817.83 169.928 1815.98 169.635 1814.46 169.048C1812.93 168.461 1811.14 167.493 1809.09 166.144L1804.51 182.424C1807.56 184.008 1810.55 185.24 1813.49 186.12C1816.42 186.941 1819.53 187.352 1822.82 187.352C1828.45 187.352 1833.26 185.709 1837.25 182.424C1841.3 179.08 1843.32 175.091 1843.32 170.456C1843.32 166.995 1842.29 163.68 1840.24 160.512C1838.19 157.344 1835.78 155.261 1833.02 154.264C1835.31 153.267 1837.22 151.507 1838.74 148.984C1840.27 146.403 1841.03 143.733 1841.03 140.976C1841.03 135.813 1838.92 131.619 1834.7 128.392C1830.88 125.459 1826.48 123.992 1821.5 123.992C1819.03 123.992 1817.39 124.051 1816.57 124.168C1815.8 124.227 1814.4 124.491 1812.34 124.96L1807.86 143.176C1809.03 142.707 1810.61 142.296 1812.61 141.944C1814.6 141.592 1816.54 141.416 1818.42 141.416C1819.59 141.416 1820.62 141.797 1821.5 142.56C1822.38 143.323 1822.82 144.173 1822.82 145.112C1822.82 146.051 1822.43 146.843 1821.67 147.488C1820.91 148.133 1819.94 148.456 1818.77 148.456H1812.78ZM1827.66 197.56C1824.19 197.56 1820.91 197.091 1817.8 196.152C1814.75 195.272 1811.38 193.864 1807.68 191.928L1802.84 183.128L1808.3 163.856L1807.06 162.272L1809.97 152.856L1805.83 145.464L1811.2 123.816C1813.49 123.229 1815.25 122.877 1816.48 122.76C1817.71 122.643 1819.38 122.584 1821.5 122.584C1825.19 122.584 1828.8 123.523 1832.32 125.4C1835.9 127.219 1838.6 129.741 1840.42 132.968L1845.43 142.032C1846.72 144.32 1847.37 146.901 1847.37 149.776C1847.37 152.005 1846.93 154.147 1846.05 156.2C1845.17 158.195 1844.02 159.925 1842.62 161.392L1847.28 169.928C1848.04 171.336 1848.6 172.803 1848.95 174.328C1849.36 175.795 1849.57 177.437 1849.57 179.256C1849.57 184.184 1847.4 188.467 1843.06 192.104C1838.71 195.741 1833.58 197.56 1827.66 197.56ZM1870.71 187.352C1878.11 187.352 1884 183.949 1888.4 177.144C1892.27 171.16 1894.21 164.061 1894.21 155.848C1894.21 147.4 1892.45 140.272 1888.93 134.464C1884.71 127.483 1878.63 123.992 1870.71 123.992C1863.2 123.992 1857.25 127.541 1852.85 134.64C1849.1 140.741 1847.22 147.811 1847.22 155.848C1847.22 164.12 1849.07 171.189 1852.76 177.056C1857.1 183.92 1863.09 187.352 1870.71 187.352ZM1870.71 169.928C1868.54 169.928 1866.93 168.667 1865.87 166.144C1864.82 163.563 1864.29 160.131 1864.29 155.848C1864.29 151.565 1864.82 148.104 1865.87 145.464C1866.93 142.765 1868.54 141.416 1870.71 141.416C1872.88 141.416 1874.5 142.765 1875.55 145.464C1876.61 148.104 1877.14 151.565 1877.14 155.848C1877.14 160.189 1876.64 163.621 1875.64 166.144C1874.64 168.667 1873 169.928 1870.71 169.928ZM1875.55 197.56C1871.15 197.56 1867.28 196.445 1863.94 194.216C1860.89 192.221 1858.31 189.347 1856.19 185.592L1850.21 174.944C1848.74 172.011 1847.63 168.96 1846.87 165.792C1846.16 162.565 1845.81 159.251 1845.81 155.848C1845.81 147.517 1847.78 140.184 1851.71 133.848C1856.34 126.339 1862.68 122.584 1870.71 122.584C1875.23 122.584 1879.22 123.699 1882.68 125.928C1885.79 127.923 1888.4 130.768 1890.51 134.464L1896.15 145.288C1897.55 148.104 1898.61 151.243 1899.31 154.704C1900.08 158.107 1900.46 161.421 1900.46 164.648C1900.46 173.037 1898.4 180.4 1894.3 186.736C1889.6 193.952 1883.36 197.56 1875.55 197.56ZM1870.54 164.648L1870.71 168.52C1872.47 168.52 1873.74 167.435 1874.5 165.264C1875.32 163.093 1875.73 159.955 1875.73 155.848L1875.55 151.536C1873.91 151.536 1872.65 152.709 1871.77 155.056C1870.95 157.403 1870.54 160.6 1870.54 164.648ZM1907.53 185.592H1927.68L1940.97 160.072C1941.96 158.253 1942.84 156.053 1943.61 153.472C1944.37 150.891 1944.75 148.867 1944.75 147.4C1944.75 140.947 1942.49 135.432 1937.97 130.856C1933.46 126.28 1927.94 123.992 1921.43 123.992C1915.21 123.992 1909.93 126.28 1905.59 130.856C1901.25 135.373 1899.08 140.888 1899.08 147.4C1899.08 153.091 1900.63 157.901 1903.74 161.832C1906.91 165.763 1911.22 167.963 1916.68 168.432L1907.53 185.592ZM1921.43 153.12C1919.96 153.12 1918.67 152.563 1917.56 151.448C1916.44 150.333 1915.89 148.984 1915.89 147.4C1915.89 145.816 1916.41 144.437 1917.47 143.264C1918.58 142.032 1919.9 141.416 1921.43 141.416C1922.9 141.416 1924.19 142.003 1925.3 143.176C1926.42 144.349 1926.97 145.757 1926.97 147.4C1926.97 148.984 1926.42 150.333 1925.3 151.448C1924.19 152.563 1922.9 153.12 1921.43 153.12ZM1933.4 195.8H1909.99L1905.15 187L1911.49 175.208C1910.49 174.445 1909.7 173.771 1909.11 173.184C1908.29 172.304 1907.64 171.483 1907.17 170.72L1900.75 159.632C1898.7 156.053 1897.67 151.976 1897.67 147.4C1897.67 140.653 1899.99 134.845 1904.62 129.976C1909.31 125.048 1914.92 122.584 1921.43 122.584C1925.77 122.584 1929.97 123.728 1934.01 126.016C1938.12 128.245 1941.08 131.149 1942.9 134.728L1948.97 146.784C1949.5 147.84 1949.97 149.277 1950.38 151.096C1950.79 152.915 1951 154.616 1951 156.2C1951 157.784 1950.59 159.925 1949.77 162.624C1949 165.264 1948.09 167.552 1947.04 169.488L1933.4 195.8Z" fill="#1D1E19"/>
<path d="M1638.57 85.824C1636.28 88.288 1633.44 89.52 1630.03 89.52C1627.33 89.52 1624.93 88.6987 1622.82 87.056L1623.08 87.232L1622.9 85.384C1622.9 81.688 1624.05 78.6374 1626.34 76.232C1628.62 73.8267 1631.47 72.624 1634.87 72.624C1637.4 72.624 1639.71 73.3867 1641.82 74.912V74.472L1642 76.584C1642 80.28 1640.86 83.36 1638.57 85.824Z" fill="#F57B45"/>
<path d="M1870.71 168.52L1870.54 164.648C1870.54 160.6 1870.95 157.403 1871.77 155.056C1872.65 152.709 1873.91 151.536 1875.55 151.536L1875.73 155.848C1875.73 159.955 1875.32 163.093 1874.5 165.264C1873.74 167.435 1872.47 168.52 1870.71 168.52Z" fill="#F57B45"/>
</svg>
