<svg width="615" height="161" viewBox="0 0 615 161" fill="none" xmlns="http://www.w3.org/2000/svg">
<path d="M68.8894 26.7239V20.1639H73.3994C76.0781 20.1639 77.4174 21.2573 77.4174 23.4439C77.4174 24.4279 77.1441 25.2206 76.5974 25.8219C76.0508 26.4233 75.1761 26.7239 73.9734 26.7239H68.8894ZM68.8894 44.5179V36.5639H73.2354C74.8754 36.5639 76.0508 36.9193 76.7614 37.6299C77.5268 38.2859 77.9094 39.2426 77.9094 40.4999C77.9094 41.7573 77.5541 42.7413 76.8434 43.4519C76.1328 44.1626 74.9301 44.5179 73.2354 44.5179H68.8894ZM46.5034 21.4759L51.5054 2.61594H77.9094C81.3534 2.61594 84.4694 3.46328 87.2574 5.15794C89.7721 6.68861 91.7401 8.73861 93.1614 11.3079L98.2454 20.5739C98.6828 21.3393 99.0108 22.2959 99.2294 23.4439C99.4481 24.5373 99.5574 25.6033 99.5574 26.6419C99.5574 28.8286 99.1201 30.9059 98.2454 32.8739C97.4254 34.8419 96.3594 36.3726 95.0474 37.4659L99.3114 45.0099C99.9128 45.9939 100.323 47.1419 100.541 48.4539C100.76 49.7113 100.869 51.1326 100.869 52.7179C100.869 57.3646 99.1201 61.2733 95.6214 64.4439C92.1228 67.6146 87.7221 69.1999 82.4194 69.1999H55.6874L51.1774 60.9999V29.6759L46.5034 21.4759Z" fill="#66AEF4"/>
<path d="M118.863 43.4519V31.2339H121.323C122.799 31.2339 124.057 31.8353 125.095 33.0379C126.189 34.1859 126.735 35.5526 126.735 37.1379C126.735 38.9419 126.216 40.4453 125.177 41.6479C124.139 42.8506 122.854 43.4519 121.323 43.4519H118.863ZM96.4773 21.4759L101.479 2.61594H120.175L124.685 10.8159V13.7679C128.457 14.1506 131.901 15.4899 135.017 17.7859C138.188 20.0819 140.675 23.0339 142.479 26.6419L147.153 35.1699V29.6759H146.825L142.315 21.4759L147.481 2.61594H166.177L170.687 10.8159V69.1999H151.663L147.153 60.9999V56.8179C145.295 60.5353 142.616 63.5146 139.117 65.7559C135.673 68.0519 131.874 69.1999 127.719 69.1999H105.661L101.151 60.9999V29.6759L96.4773 21.4759Z" fill="#66AEF4"/>
<path d="M236.625 -0.00805664L252.615 6.79794L257.125 14.9979L247.695 33.5299C245.508 31.5619 243.704 30.2226 242.283 29.5119C240.37 28.5279 238.128 28.0359 235.559 28.0359C232.443 28.0359 229.792 29.2113 227.605 31.5619C225.473 33.8579 224.407 36.6459 224.407 39.9259L224.571 41.5659C226.484 43.0419 228.644 43.7799 231.049 43.7799C233.564 43.7799 235.668 43.3973 237.363 42.6319C239.058 41.8119 240.916 40.3633 242.939 38.2859L253.845 53.4559L258.355 61.6559C255.458 64.4439 252.068 66.6579 248.187 68.2979C244.36 69.9926 240.124 70.8399 235.477 70.8399C230.338 70.8399 225.5 69.7193 220.963 67.4779C216.426 65.2913 213.091 62.3393 210.959 58.6219L203.333 45.3379C202.24 43.4246 201.42 41.3199 200.873 39.0239C200.381 36.7279 200.135 34.2953 200.135 31.7259C200.135 23.3073 203.169 16.0913 209.237 10.0779C215.36 4.00994 222.63 0.97594 231.049 0.97594C231.705 0.97594 232.47 1.03061 233.345 1.13994C234.22 1.24928 234.93 1.35861 235.477 1.46794L236.625 -0.00805664Z" fill="#66AEF4"/>
<path d="M282.264 45.0919C278.82 45.0919 275.868 43.8073 273.408 41.2379C271.002 38.6139 269.8 35.4433 269.8 31.7259C269.8 28.0633 271.002 24.9473 273.408 22.3779C275.813 19.8086 278.765 18.5239 282.264 18.5239C285.708 18.5239 288.632 19.8359 291.038 22.4599C293.498 25.0293 294.728 28.1179 294.728 31.7259C294.728 35.4433 293.498 38.6139 291.038 41.2379C288.632 43.8073 285.708 45.0919 282.264 45.0919ZM286.774 70.8399C280.979 70.8399 275.676 69.3639 270.866 66.4119C266.11 63.4599 262.365 59.4693 259.632 54.4399L255.368 46.8139C252.689 42.1673 251.35 37.1379 251.35 31.7259C251.35 23.3073 254.384 16.0913 260.452 10.0779C266.574 4.00994 273.845 0.97594 282.264 0.97594C288.332 0.97594 293.88 2.61594 298.91 5.89594C303.994 9.17594 307.793 13.5219 310.308 18.9339L314.08 25.5759C315.064 27.2706 315.911 29.4846 316.622 32.2179C317.332 34.8966 317.688 37.4659 317.688 39.9259C317.688 48.3993 314.654 55.6699 308.586 61.7379C302.518 67.8059 295.247 70.8399 286.774 70.8399ZM282.264 43.7799C285.434 43.7799 288.086 42.6319 290.218 40.3359C292.35 38.0399 293.416 35.1699 293.416 31.7259L293.252 29.7579V30.1679C291.284 28.7466 289.124 28.0359 286.774 28.0359C283.603 28.0359 280.952 29.1566 278.82 31.3979C276.688 33.6393 275.622 36.4819 275.622 39.9259L275.786 41.6479L275.54 41.4839C277.508 43.0146 279.749 43.7799 282.264 43.7799Z" fill="#66AEF4"/>
<path d="M334.72 44.5179V36.7279H337.098C337.973 36.7279 338.683 37.1106 339.23 37.8759C339.831 38.5866 340.132 39.4613 340.132 40.4999C340.132 41.6479 339.859 42.6046 339.312 43.3699C338.765 44.1353 338.055 44.5179 337.18 44.5179H334.72ZM312.416 21.4759L317.336 2.61594H338.164L339.312 0.319944H357.352L361.862 8.51994L356.286 29.6759H353.088C354.072 30.6053 354.919 31.6986 355.63 32.9559L360.878 42.3859C362.354 45.0099 363.092 48.0166 363.092 51.4059C363.092 56.2713 361.37 60.4533 357.926 63.9519C354.482 67.4506 350.327 69.1999 345.462 69.1999H321.518L317.008 60.9999V29.6759L312.416 21.4759Z" fill="#66AEF4"/>
<path d="M379.887 32.2999V20.1639H383.003C384.589 20.1639 385.819 20.8199 386.693 22.1319C387.568 23.3893 388.005 24.8106 388.005 26.3959C388.005 28.1453 387.65 29.5119 386.939 30.4959C386.065 31.6986 384.698 32.2999 382.839 32.2999H379.887ZM357.501 21.4759L362.503 2.61594H383.659C388.579 2.61594 392.816 3.90061 396.369 6.46994C399.321 8.60194 401.891 11.6633 404.077 15.6539L406.865 20.7379C408.013 22.8153 408.915 25.0839 409.571 27.5439C410.282 30.0039 410.637 32.3546 410.637 34.5959C410.637 40.8279 408.587 46.1306 404.487 50.5039C400.442 54.8226 395.057 56.9819 388.333 56.9819H385.709V69.1999H366.685L362.175 60.9999V29.6759L357.501 21.4759Z" fill="#66AEF4"/>
<path d="M427.051 37.8759L431.561 20.1639L436.317 37.8759H427.051ZM414.997 2.61594H444.107L448.617 10.8159L465.755 69.1999H444.927L440.909 61.8199H429.921L428.117 69.1999H407.781L403.271 60.9999L412.783 26.8879L409.831 21.4759L414.997 2.61594Z" fill="#66AEF4"/>
<path d="M474.632 2.61594H497.92L502.43 10.8159L520.798 69.1999H501.036L496.526 60.9999L492.016 46.3219L485.292 69.1999H465.694L461.184 60.9999L472.254 26.4779L469.466 21.4759L474.632 2.61594Z" fill="#66AEF4"/>
<path d="M515.891 29.6759L511.381 21.4759L516.547 2.61594H535.243L539.753 10.8159V19.1799L549.101 2.61594H565.747L570.257 10.8159V69.1999H551.233L546.723 60.9999V58.0479L540.491 69.1999H520.729L516.219 60.9999V29.6759H515.891Z" fill="#66AEF4"/>
<path d="M0.578613 111.476L5.66261 92.6159H24.3586L28.8686 100.816V111.476H34.7726V92.6159H53.7966L58.3066 100.816V159.2H39.2826L34.7726 151V138.618H28.8686V159.2H9.84461L5.33461 151V119.676L0.578613 111.476Z" fill="#66AEF4"/>
<path d="M61.3489 119.676L56.6749 111.476L61.6769 92.6159H82.0129L83.1609 90.3199H101.037L105.547 98.5199L101.365 116.56L104.235 121.808L101.365 134.436L104.645 140.34L99.8069 159.2H65.8589L61.3489 151V119.676Z" fill="#66AEF4"/>
<path d="M148.015 116.724V110.164H152.525C155.203 110.164 156.543 111.257 156.543 113.444C156.543 114.428 156.269 115.221 155.723 115.822C155.176 116.423 154.301 116.724 153.099 116.724H148.015ZM148.015 134.518V126.564H152.361C154.001 126.564 155.176 126.919 155.887 127.63C156.652 128.286 157.035 129.243 157.035 130.5C157.035 131.757 156.679 132.741 155.969 133.452C155.258 134.163 154.055 134.518 152.361 134.518H148.015ZM125.629 111.476L130.631 92.6159H157.035C160.479 92.6159 163.595 93.4633 166.383 95.1579C168.897 96.6886 170.865 98.7386 172.287 101.308L177.371 110.574C177.808 111.339 178.136 112.296 178.355 113.444C178.573 114.537 178.683 115.603 178.683 116.642C178.683 118.829 178.245 120.906 177.371 122.874C176.551 124.842 175.485 126.373 174.173 127.466L178.437 135.01C179.038 135.994 179.448 137.142 179.667 138.454C179.885 139.711 179.995 141.133 179.995 142.718C179.995 147.365 178.245 151.273 174.747 154.444C171.248 157.615 166.847 159.2 161.545 159.2H134.813L130.303 151V119.676L125.629 111.476Z" fill="#66AEF4"/>
<path d="M213.65 89.9919L229.64 96.7979L234.15 104.998L224.72 123.53C222.534 121.562 220.73 120.223 219.309 119.512C217.395 118.528 215.154 118.036 212.584 118.036C209.468 118.036 206.817 119.211 204.63 121.562C202.498 123.858 201.432 126.646 201.432 129.926L201.596 131.566C203.51 133.042 205.669 133.78 208.074 133.78C210.589 133.78 212.694 133.397 214.388 132.632C216.083 131.812 217.942 130.363 219.964 128.286L230.87 143.456L235.38 151.656C232.483 154.444 229.094 156.658 225.212 158.298C221.386 159.993 217.149 160.84 212.503 160.84C207.364 160.84 202.526 159.719 197.988 157.478C193.451 155.291 190.116 152.339 187.984 148.622L180.358 135.338C179.265 133.425 178.445 131.32 177.898 129.024C177.406 126.728 177.16 124.295 177.16 121.726C177.16 113.307 180.194 106.091 186.262 100.078C192.385 94.0099 199.656 90.9759 208.074 90.9759C208.73 90.9759 209.496 91.0306 210.37 91.1399C211.245 91.2493 211.956 91.3586 212.503 91.4679L213.65 89.9919Z" fill="#66AEF4"/>
<path d="M236.329 119.676L231.655 111.476L236.657 92.6159H256.993L258.141 90.3199H276.017L280.527 98.5199L276.345 116.56L279.215 121.808L276.345 134.436L279.625 140.34L274.787 159.2H240.839L236.329 151V119.676Z" fill="#66AEF4"/>
<path d="M322.995 134.518V126.728H325.373C326.248 126.728 326.958 127.111 327.505 127.876C328.106 128.587 328.407 129.461 328.407 130.5C328.407 131.648 328.134 132.605 327.587 133.37C327.04 134.135 326.33 134.518 325.455 134.518H322.995ZM300.691 111.476L305.611 92.6159H326.439L327.587 90.3199H345.627L350.137 98.5199L344.561 119.676H341.363C342.347 120.605 343.194 121.699 343.905 122.956L349.153 132.386C350.629 135.01 351.367 138.017 351.367 141.406C351.367 146.271 349.645 150.453 346.201 153.952C342.757 157.451 338.602 159.2 333.737 159.2H309.793L305.283 151V119.676L300.691 111.476Z" fill="#66AEF4"/>
<path d="M350.368 119.676L345.858 111.476L351.024 92.6159H369.72L374.23 100.816V109.18L383.578 92.6159H400.224L404.734 100.816V159.2H385.71L381.2 151V148.048L374.968 159.2H355.206L350.696 151V119.676H350.368Z" fill="#66AEF4"/>
<path d="M416.619 92.6159H439.907L444.417 100.816L462.785 159.2H443.023L438.513 151L434.003 136.322L427.279 159.2H407.681L403.171 151L414.241 116.478L411.453 111.476L416.619 92.6159Z" fill="#66AEF4"/>
<path d="M458.78 119.676L454.106 111.476L459.108 92.6159H479.444L480.592 90.3199H498.468L502.978 98.5199L498.796 116.56L501.666 121.808L498.796 134.436L502.076 140.34L497.238 159.2H463.29L458.78 151V119.676Z" fill="#66AEF4"/>
<path d="M507.622 151V119.676H502.62L498.11 111.476L503.112 92.6159H521.316L522.464 90.3199H540.422L544.932 98.5199L539.192 119.676H531.156V159.2H512.132L507.622 151Z" fill="#66AEF4"/>
<path d="M562.479 133.452V121.234H564.938C566.414 121.234 567.672 121.835 568.711 123.038C569.804 124.186 570.351 125.553 570.351 127.138C570.351 128.942 569.831 130.445 568.792 131.648C567.754 132.851 566.469 133.452 564.938 133.452H562.479ZM540.092 111.476L545.094 92.6159H563.791L568.3 100.816V103.768C572.072 104.151 575.517 105.49 578.633 107.786C581.803 110.082 584.29 113.034 586.094 116.642L590.768 125.17V119.676H590.44L585.93 111.476L591.096 92.6159H609.792L614.302 100.816V159.2H595.279L590.768 151V146.818C588.91 150.535 586.231 153.515 582.732 155.756C579.288 158.052 575.489 159.2 571.334 159.2H549.276L544.766 151V119.676L540.092 111.476Z" fill="#66AEF4"/>
<path d="M52.4896 20.164V59.688H77.9096C82.939 59.688 87.039 58.2667 90.2096 55.424C93.435 52.5267 95.0476 48.8913 95.0476 44.518C95.0476 41.1833 94.3096 38.2587 92.8336 35.744C91.3576 33.2293 89.0616 31.398 85.9456 30.25C88.4056 29.3207 90.319 27.79 91.6856 25.658C93.0523 23.526 93.7356 21.1207 93.7356 18.442C93.7356 14.506 92.3143 11.144 89.4716 8.356C86.465 5.404 82.611 3.928 77.9096 3.928H52.4896L48.2256 20.164H52.4896ZM68.8896 26.724V20.164H73.3996C76.0783 20.164 77.4176 21.2573 77.4176 23.444C77.4176 24.428 77.1443 25.2207 76.5976 25.822C76.051 26.4233 75.1763 26.724 73.9736 26.724H68.8896ZM68.8896 44.518V36.564H73.2356C74.8756 36.564 76.051 36.9193 76.7616 37.63C77.527 38.286 77.9096 39.2427 77.9096 40.5C77.9096 41.7573 77.5543 42.7413 76.8436 43.452C76.133 44.1627 74.9303 44.518 73.2356 44.518H68.8896ZM46.5036 21.476L51.5056 2.616H77.9096C81.3536 2.616 84.4696 3.46333 87.2576 5.158C89.7723 6.68866 91.7403 8.73866 93.1616 11.308L98.2456 20.574C98.683 21.3393 99.011 22.296 99.2296 23.444C99.4483 24.5373 99.5576 25.6033 99.5576 26.642C99.5576 28.8287 99.1203 30.906 98.2456 32.874C97.4256 34.842 96.3596 36.3727 95.0476 37.466L99.3116 45.01C99.913 45.994 100.323 47.142 100.542 48.454C100.76 49.7113 100.87 51.1327 100.87 52.718C100.87 57.3647 99.1203 61.2733 95.6216 64.444C92.123 67.6147 87.7223 69.2 82.4196 69.2H55.6876L51.1776 61V29.676L46.5036 21.476ZM118.864 3.928H102.464L98.1995 20.164H102.464V59.688H123.21C128.895 59.688 133.76 57.5833 137.806 53.374C141.851 49.1647 143.874 44.0807 143.874 38.122C143.874 31.726 141.824 26.2867 137.724 21.804C133.678 17.2667 128.758 14.998 122.964 14.998H118.864V3.928ZM118.864 43.452V31.234H121.324C122.8 31.234 124.057 31.8353 125.096 33.038C126.189 34.186 126.736 35.5527 126.736 37.138C126.736 38.942 126.216 40.4453 125.178 41.648C124.139 42.8507 122.854 43.452 121.324 43.452H118.864ZM164.866 3.928H148.466L144.038 20.164H148.466V59.688H164.866V3.928ZM96.4775 21.476L101.48 2.616H120.176L124.686 10.816V13.768C128.458 14.1507 131.902 15.49 135.018 17.786C138.188 20.082 140.676 23.034 142.48 26.642L147.154 35.17V29.676H146.826L142.316 21.476L147.482 2.616H166.178L170.688 10.816V69.2H151.664L147.154 61V56.818C145.295 60.5353 142.616 63.5147 139.118 65.756C135.674 68.052 131.874 69.2 127.72 69.2H105.662L101.152 61V29.676L96.4775 21.476ZM124.358 13.768L123.948 13.686L124.358 13.768ZM250.811 7.454L237.035 1.632L236.051 2.944C234.083 2.50667 232.416 2.288 231.049 2.288C222.904 2.288 215.934 5.158 210.139 10.898C204.344 16.638 201.447 23.5807 201.447 31.726C201.447 39.8713 204.317 46.8413 210.057 52.636C215.797 58.4307 222.767 61.328 230.967 61.328C235.45 61.328 239.468 60.6173 243.021 59.196C246.574 57.72 249.608 55.752 252.123 53.292L242.775 40.336C239.714 43.5067 235.805 45.092 231.049 45.092C227.66 45.092 224.735 43.7527 222.275 41.074C219.815 38.3953 218.585 35.2793 218.585 31.726C218.585 28.1727 219.788 25.084 222.193 22.46C224.653 19.836 227.605 18.524 231.049 18.524C233.618 18.524 235.969 19.016 238.101 20C239.632 20.7107 241.19 21.7767 242.775 23.198L250.811 7.454ZM236.625 -0.00800145L252.615 6.798L257.125 14.998L247.695 33.53C245.508 31.562 243.704 30.2227 242.283 29.512C240.37 28.528 238.128 28.036 235.559 28.036C232.443 28.036 229.792 29.2113 227.605 31.562C225.473 33.858 224.407 36.646 224.407 39.926L224.571 41.566C226.484 43.042 228.644 43.78 231.049 43.78C233.564 43.78 235.668 43.3973 237.363 42.632C239.058 41.812 240.916 40.3633 242.939 38.286L253.845 53.456L258.355 61.656C255.458 64.444 252.068 66.658 248.187 68.298C244.36 69.9927 240.124 70.84 235.477 70.84C230.338 70.84 225.5 69.7193 220.963 67.478C216.426 65.2913 213.091 62.3393 210.959 58.622L203.333 45.338C202.24 43.4247 201.42 41.32 200.873 39.024C200.381 36.728 200.135 34.2953 200.135 31.726C200.135 23.3073 203.169 16.0913 209.237 10.078C215.36 4.01 222.63 0.975996 231.049 0.975996C231.705 0.975996 232.47 1.03066 233.345 1.14C234.22 1.24933 234.93 1.35866 235.477 1.468L236.625 -0.00800145ZM282.264 61.328C290.409 61.328 297.379 58.4307 303.174 52.636C308.969 46.8413 311.866 39.8713 311.866 31.726C311.866 23.5807 308.969 16.638 303.174 10.898C297.379 5.158 290.409 2.288 282.264 2.288C274.119 2.288 267.149 5.158 261.354 10.898C255.559 16.638 252.662 23.5807 252.662 31.726C252.662 39.8713 255.559 46.8413 261.354 52.636C267.149 58.4307 274.119 61.328 282.264 61.328ZM282.264 45.092C278.82 45.092 275.868 43.8073 273.408 41.238C271.003 38.614 269.8 35.4433 269.8 31.726C269.8 28.0633 271.003 24.9473 273.408 22.378C275.813 19.8087 278.765 18.524 282.264 18.524C285.708 18.524 288.633 19.836 291.038 22.46C293.498 25.0293 294.728 28.118 294.728 31.726C294.728 35.4433 293.498 38.614 291.038 41.238C288.633 43.8073 285.708 45.092 282.264 45.092ZM286.774 70.84C280.979 70.84 275.677 69.364 270.866 66.412C266.11 63.46 262.365 59.4693 259.632 54.44L255.368 46.814C252.689 42.1673 251.35 37.138 251.35 31.726C251.35 23.3073 254.384 16.0913 260.452 10.078C266.575 4.01 273.845 0.975996 282.264 0.975996C288.332 0.975996 293.881 2.616 298.91 5.896C303.994 9.176 307.793 13.522 310.308 18.934L314.08 25.576C315.064 27.2707 315.911 29.4847 316.622 32.218C317.333 34.8967 317.688 37.466 317.688 39.926C317.688 48.3993 314.654 55.67 308.586 61.738C302.518 67.806 295.247 70.84 286.774 70.84ZM282.264 43.78C285.435 43.78 288.086 42.632 290.218 40.336C292.35 38.04 293.416 35.17 293.416 31.726L293.252 29.758V30.168C291.284 28.7467 289.125 28.036 286.774 28.036C283.603 28.036 280.952 29.1567 278.82 31.398C276.688 33.6393 275.622 36.482 275.622 39.926L275.786 41.648L275.54 41.484C277.508 43.0147 279.749 43.78 282.264 43.78ZM318.32 20.164V59.688H340.952C345.489 59.688 349.343 58.0753 352.514 54.85C355.685 51.6247 357.27 47.7433 357.27 43.206C357.27 38.3953 355.657 34.268 352.432 30.824C349.207 27.38 345.298 25.658 340.706 25.658H334.72V20.164H350.792L355.63 1.632H340.132L338.984 3.928H318.32L314.138 20.164H318.32ZM334.72 44.518V36.728H337.098C337.973 36.728 338.683 37.1107 339.23 37.876C339.831 38.5867 340.132 39.4613 340.132 40.5C340.132 41.648 339.859 42.6047 339.312 43.37C338.765 44.1353 338.055 44.518 337.18 44.518H334.72ZM312.416 21.476L317.336 2.616H338.164L339.312 0.319999H357.352L361.862 8.52L356.286 29.676H353.088C354.072 30.6053 354.92 31.6987 355.63 32.956L360.878 42.386C362.354 45.01 363.092 48.0167 363.092 51.406C363.092 56.2713 361.37 60.4533 357.926 63.952C354.482 67.4507 350.327 69.2 345.462 69.2H321.518L317.008 61V29.676L312.416 21.476ZM363.487 20.164V59.688H379.887V47.47H383.823C390.219 47.47 395.303 45.4747 399.075 41.484C402.902 37.4387 404.815 32.4093 404.815 26.396C404.815 20.164 403.121 14.998 399.731 10.898C395.905 6.25133 390.547 3.928 383.659 3.928H363.487L359.223 20.164H363.487ZM379.887 32.3V20.164H383.003C384.589 20.164 385.819 20.82 386.693 22.132C387.568 23.3893 388.005 24.8107 388.005 26.396C388.005 28.1453 387.65 29.512 386.939 30.496C386.065 31.6987 384.698 32.3 382.839 32.3H379.887ZM357.501 21.476L362.503 2.616H383.659C388.579 2.616 392.816 3.90067 396.369 6.47C399.321 8.602 401.891 11.6633 404.077 15.654L406.865 20.738C408.013 22.8153 408.915 25.084 409.571 27.544C410.282 30.004 410.637 32.3547 410.637 34.596C410.637 40.828 408.587 46.1307 404.487 50.504C400.442 54.8227 395.057 56.982 388.333 56.982H385.709V69.2H366.685L362.175 61V29.676L357.501 21.476ZM443.123 3.928H415.981L411.553 20.164H415.981L404.993 59.688H422.541L424.345 52.308H439.433L441.401 59.688H459.523L443.123 3.928ZM427.051 37.876L431.561 20.164L436.317 37.876H427.051ZM414.997 2.616H444.107L448.617 10.816L465.755 69.2H444.927L440.909 61.82H429.921L428.117 69.2H407.781L403.271 61L412.783 26.888L409.831 21.476L414.997 2.616ZM496.937 3.928H475.617L471.189 20.164H475.617L462.989 59.688H479.799L488.409 30.578L497.511 59.688H514.485L496.937 3.928ZM474.633 2.616H497.921L502.431 10.816L520.799 69.2H501.037L496.527 61L492.017 46.322L485.293 69.2H465.695L461.185 61L472.255 26.478L469.467 21.476L474.633 2.616ZM533.932 3.928H517.532L513.104 20.164H517.532V59.688H535.244L547.872 37.138L548.036 59.688H564.436V3.928H549.84L534.096 31.726L533.932 3.928ZM515.892 29.676L511.382 21.476L516.548 2.616H535.244L539.754 10.816V19.18L549.102 2.616H565.748L570.258 10.816V69.2H551.234L546.724 61V58.048L540.492 69.2H520.73L516.22 61V29.676H515.892ZM23.0468 93.928H6.64682L2.30082 110.164H6.64682V149.688H23.0468V129.106H36.0848V149.688H52.4848V93.928H36.0848V112.788H23.0468V93.928ZM0.578823 111.476L5.66282 92.616H24.3588L28.8688 100.816V111.476H34.7728V92.616H53.7968L58.3068 100.816V159.2H39.2828L34.7728 151V138.618H28.8688V159.2H9.84482L5.33482 151V119.676L0.578823 111.476ZM62.6612 110.164V149.688H94.3132L98.4132 133.452H79.0612V128.204H95.0512L98.0852 114.92H79.0612V110.164H95.0512L99.3972 91.632H83.9812L82.8332 93.928H62.6612L58.3972 110.164H62.6612ZM61.3492 119.676L56.6752 111.476L61.6772 92.616H82.0132L83.1612 90.32H101.037L105.547 98.52L101.365 116.56L104.235 121.808L101.365 134.436L104.645 140.34L99.8072 159.2H65.8592L61.3492 151V119.676ZM131.615 110.164V149.688H157.035C162.064 149.688 166.164 148.267 169.335 145.424C172.56 142.527 174.173 138.891 174.173 134.518C174.173 131.183 173.435 128.259 171.959 125.744C170.483 123.229 168.187 121.398 165.071 120.25C167.531 119.321 169.444 117.79 170.811 115.658C172.177 113.526 172.861 111.121 172.861 108.442C172.861 104.506 171.439 101.144 168.597 98.356C165.59 95.404 161.736 93.928 157.035 93.928H131.615L127.351 110.164H131.615ZM148.015 116.724V110.164H152.525C155.203 110.164 156.543 111.257 156.543 113.444C156.543 114.428 156.269 115.221 155.723 115.822C155.176 116.423 154.301 116.724 153.099 116.724H148.015ZM148.015 134.518V126.564H152.361C154.001 126.564 155.176 126.919 155.887 127.63C156.652 128.286 157.035 129.243 157.035 130.5C157.035 131.757 156.679 132.741 155.969 133.452C155.258 134.163 154.055 134.518 152.361 134.518H148.015ZM125.629 111.476L130.631 92.616H157.035C160.479 92.616 163.595 93.4633 166.383 95.158C168.897 96.6887 170.865 98.7387 172.287 101.308L177.371 110.574C177.808 111.339 178.136 112.296 178.355 113.444C178.573 114.537 178.683 115.603 178.683 116.642C178.683 118.829 178.245 120.906 177.371 122.874C176.551 124.842 175.485 126.373 174.173 127.466L178.437 135.01C179.038 135.994 179.448 137.142 179.667 138.454C179.885 139.711 179.995 141.133 179.995 142.718C179.995 147.365 178.245 151.273 174.747 154.444C171.248 157.615 166.847 159.2 161.545 159.2H134.813L130.303 151V119.676L125.629 111.476ZM227.837 97.454L214.061 91.632L213.077 92.944C211.109 92.5067 209.441 92.288 208.075 92.288C199.929 92.288 192.959 95.158 187.165 100.898C181.37 106.638 178.473 113.581 178.473 121.726C178.473 129.871 181.343 136.841 187.083 142.636C192.823 148.431 199.793 151.328 207.993 151.328C212.475 151.328 216.493 150.617 220.047 149.196C223.6 147.72 226.634 145.752 229.149 143.292L219.801 130.336C216.739 133.507 212.831 135.092 208.075 135.092C204.685 135.092 201.761 133.753 199.301 131.074C196.841 128.395 195.611 125.279 195.611 121.726C195.611 118.173 196.813 115.084 199.219 112.46C201.679 109.836 204.631 108.524 208.075 108.524C210.644 108.524 212.995 109.016 215.127 110C216.657 110.711 218.215 111.777 219.801 113.198L227.837 97.454ZM213.651 89.992L229.641 96.798L234.151 104.998L224.721 123.53C222.534 121.562 220.73 120.223 219.309 119.512C217.395 118.528 215.154 118.036 212.585 118.036C209.469 118.036 206.817 119.211 204.631 121.562C202.499 123.858 201.433 126.646 201.433 129.926L201.597 131.566C203.51 133.042 205.669 133.78 208.075 133.78C210.589 133.78 212.694 133.397 214.389 132.632C216.083 131.812 217.942 130.363 219.965 128.286L230.871 143.456L235.381 151.656C232.483 154.444 229.094 156.658 225.213 158.298C221.386 159.993 217.149 160.84 212.503 160.84C207.364 160.84 202.526 159.719 197.989 157.478C193.451 155.291 190.117 152.339 187.985 148.622L180.359 135.338C179.265 133.425 178.445 131.32 177.899 129.024C177.407 126.728 177.161 124.295 177.161 121.726C177.161 113.307 180.195 106.091 186.263 100.078C192.385 94.01 199.656 90.976 208.075 90.976C208.731 90.976 209.496 91.0307 210.371 91.14C211.245 91.2493 211.956 91.3587 212.503 91.468L213.651 89.992ZM237.641 110.164V149.688H269.293L273.393 133.452H254.041V128.204H270.031L273.065 114.92H254.041V110.164H270.031L274.377 91.632H258.961L257.813 93.928H237.641L233.377 110.164H237.641ZM236.329 119.676L231.655 111.476L236.657 92.616H256.993L258.141 90.32H276.017L280.527 98.52L276.345 116.56L279.215 121.808L276.345 134.436L279.625 140.34L274.787 159.2H240.839L236.329 151V119.676ZM306.595 110.164V149.688H329.227C333.764 149.688 337.618 148.075 340.789 144.85C343.96 141.625 345.545 137.743 345.545 133.206C345.545 128.395 343.932 124.268 340.707 120.824C337.482 117.38 333.573 115.658 328.981 115.658H322.995V110.164H339.067L343.905 91.632H328.407L327.259 93.928H306.595L302.413 110.164H306.595ZM322.995 134.518V126.728H325.373C326.248 126.728 326.958 127.111 327.505 127.876C328.106 128.587 328.407 129.461 328.407 130.5C328.407 131.648 328.134 132.605 327.587 133.37C327.04 134.135 326.33 134.518 325.455 134.518H322.995ZM300.691 111.476L305.611 92.616H326.439L327.587 90.32H345.627L350.137 98.52L344.561 119.676H341.363C342.347 120.605 343.194 121.699 343.905 122.956L349.153 132.386C350.629 135.01 351.367 138.017 351.367 141.406C351.367 146.271 349.645 150.453 346.201 153.952C342.757 157.451 338.602 159.2 333.737 159.2H309.793L305.283 151V119.676L300.691 111.476ZM368.408 93.928H352.008L347.58 110.164H352.008V149.688H369.72L382.348 127.138L382.512 149.688H398.912V93.928H384.316L368.572 121.726L368.408 93.928ZM350.368 119.676L345.858 111.476L351.024 92.616H369.72L374.23 100.816V109.18L383.578 92.616H400.224L404.734 100.816V159.2H385.71L381.2 151V148.048L374.968 159.2H355.206L350.696 151V119.676H350.368ZM438.923 93.928H417.603L413.175 110.164H417.603L404.975 149.688H421.785L430.395 120.578L439.497 149.688H456.471L438.923 93.928ZM416.619 92.616H439.907L444.417 100.816L462.785 159.2H443.023L438.513 151L434.003 136.322L427.279 159.2H407.681L403.171 151L414.241 116.478L411.453 111.476L416.619 92.616ZM460.092 110.164V149.688H491.744L495.844 133.452H476.492V128.204H492.482L495.516 114.92H476.492V110.164H492.482L496.828 91.632H481.412L480.264 93.928H460.092L455.828 110.164H460.092ZM458.78 119.676L454.106 111.476L459.108 92.616H479.444L480.592 90.32H498.468L502.978 98.52L498.796 116.56L501.666 121.808L498.796 134.436L502.076 140.34L497.238 159.2H463.29L458.78 151V119.676ZM508.935 110.164V149.688H525.335V110.164H533.699L538.701 91.632H523.285L522.137 93.928H504.097L499.833 110.164H508.935ZM507.623 151V119.676H502.621L498.111 111.476L503.113 92.616H521.317L522.465 90.32H540.423L544.933 98.52L539.193 119.676H531.157V159.2H512.133L507.623 151ZM562.479 93.928H546.079L541.815 110.164H546.079V149.688H566.825C572.51 149.688 577.375 147.583 581.421 143.374C585.466 139.165 587.489 134.081 587.489 128.122C587.489 121.726 585.439 116.287 581.339 111.804C577.293 107.267 572.373 104.998 566.579 104.998H562.479V93.928ZM562.479 133.452V121.234H564.939C566.415 121.234 567.672 121.835 568.711 123.038C569.804 124.186 570.351 125.553 570.351 127.138C570.351 128.942 569.831 130.445 568.793 131.648C567.754 132.851 566.469 133.452 564.939 133.452H562.479ZM608.481 93.928H592.081L587.653 110.164H592.081V149.688H608.481V93.928ZM540.093 111.476L545.095 92.616H563.791L568.301 100.816V103.768C572.073 104.151 575.517 105.49 578.633 107.786C581.803 110.082 584.291 113.034 586.095 116.642L590.769 125.17V119.676H590.441L585.931 111.476L591.097 92.616H609.793L614.303 100.816V159.2H595.279L590.769 151V146.818C588.91 150.535 586.231 153.515 582.733 155.756C579.289 158.052 575.489 159.2 571.335 159.2H549.277L544.767 151V119.676L540.093 111.476ZM567.973 103.768L567.563 103.686L567.973 103.768Z" fill="#1D1E19"/>
<path d="M290.218 40.3359C288.086 42.6319 285.434 43.7799 282.264 43.7799C279.749 43.7799 277.508 43.0146 275.54 41.4839L275.786 41.6479L275.622 39.9259C275.622 36.4819 276.688 33.6392 278.82 31.3979C280.952 29.1566 283.603 28.0359 286.774 28.0359C289.124 28.0359 291.284 28.7466 293.252 30.1679V29.7579L293.416 31.7259C293.416 35.1699 292.35 38.0399 290.218 40.3359Z" fill="#FFE1BB"/>
</svg>
