<svg width="588" height="160" viewBox="0 0 588 160" fill="none" xmlns="http://www.w3.org/2000/svg">
<path d="M22.8836 26.7239V20.1639H27.3936C30.0722 20.1639 31.4116 21.2573 31.4116 23.4439C31.4116 24.4279 31.1382 25.2206 30.5916 25.8219C30.0449 26.4233 29.1702 26.7239 27.9676 26.7239H22.8836ZM22.8836 44.5179V36.5639H27.2296C28.8696 36.5639 30.0449 36.9193 30.7556 37.6299C31.5209 38.2859 31.9036 39.2426 31.9036 40.4999C31.9036 41.7573 31.5482 42.7413 30.8376 43.4519C30.1269 44.1626 28.9242 44.5179 27.2296 44.5179H22.8836ZM0.497559 21.4759L5.49956 2.61595H31.9036C35.3476 2.61595 38.4636 3.46328 41.2516 5.15794C43.7662 6.68861 45.7342 8.73861 47.1556 11.3079L52.2396 20.5739C52.6769 21.3393 53.0049 22.2959 53.2236 23.4439C53.4422 24.5373 53.5516 25.6033 53.5516 26.6419C53.5516 28.8286 53.1142 30.9059 52.2396 32.8739C51.4196 34.8419 50.3536 36.3726 49.0416 37.4659L53.3056 45.0099C53.9069 45.9939 54.3169 47.1419 54.5356 48.4539C54.7542 49.7113 54.8636 51.1326 54.8636 52.7179C54.8636 57.3646 53.1142 61.2733 49.6156 64.4439C46.1169 67.6146 41.7162 69.1999 36.4136 69.1999H9.68156L5.17156 60.9999V29.6759L0.497559 21.4759Z" fill="#F57B45"/>
<path d="M72.8574 43.4519V31.2339H75.3174C76.7934 31.2339 78.0508 31.8353 79.0894 33.0379C80.1828 34.1859 80.7294 35.5526 80.7294 37.1379C80.7294 38.9419 80.2101 40.4453 79.1714 41.6479C78.1328 42.8506 76.8481 43.4519 75.3174 43.4519H72.8574ZM50.4714 21.4759L55.4734 2.61595H74.1694L78.6794 10.8159V13.7679C82.4514 14.1506 85.8954 15.4899 89.0114 17.7859C92.1821 20.0819 94.6694 23.0339 96.4734 26.6419L101.147 35.1699V29.6759H100.819L96.3094 21.4759L101.475 2.61595H120.171L124.681 10.8159V69.1999H105.657L101.147 60.9999V56.8179C99.2888 60.5353 96.6101 63.5146 93.1114 65.756C89.6674 68.052 85.8681 69.1999 81.7134 69.1999H59.6554L55.1454 60.9999V29.6759L50.4714 21.4759Z" fill="#F57B45"/>
<path d="M174.875 26.7239V20.1639H179.385C182.064 20.1639 183.403 21.2573 183.403 23.4439C183.403 24.4279 183.13 25.2206 182.583 25.8219C182.036 26.4233 181.162 26.7239 179.959 26.7239H174.875ZM174.875 44.5179V36.5639H179.221C180.861 36.5639 182.036 36.9193 182.747 37.6299C183.512 38.2859 183.895 39.2426 183.895 40.4999C183.895 41.7573 183.54 42.7413 182.829 43.4519C182.118 44.1626 180.916 44.5179 179.221 44.5179H174.875ZM152.489 21.4759L157.491 2.61595H183.895C187.339 2.61595 190.455 3.46328 193.243 5.15794C195.758 6.68861 197.726 8.73861 199.147 11.3079L204.231 20.5739C204.668 21.3393 204.996 22.2959 205.215 23.4439C205.434 24.5373 205.543 25.6033 205.543 26.6419C205.543 28.8286 205.106 30.9059 204.231 32.8739C203.411 34.8419 202.345 36.3726 201.033 37.4659L205.297 45.0099C205.898 45.9939 206.308 47.1419 206.527 48.4539C206.746 49.7113 206.855 51.1326 206.855 52.7179C206.855 57.3646 205.106 61.2733 201.607 64.4439C198.108 67.6146 193.708 69.1999 188.405 69.1999H161.673L157.163 60.9999V29.6759L152.489 21.4759Z" fill="#F57B45"/>
<path d="M224.849 43.4519V31.2339H227.309C228.785 31.2339 230.042 31.8353 231.081 33.0379C232.174 34.1859 232.721 35.5526 232.721 37.1379C232.721 38.9419 232.202 40.4453 231.163 41.6479C230.124 42.8506 228.84 43.4519 227.309 43.4519H224.849ZM202.463 21.4759L207.465 2.61595H226.161L230.671 10.8159V13.7679C234.443 14.1506 237.887 15.4899 241.003 17.7859C244.174 20.0819 246.661 23.0339 248.465 26.6419L253.139 35.1699V29.6759H252.811L248.301 21.4759L253.467 2.61595H272.163L276.673 10.8159V69.1999H257.649L253.139 60.9999V56.8179C251.28 60.5353 248.602 63.5146 245.103 65.756C241.659 68.052 237.86 69.1999 233.705 69.1999H211.647L207.137 60.9999V29.6759L202.463 21.4759Z" fill="#F57B45"/>
<path d="M280.023 29.6759L275.513 21.4759L280.679 2.61595H299.375L303.885 10.8159V19.1799L313.233 2.61595H329.879L334.389 10.8159V69.1999H315.365L310.855 60.9999V58.0479L304.623 69.1999H284.861L280.351 60.9999V29.6759H280.023Z" fill="#F57B45"/>
<path d="M337.582 60.9999V29.6759L332.908 21.4759L337.91 2.61595H354.884L356.032 0.319946H374.072L378.582 8.51994L372.842 29.6759H361.116V69.1999H342.092L337.582 60.9999Z" fill="#F57B45"/>
<path d="M396.794 32.2999V20.1639H399.91C401.495 20.1639 402.725 20.8199 403.6 22.1319C404.475 23.3893 404.912 24.8106 404.912 26.3959C404.912 28.1453 404.557 29.5119 403.846 30.4959C402.971 31.6986 401.605 32.2999 399.746 32.2999H396.794ZM374.408 21.4759L379.41 2.61595H400.566C405.486 2.61595 409.723 3.90061 413.276 6.46995C416.228 8.60194 418.797 11.6633 420.984 15.6539L423.772 20.7379C424.92 22.8153 425.822 25.0839 426.478 27.5439C427.189 30.0039 427.544 32.3546 427.544 34.5959C427.544 40.8279 425.494 46.1306 421.394 50.5039C417.349 54.8226 411.964 56.9819 405.24 56.9819H402.616V69.1999H383.592L379.082 60.9999V29.6759L374.408 21.4759Z" fill="#F57B45"/>
<path d="M443.957 37.8759L448.467 20.1639L453.223 37.8759H443.957ZM431.903 2.61595H461.013L465.523 10.8159L482.661 69.1999H461.833L457.815 61.8199H446.827L445.023 69.1999H424.687L420.177 60.9999L429.689 26.8879L426.737 21.4759L431.903 2.61595Z" fill="#F57B45"/>
<path d="M491.539 2.61595H514.827L519.337 10.8159L537.705 69.1999H517.943L513.433 60.9999L508.923 46.3219L502.199 69.1999H482.601L478.091 60.9999L489.161 26.4779L486.373 21.4759L491.539 2.61595Z" fill="#F57B45"/>
<path d="M533.618 29.6759L529.108 21.4759L534.274 2.61595H552.97L557.48 10.8159V19.1799L566.828 2.61595H583.474L587.984 10.8159V69.1999H568.96L564.45 60.9999V58.0479L558.218 69.1999H538.456L533.946 60.9999V29.6759H533.618Z" fill="#F57B45"/>
<path d="M196.185 134.518V126.728H198.563C199.438 126.728 200.149 127.111 200.695 127.876C201.297 128.587 201.597 129.461 201.597 130.5C201.597 131.648 201.324 132.605 200.777 133.37C200.231 134.135 199.52 134.518 198.645 134.518H196.185ZM173.881 111.476L178.801 92.6159H199.629L200.777 90.3199H218.817L223.327 98.5199L217.751 119.676H214.553C215.537 120.605 216.385 121.699 217.095 122.956L222.343 132.386C223.819 135.01 224.557 138.017 224.557 141.406C224.557 146.271 222.835 150.453 219.391 153.952C215.947 157.451 211.793 159.2 206.927 159.2H182.983L178.473 151V119.676L173.881 111.476Z" fill="#F57B45"/>
<path d="M223.559 119.676L219.049 111.476L224.215 92.6159H242.911L247.421 100.816V109.18L256.769 92.6159H273.415L277.925 100.816V159.2H258.901L254.391 151V148.048L248.159 159.2H228.397L223.887 151V119.676H223.559Z" fill="#F57B45"/>
<path d="M289.81 92.6159H313.098L317.608 100.816L335.976 159.2H316.214L311.704 151L307.194 136.322L300.47 159.2H280.872L276.362 151L287.432 116.478L284.644 111.476L289.81 92.6159Z" fill="#F57B45"/>
<path d="M331.97 119.676L327.296 111.476L332.298 92.6159H352.634L353.782 90.3199H371.658L376.168 98.5199L371.986 116.56L374.856 121.808L371.986 134.436L375.266 140.34L370.428 159.2H336.48L331.97 151V119.676Z" fill="#F57B45"/>
<path d="M381.633 151V119.676H376.631L372.121 111.476L377.123 92.6159H395.327L396.475 90.3199H414.433L418.943 98.5199L413.203 119.676H405.167V159.2H386.143L381.633 151Z" fill="#F57B45"/>
<path d="M6.48334 20.164V59.688H31.9033C36.9327 59.688 41.0327 58.2667 44.2033 55.424C47.4287 52.5267 49.0413 48.8913 49.0413 44.518C49.0413 41.1833 48.3033 38.2587 46.8273 35.744C45.3513 33.2293 43.0553 31.398 39.9393 30.25C42.3993 29.3207 44.3127 27.79 45.6793 25.658C47.046 23.526 47.7293 21.1207 47.7293 18.442C47.7293 14.506 46.308 11.144 43.4653 8.356C40.4587 5.404 36.6047 3.928 31.9033 3.928H6.48334L2.21934 20.164H6.48334ZM22.8833 26.724V20.164H27.3933C30.072 20.164 31.4113 21.2573 31.4113 23.444C31.4113 24.428 31.138 25.2207 30.5913 25.822C30.0447 26.4233 29.17 26.724 27.9673 26.724H22.8833ZM22.8833 44.518V36.564H27.2293C28.8693 36.564 30.0447 36.9193 30.7553 37.63C31.5207 38.286 31.9033 39.2427 31.9033 40.5C31.9033 41.7573 31.548 42.7413 30.8373 43.452C30.1267 44.1627 28.924 44.518 27.2293 44.518H22.8833ZM0.497341 21.476L5.49934 2.616H31.9033C35.3473 2.616 38.4633 3.46333 41.2513 5.158C43.766 6.68866 45.734 8.73866 47.1553 11.308L52.2393 20.574C52.6767 21.3393 53.0047 22.296 53.2233 23.444C53.442 24.5373 53.5513 25.6033 53.5513 26.642C53.5513 28.8287 53.114 30.906 52.2393 32.874C51.4193 34.842 50.3533 36.3727 49.0413 37.466L53.3053 45.01C53.9067 45.994 54.3167 47.142 54.5353 48.454C54.754 49.7113 54.8633 51.1327 54.8633 52.718C54.8633 57.3647 53.114 61.2733 49.6153 64.444C46.1167 67.6147 41.716 69.2 36.4133 69.2H9.68134L5.17134 61V29.676L0.497341 21.476ZM72.8572 3.928H56.4572L52.1932 20.164H56.4572V59.688H77.2032C82.8886 59.688 87.7539 57.5833 91.7992 53.374C95.8446 49.1647 97.8672 44.0807 97.8672 38.122C97.8672 31.726 95.8172 26.2867 91.7172 21.804C87.6719 17.2667 82.7519 14.998 76.9572 14.998H72.8572V3.928ZM72.8572 43.452V31.234H75.3172C76.7932 31.234 78.0506 31.8353 79.0892 33.038C80.1826 34.186 80.7292 35.5527 80.7292 37.138C80.7292 38.942 80.2099 40.4453 79.1712 41.648C78.1326 42.8507 76.8479 43.452 75.3172 43.452H72.8572ZM118.859 3.928H102.459L98.0312 20.164H102.459V59.688H118.859V3.928ZM50.4712 21.476L55.4732 2.616H74.1692L78.6792 10.816V13.768C82.4512 14.1507 85.8952 15.49 89.0112 17.786C92.1819 20.082 94.6692 23.034 96.4732 26.642L101.147 35.17V29.676H100.819L96.3092 21.476L101.475 2.616H120.171L124.681 10.816V69.2H105.657L101.147 61V56.818C99.2886 60.5353 96.6099 63.5147 93.1112 65.756C89.6672 68.052 85.8679 69.2 81.7132 69.2H59.6552L55.1452 61V29.676L50.4712 21.476ZM78.3512 13.768L77.9412 13.686L78.3512 13.768ZM158.475 20.164V59.688H183.895C188.924 59.688 193.024 58.2667 196.195 55.424C199.42 52.5267 201.033 48.8913 201.033 44.518C201.033 41.1833 200.295 38.2587 198.819 35.744C197.343 33.2293 195.047 31.398 191.931 30.25C194.391 29.3207 196.304 27.79 197.671 25.658C199.037 23.526 199.721 21.1207 199.721 18.442C199.721 14.506 198.299 11.144 195.457 8.356C192.45 5.404 188.596 3.928 183.895 3.928H158.475L154.211 20.164H158.475ZM174.875 26.724V20.164H179.385C182.063 20.164 183.403 21.2573 183.403 23.444C183.403 24.428 183.129 25.2207 182.583 25.822C182.036 26.4233 181.161 26.724 179.959 26.724H174.875ZM174.875 44.518V36.564H179.221C180.861 36.564 182.036 36.9193 182.747 37.63C183.512 38.286 183.895 39.2427 183.895 40.5C183.895 41.7573 183.539 42.7413 182.829 43.452C182.118 44.1627 180.915 44.518 179.221 44.518H174.875ZM152.489 21.476L157.491 2.616H183.895C187.339 2.616 190.455 3.46333 193.243 5.158C195.757 6.68866 197.725 8.73866 199.147 11.308L204.231 20.574C204.668 21.3393 204.996 22.296 205.215 23.444C205.433 24.5373 205.543 25.6033 205.543 26.642C205.543 28.8287 205.105 30.906 204.231 32.874C203.411 34.842 202.345 36.3727 201.033 37.466L205.297 45.01C205.898 45.994 206.308 47.142 206.527 48.454C206.745 49.7113 206.855 51.1327 206.855 52.718C206.855 57.3647 205.105 61.2733 201.607 64.444C198.108 67.6147 193.707 69.2 188.405 69.2H161.673L157.163 61V29.676L152.489 21.476ZM224.849 3.928H208.449L204.185 20.164H208.449V59.688H229.195C234.88 59.688 239.745 57.5833 243.791 53.374C247.836 49.1647 249.859 44.0807 249.859 38.122C249.859 31.726 247.809 26.2867 243.709 21.804C239.663 17.2667 234.743 14.998 228.949 14.998H224.849V3.928ZM224.849 43.452V31.234H227.309C228.785 31.234 230.042 31.8353 231.081 33.038C232.174 34.186 232.721 35.5527 232.721 37.138C232.721 38.942 232.201 40.4453 231.163 41.648C230.124 42.8507 228.839 43.452 227.309 43.452H224.849ZM270.851 3.928H254.451L250.023 20.164H254.451V59.688H270.851V3.928ZM202.463 21.476L207.465 2.616H226.161L230.671 10.816V13.768C234.443 14.1507 237.887 15.49 241.003 17.786C244.173 20.082 246.661 23.034 248.465 26.642L253.139 35.17V29.676H252.811L248.301 21.476L253.467 2.616H272.163L276.673 10.816V69.2H257.649L253.139 61V56.818C251.28 60.5353 248.601 63.5147 245.103 65.756C241.659 68.052 237.859 69.2 233.705 69.2H211.647L207.137 61V29.676L202.463 21.476ZM230.343 13.768L229.933 13.686L230.343 13.768ZM298.063 3.928H281.663L277.235 20.164H281.663V59.688H299.375L312.003 37.138L312.167 59.688H328.567V3.928H313.971L298.227 31.726L298.063 3.928ZM280.023 29.676L275.513 21.476L280.679 2.616H299.375L303.885 10.816V19.18L313.233 2.616H329.879L334.389 10.816V69.2H315.365L310.855 61V58.048L304.623 69.2H284.861L280.351 61V29.676H280.023ZM338.894 20.164V59.688H355.294V20.164H367.348L372.35 1.632H356.852L355.704 3.928H338.894L334.63 20.164H338.894ZM337.582 61V29.676L332.908 21.476L337.91 2.616H354.884L356.032 0.319999H374.072L378.582 8.52L372.842 29.676H361.116V69.2H342.092L337.582 61ZM380.394 20.164V59.688H396.794V47.47H400.73C407.126 47.47 412.21 45.4747 415.982 41.484C419.808 37.4387 421.722 32.4093 421.722 26.396C421.722 20.164 420.027 14.998 416.638 10.898C412.811 6.25133 407.454 3.928 400.566 3.928H380.394L376.13 20.164H380.394ZM396.794 32.3V20.164H399.91C401.495 20.164 402.725 20.82 403.6 22.132C404.474 23.3893 404.912 24.8107 404.912 26.396C404.912 28.1453 404.556 29.512 403.846 30.496C402.971 31.6987 401.604 32.3 399.746 32.3H396.794ZM374.408 21.476L379.41 2.616H400.566C405.486 2.616 409.722 3.90067 413.276 6.47C416.228 8.602 418.797 11.6633 420.984 15.654L423.772 20.738C424.92 22.8153 425.822 25.084 426.478 27.544C427.188 30.004 427.544 32.3547 427.544 34.596C427.544 40.828 425.494 46.1307 421.394 50.504C417.348 54.8227 411.964 56.982 405.24 56.982H402.616V69.2H383.592L379.082 61V29.676L374.408 21.476ZM460.029 3.928H432.887L428.459 20.164H432.887L421.899 59.688H439.447L441.251 52.308H456.339L458.307 59.688H476.429L460.029 3.928ZM443.957 37.876L448.467 20.164L453.223 37.876H443.957ZM431.903 2.616H461.013L465.523 10.816L482.661 69.2H461.833L457.815 61.82H446.827L445.023 69.2H424.687L420.177 61L429.689 26.888L426.737 21.476L431.903 2.616ZM513.843 3.928H492.523L488.095 20.164H492.523L479.895 59.688H496.705L505.315 30.578L514.417 59.688H531.391L513.843 3.928ZM491.539 2.616H514.827L519.337 10.816L537.705 69.2H517.943L513.433 61L508.923 46.322L502.199 69.2H482.601L478.091 61L489.161 26.478L486.373 21.476L491.539 2.616ZM551.658 3.928H535.258L530.83 20.164H535.258V59.688H552.97L565.598 37.138L565.762 59.688H582.162V3.928H567.566L551.822 31.726L551.658 3.928ZM533.618 29.676L529.108 21.476L534.274 2.616H552.97L557.48 10.816V19.18L566.828 2.616H583.474L587.984 10.816V69.2H568.96L564.45 61V58.048L558.218 69.2H538.456L533.946 61V29.676H533.618ZM179.785 110.164V149.688H202.417C206.955 149.688 210.809 148.075 213.979 144.85C217.15 141.625 218.735 137.743 218.735 133.206C218.735 128.395 217.123 124.268 213.897 120.824C210.672 117.38 206.763 115.658 202.171 115.658H196.185V110.164H212.257L217.095 91.632H201.597L200.449 93.928H179.785L175.603 110.164H179.785ZM196.185 134.518V126.728H198.563C199.438 126.728 200.149 127.111 200.695 127.876C201.297 128.587 201.597 129.461 201.597 130.5C201.597 131.648 201.324 132.605 200.777 133.37C200.231 134.135 199.52 134.518 198.645 134.518H196.185ZM173.881 111.476L178.801 92.616H199.629L200.777 90.32H218.817L223.327 98.52L217.751 119.676H214.553C215.537 120.605 216.385 121.699 217.095 122.956L222.343 132.386C223.819 135.01 224.557 138.017 224.557 141.406C224.557 146.271 222.835 150.453 219.391 153.952C215.947 157.451 211.793 159.2 206.927 159.2H182.983L178.473 151V119.676L173.881 111.476ZM241.598 93.928H225.198L220.77 110.164H225.198V149.688H242.91L255.538 127.138L255.702 149.688H272.102V93.928H257.506L241.762 121.726L241.598 93.928ZM223.558 119.676L219.048 111.476L224.214 92.616H242.91L247.42 100.816V109.18L256.768 92.616H273.414L277.924 100.816V159.2H258.9L254.39 151V148.048L248.158 159.2H228.396L223.886 151V119.676H223.558ZM312.113 93.928H290.793L286.365 110.164H290.793L278.165 149.688H294.975L303.585 120.578L312.687 149.688H329.661L312.113 93.928ZM289.809 92.616H313.097L317.607 100.816L335.975 159.2H316.213L311.703 151L307.193 136.322L300.469 159.2H280.871L276.361 151L287.431 116.478L284.643 111.476L289.809 92.616ZM333.282 110.164V149.688H364.934L369.034 133.452H349.682V128.204H365.672L368.706 114.92H349.682V110.164H365.672L370.018 91.632H354.602L353.454 93.928H333.282L329.018 110.164H333.282ZM331.97 119.676L327.296 111.476L332.298 92.616H352.634L353.782 90.32H371.658L376.168 98.52L371.986 116.56L374.856 121.808L371.986 134.436L375.266 140.34L370.428 159.2H336.48L331.97 151V119.676ZM382.945 110.164V149.688H399.345V110.164H407.709L412.711 91.632H397.295L396.147 93.928H378.107L373.843 110.164H382.945ZM381.633 151V119.676H376.631L372.121 111.476L377.123 92.616H395.327L396.475 90.32H414.433L418.943 98.52L413.203 119.676H405.167V159.2H386.143L381.633 151Z" fill="#1D1E19"/>
</svg>
