<svg width="267" height="75" viewBox="0 0 267 75" fill="none" xmlns="http://www.w3.org/2000/svg">
<path d="M0.439941 23.5839L5.80794 3.34388H25.8719L30.4479 11.6159L34.6719 3.34388H57.4639L62.3039 12.1439L46.4639 41.7119L60.1039 65.9999L64.9439 74.7999H40.9199L30.7119 56.2319V74.7999H10.2959L5.45594 65.9999V32.3839L0.439941 23.5839Z" fill="#5DC27C"/>
<path d="M82.2793 35.1999V22.1759H85.6233C87.3246 22.1759 88.6446 22.8799 89.5833 24.2879C90.5219 25.6372 90.9913 27.1625 90.9913 28.8639C90.9913 30.7412 90.6099 32.2079 89.8473 33.2639C88.9086 34.5545 87.4419 35.1999 85.4473 35.1999H82.2793ZM58.2553 23.5839L63.6233 3.34388H86.3273C91.6073 3.34388 96.1539 4.72255 99.9673 7.47988C103.135 9.76788 105.893 13.0532 108.239 17.3359L111.231 22.7919C112.463 25.0212 113.431 27.4559 114.135 30.0959C114.898 32.7359 115.279 35.2585 115.279 37.6639C115.279 44.3519 113.079 50.0425 108.679 54.7359C104.338 59.3705 98.5593 61.6879 91.3433 61.6879H88.5273V74.7999H68.1113L63.2713 65.9999V32.3839L58.2553 23.5839Z" fill="#5DC27C"/>
<path d="M131.134 16.9839L134.83 3.34388H157.358L162.198 12.1439L144.158 63.2719C142.808 67.1439 140.755 70.0185 137.998 71.8959C135.24 73.8319 131.984 74.7999 128.23 74.7999H111.598L106.758 65.9999L112.126 45.7599H120.75L102.622 3.34388H124.534L129.374 12.1439L131.134 16.9839Z" fill="#5DC27C"/>
<path d="M168.395 65.9999V32.3839H163.027L158.187 23.5839L163.555 3.34388H183.091L184.323 0.879883H203.595L208.435 9.67988L202.275 32.3839H193.651V74.7999H173.235L168.395 65.9999Z" fill="#5DC27C"/>
<path d="M208.081 32.3839L203.241 23.5839L208.785 3.34388H228.849L233.689 12.1439V21.1199L243.721 3.34388H261.585L266.425 12.1439V74.7999H246.009L241.169 65.9999V62.8319L234.481 74.7999H213.273L208.433 65.9999V32.3839H208.081Z" fill="#5DC27C"/>
<path d="M24.464 4.752H6.864L2.288 22.176H6.864V64.592H24.464V42.328L36.872 64.592H57.728L40.04 33L55.088 4.752H35.552L24.64 26.224L24.464 4.752ZM0.44 23.584L5.808 3.344H25.872L30.448 11.616L34.672 3.344H57.464L62.304 12.144L46.464 41.712L60.104 66L64.944 74.8H40.92L30.712 56.232V74.8H10.296L5.456 66V32.384L0.44 23.584ZM46.464 41.8L60.104 66L46.464 41.8ZM64.6793 22.176V64.592H82.2793V51.48H86.5033C93.3673 51.48 98.8233 49.3387 102.871 45.056C106.978 40.7147 109.031 35.3173 109.031 28.864C109.031 22.176 107.213 16.632 103.575 12.232C99.4686 7.24533 93.7193 4.752 86.3273 4.752H64.6793L60.1033 22.176H64.6793ZM82.2793 35.2V22.176H85.6233C87.3246 22.176 88.6446 22.88 89.5833 24.288C90.522 25.6373 90.9913 27.1627 90.9913 28.864C90.9913 30.7413 90.61 32.208 89.8473 33.264C88.9086 34.5547 87.442 35.2 85.4473 35.2H82.2793ZM58.2553 23.584L63.6233 3.344H86.3273C91.6073 3.344 96.154 4.72267 99.9673 7.48C103.135 9.768 105.893 13.0533 108.239 17.336L111.231 22.792C112.463 25.0213 113.431 27.456 114.135 30.096C114.898 32.736 115.279 35.2587 115.279 37.664C115.279 44.352 113.079 50.0427 108.679 54.736C104.338 59.3707 98.5593 61.688 91.3433 61.688H88.5273V74.8H68.1113L63.2713 66V32.384L58.2553 23.584ZM123.566 4.752H104.734L122.598 46.64L122.246 47.168H113.182L108.606 64.592H123.39C126.968 64.592 129.99 63.7413 132.454 62.04C134.918 60.3387 136.766 57.6693 137.998 54.032L155.334 4.752H135.886L130.782 23.584H130.43L123.566 4.752ZM131.134 16.984L134.83 3.344H157.358L162.198 12.144L144.158 63.272C142.808 67.144 140.755 70.0187 137.998 71.896C135.24 73.832 131.984 74.8 128.23 74.8H111.598L106.758 66L112.126 45.76H120.75L102.622 3.344H124.534L129.374 12.144L131.134 16.984ZM169.803 22.176V64.592H187.403V22.176H196.379L201.747 2.288H185.203L183.971 4.752H164.611L160.035 22.176H169.803ZM168.395 66V32.384H163.027L158.187 23.584L163.555 3.344H183.091L184.323 0.879999H203.595L208.435 9.68L202.275 32.384H193.651V74.8H173.235L168.395 66ZM227.441 4.752H209.841L205.089 22.176H209.841V64.592H228.849L242.401 40.392L242.577 64.592H260.177V4.752H244.513L227.617 34.584L227.441 4.752ZM208.081 32.384L203.241 23.584L208.785 3.344H228.849L233.689 12.144V21.12L243.721 3.344H261.585L266.425 12.144V74.8H246.009L241.169 66V62.832L234.481 74.8H213.273L208.433 66V32.384H208.081Z" fill="#1D1E19"/>
</svg>
