<svg width="612" height="156" viewBox="0 0 612 156" fill="none" xmlns="http://www.w3.org/2000/svg">
<path d="M0.439941 23.5841L5.89594 3.3441H25.9599L30.7999 12.1441V23.5841H37.1359V3.3441H57.5519L62.3919 12.1441V74.8001H41.9759L37.1359 66.0001V52.7121H30.7999V74.8001H10.3839L5.54394 66.0001V32.3841L0.439941 23.5841Z" fill="#66AEF4"/>
<path d="M96.8089 30.0961C98.8622 30.8588 100.74 32.0028 102.441 33.5281C104.201 35.0534 105.668 36.8721 106.841 38.9841L111.329 47.0801C111.857 48.0188 112.268 49.1334 112.561 50.4241C112.913 51.6561 113.089 52.8881 113.089 54.1201C113.089 60.5734 110.654 65.9708 105.785 70.3121C101.15 74.4774 95.6942 76.5601 89.4169 76.5601C82.2595 76.5601 74.9556 74.4188 67.5049 70.1361L62.6649 61.3361L67.3289 41.3601C70.3795 43.6481 72.9902 45.2614 75.1609 46.2001C77.3315 47.0801 79.6782 47.5201 82.2009 47.5201C79.0915 46.7574 76.4515 45.6721 74.2809 44.2641C71.7582 42.6214 69.7929 40.5094 68.3849 37.9281L63.9849 29.8321C63.1635 28.4241 62.6062 27.2508 62.3129 26.3121C61.7849 24.7281 61.5209 22.8214 61.5209 20.5921C61.5209 15.5468 63.6035 11.1174 67.7689 7.3041C71.9342 3.49077 76.7449 1.5841 82.2009 1.5841C83.4915 1.5841 85.1049 1.73077 87.0409 2.0241C87.3929 2.0241 87.8329 2.1121 88.3609 2.2881L89.0649 0.704102L106.049 4.7521L110.889 13.5521L105.169 33.0001C102.001 31.4748 99.2142 30.5068 96.8089 30.0961Z" fill="#66AEF4"/>
<path d="M112.39 32.3841L107.374 23.5841L112.742 3.3441H134.566L135.798 0.880105H154.982L159.822 9.6801L155.334 29.0401L158.414 34.6721L155.334 48.2241L158.854 54.5601L153.662 74.8001H117.23L112.39 66.0001V32.3841Z" fill="#66AEF4"/>
<path d="M202.493 41.1841L207.333 22.1761L212.437 41.1841H202.493ZM189.557 3.3441H220.797L225.637 12.1441L244.029 74.8001H221.677L217.365 66.8801H205.573L203.637 74.8001H181.813L176.973 66.0001L187.181 29.3921L184.013 23.5841L189.557 3.3441Z" fill="#66AEF4"/>
<path d="M239.652 32.3841L234.812 23.5841L240.356 3.3441H266.756C271.039 3.3441 275.087 4.6641 278.9 7.3041C282.42 9.7681 285.295 13.0241 287.524 17.0721L291.044 23.4961C292.276 25.7841 293.185 27.9254 293.772 29.9201C294.417 31.9148 294.74 34.0854 294.74 36.4321C294.74 39.9521 293.713 43.6188 291.66 47.4321C289.665 51.2454 287.436 53.8561 284.972 55.2641L291.396 66.0001L296.236 74.8001H272.212L267.372 66.0001L265.348 62.2161V74.8001H244.844L240.004 66.0001V32.3841H239.652ZM259.1 32.7361V22.1761H264.644C266.052 22.1761 267.313 22.7041 268.428 23.7601C269.543 24.8161 270.1 26.1068 270.1 27.6321C270.1 29.0401 269.572 30.2428 268.516 31.2401C267.46 32.2374 266.169 32.7361 264.644 32.7361H259.1Z" fill="#66AEF4"/>
<path d="M298.906 66.0001V32.3841H293.538L288.698 23.5841L294.066 3.3441H313.602L314.834 0.880105H334.106L338.946 9.6801L332.786 32.3841H324.162V74.8001H303.746L298.906 66.0001Z" fill="#66AEF4"/>
<path d="M379.799 41.1841L384.639 22.1761L389.743 41.1841H379.799ZM366.863 3.3441H398.103L402.943 12.1441L421.335 74.8001H398.983L394.671 66.8801H382.879L380.943 74.8001H359.119L354.279 66.0001L364.487 29.3921L361.319 23.5841L366.863 3.3441Z" fill="#66AEF4"/>
<path d="M412.118 23.5841L417.486 3.3441H438.078L450.222 24.4641V3.3441H470.638L475.478 12.1441V74.8001H457.086L442.39 49.5441V74.8001H421.974L417.134 66.0001V32.3841L412.118 23.5841Z" fill="#66AEF4"/>
<path d="M497.718 47.1681V22.1761H500.446C503.145 22.1761 505.462 23.3788 507.398 25.7841C509.334 28.1894 510.302 31.1228 510.302 34.5841C510.302 37.8694 509.364 40.8028 507.486 43.3841C505.668 45.9068 503.468 47.1681 500.886 47.1681H497.718ZM473.694 23.5841L479.062 3.3441H502.998C507.633 3.3441 511.974 4.6641 516.022 7.3041C520.07 9.88544 523.326 13.3761 525.79 17.7761L532.302 30.2721C533.124 31.7974 533.769 33.7628 534.238 36.1681C534.708 38.5148 534.942 40.8908 534.942 43.2961C534.942 51.8614 532.273 59.2534 526.934 65.4721C521.596 71.6908 515.172 74.8001 507.662 74.8001H483.55L478.71 66.0001V32.3841L473.694 23.5841ZM503.966 32.3841V44.8801C505.374 44.0001 506.548 42.6214 507.486 40.7441C508.425 38.8081 508.894 36.7548 508.894 34.5841V33.3521C507.78 32.7068 506.577 32.3841 505.286 32.3841H503.966Z" fill="#66AEF4"/>
<path d="M24.4639 126.168V101.176H27.1919C29.8906 101.176 32.2079 102.379 34.1439 104.784C36.0799 107.189 37.0479 110.123 37.0479 113.584C37.0479 116.869 36.1093 119.803 34.2319 122.384C32.4133 124.907 30.2133 126.168 27.6319 126.168H24.4639ZM0.439941 102.584L5.80794 82.3441H29.7439C34.3786 82.3441 38.7199 83.6641 42.7679 86.3041C46.8159 88.8854 50.0719 92.3761 52.5359 96.7761L59.0479 109.272C59.8693 110.797 60.5146 112.763 60.9839 115.168C61.4533 117.515 61.6879 119.891 61.6879 122.296C61.6879 130.861 59.0186 138.253 53.6799 144.472C48.3413 150.691 41.9173 153.8 34.4079 153.8H10.2959L5.45594 145V111.384L0.439941 102.584ZM30.7119 111.384V123.88C32.1199 123 33.2933 121.621 34.2319 119.744C35.1706 117.808 35.6399 115.755 35.6399 113.584V112.352C34.5253 111.707 33.3226 111.384 32.0319 111.384H30.7119Z" fill="#66AEF4"/>
<path d="M60.975 111.384L55.959 102.584L61.327 82.3441H83.151L84.383 79.8801H103.567L108.407 88.6801L103.919 108.04L106.999 113.672L103.919 127.224L107.439 133.56L102.247 153.8H65.815L60.975 145V111.384Z" fill="#66AEF4"/>
<path d="M140.231 109.096C142.285 109.859 144.162 111.003 145.863 112.528C147.623 114.053 149.09 115.872 150.263 117.984L154.751 126.08C155.279 127.019 155.69 128.133 155.983 129.424C156.335 130.656 156.511 131.888 156.511 133.12C156.511 139.573 154.077 144.971 149.207 149.312C144.573 153.477 139.117 155.56 132.839 155.56C125.682 155.56 118.378 153.419 110.927 149.136L106.087 140.336L110.751 120.36C113.802 122.648 116.413 124.261 118.583 125.2C120.754 126.08 123.101 126.52 125.623 126.52C122.514 125.757 119.874 124.672 117.703 123.264C115.181 121.621 113.215 119.509 111.807 116.928L107.407 108.832C106.586 107.424 106.029 106.251 105.735 105.312C105.207 103.728 104.943 101.821 104.943 99.5921C104.943 94.5468 107.026 90.1174 111.191 86.3041C115.357 82.4908 120.167 80.5841 125.623 80.5841C126.914 80.5841 128.527 80.7308 130.463 81.0241C130.815 81.0241 131.255 81.1121 131.783 81.2881L132.487 79.7041L149.471 83.7521L154.311 92.5521L148.591 112C145.423 110.475 142.637 109.507 140.231 109.096Z" fill="#66AEF4"/>
<path d="M155.636 111.384L150.796 102.584L156.34 82.3441H176.404L181.244 91.1441V153.8H160.828L155.988 145V111.384H155.636Z" fill="#66AEF4"/>
<path d="M213.074 126.52L214.218 126.344L211.754 122.032L215.626 109.888C212.927 110.475 210.698 111.941 208.938 114.288C207.237 116.576 206.386 119.333 206.386 122.56L206.562 124.408C208.557 125.816 210.727 126.52 213.074 126.52ZM237.714 89.7361L242.554 98.5361L234.81 107.16H245.194L250.034 115.96C250.269 116.84 250.445 117.867 250.562 119.04C250.679 120.155 250.738 121.328 250.738 122.56C250.738 131.595 247.453 139.339 240.882 145.792C234.37 152.304 226.597 155.56 217.562 155.56C211.637 155.56 206.181 154.064 201.194 151.072C196.207 148.139 192.335 144.12 189.578 139.016L185.002 130.656C183.477 128.075 182.303 125.405 181.482 122.648C180.719 119.832 180.338 116.869 180.338 113.76C180.338 104.667 183.565 96.8641 190.018 90.3521C196.471 83.8401 204.157 80.5841 213.074 80.5841C214.951 80.5841 216.506 80.6428 217.738 80.7601C218.97 80.8188 220.202 81.0241 221.434 81.3761L223.37 79.5281L237.714 89.7361Z" fill="#66AEF4"/>
<path d="M244.581 102.584L249.949 82.3441H270.542L282.685 103.464V82.3441H303.102L307.941 91.1441V153.8H289.549L274.853 128.544V153.8H254.438L249.598 145V111.384L244.581 102.584Z" fill="#66AEF4"/>
<path d="M366.46 109.096C368.513 109.859 370.391 111.003 372.092 112.528C373.852 114.053 375.319 115.872 376.492 117.984L380.98 126.08C381.508 127.019 381.919 128.133 382.212 129.424C382.564 130.656 382.74 131.888 382.74 133.12C382.74 139.573 380.305 144.971 375.436 149.312C370.801 153.477 365.345 155.56 359.068 155.56C351.911 155.56 344.607 153.419 337.156 149.136L332.316 140.336L336.98 120.36C340.031 122.648 342.641 124.261 344.812 125.2C346.983 126.08 349.329 126.52 351.852 126.52C348.743 125.757 346.103 124.672 343.932 123.264C341.409 121.621 339.444 119.509 338.036 116.928L333.636 108.832C332.815 107.424 332.257 106.251 331.964 105.312C331.436 103.728 331.172 101.821 331.172 99.5921C331.172 94.5468 333.255 90.1174 337.42 86.3041C341.585 82.4908 346.396 80.5841 351.852 80.5841C353.143 80.5841 354.756 80.7308 356.692 81.0241C357.044 81.0241 357.484 81.1121 358.012 81.2881L358.716 79.7041L375.7 83.7521L380.54 92.5521L374.82 112C371.652 110.475 368.865 109.507 366.46 109.096Z" fill="#66AEF4"/>
<path d="M417.065 79.5281L434.225 86.8321L439.065 95.6321L428.945 115.52C426.598 113.408 424.662 111.971 423.137 111.208C421.084 110.152 418.678 109.624 415.921 109.624C412.577 109.624 409.732 110.885 407.385 113.408C405.097 115.872 403.953 118.864 403.953 122.384L404.129 124.144C406.182 125.728 408.5 126.52 411.081 126.52C413.78 126.52 416.038 126.109 417.857 125.288C419.676 124.408 421.67 122.853 423.841 120.624L435.545 136.904L440.385 145.704C437.276 148.696 433.638 151.072 429.473 152.832C425.366 154.651 420.82 155.56 415.833 155.56C410.318 155.56 405.126 154.357 400.257 151.952C395.388 149.605 391.809 146.437 389.521 142.448L381.337 128.192C380.164 126.139 379.284 123.88 378.697 121.416C378.169 118.952 377.905 116.341 377.905 113.584C377.905 104.549 381.161 96.8054 387.673 90.3521C394.244 83.8401 402.046 80.5841 411.081 80.5841C411.785 80.5841 412.606 80.6428 413.545 80.7601C414.484 80.8774 415.246 80.9948 415.833 81.1121L417.065 79.5281Z" fill="#66AEF4"/>
<path d="M466.043 127.928C462.347 127.928 459.179 126.549 456.539 123.792C453.958 120.976 452.667 117.573 452.667 113.584C452.667 109.653 453.958 106.309 456.539 103.552C459.12 100.795 462.288 99.4161 466.043 99.4161C469.739 99.4161 472.878 100.824 475.459 103.64C478.099 106.397 479.419 109.712 479.419 113.584C479.419 117.573 478.099 120.976 475.459 123.792C472.878 126.549 469.739 127.928 466.043 127.928ZM470.883 155.56C464.664 155.56 458.974 153.976 453.811 150.808C448.707 147.64 444.688 143.357 441.755 137.96L437.179 129.776C434.304 124.789 432.867 119.392 432.867 113.584C432.867 104.549 436.123 96.8054 442.635 90.3521C449.206 83.8401 457.008 80.5841 466.043 80.5841C472.555 80.5841 478.51 82.3441 483.907 85.8641C489.363 89.3841 493.44 94.0481 496.139 99.8561L500.187 106.984C501.243 108.803 502.152 111.179 502.915 114.112C503.678 116.987 504.059 119.744 504.059 122.384C504.059 131.477 500.803 139.28 494.291 145.792C487.779 152.304 479.976 155.56 470.883 155.56ZM466.043 126.52C469.446 126.52 472.291 125.288 474.579 122.824C476.867 120.36 478.011 117.28 478.011 113.584L477.835 111.472V111.912C475.723 110.387 473.406 109.624 470.883 109.624C467.48 109.624 464.635 110.827 462.347 113.232C460.059 115.637 458.915 118.688 458.915 122.384L459.091 124.232L458.827 124.056C460.939 125.699 463.344 126.52 466.043 126.52Z" fill="#66AEF4"/>
<path d="M535.89 127.928C532.194 127.928 529.026 126.549 526.386 123.792C523.804 120.976 522.514 117.573 522.514 113.584C522.514 109.653 523.804 106.309 526.386 103.552C528.967 100.795 532.135 99.4161 535.89 99.4161C539.586 99.4161 542.724 100.824 545.306 103.64C547.946 106.397 549.266 109.712 549.266 113.584C549.266 117.573 547.946 120.976 545.306 123.792C542.724 126.549 539.586 127.928 535.89 127.928ZM540.73 155.56C534.511 155.56 528.82 153.976 523.658 150.808C518.554 147.64 514.535 143.357 511.602 137.96L507.026 129.776C504.151 124.789 502.714 119.392 502.714 113.584C502.714 104.549 505.97 96.8054 512.482 90.3521C519.052 83.8401 526.855 80.5841 535.89 80.5841C542.402 80.5841 548.356 82.3441 553.754 85.8641C559.21 89.3841 563.287 94.0481 565.986 99.8561L570.034 106.984C571.09 108.803 571.999 111.179 572.762 114.112C573.524 116.987 573.906 119.744 573.906 122.384C573.906 131.477 570.65 139.28 564.138 145.792C557.626 152.304 549.823 155.56 540.73 155.56ZM535.89 126.52C539.292 126.52 542.138 125.288 544.426 122.824C546.714 120.36 547.858 117.28 547.858 113.584L547.682 111.472V111.912C545.57 110.387 543.252 109.624 540.73 109.624C537.327 109.624 534.482 110.827 532.194 113.232C529.906 115.637 528.762 118.688 528.762 122.384L528.938 124.232L528.674 124.056C530.786 125.699 533.191 126.52 535.89 126.52Z" fill="#66AEF4"/>
<path d="M568.16 102.584L573.528 82.3441H593.592L598.432 91.1441V124.76H606.704L611.544 133.56L605.384 153.8H578.016L573.176 145V111.384L568.16 102.584Z" fill="#66AEF4"/>
<path d="M24.552 4.752H6.952L2.288 22.176H6.952V64.592H24.552V42.504H38.544V64.592H56.144V4.752H38.544V24.992H24.552V4.752ZM0.44 23.584L5.896 3.344H25.96L30.8 12.144V23.584H37.136V3.344H57.552L62.392 12.144V74.8H41.976L37.136 66V52.712H30.8V74.8H10.384L5.544 66V32.384L0.44 23.584ZM104.289 5.808L89.8569 2.376L89.1529 3.96C88.3316 3.72533 87.2169 3.52 85.8089 3.344C84.4009 3.10933 83.1983 2.992 82.2009 2.992C77.0383 2.992 72.5209 4.752 68.6489 8.272C64.8356 11.7333 62.9289 15.84 62.9289 20.592C62.9289 25.9893 65.1289 30.184 69.5289 33.176C70.9956 34.1733 75.0729 35.992 81.7609 38.632C86.2196 40.392 88.4489 42.416 88.4489 44.704C88.4489 46.112 87.8036 47.168 86.5129 47.872C85.2809 48.576 83.8436 48.928 82.2009 48.928C79.6196 48.928 77.2143 48.5173 74.9849 47.696C72.7556 46.816 70.4969 45.5253 68.2089 43.824L64.2489 60.632C70.8783 64.4453 77.6543 66.352 84.5769 66.352C90.5023 66.352 95.6356 64.416 99.9769 60.544C104.553 56.496 106.841 51.4213 106.841 45.32C106.841 40.8613 104.729 37.136 100.505 34.144C98.9209 33.0293 94.9609 31.0347 88.6249 28.16C84.3423 26.224 82.2009 24.376 82.2009 22.616C82.2009 21.736 82.5823 21.0027 83.3449 20.416C84.1663 19.7707 85.1343 19.448 86.2489 19.448C91.0596 19.448 95.4596 20.3573 99.4489 22.176L104.289 5.808ZM96.8089 30.096C98.8623 30.8587 100.74 32.0027 102.441 33.528C104.201 35.0533 105.668 36.872 106.841 38.984L111.329 47.08C111.857 48.0187 112.268 49.1333 112.561 50.424C112.913 51.656 113.089 52.888 113.089 54.12C113.089 60.5733 110.654 65.9707 105.785 70.312C101.15 74.4773 95.6943 76.56 89.4169 76.56C82.2596 76.56 74.9556 74.4187 67.5049 70.136L62.6649 61.336L67.3289 41.36C70.3796 43.648 72.9903 45.2613 75.1609 46.2C77.3316 47.08 79.6783 47.52 82.2009 47.52C79.0916 46.7573 76.4516 45.672 74.2809 44.264C71.7583 42.6213 69.7929 40.5093 68.3849 37.928L63.9849 29.832C63.1636 28.424 62.6063 27.2507 62.3129 26.312C61.7849 24.728 61.5209 22.8213 61.5209 20.592C61.5209 15.5467 63.6036 11.1173 67.7689 7.304C71.9343 3.49066 76.7449 1.584 82.2009 1.584C83.4916 1.584 85.1049 1.73066 87.0409 2.02399C87.3929 2.02399 87.8329 2.112 88.3609 2.288L89.0649 0.703996L106.049 4.752L110.889 13.552L105.169 33C102.001 31.4747 99.2143 30.5067 96.8089 30.096ZM113.798 22.176V64.592H147.766L152.166 47.168H131.398V41.536H148.558L151.814 27.28H131.398V22.176H148.558L153.222 2.288H136.678L135.446 4.752H113.798L109.222 22.176H113.798ZM112.39 32.384L107.374 23.584L112.742 3.344H134.566L135.798 0.879999H154.982L159.822 9.68L155.334 29.04L158.414 34.672L155.334 48.224L158.854 54.56L153.662 74.8H117.23L112.39 66V32.384ZM219.741 4.752H190.613L185.861 22.176H190.613L178.821 64.592H197.653L199.589 56.672H215.781L217.893 64.592H237.341L219.741 4.752ZM202.493 41.184L207.333 22.176L212.437 41.184H202.493ZM189.557 3.344H220.797L225.637 12.144L244.029 74.8H221.677L217.365 66.88H205.573L203.637 74.8H181.813L176.973 66L187.181 29.392L184.013 23.584L189.557 3.344ZM239.652 32.384L234.812 23.584L240.356 3.344H266.756C271.039 3.344 275.087 4.664 278.9 7.304C282.42 9.768 285.295 13.024 287.524 17.072L291.044 23.496C292.276 25.784 293.186 27.9253 293.772 29.92C294.418 31.9147 294.74 34.0853 294.74 36.432C294.74 39.952 293.714 43.6187 291.66 47.432C289.666 51.2453 287.436 53.856 284.972 55.264L291.396 66L296.236 74.8H272.212L267.372 66L265.348 62.216V74.8H244.844L240.004 66V32.384H239.652ZM241.412 22.176V64.592H259.1V48.224H259.452L268.252 64.592H288.932L277.932 46.112C280.748 44.5867 283.212 42.0053 285.324 38.368C287.436 34.7307 288.492 31.152 288.492 27.632C288.492 21.296 286.38 15.8987 282.156 11.44C277.932 6.98133 272.799 4.752 266.756 4.752H241.412L236.66 22.176H241.412ZM259.1 32.736V22.176H264.644C266.052 22.176 267.314 22.704 268.428 23.76C269.543 24.816 270.1 26.1067 270.1 27.632C270.1 29.04 269.572 30.2427 268.516 31.24C267.46 32.2373 266.17 32.736 264.644 32.736H259.1ZM300.314 22.176V64.592H317.914V22.176H326.89L332.258 2.288H315.714L314.482 4.752H295.122L290.546 22.176H300.314ZM298.906 66V32.384H293.538L288.698 23.584L294.066 3.344H313.602L314.834 0.879999H334.106L338.946 9.68L332.786 32.384H324.162V74.8H303.746L298.906 66ZM397.047 4.752H367.919L363.167 22.176H367.919L356.127 64.592H374.959L376.895 56.672H393.087L395.199 64.592H414.647L397.047 4.752ZM379.799 41.184L384.639 22.176L389.743 41.184H379.799ZM366.863 3.344H398.103L402.943 12.144L421.335 74.8H398.983L394.671 66.88H382.879L380.943 74.8H359.119L354.279 66L364.487 29.392L361.319 23.584L366.863 3.344ZM437.286 4.752H418.542L413.966 22.176H418.542V64.592H436.142V35.904L453.038 64.592H469.23V4.752H451.63V29.392L437.286 4.752ZM412.118 23.584L417.486 3.344H438.078L450.222 24.464V3.344H470.638L475.478 12.144V74.8H457.086L442.39 49.544V74.8H421.974L417.134 66V32.384L412.118 23.584ZM480.118 22.176V64.592H502.822C509.98 64.592 516.081 61.6587 521.126 55.792C526.172 49.9253 528.694 42.8267 528.694 34.496C528.694 26.224 526.172 19.2133 521.126 13.464C516.14 7.656 510.097 4.752 502.998 4.752H480.118L475.542 22.176H480.118ZM497.718 47.168V22.176H500.446C503.145 22.176 505.462 23.3787 507.398 25.784C509.334 28.1893 510.302 31.1227 510.302 34.584C510.302 37.8693 509.364 40.8027 507.486 43.384C505.668 45.9067 503.468 47.168 500.886 47.168H497.718ZM473.694 23.584L479.062 3.344H502.998C507.633 3.344 511.974 4.664 516.022 7.304C520.07 9.88533 523.326 13.376 525.79 17.776L532.302 30.272C533.124 31.7973 533.769 33.7627 534.238 36.168C534.708 38.5147 534.942 40.8907 534.942 43.296C534.942 51.8613 532.273 59.2533 526.934 65.472C521.596 71.6907 515.172 74.8 507.662 74.8H483.55L478.71 66V32.384L473.694 23.584ZM503.966 32.384V44.88C505.374 44 506.548 42.6213 507.486 40.744C508.425 38.808 508.894 36.7547 508.894 34.584V33.352C507.78 32.7067 506.577 32.384 505.286 32.384H503.966ZM6.864 101.176V143.592H29.568C36.7253 143.592 42.8267 140.659 47.872 134.792C52.9173 128.925 55.44 121.827 55.44 113.496C55.44 105.224 52.9173 98.2133 47.872 92.464C42.8853 86.656 36.8427 83.752 29.744 83.752H6.864L2.288 101.176H6.864ZM24.464 126.168V101.176H27.192C29.8907 101.176 32.208 102.379 34.144 104.784C36.08 107.189 37.048 110.123 37.048 113.584C37.048 116.869 36.1093 119.803 34.232 122.384C32.4133 124.907 30.2133 126.168 27.632 126.168H24.464ZM0.44 102.584L5.808 82.344H29.744C34.3787 82.344 38.72 83.664 42.768 86.304C46.816 88.8853 50.072 92.376 52.536 96.776L59.048 109.272C59.8693 110.797 60.5147 112.763 60.984 115.168C61.4533 117.515 61.688 119.891 61.688 122.296C61.688 130.861 59.0187 138.253 53.68 144.472C48.3413 150.691 41.9173 153.8 34.408 153.8H10.296L5.456 145V111.384L0.44 102.584ZM30.712 111.384V123.88C32.12 123 33.2933 121.621 34.232 119.744C35.1707 117.808 35.64 115.755 35.64 113.584V112.352C34.5253 111.707 33.3227 111.384 32.032 111.384H30.712ZM62.3831 101.176V143.592H96.3511L100.751 126.168H79.9831V120.536H97.1431L100.399 106.28H79.9831V101.176H97.1431L101.807 81.288H85.2631L84.0311 83.752H62.3831L57.8071 101.176H62.3831ZM60.9751 111.384L55.9591 102.584L61.3271 82.344H83.1511L84.3831 79.88H103.567L108.407 88.68L103.919 108.04L106.999 113.672L103.919 127.224L107.439 133.56L102.247 153.8H65.8151L60.9751 145V111.384ZM147.711 84.808L133.279 81.376L132.575 82.96C131.754 82.7253 130.639 82.52 129.231 82.344C127.823 82.1093 126.621 81.992 125.623 81.992C120.461 81.992 115.943 83.752 112.071 87.272C108.258 90.7333 106.351 94.84 106.351 99.592C106.351 104.989 108.551 109.184 112.951 112.176C114.418 113.173 118.495 114.992 125.183 117.632C129.642 119.392 131.871 121.416 131.871 123.704C131.871 125.112 131.226 126.168 129.935 126.872C128.703 127.576 127.266 127.928 125.623 127.928C123.042 127.928 120.637 127.517 118.407 126.696C116.178 125.816 113.919 124.525 111.631 122.824L107.671 139.632C114.301 143.445 121.077 145.352 127.999 145.352C133.925 145.352 139.058 143.416 143.399 139.544C147.975 135.496 150.263 130.421 150.263 124.32C150.263 119.861 148.151 116.136 143.927 113.144C142.343 112.029 138.383 110.035 132.047 107.16C127.765 105.224 125.623 103.376 125.623 101.616C125.623 100.736 126.005 100.003 126.767 99.416C127.589 98.7707 128.557 98.448 129.671 98.448C134.482 98.448 138.882 99.3573 142.871 101.176L147.711 84.808ZM140.231 109.096C142.285 109.859 144.162 111.003 145.863 112.528C147.623 114.053 149.09 115.872 150.263 117.984L154.751 126.08C155.279 127.019 155.69 128.133 155.983 129.424C156.335 130.656 156.511 131.888 156.511 133.12C156.511 139.573 154.077 144.971 149.207 149.312C144.573 153.477 139.117 155.56 132.839 155.56C125.682 155.56 118.378 153.419 110.927 149.136L106.087 140.336L110.751 120.36C113.802 122.648 116.413 124.261 118.583 125.2C120.754 126.08 123.101 126.52 125.623 126.52C122.514 125.757 119.874 124.672 117.703 123.264C115.181 121.621 113.215 119.509 111.807 116.928L107.407 108.832C106.586 107.424 106.029 106.251 105.735 105.312C105.207 103.728 104.943 101.821 104.943 99.592C104.943 94.5467 107.026 90.1173 111.191 86.304C115.357 82.4907 120.167 80.584 125.623 80.584C126.914 80.584 128.527 80.7307 130.463 81.024C130.815 81.024 131.255 81.112 131.783 81.288L132.487 79.704L149.471 83.752L154.311 92.552L148.591 112C145.423 110.475 142.637 109.507 140.231 109.096ZM174.996 83.752H157.396L152.644 101.176H157.396V143.592H174.996V83.752ZM155.636 111.384L150.796 102.584L156.34 82.344H176.404L181.244 91.144V153.8H160.828L155.988 145V111.384H155.636ZM244.138 108.568H217.562L213.602 120.624H223.458C222.813 122.853 221.493 124.643 219.498 125.992C217.562 127.283 215.421 127.928 213.074 127.928C209.554 127.928 206.503 126.549 203.922 123.792C201.399 120.976 200.138 117.632 200.138 113.76C200.138 109.829 201.399 106.456 203.922 103.64C206.445 100.824 209.495 99.416 213.074 99.416C215.303 99.416 217.122 99.7387 218.53 100.384C219.997 101.029 221.493 102.173 223.018 103.816L235.602 90L223.458 81.376L221.786 82.96C220.495 82.608 219.058 82.3733 217.474 82.256C215.949 82.08 214.482 81.992 213.074 81.992C204.509 81.992 197.146 85.1013 190.986 91.32C184.826 97.5387 181.746 105.019 181.746 113.76C181.746 122.501 184.767 129.952 190.81 136.112C196.853 142.272 204.157 145.352 212.722 145.352C221.463 145.352 228.943 142.272 235.162 136.112C241.381 129.952 244.49 122.501 244.49 113.76V112.176C244.49 110.416 244.373 109.213 244.138 108.568ZM213.074 126.52L214.218 126.344L211.754 122.032L215.626 109.888C212.927 110.475 210.698 111.941 208.938 114.288C207.237 116.576 206.386 119.333 206.386 122.56L206.562 124.408C208.557 125.816 210.727 126.52 213.074 126.52ZM237.714 89.736L242.554 98.536L234.81 107.16H245.194L250.034 115.96C250.269 116.84 250.445 117.867 250.562 119.04C250.679 120.155 250.738 121.328 250.738 122.56C250.738 131.595 247.453 139.339 240.882 145.792C234.37 152.304 226.597 155.56 217.562 155.56C211.637 155.56 206.181 154.064 201.194 151.072C196.207 148.139 192.335 144.12 189.578 139.016L185.002 130.656C183.477 128.075 182.303 125.405 181.482 122.648C180.719 119.832 180.338 116.869 180.338 113.76C180.338 104.667 183.565 96.864 190.018 90.352C196.471 83.84 204.157 80.584 213.074 80.584C214.951 80.584 216.506 80.6427 217.738 80.76C218.97 80.8187 220.202 81.024 221.434 81.376L223.37 79.528L237.714 89.736ZM269.75 83.752H251.006L246.43 101.176H251.006V143.592H268.606V114.904L285.502 143.592H301.694V83.752H284.094V108.392L269.75 83.752ZM244.582 102.584L249.95 82.344H270.542L282.686 103.464V82.344H303.102L307.942 91.144V153.8H289.55L274.854 128.544V153.8H254.438L249.598 145V111.384L244.582 102.584ZM373.94 84.808L359.508 81.376L358.804 82.96C357.983 82.7253 356.868 82.52 355.46 82.344C354.052 82.1093 352.85 81.992 351.852 81.992C346.69 81.992 342.172 83.752 338.3 87.272C334.487 90.7333 332.58 94.84 332.58 99.592C332.58 104.989 334.78 109.184 339.18 112.176C340.647 113.173 344.724 114.992 351.412 117.632C355.871 119.392 358.1 121.416 358.1 123.704C358.1 125.112 357.455 126.168 356.164 126.872C354.932 127.576 353.495 127.928 351.852 127.928C349.271 127.928 346.866 127.517 344.636 126.696C342.407 125.816 340.148 124.525 337.86 122.824L333.9 139.632C340.53 143.445 347.306 145.352 354.228 145.352C360.154 145.352 365.287 143.416 369.628 139.544C374.204 135.496 376.492 130.421 376.492 124.32C376.492 119.861 374.38 116.136 370.156 113.144C368.572 112.029 364.612 110.035 358.276 107.16C353.994 105.224 351.852 103.376 351.852 101.616C351.852 100.736 352.234 100.003 352.996 99.416C353.818 98.7707 354.786 98.448 355.9 98.448C360.711 98.448 365.111 99.3573 369.1 101.176L373.94 84.808ZM366.46 109.096C368.514 109.859 370.391 111.003 372.092 112.528C373.852 114.053 375.319 115.872 376.492 117.984L380.98 126.08C381.508 127.019 381.919 128.133 382.212 129.424C382.564 130.656 382.74 131.888 382.74 133.12C382.74 139.573 380.306 144.971 375.436 149.312C370.802 153.477 365.346 155.56 359.068 155.56C351.911 155.56 344.607 153.419 337.156 149.136L332.316 140.336L336.98 120.36C340.031 122.648 342.642 124.261 344.812 125.2C346.983 126.08 349.33 126.52 351.852 126.52C348.743 125.757 346.103 124.672 343.932 123.264C341.41 121.621 339.444 119.509 338.036 116.928L333.636 108.832C332.815 107.424 332.258 106.251 331.964 105.312C331.436 103.728 331.172 101.821 331.172 99.592C331.172 94.5467 333.255 90.1173 337.42 86.304C341.586 82.4907 346.396 80.584 351.852 80.584C353.143 80.584 354.756 80.7307 356.692 81.024C357.044 81.024 357.484 81.112 358.012 81.288L358.716 79.704L375.7 83.752L380.54 92.552L374.82 112C371.652 110.475 368.866 109.507 366.46 109.096ZM432.289 87.536L417.505 81.288L416.449 82.696C414.337 82.2267 412.548 81.992 411.081 81.992C402.34 81.992 394.86 85.072 388.641 91.232C382.422 97.392 379.313 104.843 379.313 113.584C379.313 122.325 382.393 129.805 388.553 136.024C394.713 142.243 402.193 145.352 410.993 145.352C415.804 145.352 420.116 144.589 423.929 143.064C427.742 141.48 430.998 139.368 433.697 136.728L423.665 122.824C420.38 126.227 416.185 127.928 411.081 127.928C407.444 127.928 404.305 126.491 401.665 123.616C399.025 120.741 397.705 117.397 397.705 113.584C397.705 109.771 398.996 106.456 401.577 103.64C404.217 100.824 407.385 99.416 411.081 99.416C413.838 99.416 416.361 99.944 418.649 101C420.292 101.763 421.964 102.907 423.665 104.432L432.289 87.536ZM417.065 79.528L434.225 86.832L439.065 95.632L428.945 115.52C426.598 113.408 424.662 111.971 423.137 111.208C421.084 110.152 418.678 109.624 415.921 109.624C412.577 109.624 409.732 110.885 407.385 113.408C405.097 115.872 403.953 118.864 403.953 122.384L404.129 124.144C406.182 125.728 408.5 126.52 411.081 126.52C413.78 126.52 416.038 126.109 417.857 125.288C419.676 124.408 421.67 122.853 423.841 120.624L435.545 136.904L440.385 145.704C437.276 148.696 433.638 151.072 429.473 152.832C425.366 154.651 420.82 155.56 415.833 155.56C410.318 155.56 405.126 154.357 400.257 151.952C395.388 149.605 391.809 146.437 389.521 142.448L381.337 128.192C380.164 126.139 379.284 123.88 378.697 121.416C378.169 118.952 377.905 116.341 377.905 113.584C377.905 104.549 381.161 96.8053 387.673 90.352C394.244 83.84 402.046 80.584 411.081 80.584C411.785 80.584 412.606 80.6427 413.545 80.76C414.484 80.8773 415.246 80.9947 415.833 81.112L417.065 79.528ZM466.043 145.352C474.785 145.352 482.265 142.243 488.483 136.024C494.702 129.805 497.811 122.325 497.811 113.584C497.811 104.843 494.702 97.392 488.483 91.232C482.265 85.072 474.785 81.992 466.043 81.992C457.302 81.992 449.822 85.072 443.603 91.232C437.385 97.392 434.275 104.843 434.275 113.584C434.275 122.325 437.385 129.805 443.603 136.024C449.822 142.243 457.302 145.352 466.043 145.352ZM466.043 127.928C462.347 127.928 459.179 126.549 456.539 123.792C453.958 120.976 452.667 117.573 452.667 113.584C452.667 109.653 453.958 106.309 456.539 103.552C459.121 100.795 462.289 99.416 466.043 99.416C469.739 99.416 472.878 100.824 475.459 103.64C478.099 106.397 479.419 109.712 479.419 113.584C479.419 117.573 478.099 120.976 475.459 123.792C472.878 126.549 469.739 127.928 466.043 127.928ZM470.883 155.56C464.665 155.56 458.974 153.976 453.811 150.808C448.707 147.64 444.689 143.357 441.755 137.96L437.179 129.776C434.305 124.789 432.867 119.392 432.867 113.584C432.867 104.549 436.123 96.8053 442.635 90.352C449.206 83.84 457.009 80.584 466.043 80.584C472.555 80.584 478.51 82.344 483.907 85.864C489.363 89.384 493.441 94.048 496.139 99.856L500.187 106.984C501.243 108.803 502.153 111.179 502.915 114.112C503.678 116.987 504.059 119.744 504.059 122.384C504.059 131.477 500.803 139.28 494.291 145.792C487.779 152.304 479.977 155.56 470.883 155.56ZM466.043 126.52C469.446 126.52 472.291 125.288 474.579 122.824C476.867 120.36 478.011 117.28 478.011 113.584L477.835 111.472V111.912C475.723 110.387 473.406 109.624 470.883 109.624C467.481 109.624 464.635 110.827 462.347 113.232C460.059 115.637 458.915 118.688 458.915 122.384L459.091 124.232L458.827 124.056C460.939 125.699 463.345 126.52 466.043 126.52ZM535.89 145.352C544.631 145.352 552.111 142.243 558.33 136.024C564.548 129.805 567.658 122.325 567.658 113.584C567.658 104.843 564.548 97.392 558.33 91.232C552.111 85.072 544.631 81.992 535.89 81.992C527.148 81.992 519.668 85.072 513.45 91.232C507.231 97.392 504.122 104.843 504.122 113.584C504.122 122.325 507.231 129.805 513.45 136.024C519.668 142.243 527.148 145.352 535.89 145.352ZM535.89 127.928C532.194 127.928 529.026 126.549 526.386 123.792C523.804 120.976 522.514 117.573 522.514 113.584C522.514 109.653 523.804 106.309 526.386 103.552C528.967 100.795 532.135 99.416 535.89 99.416C539.586 99.416 542.724 100.824 545.306 103.64C547.946 106.397 549.266 109.712 549.266 113.584C549.266 117.573 547.946 120.976 545.306 123.792C542.724 126.549 539.586 127.928 535.89 127.928ZM540.73 155.56C534.511 155.56 528.82 153.976 523.658 150.808C518.554 147.64 514.535 143.357 511.602 137.96L507.026 129.776C504.151 124.789 502.714 119.392 502.714 113.584C502.714 104.549 505.97 96.8053 512.482 90.352C519.052 83.84 526.855 80.584 535.89 80.584C542.402 80.584 548.356 82.344 553.754 85.864C559.21 89.384 563.287 94.048 565.986 99.856L570.034 106.984C571.09 108.803 571.999 111.179 572.762 114.112C573.524 116.987 573.906 119.744 573.906 122.384C573.906 131.477 570.65 139.28 564.138 145.792C557.626 152.304 549.823 155.56 540.73 155.56ZM535.89 126.52C539.292 126.52 542.138 125.288 544.426 122.824C546.714 120.36 547.858 117.28 547.858 113.584L547.682 111.472V111.912C545.57 110.387 543.252 109.624 540.73 109.624C537.327 109.624 534.482 110.827 532.194 113.232C529.906 115.637 528.762 118.688 528.762 122.384L528.938 124.232L528.674 124.056C530.786 125.699 533.191 126.52 535.89 126.52ZM592.184 83.752H574.584L570.008 101.176H574.584V143.592H599.488L604.768 126.168H592.184V83.752ZM568.16 102.584L573.528 82.344H593.592L598.432 91.144V124.76H606.704L611.544 133.56L605.384 153.8H578.016L573.176 145V111.384L568.16 102.584Z" fill="#1D1E19"/>
<path d="M544.426 122.824C542.138 125.288 539.292 126.52 535.89 126.52C533.191 126.52 530.786 125.699 528.674 124.056L528.938 124.232L528.762 122.384C528.762 118.688 529.906 115.637 532.194 113.232C534.482 110.827 537.327 109.624 540.73 109.624C543.253 109.624 545.57 110.387 547.682 111.912V111.472L547.858 113.584C547.858 117.28 546.714 120.36 544.426 122.824Z" fill="#F57B45"/>
<path d="M474.579 122.824C472.291 125.288 469.446 126.52 466.043 126.52C463.344 126.52 460.939 125.699 458.827 124.056L459.091 124.232L458.915 122.384C458.915 118.688 460.059 115.637 462.347 113.232C464.635 110.827 467.48 109.624 470.883 109.624C473.406 109.624 475.723 110.387 477.835 111.912V111.472L478.011 113.584C478.011 117.28 476.867 120.36 474.579 122.824Z" fill="#F57B45"/>
<path d="M30.7119 123.88V111.384H32.0319C33.3226 111.384 34.5252 111.707 35.6399 112.352V113.584C35.6399 115.755 35.1706 117.808 34.2319 119.744C33.2932 121.622 32.1199 123 30.7119 123.88Z" fill="#F57B45"/>
<path d="M503.966 44.8803V32.3843H505.286C506.577 32.3843 507.78 32.7069 508.894 33.3523V34.5843C508.894 36.7549 508.425 38.8083 507.486 40.7443C506.548 42.6216 505.374 44.0003 503.966 44.8803Z" fill="#F57B45"/>
</svg>
