<svg width="281" height="77" viewBox="0 0 281 77" fill="none" xmlns="http://www.w3.org/2000/svg">
<path d="M41.3602 0.527832L58.5202 7.83183L63.3602 16.6318L53.2402 36.5198C50.8935 34.4078 48.9575 32.9705 47.4322 32.2078C45.3789 31.1518 42.9735 30.6238 40.2162 30.6238C36.8722 30.6238 34.0269 31.8852 31.6802 34.4078C29.3922 36.8718 28.2482 39.8638 28.2482 43.3838L28.4242 45.1438C30.4775 46.7278 32.7949 47.5198 35.3762 47.5198C38.0749 47.5198 40.3335 47.1092 42.1522 46.2878C43.9709 45.4078 45.9655 43.8532 48.1362 41.6238L59.8402 57.9038L64.6802 66.7038C61.5709 69.6958 57.9335 72.0718 53.7682 73.8318C49.6615 75.6505 45.1149 76.5598 40.1282 76.5598C34.6135 76.5598 29.4215 75.3572 24.5522 72.9518C19.6829 70.6052 16.1042 67.4372 13.8162 63.4478L5.6322 49.1918C4.45886 47.1385 3.57886 44.8798 2.9922 42.4158C2.4642 39.9518 2.2002 37.3412 2.2002 34.5838C2.2002 25.5492 5.4562 17.8052 11.9682 11.3518C18.5389 4.83983 26.3415 1.58383 35.3762 1.58383C36.0802 1.58383 36.9015 1.6425 37.8402 1.75983C38.7789 1.87716 39.5415 1.9945 40.1282 2.11183L41.3602 0.527832Z" fill="#5DC27C"/>
<path d="M90.3384 48.9278C86.6424 48.9278 83.4744 47.5492 80.8344 44.7918C78.253 41.9758 76.9624 38.5732 76.9624 34.5838C76.9624 30.6532 78.253 27.3092 80.8344 24.5518C83.4157 21.7945 86.5837 20.4158 90.3384 20.4158C94.0344 20.4158 97.1731 21.8238 99.7544 24.6398C102.394 27.3972 103.714 30.7118 103.714 34.5838C103.714 38.5732 102.394 41.9758 99.7544 44.7918C97.1731 47.5492 94.0344 48.9278 90.3384 48.9278ZM95.1784 76.5598C88.9597 76.5598 83.2691 74.9758 78.1064 71.8078C73.0024 68.6398 68.9837 64.3572 66.0504 58.9598L61.4744 50.7758C58.5997 45.7892 57.1624 40.3918 57.1624 34.5838C57.1624 25.5492 60.4184 17.8052 66.9304 11.3518C73.501 4.83983 81.3037 1.58383 90.3384 1.58383C96.8504 1.58383 102.805 3.34383 108.202 6.86383C113.658 10.3838 117.736 15.0478 120.434 20.8558L124.482 27.9838C125.538 29.8025 126.448 32.1785 127.21 35.1118C127.973 37.9865 128.354 40.7438 128.354 43.3838C128.354 52.4772 125.098 60.2798 118.586 66.7918C112.074 73.3038 104.272 76.5598 95.1784 76.5598ZM90.3384 47.5198C93.7411 47.5198 96.5864 46.2878 98.8744 43.8238C101.162 41.3598 102.306 38.2798 102.306 34.5838L102.13 32.4718V32.9118C100.018 31.3865 97.701 30.6238 95.1784 30.6238C91.7757 30.6238 88.9304 31.8265 86.6424 34.2318C84.3544 36.6372 83.2104 39.6878 83.2104 43.3838L83.3864 45.2318L83.1224 45.0558C85.2344 46.6985 87.6397 47.5198 90.3384 47.5198Z" fill="#5DC27C"/>
<path d="M131.057 65.9998V32.3838H125.689L120.849 23.5838L126.217 3.34383H145.753L146.985 0.879833H166.257L171.097 9.67983L164.937 32.3838H156.313V74.7998H135.897L131.057 65.9998Z" fill="#5DC27C"/>
<path d="M190.719 35.1998V22.1758H194.063C195.764 22.1758 197.084 22.8798 198.023 24.2878C198.962 25.6372 199.431 27.1625 199.431 28.8638C199.431 30.7412 199.05 32.2078 198.287 33.2638C197.348 34.5545 195.882 35.1998 193.887 35.1998H190.719ZM166.695 23.5838L172.063 3.34383H194.767C200.047 3.34383 204.594 4.7225 208.407 7.47983C211.575 9.76783 214.332 13.0532 216.679 17.3358L219.671 22.7918C220.903 25.0212 221.871 27.4558 222.575 30.0958C223.338 32.7358 223.719 35.2585 223.719 37.6638C223.719 44.3518 221.519 50.0425 217.119 54.7358C212.778 59.3705 206.999 61.6878 199.783 61.6878H196.967V74.7998H176.551L171.711 65.9998V32.3838L166.695 23.5838Z" fill="#5DC27C"/>
<path d="M222.501 32.3838L217.661 23.5838L223.205 3.34383H243.269L248.109 12.1438V21.1198L258.141 3.34383H276.005L280.845 12.1438V74.7998H260.429L255.589 65.9998V62.8318L248.901 74.7998H227.693L222.853 65.9998V32.3838H222.501Z" fill="#5DC27C"/>
<path d="M98.8746 43.824C96.5866 46.288 93.7412 47.52 90.3386 47.52C87.6399 47.52 85.2346 46.6987 83.1226 45.056L83.3866 45.232L83.2106 43.384C83.2106 39.688 84.3546 36.6374 86.6426 34.232C88.9306 31.8267 91.7759 30.624 95.1786 30.624C97.7012 30.624 100.019 31.3867 102.131 32.912V32.472L102.307 34.584C102.307 38.28 101.163 41.36 98.8746 43.824Z" fill="#F6CA45"/>
<path d="M56.584 8.536L41.8 2.288L40.744 3.696C38.632 3.22667 36.8427 2.992 35.376 2.992C26.6347 2.992 19.1547 6.072 12.936 12.232C6.71733 18.392 3.608 25.8427 3.608 34.584C3.608 43.3253 6.688 50.8053 12.848 57.024C19.008 63.2427 26.488 66.352 35.288 66.352C40.0987 66.352 44.4107 65.5893 48.224 64.064C52.0373 62.48 55.2933 60.368 57.992 57.728L47.96 43.824C44.6747 47.2267 40.48 48.928 35.376 48.928C31.7387 48.928 28.6 47.4907 25.96 44.616C23.32 41.7413 22 38.3973 22 34.584C22 30.7707 23.2907 27.456 25.872 24.64C28.512 21.824 31.68 20.416 35.376 20.416C38.1333 20.416 40.656 20.944 42.944 22C44.5867 22.7627 46.2587 23.9067 47.96 25.432L56.584 8.536ZM41.36 0.527998L58.52 7.832L63.36 16.632L53.24 36.52C50.8933 34.408 48.9573 32.9707 47.432 32.208C45.3787 31.152 42.9733 30.624 40.216 30.624C36.872 30.624 34.0267 31.8853 31.68 34.408C29.392 36.872 28.248 39.864 28.248 43.384L28.424 45.144C30.4773 46.728 32.7947 47.52 35.376 47.52C38.0747 47.52 40.3333 47.1093 42.152 46.288C43.9707 45.408 45.9653 43.8533 48.136 41.624L59.84 57.904L64.68 66.704C61.5707 69.696 57.9333 72.072 53.768 73.832C49.6613 75.6507 45.1147 76.56 40.128 76.56C34.6133 76.56 29.4213 75.3573 24.552 72.952C19.6827 70.6053 16.104 67.4373 13.816 63.448L5.632 49.192C4.45867 47.1387 3.57867 44.88 2.992 42.416C2.464 39.952 2.2 37.3413 2.2 34.584C2.2 25.5493 5.456 17.8053 11.968 11.352C18.5387 4.84 26.3413 1.584 35.376 1.584C36.08 1.584 36.9013 1.64266 37.84 1.76C38.7787 1.87733 39.5413 1.99466 40.128 2.112L41.36 0.527998ZM90.3382 66.352C99.0795 66.352 106.56 63.2427 112.778 57.024C118.997 50.8053 122.106 43.3253 122.106 34.584C122.106 25.8427 118.997 18.392 112.778 12.232C106.56 6.072 99.0795 2.992 90.3382 2.992C81.5969 2.992 74.1169 6.072 67.8982 12.232C61.6795 18.392 58.5702 25.8427 58.5702 34.584C58.5702 43.3253 61.6795 50.8053 67.8982 57.024C74.1169 63.2427 81.5969 66.352 90.3382 66.352ZM90.3382 48.928C86.6422 48.928 83.4742 47.5493 80.8342 44.792C78.2529 41.976 76.9622 38.5733 76.9622 34.584C76.9622 30.6533 78.2529 27.3093 80.8342 24.552C83.4155 21.7947 86.5835 20.416 90.3382 20.416C94.0342 20.416 97.1729 21.824 99.7542 24.64C102.394 27.3973 103.714 30.712 103.714 34.584C103.714 38.5733 102.394 41.976 99.7542 44.792C97.1729 47.5493 94.0342 48.928 90.3382 48.928ZM95.1782 76.56C88.9595 76.56 83.2689 74.976 78.1062 71.808C73.0022 68.64 68.9835 64.3573 66.0502 58.96L61.4742 50.776C58.5995 45.7893 57.1622 40.392 57.1622 34.584C57.1622 25.5493 60.4182 17.8053 66.9302 11.352C73.5009 4.84 81.3035 1.584 90.3382 1.584C96.8502 1.584 102.805 3.344 108.202 6.864C113.658 10.384 117.736 15.048 120.434 20.856L124.482 27.984C125.538 29.8027 126.448 32.1787 127.21 35.112C127.973 37.9867 128.354 40.744 128.354 43.384C128.354 52.4773 125.098 60.28 118.586 66.792C112.074 73.304 104.272 76.56 95.1782 76.56ZM90.3382 47.52C93.7409 47.52 96.5862 46.288 98.8742 43.824C101.162 41.36 102.306 38.28 102.306 34.584L102.13 32.472V32.912C100.018 31.3867 97.7009 30.624 95.1782 30.624C91.7755 30.624 88.9302 31.8267 86.6422 34.232C84.3542 36.6373 83.2102 39.688 83.2102 43.384L83.3862 45.232L83.1222 45.056C85.2342 46.6987 87.6395 47.52 90.3382 47.52ZM132.465 22.176V64.592H150.065V22.176H159.041L164.409 2.288H147.865L146.633 4.752H127.273L122.697 22.176H132.465ZM131.057 66V32.384H125.689L120.849 23.584L126.217 3.344H145.753L146.985 0.879999H166.257L171.097 9.68L164.937 32.384H156.313V74.8H135.897L131.057 66ZM173.119 22.176V64.592H190.719V51.48H194.943C201.807 51.48 207.263 49.3387 211.311 45.056C215.417 40.7147 217.471 35.3173 217.471 28.864C217.471 22.176 215.652 16.632 212.015 12.232C207.908 7.24533 202.159 4.752 194.767 4.752H173.119L168.543 22.176H173.119ZM190.719 35.2V22.176H194.063C195.764 22.176 197.084 22.88 198.023 24.288C198.961 25.6373 199.431 27.1627 199.431 28.864C199.431 30.7413 199.049 32.208 198.287 33.264C197.348 34.5547 195.881 35.2 193.887 35.2H190.719ZM166.695 23.584L172.063 3.344H194.767C200.047 3.344 204.593 4.72267 208.407 7.48C211.575 9.768 214.332 13.0533 216.679 17.336L219.671 22.792C220.903 25.0213 221.871 27.456 222.575 30.096C223.337 32.736 223.719 35.2587 223.719 37.664C223.719 44.352 221.519 50.0427 217.119 54.736C212.777 59.3707 206.999 61.688 199.783 61.688H196.967V74.8H176.551L171.711 66V32.384L166.695 23.584ZM241.861 4.752H224.261L219.509 22.176H224.261V64.592H243.269L256.821 40.392L256.997 64.592H274.597V4.752H258.933L242.037 34.584L241.861 4.752ZM222.501 32.384L217.661 23.584L223.205 3.344H243.269L248.109 12.144V21.12L258.141 3.344H276.005L280.845 12.144V74.8H260.429L255.589 66V62.832L248.901 74.8H227.693L222.853 66V32.384H222.501Z" fill="#1D1E19"/>
</svg>
