<svg width="590" height="161" viewBox="0 0 590 161" fill="none" xmlns="http://www.w3.org/2000/svg">
<path d="M0.35498 21.476L5.35698 2.61596H53.573L58.083 10.816V69.2H39.059L34.549 61V29.676H28.563V69.2H9.53898L5.02898 61V29.676L0.35498 21.476Z" fill="#5DC27C"/>
<path d="M88.2827 45.092C84.8387 45.092 81.8867 43.8073 79.4267 41.238C77.0213 38.614 75.8187 35.4433 75.8187 31.726C75.8187 28.0633 77.0213 24.9473 79.4267 22.378C81.832 19.8086 84.784 18.524 88.2827 18.524C91.7267 18.524 94.6514 19.836 97.0567 22.46C99.5167 25.0293 100.747 28.118 100.747 31.726C100.747 35.4433 99.5167 38.614 97.0567 41.238C94.6514 43.8073 91.7267 45.092 88.2827 45.092ZM92.7927 70.84C86.998 70.84 81.6953 69.364 76.8847 66.412C72.1287 63.46 68.384 59.4693 65.6507 54.44L61.3867 46.814C58.708 42.1673 57.3687 37.138 57.3687 31.726C57.3687 23.3073 60.4027 16.0913 66.4707 10.078C72.5934 4.00995 79.864 0.975952 88.2827 0.975952C94.3507 0.975952 99.8994 2.61595 104.929 5.89595C110.013 9.17595 113.812 13.522 116.327 18.934L120.099 25.576C121.083 27.2706 121.93 29.4846 122.641 32.218C123.351 34.8966 123.707 37.466 123.707 39.926C123.707 48.3993 120.673 55.67 114.605 61.738C108.537 67.806 101.266 70.84 92.7927 70.84ZM88.2827 43.78C91.4534 43.78 94.1047 42.632 96.2367 40.336C98.3687 38.04 99.4347 35.17 99.4347 31.726L99.2707 29.758V30.168C97.3027 28.7466 95.1434 28.036 92.7927 28.036C89.622 28.036 86.9707 29.1566 84.8387 31.398C82.7067 33.6393 81.6407 36.482 81.6407 39.926L81.8047 41.648L81.5587 41.484C83.5267 43.0146 85.768 43.78 88.2827 43.78Z" fill="#5DC27C"/>
<path d="M123.437 37.794L126.225 28.61L122.125 22.87L127.045 2.86195C129.286 2.26062 131.446 1.79595 133.523 1.46796C135.6 1.13995 137.514 0.975952 139.263 0.975952C142.816 0.975952 146.26 1.76862 149.595 3.35396C152.984 4.88462 155.472 7.12595 157.057 10.078L161.321 17.786C161.813 18.7153 162.25 19.8633 162.633 21.23C163.016 22.5966 163.207 23.9086 163.207 25.166C163.207 30.0313 161.84 33.776 159.107 36.4L162.715 42.714C164.464 45.7753 165.339 49.2193 165.339 53.046C165.339 58.1846 163.262 62.4213 159.107 65.756C155.007 69.1453 150.278 70.84 144.921 70.84C141.586 70.84 138.033 70.3753 134.261 69.446C130.544 68.5166 127.1 67.232 123.929 65.592L119.419 57.392L124.339 40.09L123.437 37.794Z" fill="#5DC27C"/>
<path d="M198.215 43.452H190.343L194.115 29.348L198.215 43.452ZM167.547 69.2L163.037 61L168.121 42.14H172.385L177.633 26.478L174.927 21.476L180.175 2.61596H203.463L207.973 10.816L217.895 42.14H222.405L226.915 50.34L221.831 69.2H167.547Z" fill="#5DC27C"/>
<path d="M243.3 32.3V20.164H246.416C248.001 20.164 249.231 20.82 250.106 22.132C250.981 23.3893 251.418 24.8106 251.418 26.396C251.418 28.1453 251.063 29.512 250.352 30.496C249.477 31.6986 248.11 32.3 246.252 32.3H243.3ZM220.914 21.476L225.916 2.61596H247.072C251.992 2.61596 256.228 3.90062 259.782 6.46995C262.734 8.60195 265.303 11.6633 267.49 15.654L270.278 20.738C271.426 22.8153 272.328 25.084 272.984 27.544C273.694 30.004 274.05 32.3546 274.05 34.596C274.05 40.828 272 46.1306 267.9 50.504C263.855 54.8226 258.47 56.982 251.746 56.982H249.122V69.2H230.098L225.588 61V29.676L220.914 21.476Z" fill="#5DC27C"/>
<path d="M290.463 37.876L294.973 20.164L299.729 37.876H290.463ZM278.409 2.61596H307.519L312.029 10.816L329.167 69.2H308.339L304.321 61.82H293.333L291.529 69.2H271.193L266.683 61L276.195 26.888L273.243 21.476L278.409 2.61596Z" fill="#5DC27C"/>
<path d="M342.965 26.724V20.164H347.475C350.154 20.164 351.493 21.2573 351.493 23.444C351.493 24.428 351.22 25.2206 350.673 25.822C350.126 26.4233 349.252 26.724 348.049 26.724H342.965ZM342.965 44.518V36.564H347.311C348.951 36.564 350.126 36.9193 350.837 37.63C351.602 38.286 351.985 39.2426 351.985 40.5C351.985 41.7573 351.63 42.7413 350.919 43.452C350.208 44.1626 349.006 44.518 347.311 44.518H342.965ZM320.579 21.476L325.581 2.61596H351.985C355.429 2.61596 358.545 3.46329 361.333 5.15795C363.848 6.68862 365.816 8.73862 367.237 11.308L372.321 20.574C372.758 21.3393 373.086 22.296 373.305 23.444C373.524 24.5373 373.633 25.6033 373.633 26.642C373.633 28.8286 373.196 30.906 372.321 32.874C371.501 34.842 370.435 36.3726 369.123 37.466L373.387 45.01C373.988 45.994 374.398 47.142 374.617 48.454C374.836 49.7113 374.945 51.1326 374.945 52.718C374.945 57.3646 373.196 61.2733 369.697 64.444C366.198 67.6146 361.798 69.2 356.495 69.2H329.763L325.253 61V29.676L320.579 21.476Z" fill="#5DC27C"/>
<path d="M385.477 2.61596H408.765L413.275 10.816L431.643 69.2H411.881L407.371 61L402.861 46.322L396.137 69.2H376.539L372.029 61L383.099 26.478L380.311 21.476L385.477 2.61596Z" fill="#5DC27C"/>
<path d="M456.092 20.164V29.84H450.926C449.559 29.84 448.356 29.4026 447.318 28.528C446.334 27.5986 445.842 26.5053 445.842 25.248C445.842 23.8266 446.334 22.624 447.318 21.64C448.302 20.656 449.504 20.164 450.926 20.164H456.092ZM478.314 10.816V69.2H459.29L456.42 64.034L454.042 69.2H431.246L426.736 61L435.592 45.092L430.098 35.088C428.458 31.6986 427.638 28.4186 427.638 25.248C427.638 19.0706 429.715 13.768 433.87 9.33995C438.079 4.85729 443.108 2.61596 448.958 2.61596H473.804L478.314 10.816Z" fill="#5DC27C"/>
<path d="M544.234 31.726C544.234 35.4433 543.031 38.614 540.626 41.238C538.221 43.862 535.269 45.174 531.77 45.174C528.326 45.174 525.374 43.862 522.914 41.238C520.454 38.614 519.224 35.4433 519.224 31.726C519.224 28.0633 520.454 24.9473 522.914 22.378C525.374 19.8086 528.326 18.524 531.77 18.524C535.214 18.524 538.139 19.836 540.544 22.46C543.004 25.0293 544.234 28.118 544.234 31.726ZM481.586 29.676L477.076 21.476L482.324 2.61596H500.856L505.366 10.816V15.818C508.209 11.4993 512.035 7.94595 516.846 5.15795C521.711 2.36995 526.686 0.975952 531.77 0.975952C536.854 0.975952 541.938 2.39729 547.022 5.23996C552.161 8.08262 555.933 11.718 558.338 16.146L563.668 25.822C564.707 27.626 565.554 29.8946 566.21 32.628C566.866 35.3613 567.194 37.794 567.194 39.926C567.194 48.3993 564.16 55.67 558.092 61.738C552.024 67.806 544.753 70.84 536.28 70.84C529.665 70.84 523.679 68.9266 518.322 65.1C512.965 61.328 509.275 56.5446 507.252 50.75L506.268 49.52H505.366V69.2H486.506L481.996 61V29.676H481.586ZM542.922 31.726L542.758 30.168C540.79 28.7466 538.658 28.036 536.362 28.036C533.082 28.036 530.349 29.184 528.162 31.48C526.03 33.7213 524.964 36.564 524.964 40.008L525.128 41.566C526.057 42.2766 527.096 42.8506 528.244 43.288C529.392 43.6706 530.567 43.862 531.77 43.862C534.941 43.862 537.592 42.714 539.724 40.418C541.856 38.122 542.922 35.2246 542.922 31.726Z" fill="#5DC27C"/>
<path d="M571.726 75.35L567.216 67.15C567.489 66.822 568.118 66.002 569.102 64.69C569.758 63.8153 570.168 63.2413 570.332 62.968L566.642 56.654C565.767 55.1233 565.33 53.4286 565.33 51.57C565.33 48.8366 566.287 46.486 568.2 44.518C570.168 42.4953 572.519 41.484 575.252 41.484C577.384 41.484 579.325 42.1673 581.074 43.534C582.605 44.7366 583.917 46.3493 585.01 48.372L588.7 55.26C589.465 56.6813 589.848 58.1846 589.848 59.77C589.848 64.198 588.317 67.8333 585.256 70.676C581.921 73.792 577.411 75.35 571.726 75.35Z" fill="#5DC27C"/>
<path d="M27.6126 116.724V110.164H32.1226C34.8013 110.164 36.1406 111.257 36.1406 113.444C36.1406 114.428 35.8673 115.221 35.3206 115.822C34.7739 116.423 33.8993 116.724 32.6966 116.724H27.6126ZM27.6126 134.518V126.564H31.9586C33.5986 126.564 34.7739 126.919 35.4846 127.63C36.2499 128.286 36.6326 129.243 36.6326 130.5C36.6326 131.757 36.2773 132.741 35.5666 133.452C34.8559 134.163 33.6533 134.518 31.9586 134.518H27.6126ZM5.22659 111.476L10.2286 92.616H36.6326C40.0766 92.616 43.1926 93.4633 45.9806 95.158C48.4953 96.6886 50.4633 98.7386 51.8846 101.308L56.9686 110.574C57.4059 111.339 57.7339 112.296 57.9526 113.444C58.1713 114.537 58.2806 115.603 58.2806 116.642C58.2806 118.829 57.8433 120.906 56.9686 122.874C56.1486 124.842 55.0826 126.373 53.7706 127.466L58.0346 135.01C58.6359 135.994 59.0459 137.142 59.2646 138.454C59.4833 139.711 59.5926 141.133 59.5926 142.718C59.5926 147.365 57.8433 151.273 54.3446 154.444C50.8459 157.615 46.4453 159.2 41.1426 159.2H14.4106L9.90059 151V119.676L5.22659 111.476Z" fill="#5DC27C"/>
<path d="M77.5865 133.452V121.234H80.0465C81.5225 121.234 82.7798 121.835 83.8185 123.038C84.9118 124.186 85.4585 125.553 85.4585 127.138C85.4585 128.942 84.9391 130.445 83.9005 131.648C82.8618 132.851 81.5771 133.452 80.0465 133.452H77.5865ZM55.2005 111.476L60.2025 92.616H78.8985L83.4085 100.816V103.768C87.1805 104.151 90.6245 105.49 93.7405 107.786C96.9111 110.082 99.3985 113.034 101.202 116.642L105.876 125.17V119.676H105.548L101.038 111.476L106.204 92.616H124.9L129.41 100.816V159.2H110.386L105.876 151V146.818C104.018 150.535 101.339 153.515 97.8405 155.756C94.3965 158.052 90.5971 159.2 86.4425 159.2H64.3845L59.8745 151V119.676L55.2005 111.476Z" fill="#5DC27C"/>
<path d="M150.74 111.476L155.742 92.616H203.958L208.468 100.816V159.2H189.444L184.934 151V119.676H178.948V159.2H159.924L155.414 151V119.676L150.74 111.476Z" fill="#5DC27C"/>
<path d="M238.668 135.092C235.224 135.092 232.272 133.807 229.812 131.238C227.406 128.614 226.204 125.443 226.204 121.726C226.204 118.063 227.406 114.947 229.812 112.378C232.217 109.809 235.169 108.524 238.668 108.524C242.112 108.524 245.036 109.836 247.442 112.46C249.902 115.029 251.132 118.118 251.132 121.726C251.132 125.443 249.902 128.614 247.442 131.238C245.036 133.807 242.112 135.092 238.668 135.092ZM243.178 160.84C237.383 160.84 232.08 159.364 227.27 156.412C222.514 153.46 218.769 149.469 216.036 144.44L211.772 136.814C209.093 132.167 207.754 127.138 207.754 121.726C207.754 113.307 210.788 106.091 216.856 100.078C222.978 94.0099 230.249 90.976 238.668 90.976C244.736 90.976 250.284 92.616 255.314 95.896C260.398 99.176 264.197 103.522 266.712 108.934L270.484 115.576C271.468 117.271 272.315 119.485 273.026 122.218C273.736 124.897 274.092 127.466 274.092 129.926C274.092 138.399 271.058 145.67 264.99 151.738C258.922 157.806 251.651 160.84 243.178 160.84ZM238.668 133.78C241.838 133.78 244.49 132.632 246.622 130.336C248.754 128.04 249.82 125.17 249.82 121.726L249.656 119.758V120.168C247.688 118.747 245.528 118.036 243.178 118.036C240.007 118.036 237.356 119.157 235.224 121.398C233.092 123.639 232.026 126.482 232.026 129.926L232.19 131.648L231.944 131.484C233.912 133.015 236.153 133.78 238.668 133.78Z" fill="#5DC27C"/>
<path d="M291.124 134.518V126.728H293.502C294.377 126.728 295.087 127.111 295.634 127.876C296.235 128.587 296.536 129.461 296.536 130.5C296.536 131.648 296.263 132.605 295.716 133.37C295.169 134.135 294.459 134.518 293.584 134.518H291.124ZM268.82 111.476L273.74 92.616H294.568L295.716 90.32H313.756L318.266 98.52L312.69 119.676H309.492C310.476 120.605 311.323 121.699 312.034 122.956L317.282 132.386C318.758 135.01 319.496 138.017 319.496 141.406C319.496 146.271 317.774 150.453 314.33 153.952C310.886 157.451 306.731 159.2 301.866 159.2H277.922L273.412 151V119.676L268.82 111.476Z" fill="#5DC27C"/>
<path d="M318.579 119.676L313.905 111.476L318.907 92.616H339.243L340.391 90.32H358.267L362.777 98.52L358.595 116.56L361.465 121.808L358.595 134.436L361.875 140.34L357.037 159.2H323.089L318.579 151V119.676Z" fill="#5DC27C"/>
<path d="M393.088 133.452H385.216L388.988 119.348L393.088 133.452ZM362.42 159.2L357.91 151L362.994 132.14H367.258L372.506 116.478L369.8 111.476L375.048 92.616H398.336L402.846 100.816L412.768 132.14H417.278L421.788 140.34L416.704 159.2H362.42Z" fill="#5DC27C"/>
<path d="M420.379 119.676L415.869 111.476L421.035 92.616H439.731L444.241 100.816V109.18L453.589 92.616H470.235L474.745 100.816V159.2H455.721L451.211 151V148.048L444.979 159.2H425.217L420.707 151V119.676H420.379Z" fill="#5DC27C"/>
<path d="M486.63 92.616H509.918L514.428 100.816L532.796 159.2H513.034L508.524 151L504.014 136.322L497.29 159.2H477.692L473.182 151L484.252 116.478L481.464 111.476L486.63 92.616Z" fill="#5DC27C"/>
<path d="M527.889 119.676L523.379 111.476L528.545 92.616H547.241L551.751 100.816V109.18L561.099 92.616H577.745L582.255 100.816V159.2H563.231L558.721 151V148.048L552.489 159.2H532.727L528.217 151V119.676H527.889Z" fill="#5DC27C"/>
<path d="M52.2608 3.928H6.34082L2.07682 20.164H6.34082V59.688H22.7408V20.164H35.8608V59.688H52.2608V3.928ZM0.354823 21.476L5.35682 2.616H53.5728L58.0828 10.816V69.2H39.0588L34.5488 61V29.676H28.5628V69.2H9.53882L5.02882 61V29.676L0.354823 21.476ZM88.2825 61.328C96.4279 61.328 103.398 58.4307 109.193 52.636C114.987 46.8413 117.885 39.8713 117.885 31.726C117.885 23.5807 114.987 16.638 109.193 10.898C103.398 5.158 96.4279 2.288 88.2825 2.288C80.1372 2.288 73.1672 5.158 67.3725 10.898C61.5779 16.638 58.6805 23.5807 58.6805 31.726C58.6805 39.8713 61.5779 46.8413 67.3725 52.636C73.1672 58.4307 80.1372 61.328 88.2825 61.328ZM88.2825 45.092C84.8385 45.092 81.8865 43.8073 79.4265 41.238C77.0212 38.614 75.8185 35.4433 75.8185 31.726C75.8185 28.0633 77.0212 24.9473 79.4265 22.378C81.8319 19.8087 84.7839 18.524 88.2825 18.524C91.7265 18.524 94.6512 19.836 97.0565 22.46C99.5165 25.0293 100.747 28.118 100.747 31.726C100.747 35.4433 99.5165 38.614 97.0565 41.238C94.6512 43.8073 91.7265 45.092 88.2825 45.092ZM92.7925 70.84C86.9979 70.84 81.6952 69.364 76.8845 66.412C72.1285 63.46 68.3839 59.4693 65.6505 54.44L61.3865 46.814C58.7079 42.1673 57.3685 37.138 57.3685 31.726C57.3685 23.3073 60.4025 16.0913 66.4705 10.078C72.5932 4.01 79.8639 0.975996 88.2825 0.975996C94.3505 0.975996 99.8992 2.616 104.929 5.896C110.013 9.176 113.812 13.522 116.327 18.934L120.099 25.576C121.083 27.2707 121.93 29.4847 122.641 32.218C123.351 34.8967 123.707 37.466 123.707 39.926C123.707 48.3993 120.673 55.67 114.605 61.738C108.537 67.806 101.266 70.84 92.7925 70.84ZM88.2825 43.78C91.4532 43.78 94.1045 42.632 96.2365 40.336C98.3685 38.04 99.4345 35.17 99.4345 31.726L99.2705 29.758V30.168C97.3025 28.7467 95.1432 28.036 92.7925 28.036C89.6219 28.036 86.9705 29.1567 84.8385 31.398C82.7065 33.6393 81.6405 36.482 81.6405 39.926L81.8045 41.648L81.5585 41.484C83.5265 43.0147 85.7679 43.78 88.2825 43.78ZM128.685 25.084L125.159 36.482H137.541C138.689 36.482 139.755 37.0013 140.739 38.04C141.723 39.0787 142.215 40.1173 142.215 41.156C142.215 42.304 141.832 43.2607 141.067 44.026C140.356 44.7367 139.235 45.092 137.705 45.092C135.846 45.092 133.659 44.682 131.145 43.862C129.45 43.3153 127.482 42.55 125.241 41.566L120.977 56.736C123.546 58.048 126.607 59.1413 130.161 60.016C133.769 60.8907 137.185 61.328 140.411 61.328C145.549 61.328 149.95 59.852 153.613 56.9C157.549 53.7293 159.517 49.7113 159.517 44.846C159.517 41.3473 158.724 38.1767 157.139 35.334C155.389 32.218 153.011 30.2773 150.005 29.512C152.41 28.5827 154.241 26.9973 155.499 24.756C156.756 22.46 157.385 19.8633 157.385 16.966C157.385 12.2647 155.417 8.54733 151.481 5.814C148.091 3.46333 144.019 2.288 139.263 2.288C137.677 2.288 135.846 2.452 133.769 2.78C131.691 3.108 129.805 3.49066 128.111 3.928L124.011 20.82C125.596 20.2187 127.728 19.6993 130.407 19.262C133.14 18.77 135.135 18.524 136.393 18.524C137.595 18.524 138.552 18.8793 139.263 19.59C140.028 20.246 140.411 21.0387 140.411 21.968C140.411 22.788 140.028 23.526 139.263 24.182C138.497 24.7833 137.568 25.084 136.475 25.084H128.685ZM123.437 37.794L126.225 28.61L122.125 22.87L127.045 2.862C129.286 2.26066 131.445 1.796 133.523 1.468C135.6 1.14 137.513 0.975996 139.263 0.975996C142.816 0.975996 146.26 1.76866 149.595 3.354C152.984 4.88467 155.471 7.126 157.057 10.078L161.321 17.786C161.813 18.7153 162.25 19.8633 162.633 21.23C163.015 22.5967 163.207 23.9087 163.207 25.166C163.207 30.0313 161.84 33.776 159.107 36.4L162.715 42.714C164.464 45.7753 165.339 49.2193 165.339 53.046C165.339 58.1847 163.261 62.4213 159.107 65.756C155.007 69.1453 150.278 70.84 144.921 70.84C141.586 70.84 138.033 70.3753 134.261 69.446C130.543 68.5167 127.099 67.232 123.929 65.592L119.419 57.392L124.339 40.09L123.437 37.794ZM202.478 3.928H181.158L176.648 20.164H181.158L173.368 43.452H169.104L164.758 59.688H216.336L220.682 43.452H215.024L202.478 3.928ZM198.214 43.452H190.342L194.114 29.348L198.214 43.452ZM167.546 69.2L163.036 61L168.12 42.14H172.384L177.632 26.478L174.926 21.476L180.174 2.616H203.462L207.972 10.816L217.894 42.14H222.404L226.914 50.34L221.83 69.2H167.546ZM226.9 20.164V59.688H243.3V47.47H247.236C253.632 47.47 258.716 45.4747 262.488 41.484C266.314 37.4387 268.228 32.4093 268.228 26.396C268.228 20.164 266.533 14.998 263.144 10.898C259.317 6.25133 253.96 3.928 247.072 3.928H226.9L222.636 20.164H226.9ZM243.3 32.3V20.164H246.416C248.001 20.164 249.231 20.82 250.106 22.132C250.98 23.3893 251.418 24.8107 251.418 26.396C251.418 28.1453 251.062 29.512 250.352 30.496C249.477 31.6987 248.11 32.3 246.252 32.3H243.3ZM220.914 21.476L225.916 2.616H247.072C251.992 2.616 256.228 3.90067 259.782 6.47C262.734 8.602 265.303 11.6633 267.49 15.654L270.278 20.738C271.426 22.8153 272.328 25.084 272.984 27.544C273.694 30.004 274.05 32.3547 274.05 34.596C274.05 40.828 272 46.1307 267.9 50.504C263.854 54.8227 258.47 56.982 251.746 56.982H249.122V69.2H230.098L225.588 61V29.676L220.914 21.476ZM306.535 3.928H279.393L274.965 20.164H279.393L268.405 59.688H285.953L287.757 52.308H302.845L304.813 59.688H322.935L306.535 3.928ZM290.463 37.876L294.973 20.164L299.729 37.876H290.463ZM278.409 2.616H307.519L312.029 10.816L329.167 69.2H308.339L304.321 61.82H293.333L291.529 69.2H271.193L266.683 61L276.195 26.888L273.243 21.476L278.409 2.616ZM326.565 20.164V59.688H351.985C357.014 59.688 361.114 58.2667 364.285 55.424C367.51 52.5267 369.123 48.8913 369.123 44.518C369.123 41.1833 368.385 38.2587 366.909 35.744C365.433 33.2293 363.137 31.398 360.021 30.25C362.481 29.3207 364.394 27.79 365.761 25.658C367.128 23.526 367.811 21.1207 367.811 18.442C367.811 14.506 366.39 11.144 363.547 8.356C360.54 5.404 356.686 3.928 351.985 3.928H326.565L322.301 20.164H326.565ZM342.965 26.724V20.164H347.475C350.154 20.164 351.493 21.2573 351.493 23.444C351.493 24.428 351.22 25.2207 350.673 25.822C350.126 26.4233 349.252 26.724 348.049 26.724H342.965ZM342.965 44.518V36.564H347.311C348.951 36.564 350.126 36.9193 350.837 37.63C351.602 38.286 351.985 39.2427 351.985 40.5C351.985 41.7573 351.63 42.7413 350.919 43.452C350.208 44.1627 349.006 44.518 347.311 44.518H342.965ZM320.579 21.476L325.581 2.616H351.985C355.429 2.616 358.545 3.46333 361.333 5.158C363.848 6.68866 365.816 8.73866 367.237 11.308L372.321 20.574C372.758 21.3393 373.086 22.296 373.305 23.444C373.524 24.5373 373.633 25.6033 373.633 26.642C373.633 28.8287 373.196 30.906 372.321 32.874C371.501 34.842 370.435 36.3727 369.123 37.466L373.387 45.01C373.988 45.994 374.398 47.142 374.617 48.454C374.836 49.7113 374.945 51.1327 374.945 52.718C374.945 57.3647 373.196 61.2733 369.697 64.444C366.198 67.6147 361.798 69.2 356.495 69.2H329.763L325.253 61V29.676L320.579 21.476ZM407.781 3.928H386.461L382.033 20.164H386.461L373.833 59.688H390.643L399.253 30.578L408.355 59.688H425.329L407.781 3.928ZM385.477 2.616H408.765L413.275 10.816L431.643 69.2H411.881L407.371 61L402.861 46.322L396.137 69.2H376.539L372.029 61L383.099 26.478L380.311 21.476L385.477 2.616ZM472.492 59.688V3.928H448.958C443.382 3.928 438.653 6.00533 434.772 10.16C430.89 14.3147 428.95 19.344 428.95 25.248C428.95 28.4187 429.852 31.6987 431.656 35.088C433.46 38.4773 435.756 40.9373 438.544 42.468L428.95 59.688H448.712L455.764 44.436H456.092V59.688H472.492ZM456.092 20.164V29.84H450.926C449.559 29.84 448.356 29.4027 447.318 28.528C446.334 27.5987 445.842 26.5053 445.842 25.248C445.842 23.8267 446.334 22.624 447.318 21.64C448.302 20.656 449.504 20.164 450.926 20.164H456.092ZM478.314 10.816V69.2H459.29L456.42 64.034L454.042 69.2H431.246L426.736 61L435.592 45.092L430.098 35.088C428.458 31.6987 427.638 28.4187 427.638 25.248C427.638 19.0707 429.715 13.768 433.87 9.34C438.079 4.85733 443.108 2.616 448.958 2.616H473.804L478.314 10.816ZM483.308 20.164V59.688H499.544V40.008H503.234C505.038 46.24 508.564 51.3513 513.812 55.342C519.06 59.3327 525.046 61.328 531.77 61.328C539.915 61.328 546.885 58.4307 552.68 52.636C558.475 46.8413 561.372 39.8713 561.372 31.726C561.372 23.5807 558.475 16.638 552.68 10.898C546.885 5.158 539.915 2.288 531.77 2.288C525.647 2.288 519.825 4.338 514.304 8.438C508.783 12.538 505.147 17.4853 503.398 23.28H499.544V3.928H483.308L478.798 20.164H483.308ZM544.234 31.726C544.234 35.4433 543.031 38.614 540.626 41.238C538.221 43.862 535.269 45.174 531.77 45.174C528.326 45.174 525.374 43.862 522.914 41.238C520.454 38.614 519.224 35.4433 519.224 31.726C519.224 28.0633 520.454 24.9473 522.914 22.378C525.374 19.8087 528.326 18.524 531.77 18.524C535.214 18.524 538.139 19.836 540.544 22.46C543.004 25.0293 544.234 28.118 544.234 31.726ZM481.586 29.676L477.076 21.476L482.324 2.616H500.856L505.366 10.816V15.818C508.209 11.4993 512.035 7.946 516.846 5.158C521.711 2.37 526.686 0.975996 531.77 0.975996C536.854 0.975996 541.938 2.39733 547.022 5.24C552.161 8.08267 555.933 11.718 558.338 16.146L563.668 25.822C564.707 27.626 565.554 29.8947 566.21 32.628C566.866 35.3613 567.194 37.794 567.194 39.926C567.194 48.3993 564.16 55.67 558.092 61.738C552.024 67.806 544.753 70.84 536.28 70.84C529.665 70.84 523.679 68.9267 518.322 65.1C512.965 61.328 509.275 56.5447 507.252 50.75L506.924 50.34L506.268 49.52H505.366V69.2H486.506L481.996 61V29.676H481.586ZM542.922 31.726L542.758 30.168C540.79 28.7467 538.658 28.036 536.362 28.036C533.082 28.036 530.349 29.184 528.162 31.48C526.03 33.7213 524.964 36.564 524.964 40.008L525.128 41.566C526.057 42.2767 527.096 42.8507 528.244 43.288C529.392 43.6707 530.567 43.862 531.77 43.862C534.941 43.862 537.592 42.714 539.724 40.418C541.856 38.122 542.922 35.2247 542.922 31.726ZM572.874 59.688C572.6 60.8907 572.245 61.9293 571.808 62.804C571.425 63.7333 570.796 64.7447 569.922 65.838C573.475 65.838 576.7 64.3893 579.598 61.492C582.55 58.6493 584.026 55.342 584.026 51.57C584.026 49.1647 583.178 47.1147 581.484 45.42C579.844 43.6707 577.766 42.796 575.252 42.796C572.792 42.796 570.742 43.6433 569.102 45.338C567.462 47.0327 566.642 49.11 566.642 51.57C566.642 53.8113 567.27 55.67 568.528 57.146C569.621 58.4033 571.07 59.2507 572.874 59.688ZM571.726 75.35L567.216 67.15C567.489 66.822 568.118 66.002 569.102 64.69C569.758 63.8153 570.168 63.2413 570.332 62.968L566.642 56.654C565.767 55.1233 565.33 53.4287 565.33 51.57C565.33 48.8367 566.286 46.486 568.2 44.518C570.168 42.4953 572.518 41.484 575.252 41.484C577.384 41.484 579.324 42.1673 581.074 43.534C582.604 44.7367 583.916 46.3493 585.01 48.372L588.7 55.26C589.465 56.6813 589.848 58.1847 589.848 59.77C589.848 64.198 588.317 67.8333 585.256 70.676C581.921 73.792 577.411 75.35 571.726 75.35ZM11.2124 110.164V149.688H36.6324C41.6618 149.688 45.7618 148.267 48.9324 145.424C52.1578 142.527 53.7704 138.891 53.7704 134.518C53.7704 131.183 53.0324 128.259 51.5564 125.744C50.0804 123.229 47.7844 121.398 44.6684 120.25C47.1284 119.321 49.0418 117.79 50.4084 115.658C51.7751 113.526 52.4584 111.121 52.4584 108.442C52.4584 104.506 51.0371 101.144 48.1944 98.356C45.1878 95.404 41.3338 93.928 36.6324 93.928H11.2124L6.94844 110.164H11.2124ZM27.6124 116.724V110.164H32.1224C34.8011 110.164 36.1404 111.257 36.1404 113.444C36.1404 114.428 35.8671 115.221 35.3204 115.822C34.7738 116.423 33.8991 116.724 32.6964 116.724H27.6124ZM27.6124 134.518V126.564H31.9584C33.5984 126.564 34.7738 126.919 35.4844 127.63C36.2498 128.286 36.6324 129.243 36.6324 130.5C36.6324 131.757 36.2771 132.741 35.5664 133.452C34.8558 134.163 33.6531 134.518 31.9584 134.518H27.6124ZM5.22644 111.476L10.2284 92.616H36.6324C40.0764 92.616 43.1924 93.4633 45.9804 95.158C48.4951 96.6887 50.4631 98.7387 51.8844 101.308L56.9684 110.574C57.4058 111.339 57.7338 112.296 57.9524 113.444C58.1711 114.537 58.2804 115.603 58.2804 116.642C58.2804 118.829 57.8431 120.906 56.9684 122.874C56.1484 124.842 55.0824 126.373 53.7704 127.466L58.0344 135.01C58.6358 135.994 59.0458 137.142 59.2644 138.454C59.4831 139.711 59.5924 141.133 59.5924 142.718C59.5924 147.365 57.8431 151.273 54.3444 154.444C50.8458 157.615 46.4451 159.2 41.1424 159.2H14.4104L9.90044 151V119.676L5.22644 111.476ZM77.5863 93.928H61.1863L56.9223 110.164H61.1863V149.688H81.9323C87.6176 149.688 92.483 147.583 96.5283 143.374C100.574 139.165 102.596 134.081 102.596 128.122C102.596 121.726 100.546 116.287 96.4463 111.804C92.401 107.267 87.481 104.998 81.6863 104.998H77.5863V93.928ZM77.5863 133.452V121.234H80.0463C81.5223 121.234 82.7796 121.835 83.8183 123.038C84.9116 124.186 85.4583 125.553 85.4583 127.138C85.4583 128.942 84.939 130.445 83.9003 131.648C82.8616 132.851 81.577 133.452 80.0463 133.452H77.5863ZM123.588 93.928H107.188L102.76 110.164H107.188V149.688H123.588V93.928ZM55.2003 111.476L60.2023 92.616H78.8983L83.4083 100.816V103.768C87.1803 104.151 90.6243 105.49 93.7403 107.786C96.911 110.082 99.3983 113.034 101.202 116.642L105.876 125.17V119.676H105.548L101.038 111.476L106.204 92.616H124.9L129.41 100.816V159.2H110.386L105.876 151V146.818C104.018 150.535 101.339 153.515 97.8403 155.756C94.3963 158.052 90.597 159.2 86.4423 159.2H64.3843L59.8743 151V119.676L55.2003 111.476ZM83.0803 103.768L82.6703 103.686L83.0803 103.768ZM202.646 93.928H156.726L152.462 110.164H156.726V149.688H173.126V110.164H186.246V149.688H202.646V93.928ZM150.74 111.476L155.742 92.616H203.958L208.468 100.816V159.2H189.444L184.934 151V119.676H178.948V159.2H159.924L155.414 151V119.676L150.74 111.476ZM238.668 151.328C246.813 151.328 253.783 148.431 259.578 142.636C265.372 136.841 268.27 129.871 268.27 121.726C268.27 113.581 265.372 106.638 259.578 100.898C253.783 95.158 246.813 92.288 238.668 92.288C230.522 92.288 223.552 95.158 217.758 100.898C211.963 106.638 209.066 113.581 209.066 121.726C209.066 129.871 211.963 136.841 217.758 142.636C223.552 148.431 230.522 151.328 238.668 151.328ZM238.668 135.092C235.224 135.092 232.272 133.807 229.812 131.238C227.406 128.614 226.204 125.443 226.204 121.726C226.204 118.063 227.406 114.947 229.812 112.378C232.217 109.809 235.169 108.524 238.668 108.524C242.112 108.524 245.036 109.836 247.442 112.46C249.902 115.029 251.132 118.118 251.132 121.726C251.132 125.443 249.902 128.614 247.442 131.238C245.036 133.807 242.112 135.092 238.668 135.092ZM243.178 160.84C237.383 160.84 232.08 159.364 227.27 156.412C222.514 153.46 218.769 149.469 216.036 144.44L211.772 136.814C209.093 132.167 207.754 127.138 207.754 121.726C207.754 113.307 210.788 106.091 216.856 100.078C222.978 94.01 230.249 90.976 238.668 90.976C244.736 90.976 250.284 92.616 255.314 95.896C260.398 99.176 264.197 103.522 266.712 108.934L270.484 115.576C271.468 117.271 272.315 119.485 273.026 122.218C273.736 124.897 274.092 127.466 274.092 129.926C274.092 138.399 271.058 145.67 264.99 151.738C258.922 157.806 251.651 160.84 243.178 160.84ZM238.668 133.78C241.838 133.78 244.49 132.632 246.622 130.336C248.754 128.04 249.82 125.17 249.82 121.726L249.656 119.758V120.168C247.688 118.747 245.528 118.036 243.178 118.036C240.007 118.036 237.356 119.157 235.224 121.398C233.092 123.639 232.026 126.482 232.026 129.926L232.19 131.648L231.944 131.484C233.912 133.015 236.153 133.78 238.668 133.78ZM274.724 110.164V149.688H297.356C301.893 149.688 305.747 148.075 308.918 144.85C312.089 141.625 313.674 137.743 313.674 133.206C313.674 128.395 312.061 124.268 308.836 120.824C305.611 117.38 301.702 115.658 297.11 115.658H291.124V110.164H307.196L312.034 91.632H296.536L295.388 93.928H274.724L270.542 110.164H274.724ZM291.124 134.518V126.728H293.502C294.377 126.728 295.087 127.111 295.634 127.876C296.235 128.587 296.536 129.461 296.536 130.5C296.536 131.648 296.263 132.605 295.716 133.37C295.169 134.135 294.459 134.518 293.584 134.518H291.124ZM268.82 111.476L273.74 92.616H294.568L295.716 90.32H313.756L318.266 98.52L312.69 119.676H309.492C310.476 120.605 311.323 121.699 312.034 122.956L317.282 132.386C318.758 135.01 319.496 138.017 319.496 141.406C319.496 146.271 317.774 150.453 314.33 153.952C310.886 157.451 306.731 159.2 301.866 159.2H277.922L273.412 151V119.676L268.82 111.476ZM319.891 110.164V149.688H351.543L355.643 133.452H336.291V128.204H352.281L355.315 114.92H336.291V110.164H352.281L356.627 91.632H341.211L340.063 93.928H319.891L315.627 110.164H319.891ZM318.579 119.676L313.905 111.476L318.907 92.616H339.243L340.391 90.32H358.267L362.777 98.52L358.595 116.56L361.465 121.808L358.595 134.436L361.875 140.34L357.037 159.2H323.089L318.579 151V119.676ZM397.352 93.928H376.032L371.522 110.164H376.032L368.242 133.452H363.978L359.632 149.688H411.21L415.556 133.452H409.898L397.352 93.928ZM393.088 133.452H385.216L388.988 119.348L393.088 133.452ZM362.42 159.2L357.91 151L362.994 132.14H367.258L372.506 116.478L369.8 111.476L375.048 92.616H398.336L402.846 100.816L412.768 132.14H417.278L421.788 140.34L416.704 159.2H362.42ZM438.419 93.928H422.019L417.591 110.164H422.019V149.688H439.731L452.359 127.138L452.523 149.688H468.923V93.928H454.327L438.583 121.726L438.419 93.928ZM420.379 119.676L415.869 111.476L421.035 92.616H439.731L444.241 100.816V109.18L453.589 92.616H470.235L474.745 100.816V159.2H455.721L451.211 151V148.048L444.979 159.2H425.217L420.707 151V119.676H420.379ZM508.934 93.928H487.614L483.186 110.164H487.614L474.986 149.688H491.796L500.406 120.578L509.508 149.688H526.482L508.934 93.928ZM486.63 92.616H509.918L514.428 100.816L532.796 159.2H513.034L508.524 151L504.014 136.322L497.29 159.2H477.692L473.182 151L484.252 116.478L481.464 111.476L486.63 92.616ZM545.929 93.928H529.529L525.101 110.164H529.529V149.688H547.241L559.869 127.138L560.033 149.688H576.433V93.928H561.837L546.093 121.726L545.929 93.928ZM527.889 119.676L523.379 111.476L528.545 92.616H547.241L551.751 100.816V109.18L561.099 92.616H577.745L582.255 100.816V159.2H563.231L558.721 151V148.048L552.489 159.2H532.727L528.217 151V119.676H527.889Z" fill="#1D1E19"/>
<path d="M96.2366 40.336C94.1046 42.632 91.4533 43.78 88.2826 43.78C85.7679 43.78 83.5266 43.0147 81.5586 41.484L81.8046 41.648L81.6406 39.926C81.6406 36.482 82.7066 33.6393 84.8386 31.398C86.9706 29.1567 89.6219 28.036 92.7926 28.036C95.1433 28.036 97.3026 28.7467 99.2706 30.168V29.758L99.4346 31.726C99.4346 35.17 98.3686 38.04 96.2366 40.336Z" fill="#FFE1BB"/>
<path d="M246.622 130.336C244.49 132.632 241.839 133.78 238.668 133.78C236.153 133.78 233.912 133.015 231.944 131.484L232.19 131.648L232.026 129.926C232.026 126.482 233.092 123.639 235.224 121.398C237.356 119.157 240.007 118.036 243.178 118.036C245.529 118.036 247.688 118.747 249.656 120.168V119.758L249.82 121.726C249.82 125.17 248.754 128.04 246.622 130.336Z" fill="#FFE1BB"/>
<path d="M542.758 30.168L542.922 31.726C542.922 35.2247 541.856 38.122 539.724 40.418C537.592 42.714 534.941 43.862 531.77 43.862C530.567 43.862 529.392 43.6707 528.244 43.288C527.096 42.8507 526.057 42.2767 525.128 41.566L524.964 40.008C524.964 36.564 526.03 33.7213 528.162 31.48C530.349 29.184 533.082 28.036 536.362 28.036C538.658 28.036 540.79 28.7467 542.758 30.168Z" fill="#FFE1BB"/>
</svg>
