<svg width="422" height="72" viewBox="0 0 422 72" fill="none" xmlns="http://www.w3.org/2000/svg">
<g clip-path="url(#clip0_271_121)">
<path d="M0.52832 20.5842L5.89632 0.344238H57.6403L62.4803 9.14424V71.8002H42.0643L37.2243 63.0002V29.3842H30.8003V71.8002H10.3843L5.54432 63.0002V29.3842L0.52832 20.5842Z" fill="#5DC27C"/>
<path d="M85.7378 32.2002V19.1762H89.0818C90.7831 19.1762 92.1031 19.8802 93.0418 21.2882C93.9804 22.6376 94.4498 24.1629 94.4498 25.8642C94.4498 27.7416 94.0684 29.2082 93.3058 30.2642C92.3671 31.5549 90.9004 32.2002 88.9058 32.2002H85.7378ZM61.7138 20.5842L67.0818 0.344238H89.7858C95.0658 0.344238 99.6124 1.7229 103.426 4.48024C106.594 6.76824 109.351 10.0536 111.698 14.3362L114.69 19.7922C115.922 22.0216 116.89 24.4562 117.594 27.0962C118.356 29.7362 118.738 32.2589 118.738 34.6642C118.738 41.3522 116.538 47.0429 112.138 51.7362C107.796 56.3709 102.018 58.6882 94.8018 58.6882H91.9858V71.8002H71.5698L66.7298 63.0002V29.3842L61.7138 20.5842Z" fill="#5DC27C"/>
<path d="M140.752 38.1842L145.592 19.1762L150.696 38.1842H140.752ZM127.816 0.344238H159.056L163.896 9.14424L182.288 71.8002H159.936L155.624 63.8802H143.832L141.896 71.8002H120.072L115.232 63.0002L125.44 26.3922L122.272 20.5842L127.816 0.344238Z" fill="#5DC27C"/>
<path d="M201.496 26.2162V19.1762H206.336C209.21 19.1762 210.648 20.3496 210.648 22.6962C210.648 23.7522 210.354 24.6029 209.768 25.2482C209.181 25.8936 208.242 26.2162 206.952 26.2162H201.496ZM201.496 45.3122V36.7762H206.16C207.92 36.7762 209.181 37.1576 209.944 37.9202C210.765 38.6242 211.176 39.6509 211.176 41.0002C211.176 42.3496 210.794 43.4056 210.032 44.1682C209.269 44.9309 207.978 45.3122 206.16 45.3122H201.496ZM177.472 20.5842L182.84 0.344238H211.176C214.872 0.344238 218.216 1.25357 221.208 3.07223C223.906 4.7149 226.018 6.9149 227.544 9.67224L233 19.6162C233.469 20.4376 233.821 21.4642 234.056 22.6962C234.29 23.8696 234.408 25.0136 234.408 26.1282C234.408 28.4749 233.938 30.7042 233 32.8162C232.12 34.9282 230.976 36.5709 229.568 37.7442L234.144 45.8402C234.789 46.8962 235.229 48.1282 235.464 49.5362C235.698 50.8856 235.816 52.4109 235.816 54.1122C235.816 59.0989 233.938 63.2936 230.184 66.6962C226.429 70.0989 221.706 71.8002 216.016 71.8002H187.328L182.488 63.0002V29.3842L177.472 20.5842Z" fill="#5DC27C"/>
<path d="M239.462 29.3842L234.622 20.5842L240.166 0.344238H260.23L265.07 9.14424V18.1202L275.102 0.344238H292.966L297.806 9.14424V71.8002H277.39L272.55 63.0002V59.8322L265.862 71.8002H244.654L239.814 63.0002V29.3842H239.462Z" fill="#5DC27C"/>
<path d="M310.561 0.344238H335.553L340.393 9.14424L360.105 71.8002H338.897L334.057 63.0002L329.217 47.2482L322.001 71.8002H300.969L296.129 63.0002L308.009 25.9522L305.017 20.5842L310.561 0.344238Z" fill="#5DC27C"/>
<path d="M379.83 38.1842L384.67 19.1762L389.774 38.1842H379.83ZM366.894 0.344238H398.134L402.974 9.14424L421.366 71.8002H399.014L394.702 63.8802H382.91L380.974 71.8002H359.15L354.31 63.0002L364.518 26.3922L361.35 20.5842L366.894 0.344238Z" fill="#5DC27C"/>
<path d="M56.232 1.752H6.952L2.376 19.176H6.952V61.592H24.552V19.176H38.632V61.592H56.232V1.752ZM0.528 20.584L5.896 0.343999H57.64L62.48 9.144V71.8H42.064L37.224 63V29.384H30.8V71.8H10.384L5.544 63V29.384L0.528 20.584ZM68.1374 19.176V61.592H85.7374V48.48H89.9614C96.8254 48.48 102.281 46.3387 106.329 42.056C110.436 37.7147 112.489 32.3173 112.489 25.864C112.489 19.176 110.671 13.632 107.033 9.232C102.927 4.24533 97.1774 1.752 89.7854 1.752H68.1374L63.5614 19.176H68.1374ZM85.7374 32.2V19.176H89.0814C90.7828 19.176 92.1028 19.88 93.0414 21.288C93.9801 22.6373 94.4494 24.1627 94.4494 25.864C94.4494 27.7413 94.0681 29.208 93.3054 30.264C92.3668 31.5547 90.9001 32.2 88.9054 32.2H85.7374ZM61.7134 20.584L67.0814 0.343999H89.7854C95.0654 0.343999 99.6121 1.72267 103.425 4.48C106.593 6.768 109.351 10.0533 111.697 14.336L114.689 19.792C115.921 22.0213 116.889 24.456 117.593 27.096C118.356 29.736 118.737 32.2587 118.737 34.664C118.737 41.352 116.537 47.0427 112.137 51.736C107.796 56.3707 102.017 58.688 94.8014 58.688H91.9854V71.8H71.5694L66.7294 63V29.384L61.7134 20.584ZM158 1.752H128.872L124.12 19.176H128.872L117.08 61.592H135.912L137.848 53.672H154.04L156.152 61.592H175.6L158 1.752ZM140.752 38.184L145.592 19.176L150.696 38.184H140.752ZM127.816 0.343999H159.056L163.896 9.144L182.288 71.8H159.936L155.624 63.88H143.832L141.896 71.8H120.072L115.232 63L125.44 26.392L122.272 20.584L127.816 0.343999ZM183.895 19.176V61.592H211.175C216.573 61.592 220.973 60.0667 224.375 57.016C227.837 53.9067 229.567 50.0053 229.567 45.312C229.567 41.7333 228.775 38.5947 227.191 35.896C225.607 33.1973 223.143 31.232 219.799 30C222.439 29.0027 224.493 27.36 225.959 25.072C227.426 22.784 228.159 20.2027 228.159 17.328C228.159 13.104 226.634 9.496 223.583 6.504C220.357 3.336 216.221 1.752 211.175 1.752H183.895L179.319 19.176H183.895ZM201.495 26.216V19.176H206.335C209.21 19.176 210.647 20.3493 210.647 22.696C210.647 23.752 210.354 24.6027 209.767 25.248C209.181 25.8933 208.242 26.216 206.951 26.216H201.495ZM201.495 45.312V36.776H206.159C207.919 36.776 209.181 37.1573 209.943 37.92C210.765 38.624 211.175 39.6507 211.175 41C211.175 42.3493 210.794 43.4053 210.031 44.168C209.269 44.9307 207.978 45.312 206.159 45.312H201.495ZM177.471 20.584L182.839 0.343999H211.175C214.871 0.343999 218.215 1.25333 221.207 3.072C223.906 4.71466 226.018 6.91466 227.543 9.672L232.999 19.616C233.469 20.4373 233.821 21.464 234.055 22.696C234.29 23.8693 234.407 25.0133 234.407 26.128C234.407 28.4747 233.938 30.704 232.999 32.816C232.119 34.928 230.975 36.5707 229.567 37.744L234.143 45.84C234.789 46.896 235.229 48.128 235.463 49.536C235.698 50.8853 235.815 52.4107 235.815 54.112C235.815 59.0987 233.938 63.2933 230.183 66.696C226.429 70.0987 221.706 71.8 216.015 71.8H187.327L182.487 63V29.384L177.471 20.584ZM258.822 1.752H241.222L236.47 19.176H241.222V61.592H260.23L273.782 37.392L273.958 61.592H291.558V1.752H275.894L258.998 31.584L258.822 1.752ZM239.462 29.384L234.622 20.584L240.166 0.343999H260.23L265.07 9.144V18.12L275.102 0.343999H292.966L297.806 9.144V71.8H277.39L272.55 63V59.832L265.862 71.8H244.654L239.814 63V29.384H239.462ZM334.496 1.752H311.616L306.864 19.176H311.616L298.064 61.592H316.104L325.344 30.352L335.112 61.592H353.328L334.496 1.752ZM310.56 0.343999H335.552L340.392 9.144L360.104 71.8H338.896L334.056 63L329.216 47.248L322 71.8H300.968L296.128 63L308.008 25.952L305.016 20.584L310.56 0.343999ZM397.078 1.752H367.95L363.198 19.176H367.95L356.158 61.592H374.99L376.926 53.672H393.118L395.23 61.592H414.678L397.078 1.752ZM379.83 38.184L384.67 19.176L389.774 38.184H379.83ZM366.894 0.343999H398.134L402.974 9.144L421.366 71.8H399.014L394.702 63.88H382.91L380.974 71.8H359.15L354.31 63L364.518 26.392L361.35 20.584L366.894 0.343999Z" fill="#1D1E19"/>
</g>
<defs>
<clipPath id="clip0_271_121">
<rect width="422" height="72" fill="white"/>
</clipPath>
</defs>
</svg>
