<svg width="587" height="88" viewBox="0 0 587 88" fill="none" xmlns="http://www.w3.org/2000/svg">
<path d="M0.439941 36.5839L5.89594 16.3439H25.9599L30.7999 25.1439V36.5839H37.1359V16.3439H57.5519L62.3919 25.1439V87.7999H41.9759L37.1359 78.9999V65.7119H30.7999V87.7999H10.3839L5.54394 78.9999V45.3839L0.439941 36.5839Z" fill="#5DC27C"/>
<path d="M86.1609 54.1839L91.0009 35.1759L96.1049 54.1839H86.1609ZM73.2249 16.3439H104.465L109.305 25.1439L127.697 87.7999H105.345L101.033 79.8799H89.2409L87.3049 87.7999H65.4809L60.6409 78.9999L70.8489 42.3919L67.6809 36.5839L73.2249 16.3439Z" fill="#5DC27C"/>
<path d="M138.896 15.9039L134.056 7.10386L140.744 0.151855C142.328 2.02919 143.912 3.34919 145.496 4.11186C147.08 4.87452 148.723 5.25585 150.424 5.25585C152.184 5.25585 153.827 4.87452 155.352 4.11186C156.878 3.34919 158.432 2.02919 160.016 0.151855L166.968 7.10386L171.808 15.9039L171.544 16.3439H176.912L181.752 25.1439V87.7999H161.336L156.496 78.9999V75.8319L149.808 87.7999H128.6L123.76 78.9999V45.3839H123.408L118.568 36.5839L124.112 16.3439H139.248L138.896 15.9039ZM149.016 25.1439V34.1199L154.736 23.9119C152.39 23.9119 150.014 23.4719 147.608 22.5919L149.016 25.1439Z" fill="#5DC27C"/>
<path d="M217.915 60.1679H209.467L213.515 45.0319L217.915 60.1679ZM185.003 87.7999L180.163 78.9999L185.619 58.7599H190.195L195.827 41.9519L192.923 36.5839L198.555 16.3439H223.547L228.387 25.1439L239.035 58.7599H243.875L248.715 67.5599L243.259 87.7999H185.003Z" fill="#5DC27C"/>
<path d="M247.203 45.3839L242.363 36.5839L247.907 16.3439H267.971L272.811 25.1439V34.1199L282.843 16.3439H300.707L305.547 25.1439V87.7999H285.131L280.291 78.9999V75.8319L273.603 87.7999H252.395L247.555 78.9999V45.3839H247.203Z" fill="#5DC27C"/>
<path d="M336.98 36.5839L342.348 16.3439H394.092L398.932 25.1439V87.7999H378.516L373.676 78.9999V45.3839H367.252V87.7999H346.836L341.996 78.9999V45.3839L336.98 36.5839Z" fill="#5DC27C"/>
<path d="M422.806 54.1839L427.646 35.1759L432.75 54.1839H422.806ZM409.87 16.3439H441.11L445.95 25.1439L464.342 87.7999H441.99L437.678 79.8799H425.886L423.95 87.7999H402.126L397.286 78.9999L407.494 42.3919L404.326 36.5839L409.87 16.3439Z" fill="#5DC27C"/>
<path d="M480.029 48.1999V35.1759H483.373C485.074 35.1759 486.394 35.8799 487.333 37.2879C488.272 38.6372 488.741 40.1625 488.741 41.8639C488.741 43.7412 488.36 45.2079 487.597 46.2639C486.658 47.5545 485.192 48.1999 483.197 48.1999H480.029ZM456.005 36.5839L461.373 16.3439H484.077C489.357 16.3439 493.904 17.7225 497.717 20.4799C500.885 22.7679 503.642 26.0532 505.989 30.3359L508.981 35.7919C510.213 38.0212 511.181 40.4559 511.885 43.0959C512.648 45.7359 513.029 48.2585 513.029 50.6639C513.029 57.3519 510.829 63.0425 506.429 67.7359C502.088 72.3705 496.309 74.6879 489.093 74.6879H486.277V87.7999H465.861L461.021 78.9999V45.3839L456.005 36.5839Z" fill="#5DC27C"/>
<path d="M530.995 60.1679V47.0559H533.635C535.219 47.0559 536.569 47.7012 537.683 48.9919C538.857 50.2239 539.443 51.6905 539.443 53.3919C539.443 55.3279 538.886 56.9412 537.771 58.2319C536.657 59.5225 535.278 60.1679 533.635 60.1679H530.995ZM506.971 36.5839L512.339 16.3439H532.403L537.243 25.1439V28.3119C541.291 28.7225 544.987 30.1599 548.331 32.6239C551.734 35.0879 554.403 38.2559 556.339 42.1279L561.355 51.2799V45.3839H561.003L556.163 36.5839L561.707 16.3439H581.771L586.611 25.1439V87.7999H566.195L561.355 78.9999V74.5119C559.361 78.5012 556.486 81.6985 552.731 84.1039C549.035 86.5679 544.958 87.7999 540.499 87.7999H516.827L511.987 78.9999V45.3839L506.971 36.5839Z" fill="#5DC27C"/>
<path d="M24.552 17.752H6.952L2.288 35.176H6.952V77.592H24.552V55.504H38.544V77.592H56.144V17.752H38.544V37.992H24.552V17.752ZM0.44 36.584L5.896 16.344H25.96L30.8 25.144V36.584H37.136V16.344H57.552L62.392 25.144V87.8H41.976L37.136 79V65.712H30.8V87.8H10.384L5.544 79V45.384L0.44 36.584ZM103.409 17.752H74.2809L69.5289 35.176H74.2809L62.4889 77.592H81.3209L83.2569 69.672H99.4489L101.561 77.592H121.009L103.409 17.752ZM86.1609 54.184L91.0009 35.176L96.1049 54.184H86.1609ZM73.2249 16.344H104.465L109.305 25.144L127.697 87.8H105.345L101.033 79.88H89.2409L87.3049 87.8H65.4809L60.6409 79L70.8489 42.392L67.6809 36.584L73.2249 16.344ZM140.656 2.264L135.904 7.192C137.606 9.53866 139.718 11.2107 142.24 12.208C144.763 13.2053 147.491 13.704 150.424 13.704C153.299 13.704 155.939 13.2933 158.344 12.472C160.75 11.592 162.92 10.096 164.856 7.984L165.208 7.368L160.104 2.264C158.872 3.73066 157.406 4.84533 155.704 5.608C154.062 6.312 152.302 6.664 150.424 6.664C148.488 6.664 146.699 6.34133 145.056 5.69599C143.472 4.992 142.006 3.848 140.656 2.264ZM138.896 15.904L134.056 7.104L140.744 0.151998C142.328 2.02933 143.912 3.34933 145.496 4.112C147.08 4.87466 148.723 5.25599 150.424 5.25599C152.184 5.25599 153.827 4.87466 155.352 4.112C156.878 3.34933 158.432 2.02933 160.016 0.151998L166.968 7.104L171.808 15.904L171.544 16.344H176.912L181.752 25.144V87.8H161.336L156.496 79V75.832L149.808 87.8H128.6L123.76 79V45.384H123.408L118.568 36.584L124.112 16.344H139.248L138.896 15.904ZM142.768 17.752H125.168L120.416 35.176H125.168V77.592H144.176L157.728 53.392L157.904 77.592H175.504V17.752H159.84L142.944 47.584L142.768 17.752ZM149.016 25.144V34.12L154.736 23.912C152.39 23.912 150.014 23.472 147.608 22.592L149.016 25.144ZM222.491 17.752H199.611L194.771 35.176H199.611L191.251 60.168H186.675L182.011 77.592H237.363L242.027 60.168H235.955L222.491 17.752ZM217.915 60.168H209.467L213.515 45.032L217.915 60.168ZM185.003 87.8L180.163 79L185.619 58.76H190.195L195.827 41.952L192.923 36.584L198.555 16.344H223.547L228.387 25.144L239.035 58.76H243.875L248.715 67.56L243.259 87.8H185.003ZM266.563 17.752H248.963L244.211 35.176H248.963V77.592H267.971L281.523 53.392L281.699 77.592H299.299V17.752H283.635L266.739 47.584L266.563 17.752ZM247.203 45.384L242.363 36.584L247.907 16.344H267.971L272.811 25.144V34.12L282.843 16.344H300.707L305.547 25.144V87.8H285.131L280.291 79V75.832L273.603 87.8H252.395L247.555 79V45.384H247.203ZM392.684 17.752H343.404L338.828 35.176H343.404V77.592H361.004V35.176H375.084V77.592H392.684V17.752ZM336.98 36.584L342.348 16.344H394.092L398.932 25.144V87.8H378.516L373.676 79V45.384H367.252V87.8H346.836L341.996 79V45.384L336.98 36.584ZM440.054 17.752H410.926L406.174 35.176H410.926L399.134 77.592H417.966L419.902 69.672H436.094L438.206 77.592H457.654L440.054 17.752ZM422.806 54.184L427.646 35.176L432.75 54.184H422.806ZM409.87 16.344H441.11L445.95 25.144L464.342 87.8H441.99L437.678 79.88H425.886L423.95 87.8H402.126L397.286 79L407.494 42.392L404.326 36.584L409.87 16.344ZM462.429 35.176V77.592H480.029V64.48H484.253C491.117 64.48 496.573 62.3387 500.621 58.056C504.728 53.7147 506.781 48.3173 506.781 41.864C506.781 35.176 504.962 29.632 501.325 25.232C497.218 20.2453 491.469 17.752 484.077 17.752H462.429L457.853 35.176H462.429ZM480.029 48.2V35.176H483.373C485.074 35.176 486.394 35.88 487.333 37.288C488.272 38.6373 488.741 40.1627 488.741 41.864C488.741 43.7413 488.36 45.208 487.597 46.264C486.658 47.5547 485.192 48.2 483.197 48.2H480.029ZM456.005 36.584L461.373 16.344H484.077C489.357 16.344 493.904 17.7227 497.717 20.48C500.885 22.768 503.642 26.0533 505.989 30.336L508.981 35.792C510.213 38.0213 511.181 40.456 511.885 43.096C512.648 45.736 513.029 48.2587 513.029 50.664C513.029 57.352 510.829 63.0427 506.429 67.736C502.088 72.3707 496.309 74.688 489.093 74.688H486.277V87.8H465.861L461.021 79V45.384L456.005 36.584ZM530.995 17.752H513.395L508.819 35.176H513.395V77.592H535.659C541.761 77.592 546.982 75.3333 551.323 70.816C555.665 66.2987 557.835 60.8427 557.835 54.448C557.835 47.584 555.635 41.7467 551.235 36.936C546.894 32.0667 541.614 29.632 535.395 29.632H530.995V17.752ZM530.995 60.168V47.056H533.635C535.219 47.056 536.569 47.7013 537.683 48.992C538.857 50.224 539.443 51.6907 539.443 53.392C539.443 55.328 538.886 56.9413 537.771 58.232C536.657 59.5227 535.278 60.168 533.635 60.168H530.995ZM580.363 17.752H562.763L558.011 35.176H562.763V77.592H580.363V17.752ZM506.971 36.584L512.339 16.344H532.403L537.243 25.144V28.312C541.291 28.7227 544.987 30.16 548.331 32.624C551.734 35.088 554.403 38.256 556.339 42.128L561.355 51.28V45.384H561.003L556.163 36.584L561.707 16.344H581.771L586.611 25.144V87.8H566.195L561.355 79V74.512C559.361 78.5013 556.486 81.6987 552.731 84.104C549.035 86.568 544.958 87.8 540.499 87.8H516.827L511.987 79V45.384L506.971 36.584ZM536.891 28.312L536.451 28.224L536.891 28.312Z" fill="#1D1E19"/>
</svg>
