<svg width="590" height="160" viewBox="0 0 590 160" fill="none" xmlns="http://www.w3.org/2000/svg">
<path d="M0.35498 21.476L5.35698 2.61596H53.573L58.083 10.816V69.2H39.059L34.549 61V29.676H28.563V69.2H9.53898L5.02898 61V29.676L0.35498 21.476Z" fill="#5DC27C"/>
<path d="M88.2827 45.092C84.8387 45.092 81.8867 43.8073 79.4267 41.238C77.0213 38.614 75.8187 35.4433 75.8187 31.726C75.8187 28.0633 77.0213 24.9473 79.4267 22.378C81.832 19.8086 84.784 18.524 88.2827 18.524C91.7267 18.524 94.6514 19.836 97.0567 22.46C99.5167 25.0293 100.747 28.118 100.747 31.726C100.747 35.4433 99.5167 38.614 97.0567 41.238C94.6514 43.8073 91.7267 45.092 88.2827 45.092ZM92.7927 70.84C86.998 70.84 81.6953 69.364 76.8847 66.412C72.1287 63.46 68.384 59.4693 65.6507 54.44L61.3867 46.814C58.708 42.1673 57.3687 37.138 57.3687 31.726C57.3687 23.3073 60.4027 16.0913 66.4707 10.078C72.5934 4.00995 79.864 0.975952 88.2827 0.975952C94.3507 0.975952 99.8994 2.61595 104.929 5.89595C110.013 9.17595 113.812 13.522 116.327 18.934L120.099 25.576C121.083 27.2706 121.93 29.4846 122.641 32.218C123.351 34.8966 123.707 37.466 123.707 39.926C123.707 48.3993 120.673 55.67 114.605 61.738C108.537 67.806 101.266 70.84 92.7927 70.84ZM88.2827 43.78C91.4534 43.78 94.1047 42.632 96.2367 40.336C98.3687 38.04 99.4347 35.17 99.4347 31.726L99.2707 29.758V30.168C97.3027 28.7466 95.1434 28.036 92.7927 28.036C89.622 28.036 86.9707 29.1566 84.8387 31.398C82.7067 33.6393 81.6407 36.482 81.6407 39.926L81.8047 41.648L81.5587 41.484C83.5267 43.0146 85.768 43.78 88.2827 43.78Z" fill="#5DC27C"/>
<path d="M123.437 37.794L126.225 28.61L122.125 22.87L127.045 2.86195C129.286 2.26062 131.446 1.79595 133.523 1.46796C135.6 1.13995 137.514 0.975952 139.263 0.975952C142.816 0.975952 146.26 1.76862 149.595 3.35396C152.984 4.88462 155.472 7.12595 157.057 10.078L161.321 17.786C161.813 18.7153 162.25 19.8633 162.633 21.23C163.016 22.5966 163.207 23.9086 163.207 25.166C163.207 30.0313 161.84 33.776 159.107 36.4L162.715 42.714C164.464 45.7753 165.339 49.2193 165.339 53.046C165.339 58.1846 163.262 62.4213 159.107 65.756C155.007 69.1453 150.278 70.84 144.921 70.84C141.586 70.84 138.033 70.3753 134.261 69.446C130.544 68.5166 127.1 67.232 123.929 65.592L119.419 57.392L124.339 40.09L123.437 37.794Z" fill="#5DC27C"/>
<path d="M198.215 43.452H190.343L194.115 29.348L198.215 43.452ZM167.547 69.2L163.037 61L168.121 42.14H172.385L177.633 26.478L174.927 21.476L180.175 2.61596H203.463L207.973 10.816L217.895 42.14H222.405L226.915 50.34L221.831 69.2H167.547Z" fill="#5DC27C"/>
<path d="M243.3 32.3V20.164H246.416C248.001 20.164 249.231 20.82 250.106 22.132C250.981 23.3893 251.418 24.8106 251.418 26.396C251.418 28.1453 251.063 29.512 250.352 30.496C249.477 31.6986 248.11 32.3 246.252 32.3H243.3ZM220.914 21.476L225.916 2.61596H247.072C251.992 2.61596 256.228 3.90062 259.782 6.46995C262.734 8.60195 265.303 11.6633 267.49 15.654L270.278 20.738C271.426 22.8153 272.328 25.084 272.984 27.544C273.694 30.004 274.05 32.3546 274.05 34.596C274.05 40.828 272 46.1306 267.9 50.504C263.855 54.8226 258.47 56.982 251.746 56.982H249.122V69.2H230.098L225.588 61V29.676L220.914 21.476Z" fill="#5DC27C"/>
<path d="M290.463 37.876L294.973 20.164L299.729 37.876H290.463ZM278.409 2.61596H307.519L312.029 10.816L329.167 69.2H308.339L304.321 61.82H293.333L291.529 69.2H271.193L266.683 61L276.195 26.888L273.243 21.476L278.409 2.61596Z" fill="#5DC27C"/>
<path d="M342.965 26.724V20.164H347.475C350.154 20.164 351.493 21.2573 351.493 23.444C351.493 24.428 351.22 25.2206 350.673 25.822C350.126 26.4233 349.252 26.724 348.049 26.724H342.965ZM342.965 44.518V36.564H347.311C348.951 36.564 350.126 36.9193 350.837 37.63C351.602 38.286 351.985 39.2426 351.985 40.5C351.985 41.7573 351.63 42.7413 350.919 43.452C350.208 44.1626 349.006 44.518 347.311 44.518H342.965ZM320.579 21.476L325.581 2.61596H351.985C355.429 2.61596 358.545 3.46329 361.333 5.15795C363.848 6.68862 365.816 8.73862 367.237 11.308L372.321 20.574C372.758 21.3393 373.086 22.296 373.305 23.444C373.524 24.5373 373.633 25.6033 373.633 26.642C373.633 28.8286 373.196 30.906 372.321 32.874C371.501 34.842 370.435 36.3726 369.123 37.466L373.387 45.01C373.988 45.994 374.398 47.142 374.617 48.454C374.836 49.7113 374.945 51.1326 374.945 52.718C374.945 57.3646 373.196 61.2733 369.697 64.444C366.198 67.6146 361.798 69.2 356.495 69.2H329.763L325.253 61V29.676L320.579 21.476Z" fill="#5DC27C"/>
<path d="M385.477 2.61596H408.765L413.275 10.816L431.643 69.2H411.881L407.371 61L402.861 46.322L396.137 69.2H376.539L372.029 61L383.099 26.478L380.311 21.476L385.477 2.61596Z" fill="#5DC27C"/>
<path d="M456.092 20.164V29.84H450.926C449.559 29.84 448.356 29.4026 447.318 28.528C446.334 27.5986 445.842 26.5053 445.842 25.248C445.842 23.8266 446.334 22.624 447.318 21.64C448.302 20.656 449.504 20.164 450.926 20.164H456.092ZM478.314 10.816V69.2H459.29L456.42 64.034L454.042 69.2H431.246L426.736 61L435.592 45.092L430.098 35.088C428.458 31.6986 427.638 28.4186 427.638 25.248C427.638 19.0706 429.715 13.768 433.87 9.33995C438.079 4.85729 443.108 2.61596 448.958 2.61596H473.804L478.314 10.816Z" fill="#5DC27C"/>
<path d="M544.234 31.726C544.234 35.4433 543.031 38.614 540.626 41.238C538.221 43.862 535.269 45.174 531.77 45.174C528.326 45.174 525.374 43.862 522.914 41.238C520.454 38.614 519.224 35.4433 519.224 31.726C519.224 28.0633 520.454 24.9473 522.914 22.378C525.374 19.8086 528.326 18.524 531.77 18.524C535.214 18.524 538.139 19.836 540.544 22.46C543.004 25.0293 544.234 28.118 544.234 31.726ZM481.586 29.676L477.076 21.476L482.324 2.61596H500.856L505.366 10.816V15.818C508.209 11.4993 512.035 7.94595 516.846 5.15795C521.711 2.36995 526.686 0.975952 531.77 0.975952C536.854 0.975952 541.938 2.39729 547.022 5.23996C552.161 8.08262 555.933 11.718 558.338 16.146L563.668 25.822C564.707 27.626 565.554 29.8946 566.21 32.628C566.866 35.3613 567.194 37.794 567.194 39.926C567.194 48.3993 564.16 55.67 558.092 61.738C552.024 67.806 544.753 70.84 536.28 70.84C529.665 70.84 523.679 68.9266 518.322 65.1C512.965 61.328 509.275 56.5446 507.252 50.75L506.268 49.52H505.366V69.2H486.506L481.996 61V29.676H481.586ZM542.922 31.726L542.758 30.168C540.79 28.7466 538.658 28.036 536.362 28.036C533.082 28.036 530.349 29.184 528.162 31.48C526.03 33.7213 524.964 36.564 524.964 40.008L525.128 41.566C526.057 42.2766 527.096 42.8506 528.244 43.288C529.392 43.6706 530.567 43.862 531.77 43.862C534.941 43.862 537.592 42.714 539.724 40.418C541.856 38.122 542.922 35.2246 542.922 31.726Z" fill="#5DC27C"/>
<path d="M571.726 75.35L567.216 67.15C567.489 66.822 568.118 66.002 569.102 64.69C569.758 63.8153 570.168 63.2413 570.332 62.968L566.642 56.654C565.767 55.1233 565.33 53.4286 565.33 51.57C565.33 48.8366 566.287 46.486 568.2 44.518C570.168 42.4953 572.519 41.484 575.252 41.484C577.384 41.484 579.325 42.1673 581.074 43.534C582.605 44.7366 583.917 46.3493 585.01 48.372L588.7 55.26C589.465 56.6813 589.848 58.1846 589.848 59.77C589.848 64.198 588.317 67.8333 585.256 70.676C581.921 73.792 577.411 75.35 571.726 75.35Z" fill="#5DC27C"/>
<path d="M24.8435 116.724V110.164H29.3535C32.0322 110.164 33.3715 111.257 33.3715 113.444C33.3715 114.428 33.0982 115.221 32.5515 115.822C32.0048 116.423 31.1302 116.724 29.9275 116.724H24.8435ZM24.8435 134.518V126.564H29.1895C30.8295 126.564 32.0048 126.919 32.7155 127.63C33.4808 128.286 33.8635 129.243 33.8635 130.5C33.8635 131.757 33.5082 132.741 32.7975 133.452C32.0868 134.163 30.8842 134.518 29.1895 134.518H24.8435ZM2.45749 111.476L7.45949 92.616H33.8635C37.3075 92.616 40.4235 93.4633 43.2115 95.158C45.7262 96.6886 47.6942 98.7386 49.1155 101.308L54.1995 110.574C54.6368 111.339 54.9648 112.296 55.1835 113.444C55.4022 114.537 55.5115 115.603 55.5115 116.642C55.5115 118.829 55.0742 120.906 54.1995 122.874C53.3795 124.842 52.3135 126.373 51.0015 127.466L55.2655 135.01C55.8668 135.994 56.2768 137.142 56.4955 138.454C56.7142 139.711 56.8235 141.133 56.8235 142.718C56.8235 147.365 55.0742 151.273 51.5755 154.444C48.0768 157.615 43.6762 159.2 38.3735 159.2H11.6415L7.13149 151V119.676L2.45749 111.476Z" fill="#5DC27C"/>
<path d="M74.8174 133.452V121.234H77.2774C78.7534 121.234 80.0107 121.835 81.0494 123.038C82.1427 124.186 82.6894 125.553 82.6894 127.138C82.6894 128.942 82.17 130.445 81.1314 131.648C80.0927 132.851 78.808 133.452 77.2774 133.452H74.8174ZM52.4314 111.476L57.4334 92.616H76.1294L80.6394 100.816V103.768C84.4114 104.151 87.8554 105.49 90.9714 107.786C94.142 110.082 96.6294 113.034 98.4334 116.642L103.107 125.17V119.676H102.779L98.2694 111.476L103.435 92.616H122.131L126.641 100.816V159.2H107.617L103.107 151V146.818C101.249 150.535 98.57 153.515 95.0714 155.756C91.6274 158.052 87.828 159.2 83.6734 159.2H61.6154L57.1054 151V119.676L52.4314 111.476Z" fill="#5DC27C"/>
<path d="M170.275 116.724V110.164H174.785C177.464 110.164 178.803 111.257 178.803 113.444C178.803 114.428 178.53 115.221 177.983 115.822C177.436 116.423 176.562 116.724 175.359 116.724H170.275ZM170.275 134.518V126.564H174.621C176.261 126.564 177.436 126.919 178.147 127.63C178.912 128.286 179.295 129.243 179.295 130.5C179.295 131.757 178.94 132.741 178.229 133.452C177.518 134.163 176.316 134.518 174.621 134.518H170.275ZM147.889 111.476L152.891 92.616H179.295C182.739 92.616 185.855 93.4633 188.643 95.158C191.158 96.6886 193.126 98.7386 194.547 101.308L199.631 110.574C200.068 111.339 200.396 112.296 200.615 113.444C200.834 114.537 200.943 115.603 200.943 116.642C200.943 118.829 200.506 120.906 199.631 122.874C198.811 124.842 197.745 126.373 196.433 127.466L200.697 135.01C201.298 135.994 201.708 137.142 201.927 138.454C202.146 139.711 202.255 141.133 202.255 142.718C202.255 147.365 200.506 151.273 197.007 154.444C193.508 157.615 189.108 159.2 183.805 159.2H157.073L152.563 151V119.676L147.889 111.476Z" fill="#5DC27C"/>
<path d="M221.069 133.452V121.234H223.529C225.005 121.234 226.262 121.835 227.301 123.038C228.394 124.186 228.941 125.553 228.941 127.138C228.941 128.942 228.422 130.445 227.383 131.648C226.344 132.851 225.06 133.452 223.529 133.452H221.069ZM198.683 111.476L203.685 92.616H222.381L226.891 100.816V103.768C230.663 104.151 234.107 105.49 237.223 107.786C240.394 110.082 242.881 113.034 244.685 116.642L249.359 125.17V119.676H249.031L244.521 111.476L249.687 92.616H268.383L272.893 100.816V159.2H253.869L249.359 151V146.818C247.5 150.535 244.822 153.515 241.323 155.756C237.879 158.052 234.08 159.2 229.925 159.2H207.867L203.357 151V119.676L198.683 111.476Z" fill="#5DC27C"/>
<path d="M276.243 119.676L271.733 111.476L276.899 92.616H295.595L300.105 100.816V109.18L309.453 92.616H326.099L330.609 100.816V159.2H311.585L307.075 151V148.048L300.843 159.2H281.081L276.571 151V119.676H276.243Z" fill="#5DC27C"/>
<path d="M333.802 151V119.676L329.128 111.476L334.13 92.616H351.104L352.252 90.32H370.292L374.802 98.52L369.062 119.676H357.336V159.2H338.312L333.802 151Z" fill="#5DC27C"/>
<path d="M393.014 122.3V110.164H396.13C397.715 110.164 398.945 110.82 399.82 112.132C400.695 113.389 401.132 114.811 401.132 116.396C401.132 118.145 400.777 119.512 400.066 120.496C399.191 121.699 397.825 122.3 395.966 122.3H393.014ZM370.628 111.476L375.63 92.616H396.786C401.706 92.616 405.943 93.9006 409.496 96.47C412.448 98.602 415.017 101.663 417.204 105.654L419.992 110.738C421.14 112.815 422.042 115.084 422.698 117.544C423.409 120.004 423.764 122.355 423.764 124.596C423.764 130.828 421.714 136.131 417.614 140.504C413.569 144.823 408.184 146.982 401.46 146.982H398.836V159.2H379.812L375.302 151V119.676L370.628 111.476Z" fill="#5DC27C"/>
<path d="M440.177 127.876L444.687 110.164L449.443 127.876H440.177ZM428.123 92.616H457.233L461.743 100.816L478.881 159.2H458.053L454.035 151.82H443.047L441.243 159.2H420.907L416.397 151L425.909 116.888L422.957 111.476L428.123 92.616Z" fill="#5DC27C"/>
<path d="M488.579 92.616H511.867L516.377 100.816L534.745 159.2H514.983L510.473 151L505.963 136.322L499.239 159.2H479.641L475.131 151L486.201 116.478L483.413 111.476L488.579 92.616Z" fill="#5DC27C"/>
<path d="M530.658 119.676L526.148 111.476L531.314 92.616H550.01L554.52 100.816V109.18L563.868 92.616H580.514L585.024 100.816V159.2H566L561.49 151V148.048L555.258 159.2H535.496L530.986 151V119.676H530.658Z" fill="#5DC27C"/>
<path d="M52.2608 3.928H6.34082L2.07682 20.164H6.34082V59.688H22.7408V20.164H35.8608V59.688H52.2608V3.928ZM0.354823 21.476L5.35682 2.616H53.5728L58.0828 10.816V69.2H39.0588L34.5488 61V29.676H28.5628V69.2H9.53882L5.02882 61V29.676L0.354823 21.476ZM88.2825 61.328C96.4279 61.328 103.398 58.4307 109.193 52.636C114.987 46.8413 117.885 39.8713 117.885 31.726C117.885 23.5807 114.987 16.638 109.193 10.898C103.398 5.158 96.4279 2.288 88.2825 2.288C80.1372 2.288 73.1672 5.158 67.3725 10.898C61.5779 16.638 58.6805 23.5807 58.6805 31.726C58.6805 39.8713 61.5779 46.8413 67.3725 52.636C73.1672 58.4307 80.1372 61.328 88.2825 61.328ZM88.2825 45.092C84.8385 45.092 81.8865 43.8073 79.4265 41.238C77.0212 38.614 75.8185 35.4433 75.8185 31.726C75.8185 28.0633 77.0212 24.9473 79.4265 22.378C81.8319 19.8087 84.7839 18.524 88.2825 18.524C91.7265 18.524 94.6512 19.836 97.0565 22.46C99.5165 25.0293 100.747 28.118 100.747 31.726C100.747 35.4433 99.5165 38.614 97.0565 41.238C94.6512 43.8073 91.7265 45.092 88.2825 45.092ZM92.7925 70.84C86.9979 70.84 81.6952 69.364 76.8845 66.412C72.1285 63.46 68.3839 59.4693 65.6505 54.44L61.3865 46.814C58.7079 42.1673 57.3685 37.138 57.3685 31.726C57.3685 23.3073 60.4025 16.0913 66.4705 10.078C72.5932 4.01 79.8639 0.975996 88.2825 0.975996C94.3505 0.975996 99.8992 2.616 104.929 5.896C110.013 9.176 113.812 13.522 116.327 18.934L120.099 25.576C121.083 27.2707 121.93 29.4847 122.641 32.218C123.351 34.8967 123.707 37.466 123.707 39.926C123.707 48.3993 120.673 55.67 114.605 61.738C108.537 67.806 101.266 70.84 92.7925 70.84ZM88.2825 43.78C91.4532 43.78 94.1045 42.632 96.2365 40.336C98.3685 38.04 99.4345 35.17 99.4345 31.726L99.2705 29.758V30.168C97.3025 28.7467 95.1432 28.036 92.7925 28.036C89.6219 28.036 86.9705 29.1567 84.8385 31.398C82.7065 33.6393 81.6405 36.482 81.6405 39.926L81.8045 41.648L81.5585 41.484C83.5265 43.0147 85.7679 43.78 88.2825 43.78ZM128.685 25.084L125.159 36.482H137.541C138.689 36.482 139.755 37.0013 140.739 38.04C141.723 39.0787 142.215 40.1173 142.215 41.156C142.215 42.304 141.832 43.2607 141.067 44.026C140.356 44.7367 139.235 45.092 137.705 45.092C135.846 45.092 133.659 44.682 131.145 43.862C129.45 43.3153 127.482 42.55 125.241 41.566L120.977 56.736C123.546 58.048 126.607 59.1413 130.161 60.016C133.769 60.8907 137.185 61.328 140.411 61.328C145.549 61.328 149.95 59.852 153.613 56.9C157.549 53.7293 159.517 49.7113 159.517 44.846C159.517 41.3473 158.724 38.1767 157.139 35.334C155.389 32.218 153.011 30.2773 150.005 29.512C152.41 28.5827 154.241 26.9973 155.499 24.756C156.756 22.46 157.385 19.8633 157.385 16.966C157.385 12.2647 155.417 8.54733 151.481 5.814C148.091 3.46333 144.019 2.288 139.263 2.288C137.677 2.288 135.846 2.452 133.769 2.78C131.691 3.108 129.805 3.49066 128.111 3.928L124.011 20.82C125.596 20.2187 127.728 19.6993 130.407 19.262C133.14 18.77 135.135 18.524 136.393 18.524C137.595 18.524 138.552 18.8793 139.263 19.59C140.028 20.246 140.411 21.0387 140.411 21.968C140.411 22.788 140.028 23.526 139.263 24.182C138.497 24.7833 137.568 25.084 136.475 25.084H128.685ZM123.437 37.794L126.225 28.61L122.125 22.87L127.045 2.862C129.286 2.26066 131.445 1.796 133.523 1.468C135.6 1.14 137.513 0.975996 139.263 0.975996C142.816 0.975996 146.26 1.76866 149.595 3.354C152.984 4.88467 155.471 7.126 157.057 10.078L161.321 17.786C161.813 18.7153 162.25 19.8633 162.633 21.23C163.015 22.5967 163.207 23.9087 163.207 25.166C163.207 30.0313 161.84 33.776 159.107 36.4L162.715 42.714C164.464 45.7753 165.339 49.2193 165.339 53.046C165.339 58.1847 163.261 62.4213 159.107 65.756C155.007 69.1453 150.278 70.84 144.921 70.84C141.586 70.84 138.033 70.3753 134.261 69.446C130.543 68.5167 127.099 67.232 123.929 65.592L119.419 57.392L124.339 40.09L123.437 37.794ZM202.478 3.928H181.158L176.648 20.164H181.158L173.368 43.452H169.104L164.758 59.688H216.336L220.682 43.452H215.024L202.478 3.928ZM198.214 43.452H190.342L194.114 29.348L198.214 43.452ZM167.546 69.2L163.036 61L168.12 42.14H172.384L177.632 26.478L174.926 21.476L180.174 2.616H203.462L207.972 10.816L217.894 42.14H222.404L226.914 50.34L221.83 69.2H167.546ZM226.9 20.164V59.688H243.3V47.47H247.236C253.632 47.47 258.716 45.4747 262.488 41.484C266.314 37.4387 268.228 32.4093 268.228 26.396C268.228 20.164 266.533 14.998 263.144 10.898C259.317 6.25133 253.96 3.928 247.072 3.928H226.9L222.636 20.164H226.9ZM243.3 32.3V20.164H246.416C248.001 20.164 249.231 20.82 250.106 22.132C250.98 23.3893 251.418 24.8107 251.418 26.396C251.418 28.1453 251.062 29.512 250.352 30.496C249.477 31.6987 248.11 32.3 246.252 32.3H243.3ZM220.914 21.476L225.916 2.616H247.072C251.992 2.616 256.228 3.90067 259.782 6.47C262.734 8.602 265.303 11.6633 267.49 15.654L270.278 20.738C271.426 22.8153 272.328 25.084 272.984 27.544C273.694 30.004 274.05 32.3547 274.05 34.596C274.05 40.828 272 46.1307 267.9 50.504C263.854 54.8227 258.47 56.982 251.746 56.982H249.122V69.2H230.098L225.588 61V29.676L220.914 21.476ZM306.535 3.928H279.393L274.965 20.164H279.393L268.405 59.688H285.953L287.757 52.308H302.845L304.813 59.688H322.935L306.535 3.928ZM290.463 37.876L294.973 20.164L299.729 37.876H290.463ZM278.409 2.616H307.519L312.029 10.816L329.167 69.2H308.339L304.321 61.82H293.333L291.529 69.2H271.193L266.683 61L276.195 26.888L273.243 21.476L278.409 2.616ZM326.565 20.164V59.688H351.985C357.014 59.688 361.114 58.2667 364.285 55.424C367.51 52.5267 369.123 48.8913 369.123 44.518C369.123 41.1833 368.385 38.2587 366.909 35.744C365.433 33.2293 363.137 31.398 360.021 30.25C362.481 29.3207 364.394 27.79 365.761 25.658C367.128 23.526 367.811 21.1207 367.811 18.442C367.811 14.506 366.39 11.144 363.547 8.356C360.54 5.404 356.686 3.928 351.985 3.928H326.565L322.301 20.164H326.565ZM342.965 26.724V20.164H347.475C350.154 20.164 351.493 21.2573 351.493 23.444C351.493 24.428 351.22 25.2207 350.673 25.822C350.126 26.4233 349.252 26.724 348.049 26.724H342.965ZM342.965 44.518V36.564H347.311C348.951 36.564 350.126 36.9193 350.837 37.63C351.602 38.286 351.985 39.2427 351.985 40.5C351.985 41.7573 351.63 42.7413 350.919 43.452C350.208 44.1627 349.006 44.518 347.311 44.518H342.965ZM320.579 21.476L325.581 2.616H351.985C355.429 2.616 358.545 3.46333 361.333 5.158C363.848 6.68866 365.816 8.73866 367.237 11.308L372.321 20.574C372.758 21.3393 373.086 22.296 373.305 23.444C373.524 24.5373 373.633 25.6033 373.633 26.642C373.633 28.8287 373.196 30.906 372.321 32.874C371.501 34.842 370.435 36.3727 369.123 37.466L373.387 45.01C373.988 45.994 374.398 47.142 374.617 48.454C374.836 49.7113 374.945 51.1327 374.945 52.718C374.945 57.3647 373.196 61.2733 369.697 64.444C366.198 67.6147 361.798 69.2 356.495 69.2H329.763L325.253 61V29.676L320.579 21.476ZM407.781 3.928H386.461L382.033 20.164H386.461L373.833 59.688H390.643L399.253 30.578L408.355 59.688H425.329L407.781 3.928ZM385.477 2.616H408.765L413.275 10.816L431.643 69.2H411.881L407.371 61L402.861 46.322L396.137 69.2H376.539L372.029 61L383.099 26.478L380.311 21.476L385.477 2.616ZM472.492 59.688V3.928H448.958C443.382 3.928 438.653 6.00533 434.772 10.16C430.89 14.3147 428.95 19.344 428.95 25.248C428.95 28.4187 429.852 31.6987 431.656 35.088C433.46 38.4773 435.756 40.9373 438.544 42.468L428.95 59.688H448.712L455.764 44.436H456.092V59.688H472.492ZM456.092 20.164V29.84H450.926C449.559 29.84 448.356 29.4027 447.318 28.528C446.334 27.5987 445.842 26.5053 445.842 25.248C445.842 23.8267 446.334 22.624 447.318 21.64C448.302 20.656 449.504 20.164 450.926 20.164H456.092ZM478.314 10.816V69.2H459.29L456.42 64.034L454.042 69.2H431.246L426.736 61L435.592 45.092L430.098 35.088C428.458 31.6987 427.638 28.4187 427.638 25.248C427.638 19.0707 429.715 13.768 433.87 9.34C438.079 4.85733 443.108 2.616 448.958 2.616H473.804L478.314 10.816ZM483.308 20.164V59.688H499.544V40.008H503.234C505.038 46.24 508.564 51.3513 513.812 55.342C519.06 59.3327 525.046 61.328 531.77 61.328C539.915 61.328 546.885 58.4307 552.68 52.636C558.475 46.8413 561.372 39.8713 561.372 31.726C561.372 23.5807 558.475 16.638 552.68 10.898C546.885 5.158 539.915 2.288 531.77 2.288C525.647 2.288 519.825 4.338 514.304 8.438C508.783 12.538 505.147 17.4853 503.398 23.28H499.544V3.928H483.308L478.798 20.164H483.308ZM544.234 31.726C544.234 35.4433 543.031 38.614 540.626 41.238C538.221 43.862 535.269 45.174 531.77 45.174C528.326 45.174 525.374 43.862 522.914 41.238C520.454 38.614 519.224 35.4433 519.224 31.726C519.224 28.0633 520.454 24.9473 522.914 22.378C525.374 19.8087 528.326 18.524 531.77 18.524C535.214 18.524 538.139 19.836 540.544 22.46C543.004 25.0293 544.234 28.118 544.234 31.726ZM481.586 29.676L477.076 21.476L482.324 2.616H500.856L505.366 10.816V15.818C508.209 11.4993 512.035 7.946 516.846 5.158C521.711 2.37 526.686 0.975996 531.77 0.975996C536.854 0.975996 541.938 2.39733 547.022 5.24C552.161 8.08267 555.933 11.718 558.338 16.146L563.668 25.822C564.707 27.626 565.554 29.8947 566.21 32.628C566.866 35.3613 567.194 37.794 567.194 39.926C567.194 48.3993 564.16 55.67 558.092 61.738C552.024 67.806 544.753 70.84 536.28 70.84C529.665 70.84 523.679 68.9267 518.322 65.1C512.965 61.328 509.275 56.5447 507.252 50.75L506.924 50.34L506.268 49.52H505.366V69.2H486.506L481.996 61V29.676H481.586ZM542.922 31.726L542.758 30.168C540.79 28.7467 538.658 28.036 536.362 28.036C533.082 28.036 530.349 29.184 528.162 31.48C526.03 33.7213 524.964 36.564 524.964 40.008L525.128 41.566C526.057 42.2767 527.096 42.8507 528.244 43.288C529.392 43.6707 530.567 43.862 531.77 43.862C534.941 43.862 537.592 42.714 539.724 40.418C541.856 38.122 542.922 35.2247 542.922 31.726ZM572.874 59.688C572.6 60.8907 572.245 61.9293 571.808 62.804C571.425 63.7333 570.796 64.7447 569.922 65.838C573.475 65.838 576.7 64.3893 579.598 61.492C582.55 58.6493 584.026 55.342 584.026 51.57C584.026 49.1647 583.178 47.1147 581.484 45.42C579.844 43.6707 577.766 42.796 575.252 42.796C572.792 42.796 570.742 43.6433 569.102 45.338C567.462 47.0327 566.642 49.11 566.642 51.57C566.642 53.8113 567.27 55.67 568.528 57.146C569.621 58.4033 571.07 59.2507 572.874 59.688ZM571.726 75.35L567.216 67.15C567.489 66.822 568.118 66.002 569.102 64.69C569.758 63.8153 570.168 63.2413 570.332 62.968L566.642 56.654C565.767 55.1233 565.33 53.4287 565.33 51.57C565.33 48.8367 566.286 46.486 568.2 44.518C570.168 42.4953 572.518 41.484 575.252 41.484C577.384 41.484 579.324 42.1673 581.074 43.534C582.604 44.7367 583.916 46.3493 585.01 48.372L588.7 55.26C589.465 56.6813 589.848 58.1847 589.848 59.77C589.848 64.198 588.317 67.8333 585.256 70.676C581.921 73.792 577.411 75.35 571.726 75.35ZM8.44333 110.164V149.688H33.8633C38.8927 149.688 42.9927 148.267 46.1633 145.424C49.3887 142.527 51.0013 138.891 51.0013 134.518C51.0013 131.183 50.2633 128.259 48.7873 125.744C47.3113 123.229 45.0153 121.398 41.8993 120.25C44.3593 119.321 46.2727 117.79 47.6393 115.658C49.006 113.526 49.6893 111.121 49.6893 108.442C49.6893 104.506 48.268 101.144 45.4253 98.356C42.4187 95.404 38.5647 93.928 33.8633 93.928H8.44333L4.17933 110.164H8.44333ZM24.8433 116.724V110.164H29.3533C32.032 110.164 33.3713 111.257 33.3713 113.444C33.3713 114.428 33.098 115.221 32.5513 115.822C32.0047 116.423 31.13 116.724 29.9273 116.724H24.8433ZM24.8433 134.518V126.564H29.1893C30.8293 126.564 32.0047 126.919 32.7153 127.63C33.4807 128.286 33.8633 129.243 33.8633 130.5C33.8633 131.757 33.508 132.741 32.7973 133.452C32.0867 134.163 30.884 134.518 29.1893 134.518H24.8433ZM2.45733 111.476L7.45933 92.616H33.8633C37.3073 92.616 40.4233 93.4633 43.2113 95.158C45.726 96.6887 47.694 98.7387 49.1153 101.308L54.1993 110.574C54.6367 111.339 54.9647 112.296 55.1833 113.444C55.402 114.537 55.5113 115.603 55.5113 116.642C55.5113 118.829 55.074 120.906 54.1993 122.874C53.3793 124.842 52.3133 126.373 51.0013 127.466L55.2653 135.01C55.8667 135.994 56.2767 137.142 56.4953 138.454C56.714 139.711 56.8233 141.133 56.8233 142.718C56.8233 147.365 55.074 151.273 51.5753 154.444C48.0767 157.615 43.676 159.2 38.3733 159.2H11.6413L7.13133 151V119.676L2.45733 111.476ZM74.8172 93.928H58.4172L54.1532 110.164H58.4172V149.688H79.1632C84.8485 149.688 89.7139 147.583 93.7592 143.374C97.8045 139.165 99.8272 134.081 99.8272 128.122C99.8272 121.726 97.7772 116.287 93.6772 111.804C89.6319 107.267 84.7119 104.998 78.9172 104.998H74.8172V93.928ZM74.8172 133.452V121.234H77.2772C78.7532 121.234 80.0105 121.835 81.0492 123.038C82.1425 124.186 82.6892 125.553 82.6892 127.138C82.6892 128.942 82.1699 130.445 81.1312 131.648C80.0925 132.851 78.8079 133.452 77.2772 133.452H74.8172ZM120.819 93.928H104.419L99.9912 110.164H104.419V149.688H120.819V93.928ZM52.4312 111.476L57.4332 92.616H76.1292L80.6392 100.816V103.768C84.4112 104.151 87.8552 105.49 90.9712 107.786C94.1419 110.082 96.6292 113.034 98.4332 116.642L103.107 125.17V119.676H102.779L98.2692 111.476L103.435 92.616H122.131L126.641 100.816V159.2H107.617L103.107 151V146.818C101.249 150.535 98.5699 153.515 95.0712 155.756C91.6272 158.052 87.8279 159.2 83.6732 159.2H61.6152L57.1052 151V119.676L52.4312 111.476ZM80.3112 103.768L79.9012 103.686L80.3112 103.768ZM153.875 110.164V149.688H179.295C184.324 149.688 188.424 148.267 191.595 145.424C194.82 142.527 196.433 138.891 196.433 134.518C196.433 131.183 195.695 128.259 194.219 125.744C192.743 123.229 190.447 121.398 187.331 120.25C189.791 119.321 191.704 117.79 193.071 115.658C194.437 113.526 195.121 111.121 195.121 108.442C195.121 104.506 193.699 101.144 190.857 98.356C187.85 95.404 183.996 93.928 179.295 93.928H153.875L149.611 110.164H153.875ZM170.275 116.724V110.164H174.785C177.463 110.164 178.803 111.257 178.803 113.444C178.803 114.428 178.529 115.221 177.983 115.822C177.436 116.423 176.561 116.724 175.359 116.724H170.275ZM170.275 134.518V126.564H174.621C176.261 126.564 177.436 126.919 178.147 127.63C178.912 128.286 179.295 129.243 179.295 130.5C179.295 131.757 178.939 132.741 178.229 133.452C177.518 134.163 176.315 134.518 174.621 134.518H170.275ZM147.889 111.476L152.891 92.616H179.295C182.739 92.616 185.855 93.4633 188.643 95.158C191.157 96.6887 193.125 98.7387 194.547 101.308L199.631 110.574C200.068 111.339 200.396 112.296 200.615 113.444C200.833 114.537 200.943 115.603 200.943 116.642C200.943 118.829 200.505 120.906 199.631 122.874C198.811 124.842 197.745 126.373 196.433 127.466L200.697 135.01C201.298 135.994 201.708 137.142 201.927 138.454C202.145 139.711 202.255 141.133 202.255 142.718C202.255 147.365 200.505 151.273 197.007 154.444C193.508 157.615 189.107 159.2 183.805 159.2H157.073L152.563 151V119.676L147.889 111.476ZM221.069 93.928H204.669L200.405 110.164H204.669V149.688H225.415C231.1 149.688 235.965 147.583 240.011 143.374C244.056 139.165 246.079 134.081 246.079 128.122C246.079 121.726 244.029 116.287 239.929 111.804C235.883 107.267 230.963 104.998 225.169 104.998H221.069V93.928ZM221.069 133.452V121.234H223.529C225.005 121.234 226.262 121.835 227.301 123.038C228.394 124.186 228.941 125.553 228.941 127.138C228.941 128.942 228.421 130.445 227.383 131.648C226.344 132.851 225.059 133.452 223.529 133.452H221.069ZM267.071 93.928H250.671L246.243 110.164H250.671V149.688H267.071V93.928ZM198.683 111.476L203.685 92.616H222.381L226.891 100.816V103.768C230.663 104.151 234.107 105.49 237.223 107.786C240.393 110.082 242.881 113.034 244.685 116.642L249.359 125.17V119.676H249.031L244.521 111.476L249.687 92.616H268.383L272.893 100.816V159.2H253.869L249.359 151V146.818C247.5 150.535 244.821 153.515 241.323 155.756C237.879 158.052 234.079 159.2 229.925 159.2H207.867L203.357 151V119.676L198.683 111.476ZM226.563 103.768L226.153 103.686L226.563 103.768ZM294.283 93.928H277.883L273.455 110.164H277.883V149.688H295.595L308.223 127.138L308.387 149.688H324.787V93.928H310.191L294.447 121.726L294.283 93.928ZM276.243 119.676L271.733 111.476L276.899 92.616H295.595L300.105 100.816V109.18L309.453 92.616H326.099L330.609 100.816V159.2H311.585L307.075 151V148.048L300.843 159.2H281.081L276.571 151V119.676H276.243ZM335.114 110.164V149.688H351.514V110.164H363.568L368.57 91.632H353.072L351.924 93.928H335.114L330.85 110.164H335.114ZM333.802 151V119.676L329.128 111.476L334.13 92.616H351.104L352.252 90.32H370.292L374.802 98.52L369.062 119.676H357.336V159.2H338.312L333.802 151ZM376.614 110.164V149.688H393.014V137.47H396.95C403.346 137.47 408.43 135.475 412.202 131.484C416.028 127.439 417.942 122.409 417.942 116.396C417.942 110.164 416.247 104.998 412.858 100.898C409.031 96.2513 403.674 93.928 396.786 93.928H376.614L372.35 110.164H376.614ZM393.014 122.3V110.164H396.13C397.715 110.164 398.945 110.82 399.82 112.132C400.694 113.389 401.132 114.811 401.132 116.396C401.132 118.145 400.776 119.512 400.066 120.496C399.191 121.699 397.824 122.3 395.966 122.3H393.014ZM370.628 111.476L375.63 92.616H396.786C401.706 92.616 405.942 93.9007 409.496 96.47C412.448 98.602 415.017 101.663 417.204 105.654L419.992 110.738C421.14 112.815 422.042 115.084 422.698 117.544C423.408 120.004 423.764 122.355 423.764 124.596C423.764 130.828 421.714 136.131 417.614 140.504C413.568 144.823 408.184 146.982 401.46 146.982H398.836V159.2H379.812L375.302 151V119.676L370.628 111.476ZM456.249 93.928H429.107L424.679 110.164H429.107L418.119 149.688H435.667L437.471 142.308H452.559L454.527 149.688H472.649L456.249 93.928ZM440.177 127.876L444.687 110.164L449.443 127.876H440.177ZM428.123 92.616H457.233L461.743 100.816L478.881 159.2H458.053L454.035 151.82H443.047L441.243 159.2H420.907L416.397 151L425.909 116.888L422.957 111.476L428.123 92.616ZM510.883 93.928H489.563L485.135 110.164H489.563L476.935 149.688H493.745L502.355 120.578L511.457 149.688H528.431L510.883 93.928ZM488.579 92.616H511.867L516.377 100.816L534.745 159.2H514.983L510.473 151L505.963 136.322L499.239 159.2H479.641L475.131 151L486.201 116.478L483.413 111.476L488.579 92.616ZM548.698 93.928H532.298L527.87 110.164H532.298V149.688H550.01L562.638 127.138L562.802 149.688H579.202V93.928H564.606L548.862 121.726L548.698 93.928ZM530.658 119.676L526.148 111.476L531.314 92.616H550.01L554.52 100.816V109.18L563.868 92.616H580.514L585.024 100.816V159.2H566L561.49 151V148.048L555.258 159.2H535.496L530.986 151V119.676H530.658Z" fill="#1D1E19"/>
<path d="M96.2366 40.336C94.1046 42.632 91.4533 43.78 88.2826 43.78C85.7679 43.78 83.5266 43.0147 81.5586 41.484L81.8046 41.648L81.6406 39.926C81.6406 36.482 82.7066 33.6393 84.8386 31.398C86.9706 29.1567 89.6219 28.036 92.7926 28.036C95.1433 28.036 97.3026 28.7467 99.2706 30.168V29.758L99.4346 31.726C99.4346 35.17 98.3686 38.04 96.2366 40.336Z" fill="#FFE1BB"/>
<path d="M542.758 30.168L542.922 31.726C542.922 35.2247 541.856 38.122 539.724 40.418C537.592 42.714 534.941 43.862 531.77 43.862C530.567 43.862 529.392 43.6707 528.244 43.288C527.096 42.8507 526.057 42.2767 525.128 41.566L524.964 40.008C524.964 36.564 526.03 33.7213 528.162 31.48C530.349 29.184 533.082 28.036 536.362 28.036C538.658 28.036 540.79 28.7467 542.758 30.168Z" fill="#FFE1BB"/>
</svg>
