<svg width="68" height="58" viewBox="0 0 68 58" fill="none" xmlns="http://www.w3.org/2000/svg">
<path d="M53.4544 24.3987C54.6903 30.7059 53.6559 38.3692 48.3824 43.9682C40.7158 52.1073 29.6595 54.6146 22.8448 48.2363C16.1974 42.0137 12.4028 33.1408 14.8384 26.4621C14.8989 26.2895 14.9647 26.1221 15.0337 25.9557C17.8555 19.2188 25.2606 15.6849 31.6693 20.1401C34.89 12.759 45.8579 9.87593 50.553 16.9744C51.8635 18.9579 52.8928 21.5385 53.4544 24.3987Z" fill="#E30705"/>
<path d="M52.2205 15.8726L50.6019 16.9431L52.2204 15.8726C49.3302 11.5027 44.5114 10.2861 40.1599 11.168C36.5414 11.9013 33.0467 14.1068 30.8984 17.3798C27.6798 15.8314 24.2943 15.8156 21.2815 16.9872C17.7169 18.3734 14.7859 21.3696 13.1887 25.1823L13.1886 25.1823C11.5241 29.1559 11.8804 33.6796 13.449 37.9223C15.0223 42.1777 17.8695 46.3192 21.4771 49.6961C25.4262 53.3927 30.5716 54.4549 35.6582 53.5132C40.7133 52.5772 45.7607 49.6688 49.8381 45.3405L49.8381 45.3405C54.076 40.8414 55.7998 35.1745 55.9184 29.8497C56.0364 24.5551 54.5737 19.4305 52.2205 15.8726Z" stroke="#1C1717" stroke-width="4" stroke-miterlimit="10" stroke-linecap="round"/>
<path d="M28.9082 21.4775C27.9947 22.0619 27.3058 22.9678 26.9396 23.9872C26.6535 24.7832 27.5961 25.4507 28.2477 24.9113L29.992 23.4676C30.2593 23.2464 30.5376 23.0194 30.8722 22.9284C31.1927 22.8413 31.5318 22.8876 31.8638 22.9068C33.1535 22.9815 34.4647 22.6174 35.5317 21.8885C35.8791 21.6512 36.2269 21.3378 36.1609 20.8585C36.1067 20.465 35.7836 20.1647 35.4004 20.0613C34.728 19.8802 34.0911 20.2026 33.5035 20.5143C33.7135 19.7876 34.6065 19.5729 35.3158 19.311C36.0764 19.0303 36.8709 18.1316 36.2039 17.5095C35.9345 17.2581 35.5345 17.203 35.1837 17.3158L31.7848 18.4105C30.6778 14.6412 30.7046 10.2446 27.9654 7.42853C27.817 7.27599 27.6549 7.12552 27.4531 7.05795C27.21 6.97619 26.9444 7.02519 26.6928 7.07517C25.5286 7.3051 25.1332 8.18799 24.347 8.7392C23.9654 9.00679 23.9267 9.54923 24.2786 9.85487C27.2981 12.4774 28.6751 15.0952 30.1892 19.0645C28.7556 19.1173 27.3219 19.1704 25.8883 19.2232C25.5507 19.2357 25.1964 19.252 24.9635 19.6046C24.6473 20.0837 24.8303 20.7282 25.3041 21.0523C26.0659 21.5738 27.0058 21.2972 27.8351 21.0167L28.9082 21.4775Z" fill="#5DC27C"/>
<path d="M27.2421 17.1719C26.1559 14.8111 24.9653 13.1004 22.9672 11.3649L27.2421 17.1719ZM27.2421 17.1719L25.8147 17.2246L25.8145 17.2246C25.8031 17.225 25.7887 17.2253 25.7716 17.2257C25.4451 17.2326 24.1148 17.2609 23.2948 18.5022L23.2944 18.5028C22.2735 20.0493 22.963 21.8736 24.1744 22.7027L27.2421 17.1719ZM25.1123 23.1632C24.8001 23.0628 24.4841 22.9146 24.175 22.7031L25.1123 23.1632ZM25.1123 23.1632C25.0935 23.2122 25.0752 23.2614 25.0574 23.3108L25.1123 23.1632ZM31.423 24.8817C31.38 24.9153 31.3332 24.9537 31.2672 25.0083L31.2672 25.0084L29.5229 26.452C29.5229 26.452 29.5229 26.4521 29.5229 26.4521C27.2777 28.3103 24.0949 25.9899 25.0574 23.311L31.423 24.8817ZM31.423 24.8817C31.4394 24.8827 31.4577 24.8838 31.4783 24.8852L31.5987 24.8937L31.423 24.8817ZM23.1988 7.10163L23.1988 7.1016C23.259 7.05943 23.338 6.99243 23.4756 6.85648C23.5004 6.83198 23.5366 6.79534 23.5801 6.75133C23.6995 6.6306 23.8737 6.45444 24.0168 6.32152C24.5108 5.86254 25.2247 5.32683 26.3038 5.11336C26.3137 5.11139 26.3259 5.10882 26.3402 5.1058C26.5637 5.05873 27.3118 4.90119 28.0882 5.16147L23.1988 7.10163ZM23.1988 7.10163C21.7976 8.08407 21.5921 10.1706 22.9671 11.3648L23.1988 7.10163ZM37.568 16.0469C36.6677 15.2071 35.4703 15.1228 34.5714 15.4119L34.5706 15.4121L33.2176 15.8479C33.1673 15.6069 33.1177 15.3613 33.0679 15.1106C33.0379 14.9597 33.0077 14.8064 32.9772 14.6511C32.8142 13.8231 32.6405 12.9406 32.429 12.0831C31.9259 10.0429 31.14 7.82381 29.3991 6.03401L29.3988 6.03378C29.395 6.02986 29.391 6.02573 29.3868 6.02139C29.2264 5.85614 28.7764 5.39268 28.0907 5.1623L37.568 16.0469ZM34.6486 17.4135C34.6486 17.4135 34.6476 17.4146 34.6452 17.4166C34.6474 17.4145 34.6485 17.4135 34.6486 17.4135ZM26.9725 23.3706C26.9728 23.3704 26.973 23.3701 26.9733 23.3699L26.9725 23.3706ZM36.1656 20.8578L36.1616 20.8584L36.1656 20.8578Z" stroke="#1C1717" stroke-width="4" stroke-miterlimit="10" stroke-linecap="round"/>
</svg>
