<svg width="1419" height="150" viewBox="0 0 1419 150" fill="none" xmlns="http://www.w3.org/2000/svg">
<g clip-path="url(#clip0_227_12)">
<path d="M384.715 2.5H44.3004C21.2147 2.5 2.49991 21.2147 2.49991 44.3005V147.5H401.645V19.43C401.645 10.0798 394.065 2.5 384.715 2.5Z" fill="#66AEF4" stroke="#1D1E19" stroke-width="5"/>
<rect x="-2.5" y="2.5" width="29.9741" height="57.9533" rx="9.15803" transform="matrix(-1 0 0 1 29.9741 31.0884)" fill="#F0E6D1" stroke="#1D1E19" stroke-width="5"/>
<rect x="-2.5" y="2.5" width="96.0362" height="57.9533" rx="9.15803" transform="matrix(-1 0 0 1 146.555 31.0884)" fill="#F0E6D1" stroke="#1D1E19" stroke-width="5"/>
<path d="M151.554 46.6318H50.5182" stroke="#1D1E19" stroke-width="5"/>
<rect x="-2.5" y="2.5" width="96.0362" height="57.9533" rx="9.15803" transform="matrix(-1 0 0 1 383.602 31.0884)" fill="#F0E6D1" stroke="#1D1E19" stroke-width="5"/>
<path d="M388.602 46.6318H287.565" stroke="#1D1E19" stroke-width="5"/>
<path d="M17.0989 11.6582L400.259 11.6582" stroke="#1D1E19" stroke-width="5"/>
<path d="M401.646 147.5V115.971H2.50064V147.5H401.646Z" fill="#F49EB7" stroke="#1D1E19" stroke-width="5"/>
<path d="M0.000637472 125.907H404.146" stroke="#1D1E19" stroke-width="5"/>
<path d="M0.000637472 136.788H404.146" stroke="#1D1E19" stroke-width="5"/>
<path d="M219.003 33.5884H178.757C173.699 33.5884 169.599 37.6886 169.599 42.7464V147.5H219.003V33.5884Z" fill="#F6CA45" stroke="#1D1E19" stroke-width="5"/>
<path d="M260.363 33.5884H220.117V147.5H269.521V42.7464C269.521 37.6886 265.421 33.5884 260.363 33.5884Z" fill="#F6CA45" stroke="#1D1E19" stroke-width="5"/>
<rect x="-2.5" y="2.5" width="26.0881" height="46.2953" rx="5.27202" transform="matrix(-1 0 0 1 204.845 42.7466)" fill="#F0E6D1" stroke="#1D1E19" stroke-width="5"/>
<rect x="-2.5" y="2.5" width="26.0881" height="46.2953" rx="5.27202" transform="matrix(-1 0 0 1 255.363 42.7466)" fill="#F0E6D1" stroke="#1D1E19" stroke-width="5"/>
<path d="M425.576 2.5H992.933C1002.28 2.5 1009.86 10.0798 1009.86 19.43V147.5H408.646V19.43C408.646 10.0798 416.225 2.5 425.576 2.5Z" fill="#66AEF4" stroke="#1D1E19" stroke-width="5"/>
<rect x="898.282" y="33.5884" width="96.0362" height="57.9533" rx="9.15803" fill="#F0E6D1" stroke="#1D1E19" stroke-width="5"/>
<path d="M895.782 46.6318H996.819" stroke="#1D1E19" stroke-width="5"/>
<rect x="661.236" y="33.5884" width="96.0362" height="57.9533" rx="9.15803" fill="#F0E6D1" stroke="#1D1E19" stroke-width="5"/>
<path d="M658.736 46.6318H759.772" stroke="#1D1E19" stroke-width="5"/>
<path d="M1009.25 11.6583L410.809 11.6582" stroke="#1D1E19" stroke-width="5"/>
<path d="M408.646 147.5V115.971H1009.86V147.5H408.646Z" fill="#F49EB7" stroke="#1D1E19" stroke-width="5"/>
<path d="M1012.36 125.907H406.146" stroke="#1D1E19" stroke-width="5"/>
<path d="M1012.36 136.788H406.146" stroke="#1D1E19" stroke-width="5"/>
<path d="M828.334 33.5884H868.581C873.638 33.5884 877.739 37.6886 877.739 42.7464V147.5H828.334V33.5884Z" fill="#F6CA45" stroke="#1D1E19" stroke-width="5"/>
<path d="M786.974 33.5884H827.221V147.5H777.816V42.7464C777.816 37.6886 781.917 33.5884 786.974 33.5884Z" fill="#F6CA45" stroke="#1D1E19" stroke-width="5"/>
<rect x="839.993" y="45.2466" width="26.0881" height="46.2953" rx="5.27202" fill="#F0E6D1" stroke="#1D1E19" stroke-width="5"/>
<rect x="789.474" y="45.2466" width="26.0881" height="46.2953" rx="5.27202" fill="#F0E6D1" stroke="#1D1E19" stroke-width="5"/>
<rect x="424.19" y="33.5884" width="96.0362" height="57.9533" rx="9.15803" fill="#F0E6D1" stroke="#1D1E19" stroke-width="5"/>
<path d="M421.69 46.6318H522.726" stroke="#1D1E19" stroke-width="5"/>
<path d="M591.288 33.5884H631.534C636.592 33.5884 640.692 37.6886 640.692 42.7464V147.5H591.288V33.5884Z" fill="#F6CA45" stroke="#1D1E19" stroke-width="5"/>
<path d="M549.928 33.5884H590.174V147.5H540.77V42.7464C540.77 37.6886 544.87 33.5884 549.928 33.5884Z" fill="#F6CA45" stroke="#1D1E19" stroke-width="5"/>
<rect x="602.946" y="45.2466" width="26.0881" height="46.2953" rx="5.27202" fill="#F0E6D1" stroke="#1D1E19" stroke-width="5"/>
<rect x="552.428" y="45.2466" width="26.0881" height="46.2953" rx="5.27202" fill="#F0E6D1" stroke="#1D1E19" stroke-width="5"/>
<path d="M1033.79 2.5H1374.21C1397.29 2.5 1416.01 21.2147 1416.01 44.3005V147.5H1016.86V19.43C1016.86 10.0798 1024.44 2.5 1033.79 2.5Z" fill="#66AEF4" stroke="#1D1E19" stroke-width="5"/>
<rect x="1386.03" y="33.5884" width="29.9741" height="57.9533" rx="9.15803" fill="#F0E6D1" stroke="#1D1E19" stroke-width="5"/>
<rect x="1269.45" y="33.5884" width="96.0362" height="57.9533" rx="9.15803" fill="#F0E6D1" stroke="#1D1E19" stroke-width="5"/>
<path d="M1266.95 46.6318H1367.99" stroke="#1D1E19" stroke-width="5"/>
<rect x="1032.41" y="33.5884" width="96.0362" height="57.9533" rx="9.15803" fill="#F0E6D1" stroke="#1D1E19" stroke-width="5"/>
<path d="M1029.91 46.6318H1130.94" stroke="#1D1E19" stroke-width="5"/>
<path d="M1401.41 11.6582L1018.25 11.6582" stroke="#1D1E19" stroke-width="5"/>
<path d="M1016.86 147.5V115.971H1416.01V147.5H1016.86Z" fill="#F49EB7" stroke="#1D1E19" stroke-width="5"/>
<path d="M1418.51 125.907H1014.36" stroke="#1D1E19" stroke-width="5"/>
<path d="M1418.51 136.788H1014.36" stroke="#1D1E19" stroke-width="5"/>
<path d="M1199.51 33.5884H1239.75C1244.81 33.5884 1248.91 37.6886 1248.91 42.7464V147.5H1199.51V33.5884Z" fill="#F6CA45" stroke="#1D1E19" stroke-width="5"/>
<path d="M1158.15 33.5884H1198.39V147.5H1148.99V42.7464C1148.99 37.6886 1153.09 33.5884 1158.15 33.5884Z" fill="#F6CA45" stroke="#1D1E19" stroke-width="5"/>
<rect x="1211.16" y="45.2466" width="26.0881" height="46.2953" rx="5.27202" fill="#F0E6D1" stroke="#1D1E19" stroke-width="5"/>
<rect x="1160.65" y="45.2466" width="26.0881" height="46.2953" rx="5.27202" fill="#F0E6D1" stroke="#1D1E19" stroke-width="5"/>
</g>
<defs>
<clipPath id="clip0_227_12">
<rect width="1418.51" height="150" fill="white"/>
</clipPath>
</defs>
</svg>
